/* XPM */
static char *_bf64ed8a88f4680b7e197202a16e9a8TIxeacfqPhY2sDWO_0[] = {
/* columns rows colors chars-per-pixel */
"75 75 256 2 ",
"   c None",
".  c gray69",
"X  c #AFAFAF",
"o  c #B1B1B1",
"O  c #6D3E32",
"+  c #5E2521",
"@  c #AF8A70",
"#  c #AEAEAC",
"$  c #9C6451",
"%  c #ACACAA",
"&  c #6B3B30",
"*  c #521B18",
"=  c #561F1C",
"-  c #68362D",
";  c #5B221F",
":  c #561B30",
">  c #602823",
",  c #AD856C",
"<  c #AAABA6",
"1  c #653129",
"2  c #9B6250",
"3  c #4D1715",
"4  c #3E0C33",
"5  c #7E5438",
"6  c #17274D",
"7  c #6F4133",
"8  c #995D4E",
"9  c #ABA5A5",
"0  c #A97D66",
"q  c #9E6855",
"w  c #A7ABA0",
"e  c #A16C59",
"r  c #96554A",
"t  c #511930",
"y  c #4A1313",
"u  c #A0A794",
"i  c #779447",
"p  c #945248",
"a  c #95584B",
"s  c #471110",
"d  c #622B25",
"f  c #622D26",
"g  c #98A386",
"h  c #7B4F37",
"j  c #734534",
"k  c #420E0E",
"l  c #0C0C17",
"z  c #B99C70",
"x  c #A3725E",
"c  c #B59570",
"v  c #914D45",
"b  c #9CA68B",
"n  c #A4AA9C",
"m  c #23485D",
"M  c #879C65",
"N  c #728E49",
"B  c #739140",
"V  c #94A180",
"C  c #774A35",
"Z  c #B18D70",
"A  c #965B51",
"S  c #400E16",
"D  c #8F4841",
"F  c #CDB475",
"G  c #839860",
"H  c #3D0D2D",
"J  c #0D080E",
"K  c #8A5849",
"L  c #7B974D",
"P  c #6E8D3E",
"I  c #491333",
"U  c #80975A",
"Y  c #110F23",
"T  c #9B6A65",
"R  c #5A2721",
"E  c #A57965",
"W  c #1B153F",
"Q  c #A89D9C",
"!  c #A7A3A0",
"~  c #33111D",
"^  c #835A3A",
"/  c #8D9F73",
"(  c #471728",
")  c #5D2D26",
"_  c #9CA48F",
"`  c #919E79",
"'  c #9D7563",
"]  c #78924F",
"[  c #280F1D",
"{  c #7C9554",
"}  c #4C172E",
"|  c #204058",
" . c #809A54",
".. c #8B6440",
"X. c #698935",
"o. c #150812",
"O. c #63322A",
"+. c #9C9696",
"@. c #15102E",
"#. c #9B6155",
"$. c #6B8E30",
"%. c #A19A9A",
"&. c #140E18",
"*. c #421425",
"=. c #688F26",
"-. c #141C45",
";. c #281922",
":. c #859768",
">. c #C5AA73",
",. c #96605B",
"<. c #6E9135",
"1. c #07060A",
"2. c #9F7975",
"3. c #152349",
"4. c #899A6E",
"5. c #A1837D",
"6. c #A79694",
"7. c #9B746D",
"8. c #BEA171",
"9. c #859D5C",
"0. c #2E0D23",
"q. c #310D12",
"w. c #370D2B",
"e. c #8B9E6B",
"r. c #8F725B",
"t. c #603431",
"y. c #13101D",
"u. c #6C9429",
"i. c #341C23",
"p. c #2C1E1C",
"a. c #1B3250",
"s. c #1B0C13",
"d. c #1E0E1E",
"f. c #939194",
"g. c #694443",
"h. c #9D695C",
"j. c #20121A",
"k. c #13172B",
"l. c #70923A",
"z. c #906453",
"x. c #342827",
"c. c #101624",
"v. c #643D35",
"b. c #181337",
"n. c #663E3C",
"m. c #738749",
"M. c #76993B",
"N. c #967043",
"B. c #897574",
"V. c #836D6B",
"C. c #65852B",
"Z. c #1F1B19",
"A. c #230C13",
"S. c #938682",
"D. c #76773D",
"F. c #4D4549",
"G. c #765B57",
"H. c #8D9173",
"J. c #735550",
"K. c #1E2442",
"L. c #A7908D",
"P. c #3F0D23",
"I. c #400D34",
"U. c #A48886",
"Y. c #753436",
"T. c #7E5444",
"R. c #203B51",
"E. c #7D6261",
"W. c #373034",
"Q. c #8C8E8B",
"!. c #A28C88",
"~. c #71972E",
"^. c #704B46",
"/. c #A1A39A",
"(. c #7B4C40",
"). c #593632",
"_. c #7B8E54",
"`. c #472E35",
"'. c #7C7D47",
"]. c #161B34",
"[. c #956A5C",
"{. c #7F383B",
"}. c #6C748B",
"|. c #4D1D1C",
" X c #463229",
".X c #838E61",
"XX c #440F31",
"oX c #999681",
"OX c #162939",
"+X c #636463",
"@X c #7F7F84",
"#X c #261B33",
"$X c #20304B",
"%X c #313B5A",
"&X c #6C4E4C",
"*X c #6F8336",
"=X c #838558",
"-X c #7F433E",
";X c #594242",
":X c #85754D",
">X c #3C1F2F",
",X c #7F6639",
"<X c #8A6A52",
"1X c #412522",
"2X c #989D8E",
"3X c #806A46",
"4X c #917D75",
"5X c #7B6C5C",
"6X c #767474",
"7X c #605240",
"8X c #7B7F62",
"9X c #251829",
"0X c #3B3D3D",
"qX c #7C5E5A",
"wX c #595D73",
"eX c #5B6326",
"rX c #535253",
"tX c #1A1333",
"yX c #2F2A1C",
"uX c #875B42",
"iX c #4A4341",
"pX c #682934",
"aX c #936846",
"sX c #898482",
"dX c #5D7438",
"fX c #292B33",
"gX c #6C6B6E",
"hX c #522F1C",
"jX c #6C6D80",
"kX c #2E3443",
"lX c #30223C",
"zX c #9F9D8B",
"xX c #46552F",
"cX c #512329",
"vX c #665C34",
"bX c #593421",
"nX c #3A372A",
"mX c #6A6A3B",
"MX c #624734",
"NX c #343B18",
"BX c #612434",
"VX c #563E28",
"CX c #3B384E",
"ZX c #637D2A",
"AX c #5B4C29",
"SX c #74786F",
"DX c #557221",
"FX c #4F556A",
"GX c #424A50",
"HX c #414A1D",
"JX c #3E4462",
"KX c #77787C",
"LX c #576842",
"PX c #675963",
"IX c #616054",
"UX c #AB8777",
/* pixels */
". . . % o . o N g X . . o X n { < o X . o . 4.M X . o o o o . . . % o . o :.V X . . . . < X.n o X X o . b G X . . o o . . . o % X o o /.G % X . o X # ",
". . . X . X X ] g . X # X X w { < X X . . . :.G X . o o . X . o . X o X X e.` o X X X X # X.n X X . . . g U X . o o o X X o . X . . X w U # . # X X X ",
"o o X # X X . { b . . X . . < U % . . o . X 4.G o X . o . . o o X # X X X e.V o . X X . X B n . . o o X g U o X . o . o o o X X # X X w G # . X X . . ",
"o X X . o o . N g # o o . X w ] < o . . . # 4.G % # X o X . o X # X o o o :.` X o o X X X X.n o . o o # g U . 9 . . X X o . % X o o o n { % . o X X . ",
"X X # . . o o P V X X . X X n N w X . . X # :.G . X . # o X X . # . . . o G 4.. # o X . % C.u # . . X X g U X . . X o . # . # . o . o _ _.< # . X X X ",
"b _ u u _ u b u.L g u u u u g P g u u n n _  . .u u u b b b b _ u u _ u b i B V u u u u _ C.V u u n n u e.i u _ u u b b b _ _ u u _ _ M <.e.u u u u u ",
"u.$.C.$.=.u.u.u.=.X.N m.m.m.N <.X.X.P i i <.u.u.<.<.<.=.=.=.u.$.C.$.=.=.u.u.u.$.N m.m.P P <.X.X.<.i i P ~.u.<.$.<.=.=.=.u.$.C.$.=.=.u.u.u.=.N N m.m.m.",
"<.b w 2X2X_ g u.M # o o o o . # . % # X X # i 9.# # < w < < $.g < u 2X2Xg M. .< . o . o . X X # % X X # M L % # < w < w l.M < u 2X_ 2XM M.u . o o o . ",
"=.b X . . X # X.V X . o o . . X . . . o o . 9.e.. o o # o o <.g . o . . X ] 4.X X . o . . X X . . . o . `  .X . . X . X i G . . . . # V L < X o o o . ",
"$.u # . . . X X.` o % . o . o o . . . o o . e.M # X o X . . $.u # o . . X { :.X % X o X o o . . . o o . g  .X # o . X X B :.# . . o X V ] < % . . . . ",
"<.u # X o o . X.V . o . X . . o o o X o X o e.U . . X X % o $.n # X o o o  .4.. o . . . o o o o X . X o b N . X . X % % B 4.X X o o . g { < o . . . . ",
"<.u . . o . X B g . o X X X . X o . X . . o M  .. X X . # . $.w . . . . X 9./ . o X X . X X . . X X . o b N . X X X X % l./ . . . . X b  .< o X . X X ",
"l.n o . < o o i g o o X # X X . . X . o o . e.9.. . X . o . $.w o . < X o e./ o o X # X X . . X . o o . b i . . . X o # B / o . % . o n  .% o . # X X ",
"l.n o X . o o B  .` V b u V ` ` ` ` b u _ g L 9.. . . # o o X.< . X . . o G L ` V b _ V ` V ` ` b u u g G L X o . . X # B ` o X X . o _ l.e.V g u g ` ",
"B w . X . X . <.<.P P B l.<.l.$.~.<.X.m.] U l.e.# o . o . . X.X . X . X . { u.B P i l.<.l.$.~.<.X.P m.U i U # o . . o % P V . X X X X g =.B P B B <.l.",
"i < . X o X X <.V # # X % % % w w < # X X X M e.X X X X . . X.. . X o . X U / # % . # < % < w w # X X X g 9.# X X # X % P b o X o . X _ { < # # # < % ",
"N w X o . X X B g X . o X . # . . o o o o . M M . X . % o . X.X X o . X X G ` X X o X . X . . o o o o o g  .X X . # . % X.b # . o X X _  .% X o . X X ",
"] % o o X X X L g X o o . . X o o o X # X # M  .% % o X X X P o o o X X X M V . . o . . X . o o X # X # g B # 9 o o X < <.u o o . X X n 9.% . o . . X ",
" .# . o . X # i g . o o . X . . o o X X . X e.9.# X o o o . l.o o . . % Q G / o o o . X . X o o X X . . g i # X o o o % l.u o . o . X u { < o o . X X ",
"] < o X X # o B V . o . . . . . . . % % o # M  .X . o . . . P % o X 5.h.T z.r.% o X X X . . . . < % . X g B X X o . . < <._ o X X < . u ] < o o X . . ",
"M._ X X X . . P / X X X X X X X % . . . o o e.9.. X o X X w ~.b X 9 e @ , 0 2 7.+.6X%.X X . # X . . o o b L . # . X X w M.e.X X . X . _ i n # X X X X ",
"u.C.N N N ] N =.=.X.X.X.N ] { L i N N B N B M.~.] N N N X.$.~.=.B :X' r.x.K v.J 1.eXN ] { L i N N P N B M.~.] ] ] ] P $.~.=.P N N N N P =.C.X.X.P ] ] ",
"b u _ _ _ g g <.M _ b g V b ` l./ b b b _ u 9.L b g V b _ V H.r.r.uX X&.1.1Xl y.i...3X<X.XC./ b b g b u / i b V g g _ b b u _ _ _ b g 4.B g _ b V g g ",
"# o o . . X X <.V o o o o o u N w X o # . X :.U o o o . 6.T #.x h.).l k.J l ].9X(.2 8 r p ^ zXX o X X 9 V { o o o . . . # o o . . X X g L < . o o o o ",
"o . % X % X # $.` . . . . . u ] # . o . o . rXF.% f.6XqX8 , @ , g.A.q.k k k k k = & T.x 0 0 #.7.@X+.X rXxX{ X X X # . . . X X % # . X g ] w o . . . X ",
"o X . X # X # *XH.9 % 9 X # b ] X . . . X . 0X&.F.>Xi.(.0 ' T.) * 3 * = = = = = * * = ) ^.' E p `.W.F.&.yX{ . . . . . o . X # 9 9 9 Q H.L < o . o # X ",
"X X X . o . 9 $ q h.A A T 9 u N < # . . X ! fXl J w.Y.E ^.|.|.; + + + + + + + + + + + ; * |.T.E Y.w.J l Z._.. . o . X . o 9 T A ,.h.h.[.U # o o o X . ",
"o . o o . % 2.2 $ $ $ $ r T /.] < . . f.iXj.1.Y l s.7 ) 3 + + + + + f 1 1 - 1 1 f + + + + + * - v.o.l Y 1.j.F.+.. o X X o T a $ $ $ $ 2 r.< . o . o . ",
"` V V V ` oX[.$ $ q 2 a 8 T n L w % KXW.i.H o.J ].y.S * + + + > f - & O O O O O & - f > + + ; = S y.].J o.H i.W.SXg g V ` z.8 a 2 q $ $ T 9 . . o o o ",
"l.P i L i D.v e 0 , q r D L.w { w +X;.t t 4 o.1.l q.= + + + f & O O O O O O O O O O O & f + + + = q.l 1.o.4 t t Z.HXC.C.$.D.D r q , 0 e a 6.. o o X . ",
". X X o Q #.$ x @ @ , q 8 T n ] sX[ } : I 4 s.y.q.* + + > - O 7 7 O O O O O O O O O O O O - > + + * q.y.d.4 I : } [ Q.# # T 8 q , @ @ x 2 #.! . . . . ",
"X o . X 6.A 2 e , @ @ x $ 8 [.dXx.t : : XX4 w.q.3 + + > - 7 h ^ ..C O O O O O O O O O O O O - > + + 3 q.w.4 XX: : t x.sX7.8 $ x @ @ , e 2 A Q o o o o ",
". . . X X 7.p e , E e q 2 a 1XZ.[ : : : 4 4 H S ; + + f O h 5 ..aXh O O O O O O O O O O O O & f + + ; S H 4 4 : : : [ 9X Xa 2 q e 0 , e r T # . . o o ",
"o o o . % h.p x x $ $ $ q q x.W Y t : t 4 4 P.y + + + - 7 h 5 5 h 7 O O O O O O O O O O O O O - + + + y P.4 4 t : t Y W p.8 2 $ $ $ x x r h.9 o . o o ",
"X X . < % 7.v $ 2 p e 8.F F 3X@.b.~ : I 4 t y = + + d O O C C O O O O O O O O O O O O O O O O O d + + = y I I.I : ~ b.@.J.F F Z q r 2 $ v 2.# . . X o ",
"# % % < % L.A 2 p p 8.F F 8.r.y.W A.t XX: Y.3 + + + 1 O O 7 O O O O O O O O O O O O O O O O O O 1 + + + * Y.: XXt A.W y.r.>.F >.@ v p 2 A 6.. % . X . ",
"L B ] i P D.a r v , F F z Z ' j.W o.( I {.K * + + > & O O O O O O O O O O O O O O O O O 7 C 7 O & > + + * K {.I ( o.W j.' Z 8.F 8.E v r a '.i B 9.M U ",
"$.M V / G =XA v #.c z z @ @ 0 p.tXJ ( pX8 (.* + + d O O O O O O O O O O O O O O O O O O h 5 h 7 O d + + * K a pX( J tXp.0 @ Z z z c #.v a .X/ V / ` g ",
"U # . X . 9 h.D e z z c @ @ 0 p.@.l *.Y.e j = + + d O O O O O O O O O O O O O O O O O O 5 5 5 C O f + + = K e Y.*.l @.p.0 @ @ c z c e D ,.! X o o o X ",
"_.< X X . % 7.D #.c z Z @ @ E p.@.o.*.Y.e j = + + f O O O O O O O O O O O O O O O O O 7 5 5 5 h O f + + = K e Y.*.o.@.p.E @ @ Z z c #.D 3X/.. X X o X ",
"G < # # o X L.D r Z c @ @ @ e p.@.o.( BX8 (.* + + f O O O O O O O O O O O O O O O O O C 5 5 5 h O f + + * K 8 BX( o.@.p.e @ @ @ c @ r D D.u o o X . . ",
"U X o X o . X =X^ E @ @ @ 0 2 p.b.o.( I t ( * + + d O O O O O O O O O O O O O O O 7 C 5 5 5 5 C O d + + * } t I ( o.b.p.2 0 @ @ @ e ,.!.C._ # X o . o ",
"U # . o X . X L D.A , @ , q 8 ;.W s.} I 4 H 3 + + > O O O O O O O O O O O O 7 7 j h 5 5 5 5 5 j O d + + 3 H 4 I } s.W ;.8 q , @ , A L.< C._ . . X . o ",
"_.# o o . o o L l.' 2 0 e $ K ;.W A.t I 4 H y ; + > & O O O O O O O O O C h h 5 5 5 5 5 5 5 C O & > + ; y H 4 I t A.W ;.K $ e 0 2 U.. n =.M < < w % # ",
"{ < . X o . . i =.i r.p 8 $ K #XW ~ : t 4 4 S = + + 1 O O O O O O O 7 h 5 5 ^ uX....^ 5 5 C O O 1 + + * S 4 4 t : ~ W #XK $ 8 r 2.. . /.=.<.] { N P B ",
"{ < # . o o o i / % . 6.,.r K lXW *.: : I.4 P.y + + + - O O O O O O 7 h 5 aXN.N.N.N.^ 5 j O O - + + + y P.4 I.: : *.W lXT.r ,.Q o o o n B n X X o X # ",
"] < # o o o o B V X o X # Q 4XW.@.t : : I 4 H S ; + + > & O O O O O O C 5 N.N.N.N.^ h 7 O O - > + + ; S H 4 I : : t @.fXvXoX% . o o o u L < X . X . . ",
"U < . o % . o P ` X . . . o X # Q.;.~ : : I.4 P.3 + + + > f - O O O O O 7 C 5 h C 7 O O - f > + + + 3 P.4 I.: : ~ ;.Q.n $.n X o X . o u i w X . . o . ",
"U < . X . o o i ` X X . . . o . o %.F.[ } t I.4 S * + + + + + d 1 - & & & & & & & - 1 d + + + + + * S 4 I.t } [ 0X+.X w $.n # X X o o n i w # . . . . ",
"U % . o o X . i / X # . . # X X . X < sXiXi.H 4 H S = + + + + + + + > > > > > > > + + + + + + + = S H 4 H ~ W.KX9 X X w $.n o o o X X w B n % . X # X ",
"9.% . o . X . L / X . . . # # X . X # X < gXx.0.4 H k = + + + + + + + + + + + + + + + + + + + = k H 4 0.Z.HX! . . X X w l.u . . o X . w P n # o . X # ",
"~.] ] i P i i ~.M.N i N ] i B i L i B B i <.u.C.HXNXNXbX* + + + + + + + + + + + + + + + + + = hXNXyXNXDX=.M. . .9. . .L =.i ] N N N i B ~.i N N N i B ",
"4.` / e.:.G i =.M.G M 4./ / M M./ ` ` ` / / i i e..X.X.XG.; ; + + + + + + + ; ; + + + + ; R 5XH.H.H.4./  .M.e.e.M G M M M / ` / 4.G { =.u.{ M 4.4./ / ",
". . X . < # < ZX/ . o . . o u L < . . o o o 4.e.o . o +.E.R s * + + + ; * = ; 3 * + + * v.*Xn . . o o o b M o . o . o X X o X X # % # ` P w o . . . o ",
"o . . o o X . X.` X X X o o u i w X X o . X / G X 9 J.= ; + ; 3 s 3 * = = + ; = * 3 3 R B.eX5X4X+.# o # b G % . o o . . . o . o o . X 2XN < X X o o o ",
". o o o o . o X.g X # X o o u i w X . % X o e.G . E.1 & f 3 s k = R 3 t.n.bXv.J.V.) ; y * = = R = ) E.! g U . X X X . o . . o o o . . 2X{ % X # o o . ",
"o o o o . . X N g X . . X o n L w % X . X o M G Q n.& f + ; 3 * - & E.9 X G V X o B.& R 3 = + > 1 - O.v.5X] o . . . X . . o o o . . . u U % o . . . o ",
"o . . o X X X ] b X . . . o n L n X . . X . G U S.t.d + + = = C j v.! X X M g X . < qX5 C R + > + 1 O O.hXD.o X o o X X o o . o o X X n G # X X o . o ",
"w n w w u b V l._ . X . . o n L n . . o o o G i &X> + + d j N.5 J.zXu _ g i b X X . % E.5 N...5 & 1 - O - = /.n u _ w < w n w w n b g G M X X . . o o ",
"U { U ] i i i =.b o . . o . w L w . X . o . M C.) - d & ^ ..h vXm.{ i i i =.g o . . . < V.j ^ ..uX7 O O O > mXL i P { { U { U { ] i i <.M X . . o . . ",
"% < % w w < < P b X . . o X n { < o . X o X 4.eX- O O C & J.+.< < < w < < { g X . . o . < ZXG.v.R R ) O.- & ) n w w < < % % < w w < < g G % X X o . # ",
". o o # o X X ] g . . X X X w { < X X o . . 8XhX1 ) v.E.%.# . o o X o X X e.` . X X . X # X.n X %.S.V.E.J.AXg.%.. o o X . o o X X . X w U # . X . X X ",
"o . X X X X . ] g o X # X X w U % X . . . . 5XVXV.+.. o . X . . X X . X X 4.V o . # X X # P n X o . . X g U . . o o o X . o # X X X X w U # o X # . X ",
"o X # X . o X ] g # o . . . < { < o . o . # 4.G X X . o . . o . # # . o . :.V X . . . X X P n o . o o # g _.. % . o . . o o # X X o . w U # . o X . o ",
". # # o o o o P V X o o X X w N w . . o . X 4.M % # . X . X . # # . o o o G / X . o X X # C.u X . o . X g U . 9 . X X X X X % . o o o /._.< X o X X . ",
". . . . o . X X./ # # X # # n N w X o . X # :.G . X . X X . X . . o . . . { G % # o # # < C.u X . . X # g { . X X . X . X o . . o X . 2Xi n # X . # # ",
"U U G 9.U 9. .u.u.{ 4.:.:.:.G <.U :.M / / G M.M.9.M M {  . . .U G M U 9.9.~.u.] :.:.:.:.:.=.{ :.G / / :.L <.M G M 9. . . .9.U M 9.U 9.M.u.B :.4.:.:.:.",
"~.L L B <.B M.u.~.G :.4.4.:.:.G G { 9.M G 9.~.M.9.9.L L  . .u.L L i <.l.M.u.u.U :.4.4.:.:.M G _.9.G G 9.M.~.9.9. .L L L ~.M.{ i l.l.M.~.u.L :.:.4.4.:.",
"$._ . . . X # $.` X . o o . . X . X . . o .  .e.X o o X o o <.g o . . X # { e.X . o o o . X . X X . . . /  .X o o o . X i M . . . . # V L w X o o o . ",
"$._ # . o . # X.` . X . o . o X X . . o o . M M X . o X o . $._ X o . . X ] 4.X X X o . o . . . . . o . V  .X X . X X X i :.X X . o X V ] < X . o . . ",
"<.u . . o o . X.V o X o . . o o o . X o o . e.U % X o X o . $.n X o o o o { 4.. X o . . o o o o # . o o b ] # # o . . # B 4.X . o o . V { < X o . . o ",
"<.u # . o . X l.g . o X X . . . o o X o . o M U . X X X < . $.w # X . . X 9./ . o X X . . . o o X X . o b N . X X X % % P 4.X X . . . b  .< o X . X . ",
"l.n o . X X X B g o o X X # . X . X X . o o e.U . . X o . X $.w o . X X X M / o o X X X X X X X X . . o b i X . X X o # B / o . X X X u  .% o . X # X ",
"l.n o X # o o B / n w < < n n n n n < % < w 9.9.. . . X o o X.< o X # . o G M n n < < n n n n n w < < w ` L X . . . . # B / o X # . o u i u n w < w /.",
"B w . # o . o l.u.P i L  .B P B M.B N _.] ] $.M . o . X . . X.% . # . X o U u.B B L L i B B B l.N _._.] P L X o . . X % P V o # X X . b =.l.B L  .i B "
};
