/* XPM */
static char *result[] = {
/* columns rows colors chars-per-pixel */
"75 75 235 2 ",
"   c #09070B",
".  c #12070F",
"X  c #0C0C17",
"o  c #160B16",
"O  c #181215",
"+  c #240D19",
"@  c #3A0D16",
"#  c #24131A",
"$  c #271819",
"%  c #361319",
"&  c #33221D",
"*  c #323419",
"=  c #130E26",
"-  c #161427",
";  c #1A133A",
":  c #181233",
">  c #0F1222",
",  c #2A0A22",
"<  c #3E0C2C",
"1  c #3C0C24",
"2  c #241926",
"3  c #3A1624",
"4  c #3E0C33",
"5  c #331837",
"6  c #352827",
"7  c #34302E",
"8  c #1F201C",
"9  c #430D19",
"0  c #451113",
"q  c #4B1414",
"w  c #4E1A18",
"e  c #501917",
"r  c #551D1A",
"t  c #581F1C",
"y  c #460F0F",
"u  c #4E261D",
"i  c #56221D",
"p  c #5A221E",
"a  c #53281C",
"s  c #513C1D",
"d  c #400C24",
"f  c #48172A",
"g  c #531A2E",
"h  c #410E34",
"j  c #451134",
"k  c #4B1432",
"l  c #551A30",
"z  c #541A32",
"x  c #5E2521",
"c  c #5D2B24",
"v  c #562727",
"b  c #5D332D",
"n  c #4D3330",
"m  c #612B25",
"M  c #652D28",
"N  c #65322A",
"B  c #69362D",
"V  c #6A3A2E",
"C  c #663628",
"Z  c #682836",
"A  c #6D3E32",
"S  c #643C38",
"D  c #7A343A",
"F  c #36421E",
"G  c #45481C",
"H  c #55482A",
"J  c #6E4133",
"K  c #654636",
"L  c #724434",
"P  c #764A35",
"I  c #774B39",
"U  c #7D5237",
"Y  c #7F5538",
"T  c #67522D",
"R  c #5A7B29",
"E  c #586C32",
"W  c #7B7638",
"Q  c #686F38",
"!  c #557B1D",
"~  c #1E1642",
"^  c #393644",
"/  c #4A2F44",
"(  c #585657",
")  c #4F4C4C",
"_  c #6C4946",
"`  c #74554B",
"'  c #795B59",
"]  c #6A524E",
"[  c #7A714F",
"{  c #6E6D6E",
"}  c #797677",
"|  c #7C6864",
" . c #655E60",
".. c #843D3C",
"X. c #8F433F",
"o. c #825839",
"O. c #8B653E",
"+. c #8A4943",
"@. c #924C44",
"#. c #924C46",
"$. c #895847",
"%. c #95544A",
"&. c #995C4D",
"*. c #945649",
"=. c #995D53",
"-. c #865D5C",
";. c #8D6745",
":. c #926C41",
">. c #9A604F",
",. c #977244",
"<. c #9C6452",
"1. c #9F6955",
"2. c #9A6759",
"3. c #8F6E55",
"4. c #A16C5A",
"5. c #A06B57",
"6. c #A5755D",
"7. c #826867",
"8. c #9C6864",
"9. c #947763",
"0. c #8E7C77",
"q. c #A57561",
"w. c #A57B64",
"e. c #A97D66",
"r. c #AA7E69",
"t. c #A27977",
"y. c #5E861E",
"u. c #65921E",
"i. c #5F8720",
"p. c #638B24",
"a. c #658B2B",
"s. c #698D2B",
"d. c #648726",
"f. c #6B9423",
"g. c #6D932C",
"h. c #6B9725",
"j. c #729C2C",
"k. c #719B2B",
"l. c #658533",
"z. c #6B8C34",
"x. c #69863E",
"c. c #6D8C3C",
"v. c #678736",
"b. c #718E3D",
"n. c #728D35",
"m. c #6E9134",
"M. c #6F903A",
"N. c #719534",
"B. c #72933C",
"V. c #75983A",
"C. c #759937",
"Z. c #6E8C43",
"A. c #6C8745",
"S. c #718E44",
"D. c #758E4B",
"F. c #7A8247",
"G. c #749344",
"H. c #7A9A44",
"J. c #76924A",
"K. c #7A954D",
"L. c #7D994D",
"P. c #789643",
"I. c #7B9553",
"U. c #7E9953",
"Y. c #7E945A",
"T. c #7F9959",
"R. c #798F5B",
"E. c #7E9261",
"W. c #7C8071",
"Q. c #819C56",
"!. c #81975C",
"~. c #829B5B",
"^. c #809657",
"/. c #868C57",
"(. c #819564",
"). c #859A63",
"_. c #8A9C6C",
"`. c #869969",
"'. c #8D9D73",
"]. c #8E9D79",
"[. c #8B9670",
"{. c #909F75",
"}. c #919E7A",
"|. c #95937C",
" X c #95856D",
".X c #AC846B",
"XX c #AC876E",
"oX c #B4936F",
"OX c #AF8A70",
"+X c #A4827E",
"@X c #B08D70",
"#X c #B49370",
"$X c #BA9C71",
"%X c #B79970",
"&X c #B28B68",
"*X c #8CA16C",
"=X c #8EA173",
"-X c #91A275",
";X c #93A27C",
":X c #A89764",
">X c #CCB375",
",X c #C4A973",
"<X c #958585",
"1X c #949E83",
"2X c #9A9787",
"3X c #999695",
"4X c #888986",
"5X c #A68A87",
"6X c #A89897",
"7X c #A7958F",
"8X c #96A282",
"9X c #99A485",
"0X c #9BA58B",
"qX c #99A589",
"wX c #9EA692",
"eX c #9FA895",
"rX c #A1A794",
"tX c #A1A995",
"yX c #A3A69B",
"uX c #A5AA9D",
"iX c #A8AB9F",
"pX c #A5A4A3",
"aX c #ACA4A3",
"sX c #A7AAA1",
"dX c #AAACA4",
"fX c #AEAEAD",
"gX c #B0AFAE",
"hX c #AEB0AD",
"jX c #AAB0A5",
"kX c #B1B1AF",
"lX c #AFAFB0",
"zX c #B0AFB1",
"xX c #AFB1B1",
"cX c #B1B1B1",
"vX c #B9B9B9",
/* pixels */
"a.a.p.i.p.y.u.f.L.fXkXcXkXcXfXK.uXcXcXcXcXcX9Xf.H.G.G.G.c.B.B.x.A.A.D.A.A.d.N.xXkXkXcXfXcX_.U.hXhXcXxXfXdXC.j.N.B.c.v.z.s.a.a.p.p.p.y.f.f._.fXcXcXcXxX",
"kXkXhXhXfXdXiX).U.fXfXkXcXcXfXZ.uXcXcXcXcXcXwXJ.kXcXfXfXgXgXgXzXcXcXfXfXlX}.a.fXfXcXcXcXkX*X~.hXcXhXhXcXhXc.}.gXzXzXzXcXcXkXhXkXdXfXiXiXJ.;XcXfXcXcXcX",
"kXcXkXkXgXfXkX).Y.hXfXfXfXcXjXK.iXcXcXcXcXlX0XJ.gXkXgXgXgXfXgXzXzXcXcXfXxXuXz.jXzXcXcXfXzX'.~.cXlXlXfXxXdXS.uXzXzXvXzXgXgXkXkXkXfXgXfXkXB.;XhXfXlXlXcX",
"fXfXhXkXkXcXkXS.Q.kXkXfXfXfXsXc.uXcXcXcXcXcX0XZ.kXcXzXkXcXcXfXzXcXcXfXfXxX8Xm.hXpXfXcXfXcX-X~.cXcXfXfXfXdXx.uXfXcXcXzXzXfXfXgXkXgXcXcXgXm.;XxXcXfXcXdX",
"gXfXgXcXcXcXcXc.U.kXcXcXxXcXdXM.tXcXcXcXlXdX8Xc.hXkXcXfXzXcXzXzXfXcXcXcXlX[.p.hXkXcXcXfXfX-X!.fXcXxXfXlXdXc.uXfXlXfXzXcXcXcXdXzXcXcXcXcXs.;XcXcXfXlXzX",
"fXfXfXkXcXcXfXG.Q.kXcXcXfXlXdXm.0XcXcXcXxXhX].Z.hXfXcXcXcXcXzXzXcXcXcXfXlX[.i.sXkXcXfXxXgX_.).gXcXfXcXcXdXZ.dXgXhXfXfXxXgXfXcXzXzXcXkXfXg.;XcXcXcXfXzX",
"cXvXfXkXcXfXdXB.Q.dXzXlXhXcXfXM.8XxXfXxXlXfXG.M.hXkXfXcXcXzXzXzXcXlXzXgXcX=Xa.xXcXcXkXkXcX_.`.fXxXfXdXgXsXx.dXcXfXlXhXkXgXcXvXfXzXkXfXgXg.*XzXcXzXlXlX",
"b.J.K.b.z.l.z.h.f.z.D.I.T.Y.c.p.c.I.Z.x.x.R u.C.Q.Y.U.S.D.L.U.K.!.Y.L.K.K.h.h.T.T.I.U.U.J.N.f.p.a.z.c.z.B.p.b.J.K.U.K.b.c.b.J.J.c.s.l.N.h.f.Z.D.T.T.I.",
"f.-X;X;X}.'.].N.f.).}.9X9X1X9X9X0X9X8X}.]._.B.N._._._.'.=X`.h.g.I.U.I.!.'.U.j.)._.`.`.E._.*X;X].;X;X].-X=Xs.Y.-X}.;X;X8X~.N.;X;X;X].'.{.h.g.-X}.9X8X9X",
"a.kXcXcXcXcXhX_.J.dXkXcXzXgXcXcXfXfXgXzXxXlX=XM.fXhXkXfXlXsXU.;XhXgXfXzXxX1Xh.xXcXcXhXfXcXcXhXcXcXcXhXcXjXv.yXxXcXcXcXcX;XK.kXcXcXcXzXfXJ.`.kXgXgXzXgX",
"l.hXcXcXlXlXxX8X(.fXkXcXcXcXkXzXfXcXzXgXlXlX9Xc.fXfXfXcXcXfXE.qXlXfXzXzXfXeXg.kXlXlXxXhXxXcXkXxXxXkXcXcXhXc.uXxXcXcXcXcX;XU.kXcXcXfXcXcXY.1XzXcXcXzXzX",
"M.kXfXlXcXfXcX1X(.cXcXcXfXfXcXkXzXcXcXgXlXcX8XA.gXkXxXcXcXfX!.0XzXcXzXfXxXeXg.fXxXcXcXcXcXcXcXcXcXcXcXcXdXv.uXhXcXcXcXcX8X~.kXkXgXcXcXcX(.1XcXcXgXfXgX",
"B.hXfXhXcXcXcX8X(.hXxXcXfXfXcXcXcXcXxXzXgXkX0XS.jXcXcXcXhXfXI.8XfXzXcXcXcXwXM.kXfXcXxXcXcXzXhXxXaX<X| _ ] M.sXxXcXzXfXcX-X~.cXfXcXxXcXcXE.1XhXhXcXfXzX",
"s.hXfXhXcXcXcX8X(.fXkXcXlXfXlXcXfXxXcX3XS _ _ H ' 7.<XaXfXsXJ.0XzXzXcXcXcXiXS.fXkXcXzXxXcXfX7X' S N C g ' c.sXxXfXxXcXcX=XU.fXfXcXcXcXcXE.8XhXhXcXfXfX",
"a.hXlXcXcXcXfX1XT.yXsXdXdXsXuXuXeXwXwX|.a N N c c c B J ` 0.B.tXzXzXzXfXhXjXz.rXtXjXiXuX3X' P L V J C V |.M.sXcXlXkXfXgX=XK.kXlXxXcXcXxXY.'.yXsXdXsXuX",
"a.kXfXcXcXfXxX].g.v.v.Z.G.c.B.B.M.C.C.C.T c J V J J o.;.o.V T 2XfXzXzXzXcXdXp.G.c.M.B.Q B Y O.P N V a T z.C.dXcXfXcXhXcX`.I.cXfXxXcXxXhXY.m.c.v.J.G.c.",
"g.kXcXcXcXhXzX].U.eXsXdXdXsXsXsXuXuXuXuX6Xb N A V N V P :.:.o._ pXzXfXcXxXwXz.dXdXuX` P O.o.N x x c S 3XwXM.sXfXxXxXcXcX`.L.kXkXcXcXcXcXI._.uXsXsXsXsX",
"p.hXcXcXcXcXkX`.Y.hXxXcXxXxXcXcXcXfXfXfXhX<Xv N A N x m m C o.o._ dXlXcXhXuXJ.cXfX` V o.C r x x c c ' fXjXZ.sXlXcXxXcXfX*XK.hXhXcXcXcXlXS.8XhXxXcXhXcX",
"l.kXgXfXfXcXkX*X!.cXkXcXxXfXfXfXkXcXfXlXgXkX0.u c A N c x t q p N 7.cXcXxXsXv.gX7.M A t q t x c V x <XcXdXc.sXfXfXfXcXcX}.I.cXfXhXfXxXkXK.8XhXcXcXxXxX",
"x.cXkXcXcXcXxX=X_.kXcXcXxXcXfXcXcXkXlXhXcXcX0Xl._ v x c p i q y r m 7.] _ S a _ w c c y q q x A B S yXkXsXc.sXhXxXfXxXcX1X(.kXcXcXcXcXcXI.wXhXcXcXcXxX",
"x.kXcXcXcXcXcX=X_.gXkXcXkXcXzXcXzXfXfXkXcXcXqXB.dX6X<X' _ _ K v e q q t p x t r w q q q p x x r N <XxXxXjXZ.sXxXcXgXcXkX1XR.cXcXcXcXcXcXK.0XkXcXcXcXcX",
"c.kXcXcXcXcXkX-X!.fXfXgXzXzXzXcXcXzXcXcXfXcX0XN.uXkXkXcXgX3XK r t x t e t t e t x x p e q e S 7.pXzXxXxXjXG.uXlXlXfXzXkXwXY.kXcXcXcXcXcXQ.1XfXgXfXxXzX",
"a.;X;X;X9X-X!.N.B.}.}.1X1X8X9X}.;X_.-X;X9X9XQ.h.Q._.E.`.7.c p x x x x x p x x x x x x m x e ` |.}.1X;X;X;XV.-X-X;X;X;X;X!.N.;X;X;X8X_.T.g.K.}.8X9X1X9X",
"Q.L.K.J.L.Q.~.C.N.I.!.I.I.Y.I.s.c.D.I.U.!.!.S.R F * * s a i x x x x x x x x x x x x x p x x r s s G E Q J.j.U.L.Q.K.L.~.~.Q.Q.L.J.U.~.~.j.V.R.T.I.D.!.",
"kXkXhXcXfXhXlX*X~.hXgXkXkXgXiXV.uXkXcXgXpX} 7 + , < @ e x x x x x x x x x x x x x x x x x x x r 0 < 4 /  .E eXdXdXgXfXfXfXhXhXhXcXfXlXlXL.;XgXfXkXgXgX",
"cXkXcXhXfXcXcX*X~.fXdXfXcXcXuXV.iXkXaX4Xn # 5 4 4 d e x x x x x x x x m x x x m x x x x x x x x i 0 < 4 4 3 ) 4XdXfXfXxXxXxXfXxXhXfXcXcXL.;XlXdXzXcXfX",
"cXfXcXxXcXcXcX!.~.fXgXzXcXcXuXn.yXpX( # 1 z h 4 9 q x x x x x x M M N B B B B B N N M m m x x x x r 9 4 4 k f 3 ) 3XfXfXlXhXxXxXlXcXcXcXP.8XkXkXcXcXzX",
"cXcXcXfXcXxXcXT.L.fXkXcXcXcXdXl.} 7 + f z h 4 < q g x x x M N A A A L P P L L A A A A A B M x x x x w d 4 4 z g 3 3 } pXfXxXlXxXlXxXhXcXB.'.hXkXcXcXzX",
"lXcXcXfXxXxXxX).L.fXlXzXfX6X0.7 2 f l l k j 4 9 e x x m M V A A L o.;.:.,.:.o.P A A A A A A N m x x x 9 h h h z l f 2 ^ | 7XaXlXfXlXlXcXP._.cXfXcXcXcX",
"sXdXdXsXdXdXjX!.K.fXgX7X8.%.` 5 ~ 3 l l j 4 < q x x m M A A L U o.:.,.,.,.:.o.Y L A A A A A A B m x x w @ 4 h z l f : ~ S #.=.+XaXdXdXdXP.=XhXzXcXfXcX",
"z.G.B.M.B.V.H.h.L.dX5X#.&.=.$.2 ~ + l l 4 4 @ e x x m A A L U U o.:.;.O.o.o.Y U L A A A A A A A N x x t y 4 h k l f : ; S <.=.#.;.K.H.H.k._.fXcXcXcXcX",
"wX1X9X8X8X].'.U.U.+X%.q.5.<.$.# ~ o g k 4 4 9 p x x N A L o.U o.o.Y Y Y o.U U L A A A A A A A A A m x x q h 4 j z % ; = b <.2.w.<.$.[.-XB.=XcXhXcXcXcX",
"kXcXkXgXgXfXgX!.[ =.e.OX.X<.;.$ ; o g z h h q t p m V J U Y Y Y Y U P L L J A A A A A A A A A A A M x x r 1 4 j l + ; o K <.q.OXXX=.t.gXG.].kXgXgXfXcX",
"fXzXgXcXgXzXgX Xo.5.OXOXOXe.<.& : o f z j f e x p m A P Y Y Y Y U L A A A A A A A J A A A A A A A N x x r 9 j j l + ; . I 6.OXOXOXe.%.5XB.;XkXcXfXkXfX",
"gXfXfXcXkXgX7X+.@.&X#X@XOXXX1.6 : X f l +.+.r p m m A P Y Y U U A A A A A A A A A A A A A A A J A N x x t x =.Z g + : O $..XOXOX@XoX>.X.O.}.kXcXfXzXfX",
"fXcXlXcXcXcX2.@.=.oX%XOXOXOXw.u = X f Z 2.*.t x x m A I Y Y o.L A A A A A A A A A A A A A A A A A M x x x x e...l o ; O $.XXOXOXoX%Xw.X.@.2XkXcXcXfXcX",
"zXvXfXzXxXfX#.@.5.oX$X#XOXOXw.& : X j Z 5.$.p x x m V P Y Y Y J A A A A A A A A A A A A A A A A A N x x t p q...g o ; o ` @X@X@X%X$X.XX.#.2XcXcXcXfXzX",
"(.'.'._.Y.Y.%.@.<.oX%X%X@XOXw.& : X f Z %.*.r p x x V A U Y U A A A A A A A A A A A A A A A A A A M x x t m 5.D g o ; . ` #XOX#X$X$X6.X.&.;.[.}.8X0X8X",
"u.P.Q.K.K.:.%.%.@.r.$X,X$X@X9.8 ; . f g ..%.e x x x B A L I P A A J A A A A A A A A A A A A A A A m x p t N #.Z g o ;   _ XX@X,X>X$X<.X.>.O.J.J.I.I.K.",
"s.kXgXfXgXaX%.<.@.&.#X>X>X$X3.O ; . g j l ..e x x m M A A A A A A A A A A A J A A A A A A A A A B m p m r m D j g % : = H #X,X>X>X6.X.&.>.9.kXcXcXcXlX",
"a.fXcXcXfXt.@.>.>.%.<.oX>X>X` > ; + l k h z 0 r x x m A A A A A A A A A A A A A J A A A L P J A M x x x q g j h g d = ; n ,X>X>X&X@.&.<.%.<.aXcXzXkXzX",
"m.kXgXfXaX%.#.5.5.<.<.5.6.6.n ~ : 3 g z 4 4 d q x x m N A A A A A A A A A A A A A A L P Y Y L A m x x r 9 4 h h g g o ~ 6 9.&X6.1.<.<.6.@.&.t.zXcXgXzX",
"B.kXfXhXcX8.%.5..X6.5.<.>.%.% o , z l z h 4 4 9 r x x M A A A A A A A A A A A A A L :.;.o.U L N x x x q d h 4 k l l f = O P *.>.<.4..Xr.%.%.aXgXcXgXzX",
"z.fXfXkX6X#.&.5..XOXOX4.5.&.2.} $ f l l h 4 4 @ q x x x B A A A A A A A A A A A A L :.O.U L A m x x e @ 1 4 h z l l $ ) 9.*.>.1.r.XX@X6.<.%.t.fXcXgXzX",
"a.hXzXcX7X&.5.5.XXOXXX5.>.=.6XcX} + z l k 4 , X % w x x m B A A J A J A A A A A A A L L L A m x x g @ O . 4 4 z z 3 7 gX}.O.&.<.e.@X@Xe.<.>.8.hXcXxXdX",
"a.cXzXcXgXt.%.5.XXXX6.&.+.;.Q.Q.S.F $ l z 4 o   X % r x x c N A A A A A A A A A A A A A B m x x x 0 + X   4 j z 3 6 3XcX*XW %.%.5..X.Xw.&.O.[ R.`.T.T.",
"s.kXcXcXcXaX%.=.1.5.<.%.%.;.|.;X-X{.) # k h +   - - @ i x x x m N A A A A A A A A A B M x x x x w O - X   4 j 3 7 4XgXgX).W %.%.&.5.5.1.*./.].-X8X8X1X",
"f.hXzXcXcXzX4.<.<.<.<.<.%.8.aXzXgXgXpX{ 7 o   X > X u N e x x x x m m N V A B N M m x x x x r i N # X >   o $ ( 3XzXkXgX`.W #.<.>.<.<.<.%.7XhXxXxXfXcX",
"l.hXgXlXcXcX6X<.5.<.&.#.=.5XzXzXxXzXfXfX3X{ X X   , Z 2.I f r p x x x x x m m m m x x p i w N 2.+.3 . >   F 4XpXxXlXcXcX].F.8.%.@.<.5.5.;.2XxXxXcXhXhX",
"v.cXcXcXcXcXkX X9.7X6X7XaXzXlXzXcXcXcXfXcXcX7   - # f %.w.3.K i e r r p p p p p i r e r b ' w.=.g , 2 X   R sXfXlXfXxXcX;XE.fX6X6X6X+X5XK.0XkXcXcXcXcX",
"x.kXcXzXcXcXkX=X'.fXgXcXcXcXzXcXcXfXfXfXcXcX( 7 3X}  .-.=.e.e.2.I B v 0 y q y y 0 @ n 3..XXX4.` ( { 3X( 8 v.sXhXxXfXxXxX1XE.cXcXcXcXcXcXI.0XkXcXcXcXcX",
"x.kXcXcXcXcXcX-X).fXfXfXcXcXzXcXcXfXlXkXxXcX1XE sXzXgXfX5X=.%.<.&.<.$.3 2 O o - X O -.r.q.<.9.6XdXxXxX3X} G.uXxXxXfXlXlX0XY.kXcXcXcXcXcXL.2XhXkXxXcXcX",
"v.dXdXdXfXuXyX~.U.dXdXdXdXdXaXdXdXuXdXdXdXdX{.g.].uXtXuXuX2X;.o.@.%.J > > O O X O I =.*.>. XyXsXsXsXdXpXdXB.wXsXdXdXdXdX1XD.dXdXjXdXuXwXH.'.dXdXdXdXdX",
"C.V.V.m.B.H.V.h.g.b.S.S.Z.S.M.z.z.z.B.G.J.G.N.j.N.V.B.B.b.B.V.D.b.Q     $ $.& K 3.$.n.z.z.N.V.J.G.P.B.B.B.j.H.C.V.B.B.H.V.V.V.V.c.P.H.N.k.g.c.S.S.c.S.",
"dXuXdXdXyXdXdX).Q.dXdXdXdXdXyXB.0XiXdXdXpXkX;XH.uXdXdXgXdXdXgXzXaX)  .] %.6.9.OXe.+XsXsXsXT.'.fXdXdXdXdXiXG.tXiXiXuXuXdXdXdXdXsXsXuXdXdXH.-XdXfXdXdXdX",
"kXkXhXfXfXlXxX*XQ.fXaXfXcXhXiXV.uXgXgXkXhXkX9XP.kXkXgXzXgXkXgXcXfXdXkXaX8.4.q.4.2.aXcXlXxXE.].cXxXxXfXxXsXv.sXfXgXfXfXgXfXcXgXfXfXfXzXkXL.}.cXpXgXzXgX",
"cXfXcXfXcXcXcX).~.fXgXcXcXcXsXB.uXcXcXhXcXcX;XK.cXlXfXxXlXlXzXxXlXxXlXcXgX|./.6XgXzXcXcXkX`.].kXcXcXcXcXdXc.dXcXgXkXcXcXfXcXcXxXxXcXcXcXL.8XfXcXcXcXzX",
"cXcXlXlXcXhXcXT.Q.gXxXcXcXcXuXv.wXcXcXfXcXcX-XH.hXfXfXcXfXdXfXzXxXxXcXcXcX(.V.gXcXcXcXzXcX)._.kXcXcXfXfXdXz.dXkXcXcXzXfXfXcXlXfXfXxXfXcXB.;XhXhXcXcXcX",
"xXcXcXfXxXxXxX!.K.dXcXcXcXcXdXc.uXcXcXcXcXcX;XJ.hXfXxXhXlXzXzXlXcXxXlXcXkX^.Q.gXfXgXcXcXfX~.~.fXcXcXhXxXdXx.uXcXcXcXzXlXcXfXcXcXfXfXxXxXP._.fXxXcXcXcX",
"lXcXxXfXcXcXxX).L.fXlXfXlXxXdXJ.uXcXcXcXcXcX].P.hXhXhXcXhXcXfXcXcXcXfXzXkXQ.Q.gXfXzXdXcXcX~.~.fXfXcXcXxXdXB.uXzXcXcXcXlXzXlXcXfXlXcXcXcXP.=XhXfXcXfXxX",
"}.;X;X}.;X;X8XL.U.dXhXcXlXfXhXJ.uXgXlXcXcXgX;Xs.).)._.`.`.).`.'.[.].}.].{.c.P.gXkXcXcXcXcX!.U.hXcXcXcXlXdXC.~.-X'.'.'.}.].;X;X-X-X;X8X;XC._.hXkXcXfXcX",
"I.J.J.G.P.b.B.j.U.fXkXcXcXxXhXJ.uXcXcXcXcXcX0Xm.*X)._.).(.).~.(.`.[.[.`.`.S.g.gXfXkXcXcXcX*XU.hXlXcXxXfXfXN.V.~.).(.T.~.Y.K.J.J.G.G.B.V.k.].kXfXcXcXcX",
"kXkXkXhXkXgXjX).Y.hXfXfXlXcXdXG.uXcXcXcXcXcXtXK.gXcXkXkXgXfXzXzXxXcXcXdXcX9Xs.fXgXcXcXcXcX_.~.hXfXfXfXcXfXc.0XzXcXcXgXcXcXcXhXkXgXgXfXfXG.].cXfXcXcXcX",
"gXkXkXhXkXgXkXY.Q.kXxXfXlXcXdXG.uXcXcXcXcXzX0XS.kXkXcXkXlXlXzXlXcXxXzXfXxXeXz.fXfXhXcXfXcX-X~.kXlXlXfXcXdXb.uXzXgXvXgXkXgXgXcXkXfXkXfXcXB.;XkXfXfXhXlX",
"fXfXhXcXcXcXcXS.Q.gXcXgXgXfXsXc.uXcXcXcXcXlX0Xc.kXcXcXfXcXcXfXcXzXcXfXfXhX1Xs.xXdXfXzXlXfX-X~.xXcXfXfXfXdXx.sXfXcXcXcXcXlXfXfXfXzXcXzXfXm.;XcXkXfXcXfX",
"zXfXkXcXcXcXcXc.U.kXkXcXzXcXdXm.wXkXcXcXcXdX;Xx.hXcXcXfXcXcXcXcXzXcXcXlXlX[.p.dXzXzXlXfXfX-X!.cXcXhXfXcXdXZ.uXfXfXlXlXcXcXcXfXkXcXcXcXcXa.=XkXcXcXfXzX",
"fXcXcXcXcXxXfXP.Q.kXcXkXfXzXdXM.0XcXcXcXxXkX'.Z.hXfXcXcXcXcXcXcXcXzXcXzXxX'.i.dXkXcXfXcXfX_.).xXcXfXhXhXdXZ.dXzXlXfXfXcXfXcXcXhXcXcXhXlXN.;XcXcXcXfXkX",
"kXcXkXcXhXfXdXm.H.dXcXgXcXcXfXc.;XcXhXcXxXsXM.m.jXcXxXcXcXcXzXzXzXlXcXcXcX`.g.fXkXcXcXcXfX_.`.sXhXfXfXfXsXv.dXcXlXfXhXkXfXcXvXfXhXhXdXjXk.).cXcXgXzXcX",
"g.s.z.s.p.R p.f.h.d.l.c.c.c.a.p.z.v.l.R i.R f.j.B.M.c.s.z.z.B.B.J.z.N.z.N.h.k.V.B.c.c.M.m.h.f.y.y.p.p.a.s.f.d.z.z.B.m.a.p.g.z.m.a.d.d.s.h.f.d.v.c.c.c.",
"p.uXdXdXsXeXyXV.s.qXdXjXgXdXdXfXhXfXdXdXeXeXK.B.0XwXtXyXuX1Xs.V.'.}.].1XeX).k.qXwX0X0X1X0XwXuXsXdXuXyXuXeXs.].uXsXjXdXdX'.H.iXdXuXyXwXrXg.N.uXdXhXfXdX",
"a.fXcXcXcXcXgX;XT.dXfXcXkXgXcXcXhXfXfXlXlXlX8Xc.fXfXgXfXgXdXY.qXzXzXzXxXcX1Xg.cXcXcXfXcXcXcXxXzXcXcXcXcXfXc.yXzXcXfXfXlX;XJ.kXcXzXzXcXcXI.=XgXgXfXcXlX",
"z.kXcXcXfXgXgX9X(.kXcXcXfXcXxXcXfXcXcXfXlXlX8Xc.kXfXfXcXcXgX).qXfXfXcXxXlXuXp.hXlXlXcXcXxXxXzXxXcXcXzXzXdXc.uXcXcXcXcXhX;XY.kXcXcXfXcXcXE.1XkXcXcXlXcX",
"B.cXfXhXcXxXcX8X(.lXxXlXfXfXfXlXcXcXcXxXxXxX8Xx.kXkXcXkXfXfX!.9XcXcXcXzXcXeXC.cXcXcXcXcXcXcXcXcXcXcXcXcXjXl.yXhXcXcXcXcX8X~.cXhXzXzXfXcXE.8XlXxXxXfXfX",
"m.hXfXkXcXcXcX8X`.lXfXlXcXfXlXcXcXcXcXcXcXxXwXG.gXkXzXcXcXfXI.qXzXcXcXcXcXwXc.gXfXcXcXcXcXcXcXcXfXfXcXcXdXG.sXcXhXcXfXlX-X!.kXkXlXcXcXcX(.1XlXfXcXcXfX",
"s.fXfXlXcXlXcX].(.hXxXcXlXfXfXfXlXcXcXcXzXcX0Xc.dXfXfXkXlXsXP.0XcXcXcXcXcXdXZ.kXkXcXcXcXcXcXcXcXfXcXxXcXdXx.sXcXxXcXcXcX-XK.fXfXcXcXcXcXR.8XhXcXcXfXfX"
};
