/* XPM */
static char *result[] = {
/* columns rows colors chars-per-pixel */
"75 75 227 2 ",
"   c #0A070B",
".  c #0B0A13",
"X  c #0D0E1B",
"o  c #140C13",
"O  c #110B1B",
"+  c #1B0A15",
"@  c #181115",
"#  c #100B0D",
"$  c #250C18",
"%  c #320E14",
"&  c #28151B",
"*  c #361219",
"=  c #2C281D",
"-  c #140F2A",
";  c #151429",
":  c #1A143A",
">  c #191234",
",  c #3E0C2C",
"<  c #370B29",
"1  c #251727",
"2  c #381424",
"3  c #3E0C33",
"4  c #2D102A",
"5  c #282426",
"6  c #392727",
"7  c #382F35",
"8  c #420D1A",
"9  c #460F14",
"0  c #451214",
"q  c #4C1414",
"w  c #4D1917",
"e  c #501A17",
"r  c #541D1A",
"t  c #581F1C",
"y  c #5A221E",
"u  c #55231C",
"i  c #410D28",
"p  c #481729",
"a  c #531B2F",
"s  c #410E34",
"d  c #4C1532",
"f  c #441033",
"g  c #551A30",
"h  c #422824",
"j  c #552321",
"k  c #5E2521",
"l  c #5C2B24",
"z  c #5A2C29",
"x  c #5B3934",
"c  c #513030",
"v  c #612A25",
"b  c #642F28",
"n  c #672627",
"m  c #65332A",
"M  c #69362D",
"N  c #6A392E",
"B  c #643529",
"V  c #672936",
"C  c #6D3E32",
"Z  c #633935",
"A  c #783638",
"S  c #3E4726",
"D  c #544F29",
"F  c #6F4033",
"G  c #674439",
"H  c #724433",
"J  c #764A34",
"K  c #794E36",
"L  c #7C4A3F",
"P  c #7D5236",
"I  c #7F5538",
"U  c #665034",
"Y  c #5A782D",
"T  c #717336",
"R  c #557B1D",
"E  c #1D1641",
"W  c #433F40",
"Q  c #554E51",
"!  c #6B4643",
"~  c #76554B",
"^  c #74524D",
"/  c #796F4D",
"(  c #7B787A",
")  c #6D6E69",
"_  c #566244",
"`  c #843E3D",
"'  c #89463F",
"]  c #835A3B",
"[  c #805739",
"{  c #8B633D",
"}  c #84623B",
"|  c #81793A",
" . c #8A4A42",
".. c #924C45",
"X. c #914842",
"o. c #895748",
"O. c #935146",
"+. c #96544A",
"@. c #965A4C",
"#. c #995C4D",
"$. c #985B53",
"%. c #835A56",
"&. c #946845",
"*. c #967143",
"=. c #9C6452",
"-. c #9A6558",
";. c #896E51",
":. c #A16C5A",
">. c #A3725D",
",. c #9C6964",
"<. c #997365",
"1. c #887A79",
"2. c #9A7775",
"3. c #866B69",
"4. c #A57661",
"5. c #A67B64",
"6. c #A97D66",
"7. c #A27A78",
"8. c #A06F67",
"9. c #5E861E",
"0. c #65921E",
"q. c #5F8523",
"w. c #638B24",
"e. c #658B2B",
"r. c #698D2B",
"t. c #658727",
"y. c #6B9422",
"u. c #6C932B",
"i. c #6B9724",
"p. c #729B2D",
"a. c #71972F",
"s. c #668633",
"d. c #6B8C35",
"f. c #69863E",
"g. c #6D8C3C",
"h. c #678734",
"j. c #708F3C",
"k. c #748837",
"l. c #6E9134",
"z. c #6E903A",
"x. c #719534",
"c. c #72933C",
"v. c #75993A",
"b. c #759938",
"n. c #6F8D42",
"m. c #6C8745",
"M. c #718E44",
"N. c #758C4A",
"B. c #749344",
"V. c #7A9545",
"C. c #76924A",
"Z. c #7A954D",
"A. c #7D994D",
"S. c #799A43",
"D. c #7A8A59",
"F. c #7B9453",
"G. c #7E9952",
"H. c #7E945B",
"J. c #7F9362",
"K. c #7F817A",
"L. c #819C56",
"P. c #81965C",
"I. c #829A5C",
"U. c #848D51",
"Y. c #819565",
"T. c #859A63",
"R. c #889B65",
"E. c #8A9C6C",
"W. c #859769",
"Q. c #8D9D73",
"!. c #8D9876",
"~. c #909F75",
"^. c #919E7B",
"/. c #929379",
"(. c #8B876F",
"). c #AC836B",
"_. c #AC866B",
"`. c #AF8A70",
"'. c #A4817E",
"]. c #B18D70",
"[. c #B59570",
"{. c #B99C70",
"}. c #B79A70",
"|. c #B3906D",
" X c #8CA16C",
".X c #8CA267",
"XX c #8EA073",
"oX c #91A275",
"OX c #93A27C",
"+X c #A2A067",
"@X c #C4A973",
"#X c #CDB476",
"$X c #878687",
"%X c #968987",
"&X c #949E82",
"*X c #97968A",
"=X c #9A9795",
"-X c #8F908C",
";X c #A6948D",
":X c #A79999",
">X c #A68B89",
",X c #96A282",
"<X c #99A485",
"1X c #9BA48C",
"2X c #9BA78A",
"3X c #9EA692",
"4X c #9EA893",
"5X c #A1A695",
"6X c #A1A994",
"7X c #A3A69C",
"8X c #A5AA9D",
"9X c #A8AB9F",
"0X c #A0AA8F",
"qX c #A5A4A2",
"wX c #ACA4A3",
"eX c #A7AAA1",
"rX c #AAACA4",
"tX c #AEAEAD",
"yX c #A8A7AA",
"uX c #B0AFAE",
"iX c #AEB0AD",
"pX c #B1B1AF",
"aX c #AFAFB0",
"sX c #B0AFB1",
"dX c #AFB1B1",
"fX c #B1B1B1",
"gX c #B9B9B9",
/* pixels */
"e.e.w.9.w.9.0.y.G.rXpXfXpXfXtXZ.8XfXfXfXfXfX<Xy.S.C.B.B.j.j.c.f.M.m.N.m.m.t.x.iXpXsXfXiXfXE.G.dXdXfXfXtXrXb.p.x.j.d.s.d.e.e.e.w.w.w.9.y.y.Q.tXfXfXfXfX",
"pXpXpXiXtXrX9XT.G.pXtXfXfXfXtXn.8XfXfXfXfXfX4XC.sXsXtXtXuXuXuXsXsXsXtXtXaX^.e.tXuXfXfXfXpX XL.iXdXiXaXfXpXd.OXtXgXfXsXsXfXfXiXpXrXtX9X9XB.XXfXtXfXfXfX",
"pXfXpXiXuXtXpXI.H.iXtXtXtXfXiXB.9XfXfXfXfXaX1XC.pXpXuXuXuXuXsXsXsXfXfXtXdX4Xd.iXuXsXfXtXaXQ.I.pXtXaXtXtXrXM.9XsXsXgXsXuXuXuXpXpXtXuXtXpXB.OXtXiXpXtXfX",
"tXaXiXpXfXfXpXN.L.pXfXtXaXtXeXg.8XfXfXfXfXfX<XM.pXfXpXpXfXfXuXsXfXsXtXuXdX1Xr.iXrXyXfXtXfXoXI.fXfXtXtXaXrXf.8XyXsXsXsXsXtXtXpXuXpXsXfXuXl.OXfXfXtXfXyX",
"uXtXiXfXfXfXfXg.G.pXfXdXdXfXrXc.7XfXdXfXiXyX,Xg.iXpXuXtXuXfX:X;XuXwXuXsXdX!.w.iXpXfXfXtXtXoXP.tXfXdXtXfXrXg.rXtXaXtXfXfXfXfXyXfXfXfXfXfXr.Q.tXgXtXfXfX",
"tXtXtXpXfXfXtXB.L.fXfXfXtXtXrXl.1XdXfXfXdXtX^.n.iXtXfXpXuX:X+.O.,.$.$.wX:X(.t.eXpXpXtXfXtXE.R.uXfXtXpXtXeXn.rXsXtXtXtXfXsXtXfXfXuXfXfXtXu.OXsXfXfXtXfX",
"fXgXiXpXfXtXrXc.A.tXfXaXaXaXtXz.,XdXdXdXiXtXC.z.tXuXwX7.$...#.=...+.X...#.O.X.$.7.uXfXfXaXE.R.tXdXtXyXtXeXg.rXfXtXaXtXpXtXfXgXtXuXpXtXtXu. XfXfXdXtXfX",
"j.N.Z.j.d.s.d.i.i.d.N.F.H.G.g.w.d.F.M.f.h.Y y.p.L.P.-.#.=.:.>.:.:.>.=.=.#.O...X. .-.H.G.B.x.y.t.e.d.d.c.B.w.d.C.Z.G.Z.M.d.j.V.C.z.h.s.x.i.i.n.N.H.H.G.",
"y.oXOXOXOX!.XXl.y.R.^.<X<X&X<X<X<X1X,X^.^.E.c.x.R.(.-.=.=.5.`.).).>.:.....#.-.:.+...;.F.R.~.~.^.OXOXQ.oX Xr.H.OX^.,XOX,XL.c.OXOX^.^.!.~.u.u.~.^.<X,X<X",
"e.pXfXfXfXfXaXQ.C.rXiXpXsXsXfXfXaXtXtXsXaXaXQ.z.rXwX,.=.=.6.`.`.6.:.#...>.].[.[.`.>.@.,.uXsXuXsXfXfXdXfXrXg.6XdXfXiXfXdXOXZ.pXfXfXfXpXiXZ.I.pXfXuXuXuX",
"s.iXfXfXtXiXdX,XY.tXfXfXfXfXpXfXtXfXsXaXaXdX,Xg.pXrX,.#.=.-.).`.>.=.#.6.{.{.{.}.}.`.).-.-.wXsXsXaXfXdXfXiXg.7XdXfXfXfXpXOXG.pXpXfXtXfXfXH.&XsXfXfXsXfX",
"z.pXtXiXfXaXfX&XY.aXfXfXtXtXfXuXuXdXfXtXaXaX<Xm.pXwX-.#.#.+.=.>.=.=._.@X#X{.[.|.`.`.`.).+.7.uXsXfXfXfXfXrXh.7XtXfXfXfXfX<XI.pXpXfXfXdXfXY.&XfXfXsXtXuX",
"z.iXtXtXfXfXfX,XY.tXtXdXtXaXfXfXsXfXfXfXfXpX<XN.pXuX7...#.X.#.=.=.#.@X#X@X].`.`.`.`._.>.&.+.:XsXfXaXfXfXrXg.eXdXdXsXtXfXoXI.pXtXfXfXfXfXW.,XiXtXfXtXsX",
"u.tXtXfXfXfXfX,XJ.tXfXdXaXtXtXsXuXsXfXfXfXpX4Xc.rXuXwX8.-.2.$.@.#.+.@X@X[.`.`.|.`.).:.=.:.+.>XfXaXaXtXfXrXg.rXdXtXfXfXiXXXG.tXtXfXfXfXfXH.&XiXdXfXtXtX",
"r.iXaXdXfXfXaX^.H.7X8XrXrX8X8X8X5X3X3X2X<X<X Xc.rXuXuXwXyXeXN.<.Z 6 U ;.<.5.).>.:.=.@.o.o.o.%.=X1X^.<X1X1Xz.eXfXsXfXtXsXQ.Z.iXaXdXfXfXdXH.Q.4XeXrXrX8X",
"e.pXtXsXdXaXaX^.u.d.g.n.B.n.c.c.x.b.b.b.l.b.b.v.rXfXpXpXdXyXN.!.& : > X @ & = h h 6 = $ & 1 1 Y d.d.g.d.l.x.rXfXtXfXdXfXR.F.fXtXdXfXtXaXH.d.g.h.C.B.g.",
"u.tXfXfXfXfXfXQ.F.7X9XrXrXeXeXeX8X8X8X8XeXrX<XB.tXiXiXdXdXtXJ.= & - > : : : - - - > : E E E : Q 7XyXrX8X3Xz.7XtXdXfXfXfXR.A.pXpXfXfXfXfXF.Q.7XeXrXeXeX",
"w.iXfXfXfXpXfXW.J.iXiXdXiXiXfXfXpXuXtXtXtXaX4XB.iXtXdXdXtX( @ p g f * + . O O O O . O o $ 2 h & ( tXsXsXrXn.eXdXfXfXfXtXE.Z.iXfXfXfXfXtXn.&XiXfXdXiXfX",
"s.pXtXtXtXdXfX XI.dXpXfXdXiXiXtXiXfXtXfXiXiX4Xc.iXtXdXdX( & p g g g g a p p p i p p g g g g g i 5 =XfXfXrXn.rXrXdXtXdXfXOXH.pXtXsXtXiXtXA.OXiXfXpXdXdX",
"f.fXfXfXfXfXfXXXE.pXfXfXdXfXtXdXfXfXaXtXfXpX4Xc.rXtXdX=X5 p g g g g d f f V A V V g d d g g g g 2 Q tXfXeXz.eXtXdXtXdXfX&X/ rXfXfXfXfXfXF.4XdXfXfXfXdX",
"f.pXfXfXfXfXfXXXE.tXiXpXfXfXfXfXiXtXtXfXpXfX2Xc.iXiXiXQ 4 g d s s s 3 d A O.=.-.+.V 3 3 s s f g p & $XrXrXB.rXpXsXaXpX1.x j %XfXfXfXgXdXZ.1XiXsXfXfXfX",
"g.pXfXfXfXfXpXoXY.tXtXuXaXsXaXfXfXfXfXfXtXfX1Xx.8XdX=X5 , s 3 3 s 3 s A  .+.o.@.o.V 3 3 3 3 s s d 2 Q rXtXB.eXtXaXwX! u m z =XfXfXfXiXiXL.&XtXuXtXpXsX",
"e.OXOXOX<XoXI.x.c.^.&X<X&X,X,XOXOXE.OXOX<X<XG.u._ 7 ;   + + $ < s i 8 q e e t r r q 0 9 8 i , s 3 f & ) OXc.oXOX/.x l C N B /.OXOX,XQ.H.a.Z.^.<X,X&X&X",
"L.L.Z.C.A.L.L.c.x.F.G.D.F.G.F.r.g.N.F.G.H.I.V.d.S @ . X     . $ 8 9 r t y v y k k k k t e q 9 i 3 3 4 S Z.p.A.V.D k C C N y Z.Z.C.G.L.L.p.c.F.H.F.F.P.",
"pXpXiXpXtXiXiX XL.iXuXpXfXpX9Xv.9XfXfXuXtXsX<XV.rXQ   X ; X & 0 e k k k k k k k y v t v y k y q 8 i , 7 =Xg.rX%Xy C N C M x wXuXfXtXtXdXA.OXpXtXfXuXuX",
"pXpXpXtXiXfXfX XI.tXtXtXfXfX9Xv.9XiXuXsXtXfXOXZ.:X7 < o - & 0 u k k k k k k v v v v n y k k k y e 8 i 1 K.g.rX! b m v C M ! uXpXdXtXfXfXA.OXpXyXuXfXtX",
"fXtXfXiXfXfXpXT.I.tXuXuXfXfXeXd.8XfXfXaXfXfXoXA.%X2 V c % w k k k k k b m C C C C C N M v n y k k r 9 $ (.n.3Xz M v v P H ^ dXsXiXfXfXfXV.,XsXsXfXfXsX",
"fXfXfXtXdXiXfXH.A.tXtXfXfXfXeXs.3XfXfXtXfXuXOXZ.2.` :.! r k k k n b C C C C H J J K H C C M v k a n r h -Xf.&Xu v k N &.J 1.aXfXdXfXiXfXv.E.dXiXtXgXsX",
"iXfXdXtXtXdXdXT.A.tXiXfXfXdXtXn.9XiXfXfXfXfXoXk.-.4.;.r y k k b C C C C C K P [ [ P P J C C M v k k k t J r./.e y v [ { F =XfXfXrXfXdXdXB. XfXiXsXtXfX",
"eXrXrXrXrXrXrXL.A.tXiXpXtXtXrXB.8XfXfXfXiXaX^.} -.).B a k k m C C C C C H [ P [ [ [ [ [ K H C b k k k k u D 3.u y y { [ ^ eXrXrXrXrXiXeXB.Q.iXsXfXtXfX",
"d.B.c.z.c.c.S.u.Z.tXtXfXfXfXtXC.8XfXdXfXfXsX;XO.<.;.w k k v C C C C C C C P [ [ [ P [ P I J H N v k k k k u T e q B { B Y z.c.z.z.c.S.v.p.E.tXfXfXfXfX",
"3X&X<X,X,X^.XXG.G.iXtXfXfXfXtXB.8XfXfXfXfXfX'.O.:.G r k k M C C C C C C C C C C K P [ [ [ P H N b k k k y u u e q P H %X7X3X&X<X,X,X!.~.v.oXfXtXfXfXfX",
"pXfXpXuXuXtXpXT.G.tXtXtXaXdXrXC.8XsXfXfX7XuX7.+.@.y t y b C C C C C C C C C C C C J I I I I P F B y y v k k q r b Z %XfXpXpXpXpXuXuXtXpXB.^.tXtXtXpXfX",
"tXsXuXfXuXfXfXZ.I.pXfXtXaXaXrXB.9XfXfXfX) ( ,.&.' q v k m C C C C C C C C C C C C F P I { *.o.F N l y v k k e r ! :XfXaXuXtXsXfXfXfXfXpXc.OXfXsXyXfXtX",
"sXtXtXfXfXsXfXn.G.iXfXfXdXdXrXd.8XuXfXfX=X. h o.C e k v C C C C C C C C C C C C C C F I ] *.*.P N v k k k k u z yXtXfXfXfXsXtXuXfXfXfXtXe.Q.fXuXtXaXpX",
"uXuXtXfXfXfXfXd.G.tXfXfXtXaXrXd.1XpXsXtX2.@ ; @ 0 e v v C C C C C C C C C C C C C F F P ] *.*.I N v k k k q k j wXsXtXfXuXpXsXuXfXfXfXsXr.oXfXgXfXtXfX",
"fXgXtXtXsXtXtXB.L.tXpXpXaXaXrXc.1XuXtX'.@.x . ; * r k v C C C C C C C C C C C C C C C K I &.*.] H v k k k t k j =XtXtXtXtXfXfXfXfXpXtXtXx.^.uXgXfXtXaX",
"W.Q.Q.E.H.H.P.u.p.Y.!.,X<X<XW.e.F.OX!.-.5.=.h X * r l M C C C C C C C C C C C H C C C J P &.*.I C v k k k t y r (.OXQ.E.W.E.Q.E.T.H.H.P.i.x.W.!.<X<X,X",
"0.Z.A.Z.Z.N.V.y.y.c.C.Z.F.F.G.P.T.H.D.=.).x & # % t y m C C C C C C C C C C C C C C F F I I ] J C v y k k t t e m.L.G.A.l.u.A.L.Z.C.N.V.i.y.C.C.F.F.F.",
"e.pXsXtXtXtXtXT.z.8XsXsXfXsXfXfXuXuXyX=.].;.# ; % r k b C C C C C C C C C C C C C F F F P I P F C v v k k y t r 7XpXfXfXOXZ.pXuXtXpXtXtXB.Z.pXdXfXfXaX",
"e.iXfXfXtXfXfXOXY.tXtXfXfXfXfXfXtXtXsX7.4.5.h X & r k v N C C C C C C C C C C C C C C C C H F C C v k k k y u q ! :XtXtX^.F.uXfXfXtXfXfXH.,XiXpXfXsXsX",
"l.pXuXtXfXfXsX,XW.tXfXfXtXpXtXfXsXuXtXtX;X,.o.6 + 0 k k N C C H J C C C F C C C C C C C C C C C N k k k k y r e M m :XuX^.I.pXuXaXfXfXfXY.&XfXfXfXtXsX",
"c.fXtXfXfXfXfX,XY.tXiXdXtXfXfXfXfXfXfXfXsXsX<.-.G w k y b C C ] *.L C C C C C C F C C C C C C C M k k k k k q e Z C Z qXOXT.pXtXfXaXfXfXW.&XiXiXfXtXsX",
"r.uXtXpXaXfXfX,XY.iXtXiXfXtXfXaXaXfXfXpXfXsX7.:.).N u l v N C ] &.] C C C C C C C C C C C C C C m k k k k y q q q H { ^ E.G.pXtXfXfXfXfXJ.&XdXtXfXsXuX",
"e.iXtXfXfXfXfX&XW.iXdXfXiXtXtXfXpXpXpXpXsXfX;X$._.~ w y k b C K I I K C C C C C C C C C C C C C v k k k y r e e q u { K U Z.uXuXfXfXfXdXH.,XtXtXfXdXtX",
"e.fXsXfXfXfXaX,Xz.Z.F.J.I.H.P.G.A.A.L.A.B.S.U.&.).<.z y k l M F P I P F C C C C C C C C C F C M k k k k y e y r e r N { U N.sXuXfXfXfXfXH.B.F.F.Y.I.G.",
"r.iXiXfXdXtXdX^.B.Q.^.,X<X,XOXOXoXoXoXOXOX<X.XT =.6.~ w k k n N C H H C C C C C C C C C C C C v k k k y z D u v y y y ] I ~ uXsXfXfXaXdXH.F.^.^.,X,X&X",
"u.iXsXdXdXaXaXE.J.iXiXdXtXiXfXpXpXuXtXtXuXfX6Xc.3. .>.M r k k l b N C C C C C C C C C C C C b k k k y y (.T r b B v l N P C wXsXfXaXdXaXM.,XdXiXdXtXdX",
"t.iXiXtXtXfXfXE.H.dXfXfXdXtXiXaXfXaXaXtXdXfX4Xc.( * L L 0 j k k k v b M C C C C C C C Z M b k k k y q h -Xg.^ l C v k v C b 1.tXfXdXfXaXZ.&XdXdXfXiXdX",
"f.dXfXfXdXiXdXXXE.fXfXfXfXfXtXfXfXfXfXtXfXfX4Xc.*X1 f % @ * e k k k k k n b b b m m b v k k k k y q , c =Xg.=X~ l l v m C m ^ aXfXfXsXiXF.2XpXfXfXfXfX",
"f.fXfXfXfXgXfXXXE.tXpXfXfXfXfXfXfXtXtXtXfXfX2Xc.4XQ o . > @ % q y k k k y y k k v y k k k k k e 8 s 3 Q 7Xz.eXyX%X3.! j b C G yXfXfXfXfXZ.6XpXpXfXfXpX",
"f.iXfXfXfXfXfXXXT.tXiXtXfXfXfXfXfXtXtXfXtXfX4Xd.) 5   - X   - % 9 e y k k k k k y v k k k r q 8 i 3 3 1.iXB.9XiXdXaXyX%X^ j z :XfXfXfXdXA.&XiXpXtXfXfX",
"h.rXrXrXrXrX7XL.G.eXrXrXrXrXyXrXrX8XrXrXrXrXQ.t.5 #           $ i 8 9 e r k k t t t r q 9 8 i 3 3 s 7 -XrXc.6XeXrXrXrXrX&XT G *XrXrX9X4XS.Q.rXrXrXrXrX",
"b.v.v.z.c.S.v.i.u.j.M.j.g.M.j.d.d.d.c.B.B.C.l.p.a.h.Y @ < 3 3 3 3 3 s n n b j k v q i i , 3 3 3 f i D g.v.p.S.v.v.c.c.S.B.v.c.z.c.B.S.x.p.u.M.M.M.f.V.",
"rX9X8XeX8XrXrXR.L.rXtXrXrXrX5Xv.<XrXrXrXeXuXOXV.8XrX7XW 4 d s 3 3 3 3 V X.$.4.6.>.V s s 3 3 s d g c -XiX8Xz.6X8X9X8X8XrXrXrXrX8XeX7XrXrXS.oXrXrXrXrXrX",
"pXfXfXuXtXaXaX XP.tXwXuXsXuX9Xv.8XsXsXuXiXpX<XV.dXiXaXK.1 a a g d d s s g A ` ` A d s s d d g g 2 Q yXdXeXf.rXdXuXtXtXpXtXfXpXdXtXtXfXpXA.^.fXqXpXsXuX",
"fXtXfXtXfXfXpXR.I.uXfXsXfXfXeXc.8XfXfXtXfXfXXXA.fXaXaXrXQ $ g g g g g g a g a a a a a g g g g p 5 =XfXdXrXz.eXfXuXfXfXfXtXfXfXdXdXfXfXfXA.,XtXfXfXfXsX",
"fXfXdXtXfXiXfXH.L.uXiXfXfXfX8Xs.3XfXfXtXfXfXOXA.tXtXaXdX7XQ $ p g a p * + o o + + + $ * 2 p a % ) tXtXaXrXz.rXpXfXfXaXtXtXfXaXtXiXfXtXfXc.OXpXiXfXfXfX",
"dXfXfXtXiXdXdXI.Z.rXdXfXfXfXrXg.8XpXtXtXfXfXOXS.iXaXfXiXuXqX) + p $ - - : : > : > : : : > > 1 Q qXaXdXiXrXf.9XiXfXfXsXaXsXtXfXfXtXtXdXfXB.E.iXfXfXfXfX",
"aXfXfXdXfXfXdXT.A.iXtXaXtXtXtXC.8XaXaXgXfXfXQ.B.iXiXiXpXfXfXuX$Xo E : - . # o + @ @ @ X > E > $XaXsXiXiXtXz.7XpXfXfXfXaXfXaXfXtXdXfXfXfXc.oXfXiXfXtXdX",
"^.OXOX^.OX<XOXA.A.tXpXfXiXtXiXC.8XtXdXfXfXsXOXl.R.T.R.W.I.T.R./.6 ; 7 c G ~ %.o.o.K G G x x ! :XsXfXsXaXrXv.I.oXQ.Q.Q.^.^.^.OXOXoXOX,XOXb.E.iXpXfXtXfX",
"Z.C.C.B.B.d.v.x.G.tXtXfXfXdXiXC.8XfXfXfXfXfX<Xr..XR..X/ I U.;.] o.P @X}.].`.].|._.>.-.=.=.@.<.uXaXdXfXtXrXb.b.R.R.P.H.I.F.Z.C.B.B.B.c.c.p.Q.fXtXfXfXfX",
"fXfXpXiXpXtXtXR.F.iXtXtXdXfXrXB.8XfXfXfXfXfX6XC.uXsX>XO.+.+.+.=.*.#.#X#X}.`.`.`.`.`.).=.=.O.(.uXtXtXaXfXiXd.*XuXfXgXuXpXpXfXfXfXuXuXtXtXB.^.pXtXfXfXfX",
"uXpXfXiXuXtXiXG.I.pXdXtXaXfXrXB.9XfXfXfXsXsX2XN.uXuX-.#.#...=.-.=.=.@X#X@X[.].].`.`.`.).#.o.R.pXaXaXtXdXtXg.8XaXtXgXsXpXuXuXfXfXtXuXtXdXc.OXpXtXtXaXaX",
"uXtXiXfXfXfXfXM.L.pXpXuXuXtXrXg.7XfXfXfXfXdX<Xg.iXtX$.:.+.=.>.).:.=.>.@X#X@X{.{.|.|.].4.+.(.L.iXfXtXtXtXrXf.eXtXfXfXfXfXaXtXtXfXpXfXdXtXu.OXfXfXtXfXtX",
"uXtXpXfXfXfXfXg.G.pXpXpXaXfXrXz.4XpXfXfXfXyX,Xg.iXwX,.:.=.6.`.`.6.=.+.=.|.|.{.{.[.6.:.$.;XXXP.uXfXuXtXdXrXn.8XtXtXaXdXfXdXfXtXfXfXfXdXiXe.~.pXfXsXuXaX",
"tXfXfXfXfXfXtXB.L.pXfXfXtXsXrXz.1XfXfXfXdXtXQ.z.pX:X:.$.:.6.`.`.`.:.=...+.>.6.6.:.$.,.:XaXE.R.dXfXtXiXtXrXg.rXfXaXtXtXfXtXfXfXfXfXpXdXtXa.OXfXfXfXaXfX",
"sXfXpXfXiXiXrXl.A.rXfXfXfXfXtXd.,XfXiXpXdXrXz.z.rX:X:.=.=.>.).>.6.6.=.=.O.' ' ' X.$.sXsXaXR.T.rXiXtXtXtXeXf.rXfXtXaXiXpXtXfXfXpXpXiXrXiXu.R.fXfXsXsXfX",
"r.r.x.r.w.t.t.y.i.w.h.d.g.g.e.w.d.d.s.Y q.R y.p.c.j.T +.+.+.=.=.#.....$.=.#.@.O.X.T j.d.x.i.y.9.9.w.w.e.r.y.e.d.l.c.d.e.t.u.l.d.e.t.t.r.i.i.t.h.d.g.g.",
"w.8XrXeX8X4X5XB.e.1XrXrXuXrXrXtXtXrXrXrX7X4XZ.c.2X0X8X7X;X7.#.#.X.#...7.2.<.| ;X7X0X1X&X*X6X9XeXrX8X7X8X4Xr.^.7XeXrXrXrXXXS.9XrX7X7X3X5Xx.u.9XrXiXtXrX",
"r.tXfXfXfXfXsXOXF.rXiXsXpXfXfXfXaXtXaXtXdXfX,Xg.uXtXtXtXtXtX:.-.wX>X:XfXpX&Xx.iXsXfXuXsXfXfXfXfXfXfXfXfXtXg.7XpXfXtXtXaXOXC.pXfXfXfXfXfXF.XXuXtXtXfXaX",
"d.iXfXfXsXtXtX,XW.pXfXfXtXpXaXfXtXdXdXtXaXdX,Xg.uXuXtXuXsXiXY.<XtXuXsXaXdX6Xw.iXsXuXfXfXfXfXfXfXiXfXuXfXrXg.8XfXfXfXdXtX,XG.pXfXfXtXfXfXJ.&XpXfXfXaXfX",
"z.fXiXdXfXfXfX,XY.dXfXdXtXtXtXfXfXfXfXfXdXiX,Xm.uXuXsXfXtXtXI.<XsXsXsXtXdX4Xx.fXfXfXfXfXfXfXfXfXfXfXfXfXrXs.7XiXdXfXfXfX,XI.fXtXfXfXtXfXJ.,XdXdXaXtXaX",
"l.fXtXtXfXfXfX<XJ.aXaXfXfXtXaXaXdXfXfXfXfXdX3XC.uXuXpXfXfXtXF.,XtXsXfXfXfX3Xg.pXtXfXfXfXfXfXfXfXaXtXfXfXrXz.eXfXaXfXiXaXXXI.fXpXaXfXfXfXJ.,XaXaXfXdXtX",
"d.rXtXfXfXtXdX^.Y.tXaXfXtXtXtXdXfXfXfXfXfXfX<Xg.rXtXuXfXaXrXB.1XgXsXfXfXfXrXn.pXpXfXfXfXfXfXfXfXtXfXdXfXtXg.eXfXaXfXfXfXoXZ.tXtXfXfXfXfXD.,XpXfXaXtXtX"
};
