/* XPM */
static char *result[] = {
/* columns rows colors chars-per-pixel */
"75 75 230 2 ",
"   c #09080B",
".  c #0C0C17",
"X  c #130C14",
"o  c #1A0B14",
"O  c #150A19",
"+  c #181216",
"@  c #10050F",
"#  c #260D19",
"$  c #25171B",
"%  c #35141A",
"&  c #390D14",
"*  c #33221D",
"=  c #31311B",
"-  c #130E26",
";  c #161429",
":  c #1A133A",
">  c #181233",
",  c #3E0C2C",
"<  c #390B29",
"1  c #241727",
"2  c #3C1526",
"3  c #3E0C33",
"4  c #31112B",
"5  c #2E2B2B",
"6  c #392A29",
"7  c #39373A",
"8  c #302631",
"9  c #1E201A",
"0  c #420D1C",
"q  c #440E15",
"w  c #451113",
"e  c #4B1414",
"r  c #4F1816",
"t  c #4B181A",
"y  c #501917",
"u  c #541C1A",
"i  c #581F1C",
"p  c #47100F",
"a  c #56221C",
"s  c #5B221E",
"d  c #562C1E",
"f  c #50281F",
"g  c #400D22",
"h  c #481729",
"j  c #531A2E",
"k  c #410E34",
"l  c #451134",
"z  c #4B1432",
"x  c #551A30",
"c  c #561B32",
"v  c #5E2521",
"b  c #5C2A24",
"n  c #5A3629",
"m  c #4E332E",
"M  c #622B25",
"N  c #662E28",
"B  c #65322A",
"V  c #68362D",
"C  c #6A392E",
"Z  c #64372B",
"A  c #662735",
"S  c #6D3E32",
"D  c #643B38",
"F  c #793539",
"G  c #3C4924",
"H  c #4E421C",
"J  c #4F6E1E",
"K  c #544F2C",
"L  c #6E4033",
"P  c #68443C",
"I  c #734534",
"U  c #764A35",
"Y  c #794D36",
"T  c #774A3C",
"R  c #7C5137",
"E  c #7F5538",
"W  c #6E4833",
"Q  c #5C7C28",
"!  c #566132",
"~  c #66762C",
"^  c #1E1642",
"/  c #453D40",
"(  c #595858",
")  c #4E4A4D",
"_  c #754E4A",
"`  c #6C5445",
"'  c #7A5547",
"]  c #725452",
"[  c #6D704A",
"{  c #686667",
"}  c #796767",
"|  c #716F70",
" . c #777775",
".. c #853E3D",
"X. c #8F433F",
"o. c #855B3B",
"O. c #8B633E",
"+. c #88693D",
"@. c #90693F",
"#. c #864943",
"$. c #924C44",
"%. c #924A45",
"&. c #895748",
"*. c #945247",
"=. c #95544A",
"-. c #995C4D",
";. c #955A4B",
":. c #985C54",
">. c #966748",
",. c #977144",
"<. c #9C6452",
"1. c #9E6955",
"2. c #996658",
"3. c #876F48",
"4. c #A16C5A",
"5. c #A16C57",
"6. c #A6755E",
"7. c #9C6965",
"8. c #847269",
"9. c #997764",
"0. c #8B7675",
"q. c #937C7B",
"w. c #816666",
"e. c #A47661",
"r. c #A97C66",
"t. c #A67C65",
"y. c #A17A78",
"u. c #65921E",
"i. c #638B24",
"p. c #658B2A",
"a. c #698D2B",
"s. c #658726",
"d. c #6A9422",
"f. c #6D932C",
"g. c #6B9724",
"h. c #729B2D",
"j. c #71972F",
"k. c #668633",
"l. c #6B8C34",
"z. c #69863E",
"x. c #6D8C3C",
"c. c #678734",
"v. c #718E3B",
"b. c #708B34",
"n. c #6E9134",
"m. c #6F913A",
"M. c #719535",
"N. c #739933",
"B. c #72933C",
"V. c #75983A",
"C. c #78993C",
"Z. c #5F8920",
"A. c #6E8D42",
"S. c #6C8745",
"D. c #718D44",
"F. c #748E4B",
"G. c #7A8042",
"H. c #749344",
"J. c #76924A",
"K. c #7A954D",
"L. c #7C994D",
"P. c #799843",
"I. c #7B9453",
"U. c #7E9952",
"Y. c #7E945B",
"T. c #7B8959",
"R. c #7F9361",
"E. c #758161",
"W. c #819C56",
"Q. c #80965C",
"!. c #829B5C",
"~. c #849255",
"^. c #8E8A65",
"/. c #819564",
"(. c #859A62",
"). c #8A9C6C",
"_. c #869868",
"`. c #8D9D74",
"'. c #8D9B76",
"]. c #909F75",
"[. c #919E7B",
"{. c #8D8D76",
"}. c #AC846B",
"|. c #AE886F",
" X c #B3926F",
".X c #AF8A70",
"XX c #A3807D",
"oX c #B08D70",
"OX c #B49370",
"+X c #B79970",
"@X c #B99D70",
"#X c #B38961",
"$X c #8DA16B",
"%X c #8EA073",
"&X c #91A275",
"*X c #93A27C",
"=X c #A4A267",
"-X c #C4A973",
";X c #CEB676",
":X c #949E83",
">X c #989888",
",X c #989596",
"<X c #908986",
"1X c #A68A88",
"2X c #A6928E",
"3X c #A89896",
"4X c #96A282",
"5X c #99A485",
"6X c #9BA58C",
"7X c #9AA68A",
"8X c #9EA592",
"9X c #9EA795",
"0X c #A1A994",
"qX c #A3A69A",
"wX c #A5AA9D",
"eX c #A8AB9F",
"rX c #A4A697",
"tX c #A4A4A3",
"yX c #ACA4A3",
"uX c #A7AAA1",
"iX c #AAACA4",
"pX c #AEAEAD",
"aX c #B0AFAE",
"sX c #AEB0AD",
"dX c #B1B1AF",
"fX c #AFAFB0",
"gX c #B0AFB1",
"hX c #AFB1B1",
"jX c #B1B1B1",
"kX c #B9B8B9",
/* pixels */
"p.p.i.Z.i.Z.u.d.W.iXpXjXjXjXpXK.wXjXjXjXjXjX4Xd.P.H.H.H.x.B.B.z.S.S.F.S.S.p.M.pXdXaXjXhXjX).U.sXsXjXhXpXiXN.h.B.B.x.c.l.a.a.p.i.i.i.Z.d.d.`.pXjXjXjXjX",
"dXdXsXsXpXiXwX(.I.aXpXdXjXjXiXA.wXjXjXjXjXjX0XJ.gXjXaXpXaXaXaXgXjXjXgXiXgX[.p.pXaXjXjXjXdX$X!.sXhXsXsXjXsXl.[.aXgXgXaXjXjXjXpXsXiXpXwXeXH.].dXpXjXjXjX",
"jXjXdXaXaXpXdXQ.Y.dXdXpXpXhXdXJ.eXjXjXjXjXjX7XJ.aXdXaXaXaXpXaXgXgXjXjXpXfX9Xl.pXdXjXjXjXpX`.!.dXpXhXpXpXpXx.wXgXgXkXgXjXaXdXdXdXpXaXaXjXH.*XpXsXfXfXjX",
"pXpXsXdXjXjXdXJ.W.dXdXpXsXpXiXx.wXjXjXjXjXjX6XA.dXjXaXjXjXjXgXgXjXjXpXaXhX6Xf.sXyXaXjXgXjX&X(.dXjXpXpXfXiXz.iXiXjXjXgXaXpXpXaXaXfXdXjXaXn.*XdXjXpXjXiX",
"aXpXaXjXjXjXdXx.I.dXjXhXhXjXiXB.qXhXhXjXjXtX4Xx.sXdXjXpXjXjXjXjXaXjXjXaXfX_.s.pXaXyXgX3X1X$XQ.gXjXjXpXdXiXx.iXpXfXgXhXjXjXjXiXgXjXjXjXpXa.'.gXaXpXfXjX",
"pXpXpXjXjXjXgXH.W.dXjXjXpXpXiXn.6XhXjXhXhXfX[.m.sXpXjXjXjXjXgXgXgXjXgXaXpX{.~ 3Xy.$.7.$.=.3.).gXjXpXdXdXiXx.iXjXfXgXiXjXgXaXjXfXjXjXjXfXf.*XjXkXgXpXjX",
"jXkXpXdXjXsXpXM.W.iXjXjXfXgXpXm.5XfXfXhXhXsXH.m.pXjXdXjXjXgXgXgXjXaX2X7.*.*.;.=.%.%.=.-.5.$.=.2.3XaXaXdXiXc.iXjXpXfXpXdXjXjXkXpXdXsXpXaXf.$XgXjXgXsXjX",
"v.J.K.v.c.k.l.d.g.l.F.I.Y.I.x.i.l.I.A.z.z.Q d.N.W.I.I.F.J.K.I.K.(.^.X.$.$.$.;.<.5.5.5.5.4.5.<.-.-.[ b.b.v.p.v.J.K.U.K.v.x.v.J.J.x.a.c.M.g.d.A.F.Y.Y.I.",
"d.&X*X*X*X'.'.M.d.).[.5X5X4X4X5X7X5X4X[.'.`.B.n.).).).`.&X(.f.m.G.&.$.-.1.<.$.$.<.1.|.|.|.}.5.<.1.9.'.%X`.a.Y.[.[.*X*X5XW.M.*X*X[.[.'.].f.f.].[.5X4X4X",
"p.dXjXjXsXjXjX).H.iXdXdXgXgXjXjXpXpXaXgXhXfX%Xx.pXsXsXpXfXiXI.3.-.4.}.OXOX X}.-.*.<.6.|..X|.5.<.<.2XjXjXpXx.0XsXjXjXjXhX*XK.jXjXjXjXdXpXK.!.dXdXaXjXaX",
"k.sXjXjXpXjXjX4X/.pXjXjXjXjXaXjXpXgXjXpXpXjX5Xx.pXpXpXfXhXpX9.=.r.|.OX+X@X@X-X-X5.<.1.|.|.6.-.5.;.3XhXjXiXl.wXfXjXjXjXjX*XI.dXjXjXpXjXjXY.:XgXjXjXgXjX",
"m.dXpXfXjXpXjX:X/.dXjXjXpXaXgXjXjXgXjXpXpXjX5XS.aXdXfXfXfX2X=.e..XoXoXoXOX@X-X;X-X5.<.4.5.-.=.-.$.2XfXsXpXl.wXpXjXjXjXjX5X!.jXsXjXjXjXjX/.:XjXjXaXaXaX",
"m.sXpXpXhXjXjX4X/.sXsXjXpXfXjXjXgXjXgXjXjXjX7XA.pXdXdXdXfX7.=.1.r..X.X.X.X.X+X-X;X#X<.<.-.$.=.-.:.yXfXgXuXx.wXhXsXgXfXsX&X!.dXdXjXhXjXjX/.:XsXsXjXaXhX",
"f.pXpXjXjXjXjX4XR.pXjXjXpXpXpXjXaXgXjXjXjXjX7XD.iXpXgXjX3X:.:.<.5.r.|.|..X.X.X@X;X#X&.<.:.y.7.7.2XfXgXgXpXA.uXhXpXjXjXjX%XI.pXpXjXjXjXjXR.4XsXsXgXpXpX",
"a.sXpXjXjXjXfX*XY.qXuXiXiXwXwXwX0X8X8X7X5X7X$XB.iXfXpXpXq.#.&.&.;.<.1.6.t.6.9.3.' K 2 :.>XiXrX>X5X*X>X7X5Xm.iXjXjXgXpXjX`.I.dXpXjXjXjXhXY.`.qXuXiXwXwX",
"p.dXpXhXhXfXhX'.n.l.c.D.H.x.H.B.M.V.V.N.M.M.N.C.iXgXfXiX) 8 1 + $ * 6 f 6 * $ X . ^ . ! l.B.v.v.l.l.x.l.l.N.iXjXpXjXsXdX_.K.jXdXjXjXhXhXY.a.x.c.J.J.x.",
"f.pXjXjXjXdXjX'.U.wXuXuXiXuXuXuXwXwXwXwXuXiX5XH.sXsXhX,X: : ^ ^ : > > - - > : : : ; 1 + { 8XwXuXuXiXiXuX8Xm.uXsXhXhXjXjX(.L.jXjXjXjXjXhXI.).wXuXiXuXuX",
"p.sXjXjXjXhXjX_.Y.sXhXhXsXhXjXjXdXdXpXpXpXfX8XH.sXsXtX/ h 2 # o O O . O - . O @ # 0 j j o ) tXjXpXfXgXfXuXA.uXhXhXhXjXpX$XK.sXjXjXjXjXfXF.4XsXjXhXsXjX",
"k.dXpXpXpXjXdX$XQ.jXjXjXhXpXpXpXpXjXpXhXsXsX0XB.iXpX{ % j c j j z h h h g h h j c j c c j % ) yXfXgXgXkXiXx.uXiXsXpXhXjX'.Y.aXpXsXsXjXsXJ.5XsXsXhXjXsX",
"z.dXdXdXjXjXhX%X).dXjXjXjXhXpXjXjXjXdXpXjXdX8XB.iX,X8 j c j x x j z A A A A x z z x x j j j $ | pXfXpXfXiXA.uXsXhXpXhXjX[./.jXjXjXjXjXjXI.8XsXjXjXhXhX",
"z.dXjXjXjXkXpX`.).pXjXgXjXjXjXjXdXpXpXdXjXjX7XB.sX{ 2 j z k k 3 3 l %.1.4.=.X.c 3 3 3 l z z h 8 ,XjXhXhXfXS.uXhXjXfXjXdX5XR.pXgXdXjXjXjXK.8XsXdXjXjXjX",
"x.dXjXjXjXjXdX%XQ.pXaXpXjXjXdXjXjXjXjXdXsXjX7XM.<X6 h k k 3 3 k , l T ' T #.&...c 3 3 3 k k k # | fXhXhXpXH.uXsXfXpXgXdX8XY.dXdXjXjXjXjXW.[.pXdXpXdXgX",
"p.*X*X*X5X&XQ.M.B.*X:X:XXX<X*X*X*X).*X*X7X7XU.f.! < k k 3 g 0 q p e r u i y y r w < 3 3 # - O   + 5 ( R.*XV.%X*X*X*X*X*X!.B.*X*X*X5X%XI.j.K.:X:X4X[.:X",
"W.L.K.J.L.W.W.V.N.I.~.Q.H d K Q x.F.K.I.!.Q.P.f.m 3 3 k 0 q u i s M s s s M s s i r & & .     . .   5 [ I.h.L.L.W.K.L.!.!.W.L.L.J.U.W.!.j.B.I.Y.Y.I.Q.",
"dXdXdXjXpXsXsX$X!.sXaXaX] B b b ] 1XtXpXpXgX5XQ 3 k g w u s v v M s s s s s v v v v i w % X ; ;   1 ,XfXiXm.iXsXiXaXsXdXpXdXdXsXjXpXpXdXL.*XaXpXjXaXaX",
"jXdXjXsXsXjXjX$X!.pXiXpX0.n S C b b D } tXjX*XK 3 % e v v v v v M M M M N M v v v v v v r & ; O # -  .fXuXx.iXsXaXpXpXdXpXjXpXjXhXpXjXjXL.*XgXiXaXjXaX",
"jXfXjXsXjXjXjX(.!.pXgXgX3XZ L N v M V M _ iX].H & r v v v M M V V S S S S C V N b M v v v u & f F < ( fXiXm.iXsXdXjXjXpXfXpXjXjXhXjXjXjXH.5XdXaXjXjXjX",
"hXjXjXpXhXsXjXY.L.pXsXjXsX_ L C v v N C i q.].H y v v v v N S S S S S S S S S F S V N v v v a b 2.#.` iXiXx.iXsXdXjXjXpXjXjXgXhXsXhXhXhXB.%XsXsXpXkXjX",
"pXjXhXpXpXfXhX(.L.pXhXjXsXq.U o.M v s N s _ 8.f v v v v N S S S S S S S S S S S S S S C v v v y P 9.<.1XiXx.wXsXhXsXfXpXjXpXjXjXsXhXsXhXH.).jXpXgXsXjX",
"uXiXiXiXiXiXiX!.L.pXsXjXfXiX_ O.I a s y s b b s v v j M S S S S S S S S S S S S I R R L C M v v a 2.r.:.2XB.5XwXuXuXuXuXuXuXiXiXiXiXiXiXP.%XsXgXjXpXjX",
"l.H.B.n.B.B.P.g.L.iXjXjXfXfXq.L @.s y e s e s s v v M B S S S S S S S S S S S S U E E R S N v v u P |.1.7.C.N.n.l.l.k.m.x.m.B.m.n.B.P.C.g.).sXjXjXjXgX",
"8X:X7X4X4X[.%XU.I.dXaXjXjXjXiX` o.Y r p r r s s v v M V S S S S S L S S S S S L S R o.o.I S b v v f 9.r.:.a.!.qXiXuXwXwX8X8X:X5X4X4X'.&XB.*XjXpXjXjXjX",
"dXjXdXpXaXpXdX/.I.sXpXpXpXdXsXD.Z R V i p s s v v v M S S S S S S S S S S S S S S I ,.>.U S V v v r ' t.:.l.wXgXgXkXaXaXjXaXdXdXaXaXpXdXH.[.dXpXaXfXjX",
"aXgXaXdXaXjXjXK.!.aXjXpXsXpXiXA.<XB C N e s M v v v B S S S S S S S S S S L S S S S R R S S C b v u & 6 #.3.eXgXgXgXjXgXaXaXjXgXjXjXdXdXB.*XjXjXiXjXpX",
"aXiXgXjXjXjXdXx.U.dXjXjXjXsXiXx.wX3XD u r v s s v v B S S S S S S S S S S S S S S S S S S S S N s a & . * 2.2.y.aXgXjXjXjXgXiXgXjXjXjXpXp.[.jXjXpXgXgX",
"gXjXaXjXjXjXaXv.U.dXjXjXpXjXiXm.8XhXyXD u v M i v v V S I R R L S S S S S S S S S S S S S S S B M s p ; X ` |.4.3XgXgXjXjXjXgXgXjXjXjXgXa.&XdXjXjXpXjX",
"gXkXfXfXgXpXpXH.W.pXjXjXgXpXiXm.7XsXpX` i u v M v v V L R E E U I S S S S S S S S S S S S S S V s s p o   $ 9.e.1XpXpXpXaXjXkXpXdXjXpXpXN.&XjXjXhXpXgX",
"_.`.`._.Y.R.Q.f.j.Q.'.4X5X4X_.a.I.*X'.b i u v s v M C I O.O.o.R S S S S S S S L S S S S S S S S M s e + $ &.e.6.^.*X`.)._._.'.)._.Q.Y.Q.g.B._.'.7X5X4X",
"u.P.W.K.K.D.P.d.d.B.J.K.Y.K.I.Q.R.Y.F.n i v v v v v V Y ,.,.o.E S S S S S S S S S S S S S S S V M s p ; . m >.-.~.I.U.L.m.g.L.~.K.F.F.C.g.d.J.F.I.I.F.",
"p.dXaXpXgXpXpX(.m.wXgXgXjXjXjXjXfXpXpX_ i u s v v v V Y ,.,.O.E I S S S S S S S S S S S S S S V v s p 1 ;   ' 1XjXjXhXpX*XL.dXsXpXaXpXpXJ.L.dXjXgXjXgX",
"p.pXjXjXfXjXhX*X/.pXpXjXjXjXjXjXpXpXhX} u u a M v v N U >.,.O.E U S S S S S S S S S S S S S S N v u y S 5   { hXjXgXjXaX*XK.pXjXjXpXjXjXY.4XsXdXaXjXgX",
"m.dXaXpXjXjXgX4X_.pXjXjXpXfXpXjXhXpX2XD r v M i v v N S o.,.@.o.R S S S S S S S S S S S S S S M v i B <.&.H 7 iXjXjXjXjX4X!.dXfXpXjXjXjX/.:XhXjXjXaXgX",
"B.jXpXdXjXjXjX5X/.fXsXhXpXjXjXjXfX0.B b r s j v M s M S Y o.o.R o.I S S L S C L S S S L S S B M v y T <.*.k.<XtXjXjXfXjX*X(.sXsXjXhXjXjX_.:XpXsXjXaXjX",
"a.aXpXjXfXfXhX4XR.sXsXsXjXpXjXfX8.L B w y i v v v v M S I o.o.R R o.Y S S L L L S S S S S S M v v y &.-.*.b.uXhXfXjXhXpX).W.sXpXjXjXjXjXR.:XsXfXjXgXgX",
"p.hXpXjXjXjXjX:X(.pXhXhXfXpXpXXXU o.e e ' M s v M s M V S I Y o.R o.R R R U L C S S S S S V v v a n t.-.2.l.uXhXdXjXpXjX*XK.pXfXjXjXjXaXY.4XpXpXjXhXpX",
"p.jXpXjXjXjXhX:Xm.I.I.R.R.I.T.K @.L y u W ! a v v s s M S S U o.E R o.E E E Y L S S S S S M v M t ' }.=.3.B.iXhXpXjXpXjX).K.jXpXjXjXjXhXY.H.I.I.(.Q.I.",
"a.sXdXjXjXpXhX'.H.`.[.4X4X4XT Y @.M M i P 4X` y s M s M V S S Y E o.R E E E I L S S S S M M s u n t.2.7.).M.uXjXjXjXdXdX(.K.dXjXjXhXfXhXY.I.[.[.4X4X4X",
"d.sXjXjXjXhXsX).R.sXsXhXpXiXL O.o.M s M ] dX5Xn i s M s M C S S I Y R R Y I L C S S B M M s s s 2.2.:.uXiXA.wXjXjXjXjXpX).L.dXjXjXhXhXpXF.4XhXsXhXpXhX",
"k.sXsXpXpXjXjX).Y.hXjXjXsX,XC O.S v M v 0.fX6X= e i v v M M M C S I S I S S S C B M v v v v t n #.A { gXiXx.uXpXpXpXjXjX[.I.pXpXjXpXjXpXK.4XhXdXjXsXhX",
"z.dXjXjXsXhXhX%X).jXjXjXjX0.M I V b C v ,XhX6X5 , q i v i M s M M N N N N N M v v v v v a 0 + + , # | gXpXx.uXsXpXpXhXjX[./.jXhXjXjXjXhXI.7XjXjXjXjXjX",
"z.dXjXdXjXkXjX%X).dXdXjXdX} b L V C B D iXjX7X= < k 0 r i M v s v v v v v v v v v v v u q o > . X 1 ,XfXiXm.uXhXhXpXhXhX:XR.jXdXjXjXjXjXK.0XaXjXjXjXjX",
"z.dXjXjXjXjXjX%X/.sXsXpXdX] M L S S v q.fXjX7XJ # , k < p u i s v v v v v v v v v i e & + .   - . + ( ,XsXH.wXhXhXpXfXfX6XY.dXjXjXjXjXjXL.:XsXpXpXjXjX",
"c.iXiXiXiXiX9X!.I.wXiXiXiX_ M L S v ` iXiXiX&XQ + , 3 3 k 0 q e u i s s j s i i w q < < .           9  .uXH.0XuXiXiXiXiX4XF.iXiXiXiXwX0XP.`.iXiXiXiXiX",
"M.C.B.m.C.P.C.g.f.v.D.D.v.n B Z s K b.D.J.H.j.h.G % z k 3 3 3 , q q N N N N N N j k 3 k 3 3 3 # G k.c.x.B.h.C.V.C.B.B.P.H.N.C.B.B.H.P.M.g.a.D.D.D.x.D.",
"iXeXuXuXwXiXiX(.W.iXaXiXiXD a d 0.iXiXiXuXaX*XP.>X5 h z k k 3 k k z :.r.r.4.$.F k k 3 3 l l h 1 <XuXiXiXwXA.9XwXeXwXwXiXiXiXiXwXwXwXiXiXL.&XiXiXiXiXiX",
"jXdXdXsXpXfXhX$XW.dXyXiXaX} 8.B.wXgXaXaXaXaX5XP.fX{ # j j x z k l z A ....F A l k k z j z b 2 ( pXpXhXhXuXl.iXsXpXpXpXdXpXjXdXdXpXpXdXdXW.&XgXuXaXgXaX",
"jXpXjXpXjXjXdX).(.pXdXjXjXjXuXB.wXjXjXaXjXjX*XK.pXtX8 2 x j j j x x j j j j j j j x x x x h 5 ,XjXjXjXjXpXm.iXjXdXdXjXjXfXhXjXjXfXjXjXjXL.4XpXjXpXpXjX",
"jXjXfXfXjXsXjXY.W.aXhXjXjXjXwXk.8XjXjXpXjXjX%XL.sXpX<X$ j h h 4 # # o X o o o # 2 j x x % 9 E.dXjXjXpXsXuXl.iXjXjXjXfXpXpXjXpXpXhXjXpXjXB.*XdXhXjXkXjX",
"hXjXjXpXsXsXhX!.K.iXjXjXjXjXiXx.wXjXpXpXjXjX*XP.pXpXfX| 1 > > > : : > : : > : > - O h % m S.(.sXhXjXsXhXiXz.wXjXjXjXjXpXgXpXjXjXpXpXhXjXP.).sXhXjXjXjX",
"pXjXjXhXjXjXjX(.L.pXpXpXpXpXpXJ.wXjXfXkXjXhX'.P.sXsXpXtX7 : > - O X o + X X . O : ^ - ) iXY.Y.sXpXjXjXhXiXm.rXaXjXjXjXfXhXfXjXfXjXjXjXjXH.$XjXpXfXpXfX",
"[.*X*X*X*X5X*XP.L.pXjXjXsXpXsXJ.wXjXpXjXjXaX*Xf.$X(.$XR.` m D P L _ ' &.&.' ` K 6 8 + q.pX!.U.sXjXjXjXpXiXV.!.&X&X'.`.[.[.[.*X*X*X*X*X*XV.).hXjXjXpXjX",
"I.J.H.H.H.B.B.N.U.pXsXjXjXjXsXJ.wXjXjXjXjXjX6Xl.$XR.(.$X^.=.<.<.<.e.r..X.X.X.XOX-X>.P =.7.^.3.y.yXgXjXpXpXM.C.!.(.Q.Y.!.I.K.J.H.H.H.B.B.h.`.jXgXjXjXhX",
"jXjXdXpXdXiXsX_.I.sXpXpXpXhXiXH.wXjXjXjXjXjX0XK.dXjXhXpXyX:.-.<.6.|..X.X.X.XoX;X;X6.<.<.-.*.=.*.7.yXpXjXpXx.6XgXjXkXaXjXjXjXjXjXaXaXiXsXJ.'.dXiXfXjXjX",
"aXdXjXpXdXpXdXI.!.dXhXpXpXsXpXH.wXjXjXjXfXfX7XD.aXjXsXhXpXXX*.e..X.X.X.X.XoX-X;X-X1.<.1.<.=.=.<.$.3XpXjXiXv.wXgXgXjXaXdXaXaXjXdXaXdXdXjXB.*XdXsXpXjXpX",
"aXpXpXjXjXjXjXD.W.dXdXaXdXpXiXx.qXjXjXjXjXjX6Xm.jXjXjXdXjXyX7.1.|..XoXOX+X@X-X@Xe.<.5.r.r.5.-.5.$.2XpXaXiXz.uXpXjXjXjXjXfXpXpXpXfXjXjXsXn.*XdXdXpXjXpX",
"pXpXsXjXjXjXdXx.L.dXdXdXfXjXiXn.0XsXjXjXjXtX*Xz.sXjXjXpXjXjXyX7.<.r.OX+X+X+XOX4.*.<.4.oX|.}.5.-.:.3XpXaXiXA.wXpXpXfXhXjXfXjXpXdXjXjXjXsXp.%XdXjXjXpXgX",
"pXjXpXjXjXhXpXH.W.dXjXjXsXfXiXm.7XdXjXjXhXhX`.m.sXpXsXjXjXgXgXaXy.;.1.6.r.6.-.%.-.1.}.|..X|.5.-.5.XXgXpXiXx.iXgXfXpXpXhXpXjXjXpXjXjXsXpXM.*XjXjXjXpXdX",
"jXkXpXdXsXiXpXM.L.iXjXdXgXjXpXx.:XjXsXjXhXiXm.m.pXsXsXjXjXgXgXgXjXXXX.X.%.X.%.-.<.6.r.6.r.e.5.5.5.1XaXaXuXz.iXgXpXfXpXdXaXjXkXsXsXsXpXiXg.(.jXjXaXgXjX",
"f.a.l.a.s.s.s.u.g.p.k.x.v.x.p.i.l.c.k.Q s.J d.h.B.m.M.c.l.M.B.n.H.v.&.X.*.;.<.<.=.$.=.-.5.=.-.=.+.s.s.p.a.d.s.l.n.B.n.p.s.f.n.l.p.s.s.i.g.g.s.c.x.x.x.",
"d.wXiXiXwX9XrXP.a.4XwXiXpXiXiXpXsXpXiXiXwX9XK.B.7X8X0XqXwX>Xl.B.'.[.*X3X1X9.+.XX:.;.=.$.-.7.1XeXiXwXqXwX9Xa.[.wXuXiXiXiX%XP.eXiXwXqXqXrXN.l.eXiXsXpXiX",
"p.pXjXjXjXjXsX[.I.pXpXjXaXgXjXjXsXpXpXpXhXhX*Xx.iXgXpXpXaXiXU.7XgXgXjXhXsX:Xf.hXyX1XyXy.7.3XjXjXjXjXjXjXpXx.qXfXjXpXpXfX*XJ.sXjXgXjXjXjXI.%XaXdXpXjXfX",
"c.hXjXjXpXpXhX4X_.dXjXjXpXgXhXdXpXdXjXpXhXhX5Xx.aXgXpXjXjXaX(.7XpXpXhXsXhXwXp.sXgXjXaXgXaXdXjXjXdXjXaXgXiXx.wXjXjXjXhXpX4XU.dXjXjXpXjXjXR.:XdXdXjXfXjX",
"B.jXsXpXjXjXjX4X/.hXjXhXpXpXpXgXjXjXjXjXhXsX6Xz.aXaXjXfXpXpXQ.6XgXgXgXpXjX9XN.jXjXjXjXjXjXjXjXjXjXjXjXjXuXc.wXpXjXjXjXjX5X!.dXsXhXgXpXjXR.4XhXhXfXpXpX",
"n.pXpXdXjXjXjX5XR.fXfXjXjXfXfXhXhXjXjXjXjXsX6XJ.aXjXgXjXjXpXI.4XpXjXgXjXjX8Xx.dXpXjXjXjXjXpXjXpXpXpXjXjXiXH.uXhXsXjXfXsX&XQ.dXsXpXjXkXjXR.4XhXfXjXhXpX",
"a.pXpXfXfXfXhX[./.pXhXjXpXpXpXpXdXjXjXjXjXjX7Xx.iXpXaXjXpXiXH.7XkXgXjXjXdXiXA.dXdXjXfXjXjXjXkXhXpXjXhXjXiXz.iXjXfXjXjXjX&XK.pXpXjXjXpXpXT.4XpXhXjXpXpX"
};
