/* XPM */
static char *result[] = {
/* columns rows colors chars-per-pixel */
"75 75 229 2 ",
"   c #09070B",
".  c #0B0A13",
"X  c #0E0C19",
"o  c #130C14",
"O  c #180A17",
"+  c #1B1214",
"@  c #151118",
"#  c #110D0F",
"$  c #250D19",
"%  c #330E12",
"&  c #2B121C",
"*  c #26181B",
"=  c #341118",
"-  c #2D251D",
";  c #150F2A",
":  c #151429",
">  c #1A133A",
",  c #191234",
"<  c #3E0C2C",
"1  c #3B0C28",
"2  c #261B28",
"3  c #361624",
"4  c #3E0C33",
"5  c #29172D",
"6  c #362E2F",
"7  c #420D1A",
"8  c #450F14",
"9  c #451114",
"0  c #4C1414",
"q  c #4D1918",
"w  c #511917",
"e  c #541D1A",
"r  c #581F1C",
"t  c #47100F",
"y  c #55221E",
"u  c #5B221E",
"i  c #552D1D",
"p  c #57391F",
"a  c #481729",
"s  c #531A2F",
"d  c #410E34",
"f  c #441032",
"g  c #4C1532",
"h  c #551A30",
"j  c #420E2F",
"k  c #452726",
"l  c #5E2521",
"z  c #5B2924",
"x  c #572625",
"c  c #5C3933",
"v  c #513333",
"b  c #622B25",
"n  c #642F28",
"m  c #652826",
"M  c #65332A",
"N  c #68362D",
"B  c #6A392E",
"V  c #672936",
"C  c #6D3E32",
"Z  c #643835",
"A  c #783339",
"S  c #3F4336",
"D  c #55472A",
"F  c #6A432A",
"G  c #6F4133",
"H  c #66453A",
"J  c #714333",
"K  c #764935",
"L  c #794B39",
"P  c #7C5137",
"I  c #7F5538",
"U  c #665238",
"Y  c #5B7B2B",
"T  c #556427",
"R  c #6F6F36",
"E  c #557B1D",
"W  c #1D1642",
"Q  c #4E3B46",
"!  c #7E3E40",
"~  c #4A4649",
"^  c #595858",
"/  c #754D45",
"(  c #785449",
")  c #6D514C",
"_  c #7B7150",
"`  c #72746E",
"'  c #777677",
"]  c #6A6A69",
"[  c #843E3D",
"{  c #845A3A",
"}  c #8F443F",
"|  c #8B633E",
" . c #807C3F",
".. c #8C4A41",
"X. c #924D45",
"o. c #914842",
"O. c #895747",
"+. c #96544A",
"@. c #975A4C",
"#. c #995C4D",
"$. c #945246",
"%. c #985B54",
"&. c #885A55",
"*. c #8B6846",
"=. c #956846",
"-. c #977244",
";. c #9C6452",
":. c #9B645D",
">. c #9C6958",
",. c #8C7152",
"<. c #A16D5A",
"1. c #A3725D",
"2. c #9C6964",
"3. c #9D7669",
"4. c #8A7773",
"5. c #8A736E",
"6. c #A67A64",
"7. c #A97D65",
"8. c #A47563",
"9. c #A17B78",
"0. c #A06860",
"q. c #5E861E",
"w. c #65921E",
"e. c #5F8720",
"r. c #638B24",
"t. c #658B2B",
"y. c #698D2B",
"u. c #648726",
"i. c #6B9423",
"p. c #6D932C",
"a. c #6B9724",
"s. c #729C2C",
"d. c #719B2B",
"f. c #668633",
"g. c #6B8C34",
"h. c #69863E",
"j. c #6D8C3C",
"k. c #668835",
"l. c #708F3D",
"z. c #718935",
"x. c #6E9134",
"c. c #6F903A",
"v. c #719534",
"b. c #72933C",
"n. c #75983B",
"m. c #759938",
"M. c #6E8C42",
"N. c #6C8645",
"B. c #718E44",
"V. c #748E4B",
"C. c #7A8746",
"Z. c #749344",
"A. c #7A9A44",
"S. c #76924A",
"D. c #7A954C",
"F. c #7D9A4D",
"G. c #789743",
"H. c #7B9553",
"J. c #7E9953",
"K. c #7E945B",
"L. c #7C8B5C",
"P. c #7F9361",
"I. c #7D8077",
"U. c #819B55",
"Y. c #81965C",
"T. c #829B5B",
"R. c #848A55",
"E. c #819564",
"W. c #859A63",
"Q. c #86996A",
"!. c #8A9C6C",
"~. c #879868",
"^. c #97897B",
"/. c #8D9D74",
"(. c #8D9B77",
"). c #909F75",
"_. c #919E7B",
"`. c #8C8C73",
"'. c #AC846B",
"]. c #AD876D",
"[. c #B7956C",
"{. c #AF8A70",
"}. c #B18D70",
"|. c #B59570",
" X c #BA9C71",
".X c #B79A70",
"XX c #B18E6D",
"oX c #8DA16D",
"OX c #8EA073",
"+X c #91A275",
"@X c #93A27C",
"#X c #BCA071",
"$X c #CCB375",
"%X c #C4A973",
"&X c #7F7F80",
"*X c #878684",
"=X c #939E83",
"-X c #99998A",
";X c #9A9696",
":X c #938A86",
">X c #A99997",
",X c #A68F8B",
"<X c #96A283",
"1X c #99A485",
"2X c #9BA48B",
"3X c #9AA68A",
"4X c #9EA692",
"5X c #9FA895",
"6X c #A1A794",
"7X c #A1A994",
"8X c #A2A59B",
"9X c #A5AA9D",
"0X c #A8AB9F",
"qX c #AAA59D",
"wX c #A5A4A2",
"eX c #ACA5A4",
"rX c #A7AAA1",
"tX c #AAACA4",
"yX c #AEAEAD",
"uX c #ACA7A8",
"iX c #B0AFAE",
"pX c #AEB0AD",
"aX c #AAB0A5",
"sX c #B0B0AF",
"dX c #AFAFB0",
"fX c #B0AFB1",
"gX c #AFB1B1",
"hX c #B1B1B1",
"jX c #B9B9B9",
/* pixels */
"t.t.r.e.r.q.r.a.U.tXsXhXsXhXyXD.9XhXhXhXhXhX1Xr.A.Z.G.Z.j.b.b.N.N.N.V.N.N.t.x.gXiXhXhXdXhX!.J.pXpXhXhXyXtXm.d.b.b.j.k.g.y.y.t.r.r.r.q.i.i.!.yXhXhXhXhX",
"sXsXpXpXyXrX0XW.J.sXyXhXhXhXyXM.9XhXhXhXhXhX7XS.sXhXiXyXiXiXiXfXsXsXyXyXgX+Xt.pXyXhXhXhXsXoXT.pXgXyXgXhXpXj.).iXhXfXiXhXhXhXiXpXtXyX0X0XZ.).hXyXhXhXhX",
"sXhXsXsXsXiXsXT.J.sXyXyXyXhXpXZ.0XhXhXhXhXyX2XS.iXsXiXiXyXyXiXfXhXhXhXuXgX9Xg.aXdXgXhXyXyXOXT.hXdXdXyXyXyXj.9XfXfXjXiXiXiXiXsXsXyXiXyXsXZ.@XpXyXyXyXhX",
"yXyXpXsXhXfXsXV.U.iXsXyXyXyXrXj.9XhXhXhXhXhX3XB.sXhXsXsXhXhXiXhXhXhXyXyXgX<Xx.pXtXuXhXyXhX+XT.hXhXyXyXyXtXh.9XyXhXhXfXfXyXyXsXiXhXhXhXiXx.@XhXhXuXgXyX",
"iXyXfXhXhXhXsXj.F.sXhXhXhXhXtXc.9XyXgXhXgXuX<Xj.pXsXhXyXfXhXhXfXdXhXhXhXdX`.r.pXsXfXhXyXyX+XY.yXhXgXyXhXtXj.9XyXdXyXhXhXhXhXuXgXhXhXhXhXy.@XhXhXgXgXhX",
"yXiXiXsXhXhXyXZ.U.sXhXhXdXyXtXx.2XgXhXgXgXdX(.j.pXyXhXhXhXhXfXfXgXhXhXpXgXQ.e.tXsXfXyXhXfX!.W.iXhXyXhXpXtXM.tXhXyXiXyXhXfXyXgXgXhXhXiXyXp.@XhXhXhXyXfX",
"hXjXyXsXsXpXyXv.U.tXhXyXdXdXpXc.1XgXdXgXgXyXS.c.pXhXdXfXhXfXdXfXhXdXhXhXgX/.y.pXgXhXhXhXgX!.Q.yXgXpXyXpXtXh.rXhXyXdXfXfXiXhXjXyXfXsXyXyXp.oXfXhXgXpXhX",
"l.S.S.l.k.f.g.a.a.g.V.K.K.J.j.r.k.H.B.h.k.Y i.s.J.J.J.V.V.F.H.D.W.J.D.D.S.a.d.J.T.H.J.J.Z.v.i.u.t.k.g.z.j.i.j.S.D.J.S.b.g.l.S.S.l.t.f.v.a.i.j.V.K.K.J.",
"i.+X@X@X_.(./.v.i.~._.1X1X=X<X1X2X1X<X_._.!.b.v.~.!.!./.+XW.p.p.H.H.H.Y.!.J.s.Q.oXQ.W.P.!.OX+XOX@X@X/.@X!.y.K._._.@X<X@XT.v.@X@X@X_.(.).p.p.@X_.1X<X<X",
"t.sXhXhXhXhXgX!.S.tXsXsXfXfXhXhXyXyXyXfXdXdXOXc.yXpXsXyXdXtXS.@XyXyXiXfXgX<Xp.pXgXpXyXyXhXhXgXgXhXhXgXhXtXj.7XgXhXhXhXhX@XD.sXhXhXhXyXyXD.T.sXiXiXfXiX",
"f.pXhXhXyXhXgX<XE.pXhXhXfXhXsXhXyXhXhXdXdXdX<Xj.sXyXyXhXgXyXP.3XyXyXfXfXpX5Xy.pXdXyXhXhXhXhXhXhXpXhXhXhXpXj.9XdXhXhXhXhX@XJ.hXhXhXyXhXhXK.=XfXhXhXhXhX",
"c.sXyXdXhXyXhX=XE.hXhXhXyXiXsXhXhXdXhXyXdXgX1XN.sXsXhXgXgXyXW.2XfXfXfXyXsX5Xx.pXhXhXhXhXhXhXhXhXhXhXhXhXtXk.9XyXhXhXhXhX<XT.sXpXhXhXhXhXE.=XhXhXfXyXiX",
"c.pXyXyXhXhXhX<XE.yXpXhXyXdXhXhXfXhXhXhXhXhX2XM.iXsXsXiXdXyXH.<XyXfXhXhXhX5Xc.iXyXhXgXhXhXsXhXhXhXyXhXhXtXj.rXgXhXdXyXhX+XT.sXyXhXgXhXhXP.1XpXpXsXyXhX",
"p.yXyXsXhXhXhX<XP.pXhXhXyXyXyXhXfXfXhXhXhXhX2Xb.tXyXsXhXdXtXZ.2XfXfXhXhXhX9XB.iXsXhXgXgXhXpXhXhXdXyXhXhXtXj.rXgXyXhXhXsX+XH.yXyXhXhXhXhXP.=XpXhXfXiXyX",
"y.pXpXhXhXhXdX_.K.9XrXtXtX9X9X9X6X4X4X3X1X1XoXb.tXyXyXyXgXtXZ.4XfXhXhXdXdXaXg.7X7XaX9X9X9XtX9X6X3X@X1X2X3Xc.tXhXgXiXyXhXOXD.sXsXhXhXhXgXK./.9XrXtXrX9X",
"t.hXyXgXhXdXgX_.p.k.k.B.Z.j.Z.b.v.m.m.m.x.m.m.n.tXhXyXgXgXuXD.=XuXfXhXhXhXtXr.Z.j.c.Z.c.g.Z.b.j.g.j.k.g.g.m.rXhXyXhXyXhXQ.H.hXyXhXhXpXpXK.g.k.k.S.Z.j.",
"y.sXhXhXhXsXdX/.H.9XrXrXtXrXtXrX9X7X9X9XwXtX<XA.pXpXyXhXhXyXW.=XyXiXiXsXhX5Xk.aXtXtXrXrX9X9X9X9X9XyXtX9X4Xc.rXyXgXgXhXhXQ.F.sXsXhXhXhXhXH.!.9XrXtXrXrX",
"y.pXhXhXhXgXhXQ.K.pXgXgXpXgXhXhXhXfXyXyXpXhX4XZ.pXiXhXsXhXhX~.<XiXfXiXhXpX9XZ.gXdXhXhXyXhXhXhXhXyXyXfXfXtXM.rXdXhXgXhXyXoXD.pXpXhXhXhXyXM.1XpXsXgXpXhX",
"f.pXyXyXyXgXhXoXT.hXhXhXhXyXyXyXpXhXyXhXpXsX4Xc.yXyXfXhXpXpXW.<XyXiXsXiXuX9XN.gXgXdXhXhXhXhXhXhXhXfXfXhXtXj.tXuXyXyXgXhX_.H.sXyXgXpXpXsXD.<XpXgXgXsXgX",
"h.sXsXsXhXhXhXOX!.sXhXhXgXsXyXhXhXhXdXyXhXsX4Xb.tXyXhXiXhXyXK.4XsXhX>X:.:.:.*.eXhXdXyXhXhXhXiXhXhXhXfXfXtXc.9XyXgXyXdXhX=XE.hXhXhXhXhXhXH.4XgXhXhXgXgX",
"h.sXhXhXhXhXhXOX~.iXhXhXhXhXhXfXhXyXpXhXhXhX3Xb.aXiXiXfXyXyXV.7XhXhX<.'.'.7.>.:.;X*X*XgXsXsXiXiXiXyXiXdXyXc.tXhXhXfXhXsX=XP.fXhXsXhXhXhXD.2XsXhXhXhXhX",
"j.sXhXhXhXhXsX+XY.yXiXyXfXfXdXfXhXhXhXhXpXhX4Xv.9XsXhXhXiXiXU.4XhX,X<.8.D *./ = @ 6 yXdXsXsXsXfXgXdXfXdXyXZ.9XiXdXyXiXsX2XK.sXsXhXhXhXhXU.=XyXfXyXiXiX",
"t.@X@X@X<X+XT.v.b._.=X=X=X<X<X@X@X!.+X@X1X1XJ.a.U.W.T.oX/.!.R.,.3.@.H @   v # X + &.3.9.^.`.!.@X@X@X@X@X@Xv.+X_.@X@X@X@XT.b.@X@X@X<XoXK.v.D._.=X<X=X=X",
"U.U.F.Z.H.U.T.m.v.H.Y.H.H.J.H.y.j.V.H.J.K.Y.S.x.A.U.U.U._ *.#.>.2.H # : . # : : c %.@.X.{ | ,.K.Y.J.H.B.h.d.U.A.U.D.J.T.T.U.F.F.S.J.T.U.s.b.H.J.H.H.Y.",
"sXsXsXsXyXfXdX!.U.iXiXsXiXiXqXn.9XhXhXiXyXfX] S tX;X:X4.%.1.].{.,.$ & = % % = = n } O.>.1.1.%.9.:X;XyX' 6 h.tXpXtXyXyXsXyXsXsXpXfXiXfXiXU.@XsXiXhXiXiX",
"sXpXhXyXyXhXfX/.R.eXeXeXiXiX9Xb.9XsXsXiXyXsX6 @ ~ 6 2 Z 8.6.&.H y 0 w e e e r e w 0 q M ( 3.'.@.k 2 ~ - # Y rXdXiXyXyXhXyXhXyXyXuXeX>XeXU._.sXuXiXhXiX",
"hXyXhXyXfXfXqX<.%.<.0.%.9.eXrXz.9XhXhXfXsX;X: .   1 V %.,.c q y u l l l l l l l u l u r q i ( >./ d . . . T wXgXsXhXhXyXfXuX,X%.2.3.;.<. .1XsXsXhXhXfX",
"hXhXhXyXfXfX8.;.#.<.;.#.$.3.qXk.4XgXdX;X^ *   X X O Z J e y z l l l z b n N n m b b l l i u w C / &   :   @ S *XyXhXsXyXfX,X$.#.#.#.;.;.} +XsXsXhXhXfX",
"dXhXhXyXgXyX#.;.<.;.#.#.#.%.qXl.9XyX' 6 2 1 O   : : % q u l l l m N B C C C C C B B n b b u l y 8 O , X   < 1 * ^ wXgXgXfX9.+.#.#.<.;.;.#.^.hXyXhXhXhX",
"rXtXrXtXrX>X} <.6.7.<.$.X.9.tXV.9X` * a h 4 O   X $ w b l l b M C C C C C C C C C C C B n b u l r = @ .   4 f s 2 ~ 5XrXtX,X+.X.;.6.6.1.+.3.yXyXhXyXhX",
"g.Z.b.c.R.@.;.1.].{.7.<.#.2.eXS.:X+ s h g 4 O . $ 9 u u l M B C J C C C C C C C C C C C C N l l l w % : . 4 f h s $ D c.g.,.+.;.1.{.{.].;.#.9.hXhXhXhX",
"4X=X1X<X^.} ;.;.'.{.}.<.;.@.9.N.- 3 h h f 4 4 $ 9 x u b M G K { | K C C C C C C C C C C C C B l l z 0 % $ 4 4 s h s + ` ^.+.;.;.'.{.{.1.;.#.:.gXhXhXhX",
"sXhXsXiXiX2.X.<.XX'.1.;.;.#.Z + & h h h d 4 4 7 e l l b B K I | -.I C C C C C C C C C C C C C M l l u 9 j 4 4 g h h j @ k O.;.;.<.7.].7.+.X.>XiXfXiXfX",
"iXiXiXfXeX%.$.<.1.;.;.;.#.@.6 > ; a h h 4 4 1 0 u l l M J L I I I G C C C C C C C C G C C C G B l l l w 7 d 4 d h h $ W , L +.;.#.<.<.7.$.#.,XsXiXiXiX",
"fXiXiXfXiX%.} ;.;.#.;.[.$X$XU , , = s g 4 d 7 e l l l C G L P J C C C C C C C C C C C C C C C C b l l l 8 d d d h a O W 6  X%X[.<.+.#.<.$.X.>XfXiXfXiX",
"iXiXiXsXiXeXo.<.@.} [.$X$X%X_ o > O h f g A 9 l l l b C G G G C C C C C C C C C C C C C C C C C N l l l w m V d h = ; ; v #X$X$X[.#.o.;.#.9.iXfXhXiXfX",
"hXjXyXiXfX>X@.%.} 1.$X$X%X}.>.+ > o a g A ..q l l l B G C C G C C C C C C C C C C G C C B J G G C z u l r n } h h + , X U XX X$X%X].+.X.;.9.hXhXfXyXyX",
"~././.~.E.R.$.$.;.[.#X XXX{.3.- , X g h X...e l l l C C C C C C G C C C C C C C C C C C K I P J C n l l u n <.A h O > . ) ].{.[. X|.1.o.#.*.~._.1X1X<X",
"w.A.U.D.D.C.X.X.<.|. X[.{.{.7.- ; . a V <.L e b u b C C C C C C C C C C C C C C C C G G P I I K C M l l u m 7.[ s O > # *.{.{.{. X X7.o.+.R S.V.H.H.H.",
"y.sXiXyXiXiX%.X.%.|. X}.{.XX1.k ; . a A <.L e u l b B C C C C C C C C C C C C C C C C B P I I P C M l l u m 7.[ s O , o &.{.{.{.[.[.7.o.X.R.sXsXhXhXdX",
"t.yXhXhXyXhX9.o.$.{.[.}.{.{.<.k ; X a V +./ e m u m C C C C C C C C C C G C C C C C C J I I { I J M l l u n 1.A s O > + O.].{.{.}.|.<.o.o.-XpXhXhXhXsX",
"g.sXsXyXhXhXsX2.o.8.}.{.{.'.<.- , O s g V x w u u b C C C C C C C C C C G B C C C C G I I I I L C n l u r a A g s $ , # / 1.{.{.}.'.@.%.R.<XhXhXhXyXsX",
"b.sXyXsXgXhXhX1X_ #.].{.'.<.@.- > . g g j j 0 u m l B C C C C C C G C C G G G B J K I I I I { K C n l l r 7 d d s $ , o J ;.7.XX}.<.2.fXE.=XdXdXhXyXsX",
"g.pXyXsXhXgXgX<XP.2.;.].1.;.O.* W O s g 4 d 8 r u b N C C C G C C C C C J K K P I I I I I I L J C m u l 0 j d d s % , ; H ;.<.'.8.%.>XhXP.=XdXdXhXpXyX",
"t.pXyXhXhXhXhX=XE.eX2.@.;.;.*.2 W $ s h 4 4 7 w m u n C C J B G C C C K I I I { { | { I I P J C N l l l t < 4 f h 3 , , c ;.;.@.+.,XfXfXK.<XyXgXhXdXyX",
"t.hXfXhXhXhXgX_.b.D.C.I ..+.O.> W = h h d 4 j 0 u u b N C B J G C C C I I | *.-.-.-.| I K J C B m l l w 7 4 4 g h a , W c #.$.:.>XhXfXhXK.Z.H.H.W.T.K.",
"y.pXpXhXgXyXhX_.Z./._.1X-X9.&.5 , j s h f 4 < 7 r b u b B C G B C C C L I =.-.-.-.*.I K G G B M l l l 0 j < d s h h 5 ; c ,.,XuXhXgXdXdXH.H.(._.<X1X_.",
"p.pXgXhXhXdXdX!.E.yXiXhXfXhXwX;X] 3 j h h j < j 0 u b u b M B G C C C G J P { { I K C C B N b l l l w 8 d d g s g = ~ &XL.F.hXfXgXdXgXdXV.1XgXpXgXyXgX",
"u.pXyXpXhXhXhX!.K.gXhXhXpXyXhXyXyX*X6 3 a g 4 4 7 e l l l l l n N N N C C C C C C N N M b l l l l r 9 j 4 f h 3 * ^ uXgX_.H.gXdXhXpXhXyXD.<XgXsXhXpXgX",
"h.gXhXhXhXhXhXOX!.gXhXhXhXhXdXhXhXdXuX' v 3 d 4 < 7 e l l l l l l l b b b b b b l l b l l l l l u 0 j d 4 1 $ 6 *XtXhXhX(.P.hXgXhXhXhXgXH.3XhXhXhXhXhX",
"h.sXhXhXhXhXsXOX!.pXsXhXhXhXgXhXfXyXyXyXwX' Q 5 4 < 8 r l l l l l l l l u m u b l l l l l l l u q 1 < 1 $ - ` wXdXdXgXdX=XP.hXhXhXhXhXhXD.6XsXhXhXhXdX",
"h.sXhXhXhXhXhXOXW.yXpXyXhXhXhXhXhXyXpXpXgXgX=XY ^ Q k s r l l l l l l l l u l l l l l l l l u r = $ 2 Q ` h.rXpXgXdXdXdX2XK.pXsXhXhXhXpXF.=XpXpXyXhXhX",
"k.tXaXtXpX9X6XT.J.0XtXuXtXuXtXrXrXrXtXtXtXtXOXi.(.-X`.:X) w u l l u b u l l l l l l l l u u i 4.*XI.:X5XtXB.4XrXtXtXrXtX<XD.rXtXtXtX9X4XA./.rXtXtXuXuX",
"v.n.b.x.b.A.n.d.p.l.B.l.j.B.l.g.x.z.b.Z.S.Z.v.s.v.n.b.g.T i 0 u u b l l r u u w r l l u i p z.Z.Z.G.Z.b.b.s.A.n.n.b.b.A.Z.m.n.b.b.Z.G.n.a.p.B.B.B.j.S.",
"tX0X0XrX9XtXtXW.U.tXtXtXtXuX6Xn.3XrXtXrXqXiX@XU.qXeX5.x u u u t 0 e r r q y l l y e 0 q 5._ _ -X;X9XtXtX9Xc.7X9X0X9X9XtXtXtX0XrXrX9XtXtXF.+XtXtXtXtXtX",
"hXhXhXsXyXyXfXoXU.pXuXyXsXfXrXn.9XfXiXsXiXsX@XS.iX^.x M b y w 0 0 q 0 e x e q x z e l w a e e y z Z 5.wXrXj.tXyXiXyXyXsXyXhXhXiXyXyXpXsXF.@XyXuXiXsXiX",
"hXyXhXyXhXhXhXQ.W.yXsXfXsXhXrXm.9XhXhXsXhXhX@XD.eX/ N B b r w t b C l ;X>X`.V.wXyX4.M e t e l b M M x c 4.h.rXdXsXhXhXhXyXhXfXpXyXhXhXhXA.1XyXhXhXhXhX",
"hXhXdXdXhXpXhXJ.U.sXgXhXhXhX9Xk.4XhXhXyXhXhX+XF.;Xz M l u u 0 M J M 4.fXhX~.n.sXpXyX/ J G u u l l n C M y R tXyXhXhXhXyXdXhXyXdXgXhXyXhXb.@XhXpXhXhXhX",
"dXhXhXyXpXgXgXW.D.tXgXhXhXgXuXj.9XpXhXhXhXhX+XZ.5.y l l l n { | G 5.yXfXhXT.F.sXyXyXuX/ { | { J M b M G B y ;XyXhXhXhXyXhXyXhXhXpXyXgXhXZ.!.pXpXhXhXhX",
"dXhXhXyXhXhXhXW.F.yXyXpXdXdXtXS.rXhXhXhXhXgX).j.Z n b b P | { C :XhXyXyXhXY.F.sXpXgXuXeX( K | -.{ G B G G n / tXhXhXhXdXfXdXhXdXpXhXhXhXZ.+XhXpXhXyXyX",
"_.@X@X_.@X@X@XA.F.yXgXhXdXyXpXS.9XfXyXhXhXpX_.T z B B K I F D L.(._._._._.g.A.gXsXhXhXhXwX_ F G P Z V B Z N x `./.(./.@X_._.@X@X+X@X<X@Xm./.pXsXhXdXhX",
"D.D.S.Z.Z.j.n.m.J.yXyXhXgXgXpXS.9XhXhXhXhXsX-Xp M B n Z ( 5.oXY.~.Q.Q.Q.~.M.x.pXiXhXhXhXiX!.V.:X_ H Z M c p y U W.T.K.Y.H.D.S.Z.Z.Z.b.b.d./.pXiXhXhXhX",
"sXfXpXpXsXyXyXW.J.yXyXyXgXhXtXZ.9XhXhXhXhXhX^.y Z / 5.-XyXiXdXfXdXfXhXtXhX<Xt.pXiXhXhXhXyX!.K.pXyXyXyXuX>XR `.>XhXjXyXhXhXhXhXhXiXiXyXyXZ./.sXyXfXhXhX",
"iXhXsXpXsXiXsXJ.Y.pXhXyXyXhXtXZ.9XhXhXhXhXyX=X_ wXiXfXyXdXdXfXfXfXfXsXyXgX5Xg.yXyXyXhXyXiX+XT.dXdXdXyXdXuXj.wXfXfXhXiXsXiXiXhXsXyXsXyXpXb.<XsXyXyXgXyX",
"iXyXpXhXhXhXhXB.U.sXsXyXiXyXrXj.9XhXhXhXgXgX1XM.sXhXhXyXhXhXyXhXhXhXyXdXyX=Xt.sXtXyXhXyXyX+XT.pXhXyXyXdXtXM.9XyXhXhXhXhXdXyXyXyXfXhXpXyXx.@XiXsXyXfXyX",
"dXyXhXhXhXhXsXj.J.pXsXsXhXhXtXx.4XhXhXhXgXuX<Xk.pXhXhXyXhXhXhXhXdXhXhXyXfXQ.r.yXiXhXfXyXyX).W.yXhXdXyXsXuXj.9XyXyXdXdXhXfXgXyXsXhXhXhXgXt.+XsXhXhXfXgX",
"yXhXhXhXhXgXyXZ.U.sXhXhXyXdXtXc.2XsXhXhXgXpX/.j.pXpXhXhXhXhXhXhXfXdXhXhXfX(.e.tXsXhXyXhXdX!.W.dXhXyXyXpXrXN.rXhXyXdXyXgXyXhXhXpXhXsXpXyXv.@XhXhXhXyXhX",
"sXhXhXsXpXyXtXv.F.tXhXiXfXhXyXj.<XhXpXhXgXtXc.c.tXsXhXhXhXhXfXfXfXdXhXhXhXQ.p.yXiXhXhXhXyX!.W.tXpXpXyXyXrXj.rXfXdXyXyXgXyXhXjXyXpXpXtXpXd.W.hXhXfXhXhX",
"y.g.v.y.u.e.u.i.a.t.f.j.l.l.t.e.g.g.k.Y Y E i.s.b.b.l.t.g.g.b.b.Z.b.g.g.x.a.d.G.b.g.g.c.x.a.i.q.q.r.r.t.p.i.t.k.g.m.g.y.u.p.g.x.t.u.u.y.a.a.u.k.j.j.j.",
"i.9XtXrX9X5X6XZ.p.1XrXtXyXtXtXyXyXtXtXtX9X7XD.b.2X2X7X9X9X=Xp.b./._._.=X4XQ.s.1X4X4X2X=X4X5X9X9XtX9X8X9X5Xt.).9XrXaXtXtXOXG.0XtX9X8X4X6Xv.y.9XtXsXtXtX",
"e.yXhXhXhXhXfX@XH.tXyXhXiXhXhXhXgXyXyXyXpXhX@Xj.yXyXiXyXfXtXJ.3XfXiXhXgXsX<Xp.hXhXhXyXgXhXhXgXgXhXhXhXhXyXh.9XfXhXyXyXdX@XD.sXhXfXhXhXiXJ.OXiXsXyXhXdX",
"g.hXhXhXdXiXiX<X~.sXhXhXyXfXgXfXyXgXgXyXpXgX1Xj.iXyXyXhXhXiXE.3XdXyXgXpXpX9Xr.pXdXdXhXhXdXdXdXhXhXsXsXsXyXg.9XhXhXhXhXgX@XH.hXhXhXyXfXfXE.=XsXsXhXdXhX",
"c.hXyXpXhXgXhX1XE.dXgXgXyXyXyXsXhXhXhXhXfXgX<Xh.iXsXhXfXyXyXY.1XhXhXhXfXhX5Xm.sXhXhXhXhXhXhXhXhXhXhXhXhXaXk.8XpXhXhXgXhX<XT.hXyXfXfXyXhXP.<XgXgXdXyXyX",
"x.dXyXdXhXhXhX<XE.dXyXfXhXdXdXgXfXhXhXhXhXgX4XZ.iXiXhXhXhXyXH.3XfXhXhXhXhX4Xj.sXyXhXhXhXhXhXhXhXsXyXhXhXtXB.rXhXyXhXdXsXOXT.hXsXdXhXhXhXP.<XdXdXgXgXyX",
"y.tXyXhXhXdXgX=XP.yXhXhXyXyXyXhXgXhXhXhXgXhX3Xl.tXyXyXhXyXrXZ.3XhXhXhXhXhXtXM.iXsXhXhXhXhXhXhXhXdXhXpXhXtXj.rXhXyXhXhXhX+XD.yXyXhXhXhXhXL.<XpXhXhXyXyX"
};
