/* XPM */
static char *ad1476d89cfa4feef0f83388ab305807woBTyvtZ6qfRa0fr[] = {
/* columns rows colors chars-per-pixel */
"75 75 246 2 ",
"   c #000000",
".  c #0C0B0C",
"X  c #070709",
"o  c #120E0C",
"O  c #150D08",
"+  c #15110E",
"@  c #1B130D",
"#  c #1B1107",
"$  c #0C0D12",
"%  c #070E18",
"&  c #0C121C",
"*  c #0B1018",
"=  c #141313",
"-  c #1A1513",
";  c #1C1916",
":  c #15151A",
">  c #1A171A",
",  c #1C1B1B",
"<  c #16181D",
"1  c #100F13",
"2  c #23190E",
"3  c #2C1B0C",
"4  c #241609",
"5  c #311E08",
"6  c #231B15",
"7  c #2B1E13",
"8  c #231D1B",
"9  c #2A1E1B",
"0  c #221713",
"q  c #38240C",
"w  c #2D2114",
"e  c #25201D",
"r  c #2B231D",
"t  c #332414",
"y  c #32261D",
"u  c #35291C",
"i  c #3B2C1C",
"p  c #3B2914",
"a  c #382B19",
"s  c #1D1D22",
"d  c #141C28",
"f  c #231F21",
"g  c #1A212A",
"h  c #1B2533",
"j  c #1A2736",
"k  c #242323",
"l  c #2B2523",
"z  c #2E2825",
"x  c #24252A",
"c  c #2A272A",
"v  c #2C2A2B",
"b  c #27282E",
"n  c #312623",
"m  c #332A24",
"M  c #3A2D24",
"N  c #332D2B",
"B  c #3B2D2A",
"V  c #392721",
"C  c #3B3125",
"Z  c #36312D",
"A  c #3C332D",
"S  c #3B342B",
"D  c #262A32",
"F  c #2B2C32",
"G  c #232C3C",
"H  c #2A2D37",
"J  c #322E31",
"K  c #302F39",
"L  c #2D323B",
"P  c #2A3039",
"I  c #343334",
"U  c #3B3433",
"Y  c #3E3934",
"T  c #34353B",
"R  c #3C3A3B",
"E  c #38373C",
"W  c #442C0B",
"Q  c #472C08",
"!  c #4C310B",
"~  c #583708",
"^  c #422D14",
"/  c #43321D",
"(  c #4E391C",
")  c #493316",
"_  c #533A14",
"`  c #543C1C",
"'  c #583C14",
"]  c #643C03",
"[  c #422E28",
"{  c #433425",
"}  c #4B3A23",
"|  c #43352C",
" . c #443A2D",
".. c #4C3C2D",
"X. c #4A3728",
"o. c #513E24",
"O. c #413633",
"+. c #433A34",
"@. c #4A3D34",
"#. c #433D3B",
"$. c #493D3A",
"%. c #4B3733",
"&. c #523D34",
"*. c #5C421C",
"=. c #6B4307",
"-. c #744706",
";. c #7D510B",
":. c #674718",
">. c #78521A",
",. c #744E15",
"<. c #5C4422",
"1. c #53432C",
"2. c #594629",
"3. c #4D4234",
"4. c #46413D",
"5. c #4B423C",
"6. c #444037",
"7. c #534334",
"8. c #5C4C34",
"9. c #53453B",
"0. c #5B4A3D",
"q. c #564A3A",
"w. c #5A4D3A",
"e. c #644B26",
"r. c #6B522C",
"t. c #755527",
"y. c #6A5433",
"u. c #675539",
"i. c #735B37",
"p. c #604E33",
"a. c #7C623D",
"s. c #2B3443",
"d. c #293649",
"f. c #333944",
"g. c #3C3D43",
"h. c #343D4C",
"j. c #353A45",
"k. c #2C3C52",
"l. c #333E52",
"z. c #242F40",
"x. c #443E41",
"c. c #3C4149",
"v. c #354254",
"b. c #3A4454",
"n. c #3D4A5C",
"m. c #36445A",
"M. c #2D415A",
"N. c #3A4B63",
"B. c #454244",
"V. c #4B4443",
"C. c #4D4944",
"Z. c #44444B",
"A. c #4A464A",
"S. c #4C494B",
"D. c #46484E",
"F. c #544B44",
"G. c #5C4D43",
"H. c #534D4B",
"J. c #564A46",
"K. c #5C524B",
"L. c #5A5146",
"P. c #4C4D53",
"I. c #444A55",
"U. c #514E51",
"Y. c #4F5256",
"T. c #545354",
"R. c #5B5453",
"E. c #53545B",
"W. c #59595D",
"Q. c #625345",
"!. c #63554B",
"~. c #695A4A",
"^. c #675B55",
"/. c #6A5849",
"(. c #6D625B",
"). c #6C6254",
"_. c #736355",
"`. c #73655D",
"'. c #78695C",
"]. c #736148",
"[. c #424E63",
"{. c #455367",
"}. c #585C64",
"|. c #5D636A",
" X c #6A6566",
".X c #746A64",
"XX c #7B6D64",
"oX c #766D6A",
"OX c #766A67",
"+X c #7D726C",
"@X c #7C7169",
"#X c #646C76",
"$X c #7C7472",
"%X c #7C7879",
"&X c #6E7279",
"*X c #615F66",
"=X c #814B04",
"-X c #895405",
";X c #945A05",
":X c #885B17",
">X c #976208",
",X c #956519",
"<X c #8D611A",
"1X c #A66706",
"2X c #B3710E",
"3X c #825B25",
"4X c #8A6227",
"5X c #986B28",
"6X c #866434",
"7X c #966E33",
"8X c #B57B22",
"9X c #A6752C",
"0X c #C87A04",
"qX c #CB7B0F",
"wX c #85766C",
"eX c #827671",
"rX c #847A74",
"tX c #847C7A",
"yX c #8B7E77",
"uX c #917D70",
"iX c #826B4D",
"pX c #B58222",
"aX c #D68806",
"sX c #D08D12",
"dX c #E99205",
"fX c #F4AE0B",
"gX c #EEAB2E",
"hX c #EB8C2C",
"jX c #F5CE0E",
"kX c #FAE618",
"lX c #F8D133",
"zX c #FAEB2F",
"xX c #8B817C",
"cX c #87807B",
"vX c #958479",
"bX c #95806F",
"nX c #F5D54A",
"mX c #FBE04B",
"MX c #6F7986",
"NX c #857F81",
"BX c #77889B",
"VX c #8C8584",
"CX c #928A88",
"ZX c #9B9697",
"AX c #97918D",
"SX c #A49FA0",
/* pixels */
"U Y +.Y Y S Y S Y 5.5.5.C.6.6.T T E f.c.s.P I T L b b R k k ; k k k k e k ; < ; , ; , , : ; ; k e e e 8 6 , , k l v N - 3.q.w.w.w.~.u.p.p.1.q.Y  .3.6.",
"5.A Y 3.5.S S Z S  .5.K.5.Y N g.T f.g.c.f.P T f.L z k b b = k k z k b z k k , , , e e e ; = - e z 8 6 e 6 6 ; ; r z z ; 3.w.w.w.Q.i.y.y.8.1.p.3.3.3. .",
"5. .1.3.6. .7.3.Y  .3.3.6.S z R 6.c.6.f.R f.f.f.v v b k ; + k z k z k k k b , , s k s e ; = ; ; e z e w 6 ; ; , 8 z N 8 3.w.w.p.u.u.y.y.2.2.8.3.3.7. .",
"3.1.8.8.1.7.i.a.8.3.} i a m u 4.B.6.f.R R T I Y v b z , . + , k k k b b b k ; g x b x g ; = ; ; e e r 6 e ; 6 ; , e r 6 1.L.p.p.u.y.y.8.2.2.1.1.8.1.3.",
"} p.r.2.2.r.a.iXu.2.} u a S u 6.S 6.R f.I S I I Z e k ; + + , k z k b b b k k g s x x 8 > - , - = e N 6 r 6 ; , 6 2 e 6 } w.p.u.y.r.e.<.<.<.2.2.8.1.X.",
"` r.e.e.r.t.6X6Xy.8./ /  .a u 6.6.m r w r e e v v z z k k < , b D z b Z b k k , k x g k ; - - - > = e n e e 6 6 ; e e e } 2.p.y.r.e.*.<.:.r.r.2.2.` o.",
"_ *.:.:.t.5X7X6Xt.e.} } / t u  .6.1.u r z w e u S z z Z z , ; b Z b v P P k , g x x x k > - - - - = = - r e w 6 e e e 6 2.2.e.<.<.*.` _ ` :.:.*.` ( ( ",
"_ :.,.,.<X,X<X<Xt.:.*.*.} 1.C { C S S S S m u N z e k v k , + , b v v I b k g , x D x c , + - - ; = = - 0 e 6 e e w w 2 2.2.<.<.*._ _ ' ' :.:.' _ _ ) ",
"_ =.:X>X,X>X;.-.>.:.*.p *.1.C a i i C C m C u r , e e z k , = , k I I P L F g g x D F T f + - - ; = - @ ; 8 w e r z e 2 1.*.*.( _ _ ! ! ~ =.] ' ~ ! ! ",
"~ -.>X;X>X-X=.=.,.=.=.*.*.2.2.q t u m u w r w - , 6 ; , 8 , 8 f k I I I E T J b J T R c.k - - 0 , - > - 6 ; 6 z z w w 2 ^ ^ W p Q q q Q Q W Q Q ! Q Q ",
"~ =.-.] -.=.~ ~ =.q q q *.*./ w p u u w 7 u u r w 0 0 , , k l l b I R I E E T f.c.c.R c.8 - - 0 6 ; ; ; ; 6 e r r w 6 2 w w q 5 q q q ! ~ ~ Q Q ! ! q ",
"~ ~ ] ] ;X=X-.-.=.*.=.*.q p q a p i p w t m Z u r r r r r k l c Z f.I Z I T T T T g.I R 8 > 0 - ; ; - = = ; 6 2 2 w 2 2 ) *.( W ! ! =.;.2X;X-.] =.-.=.",
"~ -.-.] 1X>X;X-X-X-X;.;.*.:.w 2 3 7 7 2 3 6 6 6 r r e w 8 ; - - = ; + o + = = 6 8 r n l 8 o . o @ . - . . . . O o o o o / *.p W ! =.=.-.2XqX;X] =.-.] ",
"=.-X-X-XaXdX1X1X1X>X,X>.=.:.w # @ 2 2 w 6 r w 6 - r r 6 9 n 9 @ + + = o = , s r z v J B.P.J f 0 8 b ; @ + 2 # 2 # + o 2 ) ) q *.-.,.;.;XqXdX;X] =.~ ~ ",
"] -X-X1XjXjXaXaXaX>X>X>X*.>.t t w u u y n r w 6 6 r 8 e - 9 n 0 + ; , k k e ; 6 e e Z #.S.+.E j.g.H.+.A S m u 2 2 2 2 w ) *.:.:.] =X;X>XhXdX;X-.-.~ ~ ",
"] ;X;X2XjXkXaXdXaX2XpX,X,.e.q C i u u u m m n r r l r ; > 8 f f r z z e ; + - 6 ; w m O.$.O.n +.B.#.n n u z S t 2 2 2 2 } :.t.;.;.-X;X1XlXjX2X-.-.] ] ",
"=X;X2X0XjXkXfXdXaX2X2X,X,.e.p i i V M i m m A U N J J T J J U c l l r l U r @ @ 6 r w M Q.+.A 5.$.S.+.S.l l | M w @ @ 2 ( <.4X>.<X;X>XsXzXkXpX=X-.] ~ ",
"-X1X0XaXkXzXfXdXaX2X2X5X>.:.t t / X.M M M Y U U Y +.O.B U U J O.x.4.5.R..XO.  X # 6 r y B n +.V. X9.!.J.3.6 M | w 6 # @ *.*.t.>.<X;X1XsXzXzXsX=X-.] ] ",
"-X1X0XaXlXzXfXdXsX8X8X5Xt.e.[ { V ..M y B U +.+.A z z z U O.x.J.^.K.G.^..XV.          . + m | 5.H.0.&.$.V M M { X.6 O 2 ( *.,.,.,X1X1XsXmXmXsX;X=X] ] ",
"-.;X1XaXnXlXfXdXpX8X8X9Xt.} 3 X.M u M n Y B U J Y N N Y (.^.XX.X%X!.~.oXrXH.                - @.+. XM 7.G.| B M 3.X.@ @ } 2.t.:.,X8X2XsXmXnX2X>X=X] ~ ",
"~ ' ,.;XhXgX2X3X:.' ,.` ( / 0 { u V m @.Z n l c N Z Y u.!.(.+XXXtX^..X$XcXF.                    r $Xr 9 7.Q.@. .q.u @ + } e.r.,.:X,X,X2XgXnX1X-X-.~ ~ ",
"3X5X8X8X8X,X:X:X>.3X7X6X2.1.i  .M M N O.l n l n z R.w.~.~.)..X+XVX.XoX%XVXF.                      v | y &.&.7.| 3.M 0 # } 2.<.` ' ,.:X>XpXpX-X-X;.~ ! ",
"' 3X7X9X5X] Q ! _ t.6Xi.2.&.y @.A V A B m k e z Y $XK.].).)..XrXCXoX+XrXcXJ.                        6 u 3.7.V q.7.r @ @ w w 7 q p W ! ~ ,.=.! ! Q q 5 ",
"` *.6X6Xt.' W ^ ) t.6Xa.y.8.M A M l U B l z z v .XoX~.).~.(.@X+XxXoXeX$XtXK.                          7 r ~.q.0.%.6 @ 0 2.2.2.t.6X:.Q W ! ! :.,.=.~ ! ",
"^ ` r.r.e.) W q / t.6X/.Q.p. .O.U m @.m l l f !.`.+X).(._.`.eXeXCXeXeXtXVXH.                          # U _.C V n @ # @ 1.y.r.t.a.*.q 5 q Q ' :.~ *._ ",
"V ) y.r.o.) t 3 ^ /.iX/.w.u. .C m O.$.l n n N %.| 9.5.`.XXOXxXVXZXrXtX%XyXK.                          X 6 C.C m y w ; @ ..p.i.i.i.<.q 4 5 5 ! ' _ p ) ",
"t t &.&.} ^ t 3 i p.]././.L.| O.n m +.U O.8 7 y | @.n 5.eXXXeXyXAX%XVXVXvXR.                            9 [ A l e y 6 r 8.Q.~.u.y.<.5 4 4 5 W ` _ q ^ ",
"y i &.&...[ 3 7 u q././.~.J.A +.Z m U +.U 6 9 | K.Q.M +.wX^..XtXCXNXrXrXCXK.                            - 7 5.B 8 l n 6 ~.].].].u.a 4 # 3 5 ^ o.( a ) ",
"r C  .3.3.a t t u Q.~.L.q.F.C #.U m m O.K y 7 Q.$.| n J.eX`.XXtXCX!.[ 0.yXK.                            + 6 R.H.e r r e ~.'.)._.].i 5 4 5 5 C *.*.a i ",
"C C C S 3.u w t X.Q.w.Q.K.C.U U B l Z +.l n V J.0.B J.!.rX`.XXVXSXx.f x.uXK.                            + r 6.MXZ z z 6 w.).'.].~.1.w 3 @ 4 i / 1.u i ",
"l z r z r 8 6 6 y Z m Y Y S z B B l m U f y [ | $.@.K.K.!.J.J.!.OXx.N $.`.&.                            8 w z  XT.Z z + Y ).'.'.).q.t 3 5 t i 1.1.i C ",
"C.S.B.5.6.6.S m J.K.5.6.5.3.Z z U N U x.n V [ V B | B M [ N N %.&.[ [ | X.[                             X 8 u 4.).Y e + S ).).).~.w.{ t u a / C C a C ",
"Y.W.U.C.4.Y A n 6.5.@.@.5.$.N 8 B U U x.B y B B B [ [ X.&.%.%.%.&.[ [ [ &.%.                              X y U C.O.n + U J.L.^.!.F.{ a i i S 3.{ C C ",
"W.#X|.4.4.+.Y y 5.#.@.@.@.U.n 9 U U O.Z.O.9 B %.@.B @.0.`././._.eXO.V [ ^.x.                                o A O.O.m o 9 m r N z r e e 6 e r z r 6 ; ",
"}.#X#XU.C.D.#.r 5.5.@.@.%.J.Y l 9 x.Z x.N y V Q.9.n B ^.eX'._.wXNX$.n %.eX!.                                X A r H.B @  .6. .+.Y +.6.6.9.9.9.9.6.C e ",
"W.#X&X#X|.W.#.r B.U.4.5.T.H.B.#.N x.Z.x.l 9 V 0.!.O.l J.eX'.'.OXCXJ.G.x.AX X                                  N 9 H.U + Y B.4.4.+.A 4.H.T.L.C.5.5.S 2 ",
"Y.|.#X#X#X#XB.r Z.P.Z.S.E.T.I v U +.S.x.l r r m O.B l 9.rX`.'.OXCXK..XK.AX X                                . Y I R.Y ; Y B.B.U.B.Y C.S.T.F.F.5.5.S 6 ",
"c.|.|.}.W.W.5.N U.Y.I.P.D.E.I z U U S.P.N B 6 r n n 9 K.yX`._.OXAX^.XX(.ZX X                                . Y O.C.S.6 Y R Y.D.B.Y B.U.W.U.V.4.6.v ; ",
"c.D.{.C.4.4.Y z W.|.|.S.S.S.I l U O.J E.U %.m i C C | J.yX^.(.OXZX^.+XOXZX%X                                . Y B B B.k Y 4.D.c.c.Y 4.Y.W.U.F.S.B.z 6 ",
"I f.c.6.+.Y r r B.E.|.U.Z.S.I v B #.U +.S.9.| [  .@.9.K.rX^._.eXZX*XeX$XSXVX                                . I N Y B.R Y B.Z.c.E R R Y.T.U.S.C.S.z e ",
"I I I I Z N e e R B.g.T I T v I J x.U B R.&.$.X.&.9.J.!.NX(.(.$XZXOXtX$XZXNX                                . R A U N v V.g.Z.D.T K E D.Y.S.S.B.J - 6 ",
"g.c.R 6. .6.S m H.|.}.I.#.4.U T l +.U #.x.0.9.X.&.0.Q.!.XX_.(.$XZXoXyX$XZXNX                                . Z.U J A.8 T.Y.D.c.T L R D.T.S.B.I l > 8 ",
"R R R 6.5.5.C C H.E.Z.Z.#.#.Z R v O.U U.B G.G.{ 9.G.Q.G.@X`.'.NXZXOXtXoXZXtX                                X c.U N x.N Y.|.E.D.f.c.P.}.U.P.B.I v k 9 ",
"Z I Z S 5.5.S S B.x.#.#.+.#.Z N U v x.x.9 Q.Q.X.G./.!.^.eX.XiX%XZXeX$X$XAX+X                                . g.U m #.V.x.|.}.|.}.I.Y.Y.S.S.Z.I v f f ",
"S Y +.+.6.C.C.O.O.R O.U #.V.x.f #.#.U J l Q.G.&.0.^.G.^.eXXXXXNXZXyXrX$XyX_.                                . Y U v n B.v S.B.S.Z.Z.Z.R R R g.I x f 8 ",
"S 6.Y +.4.F.#.S U R +.R #.H.R U N B v g.N Q.!.&.G.!.G.~.eX`.XXVXSXNXeXoXyX/.                                X I A n r 4.c v c , , = ; , 8 8 , 8 f - - ",
"S 6.#.#.#.V.Y Y O.Y x.+.+.S.A R J J N g.z !.!.0.| y f n f n B %.%.U O.B %.N                                 X U N l z 9.m R U c l e r z n m c U I e l ",
"N C.+.Y #.#.I Y +.O.x.R x.S.c n l v m g.z Q.G.q.@.&.y V [ O.[ U [ O.[ B B |                                 X N N l z N N +.I l e e r n n m A A z 9 9 ",
"Z c.Y Z U I Y #.4.B.x.R B.A.N l l c N R l 7.G.9.&.q.9.~.^.'._.!.^.!.Q.^..XQ.                                X v N r z - v U v e e 8 8 r r A C z l l 9 ",
"I R Z Z F R D.R #.4.x.x.g.D.J ; 8 v c g.z 7.G.q.9.&.Q.`.Q.wXiX[ 9 > 8 %.oX^.                                  Z I c v = l c e s k e l z m +.N 9 f z f ",
"U R R I I D.I.Y R #.B.Z.x.V.F = s N c I l 0.~.9.0.0./.wXyXyXwX&.y &.B Q.rX(.                                X v T l g 1 x e k e e r l r S Z , , ; 9 8 ",
"Z Z I I R c.c.R #.6.@.5.V.V.F = k A z N k 0..X0.G.Q.Q.wXyXuXwXG.@.G.&.`.eXXX                                  b P x k = k l k 8 e z r Z z = - , 8 8 0 ",
"= ; ; > 8 g b b v c c z n N , , c U N T n G. XJ.0.Q._.uXyXuXuX_._./.iX`.$X$X                                X c I D b = z z x k k l l 9 ; = : 6 , 0 0 ",
"b.D.I z z m v Y B.V.6.4.x.g.k = e Z N c.z G.oX0.Q.G.G.rXCXuXuXXXwXwXwXoX+XrX                                  v T F I g l v J z l 8 8 - = = - , > @ + ",
"B.B.Y z N z u Z 5.5.5.5.4.D.v + e Y I Z.z G. X6 0 9 y ^.CXuXvXwXwXyXNXwXtXNX                                X K I F v , k c v z l , ; ; - = + ; @ - + ",
"R R R I R 6.Z S Y S R R R R N - l J N U l O.f 6 B | 9 [ eXuXuXwXwXyXyXrXeXCX                                X I I v e , e k k c e , - = = = + ; + + + ",
"Z I S I S Y S S z v z U Y Z b + U BX#Xx : ; 0 9 V.$.9 A OXwXeX!.OXOXwX(.oXtX                                X J N 8 , > 6 ; 8 , ; ; + * + + + @ + = + ",
"e z N I Z m m e k k x x l Z x + E.%XMXT + + 2 r %.6 9 %.^.`..X^.XXx.$.B OX$X                                  F c 8 , ; ; , = - = + + + + + ; = + o . ",
"e m z u e w u l e k c l e v s o E MXMXK - = 6 9 A 9 V V.^.^.`. XeXO.> 9 ^.oX                                X J F k , , l z 6 k z e ; ; , e k e 8 6 - ",
"e e r 8 ; + 2 6 8 6 r n z Z , o , x f J 6 ; 9 9 y 9 f m #.$.K.R.R.B f 9 ^.^.                                X J F c x , r z e - ; ; ; = ; ; ; ; ; ; - ",
"s : ; ; ; = = = = ; ; ; ; s > = s x F T 8 8 V f 9 9 9 9 > > > 0 f 9 9 9 v J                                 X N F D x , k v r ; ; ; + o = ; = - = = # ",
"I v z g z g = , s 8 s x v N x ; f c I g.f f n n M U M 9 V [ | n [ N n f f n                                   x F x x , z r k e ; ; + . + = = = = @ o ",
"z k e e , ; = ; ; ; , e v N e < f c j.g.s f c N S.n Z +.K.U.^.x.(.x.B n G.[                                 X x D c , , e e e 8 ; = + . o + ; ; ; + . ",
"e 8 ; ; = , ; = = < * e k g e = f f j.j.s f f S.x.l c A.R.E.^.J.OXx.f f (.$.X                               X x F D g & e e 6 ; = = = . = ; . o ; + o ",
". ; = = = , , = = > = : , s , = , k K f.f f x Z.U.R l x.U.W.R.K.*X[ 9 f OXx.                                X x D b f > , f 8 - = $ . = > + o = ; . o ",
". ; + = = = = : : = = : > s , $ < x F F s n f x g.#.x R B.T.^.T.*Xx.[ x.OX^.                                  x D x s < > , k > = = = ; ; = 1 = = o . ",
". . o o $ $ * = 1 = o = = , , . : s f H f U N f f s s B.x.U.E.E.}.x.%.R.*XR.                                  D D x , = = > k , ; = : = = = = = = . X ",
". . . X . . . % $ $ . . : : d . $ s s f , J J A.J l J S.D.S.Y.U.E.x.O.x.*X*X                                  x x x , : < , , , , < , : : = $ 1 1 . = ",
"X X X % % * & & * < d d < g h * 1 : s s : f J U.x.#.x.P.P.P.R.P.E.U.x.x.*X*X                                . s , s , : k s g , < < < = = = : = = $ = ",
"X . X X X % & & $ 1 = d s g h * $ & : & : f f U T K g.x.D.P.E.x.}.W.E.E. X&X< D j.P f.l.s.D D D H T K T D D x x x g : s s , , , : = = = = 1 = 1 1 1 = ",
"X X X X . X % % . & < $ & : g & d g G z.d.k.d.s.D d.l.l.m.l.l.h.l.x.h.g.I.P.H s.[.n.[.n.n.n.v.v.l.h.h.h.f.h.h.s.f.h.f.H x g , g , , , , , , < ; g ; , ",
"% % % % % % & * & & d d d d d j D z.z.d.d.k.k.z.g G d.d.l.l.m.n.l.l.l.s.s.D s.l.b.[.[.[.I.[.I.n.v.h.l.h.h.h.l.f.s.s.L L P H x g g g s x g x k h b b b ",
"j d j j j j j j d d d d j j z.z.z.z.k.d.d.k.k.z.G h G G g G s.s.s.H H s.f.s.l.b.l.l.b.I.n.n.N.N.I.n.b.b.v.h.h.h.f.d.f.L D D x g x b x x g v x b b b b ",
"d d j j j j d j d j d j j j d.k.k.d.d.M.k.m.l.G G G d.z.z.d.k.s.z.d.l.l.n.n.N.{.I.b.{.[.[.{.[.{.{.N.N.I.b.n.c.b.v.f.f.s.P D D F x b F b F b b b b b b ",
"d d d d d d j d d j j j j d.d.d.k.k.M.M.N.N.k.G z.d.d.d.d.d.k.d.l.m.b.m.N.N.{.{.[.[.{.N.{.{.N.N.{.{.{.{.{.N.N.N.n.b.v.f.c.h.f.L F F L L P F F F D b b "
};
