/* XPM */
static char *d4bbab29e76a449c9dca485a3dd6b0d0rpmn6hLACoLHEs4P[] = {
/* columns rows colors chars-per-pixel */
"75 75 222 2 ",
"   c #040200",
".  c #0C0704",
"X  c #140C06",
"o  c #14120D",
"O  c #1B170E",
"+  c #1B1613",
"@  c #1D1A14",
"#  c #181614",
"$  c #27180E",
"%  c #221B16",
"&  c #221D1A",
"*  c #2A1F1A",
"=  c #25221D",
"-  c #2A241C",
";  c #352519",
":  c #262421",
">  c #2B2723",
",  c #2D2A25",
"<  c #2E2C29",
"1  c #292728",
"2  c #312A25",
"3  c #332E2A",
"4  c #392E2B",
"5  c #392B24",
"6  c #34312D",
"7  c #3B342C",
"8  c #3C362A",
"9  c #363632",
"0  c #3B3532",
"q  c #3C3A35",
"w  c #3E3D39",
"e  c #363638",
"r  c #43322C",
"t  c #4B3A2C",
"y  c #46372A",
"u  c #443C35",
"i  c #433E3A",
"p  c #4A3D39",
"a  c #483933",
"s  c #513831",
"d  c #3F403B",
"f  c #4D4135",
"g  c #45423D",
"h  c #4B443C",
"j  c #4C493D",
"k  c #52453D",
"l  c #54493E",
"z  c #5D4C3E",
"x  c #554536",
"c  c #464442",
"v  c #4B4642",
"b  c #4D4A45",
"n  c #4D4D4A",
"m  c #464845",
"M  c #504641",
"N  c #534B44",
"B  c #5A4D44",
"V  c #534D4A",
"C  c #594E4A",
"Z  c #545247",
"A  c #5B5046",
"S  c #54524D",
"D  c #5B534C",
"F  c #5B5A4F",
"G  c #524E50",
"H  c #565452",
"J  c #5A5652",
"K  c #5D5A55",
"L  c #5E5C5A",
"P  c #575756",
"I  c #4F504B",
"U  c #634D43",
"Y  c #63544C",
"T  c #68574D",
"R  c #635A4F",
"E  c #6B5B4D",
"W  c #665444",
"Q  c #735943",
"!  c #625752",
"~  c #635B54",
"^  c #6A5D54",
"/  c #625D5A",
"(  c #6B5E59",
")  c #715F54",
"_  c #5E635F",
"`  c #7A634E",
"'  c #666156",
"]  c #6B6157",
"[  c #65625D",
"{  c #6B635C",
"}  c #6D695E",
"|  c #746354",
" . c #73655B",
".. c #7C665B",
"X. c #73695E",
"o. c #7C6A5E",
"O. c #786555",
"+. c #625E62",
"@. c #656462",
"#. c #6B6562",
"$. c #666A64",
"%. c #6D6A65",
"&. c #6A676B",
"*. c #6D6C6A",
"=. c #726662",
"-. c #786661",
";. c #746B64",
":. c #7A6C63",
">. c #726E6A",
",. c #796E6A",
"<. c #6D716B",
"1. c #757166",
"2. c #7B7166",
"3. c #75726D",
"4. c #7B746C",
"5. c #7C796E",
"6. c #77796C",
"7. c #6E6D71",
"8. c #726F71",
"9. c #747472",
"0. c #7B7572",
"q. c #7C7A74",
"w. c #777B78",
"e. c #7D7C7A",
"r. c #787776",
"t. c #816A55",
"y. c #826C5D",
"u. c #886C5E",
"i. c #84735F",
"p. c #816E63",
"a. c #856F65",
"s. c #837264",
"d. c #897465",
"f. c #82756C",
"g. c #89766B",
"h. c #83796E",
"j. c #8C7A6D",
"k. c #897866",
"l. c #957C6D",
"z. c #827772",
"x. c #837B74",
"c. c #8A7D74",
"v. c #837D7A",
"b. c #897E7A",
"n. c #917E72",
"m. c #7E817C",
"M. c #7E8074",
"N. c #838176",
"B. c #8B8175",
"V. c #84827D",
"C. c #8B837C",
"Z. c #8C897F",
"A. c #87897D",
"S. c #938275",
"D. c #93867C",
"F. c #99877A",
"G. c #94897E",
"H. c #9A8A7C",
"J. c #9A8776",
"K. c #A88B7B",
"L. c #7D7D80",
"P. c #817F82",
"I. c #858482",
"U. c #8A8582",
"Y. c #868982",
"T. c #8C8A84",
"R. c #8D8D8A",
"E. c #88888B",
"W. c #918682",
"Q. c #938B84",
"!. c #9A8D83",
"~. c #938D8A",
"^. c #9A8E8A",
"/. c #8D918C",
"(. c #939186",
"). c #9C9185",
"_. c #94928C",
"`. c #9B948C",
"'. c #9C998D",
"]. c #8F8C90",
"[. c #9A8F93",
"{. c #959492",
"}. c #9B9592",
"|. c #959994",
" X c #9D9A95",
".X c #9D9D9A",
"XX c #989598",
"oX c #A18F83",
"OX c #A19285",
"+X c #A3968B",
"@X c #A4998C",
"#X c #AA9A8D",
"$X c #A99688",
"%X c #A19793",
"&X c #A39B94",
"*X c #AB9D94",
"=X c #A29D9A",
"-X c #A99E99",
";X c #9EA19C",
":X c #A5A296",
">X c #AAA196",
",X c #A4A29C",
"<X c #ABA29C",
"1X c #B3A89E",
"2X c #B4A59B",
"3X c #A19CA0",
"4X c #A5A4A2",
"5X c #ACA5A2",
"6X c #ABAAA5",
"7X c #ACACAA",
"8X c #AAA6A6",
"9X c #B3ABA4",
"0X c #B1AEAB",
"qX c #B7AAA6",
"wX c #B8B1AB",
"eX c #BBBAB4",
"rX c #B8B8B4",
"tX c #B0B0AE",
"yX c #C4B6AD",
"uX c #BDC0B9",
"iX c #C5C1B8",
"pX c #D0CCC9",
/* pixels */
"  - N :.M -.-. .a.z. .k ! 8./ J &.P.M 8.[.XX,XR.0.Z.B.5.f.>X*XB.!.b. .^ ^.Y D.a. .-. .{ S.%X^.^.8XqX-XP.5.X.6.A.H /.m./._ 9.6.R.U.9X~.!.b.:.S.Q.H.B.B.",
"j ;.:.1.Y  .T ) -.-.a.( C ! ! C i 8.v.P.v.{.T.Y.e.N.x.} { c.F.f.z.,.+.-.^ x !.g.p.:.o.( D.-XP.W.[.[.[.*X&XG.1.} $.<.$.m.$.<..XQ.-X}.~.U.^.C. .2.B.s.2.",
"g ;.F A Y ) U p.p.! -.,.-.,.8.#./ G H I.{.{.U.R.5.e.Q.z.z.;.a.( ,.>.Q.^.:.a  .-. .-.n.b.%X-Xb.~.[.[.[.%X*X).B.1.o < _ [ R.R.#.(.T.`.q.C.%Xb.2.c.j.h.2.",
"u } ~ D ~ ) Y -.a.T -.,.f.P.P.W.+.&.J v.U.R.,X{.T.C.T.B.z.:.z.c.,.J z.W.wXY ~ -.) z.-X-X-X&Xv.4X=X[.P.n.G.H.D.h.d d m./.T.=X1.Y.,XeXR.V.Q.:.2.:.B.B.j.",
"j } ,.;.^ ^ Y ( ( -.a.( =.8.0.~.#.9.#.U.U.U.=X}.C.N.v.Q.b.c.c.b.z.#.C.V.^.4 D b.W.^.-X%X-X&XU.0X8X^.b.4.j.H.c.^ ~ V.%.m.m.w.N.[ ;X0X6X5.N.&X5.c.D.G.2.",
"q D ;.;.D A T T ) -.=.! =.,.#.0.V.P J q.R.}.V.=Xv.e.x.&X^.^.z.,.V [ XX<X0.p W.2X-X`.D.Q.6X5X[.=X8X3X'.c.-.j.a.U N -XU.5._.M.A.M.;XeXeX`.C.).c.h.k.N.A ",
"w D ;.} D B Y T ) ( ( =.8.b.8.,.%.3.3.#.1.~.V.=X&XY.z.b.C.^.W.v.9.v.~.8X~.( ^.b.=X%Xz.I.4X=X X.X8XrXeXG.^ ..a.U W !.,XT.<.M.Z.Z.<./.,X6X XQ.&X*XH.).E ",
"3 V [ ( ^ Y Y | -.T f.z.,.v.P.v.3.V.1.V.v.*.3.[.&XB.x.;.b.W.Q.,.I.~.U.e.}.p U.`.%X9Xb.v.U.v. X7X6XuXiX^.| y.y.s r -XB.;XA.A.A.(.m.$.|.6X<X,XZ.-XG.@X:.",
"v / { ~ ~  .R | -. .T =.~.W.8.r.r.L H Y.=XC.q.0.z.v.`.z.4.&XQ.v.v.e._.I.#.< ,.Q. X`.&X%.~.9..X7X;X6X<X:.j.n.p...r OX<X}.v.(.'.M.4X/.<./. X,X:X>XW.!.s.",
"G 9.>.;.} :.Y B  .-. .#.v.U.P.r.R.I.1.w.T.V.q.z.~.x.b.0.,.z.3.b.v.q.~.U.b.g 4.1.&X}.<Xv./ %.4X4X7X;X'.b.2X$X..U ; b.%X4XT.T.(.T.Y.;Xm.w.Y.x.b.>Xc.B. .",
"L U.3.,.;.;.| B Y ] 2.,.( +.r.L.I._.v.e.R.T.V.v.}.b.z.W.Q.x.1.4.V.V.v.I.T.M 4.Z W.&X=X9XQ.e.0.|.,X4X:X1.#X2X#Xj.a =.#.v.M.C.(.(.L 4X;Xm.V.4.6.z.X.:.A ",
"L E.>.;.} X.4.o.o.^ 4.C.>.7.P.].0./.r.e.}.Q.x.q.Q.^.~.).`.b.5.;.V.U.q.W.-X#.<X5.} %X`.~.V.~.e.T.7XuXeXz.!.$X2X@X! ,.#.W. X'.`.T.e.R..XU.q.4.B.1.{ } N ",
"H P.&.,.} ( f.B.b.( ( b.P.[.[.P.E.I.@.*.~.P.0.b.Q.-X}.b.z.:.1.2.(.XXT._.>X4.yX@X{  .x.Q.N.(.=X.X7X4X6X X1X).@X@X;.(.R.4X X_.`.`.{.w.E.~.Y.4.x.z.4.z.' ",
"G 9.8.z.;.]  .s.n.a.,.z.P.%X].r.P.w.L 7.}.~.^.}.^.+XW.b.C.h.1.x.`. X:X&X`.' 1X@Xb.D ~ `.9X(.~.,X4X.X_.(.'.!.:X:X<.XX X4X~.U.^.}.v.R. XU.`.T.4.c.G.).4.",
"P 8.&.=. .;.E ] -.c.P.n.P.P.P.].r.w.8.q.~.XX%X[.U.C.W.H.*X&Xc.(.(.}.5X&X^.~ &X#Xj.s.R ] V.V.4.R.8XtX}.C.5.Z.:X'.[ |.XXtX7X%X}.W.e.XXXX0.>.T.v.C.T.!.4.",
"+.8./ H D ;.R ~ B  .-.g.P.8.L.3XL.].I.8.,.P.W.,. .b.*X^.).'.N.<X,X:X9X`.4.y X.5.2.2.2.h.A ~ 4. XXX.XU.&X).:X:X(._ R.~.7X8X-X&X[.v.%.U.~.,.4.4.x.c.B.{ ",
"G +.,.+.=.=.C ! M C -.,.c.f.b.b.8.8.+.&.L J =.M 0.!.b.z.,.(  X^.,X5X,XU.1.6 D 2.f.!.#X*Xf.v #.T. X~.Q.4.B.2.C C ( 9Xz.&.W.W.].=.#.~ #.W.b.>.b.,.#.' K ",
"c C +.+.z.P.( C C C T ( -.-.f.b.P.L.e 1 J >.z.,.-.=.,.4.~ +.;.v.v. X,Xe.L > ~ 2.D.S.a.s. .C / #.).] ^ ' ^ r $ X k ^.z.-.,.( =.+.~ v u C x.( N ;.K K ~ ",
"2 * # . 1 p 4 0 * * 5 p a r r a v J 1 = i M J Y B ( Y M * D N g ! ' ;.[ b   % p ..W t t a 4 p n 7 7 u y p ! :.p . r 4 r p 4 2 i h h 7 = g v O % % = = ",
"G &.z.].5X-X^.P.,.=.^ ;.( ( T ( 8.E.XX5X^.z.^.W.z.F.c.9XS.z.,.( A D 3._. XJ b.9XyX#XS.F.D.b.^.9X>X'.^.`.^.b.<X-Xr =.P.b.W.b.P.wX&X).V.;.N U.Q.b.4.0.V.",
"+.v.z.P.P.n.z.z.z.4.! D B ! Y C #./ #.b.z. .c.f. .D.c. .^ 2.D.X.~ 4.C.T.U.J W.qX2XB.i.j.j.-.4.}.,X`.Z.'.&XX.x.%Xp C ! ( W.&XU.W.`.} { 5.N Z Z.Y.5.c.C.",
"M +.+.>.P.P.P.b.,.,.( ! C ( ^ ! ,.,.N -.^.b.f.c.o.^ s.E s.o.E j.2.f.:.} } g 2.+XK.g.l.J.j.;.,.-X(.9X9X'.5X+XW.x.a / ,.,.P.[.U.Q. X0.q.Z.`.D 4.v.0.5.0.",
"! P.0.8.v.v.b.z.I.b.z.#.=.=.b.Q.,.4.! ,.+XD.p. .) ..p.y E | z i.).C.c.4.0.N 4.).g.y.l.n.s.-.,.+X`.`.6X,X9X XW.C.p =.,.,.W.}.~.x.Q.A.6.{ q.[ ;.B.z.0.z.",
"&.[.W.0.0.z.P.z.#.,.C.b.b.=.z.W.b.f. .f.c.b.S.T x O.) E F.| x E E B.!.4.;.V z.B.S.a.s.y.d.j.f.z.}.V.,X<X}.W.Q.-X4 >.D.U.v.0.v.v.(._.N.M.} N.;.Z.B.B.c.",
"&.U.0.@.q.U.U.9.z.v.,.>.U.Q.q.,.z.:.' l {  .] o. .| 2.J.o.Q | x z E c.N.C.M z.;.g.s.d.d.W F.*Xf.R.e.0.T. X`.~.^.M v.=.,.,.=.0. X(.{.<X(.{ (.4.b.z.C.OX",
"( V.q.9.v.U.v.8.v.I.v.0.0.q.v.C.C.c.X.^ z.f.f.2.H.f.s.H.S.O.s.k.y x ] h.V.N C.G.:.g.j.J.d.g.g.Q.(. XR.e.U._.U.~.! z.,.c.z.b.x.U.N.`.'.6.K b.N.5.;.z.C.",
"J 9.>.#.0.v.U.U.q.v.C.0.#.>.V.U.b.c.] ~ z.2.B.N.G.f.2.B.f.E o.J.O. .N.Z.~.K  X9XqX$Xj.J.S.n.a.x.R.;X_.Y..X=X=XwXM +.b.P.x.V.9.z.Q.`.C.:.' Z X.c.f.z.z.",
"q / #.q.~.U.I.e.q.9.e.e.>.0.I.v.1.0.D S } K 0.e.4.5.f.2.X.E | B.@XOXOX(.~.H `.6X1X+XH.F.p.!.*XW.{.;X4X.X,X4X5X4Xp +.W.P.x.~.C.3.G.(.Q.C.h.A ~ c.h.4.4.",
"v &.8.v.~.U.v.3.9.%.9.9.&.<.w.>.q.C.%.[ *.J w.V.1.3.4.1.4.| E o.#X>X>X_._.P R. X%X*X#XoXS.1XqXC.(.E.|.|._.;X,XT.M J v.,.3.&X`.1.-.z.C.H.H.C.X.-.B.B.b.",
"#.v.0.0.I.I.V.I.0.0.r.9.%.&.3.9.%.r.3.<.e.$.w.I.e.%.[ %.b.1.Y ] D.*X1X,X7X3.XX=X-X9XD.S.OX2XS.4./.<.9.|. XXX=X=X/ q.^.z.0.&X0X Xb.;.{ 1.B.Q.{ R C.C.Z.",
"/ v.v.v.U.I.V.e.I.U.I.e.e.e.e.I.H H K L e.<.*.7.I.<.9.9.b.h.] X.2.D.`. X7X*.R.{.x.Q.f.j.c.f.1.W.7X/.m.E..X].U. Xb ,.~.0.[ #._.+X-Xf.T ( b.2.;.D 2.2.1.",
"/ I.v.0.0.q.v.e.0.r.8.>.m.e.3.r.*.[ [ @.T.I.9.9.7.9.I.3.%.4.{ { { 2.x.U..XP 9.U.U.f.h.^.S.D.Z.Y.;XuX/.$.T.=XI.q.H z.Q.B.4.~ C.).oXF.f.o.!.f.).N { ] { ",
"! W.P.0.P.P.P.z.8.0.8.( 0.,.[ 1.;.I.%.b.0.r.q./ 8.8.v.9.#.q./ ! X.' 0.C.U.N Q.Q.OX^.B.S.D.F.OXOX X,X/.$.Y.C.q.:.f N.@XOX2.W B.i.t.t.t.u.S.J.h.:.{ 1.4.",
"/ P.z.z.z.,.&.,.z.,.>.N ~ ~ ' :.z.+.#.9.=X9.v.#.=.,.9.v.9.0./ / #.[ x.T.&XM f.D.B.s.OXj.g.H.j.@XwX:X:XM.Z. X(.C.j h.#XH.O.W ` t.Q t.u.S.J.S.5.} #.;.1.",
"V %.,.8.8.+.+.&.z.0.q.J D Y D D ,.9.9.( ,.8.0.,.q.v.q.v.,.@./ / 0.J >.~ #.p z.^.c.f.:.-.s.S.D.G.:X/.:X/.' M.0.G.B :.OXB.O.` i.J.` t.t.u.S.G.B.h.1.q.V.",
"c #.0.z.&.! ! +.z.8.v.=.~ V V N i #.+.i i >.U.`.~.[.v.U.v.v.~.U.U.~.@.3.4.2 4.:.z.H.D.H.H.n.F.B.(.:XuX,X%.v.C.&Xg X.H.H.B.2.O.` t.t.` ` k.H.(.C.3.b.Q.",
"V #./ v 0 0 G G M i G C v p N ] V g c = V v P +.%.>./ L @.#.e.>./ @.K J V + 6 #.;.M B 7 s  .| g.1.m.M.3.6.*.q.#.u ( D A z z z f Q U U U  .2.;.K J ( #.",
"& w v v i i c i M e i 4 4 % % 4 0 3 1 i #.L v H L / K S / / #.n e < H q . o H #.b.2.4. . .X.Y D ' <._ Z 6.L 0.V > ~ k l z j x $ ; y t t p l v r e & . ",
"r.8.&.@.7.v.XXXXz.0.P.P.%X~.U.}.q.&X>.XX~.=X9.v.e.0.v.0.T.~.~.T.I..XXX.Xe.n pXb.>.}.&X@XD.h.*XqX;X/.|./.XXr.8X Xb.wX<XB.B.S.S.2.n.oX$X!.!.&X}.~.eX}.3.",
"q.>.#.q.P.z.b.+.J G C U z.0.( ,.,.I.H { q.9.,.9.e.#.>.J @.*.9.V.V.9.I.$.tXL [ v.C.3.b.-.f.!.c.S.'.$.A.m.<.@.XX,XP }.1XN.N.H.S.N.p.j.c.f.f.c.,.P U.v.v.",
"n +.9.P.P.#.+.>./ >.>./ v.9.+.9.+.9.i / v.U.~.v.v.0.v.>.>.@.0.V.{.V.3.E.H L $.w.q.b.b.=.a.f.U p.6XE.m.<.e.{.E.4X+.U.v.%Xb.^.+XQ.f.2.c.S.,.=.,.;.q.v.1.",
"8.&.+.&.8.#.#.8./ 3.U.q.v.,.=.v.>.b.H %.>.L %.v.e.e.V.>.%.[ v._.I.R.m.I.*.[ L e.v.0.v.:.) p.-.^ N.tX4XI.*.r.XXI.+.W.W.W.;.3.W.D.D.f.D.Q.Q.0./ x.#.4.<.",
"+.&.P c m H L #.@.#.q.>.0.>.8.z.0.I.H $.q.e.I.V.R.T.(.V.e.$.>.r.w.R.Y.T./.e w T.R.z.z.z.) ..a.T q.Y.;X|.L.I.e.7.G %Xv.8.Q.V.4.4.h.1.N.B.+XB.S v.1.0.1.",
"P +.+.G n H J / >.J >.>.e.q.v.8.L *.J %.%.9.e.e.e.0.w.r.v.3.*.@.q.C.0.9./.1 9 r.W.^.z.D.n.) y.y.Z./.4XR.I.R.P o G 0.q.v.V.C.B.D b.c.4.R ;.4.;.z.q.C.1.",
"L.7.@.*.8.@.L %.[ S q.V.P.0.0.&.%.K n V.R.w.r.R.I.e.w.9.V.q.w.3.5.5.1.S 6.m @.L 0.~.c.!.n.y.l.a.Z 6.6./._.E./.w n T.Y.q.4.3.C.q.} B.N.C.N.h.5.Z 4.Z.C.",
"L.P.L.*.*.8.9.e.0./ 0.v.P.0.8.@.%.S w 9.Y.U.q.q.T.Y._.T./.e.V.e.5.5.5.K K w 3.[ / z.c.n.y.a.K.) `.A.m.;X;XE.,X;X@.T.,X X#.1.'.C.5.B.2.B.5.1.B.] F N.(.",
"7.E.].w.*.9.v.T.=X0.0.r.W.P.q.r.r.r.%.9.$.3.9.q.%.*.V.C.(.I.V.V.N.N.5.x.H , @.3./ ;.-.:.) a.l.t.'.A.w.[ $.M.V.m.J _.R./.N.M.q.6.2.N.6.B.N.X.o.1.Z } X.",
"7.&.7.I.I.[ L e.].r.v.q.b.8.8.e.9.@.H [ K %.3.v.v.q.e.w.R.I.Y.e.C.Z.5.V.[ c %.#.>.,.! ( l.y.t.l.'.|.$.Y.R.$.3.@.n R.V.(.N.N.6.N.A.'.G.h.N.1.' 2.N.1.F ",
"P 7.&.7.w.7.w.L.e.9.8X].I.e.&.9.w.$.I _ %.N / z.,.W.[.E._.|.Y.9.%.Y.1.4.R.[ 3.q.L 3.[ [ x.;.R 1.;XA./.Y.e.9.m.*.n 9.V./.(.A.N.' `.).B.G.h.] R h.D.2.2.",
"L.L.&.7.L G @.w.e.w.7X{.L.9._ <.<.6.F _ 4.#.#.( ( =.,.v.(.;X_.A.3.[ H 0.C.#.R.q.;.[ #.1.>.;.%.[ 1.<.(.R.m.r.9.G d Y.V.M.6.6.M.' :.f.f.G.c.{ R h.j.2.2.",
"E.w.7.w._ n +.7.&.$..XE.r.7._ 7.[ <.I K 3.#.( V G M u c <./.|.;X(.3.F [ #.K N.%.1.L ' #.L #.N.e.$.} 6.3.V.V.Y.<.P U.H L <.M.6.F D 2.f.D.h.~ B c.H.G.J.",
"e.L.L.R.I._ +.7.&.&.].I.w.L.9.e.<.<.P [ 3.[ [ #.C / #./ _ [ M.|.T. Xe.L @.' v.e.3.e.<.~ L J [ V.6.<.3.w.{._.~.w.m w.g S Z Z Z F D :.;.1.X.R x ] A.J.N.",
"L w.&.&.e.*.@.9.9.$.w.r.7.e.7.<.$.$.I K ,./ ! J ! / / L L K _ 6.%.T.U.[ L b [ [ q.I.e.1.%.[ L #.1.6.M.1.M.M.6.J n V.S $.[ K Z L  .h.;.2.B.D.' Y o.M.X.",
"H L.8.$.w.7.@.*.9.&.&.*.@.7.@.+.I L d I >.8.#.M +.! V V / @._ [ <.[ 1.*.V g [ S v.1.3.3.[ / [ b K 1.A.$.[ 6.w.H w q.#.%.6.m.<.L ^ 1.1.B.Z.).2.~ | B.1.",
"P v.R.E.v.<.@.H r.7.*.<.+.$.@.+.K P e v >.9.8./ ! &.9.>.@.H I I L j K L b Z e.>.T.V.e.3.[ [ L S d j } } 1.6.5.j , 3.Q.e.9.V.Z.(.4.4.4.Z.C.).D.2.Z 1.Z ",
"# e $.e.&.&.r./ *.*.%.&.n H I I m 9 . @ e 0 g v i 0 2 : 9 w 6 1 # = , @ = > g u @ g w 3 j q , j 8 X O , d d h - @ w L v v K L 1.B.N 7 l D :.' j 8 z ; ",
"m / H @.9.L / %.&.9.V.%.n n V $.&.$.: w H G e v G i e c I H m d w S L b g > %.1.[ %.3.#.4.L [ 5.1.5.D j 1.5.N.8 O h u Z #.( >.%.N.B.} { 1.:.1.:.' 1.j ",
"].{.9.*.R.XXU.0._.|.XXe.$.&.7.I.I..X+.P L L L %.L *.0.e.w.r.$.K *.q.q.#.~ h *.9.V.V.V.q.w.%.%.1.x.1.F F ] ' 6.} 8 1.#.#.q.3.q.>.G.'.Z.4.} ;.C.(.:.5.D ",
"9.q.>.>.I.~.8.+.%.>.0.&./ / / @.$.e.H m I G _ w.&.[ @.*.9.$.*.e.*.e.v.[ b 0 S 3.V.V.e.9.' L ~ [ 1.{ 1.h.5.R ' ' , ' ' ] ,.#.#.{ } 5.N.5.{ F X.4.D ' J ",
"g v @.>.q.0.P / $.=.r.q.q.9.#.@.7.7.m n L n P *.&.L @.e.R.I.w.m.4.V.Y.>.S h J Y.=X_.Z.U.>.e.V.v.v.;.5.;.} { ] D 8 F ~ 1.b.4.0.v.%.2.N.'.T.5.6.1.Z S S ",
">.J P V L 9.>.q.&.%.#.#.@.#.@.@.9.$.w n %.P L &.L 9.r.9.e.Y.r.L 1.;.%./ S b S #.R.4.[ 3.,.R.R.C.b.;.4.=.:.4.5.R 8 A A ' 4.;.;.q.1.1.5.Z.T.C.V.#.K D L ",
"L / &.( >.v.>.L ;.>.>.>.#.#.>.3.H P 6 w P @.<.<.e.Y.I.<.$.9.w.9.9.3.e.>.J I L [ q.%.[ 1.*.0.v.U.3.#.b.~.^.c.2.A 5 R ] Y  .4.,.4.6.C.T.T.A._.'.6.Z b [ ",
">.q.9.#.#.0.v.>.@.8.9.v.9.#.q.e.*.9.m P _ <.9.<.<.w.e.L.3.@.*.m.>.r.Y.4.S q %.[ %.%.>.>.1./ +.,.z.>.0.W.Z.1.6.j ; R X.F ~ 1.:.4.1.q.Z.Z.5.N.~.3.S v } ",
">.e.e.Q.U.q.q.K #.q.9.v.#./ >.q.m.3.g %.*.*.@.%.*.m.Y.I.q.9.q.r.V.q.V.[ b g V.} r.#.[ %.T.3./ / 0.=.#.z.5.X.h.f 8 ' 2.{ X.:.;.b.B.6.5.Z.5.;.C.V.' g S ",
"/ %.m./.e.1.<.} 1.%.v.e.;.[ / 3.3.v.g J >.=.J 9.#.>.x.U.I.q.1.3.} 4.3.#.I 8 ;.V.q.[ v.V.;.v.C.V 3.0.1.#.>.v.4.~ j f ;.B.x.4.:.5.c.2.N.2.2.1.f.X.~ ~ 2 ",
"e n [ } L L [ S #.[ %.@.;.3./ K 4.Y.b V / ;.! ( =.;.4.b.b.z.4.9.6.v.5.[ v , / 1.T.;.} ;.{ =.v.T.3.#.#.0.T.C.1.~ M N {  . .4.f.B.2.X.X.X.} 1.X.~ ,.4.f ",
"0 K $.J J $.#.#.3.3.%.[ q.Q.0.%.>.q.v J -.,.+./ { =.#.#.%.4.9.3.#.e.M.$.g = K 3.b.3.~ ( ;.} #.U.x.#.J [ 0.q.#.L j ~ 3.,.1.c.4.1.1.5.2.2.R { X.1.4.4.g ",
"b %.%.L [ *.1.9.<.q.} J 9.I.x.v.q.,.j } 0.=.! C ( / J C K %.3.5.@.1.5.} g - F 1.[ 1.[ [ 0.0.' ( V.q.@.J ' 3.1.~ g ~ ;.~ ~ :.1.4.5.h.h.5.~ { :.4.;.4.l ",
"g H P S H H Z [ #.;.K S %.3.3.V.#.[ 0 Z %.{ ! C ( / J D ~ ;.9.3.<.} %.L v 6 n ~ [ 1.%./ #.q.0.=.[ 0.q.@.[ %.#.V q D ] ( ' ' 1.C.c.1.1.;.4.2.1.~ ;.5.N ",
"d g b H L S b Z *.#.S L 3.;.>.9.S J , , V / / C =.#.{ { [ [ ' L L [ 3.[ c , v [ %.>.%./ J { 9.q.S / %.1.;.( N g 7 ~ { ;.} D ;.Z.Q.h.5.} 2.1.4.} F { i ",
"Z g m K K J L [ %.[ S / #.J ' / } %.6 - V C M M =.=.#.#.[ L J S I H 3.$.j : j $.#.*.;.@.J J / ,.[ L ~ *.1.~ j e q ~ A b h q D q.T.Z.C.5.%.;.b.N.z.C.' ",
"I d w g g I ' L #.#.L / D v ~ L L L > 6 +.~ / ,.+.+.{ #.#.[ L [ H v K S m 6 d I [ 0.>.( #.[ / #.1.K S / #.~ q % = V S V b u b / V.B.V.Z.5.N.h.4.#.,.N ",
"g d d S Z m j [ 3.%.[ L c J D L v n 3 0 L >.=./ +.f.,./ ,.0.H P 9.$.I I g , d d 0 n #.#.{ +./ >.#.1.%.#.#.D b g 3 L S [ } [ S Z K [ 1.e.m.C.T.T.4.0.D ",
"9 d d H H H S %.%.[ L D i V b b v n 3 > v C G v G ( +.P >.0./ @.3.%.H I d = d 9 3 v J H G V v V ~ [ K ~ [ J n g , S b D J I c v b Z L } #.%.1.>.b.C.[ ",
"@ - , d d g d I S b v g > 8 > , : < # . o + & % $ & 1 2 q S c e n m g e :   : : & < i 9 6 3 @ : , 2 & - 4 < = o O e 9 < w = < 2 < < w j j g c j b D u "
};
