/* XPM */
static char *_244c053a88842b9b6af41352a797564McZQU4pvnH9s6cUN[] = {
/* columns rows colors chars-per-pixel */
"75 75 224 2 ",
"   c #648D1A",
".  c #5E822A",
"X  c #668B26",
"o  c #658C25",
"O  c #62842C",
"+  c #668B2C",
"@  c #698E2C",
"#  c #6B9524",
"$  c #6F9B25",
"%  c #6C932B",
"&  c #6F992B",
"*  c #70972E",
"=  c #729A2D",
"-  c #648435",
";  c #688633",
":  c #678932",
">  c #6B8D34",
",  c #66833A",
"<  c #6A873A",
"1  c #6D8D3B",
"2  c #718F3E",
"3  c #6D9233",
"4  c #6E913B",
"5  c #719334",
"6  c #759A34",
"7  c #72933C",
"8  c #79943A",
"9  c #76983C",
"0  c #799B3C",
"q  c #6B8744",
"w  c #6E8B44",
"e  c #6E8A4A",
"r  c #718E44",
"t  c #738D4B",
"y  c #798E48",
"u  c #6F9041",
"i  c #759344",
"p  c #789644",
"a  c #799845",
"s  c #75924B",
"d  c #7A954C",
"f  c #7D9A4C",
"g  c #768D52",
"h  c #798E5A",
"j  c #779251",
"k  c #7B9553",
"l  c #7E9952",
"z  c #7E955A",
"x  c #7E9858",
"c  c #7F9460",
"v  c #A4971F",
"b  c #838D37",
"n  c #9B9B3B",
"m  c #B09A2E",
"M  c #B19D3E",
"N  c #8EA129",
"B  c #B4AF25",
"V  c #B0B026",
"C  c #AFA935",
"Z  c #D49E16",
"A  c #E59D1E",
"S  c #DAA60C",
"D  c #D4A61D",
"F  c #D8B51C",
"G  c #E5A808",
"H  c #E6AC0B",
"J  c #E7B00B",
"K  c #EAB609",
"L  c #ECBB09",
"P  c #F0BF0E",
"I  c #E4AD11",
"U  c #E6A21C",
"Y  c #E8A41E",
"T  c #EBAC1C",
"R  c #E4B512",
"E  c #ECB413",
"W  c #E3B41C",
"Q  c #EFB31C",
"!  c #F1BC15",
"~  c #F0B51D",
"^  c #F1BC1C",
"/  c #E59D23",
"(  c #DAA726",
")  c #D8A52A",
"_  c #DAB72A",
"`  c #C9A335",
"'  c #D2A43A",
"]  c #D9B93C",
"[  c #E9A824",
"{  c #E5B223",
"}  c #F0B623",
"|  c #F2BB27",
" . c #F0B628",
".. c #F1BB2C",
"X. c #EAAE30",
"o. c #EFBA39",
"O. c #F2BD32",
"+. c #F1BD39",
"@. c #EFC009",
"#. c #EDC90C",
"$. c #F1C50B",
"%. c #F4CC08",
"&. c #ECC514",
"*. c #ECC81D",
"=. c #F1C113",
"-. c #F4CC13",
";. c #F2C21D",
":. c #F5CD1B",
">. c #F6D11C",
",. c #DFC13B",
"<. c #E8C725",
"1. c #E8C32B",
"2. c #F2C62A",
"3. c #F6D123",
"4. c #F7D32B",
"5. c #F8D42F",
"6. c #E3C431",
"7. c #F3C331",
"8. c #F5CC34",
"9. c #F3C43D",
"0. c #F5CC3B",
"q. c #F6D234",
"w. c #F8D533",
"e. c #F5D13A",
"r. c #F9D73D",
"t. c #82994B",
"y. c #809754",
"u. c #819A55",
"i. c #81965D",
"p. c #839B5B",
"a. c #8C9E58",
"s. c #959E59",
"d. c #A49D53",
"f. c #88A15D",
"g. c #98A05B",
"h. c #ADA954",
"j. c #839664",
"k. c #859A63",
"l. c #899D65",
"z. c #85966B",
"x. c #89976C",
"c. c #86996A",
"v. c #8A9C6C",
"b. c #959F69",
"n. c #869971",
"m. c #8D9D73",
"M. c #8E9D79",
"N. c #909F75",
"B. c #919E7C",
"V. c #8AA166",
"C. c #8CA06B",
"Z. c #97A26A",
"A. c #8EA173",
"S. c #91A276",
"D. c #93A27C",
"F. c #9CA479",
"G. c #A3A76F",
"H. c #CFAF4B",
"J. c #CCA957",
"K. c #C8A75B",
"L. c #D6BD52",
"P. c #EBAF44",
"I. c #EDB443",
"U. c #EFB943",
"Y. c #F1BE41",
"T. c #CCBB6A",
"R. c #D1B966",
"E. c #C2AB74",
"W. c #C5B779",
"Q. c #DCC242",
"!. c #DDC45C",
"~. c #E5C545",
"^. c #F4C441",
"/. c #F5C847",
"(. c #F6CA4B",
"). c #FAD946",
"_. c #F9D548",
"`. c #F5CA59",
"'. c #F8D453",
"]. c #FADA52",
"[. c #F8D358",
"{. c #FADA5B",
"}. c #F6CC65",
"|. c #FBDA62",
" X c #F8D46D",
".X c #FBDB69",
"XX c #F8D476",
"oX c #FCDF70",
"OX c #FADA7E",
"+X c #949E83",
"@X c #949E89",
"#X c #96A283",
"$X c #99A485",
"%X c #9DA887",
"&X c #97A18B",
"*X c #9BA48B",
"=X c #9EA88E",
"-X c #9EA593",
";X c #9FA892",
":X c #BCAC88",
">X c #A0A695",
",X c #A1A994",
"<X c #A2A79A",
"1X c #A5AA9C",
"2X c #A9AC9E",
"3X c #B8AC92",
"4X c #B6AF9E",
"5X c #BAB496",
"6X c #BAB29C",
"7X c #A6ABA1",
"8X c #AAACA4",
"9X c #A8A7A8",
"0X c #AEAEAE",
"qX c #B2AFA6",
"wX c #B0AFAE",
"eX c #AFB0AE",
"rX c #B5B1A5",
"tX c #B9B2A2",
"yX c #B1B0AF",
"uX c #AFAFB0",
"iX c #B0AFB0",
"pX c #AFB0B0",
"aX c #B1B1B1",
"sX c #C2B785",
/* pixels */
"i 4 4 3 > @ @ & u.yXyXaXaXaX0Xx 7XaXaXaXaXaXv.% p.u.u.i.d k k h h z z h z > f 0XyXaXyX0XyX4 D.aXeXaXaXeX=X# 0 k k k t d i 7 1 3 > > + 5 # *X0XaXaXaXaX",
"1X<X<X>X,X-X-Xf p.yX0X0XaXaX8Xk 1XaXaXaXaXaXD.d 0X8X8X0X8X8X8XwX0XiX0X9XuXk.r 8XyXaXaXaX0X2 D.aXeXeXaXaX,X+ *X8XwX8X8X7X2X<X<X>X,X-X*X=X+ -XwX0XaXaXaX",
"yXaXaXyXyX0XyXk j.aXeX0X0XiX0Xx 7XaXaXaXaX0Xm.s wXaXiXwXwX0XaXaXiXiXuXiXpX#Xs 0XyXaXpXaXeXd D.aXuXaX8XaX-Xr iXiXiXaXiXaXaXyXaXaX0XwXwX7X+ ,XwX0X0XiXyX",
"0XeXpXyXaXyXyX7 p.aXaX0X0X0X7Xs 2XaXaXaXaXaXm.s aXaXuXaXaXiXwXaXiXiX0X0XeXA.i 9X9XaXuXaXaXl D.aXpXuXuXaX*Xe wX0XaXaXaXwX0X0XyXaXuXiXwX-X@ >XyXaX0X0X0X",
"aX0X0XaXaXaXiX1 p.aXaXiXuXaX7Xd >X0XaXaXaX9Xk.w yXaXaX0XwXaXaXaXuXaXaXaXuXi.1 0XwXaXaX9X0Xd D.pXaX0X0XuX*Xr wX0XaX0XaXaXaXaX9XaXaXaXyX@Xo =XyXaX0XuXaX",
"aXaXwXyXaXaXuX9 p.aXaXaX0XuX8Xp *XuXiXpXpXeXc s pX0XaXiXaXaXyXaXaXaX0XwXpXj.< 7XwXaXpX0X0Xr $XuXiX0XaX0X&Xs iX0X0X0X0X0XyXaXaXaXyXyXaX*X@ ,XaXaXuX0XaX",
"aXaXyXyXyX0X8X6 u.aXiXiXiXiX8Xs #XuXpXpXaXeXi i aX0XaXaXaXiXiXaXuX0XiXiXaXp.7 0XeXaXaXaXiXr #XuXpX0X8X0X&Xt iXiX0XuXwXwXaXaXaXaXyXyX0X+X* %XaXiXiXuXiX",
"7 i p 2 : ; > # $ ; r t d d 1 + 4 s w - O . # 6 f s i r r p d d f d i i p # & d d i s i 7 # o o > + > 1 3 # 1 i i d r 2 5 7 d 7 > ; ; % $ % < t k d t ",
"3 C.$X#X#XB.D.6 * N.#X$X$X&X%X*X*X*X$X$XB.m.9 7 m.m.A.D.D.m.# 7 z z j.c.D.f 6 C.A.A.c.z.A.D.#X#X%XD.D.#Xk.o m.D.$X%X$XD.3 x %X#X#XB.D.l.# f #X$X%X&X$X",
"4 1XyXaXaXaX0Xj.k wXwXuXaXaXiXaXaX0XuXuXuXaXk.r yX0XwX0X0X0Xi 1XiXiXyXyXpXv.a pXaXaX0X0XaXaXaXaXaXpXeXaX-X< wXaX0X0XeX0X4 M.aXyXaXaX0XeX> %XaXuXiXuX0X",
"i 7XaXaX0X0XaXc.z.0XaXaX0XaXaXiX0XaXpX0X0XaXc.s yX0X0XpXaXiXk 8XuX0XaXiXuXD.7 8XpXpXpXpXaXaXaXaXaXpXiXaX*X< pXaXaXaXaX0Xu #XyXaXaX0XaXaXt -XuXaXaX0XaX",
"f 8XuXiXaXaXaXz.z.iXaXaX0X0XaXaX0XiXaXaXpXaXc.e aXyXaXaXuXuXk 8XiXaXaXwXeXD.d 0XaXaXaXaXaXaXpXaXaXaXuXaX%X, 0XaXaXaXaXyXi =XeXeXaXaXaXaXe -XaXaX0X0XiX",
"l 8X0XuXaXaXaXn.z.0X0XpX0XuXaXaXyXaX0XaXaXpXm.s yXwXuXiXiXiXw 7X0XiXuXaXaXm.p.0X0XaXpXpXpXaXaXaXaXaXiXaX#Xs 0XpXaXaX0X8X7 ,X0X0XuXaXaXaXe ,X0XaXiX0XaX",
"i <X0XaXpXaXaXc.z.0XuXuXuXwXuXaXyXyXaXaXaXaXA.i 0X0XaXaX0X0X7 0XiXiXaXaXuX#Xl.yXiXaXpXpXaXpXaXaXuX0XaXaX$Xj uXpX0XaXaXeX3 B.yX0XaXaXaXaXq -XyXeXaX0X0X",
"w <XeXaXaXaXpXc.j.<X7X8X8X7X<X1X2X1X1X,X,X,Xl.7 0XaXaX0XiX0Xi wXiXiXiX0XuX&Xi 1X2XrX7X8X7X7X2X-X-X*X>X>XM.k 0XaXpX0X0X8X4 M.wXaXpXaXuXeXt #X1X7X8X7X7X",
"i 1X0XaXpXuXuXk.> i t k x k k f a a f a i f 9 a 0X0XaXuX0XwXw 8X0XiXiXaXpX#X@ k j k d d f k k d t d k i 7 f 0XaXaXaXyX7X> B.yX0XaXaX0X0X3 i t j x k k ",
"9 1XaXaXaX0XaXi.x 7X7X8XeX8X8X7X1X1X1X7X7X8XA.l pXaXaXaXaXpXt 1X8X0XeXyXpXm.s eX0X8X8X8X1X2X7X8X8XwX0X1XM.s 8XpXaXaXaX7X6 D.0XaXaXaXaXeX> $X7X8XeX8X8X",
"7 <XaXaXaXpX0Xx j.pXpXaXpXpXaXaXiXiX0XuXuXiXS.i 0X0XaXaXaXpXz 2XaXeXaXyXuX#Xl.0XpXaXiX0XaXaXaXaX0X0XiXiX*Xt pXaXaXaXaX8X3 B.0XaXaXaXpX0X> -XeXaXeXeXpX",
"t 7XwX0X0XaXwXp.l.aXeXaXpX0XpX0XaXiX0X0XaXaXS.i 0XpX0XuXaXaXk 1XuXaXyXyXpX#Xd wXpXuXyXyXaXaXaXaXiXaXaXaX$Xt aX9XaXuXaXeX< *XyX0XeXaXeXeX1 >XeXaXaXpXpX",
"g eXaXaXaXaX0Xk.A.aXaXaXaXaX0XaXaXaXaX0XaXaXS.7 eXuXaXwXpX0Xj 0XrXW.L.,.6._ F ] J.:XyXaXaXpXwXyXpXaXaX0X$Xi pX0XpX0XaXaXq >XaXaXaXaXyXeXs 1XpXaXaXaXpX",
"g 8XaXaXaXaXaXp.m.0XyXwXiXaXaXaXaXeX0XeXaXaXA.p eX0X0XiXeXtXC 1.-.%.%.%.%.%.%.%.%.%.&.] E.yX0XyX0X0XaXiX*Xt aXaXuXuXaXeXg -XaXaXyXaXaXyXi <XyXwXaXaXaX",
"s 7XaXaXaXaXaXp.j.0X0X0XaXaX0XpXaXaXaXyXyXaXC.3 rXyXiXtXL.%.%.%.%.%.%.%.%.%.%.%.%.%.%.%.%.W E.qXaXuXiXiX>X7 aX0XuX0XiXeXz #XyXaXaXeXaXeX1 -X0X0XyXaXiX",
"> k.l.l.v.l.p.6 9 k.x.x.x.v.v.c.k.j.k.v.S.v.a # f.f.h.<.%.%.%.%.%.%.%.%.%.%.%.%.%.%.%.%.%.3.2.] d.l.v.l.p.9 C.l.v.l.l.l.4 f C.l.v.v.p.d % l z.x.v.x.v.",
"V.f.p.x p.V.V.5 9 j.k.j.j.k.p.% i x j.k.k.C.a 0 t.V %.%.%.%.%.%.%.%.%.%.%.%.%.%.%.%.%.%.3.w.w.q._ n k.p.t.6 f.u.p.u.l.C.l.f.p.u.y.V.V.k.# l j.j.j.j.l.",
"yXyXyXeX0XeXuXf.p.yX0XwXaXwX2Xu.7XiXiXaXeXaXC.t.6.%.%.%.%.%.%.%.$.E T U A A A A U E $.3.w.w.w.w.w.1.J.yX&Xj yXyX0X8XaX0X0XyXyXuXpX0XuX0X3 ,XwX0XaXwXwX",
"yXyXaX0XeXpXaXp.l.0X0X0XaXaX7Xt.1XiXiXwXpXpXZ.B %.%.%.%.%.%.$.E T T T T T ~ T U Y / X.9.w.w.w.w.w.w.1.:X#Xs eXaX0X0X0XuXaXyXaX0XaXpXaXeX3 *XwX0XwXaXiX",
"iXaX0X0XpXaXaXf v.wXwXwXaXaX7Xr ,XaXaX0XpXpXL.%.%.%.%.%.%.$.Q Q Q T ~ ~ ~ ~ ~ ~ } +.Y.I.I.8.w.w.w.w.w.{ d.s aXaXaXaXaX0XyXuXuX0XpXpXaX8X1 >XaXeXaXaXaX",
"0XuXaXuXpXeXpXl l eXpXaXaXaX8Xt ,XaXiX0XeX5X&.%.%.%.%.%.! ~ E ! ! ! ! ! ! ! ! ^ 7.0.0.^.Y.P.0.w.w.w.q.4.D y eXaXaXiX0X0XaX0XaXaX0XpXpX7XX %XeXaXaXaXaX",
"aXaXpX9XaXaXpXl u.eXeXpXaXpX8Xk 7XiXiXaXyX6.%.%.%.%.%.^ ~ Q %.%.%.%.%.%.%.%.%.4.w.w.w.^.^.Y.I.0.w.w.w.w.| v pXaXaX0XpXuXpXaXaX0X0XpXpX8X@ =XpX0XaXaXaX",
"iXaXpXpXaXpXpXl u.eXeXiX0X0X8Xx 8X0XaXaXsX%.%.%.%.%.;.Q ~ E %.%.%.%.%.%.%.%.4.w.w.w.q.Y.^.^.I.I.w.w.w.w.4.I 2XaXaXiXiXpXiXaXaXuXaXaXpX8Xo =XeXaXaX0XaX",
"> ; > @ 3 @ 3 # p.eXyXaXaXiX0Xx 7XaXaXaXQ.%.%.%.%.-.~ ~ ~ Q %.%.%.%.%.%.%.4. XOXOXOXOX`.^.^.^.P.+.w.w.4.-.L v 1 7 1 > 1 : : > : > + 3 3 # *XeXaXaXaXaX",
"0X7X2X2X<X-X#Xl x yX0XaXaXaX8Xk 1XaXaXrX%.%.%.%.>.| ~ ~ Q Q `.[.0.=.%.-.5.w.q.9.^.^.Y.^.^.^.^.^.P.8.w.%.%.%.) 0XiXiXeXyXyX8X7X2X1X<X+X$X+ ;XyXiXaXaXiX",
"yXaXaX0XwX0XiXf j.yX0X0X0XaX8Xx 2XaXaXT.%.%.%.%.7.~ Q Q Q ~ +.^.Y.[ ;.4.w.w.q.9.9.^.^.^.^.^.^.^.U.O.-.%.%.%.J 4XyXaXwXaXyXiXaXyX0XwXyX7X: >XwX0XwXaXaX",
"0XwXaX0XaXaXuXp l.yXwX0XiX0X7Xk 7XaXaX,.%.%.%.-...Q Q Q Q ~ ! $.=.^ 8.w.w.w.w.8.0.0.0.9.^.^.^.^.+.[ $.%.%.%.K E.yXyXaX0X0X0XyXaXuXaXaX-X% >XyXwX0X0X0X",
"iX0X0XaXaXaXyX1 u.yXaXaXaXaX8Xd ;XuXrX<.%.%.%.5.~ ~ Q Q Q Q %.%.>.5.w.w.w.w.w.w.w.w.q.^.^.^.9.7.~ A P %.%.%.L ' aXiXiXaXaXaX9XaXaXaXiX@Xo -XwXaX0XaXuX",
"0XiX0XaXaXaXeX7 p.yXaXaX0XuX7Xi *XpX6X:.%.%.-.e.~ ~ Q Q Q Q 0./.'.].w.w.w.w.e.'.{.{.{.Y.^.^.O.} ~ U E %.%.%.#.) rXiX0XaX0XaXwXaXaXiXiX*X@ =XyXaXuX0XiX",
"aXaXaXaX0X0X0X9 p.aXaXaXwXiX8Xd +XiX5X*.%.%.>.e.Q Q Q Q ~ ~ (.|.'._.w.w.w.w.Y.}. XXX X`.^...~ Q ~ A E %.%.%.%.A qXaX0X0XiXaXaXaXaX0X0X&X% =XaXaXeX0XaX",
"p.k.k.p.k k k # = k k.c.v.v.k + s k.s.#.%.%.>./.Q Q Q Q ~ ..w.w.w.w.w.w.w.0.P.^.^.^.9.^.O.Q Q Q ~ Y K %.%.%.$.Z a.l.i.x x i.v.p.y.k k 9 $ p j.k.v.m.j.",
"% k.S.v.v.x.c.* * j.M.B.B.B.$X#X$X#XG.&.%.%.3._.Q Q Q Q ..9.w.w.w.w.q.q.9.P.Y.^.^.^.+...~ ~ Q Q ~ Y E %.%.%.$.Z b.D.D.m.% f S.N.n.x.v.f # 8 n.B.#XB.D.",
"7 1XaXiXiXwXwXu.d 8X0XwXaXiX0XaXiXeX6X*.%.%.:.(.Q Q ~ ..9.9.w.w.w.w.0.I.P.Y.^.^.^.9.O.~ Q Q Q Q ~ Y P %.%.%.$.( qXwX0X0X7 B.aXyXiXiXuXeX@ #XyXiXaXaXwX",
"i 1XaXaXaX0XaXz.c.0X0XaXaXuXiXeXuXaXrX<.%.%.>._.~ ~ ..^.^.^.9.w.w.w.q.9.^.^.^.^.^.| } Q Q Q Q Q Q T $.%.%.%.L ' aXiXeX0X1 D.aXaXaX0X0XaXt -X0XaXaXwXyX",
"k 8X0XuXaXwXaXc.z.eXaXaX0X0XaXpXpXaXaX,.%.%.%.).| O.^.^.^.^.U.9.w.w.w.8.9.^.^.9...~ Q Q T Q Q Q T E %.%.%.%.K K.aXaXaXyXi *XyXaXaXeXuXaXe ,XaXaX0X0XaX",
"f 8X0XuXaXaXaXn.z.0X0XpX0XaXaXiX0XaX0XW.%.%.%.w./.^.^.^.^.^.^.Y.0.w.w.w.0.^.9.| ~ ~ Q Q Q Q Q ~ T $.%.%.%.%.H sXaXaXiX0X7 *X0XuXaXaXaXaXe ,X0XuXuX0XyX",
"p <X0XaXaXaXaXz.z.0XeXuXaX0XaXaXaXaXaXyX-.%.%.4..X/.^.^.^.^.^.^.9.w.w.w.w.9. .Q ~ T Q Q Q Q Q ~ E %.%.%.%.%.D wXwXiXiX8X5 #X0XyXaXpXaXaXq -XiX0XaXiXyX",
"u 1XuXaXaXaXaXc.j.8XeXeX0XeX0X8X8X8X8X;X] %.4.w.|.[.^.^.^.^.^.^.^.9.w.w.w.-.Q Q ~ T Q Q Q Q ~ ~ %.%.%.%.%.L J.yXaX0X0X0X7 B.0X0XaXaXaXaXq -X8XuXeX0X8X",
"i 2X0XaXaXaXuXk.% . O 1 4 : : % + % 3 6 N 4.w.w.r..X/.^.^.^.^.^.^.^.w.5.-.%.! ~ ~ ~ Q Q Q Q ~ $.%.%.%.%.$.G 3XwX0XyXyX8X+ +XaXyXaXaXuX0X3 + O > i : : ",
"7 1XuXaXaXuXaXi.x ;X<X<X1X1X1X<X>X,X;X;X;X!.w.w.w.)..X/.^.^.^.^.^.^.O.-.%.%.%.! ~ Q Q Q Q ~ $.%.%.%.%.%.K m 0XaXaXaXaX7X5 D.yXuXaXpXuXeX3 D.-X<X1X1X1X",
"7 <XuXaXaXuXuXk c.eXeXaXuXeXaXyXaXeX0XpXpX6Xe.w.w.w.]..X/.^.^.^.^.9.[ @.%.-.-.;.Q Q Q Q ~ ! %.%.%.%.%.@.S b wXaXaXaXaX1X5 m.0XaXpXpXpXeX< ;XeXaXpXuXpX",
"t 7XaXyXwXaXpXp.k.eXeXaXaX0XaX0XaXaXaXaX0XaXT.5.w.w.w.].oX'.^.^.+. .Q o.XXXXXX}. .~ ~ ~ %.%.%.%.%.%.%.G h.r wX9XwXwXaXyX< *XaXeXaXaXaX0X> -XeXaXaXeXuX",
"g 8XaXeXaXaXaXj.C.yXaXaXaXyX0XpXaXaX0XuXaXaXF.V w.w.w.w.).{.{.(.| Q Q } O.O.O...} | 2.-.%.%.%.%.%.%.K J.F.w wX0X0X0XaXwXq >XaXeXaXaXaXeXi 1XyXaXaXaX0X",
"k 8XaXpXaXaXaXp.m.eXyXaXaXaXaXaXaXuX0X0XaXaXA.8 ~.w.w.w.w.w.).].'./.O.| } | 7.9.7.3.%.%.%.%.%.%.$.K ) qX=Xr iX0XwXuXiX0Xt >XaXaX0XaXpXeXd 1XpXaXaXaXaX",
"t 7XaXaXaXaXaXp.c.yXeX0XwXaXiXuXaXaXaXuX0XaXA.5 qXR.q.w.w.3.%.%.%.-.4.5.5.4.>.%.%.%.%.%.%.%.%.%.H K.qXiX>X2 iX0XiX0XiXiXz #XyXaXaXpXuX0X7 -X0X0X0XaXaX",
"1 D.=X%X$X#XA.9 f &X*X@X$X&X*X$X$XD.%X$X=X$Xu.# S.Z.C 6.3.%.%.%.%.%.%.%.%.%.%.%.%.%.%.%.%.%.L S M F.%X$XS.9 %X#X%X#X%X%Xi k.%X%X%X$XD.k.3 v.$X&X&X*X&X",
"f d i r f p.p.= 5 k i.k x i.k @ O e k k j.l.0 6 2 f p.s._ $.%.%.%.%.%.%.%.%.%.%.%.%.%.%.@.G ` s.p.y.k k i * d p i r k p.x f s r i x p.f # i z z u.k j.",
"wXyXyXaX0X0XuXp.p.yXwXyXwX0X1Xu.2XaXaXiX0XyXC.u.wXaXaXaXwXsXH.E $.%.%.%.%.%.%.%.$.P L J H.b >XaXwXwXiXaX%Xj yXeX0X0XyX0X0XeXyXwXaX0XyX8X5 ,XwXyXiXwXwX",
"aXaXyXwX0X0XiXp.i.yX9X0XyXyX2Xf 1XwXaX0XeXaXl.u.iXwXwXwXiXiXwXqXE.H.( W W R S T ( H.E.qXpXq <XiXwXiX0XaX+Xt 0XwX0X9X0X0XaXaXaX0XeX0XaXeX> *XyX9XiXiXiX",
"aXaXeXaXaXaXpXl v.yXyXaXaXaX7Xd ,XiXiX0XaXaXl.p.aXuX0XaX0X0XuXpXwXaXqX4X6Xs.g.4XyXyXaXaXyXw -XaXaXaXyXaX&Xs yXaXyXaXuX0XaXaX0XuXpXaXaX8X4 >XyXpXaXaXaX",
"pXaX0XeXaXeXpXd p.yXeXaXaXaX1Xw -XaXiX0XaXaXl.l 0X0XaXpX0X0XaXpXaXaXaXaXaXx p.yXwXaXyXaXyX3 %XaXaXpX0XpX%Xs yXaXaXaX0X0XuXaXaX0XuXpX0X7X+ ,XeXaXaXaXaX",
"0XaXaX9XeXyXpXl u.yXeXpXaXiX8Xk 7XyXiXaXaXaXl.l eXpXpXeXuXpXuX0XiX0X0XyXeXu.C.yXwXyXuXwX0Xo #X0X0XpXaXaX*Xw yXiXaXwXaXaXaXuXaX0X0XuXpX8Xo *XaXeXaXaXaX",
"0X0XeX9XeXeXeXf u.yXyXyXiX0X8Xx 7XwXaXaXiXuXl.d 1X7X7X7X7X7X8X8X0XwX0X8XeXf C.eXaXwX0XaX0Xo B.0XaXaXeXaX*X; 7X8X0X8X0X8X0X0XuX8X8XeXeX2X# *XaXaXaX0XaX",
"1 i 1 1 i p p % u.eX0XiXiXaX0Xx 7XaXaXiXiXiXl.# 7 % > : > ; 3 - , , w , , o u.0XaXaXaX0XeX% D.aXaXuXaX0X%X= 0 > 4 1 ; 2 1 1 i 4 7 i i 7 % %X0XaXaXaXaX",
"D.M.A.m.n.k.l.9 p.aXwXiXaXaX8Xk 1XaXaXaXaXiXm.i >X1X1X<X*X>X-X1X7X7X7X7X7Xl i 8X0XaXaXaXpX4 D.aX0X0X0XpX,XX v.>X,X,X$X&X#XM.m.v.m.z.k.l.@ -XyX0XaXaXaX",
"yXyXyXwX0XwXyXk i.yX0X0X0XiX8Xx 7XaXaXaXaXuXD.d yXaXeXyXwXwXiXaXiXiX9X0XpXA.t 0XwXaXaXaX0Xi D.aXpXuX0XaX*X2 iXaXaXaXwXyXyXyXaXyXwX0XyX8XO *X0X0X0XuXaX",
"wXuXyXwXaXyXyXi l.aXiX0X0X0X8Xk 7XaXaXaXaXuXm.s aXaXwXyXwXiXiXaXiXuXuXpXpXM.f 8X0XaXaXuXuXf #XaX0XuX0XaX*Xt iXiXaXaXiXwXwX0XaXaXuXwXyX,X3 >XyXiX0X0X0X",
"wX0X0XaXaXaXaX7 p.aXaXyXaXeX8Xd 1XpXpXaXaXeXv.r pXaXpX0XaXaXaXaXiXaX0XaXuXj.2 8X0XuXaX0XpXf D.iXuX0X0XuX*Xt pX0XaXpXaXaX0XaX9XaXaXaXpX&X@ ;XaXaX0XiXuX",
"0XaXyXaXaXaX0X4 p.eXaXaX0XaX8Xp *XuXaXaXaX9Xj.s 0XuXaXuXaXaXaXaXaXaXaXaXyXj.< 8XiXaXaX9X0Xi %X0XaX0XuX0X*Xs 0X9XuXuXuXaX0XaXaXaXaXaXpX&X+ =XyXaXwXaXaX",
"aXaXiXaXpX0X0X9 p.yXaXiX0XaX8Xp &X0XaXiXeX0Xx s aXpXaXaXaXaXaXaXwXuXiXiXaXk.1 8XyXpXaXaXpXw $X0XpX0X0X0X&Xt aXaXuX0X0XuX0XaXaXaXaXuX0X$X% =XaXaXiXwXiX",
"*X,X-X&X+X+X#X% p +X<X2X7X7X+X1 j.1X-X@X@XM.% 7 7X2X1X-X-X<X<X7X8X<X1X,X*Xp p <X7X2X7X1X*X1 k.+X#X+X&X$Xn.1 -X-X-X1X-X$X&X*X2X*X$X#X+Xj.# l.-X2X7X7X<X",
"# p y.u.k s k # % d k x z z p.l.l.k.z k t e % * 2 i i s k r # o + O O > d 6 $ i i 1 < - 7 f l f u.k s f i   i k x u.p.l o 7 x p.y.t f 9 $ 5 k z i.u.i.",
"4 -X0X8X8X8X7Xd 7 1X8XwX0X0X0X0X0X0X0X8X7X7Xk i 1X1X7X7X8X<X3 k.*X-X>X,X7Xl.9 <X2X1X<X-X2X7X7XeXeX8X7X0X#XO 1X8X8XeXeX7X7 v.8X8X8X9X8X>Xo C.8X0X0X0X0X",
"u 1XaXaXaXwXyXk.c.eXaXaXaXwXuXaX0XwXaX0XuXaXc.s 0X0X0X0XuXwXd 8XiX0XpXpXeXm.f eXpXpXpXpXpXaXaXaXyXaXaXaX*X< 0XiXaXaX0X0X4 D.aXaXaX0XaXyXw >X0X0XuXaX0X",
"f 7XyXiXaXaXaXz.z.yXaXaX0XwX0XaXaX0XaX0X0XiXc.r wX0XiXiXiXiXx 8XpXpXpXeXpX#X7 8XpXpXaXaXpXaXpXaXaXeXaXaX*X< wXiXaXaXaX0Xi $XyXuXaXuXaXaXt ,XaXaX0X0XaX",
"k 8X0XaXaXaXaXn.z.0X0XpX0XuXaXaXaXaXaXaXaXyXn.t wXiXuXyX0XaXt 7XaXaXaXuXiXA.p.eXaXaXaXaXaXaXaXaXaXaXaXaX#X1 uXuXuXpXaX0Xi =X0XwXiXaXaXaXe -X0XyX0X0XaX",
"p 7X0XeXuXaXaXc.z.0X0XaXiX0XaXpXaXaXaXaXaXaXS.s 0X0XaXaXaX0Xi 8XaXaXaXaXaXB.l.wXeXaXaXaXaXaXaXaXpX0XaXaX$Xj uXuXuXuXyX8X3 $XwXwXaXpXaXaXe -XwX0XaX0XuX",
"7 <X0XaXaXuXuXz.z.0XyXaX0XuX0XeXaXaXaXaXaXaXC.2 0X0XiXiXwX0X7 0XaXaXaXaXuX+Xi.aXaXaXaXaXaXaXaXaXaXeXaXaX$Xj 0XaX0XeXpX0X7 M.yX0XaXaXaXaXe -XyXpXaXuX0X"
};
