/* XPM */
static char *_a8585d289804ea6dd4043db22fe86981lKYgh2fVuDeZBhu[] = {
/* columns rows colors chars-per-pixel */
"75 75 220 2 ",
"   c #648D1A",
".  c #5E822A",
"X  c #678B26",
"o  c #658C25",
"O  c #62842C",
"+  c #668B2C",
"@  c #698E2C",
"#  c #6B9524",
"$  c #6F9A27",
"%  c #6D932C",
"&  c #70962F",
"*  c #729A2C",
"=  c #648435",
"-  c #688633",
";  c #678932",
":  c #6B8D34",
">  c #66833A",
",  c #6A873A",
"<  c #6D8D3B",
"1  c #718F3E",
"2  c #798E39",
"3  c #6D9233",
"4  c #6E913B",
"5  c #719334",
"6  c #759A34",
"7  c #72933C",
"8  c #76983C",
"9  c #799B3C",
"0  c #6B8744",
"q  c #6E8B44",
"w  c #6E8A4A",
"e  c #718E44",
"r  c #738D4B",
"t  c #6F9041",
"y  c #759344",
"u  c #789644",
"i  c #799845",
"p  c #75924B",
"a  c #7A954C",
"s  c #7D9A4C",
"d  c #768D52",
"f  c #798E59",
"g  c #779251",
"h  c #7B9553",
"j  c #7E9952",
"k  c #7E955A",
"l  c #7E9858",
"z  c #7F9460",
"x  c #8E9E1F",
"c  c #BA9A10",
"v  c #B9AD14",
"b  c #879639",
"n  c #959635",
"m  c #A19A30",
"M  c #9FA02E",
"N  c #ADA52C",
"B  c #A1A43A",
"V  c #BFB13B",
"C  c #DE9E0A",
"Z  c #DD9F16",
"A  c #E29E05",
"S  c #E19E0A",
"D  c #E69E1F",
"F  c #D4BC12",
"G  c #E4A506",
"H  c #E7AC07",
"J  c #ECB50C",
"K  c #EDBB09",
"L  c #E8A316",
"P  c #EAAD16",
"I  c #E8A51C",
"U  c #EBAC1C",
"Y  c #EDB514",
"T  c #EFB31C",
"R  c #F0BB16",
"E  c #F0B51C",
"W  c #F4BD19",
"Q  c #F8BC1D",
"!  c #E29729",
"~  c #D8A126",
"^  c #D6A02C",
"/  c #C3B525",
"(  c #CAA834",
")  c #D3B234",
"_  c #E8A721",
"`  c #EEB121",
"'  c #EDB22C",
"]  c #F0B622",
"[  c #F6B727",
"{  c #FBB526",
"}  c #F2BB2B",
"|  c #EAA931",
" . c #EEB83B",
".. c #F2BD32",
"X. c #F1B838",
"o. c #E9C50B",
"O. c #F2C50B",
"+. c #F4CC08",
"@. c #F4C316",
"#. c #F4CC13",
"$. c #F5CB1E",
"%. c #F6D01B",
"&. c #D9C024",
"*. c #DDC03D",
"=. c #EDCB2A",
"-. c #F6C428",
";. c #F6CF2B",
":. c #F6D124",
">. c #F7D22C",
",. c #F8D42E",
"<. c #E4C535",
"1. c #F4C333",
"2. c #F4CC36",
"3. c #F3C33C",
"4. c #F5CB3A",
"5. c #F7D235",
"6. c #F8D533",
"7. c #F6D33E",
"8. c #F9D63A",
"9. c #879842",
"0. c #839957",
"q. c #819A56",
"w. c #81965D",
"e. c #839B5B",
"r. c #AE9E54",
"t. c #99A148",
"y. c #88A15D",
"u. c #B2A951",
"i. c #839664",
"p. c #859A63",
"a. c #899D65",
"s. c #85966B",
"d. c #89976C",
"f. c #86996A",
"g. c #8A9C6C",
"h. c #939F65",
"j. c #869971",
"k. c #8D9D73",
"l. c #8E9D79",
"z. c #909F75",
"x. c #919E7C",
"c. c #8AA166",
"v. c #8CA06B",
"b. c #97A26A",
"n. c #8EA173",
"m. c #8FA07A",
"M. c #91A276",
"N. c #9AA574",
"B. c #93A27C",
"V. c #ABAE70",
"C. c #D7BD4D",
"Z. c #C7A755",
"A. c #DAAF5F",
"S. c #D2B254",
"D. c #D9B65B",
"F. c #EBAF43",
"G. c #EDB443",
"H. c #EAB645",
"J. c #F1BC43",
"K. c #C3A66A",
"L. c #C9B367",
"P. c #C2A971",
"I. c #C8B976",
"U. c #C5B67B",
"Y. c #DBC45F",
"T. c #E5C84D",
"R. c #F4C441",
"E. c #F4C64A",
"W. c #F9D643",
"Q. c #FAD843",
"!. c #F7D349",
"~. c #F5CB54",
"^. c #F3C45A",
"/. c #F6CA59",
"(. c #F9D35A",
"). c #F9D758",
"_. c #F4C567",
"`. c #FBDC63",
"'. c #F5D06B",
"]. c #FAD869",
"[. c #F4CA75",
"{. c #FADA7E",
"}. c #949E83",
"|. c #949E89",
" X c #96A283",
".X c #99A486",
"XX c #9DA887",
"oX c #97A18B",
"OX c #9BA48B",
"+X c #9EA88E",
"@X c #9EA593",
"#X c #9FA892",
"$X c #BBAA8B",
"%X c #A0A695",
"&X c #A1A994",
"*X c #A2A79A",
"=X c #A5AA9C",
"-X c #A8AB9F",
";X c #BAAE98",
":X c #BCB494",
">X c #A6ABA1",
",X c #AAACA4",
"<X c #A8A7A8",
"1X c #ADAEA9",
"2X c #ADADAD",
"3X c #AEAEAE",
"4X c #B0AFAE",
"5X c #AFB0AE",
"6X c #AFB0AF",
"7X c #B5B0A7",
"8X c #B1B0AF",
"9X c #B2B1AF",
"0X c #AFAFB0",
"qX c #B0AFB0",
"wX c #AFB0B0",
"eX c #B1B1B1",
"rX c #B2B1B1",
"tX c #C9B48F",
"yX c #EBC98C",
"uX c #F2CF8C",
/* pixels */
"y 4 4 3 : : @ $ 0.rX5XrXrXwX1Xl >XrXrX0XrX5Xg.% e.0.w.0.a h h f f z i.f k ; a 5X8X8X8X3X8X4 B.rX5XrXwX5XXX$ 7 h 0.g r a y 1 < 3 3 : + 3 # OX3XrXrX0XrX",
"=X*X*X%X%X+X+Xa e.8X3X3X3XrX,Xh =XrXwXrX0XrXB.p 1X,X<X1X,X>X,X4X3X4X<X1X3Xa.y ,X5XrXwXrX3X1 B.wX5X5X5XrX&X+ +X,X3X,X>X>X-X=X*X%X%X@X+XOX+ &X4X3XrX5X3X",
"8X8XrX5X8X3XrXa i.8X5X3X3X3X1Xl >XrXrXrXwX3Xk.a rX8XrX8X3X3X8XqXqXqX0X3XwX}.p 1X8XrXwXrX5Xp  XrX3XwX<XrX@Xe qXqX4XrXqXqX8X8XrX8X3X4X4X>X+ &X4X3X3XrXrX",
"3X3XrX8XwXrX5Xy e.rXrX3X3X3X>Xh =XwXrXrXrX3Xk.p 8XrX5XrXrXrX3XrXqX4X3X3X5Xk.i <X<XrX3XwXrXs B.rXrXwX5XrXoXr 4X3XqXrXrX4X3X3X8XrX3XqX4X@X@ %XrX4X3X3X3X",
"rX3X3XrXrXrXrX: 0.rXrXqX3XrX>Xa @X3XrXrXrX<Xp.q 5XrXrX1XwXrXrXrX3XrXrXrXwXk < 5X4XrXrX<X3Xu B.wXrX3X3X3XOXe 3X3XrX3X4XrX8XrX,X0XrXqXqXoXX +XrXrX3X3XrX",
"5XrX3XrXrX3XwX7 e.rXrXqX3X0X,Xu OX0X0XwXwXwXz p 5X3XrX3XwXrX8X8XwXwX3X4XwXi., ,X4XwX3X3XqXe OX3X3X3XwX3XoXp 4X3X3X3X3X3X8XrXrX0XrXrX3XoX+ &X8XrX3X3XrX",
"rXrXrX8X8X1X1X6 0.rXqXqXqX0X,Xp  X0X5XwXwX1Xy i wXrXrX8XrXqXqXrX0X3XqXqXrXe.4 1X5XrXrXqX0Xe .X0XwX1X2X0XoXr 0XrX3X3X4X3XrXrXrXwX4X4X5X X% XXrXqX0X0X0X",
"5 y y 1 ; - : # $ ; e r a a < + 4 p q = = . # * a p y e e y a a a a y y y % $ s a y p y 7 # o o : + : : 3 # < y y a y 1 : 7 a 7 : - + % $ % , e h a r ",
"% n..X X XB.B.5 % k. X.XOX.XOXOX+XOX.X Xx.k.8 7 n.k.M.z. Xk.$ 7 k w.i.p.B.s 6 v.n.n.f.s.k.B.B. X.XB.B.B.p.o k.B. XXX.X X3 l .X.X Xx.B.a.# s  X.XOX.X.X",
"4 *X8XwXrX8X5Xi.h 3X3X0XrX5X3XrX3X3X3X3X0XrXi.e 4X3X0X3X5X<Xy =XrXqXrXrXwXg.i wXwXrX3X5XrXwXrXrXrXwXwXrX@X, 4X3XrX3X0X1X4 l.8X5XwX0X0X3X: .X5X3XqX0X3X",
"y >XrXrX3X3XwXd.d.3XrXrX3XrXrXqX3XrX5X3X0XrXf.p rX3X3XrXrXrXh ,X3X3XqX4XwXB.7 1X0X5X3XrXwXrXwXwXrXrXwXrXOX, 5XrXrXwX0X1X4  X8XrXrX1X5XrXr *X3XrX5X0XrX",
"s ,X3X3XrXwXrXf.d.wXwXwX3X3XwX8X3XrXwX5X0XrXf.w 3X8X0XrX3X3Xh ,X0XrXwX0X0XB.a 3XwXrXwXrXwXrXrXrXwXrX8XrXOX> 3XrXrXrXrX5Xy +X5X5XrXwXrXrXw @XrXrX3X3X3X",
"j ,X3X3XwXrXrXj.s.3X3XwX3XrXrXrX8XrX8XrXrX0Xk.p 8X4XrX3XrXrXq >X3X0X3X0XrXk.e.1X3XrXwXwXwXrXrXwXrXwX5XrX}.p 3XwX5XrX3X1X5 &X1X3X0XrXrXwXw @X3XrXrX3XrX",
"y =X3XrXrXwXwXs.s.3X5XwX3X3X3X3XrXrXrXrXrXrXn.y 3X3X0XrX4X1X4 3XqXrXrXrX0X Xa.8XwX0XwXwXrXwXrXwX5X3XrXrXOXg wXwX3XwX3X1X4 }.8X3XwXwXrXrXw @X5XrX3X3X3X",
"q *X3XwXwXrXwXf.i.*X>X,X,X>X=X=X=X*X*X&X&X&Xa.7 3X3XrX3X4X3Xy 4XqXqXqX3X3XoXy *X-X7X-X,X>X>X=X*X@XOX%X%Xl.h 3XrX5X3X3X1X4 l.3XrX5XrXrX5Xe OX=X>X,X>X=X",
"7 =X3XrXrX3X0Xp.: y r h l h h a i i s i y s 8 i 5X3XrX3X3X1Xe <X2XqXrXrX0X X@ h g h a a a j a a r p h y 5 s 3XwXrXrXrX>X@ x.8X3XrXrX3X3X3 < r g l h h ",
"u =XwXrXrX3XrXw.l >X,X,X5X,X,X>X=X=X=X>X>X,Xn.j wXrXrXrXwXwXr >X3X0X0XwXwXm.a 5X3X,X,X,X=X-X>X,X,X4X1X>Xk.y 2XwXrXrXrX>X3 B.5XrXrXwXwX8X: .X>X,X5X,X,X",
"7 *X3XrX5XwX0Xh p.wXwXwX5XwXrXwXqX0X3X3X0XqXM.y 3XwXwX8XrXwXk -X3XwXwXwX5X Xp.wX3XrXrX3XwXrXrXwX3X0XqX4XOXr wXrXrXrXrX,X3 B.3X5XrXwXqX,X> #X5XrX5X3XwX",
"r >X8X5X3XwXqX0.p.rX5X3XwX3X0X3XqXqX3X3X8XrXM.y 3X3X4XqX0X5Xh =X3XrXwXwXwX Xg 5XwXwX8X5XrXwXwXwXrX0XrXrXOXr rX<X3X3XrX5X> +XrX3X5X5X5X5X4 *X5XwXwXwXwX",
"d 5X8XrXrXrXrXp.n.8XrXrXwXrX3XrXrX5XrX3XrXrXM.7 5X3XrX4XrX3Xg 1X4X$XP.P.P.u.B L.I.$X8XrXrXwX5X5X3XrXwX3XOXt 3X3X3X3XrXwX0 @XrX5XrXrX8X5Xi >X5XwXrXwXrX",
"d ,XrXrXrXrXrXe.k.4X4X8X3XrXrXrXwX0X3X0XrXrXv.y rX4XrXqX3XrXn ^ S S H K +.+.+.+.+.+.+.*.I.8X5XwX3X3XrX0X@Xq rXrX0X0XrX3Xd +XrX0X3XrXrX5Xy *X8XrXrX5XrX",
"g >XwXwXwXwXrXe.i.3X3X3XrX0X3XrXrXwXrXrX3XrXn.3 7X8XrXqX$X^ A A G J +.+.+.+.+.+.+.+.+.+.+.*.:X5XwXwXqX0X%X7 rX3X0X3XrX0Xk  XrXrXrX3XrX5X< @X1X3X4XqX4X",
": e.v.a.g.a.l 5 8 p.d.d.s.g.g.f.p.w.p.a.M.g.i $ 0.0.0.r.Z A A H O.+.+.+.+.+.+.+.+.+.+.+.+.+.<.L.a.p.g.p.e.6 v.a.d.a.a.a.4 a a.a.g.g.e.a % l s.d.g.d.g.",
"c.e.0.l 0.c.c.6 8 i.p.i.i.p.0.% p k e.a.i.g.i 9 0.0.m S A A G O.+.+.+.+.+.+.+.+.+.+.+.+.+.%.6.=.B a.a.e.j 6 y.0.e.q.c.c.v.y.e.0.0.a.c.e.$ j i.i.i.i.g.",
"8X8X8X8X3X3X3Xe.e.rX5X4XrX3X-X0.-XqXqXrX3XrXn.0.3XK.C A A G +.+.+.+.+.+.O.Y L I I I Y +.%.6.6.6.5.U.0XwXOXg 8X5X5X<X5X3X3X5X8X0X0X3X3X1X3 &X8X1XrX3X4X",
"rX8XrX5XwXwXrXe.p.8X3X1XrX0X>Xs -X5XrX3XwX5Xa.0.$X~ A A G K +.+.+.+.O.R P U U U U _ ! P 1.6.6.6.5.T.:XrX}.p 5XwX5X3X3X5X8XrXrX3XrXwXrX5X3 @X3X3X3XrXqX",
"wXrX3X3XwXrXrXs g.8X4X4XrXrX>Xe @XrX3X3XrXrXa.e.^ A A A J +.+.+.+.+.Y P T T E E T T T  .G.3.5.6.6.5.T.rX Xp rXrX8XrXrX3X4X0X3X3X5XwXwX,X: @XrX5XrXrXrX",
"3X3XrX3XwX3XwXs j 3X5XrXrXrX>Xr %XrXrX3X3X5Xa.n G A A G +.+.+.+.+.Y T E E E E E E E 1.R.3.G.3.6.6.6.6.:XOXr 5X5XrX5X3X3XrX3X5XrX0X3X5X>XX OX5XrXrXrXrX",
"rXrXwX<XrXrXwXj 0.5X5XrXwXwX,Xh >X3X3XrXwXrXa.c A A A K +.+.+.+.R E P +.+.+.+.+.+.:.5.6.6.3.G.3.6.6.6.Y.XX< 5XrXrX3XrX0XwXrXwX3X3X0X0X1X@ +X5X3X3XrXrX",
"qX0XwXrXwXwXrXj 0.5X5X3X3X3X1Xl >X3XwXrXrX3Xr.C A A A +.+.+.+.@.E U P +.+.+.+.+.#.6.6.6.6.3.J.G.6.6.5.5.V.3 >X5XrXqXqXqXqXrXwX0XwX5XwX,X# OX5XrXwX3XwX",
": ; : @ % ; 3 # j 5XrXrXrX5X1Xl ,XrXwXrXrX5XZ.A A A H +.+.+.#.E E U P +.+.+.+.#.6.`.].].(.R.R.G.3.6.6.%.( $ 5 < 4 < ; < ; : : + ; 3 3 % @ OX3XwXrX5X3X",
"1X>X>X-X=X@X Xj e.wX3X8X0XrX,Xh -XrXrX5X5X4X~ A A A K +.+.+.-.Y E U  .2.;.#.+.>.6.!./.~.E.R.R.R.G.6.:.+.F X OX3XqXqX5X8X8X,X>X>X=X*X}..X+ #XrX3XrXrXrX",
"8XrX8X4X4X3X8Xj w.8X1X3X3XrX,Xl =X3XrXrX8X;XZ A S G O.+.+.#.] T ` E E.^.^.| ;.6.6.4.3.R.R.R.R.R.J.-.#.+.o.2 5XrXrXrX3X4X8X8XrX8X3X3X5X,X+ @X4X3X3XrX3X",
"3X3XrX3XrXrXrXy a.rXqX3X3X3X,Xh >XrXwXrX8X$XS A A G +.+.+.;.E T T ` P R E ' 5.6.6.8.4.4.4.R.R.R. .E +.+.O.9.3X4XrXrXrX3X3X3XrX4X0XrX8X@X3 %X4X3X3X3X3X",
"4X3X3XwXrX3X8X3 0.wXrX5XrXrX>Xa %X4XrXrXrXK.A A A H +.+.+.1.T T T U P +.%.6.6.6.6.6.6.6.6.R.R.3.` P +.+.+.B 3X3XqX0X0XrXrX3X<XrXrX0XrXoXX +X3XrX3XrXrX",
"3X3X3X5XrXrX5X4 e.5X8XrX3X3X,Xy oXrX8X8X4XZ.L L L J +.+.#.-.T T T ` X.;.W.W.6.6.6.7.W.W.W.R.3.} U P +.+.+.V 3X3XrX3X3XrX3XrX0X5XrX3XrX|.@ +XrXrX3X3X3X",
"rXrXrXwXrX3X3X8 e.wXrXrX3XqX,Xy .XqXqXrXrXA.{ { { W +.+.$.} E T E E '.'.'.).6.6.6.].{.{./.R.[ T T I O.+.+.) rXrXwX3X5X3XwXrXrXrX0X3X3X.X% +XrX8X5X3XrX",
"0.p.a.e.h d h # * l i.p.g.g.k + y p.w.f k ( { { { W +.+.:.} T E T U  .8.6.6.6.6.5.R.3.R.R...T T E I +.+.+./ e.i.p.a.e.0.h w.v.e.0.h a u $ y w.i.g.k.i.",
"% a.k.k.g.d.g.% % i.l.x.x.x..X XOX.X}.l.s.( { { { Q +.+.:.} T T ` X.X.6.6.6.6.2.3.R.R.R...T T T T I +.+.+.v e.g.k.B.B.k.% s z.z.k.s.g.h # u k.x. Xz.x.",
"7 *XrXrXrX4X4X0.a 1X3X4XrX4X3X8X3X3X3X3X7XA.{ { { @.+.+.:.} T E ..R.3.6.6.5.2.J.R.R.R.3.] T T T T P +.+.+.N 5XrXrXqX1X5Xq l.rXrXqX4X4X1X% B.8X3XrXrX4X",
"y =XrXrX3X3XrXi.s.8XwXrX0X3X3XrX3X4XrX3X0XL.{ { { @.+.+.:.1.E } 3.R.(.7.6.6.4.R.R.R.3.] T T T T E P +.+.+.M 3XrXrXrXwX1X<  X5XrXrX1X0XwXr @X3XrXrX3X8X",
"j >X3XwXrX3XrXf.s.0XrXwX3X5XrXwXqX8X3X3X3XtX{ { { { +.+.%.3.[ R.R.R.'./.5.6.6.3.R.3.} E T T T T U K +.+.+.b 5X3XwXrXrX8Xy +X3X3XrX3X0XrXr @XrXrX3X3X8X",
"a ,X3X5XrXrXrXj.s.3X3XwX3XrXrX8X3X5X0XrX0XtXX.{ { { +.+.#.).1.R.R.R.R.H.2.6.6.4.R...` E T T E E U O.+.+.o.9.5X3X3X0X3X1X7 @X3X3X0XrXrX5Xw @X0X3X5X0X8X",
"y =X3XwXwXwXrXs.i.3X5X0X0X3XwXqXrXrXrXrXqX4X .{ { { O.+.+.`.E.3.R.R.R.J.J.6.6.5.1.T T T ` E ` E T +.+.+.F a 3X3X3XrXrX,X3 B.3XrXrX5XwXrX0 @XwX3XrX3X8X",
"y =X3XrXrXrXwXf.p.1X5X5X5X1X1X1X,X>X,X&X*X*XS.{ [ { [ +.>.Q.(.R.R.R.R.R.F.4.6.:.O.E T E P E E U O.+.+.+./ h wXqXrX3X4X1X5 z.qXqXwXrXwXrX0 @X5XwX5X5X1X",
"q =X3X0XrX0X0Xp.@ O . < 4 ; ; % @ % & 5 @ 5 M { { [ { :.6.6.`.R.R.R.R.R.G.J.,.#.+.R T T E E E R +.+.+.O.x s wXwX3XrXrX>X; }.8X0XrXrX3X3X3 o . ; t - ; ",
"7 -X0XwXrX0XwXw.h #X%X=X=X=X*X*X&X&X@X*X#X-XN.S.[.[.[.!.6.6.!.`.R.R.R.R.R.F.@.+.+.@.E T T T E +.+.+.+.) b.p 1XrXrXrXrX>X5 x.8XwXrXwX0X5X3 B.@X*X=X=X*X",
"7 &X0XrXrX0X0Xh f.wX5XrXwX0XrX8X4XrX3X0X0XrXn.t.uXuXuX'.6.6.6.`.~.R.R.R.R.| L +.+.+.R E T E O.+.+.+.+.U.OXq 3XwXwXrXrX=X5 k.3XrXwXwXwXwX, #X5XrXwX5XrX",
"r >X8X5X3X5X5Xe.p.wX5XrXrX3XrX3XwXrX5XrX3XrXB.u yXuXuXuX!.6.6.8.`.~.R.R...P ! ~.).E.] E T $.+.+.+.+.=.8XOXp 0X<XwXrXrX3X< OX3X3XwXwXrX1X: @XwXrXwX5XwX",
"g 1XrX5XrXrXrXe.k.wXwX8X5XwX3XwXrXrX0X3XrXrXM.7 tXyXuXuX[.W.6.6.W.`.).R.E E ' J.J.} ] } $.+.+.+.+.:.U.5XOXq wX<X5X3XrX5X0 %X8X3XrXrXwX5Xy -X5XrXrX5X3X",
"d ,X0XrXrXwX8Xi.k.8XrXrX3XrXrX3X3X3X3X3XwXrXn.7 8XtX[._._.E.6.6.6.8.).).3.] T E T ..2.:.+.+.+.+.+.D.rX3X+Xe rXqXwX3XrXwXr @X8XrX5XrXrX5Xa =XwXrXrX8XrX",
"r >X5XrX8XrX8Xe.p.3X3X3X3XrX3XrXrXrXrXrX3X8Xn.5 7X4XA.{ { { -.6.6.,.#.+.,.Q.Q.Q.8.%.+.+.+.+.+.+.Y.8XwX5X#X1 rX0X0X3XrX3Xk  X8XrXrX5X8X5X< @X5X3X3XrXwX",
"1 B.XXXX+X Xn.9 a .X.X|.oXOXOX X XB..XXX+X.Xq.# N.B.h.( { { { -.,.%.+.+.+.+.#.#.+.+.+.+.+.+.o./ M. X.X.XM.8 XX X.X X.X.Xy p.XXOXOX.XB.p.3 g.}.OXOX|.OX",
"h i y e a 0.e.* 5 h w.k l 0.h + O w h h i.a.9 6 e s 0.e.Z.[ { { -.+.+.+.+.+.+.+.+.+.+.+.+.o.u.c.e.j h h y * a 7 y y j e.l s y y y l 0.a # y k k k 0.i.",
"8X8X8X8X3X0X3Xe.a.8X8X8X8X8X>X0.=XrX8XrX1XrXv.j 4XrXrXrXrX;XA.{ { { @.O.+.+.+.+.+.+.+.#.C.2 @XrX5X5X0XrXOXg 8X8X8X1X5X3X1X3X4XqXrX3X8X,X5 &X3X8X3X4X4X",
"rX8X8X8X3X3XrXe.e.8X<X1X3X8X-Xs =X3XrX3X8XrXa.0.8X4X4X3X3XqXrX8XtXA.H.G.H.F &.<.<.C.U.rXwX0 =XrX5X8X3XrX}.p 1X0X8X<X3X0XrXrXrX0X3X3X8X5X: +X3X<X3X4X4X",
"rX0X4X5XrXwXwXl a.4X5X0XrXwX>Xp *XrXrX3XrXwXa.e.rX3X5X5XwX<XrXwXqXqX0XrXrXg.c.rXrXrXrXrX3Xq #X5XrXqX0XrXoXp rXrXrXrX3X3X0XrX3X3XrXrX3X,X4 %X8XrXwXrX3X",
"3XrXwX5XrX5XwXi 0.8X5XrXrXrX-Xq oXrXwX3XrX8Xa.0.3X3XrXrX3X3X3XrXqXqX0XrXrXl e.5X4XrX5XwX8X3 OXrX5XwX3X5X Xp 5X4XrXrX3X3XrX0X0X5X0X0X3X>X+ #X5XwXrXrXrX",
"3XrXrX<X5X3XwXj 0.5X5XwXrXrX,Xh -X5X3XqXwXqXp.l 5X5XwXwX5XrX3X3XqX4X4XqXwX0.v.5X4X8X3XwX1Xo  X3X3XrXwXrXOXq 3XrXrX3XwX3XrX3XrX3X1X0XrX,XX +XrX3XwXrXrX",
"1X3X5X<X5X5X5Xj 0.rX5XwX3X3X1Xh ,X3XrXrXrX3Xp.s >X>X>X>X>X>X>X1X1X4X1X1X5Xs v.5XrX4X3X3X3Xo x.3X3XrXwXrXOX: >X1X1X,X1X3X1X3X3X1X1X5X5X>X% XX5X3XrX3XrX",
"< y < < 7 y i * 0.5X3XrX8X3X1Xh >XrXqXwXqX0Xp.# 5 3 : + ; ; : = > > 0 > > o l 5X8XrXrX3X5X% m.rXrX0XrX3X+X* 6 3 4 < - < < < y 4 7 y y 7 # OX3XrXrX3XrX",
"B.l.n.k.k.i.i.8 e.8X3X0XrXrX1Xh =XrXrXqXrXrXz.y *X*X=X*XOX&X%X=X-X>X>X>X-Xj y ,X3XwX8XrXwX4 B.8X3X3X3X3X&XX g.@X&X@XOXOX Xl.k.g.g.s.i.c.@ +X8X0XrXwX5X",
"rX8XrX4X8X4X5Xj k 8X3X3X3XrX1Xl >XrXrXrXwX3XB.a 8X8X5X8X4X4X3XrXrXrX<X3XwXn.e 5X5XrXrXrX3Xy B.rXrX3X0XrXOX1 4XrXrXrX4X8X8X8XrX5X3X3XqX1XO @X3X1X3X3XrX",
"4X3X8X4XwX8X8Xy a.8X4X3X3X3X>Xh =XwXrXrXrX3Xk.r rXrX4XrX3X0XrXrX0X0X0X0XwXm.a 1X1XrXwX3X5Xh  XrX3XwX2XwXoXr 4XqXqXrXqX4X4X3XwXrX3XrX4X@X% %X8X0X3X3X3X",
"4X3X3XrXrX3X8X5 e.rX3X8X8X8X>Xs *XrXwXrXrX0Xf.w 8XrX0X3XrXrXwXrX3XrX3X5X0Xi.< 1X1XqXrX3XwXs B.rXrX3X3X3XOXr wX3XrXwXrXrX3X0X<XrXrXwXwXoX+ +XrXrX3XqX3X",
"3X5X3XrXwXrXqX4 e.rXrXrX3XrX,Xa OX5XwXrXwX<Xi.p 5X5XrX0XwXrXrXwXrXrXwXrXrXi., ,XqXqXrX<X3Xy .X5XrX3X3X3XOXp 3X<XwXwX3XwX3XwXqXqXrXrXrXoXX #X5XrX4XqXrX",
"rXrXqXwX5X3X0X7 e.rXqX0X3X8X,Xy OX8XwXrX0X0Xh i wXwXrXrXrXrXwXrX8X8XrX8XrXp.< 1X8XwXwXrXwXq OX0X3X3X3X3XoXd rXwX0X3X3X3X3XrXrX3XwX0X3XoX% &XrXrXqX4XqX",
"OX@X@XOX X X X5 7 |.*X>X>X-X}.< i.*X@X|.oXl.% 7 >X-X=X@X@X*X*X*X,X*X*X%XOXu 7 =X>X-X>X*XOX3 i.}. X}. XOXg., @X@X#X*X@XOXOXOX=X+X X X}.p.$ p.#X*X>X>X=X",
"# a 0.h g p a $ $ p h 0.k k e.a.p.i.k h w q % * e e y p h e # o O O O : i 6 $ y y 4 , , 4 s j a l h a a y   y a j e.j j o 3 j 0.h g a 8 # 5 h h w.l w.",
"4 #X1X,X,X,X>Xa 4 -X,X3X4X3X1X3X5X5X1X1X,X>Xh y *X=X>X>X,X*X3 p.+X@X&X%X>Xa.9 =X=X=X*X@X-X>X,X1X5X,X>X1X XO =X,X,X5X5X>Xy k.1X,X,X,X,X%X# g.,X1X3X1X1X",
"4 =XrXrX0X0XqXp.f.3X5XrXrXrX3XrX3X3XrX3X0XrXp.r 8X,X1X0X0X4Xa ,X0X3XwXwX0Xk.i wXwX0XwXwXwXwXwX5X5X8XrXwXOX, 0XrXrXwX3X3X< B.rXrXqX3X0X0Xe %X3X0XwXrX3X",
"a >XwX3XrX3XrXd.d.5XrXrX3X3X3X0X8X3XrX3X3X0Xf.r rXrXrXqXqX0Xl ,X0X0XwXwXwX X4 1XrXrX0XrX5XrXrXrXrX5XrXrXOX, 3XqXrXrXwX3Xy .X8X3XqX0XrXrXr @XrXrX3X3X8X",
"j ,X8XrXrXrXwXj.s.0X3X3X3X0XrXrX5XrXwXrXrXwXk.r 4X4X5XqX3XrXe >X0XrX3X3XwXn.e.8X8X0X5XwXwXrXrXwXrXwXrXrX X, 5X3XwXwXrX1Xy &X1X8XqX4XrXrXw @X3X3X3X3XrX",
"y >X3X3X3XrXrXf.s.1X3XrX0X3XwX8XrXwXwXrXrX5Xn.p 4X3X0XrXrX3Xe 1XrXwX0XrXrXx.p.4X3XrXrXrXqX3XrXrXwX5XrXrX Xg 0XwX3XrXwX,X: OX4X3XqXrXrXrXw @X8X3XrX3X3X",
"7 *X3X5XrX0XwXs.s.3X5XrX3X3X3X5XrXrXrX3XrXrXv.e 3X3X3XrX4X3X7 1XrXrXrXrX0X}.l qXrXrXrXrXwXrXrXwXwX3X5XrXOXg 3XwX5X3XrX1X5 l.rX0X5XrX0XwXw @X8X0XrX3X3X"
};
