/* XPM */
static char *c96c96b5c0ca45b8b69603aade3ca4cdEb0b4hfiN33NgfGQ[] = {
/* columns rows colors chars-per-pixel */
"75 75 212 2 ",
"   c #C67C21",
".  c #648C1C",
"X  c #5E822A",
"o  c #658B25",
"O  c #668B26",
"+  c #62842C",
"@  c #668B2C",
"#  c #698E2C",
"$  c #6B9524",
"%  c #6F9A27",
"&  c #6D932C",
"*  c #70962F",
"=  c #729A2C",
"-  c #648436",
";  c #688633",
":  c #678932",
">  c #6B8D33",
",  c #66833A",
"<  c #6A8739",
"1  c #6D8D3B",
"2  c #718F3E",
"3  c #6D9233",
"4  c #6E913B",
"5  c #719434",
"6  c #759A34",
"7  c #72923C",
"8  c #76983C",
"9  c #799B3C",
"0  c #6B8744",
"q  c #6E8B44",
"w  c #6E8A49",
"e  c #718E44",
"r  c #738D4B",
"t  c #6F9041",
"y  c #759344",
"u  c #789644",
"i  c #7A9845",
"p  c #75924B",
"a  c #7A954C",
"s  c #7D994C",
"d  c #768D52",
"f  c #798E59",
"g  c #779251",
"h  c #7B9553",
"j  c #7E9953",
"k  c #7E955A",
"l  c #7E9858",
"z  c #7F9460",
"x  c #B49A1A",
"c  c #959839",
"v  c #99AB2C",
"b  c #D99D08",
"n  c #E29E05",
"m  c #E19E09",
"M  c #DDA119",
"N  c #D4BE18",
"B  c #E4A306",
"V  c #E7AD07",
"C  c #E9B50B",
"Z  c #EDBC0D",
"A  c #F0BF0F",
"S  c #E8A51E",
"D  c #EAAA1D",
"F  c #EBB414",
"G  c #EFB31C",
"H  c #F0B51B",
"J  c #F4BC1A",
"K  c #D38924",
"L  c #DF9421",
"P  c #E08F23",
"I  c #E49A24",
"U  c #DBA825",
"Y  c #DBBD28",
"T  c #D5A736",
"R  c #DFB137",
"E  c #E8A427",
"W  c #ECAD23",
"Q  c #EEB524",
"!  c #FBB526",
"~  c #F3B926",
"^  c #F8B52A",
"/  c #EAAE37",
"(  c #EDB538",
")  c #F2BE34",
"_  c #F0BC3E",
"`  c #DBC014",
"'  c #F2C50C",
"]  c #F4CC09",
"[  c #EFCA16",
"{  c #F3C312",
"}  c #F5CD13",
"|  c #F3C51E",
" . c #F6D01D",
".. c #DFC23B",
"X. c #E6C527",
"o. c #F3C725",
"O. c #F4C52B",
"+. c #F6CD2B",
"@. c #F7D32A",
"#. c #F7D22E",
"$. c #E2C435",
"%. c #E8CC38",
"&. c #F5CA35",
"*. c #F3C43C",
"=. c #F5CA3B",
"-. c #F7D234",
";. c #F8D533",
":. c #F6D139",
">. c #F8D639",
",. c #989D44",
"<. c #809654",
"1. c #819A55",
"2. c #81965D",
"3. c #839B5B",
"4. c #889F5F",
"5. c #B09F55",
"6. c #88A15D",
"7. c #839664",
"8. c #859A63",
"9. c #899D65",
"0. c #85966B",
"q. c #89976C",
"w. c #86996B",
"e. c #8A9C6C",
"r. c #869971",
"t. c #8D9D73",
"y. c #8E9D79",
"u. c #909F76",
"i. c #919E7C",
"p. c #8AA166",
"a. c #8CA06B",
"s. c #8EA173",
"d. c #8FA07A",
"f. c #91A276",
"g. c #99A373",
"h. c #93A27C",
"j. c #A0A362",
"k. c #D2A94F",
"l. c #DABF46",
"z. c #D5BA58",
"x. c #EBAE45",
"c. c #EDB543",
"v. c #EEB942",
"b. c #E7B44B",
"n. c #F1BD41",
"m. c #F0BC49",
"M. c #E3B351",
"N. c #F1BF53",
"B. c #C4A867",
"V. c #CEBB65",
"C. c #D2BE65",
"Z. c #C2AA73",
"A. c #C9B972",
"S. c #C5B879",
"D. c #D3B272",
"F. c #D4C046",
"G. c #F4C441",
"H. c #F5C74C",
"J. c #F6CB4B",
"K. c #EFD040",
"L. c #F7D247",
"P. c #F9D644",
"I. c #E2C854",
"U. c #F5C956",
"Y. c #F7D355",
"T. c #F5C964",
"R. c #F7D467",
"E. c #EDC973",
"W. c #F2C976",
"Q. c #F7D57B",
"!. c #949E83",
"~. c #949E89",
"^. c #96A283",
"/. c #99A485",
"(. c #9DA887",
"). c #97A18B",
"_. c #9BA48B",
"`. c #9EA88D",
"'. c #9EA592",
"]. c #9FA892",
"[. c #BCAB85",
"{. c #BCB28E",
"}. c #A0A695",
"|. c #A1A994",
" X c #A2A79A",
".X c #A5AA9C",
"XX c #A8AB9F",
"oX c #B7B197",
"OX c #A6ABA1",
"+X c #AAACA4",
"@X c #A8A7A8",
"#X c #ADAEA9",
"$X c #ADADAD",
"%X c #AEAEAE",
"&X c #B3AEA2",
"*X c #B0AFAE",
"=X c #AFB0AE",
"-X c #B5B1A3",
";X c #B1B0AE",
":X c #B1B0AF",
">X c #B2B1AF",
",X c #BAB4A8",
"<X c #AFAFB0",
"1X c #B0AFB0",
"2X c #AFB0B0",
"3X c #B2B1B1",
"4X c #C8B685",
"5X c #C8B89B",
"6X c #D3BC90",
"7X c #C4B9A6",
"8X c #EECA86",
"9X c #F2CF8C",
/* pixels */
"y 4 4 3 > # # % 1.3X*X3X3X2X#Xl OX3X3X2X3X2Xe.& 3.1.2.1.a h h f f k 7.f k > a =X:X:X:X%X=X4 h.3X=X2X3X%X`.% 8 g <.h r p y 7 1 3 > > # 5 & /.%X3X3X3X=X",
".X X X}.}.'.'.s 2.:X%X%X%X3X+Xj .X<X3X3X3X2Xh.p #X#X#X#X+XOX+X%X%X1X@X#X%X8.e #X:X3X3X3X%X2 h.2X%X%X2X=X}.@ _.+X*X#XOXOXXX.X.X X}.'._./.# |.%X%X3X%X<X",
":X:X3X=X:X%X:Xj 8.:X%X%X%X1X#Xl OX3X2X3X%X%Xt.p *X:X*X*X%X%X3X1X1X1X*X%X<Xh.p #X:X3X3X2X=Xi ^.3X%X2X#X3X_.y *X1X*X3X1X1X:X:X:X:X%X*X*XOX: '.*X%X%X<X3X",
"%X%X3X:X2X:X=X7 4.=X:X%X%X%XOXd .X3X3X3X3X2Xt.p 3X3X<X1X3X3X%X3X1X%X%X1X<Xt.y #X@X2X%X=X2Xj h.3X3X<X%X2X_.w *X%X*X1X3X*X%X%X:X:X%X1X*X'.& '.3X3X%X<X#X",
"3X%X%X3X3X3X1X1 1.3X3X<X%X3XOXa }.%X:X3X2X@X7.q =X3X3X%X<X3X3X1X%X3X3X3X<Xz 1 #X:X3X3X@X%Xa h.2X3X%X%X3X_.e %X%X3X%X%X3X3X3XOX1X3X1X1X~.o _.%X3X%X1X3X",
"=X3X%X3X3X%X1X7 3.3X3X3X%X<X+Xu _.%X3X=X2X#X8.p =X%X3X<X2X3X1X3X2X:X%X%X2X7.< +X:X2X=X%X%Xe /.%X%X%X%X%X/.r %X%X%X%X%X*X%X3X3X1X3X1X1X_.& |.=X3X%X%X1X",
"3X3X3X:X:X#X#X6 1.3X3X1X1X<X+Xp ^.%X2X2X2X=Xy p 3X3X3X1X3X1X1X3X<X%X%X1X3X8.7 #X:X3X3X3X*Xe /.<X2X%X#X<X).r <X3X%X%X%X%X3X3X3X3X1X*X#X/.= /.3X3X1X<X1X",
"5 y y 2 : : > $ % ; e r a a 1 @ 4 p w - + X $ = a p y 2 e y i a a a y y y % % a p y p y 7 $ o o > @ > > 3 $ q y y a y 2 > 7 a 7 > : : # % & < r j p r ",
"& s./.^.^.i.h.5 & u.^././.)./._._./././.y.y.7 8 t.t.s.h.h.t.$ 7 k 2.8.w.h.s 6 a.s.s.0.0.t.h.h.^./.h.h.h.w.o t.h.^.(./.h.3 j (.^.^.i.h.9.$ a ^././.)./.",
"4  X:X=X3X:X=X8.j %X%X%X3X3X*X3X:X%X1X<X2X3X8.y :X%X%X%X3X@Xu .X3X*X:X%X2Xe.i 2X3X3X%X=X3X%X3X3X3X2X2X3X_.< %X2X*X%X%X%Xt y.:X2X3X=X%X=X> /.=X%X3X<X%X",
"p XX3X3X%X%X2Xw.0.%X3X3X%X%X3X3X%X1X2X%X<X3Xw.p :X#X%X3X3X2Xh #X<X%X3X*X=Xh.7 #X2X=X<X3X3X3X:X<X3X3X2X3X_.< 2X3X3X3X3X#Xt ^.3X3X3X%X2X3Xr '.2X3X3X%X1X",
"a +X%X%X3X3X3X0.0.<X3X<X%X%X3X<X1X2X:X%X%X3X0.w :X3X=X3X%X<Xg #X1X<X3X%X2Xh.a %X2X3X3X2X2X3X2X3X2X3X3X3X/.< %X=X3X3X3X=Xy _.=X=X=X3X3X3Xr '.3X3X%X%X3X",
"j +X=X=X<X3X3Xr.0.%X<X<X%X%X3X3X3X*X%X3X3X3Xt.r :X*X1X*X1X1Xe OX%X1X%X=X3Xt.3.%X%X2X3X3X2X2X3X<X3X=X2X3X^.r %X3X3X2X%X+X7 ].%X%X%X3X3X2Xw '.%X3X3X%X3X",
"y .X%X2X3X2X3X0.7.%X<X<X3X%X%X2X3X3X3X3X2X3Xs.y %X%X<X3X%X#X1 %X1X1X3X3X<X^.8.:X<X3X2X3X3X=X3X3X<X%X3X3X_.g 2X2X%X2X2X#X5 i.:X:X3X2X2X3Xw '.=X<X*X%X%X",
"q .X=X3X3X2X2X0.7..XOX+XOXOX.X.X.X|. X].|.|.8.8 %X2X3X%X1X%Xy *X1X1X1X%X%X).y }..X#X+X.XOX+X.X X'._.}.}.y.h %X3X<X%X%X#X4 y.%X:X%X3X3X=Xe )..X+X+XOX.X",
"7 .X%X%X3X=X%X8.3 r r h l j h a s i s i u s 8 i %X%X3X%X%X%Xe +X%X1X1X3X2X/.@ j g j a j p j a a r g a y 5 s %X%X3X3X3X+X# i.:X%X3X3X%X%X3 2 r g l g j ",
"y .X3X3X2X%X=X2.l OX+X+X=X+XOXOX.X.X.XOXOX+Xs.s 2X3X3X3X3X1Xr .X%X%X<X2X3Xy.a #X#X#X+XOX.XXXOX+X+X*X#XOXt.p #X2X3X3X3XOX5 h.3X3X3X2X%X=X> /.OX+X=X+X+X",
"7  X%X3X2X3X<Xh 7.=X=X3X=X2X3X3X1X1X%X%X<X1Xd.u =X%X2X%X2X2Xk XX%X2X2X3X=Xh.w.*X<X3X3X%X3X3X:X2X%X%X1X*X'.p 2X2X3X3X3X+X3 u.%X<X3X<X3X#X- '.=X3X=X=X2X",
"r +X:X%X%X2X1X1.w.:X=X*X2X%X2X%X3X2X%X%X3X3Xf.y %X=X*X1X3X3Xh .X%X3X3X2X2X^.f *X2X<X3X<X2X2X2X3X2X<X3X3X/.r 3X@X%X%X3X=X< _.2X%X=X3X=X=X4 }.2X2X2X=X2X",
"g #X:X3X3X3X3X8.s.:X3X3X2X3X=X2X3X<X3X%X3X3Xf.7 1X%X1X*X%X%Xg #X:X*XZ.Z.Z.5.c V.A.&X2X2X3X3X=X3X3X3X1X%X/.q =X%X%X%X3X2X0 }.:X3X=X3X3X=Xa .X=X3X3X3X2X",
"d +X3X3X3X3X3X2.e.*X3X*X<X3X3X3X3X%X%X=X%X3Xs.y *X*X*X3X*X*Xr &Xk.M n n B Z ] ] ] [ F.-X3X2X%X3X%X%X3X%X_.r 3X3X<X%X3X=Xd _.3X2X<X3X3X=Xe .X:X*X3X2X1X",
"g .X2X3X2X3X=X4.7.#X%X%X3X1X%X3X3X3X3X3X%X3Xa.3 *X>X*X1X*X*X<.T n n n B ] ] ] ] ] ] ] X.-X2X2X2X2X<X*X%X}.7 3X<X<X%X3X2Xk /.3X3X3X1X3X=X1 '.#X%X%X3X1X",
"> 4.a.9.e.8.l 6 8 w.q.q.0.e.e.w.7.2.w.9.f.e.i % 3.3.<.7.7.3.x n n n B Z ] ] ] ] ] ] ] ] F.3.p.a.8.9.w.w.3.6 a.9.e.9.a.8.5 a a.8.9.9.2.a = j 0.q.e.q.e.",
"p.3.1.l 2.p.p.6 8 7.8.7.7.8.1.& y l 3.2.w.e.i 9 1.4.a.9.9.,.b n n n C ] ] ] ] ] ] ] ] } ;.v 3.s.9.9.8.4.s 6 6.1.3.1.8.a.a.6.3.1.2.9.p.3.% j 7.7.7.7.9.",
":X:X*X:X%X%X=X6.8.:X#X*X*X%XXX1.+X1X1X1X%X3Xa.<.:X3X3X*X&XM b n n B ] ] ] ] ' Z Z ] ] @.;.%.oX2X3X%X%X3X/.g :X:X#X@X=X%X%X=X*X3X3X%X%X#X3 |.:X#X3X*X*X",
":X:X3X%X=X2X3X3.8.=X#X%X3X1XOXs .X3X3X*X3X=X9.3.:X*X*X1XZ.n n n B V ] ] ] ' J F D D | -.;.-.4X2X2X2X<X3X/.r =X:X:X%X%X%X:X3X2X%X2X%X3X=X3 '.:X%X%X1X1X",
"=X3X%X%X3X3X3Xa 9.:X*X1X3X3X.Xe '.3X*X%X3X2X8.6.2X<X%X3XM n n n B ' ] ] A H H G G D / -.;.;.I.2X3X=X2X3X/.r 3X3X3X3X3X%X3X%X%X%X2X2X2X+X>  X:X=X3X3X3X",
"%X%X3X%X2X=X2Xs l %X=X3X3X3X+Xr  X3X2X%X3X:X8.j %X<X2X[.n n n n V ] ] ] H H H H G ) v.c.;.;.K.4X%X3X%X2X_.w %X3X3X=X%X%X3X%X<X3X%X=X%XOX@ /.=X3X3X3X3X",
"3X3X2X@X3X3X2Xj 1.:X=X2X2X3X#Xj .X1X%X3X2X=X8.j =X3X%XB.b n n n Z ] ] F A ] ] ] ] ;.-.c.=.;.;.C.<X3X2X=X_.1 *X1X3X<X3X1X2X3X2X%X%X%X2X#X# `.2X%X2X<X3X",
"1X1X=X3X2X2X2Xj 1.=X=X=X%X%X#Xh +X=X2X3X3X<X8.a +X+X%XT n n n n ' ] ] D A ' ] ]  .;.-.v.( ;.;.I.3X3X3X2X`.3 OX1X3X%X*X1X1X3X<X<X3X2X2X+Xo _.=X3X2X%X3X",
"> : : # 3 3 3 % 1.=X:X3X2X%X#Xl OX3X3X3X3X3X9.$ 7 1 4 b n n n B ' ] J D A ] ] ] L.R.U.G.x.:.@.o.%X3X3X%X/.= * 1 4 1 : 1 > : > @ > # 3 & $ `.=X2X3X%X=X",
"#X+X+X.X X'.!.a 2.:X%X3X3X3X#Xg .X3X3X2X2X%Xi.a 3X3X&Xn n n n V ] ] J D *.+.]  .P.U.H.G.x.*.@.] -X%X%X%X}.o _.%X1X1X=X=X=X+X+XOX.X X!.).@ |.:X%X3X3X3X",
":X3X:X%X*X*X*Xj 8.:X#X%X%X3X=Xh .X2X3X3X3X%Xd.p 1X1Xg.n n n n V ] ] G Q H.N.G @.:.G.G.G.c.( } ] S.*X#X*X'.q =X3X3X3X%X:X:X*X:X:X%X%X:XOX: }.*X%X%X1X3X",
"%X=X:X%X1X3X%Xi 8.*X1X%X<X%XOXg OX2X3X2X3X=Xt.r 1X,XD.n n n n C ] { G G H F Q -.-.=.=.G.m./ ' ] V.*X%X1X).w =X%X3X3X3X%X%X%X*X3X%X3X:X'.& |.:X*X#X*X%X",
"*X%X%X3X3X<X:X> 1.:X:X3X2X3XOXa }.:X2X3X3X@X0.y 1X3Xk.n n n n Z ]  .H W A ] ;.;.;.;.>.G.c.K A ] l.%X%X*X'.p 3X@X:X%X<X3X<X=X@X3X3X<X1X~.o _.:X3X%X3X3X",
"%X1X%X%X3X3X%X1 3.=X3X3X%X%X+Xu _.*X3X=X%X%X7.y *X*Xk.D D D D ' ] | H W O.#.>.;.>.P.P.G.(   Z ] $.%X<X*X/.r *X%X3X%X%X3X%X3X%X3X3X3X<X_.# '.:X3X%X%X%X",
"3X3X:X:X1X%X%X8 3.3X3X3X%X3X+Xu !.*X1X3X2X=Xp s 1X*Xb.! ! ! ! { ] o.G ~ T.R.>.-.Y.Q.Y.G.W   C ] $.%X%X<X).r 1X3X%X%X<X*X3X3X3X3X3X<X%X/.* `.3X3X=X%X3X",
"2.8.8.3.h g j % = h 7.w.e.e.f # p 9.2.f g w $ 3 u.e./ ! ! ! ! ] } O.G D ~ ;.;.-.=.G.G.) D   N ] N g 1.h a & 2.8.w.9.8.h h 2.9.4.<.h g u % y 2.7.e.t.7.",
"& 9.f.e.e.q.9.& & 7.y.u.i.i.^./././.i.y.0.8.3 5 k l T ! ! ! ! { } O.G D &.;.;.=.n.G.*.Q D   F ] Y 0.w.e.h . 7.e.e.h.h.s.& a u.t.e.0.e.<.% 7 t.y.h.i.i.",
"4 .X3X3X3X*X*X2.a #X*X1X3X%X%X3X1X%X%X%X:X=X2.p =X=XM.! ! ! ! {  .O.G ( &.-.-.G.G.G.) H D   C ] $.3X=X3X'.; #X2X3X:X2X#Xy y.3X3X3X*X#X#X> h.:X%X3X3X*X",
"y .X3X3X=X%X3X7.0.=X:X=X*X%X2X=X1X1X3X%X%X3Xe.y *X#Xz.! ! ! ! { } O.Q G.L.-.-.G.G.*.~ H S   C ] ..2X3X3X_.< %X3X3X3X=X#X1 ^.2X3X3X#X<X3Xr '.%X3X1X%X1X",
"a +X%X<X3X%X3X0.0.%X3X3X%X2X3X%X<X3X2X%X=X2X0.w *X*XD.! ! ! ! { ] +.) H.R.-.-.*.G.) H H S K Z ] z.3X=X3X).- =X%X3X3X3X=Xu _.%X%X2X%X<X3Xr '.3X3X%X%X3X",
"j +X%X%X3X3X3Xr.0.%X%X2X%X3X3X3X%X<X%X3X3X2Xt.r *X*X4X! ! ! ! J ] +.*.G.m.*.;.=.G.Q G H S L ' ] A.2X3X3X^.e =X<X=X3X%X%X7 '.%X=X1X3X3X2Xw '.<X%X%X3X1X",
"u  X%X2X2X2X3X0.0.=X=X=X%X1X=X<X3X3X3X3X3X3Xs.p *X*X-X^ ! ! ! ! ] ;.G.G.G._ ;.-.) H H D I M ' ] {.2X3X3X).p %X%X=X<X:X+X5 i.%X3X2X=X3X3X0 '.<X%X3X%X1X",
"y .X%X3X3X3X2X0.7.=X=X=X=X#X#X#X+XOX+X X}. Xp.7 =X%X3X^ ! ^ ! ~ } >.J.G.G.v.;.#.~ H H G P D ] ] .X'..XOX^.h 2X<X1X%X%X#X5 y.1X<X3X3X2X2Xq '.=X2X%X=X+X",
"q .X%X2X3X2X2X8.# + X 1 4 : > # # & & = & 6 = i @X3X2XM.^ ^ ! ^ +.;.J.*.G.n.-.o.{ H G G P { ] ` + : : o o s =X3X<X3X1XOX> i.:X<X3X3X%X%X3 o X : t < @ ",
"8 .X%X3X3X<X3X2.h ].]..X.X.X.X}.}.|.}. X].XXa.a <X<X1X6XW.W.W.W.J.;.L.G.G.n._ ] ' G G E I ] ] z. X+XOX'.t.y #X3X3X3X3XOX5 h.3X%X2X2X2X=X> h.'. XXX.X.X",
"7  X<X2X3X<X<Xh 0.2X2X3X<X<X3X:X3X*X%X2X2X2Xs.u =X1X3X7X9X9X9X9XR.;.P.J.G.G./ ] ] H D I W ] [ S.%X2X%X2X_.w %X2X3X3X3X.X5 t.%X3X3X2X2X=X< ].=X2X2X%X3X",
"e +X=X%X%X=X=X3.8.=X=X=X3X%X3X%X%X3X2X3X%X3Xh.y =X%X2X:X9X9X9X9XQ.:.;.L.G.G.E H.Y.G W I } ] $.-X3X2X3X3X_.p 2X@X%X<X3X=X< /.3X2X=X2X3X#X> '.=X3X=X%X2X",
"d =X:X%X2X3X2X8.e.=X3X:X2X2X%X2X3X3X%X=X2X3Xf.7 =X#X3X%X5X9X9X9X9XY.;.>.J.) Q n.( W E o.] ] V.3X%X<X2X3X/.q 2X%X%X%X3X=X0 }.3X%X3X3X2X=Xp XX=X3X3X2X%X",
"d +X:X2X3X3X:X2.t.:X:X3X%X3X1X:X2X%X%X%X3X3Xs.y 3X@X:X2X,X8XE.8X8XT.;.;.P.) G H D ( &.] ] [ {.=X3X%X3X%X`.e 1X1X2X%X3X=Xr '.3X2X=X3X3X:Xp .X=X3X3X3X3X",
"r XX3X3X:X3X:X6.w.:X=X%X*X3X%X3X3X3X3X1X%X:Xs.5 :X3X1X3X<XD.! ! ! ! +.;. .] -.=.:. .] ] ] C.:X:X%X2X3X<X}.2 3X<X1X%X3X<Xk ^.:X3X3X2X=X=X7 '.=X%X%X<X3X",
"2 h./.`./.^.s.i a /.~./.).).(./.^.i././.`./.1.% h.f.f.h.i.g.U ^ ! ! ^ +.} ] ] ] ] ] ] ] N f.h.^.^././.!.f.8 /././.^././.y w.(./././.h.8.* e.!././.~._.",
"j i y y j 1.1.= 5 k 2.l l 2.g # - e a l 8.8.8 6 2 s 1.2.l 4.j.^ ! ! ! ! ] ] ] ] ] ] ] ] c = 6.8.3.h j j i & i y y y j 3.l a u y y l 3.a $ p k k h 2.3.",
":X=X%X3X%X%X%X3.4.:X:X3X:X-XOX1.XX:X:X1X#X3Xa.<.:X*X1X3X1X1X1X5Xc.! ! ! J ] ] ] ] ] X.{.%X< '.3X2X=X<X3X/.g =X=X:X#X=X%X#X%X:X%X:X%X#X#X5 |.%X:X3X*X*X",
"3X:X:X%X%X%X3X3.2.*X@X@X3X:X.X<..X%X3X%X3X3X9.<.3X:X*X1X*X1X1X3X:X4Xb.b.b.R Y $.$.A.-X:X=Xw .X<X2X:X%X3X^.d #X1X:X@X%X<X3X3X3X<X%X%X:X=X> '.*X@X*X1X*X",
"2X=X%X3X3X3X=Xj 9.:X=X2X3X2XOXp '.3X<X%X2X3X8.6.3X<X=X3X3X@X3X<X:X:X%X3X3Xa.a.=X3X3X3X3X=Xw }.3X3X:X<X3X).p :X3X3X3X%X%X3X3X%X%X3X3X=X+X4 }.:X3X2X3X%X",
"1X3X<X%X2X=X2Xa 3.:X=X3X3X3XXXq _.3X3X<X3X1X8.6.%X%X2X2X%X%X%X<X:X:X%X3X3Xl 3.=X*X3X=X<X:X3 /.3X<X2X%X=X/.p =X*X3X3X%X%X<X2X<X=X%X2X<XOX# `.=X2X3X3X3X",
"%X3X2X@X=X3X2Xj l =X=X3X3X3X+Xg XX=X<X1X<X3X8.j =X=X2X=X=X3X%X%X:X%X=X3X2X1.a.=X*X:X%X%X+Xo ^.<X%X3X2X3X_.q =X3X3X%X<X%X3X%X3X%X%X%X2X+X@ _.3X%X2X3X3X",
"#X%X%X+X=X=X=Xj 1.:X=X:X%X%X#X<.+X%X3X3X2X<X8.a .XOXOXOXOXOXOX%X#X=X#X#X=Xs a.=X3X*X%X3X*Xo u.<X%X3X:X2X_.> XX#X#X+X#X%X#X%X%X#X#X=X=XOX$ _.=X3X3X%X3X",
"1 y 1 1 7 u u & l =X%X3X3X%X#Xh OX3X<X2X:X%Xw.$ 7 & > : > @ > - - , q , , o 1.=X:X3X3X%X2X# f.3X3X%X2X%X/.= 9 > 5 > < 1 1 1 y 4 7 y u 7 & /.%X3X2X%X2X",
"h.y.s.t.t.7.8.8 3.3X:X3X3X3X#Xh .X3X3X1X3X3Xt.y }..X.X X_.}.}..X.X+XOXOXOXj y #X%X3X<X2X2X4 h.3X%X%X%X2X|.# e.}. X}./.).^.y.t.e.e.0.7.9.# '.=X1X3X3X:X",
":X:X3X*X*X*X%Xj 2.:X@X%X%X%X#Xl OX3X3X3X*X%Xh.a :X:X=X:X%X%X1X1X<X3X@X%X3Xs.w =X*X3X3X3X=Xy h.3X2X%X%X3X_.1 1X1X3X3X*X:X:X:X3X:X*X%X*X#X@ '.%X#X%X<X3X",
"*X%X:X*X=X:X:Xi 8.:X1X%X<X%XOXj .X3X2X3X3X<Xt.p 3X3X*X:X3X1X1X3X1X<X%X%X=Xh.a +X#X3X2X2X2Xa ^.3X%X=X%X3X_.r 1X1X3X3X1X*X%X%X2X3X%X1X1X'.& '.:X%X%X%X%X",
"*X%X%X3X3X2X:X5 3.3X:X:X=X=X+Xa .X3X2X3X3X=Xe.p 2X2X<X%X3X2X3X3X%X3X%X3X%X7.7 #X@X:X3X%X2Xa h.3X3X%X%X<X).r 3X%X3X2X3X3X%X2X@X3X3X2X3X).@ |.:X3X%X1X%X",
"%X1X%X3X3X2X1X4 3.:X3X3X%X3X+Xp /.2X3X2X2X@Xz p %X%X3X<X3X3X3X2X3X3X%X3X1X8.< +X3X3X3X@X%Xy /.:X3X%X<X%X_.r %X@X2X<X%X2X%X3X3X2X2X3X=X).o '.:X3X*X:X3X",
"3X3X:X3X<X%X%X7 3.:X3X1X%X=X+Xu ).=X2X3X<X%Xh a 3X=X2X2X2X3X%X3X*X%X3X:X3Xw.< +X:X2X2X3X%Xq _.<X=X%X%X%X).r 3X3X<X%X<X2X%X3X3X3X3X%X%X).& ].3X:X*X%X1X",
").}.}./.!.!.h.6 y !. X.X+XXX!.1 7. X'.~.).y.& 7 +XXX.X'.'. X X.X+X X.X X_.i 7 .XXXXXOX X'.3 8.h.^.!././.e.1 '.'.'. X'./.)._.XX/./.!.!.8.% 8.|..X+X+X X",
"$ i 1.l j d j % % p h 2.2.l 3.8.9.8.k h w q & & q y y p g e $ o + @ + > i 6 = y y 7 , - 4 s l a l j a a y . y g j 1.3.j o 5 <.1.h a a 8 % 3 j h 2.l 2.",
"4 '.#X+XOXOX.Xa 7 .X+X*X%X%X#X%X%X%X#X#XOXOXj y .X.XXXOX+X.X3 9._.'.'.}.OX8.9  X.X.X.X'..X+X+X+X=X+X+X+X^.+ .X+X+X=X=XOX7 t.#X+X+XOX@X|.o a.+X#X%X#X#X",
"q .X:X3X*X%X%Xw.w.%X2X1X3X1X%X3X%X*X3X%X<X3Xw.r #X#X%X%X1X1Xa +X<X%X2X2X%Xt.i 2X2X2X2X2X3X=X3X2X=X2X3X2X'.; %X1X3X2X%X#Xt h.:X3X1X%X=X3Xw '.%X*X<X3X%X",
"a XX3X%X3X=X3X0.0.:X3X3X%X*X%X2X:X%X3X%X<X1Xw.e 3X1X2X1X1X1Xh +X2X2X3X=X2X^.4 #X2X2X3X3X2X3X2X3X3X=X3X3X_.< <X3X3X3X2X=Xy ).:X=X1X1X3X3Xr '.3X3X%X%X3X",
"j +X=X3X3X3X2Xr.0.2X%X%X%X%X3X3X2X3X=X3X3X%Xt.r *X*X1X3X%X3Xe +X<X3X<X%X1Xs.6.=X:X2X2X2X=X3X3X2X3X2X2X3X^.1 %X%X2X2X3X#Xy '.%X:X1X<X3X3Xw '.%X*X%X%X3X",
"i .X%X%X%X3X3X0.0.#X%X3X2X%X3X%X3X<X3X3X3X=Xs.p %X%X=X3X2X%X1 #X2X3X2X3X3Xi.8.%X%X3X3X3X<X%X3X3X=X%X3X3X/.g <X<X%X3X2X+X5 ).%X%X1X3X3X3Xw '.*X%X3X%X%X",
"7  X%X2X3X<X<X0.0.%X:X3X%X%X%X=X3X3X2X2X3X3Xa.e %X%X:X1X*X%X7 *X3X3X3X3X%X!.k 3X:X3X3X3X3X<X3X2X=X%X<X3X).g %X3X%X3X<X#X5 y.:X%X2X:X2X2Xw '.%X3X2X%X%X"
};
