/* XPM */
static char *_25e2f30a5c84c5baee513a2c3354947k2AgVaMDC9dFadkP[] = {
/* columns rows colors chars-per-pixel */
"75 75 141 2 ",
"   c #648C1C",
".  c #5E822A",
"X  c #618527",
"o  c #658B25",
"O  c #698E26",
"+  c #62842C",
"@  c #668B2C",
"#  c #698E2C",
"$  c #6B9524",
"%  c #6F9B25",
"&  c #6D932C",
"*  c #6F992B",
"=  c #70962F",
"-  c #729A2D",
";  c #648436",
":  c #688633",
">  c #678A32",
",  c #6B8D33",
"<  c #66843B",
"1  c #6A8739",
"2  c #6D8D3B",
"3  c #718F3E",
"4  c #6D9233",
"5  c #6E913B",
"6  c #719434",
"7  c #759A34",
"8  c #72923D",
"9  c #76983C",
"0  c #799B3C",
"q  c #6B8744",
"w  c #6E8B44",
"e  c #6E8A49",
"r  c #718E44",
"t  c #738D4B",
"y  c #6F9041",
"u  c #759344",
"i  c #789644",
"p  c #7A9845",
"a  c #75924B",
"s  c #7A954C",
"d  c #7D994C",
"f  c #768D52",
"g  c #798E57",
"h  c #7A8F5C",
"j  c #769151",
"k  c #7B9553",
"l  c #7E9952",
"z  c #7D955A",
"x  c #7E9858",
"c  c #7F9460",
"v  c #D39F15",
"b  c #E29E05",
"n  c #E29F08",
"m  c #E3A009",
"M  c #EFAA16",
"N  c #EFAA18",
"B  c #CE9E20",
"V  c #DBA221",
"C  c #CEAA39",
"Z  c #D5A53B",
"A  c #E4AD2C",
"S  c #E6B02D",
"D  c #F7B427",
"F  c #FBB526",
"G  c #FAB528",
"H  c #E6B137",
"J  c #E8B031",
"K  c #EFB53D",
"L  c #F1B439",
"P  c #8E924C",
"I  c #809654",
"U  c #819A56",
"Y  c #81965D",
"T  c #839B5B",
"R  c #889F5F",
"E  c #87A15C",
"W  c #88A05D",
"Q  c #B1A057",
"!  c #839664",
"~  c #859A63",
"^  c #899D65",
"/  c #85966B",
"(  c #89976C",
")  c #86996B",
"_  c #8A9C6B",
"`  c #869971",
"'  c #8D9D73",
"]  c #8E9D79",
"[  c #909F76",
"{  c #919E7C",
"}  c #8AA166",
"|  c #8CA06A",
" . c #8EA173",
".. c #8FA07A",
"X. c #92A276",
"o. c #93A27C",
"O. c #CFA74E",
"+. c #CDAE4F",
"@. c #CBA858",
"#. c #EAB446",
"$. c #E0B35A",
"%. c #E9C16D",
"&. c #F5C666",
"*. c #F5C76D",
"=. c #EAC376",
"-. c #949E83",
";. c #949E89",
":. c #96A383",
">. c #99A485",
",. c #9DA887",
"<. c #97A18B",
"1. c #9BA48B",
"2. c #9EA88D",
"3. c #9EA592",
"4. c #9FA892",
"5. c #BCAC88",
"6. c #A0A695",
"7. c #A1A994",
"8. c #A2A79A",
"9. c #A5AA9C",
"0. c #A8AB9F",
"q. c #BAAF96",
"w. c #BCB29D",
"e. c #A8A6A7",
"r. c #A6ABA1",
"t. c #AAACA4",
"y. c #A8A7A8",
"u. c #AEAEAE",
"i. c #B0AFAE",
"p. c #ABB0A7",
"a. c #AFB0AE",
"s. c #B5B1A5",
"d. c #B1B0AF",
"f. c #AFAFB0",
"g. c #B0AFB0",
"h. c #AFB0B0",
"j. c #B1B1B1",
"k. c #C7B189",
"l. c #E7C98F",
"z. c #E8CA8F",
"x. c #F2CF8B",
/* pixels */
"u 5 5 4 4 > # * U g.i.j.j.j.u.x r.j.j.j.j.j.' & U x I U s k k g h h z h z , d u.d.j.d.u.d.5 o.j.a.h.j.a.2.$ 0 j I s t s u 2 5 4 , , @ = & 1.u.j.j.j.d.",
"9.8.8.6.6.2.2.d Y j.u.u.j.j.t.k 9.j.j.j.j.j.X.s u.u.t.u.t.t.t.i.i.i.u.y.u.~ r t.d.j.j.j.u.8 o.d.a.a.h.j.7.@ 2.t.u.u.r.t.0.9.8.6.6.7.1.1.@ 2.i.u.j.j.j.",
"d.j.j.d.d.u.d.k ~ d.u.u.u.g.u.x t.d.j.j.j.u.] a g.d.g.i.i.i.g.j.g.g.g.f.h.:.a u.d.j.j.j.u.s o.j.u.j.t.j.3.r g.g.i.j.g.j.d.d.j.d.i.u.i.r.> 7.i.u.u.i.g.",
"u.a.j.d.j.d.d.8 R a.d.u.f.u.r.a r.j.j.j.j.d._ a j.j.g.j.j.j.g.j.j.i.u.i.a. .u y.y.j.u.j.j.l :.j.j.f.f.j.1.e i.u.i.g.j.i.i.u.j.j.g.g.i.3.& 6.i.i.u.u.u.",
"j.u.u.j.j.j.g.2 T d.j.j.u.j.r.s 3.f.g.j.j.y.~ w d.j.g.u.j.j.j.j.g.j.j.g.f.z 2 u.i.j.j.y.u.s o.h.j.u.u.f.1.r i.u.j.i.j.j.j.j.y.j.j.j.j.;.O 2.d.j.u.j.j.",
"j.j.i.d.j.d.f.9 R j.j.j.u.f.t.i 1.f.j.h.h.a.c a a.u.j.j.j.j.g.j.j.j.i.i.h.~ 1 t.j.h.u.u.u.3 1.f.f.u.h.u.<.a g.u.u.u.u.i.a.j.j.j.j.j.g.1.# 7.j.j.f.u.g.",
"j.j.d.d.d.u.t.7 U d.j.i.g.g.t.a :.f.h.h.d.t.u a j.u.j.j.j.j.g.j.f.u.j.j.j.T 2 u.d.j.j.j.u.r >.a.h.u.u.u.<.t g.g.u.u.i.i.j.j.j.j.i.i.u.-.= ,.j.j.f.f.g.",
"8 u i 3 > : , $ $ : w t k s 2 @ 5 a r ; ; . $ - d a u r r u p s d s r u i $ * d s u a u 8 $ O X , @ , , 4 $ 2 u u s r 3 4 8 s 8 , : @ & % & < t k s t ",
"&  .>.:.:.{ o.6 = [ :.>.1.>.1.1.2.1.>.:.{ ] 8 9 _ ] X.X.o.] $ 8 z z ! ) o.d 7 |  . .) /  .X.:.:.>.o.X.:.~ o ] o.>.>.:.:.4 U :.:.:.{ o.^ $ d :.>.1.>.>.",
"5 9.j.j.j.j.f.~ k d.a.i.j.d.i.j.f.u.u.u.u.j.~ r d.u.f.u.a.t.u 9.g.g.d.d.h._ p h.j.j.u.a.j.j.j.j.j.j.j.j.2.1 i.j.j.a.a.u.5 ..j.j.j.j.f.a., >.d.f.g.g.i.",
"u r.j.j.u.u.h.) ) u.j.j.u.j.i.j.u.j.h.u.f.j._ a d.u.u.f.j.j.k t.f.u.j.g.h.o.8 u.f.h.h.j.j.j.j.j.j.j.g.j.1.1 a.j.j.j.j.u.5 :.d.j.j.u.j.j.t 3.f.j.j.u.j.",
"d t.u.f.j.j.j.( / u.j.j.u.u.j.j.g.h.j.d.u.j.) e d.j.j.j.f.g.k t.g.j.j.i.j.o.u u.j.j.j.j.j.j.j.j.j.j.j.j.>.< u.h.j.j.j.d.u 2.d.d.j.j.j.j.t 3.j.j.u.u.j.",
"l t.u.u.h.j.j.` / u.u.h.u.f.j.j.d.j.d.j.j.h.' t d.g.i.g.g.g.r t.u.g.h.j.j.' T u.u.h.j.j.j.j.j.j.j.j.j.j.:.a u.h.j.d.a.t.8 4.u.u.u.j.j.j.e 3.u.j.j.u.j.",
"u 9.u.f.j.j.j.) / u.h.h.f.u.g.j.d.d.j.j.j.h. .u u.u.j.j.u.u.2 u.g.g.j.j.f.:.^ d.g.j.a.j.j.a.j.j.j.u.j.j.1.j u.a.u.j.j.u.4 -.d.i.j.j.j.j.e 3.d.f.j.u.u.",
"w 8.g.h.j.j.h.) ! 8.r.t.t.r.8.0.0.9.9.7.7.6.^ i u.f.j.u.i.u.u i.g.g.g.u.u.<.u 6.0.p.0.0.r.r.9.6.3.1.6.8.] k u.j.f.u.u.t.5 ] u.j.j.j.h.h.r <.9.t.t.r.9.",
"8 9.u.j.j.u.f.~ , u t k x j k d p p d p u d 7 p u.u.j.h.u.i.w t.u.f.g.j.h.>.# k j k l k s l k s t j d u 8 d u.j.j.j.a.t., { d.u.j.j.u.u.4 8 t j x k k ",
"i 0.j.j.j.u.j.Y z r.t.p.p.t.t.r.9.9.9.r.r.t. .l h.h.j.j.j.j.f 9.u.u.h.j.h.' j u.u.t.t.t.9.0.r.t.t.i.u.9.] i y.h.j.j.j.r.7 X.f.j.j.j.j.p., >.r.p.p.t.t.",
"8 8.j.j.j.f.u.x ~ h.h.j.h.h.j.j.g.g.u.u.f.g.X.u a.u.j.j.j.h.k 0.u.h.h.j.h.:.^ f.f.j.j.u.j.j.j.j.u.u.g.i.1.t a.j.j.j.j.t.4 { f.j.j.j.h.u.1 3.a.j.h.a.j.",
"t t.a.u.f.j.i.U ~ j.a.j.h.u.h.u.g.j.u.u.j.j.X.u u.f.g.i.h.j.k 9.u.j.j.j.h.:.k f.h.f.h.j.j.j.j.j.g.j.j.j.1.t j.y.j.f.j.d.1 2.j.u.j.j.j.p.2 4.h.j.h.h.h.",
"f p.j.j.j.j.j.~  .d.j.j.j.j.f.j.j.j.j.u.j.j.X.8 a.i.j.i.j.u.j u.j.j.h.u.5.Q P i.h.h.j.j.j.j.u.j.j.j.j.u.1.r j.u.a.u.j.j.q 6.j.h.j.j.j.a.s 0.a.h.j.j.j.",
"j t.j.h.j.j.j.Y _ i.d.d.j.g.j.j.j.h.u.a.j.j. .i d.u.i.g.i.g.t i.j.j.q.Z b b m O.s.j.u.f.j.j.u.g.u.f.j.j.2.e j.j.g.u.j.d.f 1.g.j.u.j.j.d.u 8.d.g.j.j.j.",
"t 0.j.d.j.j.j.W ! i.i.u.j.j.i.d.j.j.j.j.d.j. .4 d.j.d.j.g.g.k t.j.d.Z b b b b m @.h.f.g.u.h.h.j.h.f.g.f.6.8 j.u.f.u.j.j.z :.j.j.j.j.j.d.2 3.u.i.g.g.i.",
"4 ~ | _ _ ^ x 7 8 ) ( ( / _ _ ~ ~ Y ~ _ X._ i $ T T x Y ! Y = d Y Y n n b b b b B ) _ ~ z E | _ ~ ^ ) ^ T 7 _ } _ ^ ^ ^ 8 d | ^ | _ U s & x ! ( ( / _ ",
"W R Y U U } } 6 9 ~ ~ ! ! ~ U = a z Y ~ ~ | p 0 U W | ^ ~ | X.{ ' ` n b b b b b v I U z k - R | ^ ^ ^ Y d 7 W U T U ~ } | ~ U U U ~ | R $ l ! ! ~ ~ ) ",
"d.d.d.g.u.u.u.W ^ d.u.u.j.i.0.U 0.j.j.d.u.j. .I d.d.j.j.j.j.j.j.g.g.m b b b b b V j.g.f.u.q 8.j.j.f.f.j.1.j d.d.u.t.j.u.u.d.a.g.j.u.h.u.6 7.d.u.j.i.g.",
"j.j.j.u.h.j.j.T Y d.u.u.j.j.r.I 0.d.j.i.j.h.^ U d.i.i.j.j.j.j.j.j.g.m b b b b b V j.j.h.a.q 8.j.j.h.h.j.-.a d.j.u.u.u.g.j.d.j.f.h.f.j.p., 3.i.u.i.j.g.",
"j.j.u.u.h.j.j.d _ d.d.d.j.j.r.r 3.j.g.u.j.j.^ W g.g.i.j.f.y.j.j.j.j.m b b b b b V j.j.j.a.y 4.j.j.j.u.j.:.a j.j.j.j.j.u.j.f.u.u.f.h.h.t., 6.d.a.j.j.j.",
"u.f.j.f.h.a.a.l l a.a.d.j.j.t.t 8.j.h.u.a.a.^ l u.u.j.u.u.u.j.j.j.g.m b b b b b V d.j.u.u.X >.j.u.j.u.f.1.t a.d.j.g.u.u.j.u.j.j.a.h.h.r.# 1.a.d.j.j.j.",
"j.j.j.y.j.j.h.l U a.a.j.h.j.t.k 0.a.j.j.j.j.~ l a.j.a.d.d.j.d.u.g.j.m b b b b b V i.f.j.u.o :.u.u.j.j.j.1.1 i.j.j.u.j.f.f.j.j.u.u.f.h.t.# 2.j.u.j.j.j.",
"g.j.h.h.h.j.j.l U a.a.j.u.u.t.x t.f.j.j.j.u.! s t.p.p.t.p.t.t.j.j.j.m b b b b b V j.j.j.p.o o.f.j.j.j.h.2.& t.j.j.d.g.h.g.j.g.h.j.h.h.t.O 2.a.j.j.i.j.",
", > , # 4 # 4 $ U a.j.j.j.h.u.x r.j.j.j.j.j._ $ 8 2 3 2 > , 2 q t t n b b b b b V h.j.u.d., X.j.u.j.j.u.1.* 6 2 8 2 : 2 , > , # , # 4 & $ 1.a.j.j.j.j.",
"u.r.0.0.8.3.:.l Y d.u.d.j.j.t.k 9.j.j.j.j.h.X.s j.d.u.u.d.i.i.u.g.g.m b b b b b V j.j.j.f.8 o.j.h.u.h.j.7.o 1.u.g.g.h.a.a.t.r.r.9.8.-.<.@ 3.d.g.j.j.j.",
"d.j.j.u.i.i.g.d Y d.u.u.u.j.t.x r.j.j.j.h.f.X.a d.j.i.g.u.i.g.j.g.j.m b b b b b V j.g.j.f.a o.j.j.d.a.j.3.w a.j.j.j.i.d.j.d.j.d.u.i.i.r.> 7.i.i.u.d.g.",
"u.i.j.u.j.j.h.i ~ j.i.u.g.u.r.k 0.j.j.j.j.h.' u j.j.i.j.i.j.i.j.j.i.m b b b b b V j.u.u.d.l :.j.j.d.u.j.1.e u.d.j.j.j.u.u.u.i.j.g.j.j.3.# 7.d.i.u.u.u.",
"j.u.u.j.j.j.h.2 T d.j.j.j.j.r.s 6.d.h.j.j.y./ e d.j.j.u.j.j.j.g.g.j.m b b b b b V j.j.y.a.s o.j.j.u.u.a.1.t d.y.j.g.j.j.g.j.y.j.j.j.j.;.o 7.i.j.g.j.j.",
"u.i.u.g.j.j.h.8 T d.j.j.u.u.t.u 2.u.g.j.j.u.~ a a.g.j.j.j.j.j.g.j.g.N M M M M M A h.j.u.u.r >.i.j.u.f.u.1.a j.u.j.i.u.j.u.j.d.j.j.j.j.;.# 2.i.j.u.u.u.",
"j.j.j.j.a.u.u.7 T d.j.j.g.g.t.s -.i.g.j.h.u.a s j.d.j.j.j.j.g.g.g.u.G F F F F F K j.a.a.j.r 1.u.h.u.u.u.<.t j.j.u.f.f.i.j.j.j.j.d.u.u.1.& 2.j.j.h.u.j.",
"Y ~ ~ T k k k $ - x ! ~ _ _ k @ u ) Y g j e $ = ' _ _ ! ~ ~ ) _ ' ) F F F F F F J ) _ _ Y & 9 a d k U x s # Y ~ ~ ^ Y x k Y | ~ I k k 9 % i Y ! ' _ ! ",
"& ~ X._ ( ( _ = & ! ' -.{ { >.:.1.>.:.' / ~ 4 6 z z T ~ _ x $ & 5 8 F F F F F F S x f t k | ) ' X.) / _ x   Y ( ' X.X. .& s X.[ ' / _ U $ i ' { o.{ o.",
"9 9.j.j.d.i.i.I s u.d.i.j.i.u.j.u.f.f.u.h.j.U a d.i.i.u.d.u.8 2.u.u.G F F F F F K a.u.a.j.h.h.i.j.f.h.j.2.1 u.u.j.j.u.u.u [ d.d.g.u.i.t., o.d.j.j.j.g.",
"u 9.j.j.a.u.j.! / a.a.h.j.u.d.h.u.g.j.f.a.j._ u i.u.u.d.h.u.j t.u.u.G F F F F F K f.u.g.j.j.j.j.j.j.j.j.2.1 u.j.j.j.a.u.2 o.j.j.j.u.u.j.t 3.u.j.j.u.j.",
"d t.g.u.j.g.j.' ( a.j.j.u.f.g.h.g.g.j.f.f.j.) e j.j.u.d.u.i.k t.g.u.G F F F F F K g.g.j.j.j.j.j.j.j.j.j.1.; j.u.j.j.j.d.u 2.u.f.j.u.j.j.t 6.j.j.g.u.d.",
"k t.u.u.j.j.h.` / u.u.a.u.j.j.j.u.j.u.j.j.f.' t i.f.h.j.g.j.r t.i.g.G F F F F F K j.j.j.j.j.j.j.j.j.j.j.-.w u.a.j.j.g.u.8 7.u.a.j.j.j.j.e 3.f.f.u.f.j.",
"u 9.u.g.j.f.j./ / u.a.u.f.u.j.j.g.j.j.j.j.j. .a u.u.j.j.j.f.2 u.g.g.G F F F F F K j.g.j.j.g.j.j.h.u.f.j.1.a u.f.g.j.j.t.6 { u.j.j.h.j.j.q 3.u.u.j.u.j.",
"u 9.u.j.j.j.j./ ! t.a.a.u.u.t.u.t.r.p.8.6.8.} 8 u.u.h.u.u.u.8 i.g.j.F F F F F F K j.p.a.p.a.p.r.8.3.9.0.:.k u.j.j.u.u.u.3 { i.u.j.j.j.j.e 4.p.h.d.u.t.",
"w 9.u.j.j.j.h.~ & . ; 2 8 > > & # & & = = 7 - i u.j.j.f.u.u.r e.u.j.F D F F F F S , , , , , , @ + , @ o o d a.h.g.i.u.t.# { d.f.j.j.u.a.4 X + : u > > ",
"9 9.h.j.j.f.j.Y k 4.8.9.9.9.8.8.7.7.6.6.8.0.| d h.u.h.j.g.g.f 9.u.u.&.&.&.&.&.&.%.9.9.8.4.8.6.9.8.r.r.3.] u u.j.j.j.j.0.6 X.d.h.j.h.h.a.4 o.3.8.9.9.9.",
"8 8.g.j.j.f.f.k ) a.a.j.a.u.j.d.d.d.u.a.a.h. .u h.u.j.j.g.g.k 0.g.u.x.x.x.x.x.x.l.a.d.u.h.h.j.j.u.j.f.f.1.r u.j.j.j.j.r.6 ] u.j.h.h.h.a.1 4.a.j.h.f.h.",
"r t.a.u.u.j.a.T ~ a.a.j.j.u.j.u.j.j.j.j.u.j.X.u a.u.h.f.i.u.x 0.u.a.x.x.x.x.x.x.z.f.j.j.j.j.j.j.j.j.j.j.1.a f.y.a.j.j.d.1 1.d.a.j.j.j.u., 3.a.j.j.a.f.",
"g p.j.u.j.j.j.~ _ a.j.j.j.h.u.j.j.j.u.j.j.j.X.8 h.u.j.u.g.g.f t.i.d.x.x.x.x.x.x.z.f.j.j.j.j.u.j.g.g.j.j.1.w h.y.u.u.j.a.q 6.j.a.j.j.j.a.u 9.j.j.j.j.a.",
"f t.j.j.j.j.j.Y  .d.d.j.j.j.j.h.j.u.u.u.j.j. .i g.u.h.j.i.g.t i.j.j.*.*.*.*.*.*.=.j.h.f.j.j.u.h.j.f.j.f.2.r j.g.j.f.j.h.t 7.j.d.f.j.j.d.d 9.a.j.j.h.j.",
"t 0.j.j.d.j.j.R ) u.a.u.i.d.g.g.j.j.j.g.u.j. .6 i.j.j.g.g.g.d u.d.d.G G G G F F K u.u.f.j.j.h.h.u.j.j.g.6.8 j.u.f.u.j.g.z :.d.j.j.h.j.p.2 6.u.u.g.g.j.",
"8 X.1.2.>.o.X.0 s 1.>.;.>.1.1.>.:.o.>.>.2.1.U $ X.X.X.o.-.X.7 ! [ [ G F F F F F H >.1.>.o.X.:.>.:.>.>.>.X.8 >.:.>.>.,.:.a ~ >.>.1.>.X.) & ' -.1.1.;.1.",
"k d u u d T U & 6 k Y k z Y k @ ; r s z Y ~ 0 7 3 d T I z T ^ { ( / H F F F F F C r r r 2 - U ~ x x k k p - s i i r l T x d u u u x U d $ u z z z I Y ",
"i.d.d.j.u.u.f.T R i.d.d.d.i.9.U 0.j.d.g.u.d.| U g.j.j.j.j.g.j.j.g.g.k.L F F F #.w.j.i.g.a.2 8.j.d.d.f.j.1.k u.a.u.u.d.u.u.a.j.d.d.u.i.u.6 7.i.j.d.i.i.",
"j.j.d.u.u.u.g.R T i.e.u.d.d.0.d 9.i.j.d.j.d._ U g.i.i.g.j.g.j.g.j.h.f.w.$.H +.s.j.u.j.j.a.q 8.j.j.h.u.j.{ a u.u.u.e.u.i.j.j.j.g.u.u.d.p., 3.i.e.i.j.i.",
"u.j.u.h.j.j.a.l _ i.d.j.j.j.t.a 3.j.g.u.j.j.^ U j.f.a.j.j.y.j.j.g.j.d.j.j.| | j.j.j.j.j.d.e 3.j.j.j.u.j.1.a d.j.d.j.u.u.i.j.f.u.j.j.j.t.5 6.d.a.j.j.j.",
"j.j.h.h.h.a.j.s U d.a.j.j.j.0.q 3.j.h.u.j.j.~ T u.u.j.h.u.u.j.j.j.j.j.j.j.U T d.d.j.j.j.d.4 1.j.j.j.u.j.:.a d.d.j.j.u.u.a.j.u.g.a.j.u.r.# 2.a.g.j.j.j.",
"u.j.j.y.d.d.h.l U u.h.j.j.j.t.k 0.a.g.g.j.j.~ l a.a.a.a.h.j.u.u.j.u.u.j.h.U | a.i.d.u.d.t.o :.u.u.f.j.f.1.w d.i.j.u.d.u.j.f.j.u.y.h.f.t.@ 2.u.f.j.j.j.",
"u.u.u.t.a.a.a.l U j.a.j.i.i.t.x t.i.j.j.j.f.^ d r.r.r.r.t.r.9.u.u.u.u.t.p.d | a.d.g.u.j.i.o o.u.j.j.j.g.2.> t.t.p.u.u.u.u.u.h.t.u.a.a.r.$ 2.a.f.j.u.j.",
"2 u r 2 8 u p * U a.u.g.j.j.t.x r.j.j.j.g.g.~ $ 8 4 , # > > , ; ; < q < <   U f.d.j.j.u.a.# o.j.j.f.j.u.1.- 0 , 2 2 , 2 2 2 u 5 8 u u 9 $ 1.u.j.j.j.j.",
"o.'  ._ ' ! ^ 8 Y j.i.g.j.j.u.k 9.j.j.j.j.g.[ u 6.6.9.8.1.7.6.9.9.t.r.r.t.x a t.u.j.j.j.h.5 o.j.u.u.u.h.7.O _ 3.7.3.1.1.:.] ] _ _ / ~ ^ # 3.d.i.j.j.j.",
"d.j.j.i.i.i.a.k Y d.u.u.u.j.t.x r.d.j.j.j.u.X.k j.d.u.d.i.i.g.j.g.j.y.u.h...r u.i.j.j.j.a.u o.j.j.u.u.j.1.3 g.j.g.j.i.d.d.d.d.d.i.u.d.t.+ 4.u.u.f.j.j.",
"i.i.d.g.a.d.d.i } d.g.u.u.u.r.k t.j.j.j.j.u.' a j.j.d.j.g.g.g.j.j.g.u.h.h.] d t.u.j.j.f.h.d :.j.f.h.u.j.1.t i.j.j.j.j.i.i.u.d.d.d.d.d.6., 4.d.u.u.u.u.",
"i.u.u.j.j.j.j.8 Y j.j.j.j.j.t.d 9.f.f.j.j.a._ r j.j.f.f.j.j.j.j.g.j.a.j.u.! 3 t.u.g.j.u.f.s o.j.d.u.u.f.1.t j.u.j.j.j.j.u.f.y.j.j.j.h.<.@ 4.d.j.u.i.u.",
"u.j.u.g.j.j.u.5 U d.j.j.a.j.t.i 1.f.h.j.j.y.! a a.f.j.g.j.j.j.j.j.j.g.j.g.~ 1 t.i.g.j.y.u.u 1.a.j.u.f.u.1.t u.y.h.u.h.j.u.j.j.j.j.j.h.<.O 4.d.j.u.d.j.",
"j.j.j.a.h.u.u.9 T d.j.j.d.a.t.u 1.u.j.j.u.u.x a h.h.j.j.j.j.j.j.d.u.g.i.j.~ 2 t.a.a.j.j.f.w 1.u.h.u.u.u.<.t j.g.h.f.u.f.u.j.j.f.j.f.u.<.& 4.j.j.d.u.g.",
"1.3.6.1.:.-.:.& 9 ;.9.9.t.0.-.2 ! 9.3.;.;.] & 8 t.9.9.3.8.8.8.9.t.9.8.8.1.i u 9.r.0.p.8.1.4 ~ -.:.:.:.1.' 2 3.3.3.8.3.1.1.1.0.1.>.:.-.~ $ ^ 3.9.t.t.8.",
"$ i I U k f d $ $ s k Y ! I Y ^ ~ ~ z k t w & - 2 r u a d r o o + X @ , a 7 % u u 2 1 ; 5 d x d U j s l 8   a s x T U l o 8 U U I j s 8 % 6 k k ! I Y ",
"5 3.u.t.t.t.r.s 8 9.t.u.u.u.p.u.u.u.u.t.t.r.k u 9.9.t.r.t.8.4 ^ 2.3.3.8.r.^ 0 8.9.9.8.3.9.p.t.t.p.t.t.t.:.+ 9.t.t.a.p.t.8 _ u.t.t.t.t.7.O | t.u.p.u.u.",
"y 9.j.j.f.f.i.~ / a.j.j.j.j.u.j.u.f.j.u.f.j.) t i.u.u.u.u.g.d t.f.u.h.h.a.' d a.h.h.j.h.j.j.h.d.j.j.j.j.1.1 u.g.j.j.u.a.2 o.j.j.g.u.g.d.w 7.u.g.h.g.u.",
"s t.j.u.j.h.j.( ( d.j.j.u.u.u.j.g.u.j.u.u.f.) r i.d.g.j.j.u.z t.j.h.j.a.h.:.8 t.j.j.j.j.j.j.j.j.j.j.j.j.1.1 f.g.j.j.j.t.u 1.d.u.g.i.j.j.t 6.j.j.f.u.j.",
"d t.a.d.j.j.j.` / u.u.u.u.f.j.j.j.j.j.j.j.f.' t d.u.j.f.u.j.t t.j.j.j.g.j.] T a.j.j.j.j.j.j.j.j.j.j.h.j.:.< h.u.j.j.h.a.u 3.u.d.g.j.j.j.e 3.f.f.u.u.j.",
"a 0.u.a.h.j.j.) / u.u.j.j.f.j.g.j.j.j.j.j.a. .a u.u.j.j.j.u.8 t.j.j.j.j.d.{ ^ i.a.j.j.j.j.j.j.j.j.u.j.j.>.j a.j.u.j.j.t.6 :.u.i.j.u.j.j.e 3.f.f.g.u.g.",
"8 8.u.j.j.h.f./ / u.j.j.u.u.u.a.j.j.j.j.j.j.| r u.u.j.i.i.u.8 u.j.j.j.j.u.:.z j.j.j.j.j.j.j.j.j.j.h.j.j.1.j a.j.u.a.u.u.8 ] d.i.j.j.j.j.w 3.d.j.j.u.u."
};
