/* XPM */
static char *fd4ef93571ff40d781b77193fa8dba3aUBb1yBJ1FwoNR7W3[] = {
/* columns rows colors chars-per-pixel */
"75 75 209 2 ",
"   c #C77C21",
".  c #648C1C",
"X  c #5E822A",
"o  c #658B25",
"O  c #668B26",
"+  c #62842C",
"@  c #668B2C",
"#  c #698E2C",
"$  c #6B9524",
"%  c #6F9B25",
"&  c #6D932C",
"*  c #6F992B",
"=  c #70962F",
"-  c #729A2C",
";  c #648436",
":  c #688633",
">  c #678932",
",  c #6B8D33",
"<  c #66833A",
"1  c #6A8739",
"2  c #6D8D3B",
"3  c #718F3E",
"4  c #6D9233",
"5  c #6E913B",
"6  c #719434",
"7  c #759A34",
"8  c #72923C",
"9  c #76983C",
"0  c #799B3C",
"q  c #6B8744",
"w  c #6E8B44",
"e  c #6E8A49",
"r  c #718E44",
"t  c #738D4B",
"y  c #6F9041",
"u  c #759344",
"i  c #789644",
"p  c #7A9845",
"a  c #75924B",
"s  c #7A954C",
"d  c #7D994C",
"f  c #768D52",
"g  c #798E59",
"h  c #779251",
"j  c #7B9553",
"k  c #7E9953",
"l  c #7D955A",
"z  c #7E9858",
"x  c #7F9460",
"c  c #91982E",
"v  c #B1A53C",
"b  c #DE9E0A",
"n  c #D2921B",
"m  c #E29E05",
"M  c #E09F0D",
"N  c #E39E1E",
"B  c #D5B21A",
"V  c #E4A406",
"C  c #E6AB07",
"Z  c #E4A40A",
"A  c #EAB509",
"S  c #EDBC0B",
"D  c #F0BE0E",
"F  c #E5A41D",
"G  c #E8A819",
"H  c #EAAA1C",
"J  c #ECB514",
"K  c #EFBC11",
"L  c #EFB31C",
"P  c #EDB91B",
"I  c #F1BC16",
"U  c #F0B51C",
"Y  c #F3BC1A",
"T  c #F8BB1E",
"R  c #CD8420",
"E  c #E49921",
"W  c #E39824",
"Q  c #D9A227",
"!  c #D2AC32",
"~  c #E1A32D",
"^  c #EEB522",
"/  c #F0B726",
"(  c #FBB526",
")  c #F9B921",
"_  c #F8B529",
"`  c #F1BA2B",
"'  c #E9AA38",
"]  c #EAB738",
"[  c #EEB538",
"{  c #F2BE3A",
"}  c #EEC40C",
"|  c #F2C50C",
" . c #F4CC09",
".. c #EEC617",
"X. c #F5C511",
"o. c #F5CD15",
"O. c #F4C21A",
"+. c #F4CD1A",
"@. c #F6D11D",
"#. c #DDC120",
"$. c #DFC038",
"%. c #E5C529",
"&. c #F4CB25",
"*. c #F4CA2B",
"=. c #F7D225",
"-. c #F7D32A",
";. c #F8D42E",
":. c #E2C333",
">. c #E8C93C",
",. c #F3C336",
"<. c #F5CC34",
"1. c #F3C33B",
"2. c #F6CB3B",
"3. c #F7D234",
"4. c #F8D533",
"5. c #F6D33B",
"6. c #F8D63F",
"7. c #809654",
"8. c #819A55",
"9. c #81965D",
"0. c #839B5B",
"q. c #889E5E",
"w. c #B09F55",
"e. c #88A15D",
"r. c #A6A95E",
"t. c #839664",
"y. c #859A63",
"u. c #899D65",
"i. c #85966B",
"p. c #89976C",
"a. c #86996B",
"s. c #8A9C6C",
"d. c #869971",
"f. c #8D9D73",
"g. c #8E9D79",
"h. c #909F76",
"j. c #919E7C",
"k. c #8AA166",
"l. c #8CA06B",
"z. c #9BA56F",
"x. c #8EA173",
"c. c #8FA07A",
"v. c #92A275",
"b. c #93A27C",
"n. c #BFAB7E",
"m. c #CDA84A",
"M. c #D0B153",
"N. c #D7B956",
"B. c #EAAE45",
"V. c #EDB443",
"C. c #EBB647",
"Z. c #F1BD42",
"A. c #E3B453",
"S. c #F1BF51",
"D. c #C8A965",
"F. c #CCB96C",
"G. c #D7B36B",
"H. c #C3AB71",
"J. c #C7B876",
"K. c #DBC047",
"L. c #F4C441",
"P. c #F5CC46",
"I. c #F4C74C",
"U. c #F5CB4B",
"Y. c #F7D44A",
"T. c #F3CB51",
"R. c #F5D556",
"E. c #DAC366",
"W. c #F1CA6C",
"Q. c #F9D56C",
"!. c #F2CA75",
"~. c #949E83",
"^. c #949E89",
"/. c #96A283",
"(. c #99A485",
"). c #9DA887",
"_. c #97A18B",
"`. c #9BA48B",
"'. c #9EA88D",
"]. c #9EA592",
"[. c #9FA892",
"{. c #BBAD88",
"}. c #A0A695",
"|. c #A1A994",
" X c #A2A79A",
".X c #A5AA9C",
"XX c #A8AB9F",
"oX c #B7AD99",
"OX c #BBB299",
"+X c #A6ABA1",
"@X c #AAACA4",
"#X c #A8A7A8",
"$X c #AEAEAE",
"%X c #B0AFAE",
"&X c #AFB0AE",
"*X c #B5B1A3",
"=X c #B1B0AF",
"-X c #AFAFB0",
";X c #B0AFB0",
":X c #AFB0B0",
">X c #B1B1B1",
",X c #C7B586",
"<X c #C5BAA3",
"1X c #DCC599",
"2X c #EFCA82",
"3X c #E7C788",
"4X c #F2CF86",
"5X c #F2CF8C",
"6X c #E9CB91",
/* pixels */
"u 5 5 4 , , # * 8.;X=X>X>X>X$Xz +X>X>X>X>X>Xs.& 8.z 7.8.j k j f g x t.l g , s &X=X>X=X$X=X5 b.>X&X>X>X&X'.$ 0 h 7.s t s 8 2 5 , , , @ = & `.$X=X>X=X>X",
".X X X}.}.'.'.d 0.=X$X$X>X>X@Xj .X>X>X>X>X>Xb.s $X$X@X$X@X@X@X$X$X%X#X#X$Xu.3 $X=X>X>X>X$X8 b.>X&X&X:X>X|.@ '.@X%X#X@X@XXX.X.X|.}.}.`.'.@ '.%X$X>X>X>X",
"=X>X>X=X=X$X>Xs t.&X$X$X$X;X$Xz @X>X>X>X>X$Xf.a %X>X;X%X$X%X>X>X;X;X-X$X:X~.a $X=X>X>X>X$Xs b.>X$X>X$X>X].r ;X;X;X>X>X>X>X=X>X>X$X$X%X@X> }.%X$X$X;X=X",
"$X&X>X=X>X>X=Xu q.:X>X$X$X$X+Xa .X>X>X>X>X>Xf.a >X>X;X>X>X;X;X>X;X;X$X-X&Xf.i @X#X>X$X:X>Xk b.>X:X-X$X:X`.e %X$X>X>X>X;X%X$X=X>X%X;X%X].# |.=X=X$X$X$X",
">X$X$X>X>X>X>X, 8.>X>X;X;X>X@Xs }.$X>X>X>X#Xy.w =X>X>X$X>X>X>X>X$X>X>X>X-Xl 2 $X$X>X>X#X$Xs b.:X>X$X$X-X`.r %X$X;X;X>X>X>X>X#X>X>X>X>X^.o }.>X>X$X:X>X",
">X>X%X>X>X>X;X8 y.>X>X;X$X$X@Xi _.$X>X>X:X&Xx a :X$X>X$X>X>X;X>X>X>X$X$X:Xt.: @X=X>X>X$X$X3 `.-X-X$X%X$X_.a ;X$X$X$X%X%X%X>X>X>X>X;X;X`.& |.>X>X-X$X%X",
">X>X>X;X>X$X$X7 8.=X;X;X-X-X@Xa (.-X:X:X>X@Xu a >X=X>X>X>X;X;X>X;X-X>X>X>Xy.u @X=X>X>X>X$Xr (.;X:X$X$X$X_.t ;X;X$X$X%X%X>X>X>X>X%X%X$X/.& ).>X>X;X-X;X",
"6 u i 3 > : # $ % > r t s s 2 @ 5 a r ; ; X $ - s a i r r i i s d a u u u $ * d s u a u 8 $ o o , @ , , 4 $ 2 u u s 3 5 5 8 s 8 , @ : # % & 1 r j s t ",
"4 l.(././.j.b.7 = h./.(.(.(.`.'.'.(.(.(.g.g.8 9 f.f.x.b.b.f.$ 8 l 0.t.u.b.d 7 l.x.x.a.i.x.b.b./.(.b.b.b.y.o f.b./.).(.b.4 z /.(./.j.b.u.$ d /.(.`.(.(.",
"5 .X>X>X>X=X$Xt.z %X%X%X>X>X$X;X;X$X-X-X-X;Xy.r =X$X%X$X$X$Xi .X;X;X;X-X:Xs.p :X>X>X$X&X>X:X>X>X>X:X>X>X].1 %X>X>X$X$X$Xy c.=X=X>X>X$X&X, (.=X&X;X;X$X",
"u +X>X>X$X$X>Xi.i.$X>X>X$X>X;X;X$X>X>X$X-X>Xs.a =X$X$X>X:X-Xj @X-X$X;X;X:Xb.8 @X:X-X:X>X>X>X>X>X>X>X>X>X`.1 &X>X>X>X>X$X5 /.=X>X>X$X>X>Xt  X-X>X>X$X;X",
"s @X$X=X>X>X>Xd.i.$X>X;X$X-X;X>X$X>X>X=X$X>Xa.e =X=X:X>X-X-Xj @X;X;X;X-X:Xb.s $X:X>X>X>X>X>X:X>X>X>X=X>X`.< $X;X>X>X>X=Xi '.&X=X>X>X>X>Xe ].>X>X$X$X>X",
"k @X$X=X>X>X>Xd.i.$X$X-X$X>X>X>X>X>X=X>X>X>Xf.t =X-X;X%X;X;Xr @X$X;X-X>X>Xf.0.$X$X>X:X:X:X>X>X>X>X>X>X>X/.t &X>X>X%X$X$X6 ].$X$X-X>X>X>Xe ].$X:X>X$X>X",
"u .X$X>X:X>X>Xa.i.$X-X-X-X$X$X>X>X>X>X>X>X>Xx.i $X$X>X>X$X$X2 $X;X;X>X>X-X/.y.=X>X;X:X&X>X&X>X>X>X&X>X>X`.h &X&X$X&X&X$X2 /.=X$X>X>X>X>Xe ].=X$X>X-X$X",
"w .X&X>X>X>X:Xa.t. X+X@X@X.X.X.X.X|. X|.}.|.y.8 $X$X>X-X%X$Xu %X;X;X;X$X$X_.u  X.X*X+X+X+X@X.X X].`.}. Xg.j $X>X:X$X$X@X5 g.&X=X>X>X:X>Xr _..X@X@X+X.X",
"8 .X$X;X>X$X-Xy., u t j z j z s d p d p p d 9 p &X-X>X$X$X%Xw @X$X;X;X>X:X(.# k j j j j s k s s t s s u 8 d $X>X>X>X:X@X# j.>X$X>X>X-X@X4 u t h z j j ",
"u .X>X>X>X$X>X9.z +X@X@X&X@X@X+X.X.X.X+X+X@Xx.k :X>X>X>X>X:Xf .X#X$X&X>X>Xf.s %X@X$X@X@X.X.X+X@X@X$X$X.Xx.a @X>X>X>X>X+X6 b.&X>X>X>X>X&X, (.+X@X&X@X@X",
"8  X&X>X>X>X$Xz t.:X:X>X:X&X>X>X;X;X$X$X-X;Xx.i $X$X>X>X>X:Xj XX>X&X=X>X-X/.y.;X-X>X>X$X>X>X>X>X$X-X;X;X`.t :X>X>X>X>X@X6 j.$X>X>X>X&X$X; ].&X>X&X&X>X",
"t @X&X$X-X>X%X8.u.:X&X>X:X$X:X-X>X=X$X-X=X>Xb.u $X:X$X%X>X>Xj .X=X>X>X>X;X(.g %X:X:X>X>X>X>X>X>X>X>X>X>X`.t >X#X-X-X>X&X1 '.=X$X&X>X&X&X5 }.&X>X:X:X>X",
"h $X=X>X>X>X;Xy.x.=X>X>X:X>X$X>X>X;X>X$X>X>Xb.6 &X-X>X;X:X$Xh $X=X*XJ.J.H.w.c H.H.%X>X>X>X>X:X>X;X>X>X$X`.y >X$X>X$X>X>Xq }.>X:X>X>X=X=Xs .X&X>X>X>X-X",
"f @X>X>X>X>X>X0.s.%X=X%X>X>X>X>X>X&X$X&X>X>Xx.u :X$X$X;X&X&Xt *XN. . . . .S V m M N D.@X=X=X$X&X$X$X>X;X].e >X>X;X-X>X$Xf `.>X-X=X>X>X&Xr .X$X;X>X>X>X",
"t @X>X>X>X>X-Xq.t.$X%X$X;X>X%X>X>X>X>X&X$X>Xx.4 &X>X>X>X$X&Xe.#. . . . . . .| V m m m m.=X=X=X>X:X-X;X;X}.8 >X$X-X$X>X&Xl (.>X>X>X&X>X&X2 ].$X$X=X>X;X",
"4 q.s.u.s.u.z 7 9 i.p.p.i.s.s.y.y.t.y.s.v.s.p % e.8.z z t.q.B  . . . . . . . .O.V m m m v 8.s.k.u.y.u.y.q.7 s.u.s.u.s.u.5 k l.u.s.s.0.s & 8.p.s.s.p.s.",
"y.q.8.z 0.k.k.6 9 y.y.t.t.y.9.& u z q.t.t.s.p 0 k k.l.k.x v  . . . . . . . . .-.P m m m b c q.s.u.u.y.y.d 7 e.8.q.8.u.k.u.e.8.8.z u.k.q.$ k t.y.t.t.u.",
"=X=X=X:X$X$X$Xq.0.&X$X%X=X%XXX8.@X;X;X;X=X>Xl.8.=X=X>X>XoX.. . . . .D |  . .-.4.3.Z b m m n |.>X>X-X;X>X`.h &X=X$X@X>X$X$X=X&X>X>X$X-X$X4 |.=X#X>X%X%X",
"=X>X>X&X:X:X>Xq.y.&X$X$X=X>X@Xd .X%X>X%X>X>Xs.8.=X%X%X>XN. . . .A G U U I X.4.4.3.J m m m b {.&X:X>X:X>X(.t &X>X>X#X$X-X=X>X>X$X:X:X>X&X, '.%X$X%X>X;X",
">X>X$X$X:X>X>Xd s.=X%X%X>X>X@Xr ].>X;X$X>X>Xy.e.-X-X%X%XX. . .G G U U H U { 3.4.4.&.Z m m m m.&X>X>X$X>X/.t =X>X>X>X>X$X>X-X$X$X$X>X>X@X, |.>X=X>X>X>X",
"$X-X>X&X:X&X&Xk k &X&X>X>X>X@Xt  X>X>X$X>X=Xy.8.$X-X;XJ. . .K E U U U U / 1.2.5.4.4.J m m m Q OX$X>X$X&X`.t &X>X>X>X$X$X>X$X;X>X:X&X:X+Xo `.&X>X>X>X>X",
">X>X>X#X>X>X>Xk 8.&X&X>X:X>X@Xj .X>X>X>X>X>Xy.d :X:X&XN. . .N J  . . . .=.4.Z.3.4.4.Y m m m b H.-X>X>X>X`.2 %X>X>X$X>X:X>X>X>X$X$X:X:X@X# '.>X$X>X>X>X",
";X>X-X:X:X>X>Xk 8.&X&X;X$X$X@Xz @X%X>X>X>X&Xt.s @X@X&X:. .} N I  . . .o.4.4.V.2.4.4.*.m m m m m.>X>X>X:X'.4 @X%X>X=X>X:X-X>X>X-X>X&X:X@Xo '.&X>X>X$X>X",
", > # # 4 # 4 $ 8.-X&X>X>X>X$Xz +X>X>X>X>X>Xs.$ 8 2 6 }  .N F I  . . .*.Y.R.T.L.5.4.+.V m m m Q $X>X>X$X`.% 6 2 8 1 : 2 , > , > , > 4 & $ `.&X>X>X;X>X",
"$X@X@X.X.X].^.d 0.-X$X>X;X>X@Xj .X>X>X>X>X-Xb.a >X>X{. .| N H U D | +.<.I.U.U.L.P.-.| V m m m M &X$X&X>X|.o `.$X>X>X&X=X&X@X@X.X+X].~._.# |.=X;X>X>X>X",
"=X>X>X$X%X%X=Xd 0.=X$X$X$X>X@Xj @X>X>X>X>X$Xg.a =X=XF. .K W L L N G ;.3.Z.L.L.L.U.@. .C V m m m oX-X#X>X`.u $X;X>X>X%X>X=X=X>X=X$X%X>X@X+ }.%X$X$X>X>X",
"$X%X>X$X>X>X>Xu y.>X%X$X:X$X@Xj .X>X>X>X>X>Xf.a =X&XM. .G E L U I Y 4.4.1.2.Z.L.L. . .A m m m m H.-X-X>X`.e $X-X>X>X>X$X$X$X>X;X-X>X>X].& }.=X$X$X$X#X",
";X$X$X>X>X>X=X2 8.>X>X>X:X>X@Xs }.=X&X>X>X#Xu.e =X=X$. .N N L I  .=.4.4.4.4.V.1.` @. .A m m m m D.;X-X=X].t $X$X>X-X;X>X>X>X#X>X>X>X>X_.o '.>X>X>X>X>X",
"-X%X$X>X>X>X-X5 0.>X>X>X$X$X@Xu `.$X>X>X>X$Xt.u &X=X$. .R N L I O.<.4.4.5.6.C.1./ &. .| G G G F D.$X$X$X(.t %X$X>X;X-X>X$X>X%X>X>X;X>X_.# |.=X>X;X=X>X",
">X>X=X>X$X$X$X9 q.-X>X>X%X;X@Xs (.%X>X>X:X$Xa a >X=X:. .  F L U ' ,.5.3.T.R.R.` H &. .| ( ( ( ( N.%X$X$X^.t >X>X$X$X-X-X;X>X>X>X>X;X$X(.& `.>X>X&X$X>X",
"9.y.q.q.j j k $ - j t.a.s.s.j @ u i.9.g h e $ 7 l.k.%. .  F L ` 4.4.3.P.Z.L.{ / U *. .X.( ( ( ( ! 7.8.z s # 9.y.y.u.t.z z 9.s.q.7.j j 8 % i t.y.s.f.t.",
"$ u.f.f.s.p.s.$ = 9.g.j.j.j./.(.`.(.j.g.i.t.& 6 z 8.B  .  F U <.4.4.6.Q.I.L.` U U <. .X.( ( ( ( m.u.i.s.z . t.p.f.b.x.x.& d h.h.s.i.s.7.$ p d.j./.j.b.",
"u .X>X>X;X%X%X9.s $X%X%X>X;X$X=X$X-X$X$X-X-X0.a =X=X:. .  F ` 2.4.4.W.Q.L.{ U U U <. .X.( ( ( ( G.%X-X>X'.: $X$X>X=X$X$Xu f.=X=X%X%X$X$X# b.=X=X>X>X%X",
"w .X>X>X&X$X>Xt.u.$X-X>X;X-X>X:X%X;X>X$X-X>Xs.a $X$X$. .R F ,.1.4.4.S.I.L.` U G U *. .O.( ( ( ( G.>X>X>X'.: $X>X>X>X&X$X2 b.>X>X>X$X$X>Xt ].$X>X>X-X;X",
"d @X-X&X>X;X>Xd.i.&X>X;X$X-X;X>X>X>X>X-X$X>Xa.e >X&XN. .R Q L.L.3.4.1.Z.{ L L U U <. .O.( ( ( ( ,X>X>X>X_.< =X$X>X>X>X=Xi `.$X-X>X&X:X>Xt }.>X>X$X$X>X",
"k @X&X$X>X>X>Xd.i.$X&X:X$X>X>X&X$X>X$X>X>X>Xf.t &X&XF. .N ' L.L.2.3.1.{ _ U L L U 4. .T ( ( _ _ <X$X>X>X/.e &X-X>X>X$X&X8 [.$X-X>X>X>X>Xe ].$X-X$X;X>X",
"u  X$X>X>X>X>Xi.i.$X&X&X-X-X>X;X>X>X>X>X>X>Xx.u &X&X,X .^ V.L.L.1.3.6.{ L L L L ` +. .T ( ( ( _ %X#X>X>X(.a $X$X%X>X>X@X6 j.$X>X>X:X>X>Xq ].;X$X>X$X;X",
"u .X-X>X>X>X>Xu.i.@X&X&X&X$X@X$X@X@X@X X}.|.k.8 $X$X&X| ,.B.L.L.1.5.4./ U U U U 1.o.| ) ( ( _ ' |.}..XXX/.j :X>X>X%X$X@X6 j.%X$X>X>X>X:Xw |.&X:X&X&X@X",
"w .X&X>X>X>X-Xu.& X X w 5 > , # # & & * 4 7 - p $X:X&X>.3.B.Z.L.1.2.=.I H U U ^ 2. .| _ _ _ _ ! + , @ o o d &X-X$X>X>X@X> ~.=X:X>X>X&X:X4 o X : u : > ",
"8 .X$X>X>X>X-Xt.j ].}..X.X.X.X X|.|.}. X X.Xl.d :X&X@XE.4.] V.L.L.1.o.| G L L ` 4. .<.!.!.!.!.,X X@X+X}.f.a $X>X>X>X>X@X6 j.=X>X>X>X&X&X, b.]. X.X.X.X",
"8 .X-X>X>X-X-Xf u.:X&X>X&X$X>X=X=X%X$X$X:X:Xx.i &X&X&X1X3.1.B.L.L.1. . .F U L 1.@. .T.5X5X5X6X<X$X;X-X-X`.r &X>X>X>X>X.X6 h.$X-X:X:X:X&X1 ].&X>X:X-X:X",
"r @X$X:X$X>X&X0.y.:X&X>X>X$X>X$X>X>X>X>X$X>Xb.u &X&X=X*X4.4.V.C.{ ` 1.U.~ L ` 4. .+.!.5X5X5X1X>X;X;X>X>X`.a $X@X-X-X>X&X1 `.=X&X>X>X>X$X, ].:X>X:X&X$X",
"j @X>X$X>X>X>X0.f.:X>X>X>X:X$X>X>X>X$X;X>X>Xv.8 &X$X>X$XE.4.<.B.[ U ` Z.[ / P.o. .P.4X5X5X5X<X>X$X;X>X>X`.r :X#X-X-X>X&Xq }.>X&X>X>X>X&Xi .X>X>X>X>X:X",
"f @X>X>X>X>X:Xy.f.=X>X>X>X>X>X:X>X$X$X$X>X>Xx.u %X$X>X:XOX5.4.1.W H U L U P.-. . .W.2X2X2X3X*X;X-X-X>X-X'.r ;X-X:X-X>X=Xt ].>X>X&X>X=X&Xa .X:X>X>X>X>X",
"t @X>X>X>X:X=Xe.y.%X&X$X%X=X;X;X>X>X;X$X$X>Xx.6 %X>X>X>X&XE.4.=.I ^ { L.Y.o. . .| ( ( ( ( ,X-X%X$X>X>X>X}.3 >X$X-X$X>X-Xl (.=X>X>X&X>X&X8 ].$X$X%X;X>X",
"3 v.).).`.b.x.9 s (.`.^._.(.`.(./.b.(.`.'.`.8.$ b.v.v.b.j.z.:.o. . .+.@. . . .| ) ( ( ( ! z./.)./.(.(.(.v.9 ).(.)./.(./.u t.).`.`.(.b.u.& s.^.(.(.^.(.",
"d s a r s q.8.& 6 j 9.j z 9.j # ; r s z t.y.0 7 3 d 0.9.l q.r.|  . . . . . . .) ( ( ( ` p - 8.y.8.z k j i = s 8 u r k q.z d u u u z 8.s $ a l l z 9.y.",
"=X=X=X>X$X$X$Xq.u.=X%X=X=X$X.X8.XX>X>X>X$X=Xk.8.%X>X>X>X%X;X>X,X&. . . . .| ( _ _ _ B.oX$X1  X>X-X=X-X>X`.h =X&X%X$X=X$X$X&X=X%X>X$X=X@X6 |.%X=X%X%X%X",
">X>X=X$X$X$X>Xq.0.=X#X$X%X=XXXd .X%X=X$X=X=Xs.8.;X%X%X;X$X>X>X%X*XF.:.:.>.! ' C.A.,X>X-X&Xw  X>X>X:X$X>X~.t $X&X&X#X$X%X>X>X>X-X&X$X=X&X, ].%X#X%X;X%X",
";X>X$X-X>X>X=Xk y.;X=X;X>X>X@Xi }.>X$X$X>X>Xy.e.>X$X&X:X>X#X;X-X$X:X=X>X>Xs.k.>X>X>X>X>X=Xe [.>X>X>X&X>X(.a =X>X=X>X$X$X=X=X:X$X>X>X>X@X5 }.>X>X>X>X>X",
"=X>X:X-X=X&X:Xs 0.=X&X>X>X>X+Xq ].>X>X$X>X>Xy.8.$X$X>X:X$X$X>X>X>X-X>X>X>X8.8.>X%X>X>X>X=X4 `.>X-X>X$X>X(.a =X>X>X>X$X$X:X>X$X-X-X>X$X+X@ |.$X>X>X>X>X",
"$X>X>X@X&X;X&Xk 8.$X=X>X>X>X@Xj .X>X-X>X>X;Xu.k &X>X&X&X:X>X$X$X>X$X$X>X>X8.l.>X%X=X$X>X$Xo /.$X$X>X=X:X].q %X;X>X$X>X$X>X$X>X$X@X-X&X@Xo '.&X$X>X>X>X",
"@X$X&X#X&X&X&Xk 8.>X&X>X;X$X@Xz @X$X>X>X>X-Xu.s .X+X+X+X@X+X+X$X$X$X$X@X&Xd l.:X>X%X$X>X$X. j.$X>X>X:X=X`., @X@X$X@X$X$X$X$X$X$X$X&X&X+X$ '.&X-X>X%X>X",
"w u 8 2 u u p * 8.&X$X;X;X>X$Xz @X>X>X;X>X$Xa.$ 8 & , > > @ , ; ; < w < < o z &X=X>X>X$X&X& b.>X>X-X>X$X`.- 0 4 6 2 1 2 , 2 u 5 6 u a 8 $ `.$X>X>X>X>X",
"b.g.x.f.d.y.y.9 0.>X%X;X>X>X@Xj .X>X>X>X>X=Xh.u }..X.X X'.}.}..X+X@X+X+X+Xk u $X$X>X=X>X:X5 b.>X$X$X$X:X|.o s.]. X].(.(./.g.f.f.f.i.y.u.# ].=X%X>X>X>X",
"=X>X=X%X%X%X=Xj 9.=X$X$X$X;X@Xz .X>X>X>X>X$Xb.s =X=X&X=X%X%X;X>X;X>X#X$X>Xx.w &X=X>X>X>X$Xu b.>X:X$X-X>X].2 ;X>X>X>X%X=X=X=X=X=X%X$X>X@X+ [.$X$X$X:X>X",
"%X$X&X%X>X:X=Xi y.=X;X$X$X$X@Xj @X>X>X>X>X%Xf.a >X>X%X>X;X;X;X>X;X-X$X&X:Xc.s @X$X>X>X&X&Xj /.>X$X-X$X>X`.t ;X;X>X>X>X%X%X$X>X>X%X=X>X}.# |.=X-X$X$X$X",
"%X$X$X>X>X>X=X5 0.>X>X>X>X>X@Xs  X>X>X>X>X&Xs.r >X>X;X-X>X>X>X>X%X>X;X>X-Xt.3 $X@X;X>X$X-Xs b.>X>X$X$X-X_.t :X-X:X:X>X>X-X$X#X>X>X>X>X_.# [.=X>X$X%X$X",
"%X;X&X>X>X>X>X5 8.=X>X>X$X>X@Xi `.&X>X>X>X#Xt.a $X-X>X>X>X>X>X>X>X>X$X>X;Xy.1 @X%X>X>X#X$Xu (.=X>X$X-X$X`.a $X#X:X:X&X>X$X>X>X;X>X>X:X_.o }.=X>X$X=X>X",
">X>X>X=X:X$X$X8 q.=X>X;X&X&X@Xs (.&X:X>X-X$Xz a :X&X>X>X>X>X>X>X$X$X>X%X;Xy.2 @X=X>X>X>X$Xw `.:X:X$X$X$X_.t >X>X:X$X$X$X-X>X>X$X>X:X$X_.& '.>X>X=X%X>X",
"_.}.}.`.~.~./.- 8 ^. XXX@XXX^., t..X].^.^.g.& 8 @X.X.X].]. X X.X@X.X.X X`.i u .X+X.X@X X].4 y.b.(.~.(.(.d.2 ].].]. X].`.(.]..X'.(.~.~.y.% u.]..X@X@X.X",
"$ i 7.8.j h d $ $ s j l 9.z 0.y.a.y.l j t e & & r r u s k r o o + @ + , a 7 % u u 5 1 ; y d k s z j s d u . u s j 8.8.k o 6 9.8.7.t s 9 % 6 j l 9.z 9.",
"5 ].$X@X@X+X@Xs u .X@X$X$X$X$X$X$X$X$X@X+X+Xz u .X.X.X+X@X X4 u.`.].}.}.+Xu.9  X.X.X X]..X@X+X&X&X@X@X@X/.+ .X@X&X&X&X@X8 f.@X@X#X@X@X|.o s.@X$X&X$X#X",
"y .X>X>X-X%X$Xy.u.$X;X>X>X%X-X>X$X%X>X$X-X>Xu.t $X$X$X$X$X%Xs @X-X$X>X:X&Xx.p :X:X:X>X>X>X=X:X>X&X>X>X>X].: -X;X>X>X;X@X5 b.=X>X>X$X=X=Xe |.$X$X-X;X$X",
"s +X%X;X>X>X>Xi.i.>X>X>X$X%X$X>X=X$X>X$X$X;Xa.r =X$X:X=X=X$Xz $X>X&X>X:X:X/.8 $X>X>X:X>X>X>X>X>X>X&X>X>X`.1 ;X>X>X>X>X$Xu `.=X&X>X>X>X=Xt }.=X>X-X$X>X",
"k @X&X>X&X>X>Xd.i.$X$X>X$X-X>X>X>X>X>X>X>X>Xf.t %X%X;X>X$X>Xr @X>X>X>X-X>Xf.8.>X>X>X>X>X>X>X>X>X>X>X>X>X/.1 :X$X:X>X-X&Xu '.$X=X>X>X>X>Xe ].$X-X$X$X>X",
"i +X$X$X;X>X>Xa.i.$X$X>X;X$X>X:X>X>X>X>X>X:Xx.u $X$X>X>X>X$X2 $X>X>X>X>X>Xj.y.%X-X>X>X>X>X>X>X>X:X$X>X>X(.h $X:X:X>X=X@X3 (.%X$X%X>X>X>Xe ].%X-X;X$X>X",
"8  X-X>X>X-X-Xi.i.$X=X>X$X$X$X:X>X>X>X>X>X>Xl.r $X$X%X>X$X$X8 %X>X>X>X>X-X(.z ;X>X>X>X>X>X>X>X>X>X$X>X>X`.h $X>X$X&X-X$X6 g.=X$X>X>X>X>Xe ].&X>X>X$X$X"
};
