/* XPM */
static char *_82610b08c3b4d82d3c9910345411119X3DUi2h8h6jfwlx7[] = {
/* columns rows colors chars-per-pixel */
"75 75 222 2 ",
"   c #648D1A",
".  c #5E822A",
"X  c #658B25",
"o  c #668B26",
"O  c #62842C",
"+  c #668B2C",
"@  c #698E2C",
"#  c #6B9524",
"$  c #6F9A27",
"%  c #6D932C",
"&  c #70962F",
"*  c #729A2C",
"=  c #648435",
"-  c #688633",
";  c #678932",
":  c #6B8D34",
">  c #66833A",
",  c #6A873A",
"<  c #6D8D3B",
"1  c #718E3E",
"2  c #6D9233",
"3  c #6E913B",
"4  c #719334",
"5  c #759A34",
"6  c #72933C",
"7  c #7D973B",
"8  c #76983C",
"9  c #799B3C",
"0  c #6B8744",
"q  c #6E8B44",
"w  c #6E8A4A",
"e  c #718E44",
"r  c #738D4B",
"t  c #6F9041",
"y  c #759344",
"u  c #789644",
"i  c #799845",
"p  c #75924B",
"a  c #7A954C",
"s  c #7D9A4C",
"d  c #768D52",
"f  c #798E59",
"g  c #779151",
"h  c #7B9553",
"j  c #7E9952",
"k  c #7E955A",
"l  c #7E9858",
"z  c #7F9460",
"x  c #89942E",
"c  c #818D3B",
"v  c #979438",
"b  c #AB9C2A",
"n  c #AAAD25",
"m  c #AFAB2C",
"M  c #D89C0A",
"N  c #D59C10",
"B  c #E29E05",
"V  c #E19E09",
"C  c #E59F1E",
"Z  c #E3A206",
"A  c #E6A80A",
"S  c #EDB90A",
"D  c #F0BF0F",
"F  c #E9A411",
"G  c #EAAB15",
"H  c #E6A21B",
"J  c #E8A51D",
"K  c #EBAB1C",
"L  c #ECB514",
"P  c #ECBA11",
"I  c #EFB31C",
"U  c #EBBA1C",
"Y  c #F1BD14",
"T  c #F0B51B",
"R  c #F4BD1D",
"E  c #C6862D",
"W  c #CC832D",
"Q  c #D18D29",
"!  c #D89B23",
"~  c #C59231",
"^  c #E29520",
"/  c #E49C30",
"(  c #D4A428",
")  c #D0A732",
"_  c #E7AC2A",
"`  c #EFB527",
"'  c #F0B624",
"]  c #FBB526",
"[  c #F1BA25",
"{  c #F9B42A",
"}  c #F2BB2D",
"|  c #EEB83B",
" . c #F3BF36",
".. c #D9C00F",
"X. c #F1C40B",
"o. c #F4CC09",
"O. c #EBC414",
"+. c #ECC81C",
"@. c #F5C414",
"#. c #F5CD15",
"$. c #F2C11D",
"%. c #F6D11C",
"&. c #DBC238",
"*. c #EBC420",
"=. c #E3C32E",
"-. c #F3C922",
";. c #F5CE2D",
":. c #F7D326",
">. c #F7D42B",
",. c #F8D42D",
"<. c #E2C333",
"1. c #E0C830",
"2. c #F3C235",
"3. c #F5CC36",
"4. c #F3C33C",
"5. c #F5CB3C",
"6. c #F7D235",
"7. c #F8D533",
"8. c #F7D23B",
"9. c #F8D53D",
"0. c #8F9645",
"q. c #819A55",
"w. c #839856",
"e. c #81965D",
"r. c #839B5B",
"t. c #AA974B",
"y. c #88A05C",
"u. c #B9A347",
"i. c #B2A258",
"p. c #BDB15B",
"a. c #839664",
"s. c #859A63",
"d. c #899D65",
"f. c #85966B",
"g. c #89976C",
"h. c #86996A",
"j. c #8A9C6C",
"k. c #869971",
"l. c #8D9D73",
"z. c #8E9D79",
"x. c #919F73",
"c. c #919E7C",
"v. c #BF9E74",
"b. c #8AA166",
"n. c #8CA06B",
"m. c #9BA561",
"M. c #8EA173",
"N. c #8FA07A",
"B. c #92A276",
"V. c #93A27C",
"C. c #98A37D",
"Z. c #A5A86F",
"A. c #C7904F",
"S. c #D0A342",
"D. c #CBB943",
"F. c #DABF45",
"G. c #EDB542",
"H. c #EEB946",
"J. c #EDB44A",
"K. c #F0BC42",
"L. c #C19A68",
"P. c #CCBA6A",
"I. c #C2A972",
"U. c #C9BA72",
"Y. c #C5B67A",
"T. c #E6B86C",
"R. c #E6B970",
"E. c #DDC144",
"W. c #DFC759",
"Q. c #F4C441",
"!. c #F5CA43",
"~. c #F5CB4B",
"^. c #F6CB4C",
"/. c #F8D541",
"(. c #FADA4A",
"). c #E4C950",
"_. c #F4CB53",
"`. c #F4C958",
"'. c #F5D450",
"]. c #F9D454",
"[. c #F6D85C",
"{. c #FBDA58",
"}. c #D3C16E",
"|. c #F2CE6A",
" X c #FBDC69",
".X c #F3C876",
"XX c #F9D775",
"oX c #949E83",
"OX c #949E89",
"+X c #96A283",
"@X c #99A486",
"#X c #9DA887",
"$X c #97A18B",
"%X c #9BA48B",
"&X c #9EA88E",
"*X c #9EA593",
"=X c #9FA892",
"-X c #BCA986",
";X c #BEB58C",
":X c #A0A695",
">X c #A1A994",
",X c #A2A79A",
"<X c #A5AA9C",
"1X c #A8AB9F",
"2X c #B6AC99",
"3X c #B9B39C",
"4X c #A6ABA1",
"5X c #AAACA4",
"6X c #A8A7A8",
"7X c #AEAEAE",
"8X c #B0AFAE",
"9X c #AFB0AE",
"0X c #B5B1A5",
"qX c #B1B0AF",
"wX c #AFAFB0",
"eX c #B0AFB0",
"rX c #AFB0B0",
"tX c #B1B1B1",
"yX c #C1B687",
"uX c #CEB78C",
"iX c #F2CF8B",
"pX c #E5C790",
/* pixels */
"y 3 3 2 : @ @ $ r.7X8XtXtXtX7Xl 4XtXtXtXtXtXj.% r.r.w.k h h h d k a.k f f : a 7XqXqXqX7XtX3 V.tX9XrXtX9X&X# 9 h q.a r a y 1 < 2 : : + 4 # %X7XtXtXtXtX",
"<X,X,X:X>X*X*Xs r.qX7X9XtXtX5Xh <XtXtXtXtXtXV.p 7X5X5X7X5X5X5X7X7X7X7X6XwXd.e 7XqXtXtXtX7X6 V.rX9X9XrXrX>X+ %X5X7X7X4X4X1X<X,X:X>X*X%X&X@ *X7X7XtXtXtX",
"qXtXtXqXqX7XqXh a.qX9X7X7XeX7Xl 4XtXtXtXtX8Xx.p tXqXqX8X8X8XtXtX7XeXwXeXwXV.p 7XqXtXrXtX7Xa C.tX7XtX7XtX*Xe eXeX7XeXeXtXqXqXtXqX8X7X8X4X; *X8X7X7X8XtX",
"7X9XtXqXqXqXqX6 r.tXtX7XwX7X4Xp <XtXtXtXtXtXl.p tXtXwXtXtXeXeXtXeX8X7X7X9Xl.y 5X6XtXwXtXtXj V.tXeX7X7XrX%Xw 8X7X8XeXtX7X8XqXtXtX7XwX8X*X% *XqXqX7X7X7X",
"tX7X7XtXtXtXeX< r.tXtXtX7XtX4Xa >XwXeXtXtX6Xs.q qXtXtX7XqXtXtXeX8XtXtXeXrXe.< 7XqXtXtX6X7Xa V.rXtX7X7XtX%Xe 8X7XtXwXqXtXtXtX6XtXtXqXtXOXX &XqXtX7XwXtX",
"tXtX8XtXtXtXwX8 r.tXtXtX7XeX5Xu %XwXwXeXrX7Xa.p 9X7XtXtXtXtXtXtXtXtX7X7XtXa., 4XtXrX9X7X8Xe @X9XwX7X7X7X$Xp eX7X7X7X7X7X9XtXtXtXqXqXeX%X% >XqXtXwX7XeX",
"tXtXtXeXtX7X5X5 q.qXtX8XeXwX5Xp +XwXrXrXrX9Xy y tXtXtXqXtXeXeXtXwXwX8XeXtXs.6 7XqXtXtXtX7Xe @X9XrX7X7X7X$Xr wXeX7X7X8X8XtXtXtXtXqX8X7X+X& #XtXtXeXwXeX",
"4 y u 1 ; - : # $ ; q r h a < + 3 p q = O . # & a p y e e u u a s p y y u # $ a a y p y 6 # X O : + : : 2 # < y y a e 1 4 6 a 6 : - - % $ @ , r h a r ",
"2 n.@X+X+Xc.V.5 & x.+X@X@X@X%X%X%X%X@X@Xc.l.6 8 l.l.M.V.C.l.# 8 k e.a.d.V.s 5 n.M.M.h.a.M.C.+XV.@XV.V.@Xs.X l.V.+X#X@XC.2 l @X@X+Xc.V.d.# s +X@X@X@X@X",
"3 <XtXtXtXrX7Xa.h 8X8X7XtXtXeXtX7X7XeXwXrXrXs.e qX7XqX7X9X6Xp <XtXeXtX7XrXj.i rXtXtXwXwXtXtX9XtXtX9X9XtX*X, eXtXtX7X9X7X3 z.9X9XtXtXwX9X: @XqX9XeXeXwX",
"y 4XtXtX7X7XrXh.g.7XtXtX7XtXeXtX7XtXqX7X7XtXd.p qX7X7XwXtXrXh 5XwX7XeXeXrXV.6 5XwXwXrXtX9XtXtXtXtXtXtXtX%X, 9XtXtXtXtX7X3 @XtXtXtX7XtXtXr ,X7XtXtXwXtX",
"s 5X7XwXtXtXtXg.f.wXtXtX7X7XtXeXeXtXtXtXtXtXk.w qXqXtXtXwXrXh 5XeXtXtXeX9XV.a 7XtXtXtXtXtXtXtXtXtXtXtXtX@X> 7XwXtXtXtXqXy &X9X9XtXtXtXtXw *XtXtXwXwXtX",
"j 5X7X7XtXtXtXk.g.7X7XrXwX7XtXtXqXtXqXtXtXwXl.r qX7XeXeXeXeXe 4X7XeXwXtXtXl.r.7X7XtXrXtXrXtXtXtXtXrXtXtX+Xr 9XtXwXqX7X7X4 =X7XwX7XtXtXtXw =X7XtXwX7XtX",
"y <X7XeXtXrXtXh.a.7X7XtX7XeXtXtXtXtXtXtXtXtXM.y 7X7XtXtX7X7X< 7XeXeXtXtXwX+Xd.qXwXtX9X9XtX9XtXtXtX7XtXtX@Xg rXrX7X9X9X7X< V.8XwXtXtXtXtXw =XqXqXeX7X7X",
"y ,X9XtXtXtXrXh.a.,X4X5X4X4X,X<X<X>X>X>X:X>Xd.8 7X9XtX7X8X7Xy 8XeXeXeX7X7X$Xy <X<X0X4X4X4X4X,X,X*X%X:X:Xz.k 7XtXtX7X7X5X3 z.7XtXtXtXtX9Xq @X<X4X5X4X4X",
"t ,X7XeXrXwXwXs.: p r h l h l a s i s s y s 8 i 7X7XtXeX7X8Xq 5X7XeXeXtXrX+X@ h h h h h s j h a r a h y 4 s 7XtXtXtXtX5X@ c.tX7XtXtX7X7X2 e r g l h h ",
"u <XtXtXtX7XtXe.l 4X5X5X9X5X5X4X<X<X<X4X4X5XM.j rXtXtXtXtXtXd <X5X7X9XrXrXz.h 5X7X5X5X5X4X<X4X5X4X8X7X<XM.p 9XrXtXtXtX4X4 V.9XtXtXtXrXqX: @X4X5X9X5X5X",
"6 ,XrXtXtXtX7Xl a.rXrXrXrX9XtXtXeXeX7X7XwXeXB.y 7X8XtXtXtXrXh 1XtX9XrXtX7XC.d.qXwXtXeX7XtXtXtXtX7XeXtX8X%Xr 9X9XtXtXtX5X4 c.9XrXtXtXtX5X> =X9XtX9X9XtX",
"r 4XqX7X7XtX7Xr.d.tXqXtXrX7XtX7XtXwX7XwXtXtXB.y 8X8X8X8XrXtXh <XeXtXrXqXrX+Xa 8XrXrXqXtXtXtXtXtXtXtXtXtX%Xr tX6XrX7XtXqX, %XqX7X9XtXqX9X3 ,XqXtXrX9XrX",
"d 9XqXtXtXtX7Xs.M.qXtXtXrXtX7XtXtXtXtX7XtXtXB.6 qXeXtX8XtX7Xg 7X0XY.U.U.Y.i.v v.I.2XqXtXtXtXwXtXeXtXtX7X@Xq tX7XtX7XtXtX0 :XqXtXtXtXqX9Xp <X9XtXtXtXrX",
"d 5XtXtXtXtXtXr.l.7XqX8XtXeXtXtXtX9X7X7XtXtXM.u qX8XqXtXwX0Xm =.X.o.o.o.o.o.X.S Z B V S.-X9X7XrX7X7XtXtX*Xq tXtXeXwXtX7Xd *XtXtXqXtXtXqXy ,XqXeXtXtXtX",
"a 4XtXtXtXtXtXr.a.7X7X7XeXtX8X8XtXtXtXrX8XtXM.2 8X0XeXqXyX+.o.o.o.o.o.o.o.o.o.o.o.A Z Z B S.2XrXtXwXtXrX=Xy tX7XwX7XtXrXk +XqXtXtX8XtX9X< *X7X8XqXtXeX",
": r.d.d.j.d.r.5 8 s.g.g.g.j.j.h.s.a.s.n.B.j.u $ r.r.q.D.o.o.o.o.o.o.o.o.o.o.o.o.o.#.[ Z B B ! i.s.d.h.s.r.5 n.j.j.d.d.d.3 s n.s.d.j.r.a % l a.g.j.g.j.",
"b.r.r.l r.b.b.4 8 a.s.a.a.s.q.# y l r.s.a.j.u 9 w.r.n o.o.X.o.o.o.o.o.o.o.o.o.o.o.>.7.*.B B Z M v d.s.s.s 5 y.q.r.q.d.b.n.y.r.q.l b.n.r.# j a.a.s.a.s.",
"qXqXqXtX7X7X7Xy.d.9X7X8XtX8X1Xq.4XeXeXeXqXtXn.q.8XP.o.o.o.o.o.Y G J J K L X.o.X.:.7.7.7.-.B B B V yXtXtX@Xg qXqX7X5XtX7X7XqXqXwXtX7XrX7X2 >XqX7XtX8X8X",
"tXtXtX8XrXrXtXr.s.9X7X7XtXtX5Xq.<XeXtXeXtXtXj.q.U.+.o.o.X.P F C J K K K J K L :.7.7.7.7.6.L Z B V ) 0XtX+Xp 9XtX7X7X7XwXqXtXtX7XrXrXtX9X2 %X8X7X8XtXeX",
"eXtX7X7XrXtXtXs d.qX8X8XtXtX4Xe :XtXtX7XtXtXs.r.@.o.o.o.L C K T I I I I I I ` 4.6.7.7.7.6.;.A B V V S.tX+Xp tXtXtXtXtX7XtXwX7X7X7XrXtX5X< ,XqX7XtXtXtX",
"7X7XtXwXrX9X9Xj h 9X7XqXtXtX5Xr >XtXeX7XtXtXs.n o.o.o.S C K T T I I T T T [ Q.4.Q.8.7.7.7.7.U B B B M 2X%Xr qXqXtXeX7X7XtX7XtXtXrXwXwX4XX #X9XtXtXtXtX",
"tXtXtX6XtXtXrXj q.tX9XtXrXtX5Xh 4X8XtXtXtXtXm...o.o.X.^ I Y o.o.o.o.o.o.o.,.7.6.K.!.7.7.7.7.;.A B B B A.%X, qXtXtXwXtXwXtXtXtX7X7X7XrX5X% &XtX7XtXtXtX",
"eXtX9XtXtXtXrXj q.qX9XtX7X7X5Xl 5X8XtXtXtX7Xp.o.o.o.H K I Y o.o.o.o.o.o.:.7.7.3.G.Q./.7.7.7.7.R B B B ( Z.@ 1XqXtX8XtXtXwXeXtXrXtXrXrX5XX %X9XtXtX8XtX",
": ; : @ 2 : 2 # q.9XrXtXtXtX7Xl 4XtXtXtXtXrX&.o.o.D C I I Y o.o.o.o.o.-.Q.'.'.'.`.Q.!.9.7.7.:.X.B B B B u.$ 4 < 6 , - < : ; : : @ : 2 2 % @X9XtXtXtXtX",
"7X4X4X1X,X*X+Xs r.rX7XtXeXtX4Xh <XtXtXtXtX3X*.o.o.G K T I I L P o.o.%.7.G.~.~.~.~.Q.Q.].7.,.#.o.A B B B ~ X @X7XtXtX9X9X9X5X4X<X<X>XOX@X+ =XtX8XtXtXeX",
"tXtXqX8X8X8XtXa r.qX7X7XwXtX5Xl 4XtXtXtX9X;Xo.o.D J I I I I J C J @.7.7.4.K.Q.Q.Q.Q.Q.^.9.#.o.o.S B B B N , 6XtXtXtX8XtXtX8XtXqXeX8X8X5X+ =X8X8X8XeXqX",
"7X7XtX7XtXtXtXu s.tX8X7XwX7X4Xh 4XtXtXtXrXU.o.o.L J I I I T Y D U >.7.7.6.4.5.4.K.Q.Q.Q.9.o.o.o.S Z B B M 0.7X9XtXtXtX7X7X7XtXtXeXtXtX*X: >XqX8X7X7X7X",
"8X7X7XtXtXtXqX< r.qXtXtXtXtX4Xa :XeXeXtXtXF.o.o.G K I I I Y o.#.>.7.7.7.7.7.7.6.G.Q.4. .5.o.o.o.o.Z B B M v 8X7XtXeXtXtX8XtX6XtXtXtXtXOXX *X8XtX7XtXrX",
"7XeX7XtXtXtX7X2 r.qXtXtX7X7X5Xu %XwXtXtXrX&.o.o.G I I I I Y Y -.6.7.7.7.6.9.9.5.J.Q. .T !.o.o.o.X.F F F Z t.8X8XtXwX7XtX7XtX8XtXtXeXtXOX@ &XqXtXeX7XwX",
"tXtXtXtXtXqX7X8 r.qXtXtX8XeX5Xp @XwXeXeXwX*.o.o.K I I I T T _ G.4.7.7.6.G._.[.[.[. .' K 4.%.o.o.o.R ] ] ] u.8XeX7XwX7X7XtXtXtXtX8X7X7X@X% &XtXqX9X7XtX",
"r.s.d.r.h d h * & l a.d.j.j.h + y s.a.f f X.o.o.K I I I T [ 6.6.7.7.7./.J.H.Q.Q.Q.' T ' 2.:.o.o.@.R ] ] { b e.d.s.d.r.l l e.j.r.l h a u $ u e.a.j.l.a.",
"% d.x.l.j.g.h.% % a.l.c.c.c.@X+X@X@Xc.l.f.O.o.o.G I I I [ 3.7.7.7.7./. XXXQ.Q.Q.` T T T 2.7.o.o.o.R ] ] { b e.g.l.V.V.M.% a B.x.l.f.j.s # u l.c.+Xc.V.",
"3 <XqX8XtX8X8Xq.a 7X8XeXtXeX7XqXeX7XwXwX8X=.o.o.T K I ' 4.5.7.7.7.5.XXXX`.Q.Q.} ' I T T 4.:.o.o.o.] ] ] { v 6X8XtXeX7X7X6 c.tXtXeX8XwX9X+ C.qXeXtXtX7X",
"y <XtXtXtX7XtXg.f.7X9XtXeXwXtXeXeXeXtXtX7XE.o.o.L I T  .Q.4.6.7.7.4.`._.Q.Q.2.' I I I I Q.:.o.o.X.] ] ] ' v 8XtXtXtX9X7X< V.tXtXtX7X7XtXr =X7XtXtX7XrX",
"j 4X7XtXtX7XtXh.g.tXtXtX7X9XrXqXtXeXtX7XwXP.o.o.Y T  .Q.Q.Q.5.7.7.7.G.Q.Q.4.I I I I I I ].o.o.o.@.] ] ] ` c 7X7XtXtXtXqXy %X9XtXtX7XrXtXw >XtXtX7X7XeX",
"h 4X9X7XtXtXtXk.f.7X9X9XwXtXtXeXwXtX7XtXqXyXo.o.o.[ Q.Q.Q.Q.Q.6.7.7.| K.4.` I I I I I I ].o.o.o.@.] ] ] _ u 7X8XtXtXeX7X6 >X7X7XtXtXtXtXw :X7XwXwXqXeX",
"u ,X7XtXtXtXtXa.a.7X9X7X7XwXtXrXwXtXtXtXtX3X+.o.#.3.Q.Q.Q.Q.Q.5.7.7.6.| ` I I I I I I ' (.o.o.o.R ] ] ] ( d 7XeX7XtXtX5X4 c.7XtXtXrXtXtX0 *XeX7XtX7XeX",
"y ,XwXtXtXtXtXh.f.9X9X9X7X9X7X5X5X4X4X,X:X>X=.o.7.6.4.Q.Q.Q.Q.4.8.7.7.[ H I I I I I T ].>.o.o.o.] ] ] ] m k eXeXtX7X7X7X4 c.tX7XtXtXtXtXq =X9XrX9X9X5X",
"y <X7XtXtXtX7Xd.+ O . < 3 ; ; % + % * * & 5 n :.7.7.5.Q.Q.Q.Q.Q.5.7.:.o.C I I I I I }  Xo.o.o.@.] { { ` x s eXeX8X8XqX5X; c.qXeXtXtX7X9X2 X . - y - ; ",
"y ,XwXtXtXwXwXz h =X:X<X<X<X<X,X:X>X>X,X>X1XZ.1.7.7.6.5.Q.Q.Q.Q.5.;.o.o.P H I I I ' ~.7.o.o.#.`..X.X.XuXB.p 7XtXtXtXtX4X4 V.tXwXtXrXrXrX: V.=X,X4X,X,X",
"4 ,XrXtXtXwXwXh d.rX9XtXwX9XtXqXtXqX9X9X9XqXC.n 7.7.7.8.Q.Q.Q.Q.4.$.o.o.o.C I I I 5.(.o.o.o.3.iXiXiXiXuX%Xe 7XtXtXtXtX<X4 l.7XtXrXrXrX9X, =X9XtXrXrXtX",
"p 4X9X7X7XtX9Xr.s.rX9XtXtX7XtX7XtXtXtXtX7XtXV.7 6.7.7.7.8.Q.Q.4.[ I !._.^./ K T 2.{.%.o.o.X.|.iXiXiXpXeX%Xp wX6XwXwXtX9X, @XtXtXtXtXtX7X: =XrXtXrX9X7X",
"d 9XtXrXtXtXtXr.l.rXtXtXrXtX7XtXtXtX7XqXtXtXB.6 }.8.7.7.7.8.!. .I I } K.K.| ' ^.{.#.o.o.o.Q.iXiXiXpX0XeX@Xq rX7XwX7XtX9X0 :XtXwXtXtXtX9Xp <XqXtXtXtXrX",
"d 5XrXtXtXtX9Xa.l.qXtXtXtXtXrXtXtX7X7X7XtXtXM.u 0XW.7.7.7.7.7.3.} T T T [ 4.{.(.%.o.o.o.O.T.T.T.R.uXtXeX&Xy eXeXwX7XtXrXr *XtXtX7XtXtX9Xp <X9XtXtXtXtX",
"r 4XqXtXqXtXtXy.s.8X9X7X8XtXwXtXtXtXtX8X7XtXM.4 9X0X).7.7.:.o.o.%.7.9.(.(.,.#.o.o.o.o.X.Q W W W -XeXeXeX:X1 eX7XwX7XtXwXk @XqXtXtX9XtX9X4 ,X7X7X8XeXtX",
"1 V.&X#X#X+XB.9 a %X@XOX@X@X%XOX@XoX+X@X%X#Xq.# B.V.m.&.:.o.o.o.o.o.o.#.o.o.o.o.o.o.P ! W W E t.oX@X@X@XB.8 @X@X#X@X#X+Xy s.@X#X#X@XV.s.% j.oX@X@X@X#X",
"j i y e h q.q.& 4 h e.h l e.h @ O e h l a.s.9 5 6 s r.r.D.o.o.o.o.o.o.o.o.o.o.o.o.L Q E W W t.s.w.q.h h u * a 8 y 1 l r.l s a e y l r.a # p k k k k a.",
"qXqXqXtX7X7X7Xr.r.qX8XqXqX8X1Xq.1XtXtXeX7XqXn.q.qXtXtXtXtXyXE.X.o.o.o.o.o.o.o.U ! W W E v.< =XtXeXeXwXeX%Xg 8XqX8X7XqX7X7X9XqXqXtX7XqX5X4 :X8XqXeX8X8X",
"tXqXqX7X7X7XtXr.r.qX6X7XqXqX1Xs <X8XtX9XtXqXd.q.qX7X8X8XtXtXtX0XP.&.<.<.| ) b A.A.L.-XtXrXw ,XqXeXeX7XeXoXr 7X7X7X6X7X7XtXtXqX7X7X7XtX9X: =X8X6X8XeX8X",
"tXtX9XtXtXrXrXj j.8XqXtXtXtX4Xa ,XtXtX7XtXtXd.r.tXwX9XtXtX6XrXeXeXtX7XtXtXn.n.qXtXtXtXtXqXq :XtXtXwX8XtX@Xp tXtXqXtXwX7XtXtX7XwXrXrXtX5X3 >XqXtXtXtXtX",
"tXtX7X9XtX9XrXs r.qX9XtXtXtX1X0 %XtXeX7XtXtXs.r.7X7XtXtX7X7XtXeXtXtXqXqXtXl r.qX8XtXtXtXqX2 @XtXtXtX7XtX@Xp qXtXtXtX7X7XwXtXtX7XwXwXwX4X+ *X9XtXtXtXtX",
"7XtXtX6X9X8XrXj q.7XqXtXtXtX5Xh 1XtXeXeXtXeXs.j 9X9XrX9XrXtXwXwXtX7X7X9XtXj n.9X8XqX7XqX7XX +X7X7XeXtXtX*X0 tXeXtX9XtXeXtXwXtX7X7XwXrX5XX #XrXrXtXtXtX",
"5X7X9X6X9X9X9Xj q.qX9XtX8X7X5Xl 4X8XtXtXtXwXd.s 4X4X4X4X4X4X4X5X7X7X7X7X9Xs n.9XqXeX7XtX7XX c.7XtXtXtXtX@X: 4X5X7X5X7X5X7X7XwX5X5X9X9X5X% &XrX7XtX8XtX",
"q y y < 6 y i % q.9X7XeXtXtX7Xl 4XtXtXtXeXeXd.# 4 2 : + : + : > > > 0 > > X j 9XqXtXtX7X9X@ V.tXtXwXrX7X&X* 5 2 < < , < < < y 3 6 y y 4 % @X7XtXtXtXtX",
"V.l.l.l.l.s.s.8 r.tX8XeXtXtX5Xh <XtXtXtXtXeXl.y ,X,X<X<X%X:X>X<X4X4X4X,X4Xj u 7X7XtXtXtXrX3 V.rX7X7X7XrX>XX j.:X:X>X@X@X+Xl.l.l.j.g.s.j.@ *XqX7XtXtXtX",
"qXqXqX8X7X8XqXh e.qX7X7X7XeX5Xl 4XtXtXtXtXwXV.a qXqX7X8X8X8XeXtXeXtX7X7XtXM.q 9XqXtXtXtX9Xy C.rXtX7XwXtX%X1 eXtXtXtX8XqXqXqXtXqX8X8XqX5X+ *X8X7XwXwXtX",
"8X7X9XqXqXqXqXy d.qXeX7XeX7X4Xh 4XtXtXtXtXwXl.p tXtX8XtXeXeXeXtXtXeXwXrXrXN.p 5X7XtXtXwXrXs +XtX7XwX7XtX%Xr eXtXtXtXeX8X8X7XtXtX7XqXqX,X@ =XqX7X7X7X7X",
"8X7X7XeXtXtXtX3 r.tXtXqXqXqX4Xa <XtXtXtXtX7Xh.p 9XtXtXwXtXtXtXtXtXtXwXtXwXa.1 7X5XtXtX7XrXa V.tXtX7X7XwX*Xr 9X7XrXrXtXtX7XrX6XtXtXtXrX$X@ =XqXtX7X8X7X",
"7XtXwXeXtXtXtX3 r.7XtXtX7XtX4Xa %XtXtXtXtX6Xa.p 7X9XtXeXtXtXtXtXtXtX7XtXeXs., 5X8XeXtX6X7Xy @X9XtX7XwXwX$Xp 7X6XrXwXwXtX7XtXeXtXtXtXrX$XX =XqXtX7XqXtX",
"tXtXeXwXrX7X7X8 r.qXtXeX7XtX5Xu @X7XtXqX7X7Xl a rXtXtXeXtXeXtXtXqX8XqXqXtXs.< 5XqXtXtXtX7Xq %XwXtX7X7XwX@Xr tXtXwXwX7XrX7XtXtXtXtXwX7X$X% &XtXtXqX8XeX",
"@X>X>X%XoXoX+X% 8 OX<X1X4X4XOX: a.<X>XOXOXz.% 6 4X<X<X=X*X,X,X4X4X<X<X:X%Xu y <X4X<X5X,X*X2 s.V.+XoX+X@Xl., *X=X=X,X*X%X@X*X<X%X@X+XoXs.$ s.*X1X5X4X,X",
"# a q.q.h h s # % p h l k k r.d.d.a.k h r w % % 1 e y p h e # X O + O , i 5 $ y y 3 , - 3 j j a j h p j y   p a l r.r.j X 4 q.q.l a a 8 $ 4 h h e.l e.",
"< >X5X5X5X4X4Xa y ,X5X9X7X7X7X7X7X7X7X5X4X4Xl y <X<X4X4X5X,X2 s.%X*X:X>X4Xd.8 ,X4X,X,X*X<X4X4X9X9X5X5X5X+XO ,X5X5X9X5X5Xy j.7X5X6X4X6X>XX n.5X7X7X7X7X",
"y ,XtXtXwX7X8Xa.d.7XtXtXtXqX7XtX7X7XtX7XwXtXd.r 8X7X7X7XwX8Xa 5XeX7XrXrXwXl.s 9XtXrXrXtXtXtXrXtXtXtXtXtX%X, wXeXtXtXwX5X< V.qXtX8X7X8XqXw >X7XeXeXtX7X",
"a 4XtXwXtXtXtXg.g.qXtXtX7X8X7XtXeXwXtX7X7XeXh.e qX7XtXeXeXeXl 5XrX9XrXrXrX+X6 5XtXtXtXtXrXtXtXtXtXqXtXtX%X, wXtXtXtXtX7Xy @XqX7XeX8XtXtXr >XqXtX7X7XtX",
"j 5X7XtXrXtXtXk.g.wX7XwX7XwXtXtXtXtXtXtXtXeXl.r 8X8X8XrX7XtXr 4XtXtXtXwXeXM.r.qXtXtXtXtXtXtXtXtXtXtXrXtX+X, rXwXrXtXwX9Xy >X7XqXqXtXtXtXw *X7X7X7X7XtX",
"u 4X7X9XtXeXtXk.a.7X7XwXwXwXeXtXtXtXtXtXtXrXM.p 7X7XtXtXtX7Xy 5XtXtXtXtXtXc.d.7X9XtXtXtXtXtXtXtX9X9XtXtX@Xg wXrXwXtXqX5X< @X7X9XeXtXtXtXw =X8XwXeXwXeX",
"6 ,X7XtXtXwXtXa.a.7XtXtX7XwXwXrXtXtXtXtXtXtXn.1 7X7XeXtX7X7X6 8XtXtXtXtXwXOXq.tXtXtXtXtXtXtXtXtXtX9XtXtX@Xg wXtX7X9X7X7X4 z.qXqXtXtXtXtXw *X9XqXtX7X7X"
};
