/* XPM */
static char *_bb2ec1dff8e48ccfbf23c55c15ed106J82tvSscbbRdZBMa[] = {
/* columns rows colors chars-per-pixel */
"75 75 213 2 ",
"   c None",
".  c #3B312D",
"X  c #441A1A",
"o  c #411616",
"O  c #47201D",
"+  c #4B2823",
"@  c #522C25",
"#  c #47342B",
"$  c #58392B",
"%  c #4E3C33",
"&  c #513E35",
"*  c #643F31",
"=  c #544139",
"-  c #58463E",
";  c #57402D",
":  c #694B36",
">  c #6A513F",
",  c #7C5E3A",
"<  c #795737",
"1  c #67442E",
"2  c #796438",
"3  c #6E7936",
"4  c #5C4B43",
"5  c #5B4242",
"6  c #545454",
"7  c #624E48",
"8  c #63534B",
"9  c #6C5545",
"0  c #785C46",
"q  c #6B5B54",
"w  c #695A53",
"e  c #745555",
"r  c #7E654B",
"t  c #7A6446",
"y  c #72635D",
"u  c #7C6755",
"i  c #6F6059",
"p  c #6D6D6D",
"a  c #656565",
"s  c #796B65",
"d  c #7D6E69",
"f  c #766761",
"g  c #7E716A",
"h  c #737374",
"j  c #7A7A7A",
"k  c #6F7070",
"l  c #845E39",
"z  c #845E37",
"x  c #85633B",
"c  c #8C643C",
"v  c #8C6A3B",
"b  c #90673D",
"n  c #936B3E",
"m  c #986F3E",
"M  c #8A743D",
"N  c #95733E",
"B  c #99743F",
"V  c #9E793F",
"C  c #A17A3D",
"Z  c #825F44",
"A  c #856947",
"S  c #937343",
"D  c #9B7640",
"F  c #9D7A42",
"G  c #98784A",
"H  c #8A7353",
"J  c #947A54",
"K  c #9A7D56",
"L  c #977B57",
"P  c #886F4A",
"I  c #A37D43",
"U  c #A87E48",
"Y  c #846D67",
"T  c #81746E",
"R  c #8B7669",
"E  c #847771",
"W  c #8B7E79",
"Q  c #887B74",
"!  c #987F61",
"~  c #6E8A37",
"^  c #778639",
"/  c #759639",
"(  c #7B9B3C",
")  c #749638",
"_  c #7EA23D",
"`  c #788D45",
"'  c #85983F",
"]  c #848E3E",
"[  c #80A43E",
"{  c #8A8C41",
"}  c #9F8259",
"|  c #879452",
" . c #A68044",
".. c #AC8544",
"X. c #AF8845",
"o. c #AB834A",
"O. c #AF894B",
"+. c #A58348",
"@. c #B08946",
"#. c #B28B4B",
"$. c #B6884B",
"%. c #BC924E",
"&. c #B7914E",
"*. c #A3865C",
"=. c #A6895D",
"-. c #A98B5F",
";. c #AD8B55",
":. c #B99558",
">. c #B08F59",
",. c #9C856A",
"<. c #8D817B",
"1. c #958579",
"2. c #8D9A68",
"3. c #AB8D60",
"4. c #A18B6F",
"5. c #AF9163",
"6. c #B49464",
"7. c #BA9A69",
"8. c #B99965",
"9. c #A89378",
"0. c #B79D76",
"q. c #BCA37D",
"w. c #96A26F",
"e. c #C29451",
"r. c #C69C57",
"t. c #CE9952",
"y. c #CEA056",
"u. c #DDAD5B",
"i. c #D8A758",
"p. c #E5B25D",
"a. c #EAB45E",
"s. c #E4AD5B",
"d. c #C29F66",
"f. c #C9A466",
"g. c #EDB960",
"h. c #F2BC61",
"j. c #F8BF62",
"k. c #FCC465",
"l. c #FFC967",
"z. c #F7C164",
"x. c #7F7F80",
"c. c #838383",
"v. c gray54",
"b. c #928781",
"n. c #968A85",
"m. c #9A8E8A",
"M. c #9C928C",
"N. c #9F9185",
"B. c #939393",
"V. c #9F9490",
"C. c #9C9C9D",
"Z. c #A89787",
"A. c #A29693",
"S. c #A49B96",
"D. c #A69D98",
"F. c #AA9E94",
"G. c #B29D81",
"H. c #ABA19D",
"J. c #AEA197",
"K. c #B3A494",
"L. c #BBAC9A",
"P. c #AFA988",
"I. c #A4A5A5",
"U. c #AEA5A1",
"Y. c #AAABAB",
"T. c #B6AEAA",
"R. c #B3AAA4",
"E. c #BAB2AE",
"W. c #B9B7A7",
"Q. c #B4B4B4",
"!. c #BDB5B2",
"~. c #BFB8B5",
"^. c #BCBCBC",
"/. c #C3B199",
"(. c #C5BAAB",
"). c #C1BAB7",
"_. c #C4BDBA",
"`. c #C7BAB3",
"'. c #C7C1BD",
"]. c #CAC1B8",
"[. c #DACEBC",
"{. c #BFC0C0",
"}. c #C3C4C4",
"|. c #CBC5C3",
" X c #CEC9C7",
".X c #CDCCCC",
"XX c #C7C7C8",
"oX c #D3CDCB",
"OX c #D2C7C4",
"+X c #D5D0CE",
"@X c #DBD4CC",
"#X c #D5D4D3",
"$X c #DAD5D4",
"%X c #DCD9D6",
"&X c #DDDBDA",
"*X c #D7D8D8",
"=X c #E1DEDC",
"-X c #E4E1DF",
";X c #DFE0E0",
":X c #E5E3E3",
">X c #E9E7E5",
",X c #E9E8E7",
"<X c #EDECEB",
"1X c #E8E7E8",
"2X c #F0EEEE",
"3X c #F4F3F3",
"4X c #F8F7F6",
"5X c #F9F9F9",
"6X c white",
"7X c #FEFFFF",
"8X c #FDFDFD",
"9X c #FDFDFD",
"0X c #F7F8F8",
/* pixels */
"                                                                                                                                                      ",
"                                                                                                                                                      ",
"                                                                                                                                                      ",
"                                                                          5X3X3X                                                                      ",
"                                                                        6X XQ 2X                                                                      ",
"                                                                          :Xs $X{.                                                                    ",
"                                              5X3X4X                      6XS.oXQ.                                                                    ",
"                                            9X%Xd $X1X                  6X:Xb.,Xv.                                                                    ",
"                                              3X_.S.<X                  3Xm. X.X                                                                      ",
"                                                3XD.<X                4XS.).1X6                                                                       ",
"                                                >XU.:X              5XU.).1Xk                                                                         ",
"                                              6XoX_.#X            6X_.~.,Xh                                                                           ",
"                                              6XE.&XI.  6X6X    6X-XU.<Xj                                                                             ",
"                                              3XE.1XB.3X X+X<X  5XU.%XQ.                                                                              ",
"                                              1X'.#X}.#X& Y <X&X%XD.,X                                                                                ",
"                                              %X|..X:XD.. g 4X4XH. X{.                                                                                ",
"                                            5X#X X.X1Xn.. M.6X<X<.1Xx.                                                                                ",
"                                            5XoX'.<X0Xm.# E.-X'.M.:X                                                                                  ",
"                                            4XoXE.>X$XM.- y <.m.E.XX                                                                                  ",
"                                              %XS.<.% 4 # i  Xg #X*X                                                                                  ",
"                                              >Xb.+X<.% $ 0 H t K.:X5X                                                                                ",
"                                              3X<.F.u z b x N  .v 0 U.3X3X                                                                            ",
"                                              4X,.x v U X.I v N N b < <.:X3X<X,X4X9X                                                                  ",
"                                            5XK.I N I ..X.I I @.@...m 0 D.+X+X|.!.oX5X                                                                ",
"                                          6XoXA v B X.....I  .@.@.X.9.@X5X6X6X6X3X!._.3X                                                              ",
"                                          6XJ.V X.@.X.X.@. ...@.X.0.2X6X6X6X6X6X6X2XS.%X&X                                                            ",
"                                          6XN.C ..X.@.@.@.@.@.@.3.>X6X6X9X3X$X3X6X5X~.U.,X                                                            ",
"                                      6X3X%XR.L./.0.O.X.@.@.X.../.6X6X6X5Xm.7 A.6X6X#XN.4X                                                            ",
"                                    6X:X|.>X9X6X6X5X@X>.@.@.@.X.[.6X6X6X3XY 5 A.6X5X_.Y _.4X                                      6X6X4X1X            ",
"                                    3X_.3X6X6X6X6X6X6X[.#.@.@.X.(.0X6X9X9X$X!.1X1XK.G  .S %X#X                                  6X&XD.&X#X            ",
"                                  6XoX+X6X6X6X6X6X6X6X2X7.@.@.@.7.1X0X:X$XOX`.K.4.&.$.@.F (.;X                                0XD.q !.<Xj             ",
"                                  6X!.$X6XOX`.5X6X6X6X>Xq.@.@.@.#.G.d.d.8.d.d.f.r.&.@.@.D T.&X            6X6X              6XT.8 ).<X3X&X            ",
"                                  9XE.oX5XOXOX9X0X>X=X-X0...f.f.#...$.e.r.r.:.&.@.@.@.@.S %XQ.        6X>X!.~.oX%X:X,X2X3X3X2Xs 4 y q b. X0X          ",
"                                  0X'.T.3X6X3X_.G.6.:.6.G U r.f.I I X.@.O.X.X.X.X.@.@.F K.<Xp   6X6X:XH.q 4 8 y s d d s s y w = s E.oX!.E.<X.X        ",
"                                    <XM.=X$X9.;.:.#.U G x D @.X.v 2 G G S D F  .@.@. .v F.3X:X0X+XM.s n.'.:X>X,X1X1X:X=X+X'.T <.5X&XY.}.#X}.          ",
"                5X6X4X              2X#XN.} $.$.D S L r $ 1 z < @ + W ].Z.0 A P S X...&.:.K.T.E T R.:X1X^.c.k p k h c.B.I.#X>XT  X&X                  ",
"                4X!.:X5X              5XK.I U S J F.=XY o X X X o o e +XR * A 8.P F @.@. .; w !.,X#XB.                      2XoX<.%X1X                ",
"              5X6X|.s |.5X3X          0X>X/.! L : Y OXe o X X X X @ Z K *.6.7.5.A F @.....v F.0Xc.                            ,X:X$X<X                ",
"              4X'.+XH.7 V.:X9X6X6X5X3X>X=X.X1.L + X @ O X X X X * K 3.3.3.3.K A t  .@. .N v N.1X                                }.&XI.                ",
"              3X XT y 8 # 4 W <.E T g d f y Z K @ o X X X X @ 0 3.5.3.3.3.3.3.L P S @.X.I v A >X.X                                                    ",
"                :X<X!.Q f & q D.).oX%X:X1X<XF.-.A @ + @ * Z *.6.! 3.3.3.-.3.3.J r A X.X.@.X.x R.4X                                                    ",
"                    &X2X:Xd $X&X^.I.B.c.p #X$X} 8.5.-.6.7.7.*.K -.3.3.3.3.3.3.J r +.X.@.X.X.#.8.(.4X4X5X5X5X5X0X3X4X5X                                ",
"                      .X#Xb.,X6           <X2XT 9 J } } J H K -.3.3.=.-.-.3.*.H t u.%.X.@.X.@.I > y T Q <.W E d q f oX5X                              ",
"                        %X!.#X          6XoXg T L.u P J } -.-.-.3.3.K =.3.=.J t +.l.i.X.X.X. . .2 S.oXoX+X+XoX|.~.E 7 _.5X                            ",
"                        4X2XQ.      6X<XS.s E.<X2X+X,.J -.5.J =.K U 3.3.=.J 0 U z.l.a.X.X.@.F N A =X#XI.I.I.Y.^..X3X!.q R.0X<X                        ",
"                        .X<X,X5X6X5X_.s b.:X&Xj a :X;XA.H J *.-.! 3.*.J A A e.k.l.l.k.#.X.@.I , > '.}.              <X%XT n.<X0X                      ",
"                        3X1XR.n.m.g w E.<XI.        .X3X.Xu , r A A 0 < c U %.e.i.z.l.&.X.X...n , M.,X                &X<Xn.d $X9X6X5X&X$X=X<X4X      ",
"                      6X:XE y E % 4 <.4X.X            &X;XG ..u.y.$.U $.e.t.y.i.u.a.l.%...X.X.n z Y <X                  #X5XU.w R.).E 8 f <.).4X      ",
"                      >Xb.D.=XE g :XV.b.2X            6X!.D r.k.s.a.j.j.k.k.l.l.l.l.l.&.I I @.S c 0 :X                  0X:X!.y # # & <.oX4X6X^.      ",
"                    4X<X:X6XU.q ;X&X2XD.^.2X          5X9.F u.l.l.k.j.h.p.p.g.h.z.l.l.O.I I ..n c 9 =XQ.              6X$X<.M.).|.H.<.d q m.&X;X      ",
"                      }.I.,XM.A.:X. Q.3X$X<X          ,XL  .h.z.s.%.U U U $.$.e.i.j.j.U ..@.X.n c > %X4X5X1X          9X+X:X:X}.^.*X1X<X=X~._.4X      ",
"                          3XH.E.XX      :XQ.        6XoXD O.l.p.i.i.s.a.a.g.h.g.k.l.s.I @...I n c 9 &X5X2X&X          #X#XC.            I..X&X{.      ",
"                          0X.X%XI.                  6XT.v F r.#.+.F G S S S F +.U o.S , n n v x z 9 =X+X<XY.                                          ",
"                            3X:X                    5XZ.2 U t.] ^ / ) ) ~ ^ i.g.a.u.v B D D c < : 7 !.%X#X                                            ",
"                                                    4X4.B e.h.' [ [ _ ( ) ] z.l.l.r.D @.@.@.m b < s |.3Xh                                             ",
"                                                    3X,.V $.a.' [ _ _ ) ) ] z.l.a.S ..@.@.I b b 1 R.5X:X                                              ",
"                                                    4X,. .S u.{ [ [ _ ( / { z.z.I I @.@.U n b B 0 &X}.h                                               ",
"                                                    0XZ. .M M ( [ [ _ / ) { p.G N @.@.I n c c z ,.4Xv.                                                ",
"                                                    6XE.2 ..M _ [ [ _ ( ( 3 x F X.U I b b z l $ 4 |.4X                                                ",
"                                                  6X;Xs r b S _ [ [ _ / ) 3 F  .I n l b b < z 0 W q M.<X4X                                            ",
"                                                  5X<.U.-XH 3 [ [ [ ( / ) ~ x n b b c b c : Q $X0X&Xb.T :X<X                                          ",
"                                                6X|.E <X;X=X| ` [ [ / / ) ~ < b b b b z : N.<X^.k ^.3XD.E <X                                          ",
"                                                5XW !..Xv.<X2.[ [ _ / / ) ~ 2 c v , < s _.<XB.        4Xm.U.3X                                        ",
"                                              6X$Xq :XB.|.%X` [ [ ( ) ) ) ) 3 u R A.|.1X.Xp           :X=Xg >X                                        ",
"                                            6X6Xb.g 2Xj 2XW./ _ _ ) ) ) ) ~ ` _.2X&XQ.h                 0X<.!.:X                                      ",
"                                      6X6X3X&Xm.% s :X2X5X%XW.P.w.2.2.2.P.W.%X<XC.                      5XT.g 3X                                      ",
"                                    4X_.n.s 8 - - M.T !.5X3X*X;X,X1X,X,X;XXXC.a                         3X$X7 .X4X                                    ",
"                                    3X|.!.D.T 4 T.6X$XM.W.2Xv.                                          9XoX= q _.3X6X6X                              ",
"                                    1X4XH.E E E.<Xv.{.<X:X2X                                          6X|.E b.# = f m.}.3X                            ",
"                                      3X:X1X,X#Xj       I.c.                                        5X~.<.+X5X<.& 8 b.!.2X}.                          ",
"                                        B.h                                                         4X%X<XXX{.<X~.A.A.&X:X                            ",
"                                                                                                    XX^.h     Q.#X&X1X:XC.                            ",
"                                                                                                                                                      ",
"                                                                                                                                                      ",
"                                                                                                                                                      "
};
