/* XPM */
static char *_d31eab72ae94685de810c073a874646SGKuGoyvLSVZkuuM[] = {
/* columns rows colors chars-per-pixel */
"75 75 227 2 ",
"   c #0D371A",
".  c #12391D",
"X  c #0E3424",
"o  c #0F3A20",
"O  c #123C24",
"+  c #153D2D",
"@  c #1C3D2E",
"#  c #113727",
"$  c #1C3D30",
"%  c #173F30",
"&  c #213F33",
"*  c #5B1A0F",
"=  c #5B1B11",
"-  c #611C0F",
";  c #6B1E12",
":  c #661D10",
">  c #7C2112",
",  c #6C2012",
"<  c #653729",
"1  c #144226",
"2  c #174529",
"3  c #1C432C",
"4  c #1B4B2D",
"5  c #184529",
"6  c #174030",
"7  c #1A4333",
"8  c #1E4936",
"9  c #1F4938",
"0  c #1F4738",
"q  c #1E5030",
"w  c #21452C",
"e  c #234B2D",
"r  c #26512E",
"t  c #244435",
"y  c #244B35",
"u  c #294B36",
"i  c #234639",
"p  c #254C3B",
"a  c #294B3C",
"s  c #28473E",
"d  c #245233",
"f  c #295434",
"g  c #275139",
"h  c #2A553C",
"j  c #2C593E",
"k  c #2B5935",
"l  c #34513D",
"z  c #34623E",
"x  c #794C3B",
"c  c #2C4D42",
"v  c #274F40",
"b  c #2D5245",
"n  c #2D5C41",
"m  c #2F5548",
"M  c #2F5548",
"N  c #2F5A49",
"B  c #275040",
"V  c #305446",
"C  c #335D45",
"Z  c #305548",
"A  c #315649",
"S  c #315649",
"D  c #32594B",
"F  c #325B4C",
"G  c #335C4C",
"H  c #355E4E",
"J  c #345D4E",
"K  c #335B4C",
"L  c #3B5B4C",
"P  c #365F50",
"I  c #395E51",
"U  c #314F46",
"Y  c #2F6143",
"T  c #316345",
"R  c #35614E",
"E  c #3A634C",
"W  c #356A49",
"Q  c #3B684A",
"!  c #366151",
"~  c #366151",
"^  c #386453",
"/  c #396554",
"(  c #3C6956",
")  c #3D6B59",
"_  c #3A7146",
"`  c #466A59",
"'  c #526D5E",
"]  c #4A7258",
"[  c #567364",
"{  c #567362",
"}  c #627B6B",
"|  c #647969",
" . c #445F53",
".. c #822414",
"X. c #8D2614",
"o. c #912716",
"O. c #942917",
"+. c #9B2816",
"@. c #942B19",
"#. c #9D2B19",
"$. c #982716",
"%. c #90321F",
"&. c #A32A17",
"*. c #A42C19",
"=. c #AC2E1A",
"-. c #AB2C17",
";. c #B22E1A",
":. c #AD321C",
">. c #A4311D",
",. c #B4341D",
"<. c #BC351E",
"1. c #BD391F",
"2. c #973926",
"3. c #AD3621",
"4. c #AE3924",
"5. c #A23826",
"6. c #B33B24",
"7. c #BC3B22",
"8. c #B33923",
"9. c #C0361E",
"0. c #C2391F",
"q. c #C53C21",
"w. c #C93E23",
"e. c #C03620",
"r. c #984D36",
"t. c #A6452D",
"y. c #B84229",
"u. c #A14531",
"i. c #A64C37",
"p. c #A9513D",
"a. c #B14831",
"s. c #B77321",
"d. c #A56227",
"f. c #C34126",
"g. c #CA4024",
"h. c #C5452A",
"j. c #C6492E",
"k. c #C8482D",
"l. c #C65824",
"z. c #C84B32",
"x. c #C96B28",
"c. c #AA5943",
"v. c #A75743",
"b. c #B35B45",
"n. c #A8634D",
"m. c #A86C54",
"M. c #B06F56",
"N. c #AB7C62",
"B. c #B57963",
"V. c #98614B",
"C. c #6B8576",
"Z. c #78897A",
"A. c #758976",
"S. c #5C806E",
"D. c #D9902F",
"F. c #ECA63B",
"G. c #8D8B76",
"H. c #B88369",
"J. c #A68A75",
"K. c #B78A72",
"L. c #AD927C",
"P. c #B9937B",
"I. c #AC8269",
"U. c #C0997F",
"Y. c #EEA244",
"T. c #FED764",
"R. c #7B8E82",
"E. c #87978C",
"W. c #939B8C",
"Q. c #8B9C94",
"!. c #889B92",
"~. c #B49A84",
"^. c #B59B87",
"/. c #AD9684",
"(. c #8EA198",
"). c #91A49B",
"_. c #98A496",
"`. c #9CA28D",
"'. c #B9A18B",
"]. c #A5AA9A",
"[. c #BEAC94",
"{. c #B7B29B",
"}. c #AAAEA0",
"|. c #ADB3A3",
" X c #BBBAAB",
".X c #B4B5A5",
"XX c #ACBAB3",
"oX c #9AA8A0",
"OX c #C19F8B",
"+X c #C3A38C",
"@X c #C3AD96",
"#X c #C4B39C",
"$X c #C9B19A",
"%X c #CDBCA5",
"&X c #CCBFAD",
"*X c #C6B9A5",
"=X c #D2BDAB",
"-X c #CEC0AE",
";X c #D3C4AC",
":X c #D1C0A6",
">X c #CCC3B3",
",X c #CCC7B8",
"<X c #D3C6B3",
"1X c #D5C9B5",
"2X c #D5CCBB",
"3X c #DACDBB",
"4X c #D8C8B2",
"5X c #DED1BE",
"6X c #E0D3BE",
"7X c #CCC7C1",
"8X c #CDC9C3",
"9X c #D3CDC5",
"0X c #DFD2C1",
"qX c #D5D1C8",
"wX c #DDDBD4",
"eX c #CED2CE",
"rX c #E1D4C3",
"tX c #E4D8C6",
"yX c #E5DBCB",
"uX c #E6DCCC",
"iX c #E6DDD1",
"pX c #E8DED1",
"aX c #E0DCD9",
"sX c #EBE2D4",
"dX c #EFE6DC",
"fX c #E8E6E2",
"gX c #E7E6E2",
/* pixels */
"c c c c c b b b + 3 w g h g h j h 9 j h j Y j j h g g j h g 2 G ^ G ^ ~ ~ ~ G ~ J D J G G N G D D M D Z Z Z Z c D P ~ P G P / ~ ~ ~ Z c c c c c c U c ",
"c c c c c c Z M a @ 3 e h h j j Y j j h j Y Y h n n g j h g n R ^ G ~ ^ ~ ~ ~ G ~ V D J J M P Z D M Z D Z M b b D ~ ~ P G G ~ ~ ~ ~ b c c c c c c Z M ",
"U b Z Z b c Z Z V w w w j n T T Y q j d j Y Y n n g n j h g h R ^ ~ ~ ~ ~ P ~ R ~ D J R J J J G Z M D b M M M v G ~ ~ ~ J J G / / M c c c c c c M c M ",
"Z Z Z Z b Z Z Z V u w w r Y n n Y Y Y j j Y Y n Y Y n g h 9 g h ^ ^ ~ ~ ^ / / ~ R J J J ~ D J J G D D Z M Z M p n D ^ / ^ / / / D c c c c U M M M U M ",
"U Z Z b D D N M Z Z y w w k T z Y Y Y Y Y Y n Y Y n j j j g j 8 h ( / ~ ~ ^ ^ R R J ~ J G V J J G D N M M M v 9 v N ! ^ / ( ( ^ p c c c c c b Z M M A ",
"c b Z D M M M M D D C y w r k r j g j k k j Y n Y n g n j j g 6 + T E E / ( ] ] ( ~ R J J J R G J G M p 0 p N G N B 9 9 p B N 9 0 c c c Z b Z Z M U A ",
"S A A Z D P M M D F F M y e 1 2 2 2 2 4 4 4 4 4 2 2 1 o 1 1 o   + i u u u a y f u l V C R E E b p 8 7 g N G P G P P N 9 7 6 8 7 t c c Z Z Z Z Z M A D ",
"Z Z Z Z G D D D F D V V h 2 1 2 4 4 2 2 4 2 4 2 1 1 1 1 o 1 o   + t u a a u u i a a a i t u p + 7 p D D P P P ~ ~ N N 9 7 7 6 + @ c Z c Z Z Z Z A D F ",
"b M Z G J R J J D J K Z b 3 i a c s i p y 2 1 2 p s a i a V b c a c b Z b c c c M b Z c a u $ 7 D G R ~ ^ ~ ` ] ` [ ` L c & @   $ s U Z Z Z Z F D G G ",
"Z D ~ J ~ ~ R G D J J K K B c W.].].].].]._.`.].].}.}.}.].].|.|..X X X X X.X X X,X9X2X,X9X3X9X5X0XrXrXrXrX0X0X6X0X0X6X| c c @ X $ & s a Z Z K Z D G G ",
"V R ~ ~ ~ ~ ~ D G R ~ R P N c |.rXrXrXrXrX5X6X5X0X5X6X6XrXrX6XrX0XrXrXrX6XrXrXrXrX0X0X0XrX0X6X5X0X5XrX6XrX0X6X6X0X1X#X .U c s O & & & t a Z F F D D G ",
"Z ~ ~ ~ / ~ ~ ~ ~ ^ J G G p c R.dXyX5X6X6XrXrXrXrXrXrX6XrXrXrX6X6X6XrX5XrXrXrXrXrXrXrXrX6X6X;X#X3X2X3X5X0X0X6XtX0X5X XL a U s & @ & & u t u F F G ~ ! ",
"Z J ^ / ^ R ~ G ~ ~ N B 9 7 b C.6X6X6XtXrXtXtXtXyXtXuXiXsXsXpXsXsXpXpXsXpXsXpXpXsXpXpXpXpXuXuXuXuXiX'.tXtXtXrX6XrX0X*Xb U c c c & & s a a b V L N D ~ ",
"K ~ / ( ^ ^ / / R v 7 % 6 6 i I | `.#X:X:X[.;X#XJ.J.J.J.J.J.J.J.L.L.L.L.L.~.~./.~.~.~.^.^.^.'.^.'./.J.#X;X{.;X;X=X.XC.Z Z c b c i i F F D C V a C J / ",
"Q ` ( ( / ( / b 0 6 % % % 7 c b c U L C.:X[.:X#X< * * * * * * * - : ; ; , ; ; : - - * * * = = = = = * /.:XJ.%X{.G.~ Z Z Z Z a c c n G J F F Z u u a ] ",
"u l C E ( C 8 7 7 + + 7 c b M Z Z Z Z | 4X5X3X#Xx * * * - : , > ....X.X.o.O.O.O.O.O.O.X.......> > > > #X4X;X;XC.D D F Z Z Z Z c c D ~ ~ n j n h h k g ",
"h h l k C 7 % 6 7 0 v c S c M Z U M S [ 3X0X6X%XV.> ..X.o.@.*.-.:.=.=.:.,.=.:.:.:.:.:.:.-.$.$.o.X.X.%.%X5X5X3X} F F G D D Z Z M a p n h h h h n n h n ",
"j l a h u 3 % 7 b P A N S M M S M M Z  .1XrXrX=Xm...@.+.X.*.>.:.3.3.3.3.3.3.4.4.4.4.:.:.>.>.o.X.@.X.2.;XrX5X3X' R J D M Z Z Z b s 1 p g h h g n h n n ",
"n C j f 0 + 0 M D A M b M A A M M M M ` 1X0X6X4Xm.X.#.+.#.:.:.:.=.:.:.=.:.:.:.:.:.:.:.:.:.-.+.o.+.X.r.,XrXrX,X] R J G G F D D M a y p h h h n n n n n ",
"n T T g @ 0 M D P D D M S A S S Z Z M I ,X4X#X4Xm.o.+.#.:.-.:.:.:.,.,.,.:.,.:.,.,.,.,.:.,.:.:.%.#.X.r.5XrXrX X/ R ~ D D F D D M g p g f g n h n j n n ",
"n Y T 4 3 N P D A D A P D D D D F S F F -X<X[.5XN.X.+.-.:.:.,.:.,.:.,.,.,.,.,.,.:.,.:.,.,.:.:.#.+.X.V.tXrXrX_.^ ~ G G G J N M b g g g g g j j j j j j ",
"n Y Y O B G D D D N D D P G D Z F F Z D ].3X#XtXI.@.#.:.4.:.:.,.,.,.:.,.,.,.,.,.,.,.,.,.,.:.:.>.#.O.N.uXrXtXW.N G P ~ ~ J M b g g g g g g h j j h j n ",
"n n q b N P G P P D D D D P D M F L V D _.rX5XuXK.%.>.:.4.:.,.,.,.,.,.,.,.,.,.,.,.,.,.,.,.,.4.:.#.o.I.uXrXrXZ.R ~ ^ P N D D y 8 f p g g h j j j j j Y ",
"h j p P P ~ G P ~ D P G A P M M D A K V E.rX5XuXP.%.-.,.:.:.,.:.,.,.,.,.7.y.,.,.,.,.,.,.,.:.4.:.*.X.P.yXrXrXA.( ~ ^ G N G p 3 4 h g h h h g h h h j Y ",
"h 4 J R R ~ G G G P G P P D D D P P A M R.rX0XuX^.2.;.,.,.:.,.y.,.,.,.1.i.r.8.,.,.,.,.,.,.,.y.-.*.o.'.uXrX0XS.~ ( ~ N B 9 7 6 3 e j f g h j j k j j n ",
"3 8 / ~ ~ ! ~ P G G P G P D J G P D A A } rXrXiX@X2.;.,.4.,.,.,.,.<.,.,.,.,.1.,.1.,.,.,.,.,.y.:.:.2.$XtXtX0X[ R m 9 7 6 6 6 + 3 w e k j j j j j j k j ",
"O D ~ J D ~ ~ G D D G G P G G D D M P D [ 0XrXuX$X2.,.,.4.,.,.,.<.<.,.<.1.,.,.8.1.,.,.<.,.,.y.,.:.2.J.<XrX0X/ y 6 6 6 7 7 6 O . e e r 4 4 q q 4 4 q 5 ",
"c ~ ~ J ! ! R G ~ R ^ D R ~ R D J P M P ' rXrXuX%X2.,.,.,.6.<.,.7.7.f.0.q.q.q.q.0.y.,.,.1.:.y.:.,.2.2X2X5X>X+ @ 6 7 b D D M b t 3 e e 4 4 4 4 5 4 2 4 ",
"Z R ~ ~ ~ J ~ ~ G G / G ~ G J J J P D G ( rXtXtX%Xu.,.,.,.6.0.q.w.q.q.w.q.q.q.w.w.w.0.1.<.,.6.,.:.u.0X0XrX X+ @ % b N D D D A Z Z b p y 8 y 5 1 1 1 8 ",
"I ( ^ ~ / / ^ ~ ~ ~ ~ / J G P ~ J G J G P 2XrXtX-Xi.:.1.7.q.q.q.w.w.w.w.l.0.w.q.0.w.g.0.g.,.6.,.:.i.yX0X0X].# # v P P M G D Z A M Z Z b b c c 7   4 E ",
"I / / ^ / ( G G ~ ^ / ~ ~ ~ ~ R ~ G G J M ,XrXtX<Xb.7.q.q.f.q.g.0.w.w.w.g.w.w.w.w.w.g.0.q.<.7.,.:.v.iXrXtXE.+ 7 G N P G P D D A V Z b c c c p 8 8 R R ",
"I ~ ~ ^ ^ / / ^ ~ / ~ ~ R ~ J ~ ~ G G G Z  XrXrX1Xb.,.q.q.7.e.q.q.w.q.w.w.q.w.w.g.0.w.f.0.7.7.7.:.n.pXrXrX[   g ~ D ~ D D D D D Z Z M b b p 8 p R ^ F ",
"P D / P ( / ( / N ! ~ ~ ! N G ! ~ ~ R D I ].tXrX0Xb.<.q.0.7.q.f.g.k.z.z.z.z.k.k.k.k.f.f.0.1.1.q.,.M.sXtX0XV p ^ / ~ ! N N N D P N M M b 9 9 9 P G ~ ! ",
"I / ) ) ( / P ( ( ( ~ ! ~ ! ! ! ~ ~ J J I `.tXtX9XM.,.q.q.0.0.q.w.w.0.q.w.w.q.g.w.0.0.0.0.0.0.q.,.B.sXtX3XJ / ~ ^ ^ ^ ! ~ P D B B B 9 9 7 6 7 N ^ ^ ~ ",
"P P / ! / / ~ / ( ~ ! ! ~ ~ H ! ~ J J J I _.rXrX0XB.x.Y.x.q.q.q.w.w.w.q.g.g.g.g.w.w.g.0.w.0.w.0.<.K.sXtX,X` ^ ~ ^ ^ ^ ! G v 9 9 8 8 9 7 9 7 7 B ^ ^ G ",
"/ P / D / ) ( ~ ( ( ( ~ ! P H ! ~ J R J R E.rXyXrXB.Y.T.D.9.q.f.f.j.l.j.k.j.j.h.h.f.f.g.1.1.0.g.,.P.sXrX>X( / ( ^ ^ ! B 9 % 7 7 7 7 8 7 7 7 6 9 R ( ^ ",
"P P / P ( ! ^ ( / P / P ^ ^ ! ! P J ~ R G C.rXrX6XH.x.Y.s.1.h.q.g.g.0.g.g.g.g.g.w.w.w.0.f.f.q.q.3.+XpXrX XJ ( ( ! g 7 + 6 6 6 6 7 7 7 6 3 7 + 3 b ^ ( ",
"P ) ( ) ^ ^ ) ( ) ) ( / ( ^ ^ ^ ~ J B p 7 ' 3XrX0XH.l.x.s.,.l.q.g.g.g.g.g.g.g.g.g.g.w.w.k.e.w.e.6.$XrX4X].b B 0 + + + + % % 6 7 + 7 6 6 6 + + + f E ~ ",
"^ ^ ( ) ^ ) ) ( ^ / ~ ~ N R N b p + + % + ` 5X6X0XK.l.d.D.:.f.w.0.g.g.g.g.g.g.g.g.w.g.q.h.0.q.0.a.=X9X=XE.3 + + + + + + + + + 6 2 + 6 7 + + + X u C / ",
"^ R N m n B n B 9 v 9 9 8 9 8 8 7 + + % 3 E ,XtXyXP.l.F.D.:.7.q.f.k.k.k.k.k.k.k.h.f.f.0.1.0.q.9.a.=X3X0XA.u y g 8 8 y y p y y 7 7 7 ! ^ ! m 9   t f E ",
"p 6 8 9 8 7 9 9 9 9 8 9 8 7 0 B m b b b c S >XrXuX~.q.l.s.>.0.q.q.q.g.q.w.w.w.q.q.q.q.q.0.q.q.7.p.1XtXrXC.g g u p g h h y g g y p n ~ ~ ^ ) ^ n g u f ",
"0 6 7 8 7 8 p 9 h h g g 9 9 M D N N Z Z b b  XrXiX+X,.<.q.q.q.q.w.g.q.g.w.q.w.w.w.w.w.q.q.q.0.1.c.rXrXrX{ g g h j h j g j g g y g D ~ ~ ^ ~ ^ / R l a ",
"t y g g h n h h j h g h j h g h B M B Z c c .XtXiX+X6.<.e.<.1.7.7.f.f.f.h.h.f.w.f.y.7.7.1.1.q.,.b.tXtX>Xz l h h j j j j j h g 1 n P J ~ ~ ^ ~ ~ J C 3 ",
"p h g h g h n j b h h h h n n h h h g h c c ].rX0X+X6.<.q.1.1.1.q.1.q.q.q.w.q.e.q.q.e.7.7.1.q.,.M.yXrX{.l w f k j j n Y j d 2 5 F J J J G P P ! Z i w ",
"a h h n h h n g g h j h n h h j j y g h g c W.rX#X~.6.7.0.1.0.q.0.q.q.q.w.q.w.w.w.q.q.0.w.9.q.:.B.yXrX].w w w r z Y Y z d 2 1 q D G P G G G J M u t h ",
"h h n n n h h n j j n j h n j h g h h g g i E.rXpX%Xy.,.0.<.1.q.q.q.q.q.w.q.w.0.q.q.q.e.y.9.q.*.H.iXrXW.w w w e e r z d 2 2 2 M D D M G G V a t & y h ",
"p h g n n j n n j T C n h j n j j h h h g u | tXyX#Xa.<.q.<.7.0.q.q.q.q.q.q.w.w.q.q.e.q.j.e.9.*.U.uXrXE.3 @ w e e e r 4 2 2 8 M Z D b D b u @ t t h h ",
"h h h h j n n Y n n h h h h h j j h h h h t [ rXyX%Xa.,.0.<.7.e.0.w.0.w.q.q.0.q.q.q.q.0.j.0.9.*.OXtXrXZ.u 3 w w 4 e e 2 1 2 B M M M Z c t t t t p j h ",
"n C n j Y j Y n n j n j n j j h j h j h h 2 ` rXrX=Xp.<.0.<.q.0.0.0.0.0.0.0.0.w.q.q.q.e.q.0.<.&.$XyXrX} N v w @ w w w 1 1 y c M c b c t t t w & h h V ",
"h h h n j Y Y Y n j j n n n n j n j h j g O l rXrX=Xp.,.0.<.f.0.0.9.w.w.w.w.0.e.0.0.e.7.7.0.;.*.%XtX0X' i v c u w w w 2 2 u c c c s t & & & & t n j j ",
"j j j j j j n Y Y Y j j Y Y n j j n j g h O / 3X0X<Xc.,.9.<.7.9.0.w.0.0.9.0.0.0.0.0.9.q.7.7.;.5.=XtX0XL c b c c i w 3 . $ v c s i t i t $ + . 4 n j z ",
"n Y j j j Y Y Y Y Y Y n n Y j j j n j g 8 p / 1X0X1Xc.-.9.1.7.0.9.9.0.9.0.0.0.0.0.0.1.7.7.<.3.5.<XtX0XU b b U c c c s + i s s s G ^ ) ( D 4   e n j j ",
"h n j j Y Y Y Y T Y Y Y n j Y h j n h k O B P >XrX1Xn.&.1.<.<.9.0.e.0.0.9.9.0.0.0.0.9.7.<.;.=.5.1XtX1XU M U U c c c c c & & t P ^ ^ ^ ) / ( D n j n Y ",
"h Y n T Y W T Y Y T Y T Y j h Y j j g 8 + Z D  XrX4Xm.#.;.<.<.;.9.e.9.9.9.e.9.9.9.9.;.<.;.;.=.u.3X0X{.Z A M M c c c c s $ O M I / ~ ^ ^ / ( / / T Y j ",
"j j T T Y Y Y Y T T Y T T Y Y Y Y j h 1 a D D .X0X4XN.+.-.;.;.<.<.<.7.7.7.7.7.8.7.<.<.=.=.;.*.v.0X0X].V A A U c b c a u @ y G ~ ~ ~ ~ / / / ~ R h j Y ",
"V T T T T W Y Y W W Y T Y Y Y j g q 2 1 b V n (.5X4XN.+.&.;.;.9.<.<.<.9.<.<.<.<.<.9.;.-.;.=.#.c.3X6XE.V A A M M b c t t t M G F ~ ~ ~ ~ ~ / ~ J y f Y ",
"E T T T T W W Y T W W W T z d 4 2 1 1 2 H ) W R.0X<XH.$.+.*.;.;.<.e.e.e.9.e.e.9.7.;.=.=.=.-.$.m.3X5X| D F L S V c u t & b D D D P P ~ ~ G R P F y e k ",
"z T _ W T Y W W W W Y k d 2 5 5 2 1   g ) ) ) C.3X;XK.$.$.$.&.*.-.;.9.;.;.;.;.-.*.*.*.-.&.+.$.N.0X3X[ N Z S V a i t & a V V D D Z P G J ~ G J n G ^ C ",
"r r k z _ k y q q 4 1 1 1 1 2 2 1 o 7 ( ) ( [ |.@X#X~.v.c.v.v.v.v.v.v.v.v.i.u.i.u.u.u.u.5.u.t.P.#X%XA.P Z Z u u t t s Z D Z M D Z G P F G D G y E ~ ^ ",
"u e 4 r q     o 1 2 O . 1 . 1 1 o . F ) ) (.wXsX0X0XyXiXiXiXpXpXiXiXyXpXpXiXiXiXyXiXyXyXtX9X3X4X*X1XsXXX' a t t t a c Z M b D Z A A D F D D N p R ~ ~ ",
"e r r r 4 + p D D A B @ g B N ~ h 1 ( ( ( |.rXrXyXyXuXuXiXiXpXpXsXsXaXdXpXsXsXsXsXsXsXsXpXpXpXpXpXyXtXtX].t t t i c c c b b Z A Z A D F P D M D J J J ",
". f l C D P J D F D Z M b m D D G B ~ ( / } &X0X0X0XrXrXyXyX0X0X0XrXtXrXrXrXrXrX0X0XtXrXrXrXrX0XrXrXrX&X{ s t & i c c c c b Z Z c Z A Z Z Z D A D D D ",
"K R I I P P P A P L A Z c c v M Z c p / ^ C.,X3X1X,X<X<X&X=X&X&X=X=X&X&X&X&X=X&X&X<X<X<X4X<X1X1X3X3X3X,X' t # o 0 c c c c c M c Z c M M c M b M D D i ",
"I ^ J G ~ P A F P A A M c Z c c c % 7 b ).eXeX9X9X9X8X8XeX8X8X8X8X8X8X7X8X7X7X8X7X7X7X7X7X7X7X7X7X7X8X8X8XR.( N 7 $ c U c U U c M c c M U c b b p 6 + ",
"I ~ F F I J J J P A M M M c M M c c Z oXwXwXaXaXaXaXwXaXaXaXaXaXaXaXaXaXaXaXaXaXaXaXaXaXaXaXaXaXaXaXaXaXaXwXQ.` F 9 0 p p v c c c U c c v v i % + 7 p ",
"I ^ ( ~ R ~ J J A M M c M Z b c U I eXgXgXgXgXgXgXgXgXgXfXfXfXfXfXfXfXfXfXfXfXgXfXfXfXfXfXfXfXfXfXfXfXfXfXfXgXXX! P B 7 % 7 0 % 0 c c 0 + + % 0 D R ^ ",
"I ( ( ~ ~ ~ J F N N D M Z M c b F R.Q.Q.!.!.E.E.Q.).).).).Q.).).Q.Q.Q.Q.).Q.).).).!.E.E.Q.).E.!.!.!.(.Q.).).oX).R.M M 9 0 % % % % % % % O 7 F / / / / ",
"R ( ~ ~ ~ ~ I J P D M B M b s p c i 0 $ 6 + 7 3 7 9 M N M Z Z U b s c c Z A P D B 9 v b S U & $ & c Z L P P ! ^ N b U M b b U B 0 % % %   w i c V C E ",
"l / ) ) ^ G R n B 9 9 8 9 7 7 7 % % 6 7 % 7 t 7 % % % v Z U U c c s c M D P N 0 % M S M S S c & v c M M N K P F M b U M S S M S Z p + +   w u u u u u ",
"u h h % 3 7 7 7 7 6 6 7 6 7 7 7 7 % 0 y u p g y % % # % 0 c c c c c M M M 9 6 b A A S S S S S Z v 9 c M M M D M U M M M S S M M D D a . @ t u t u a u ",
"t l 0 % 7 % 7 % 7 7 6 6 6 6 + 3 7 p g g h g g y p % # # # $ v v c c b v 7 9 D D A P A A S S U M c c v v M M M M b M S S A F A M D D S u t t t t t u t ",
"u b 7 0 7 7 % 7 6 6 6 6 6 6 7 y p g g g g h h p p p % % # # X X # v 6 p D P D D A D F F F S M N D M M b p B M M U Z S F F F F F D P S V w t t t t t s ",
"c c U c c c 7 % % % + % 8 y g g g h h g h p g g p g y # X # X X X + p G P D G G P A A P A N L F M M D A A c 0 % Z U N P P F F P P D D p @ t t s s & s ",
"U c c c c U v % % % 7 p h h y h h h j h h h h h h g g 3 X X X X X b G P P D G P P P P D P D A P M D A M Z Z U 0 c D D F F N A M D P J p s c c c c c c ",
"U Z Z c c c c i + 3 g g g h h h j j j h j j n h h h g h y X X X n A M P P G ~ G P P P P P A D F F A A A A A Z Z M N P P P P M P ~ ~ P c s c c c c c c "
};
