/* XPM */
static char *result[] = {
/* columns rows colors chars-per-pixel */
"75 75 241 2 ",
"   c #0C0B0B",
".  c #06070B",
"X  c #120E0C",
"o  c #140D06",
"O  c #14110E",
"+  c #1A130D",
"@  c #191007",
"#  c #0B0D12",
"$  c #070E18",
"%  c #100F11",
"&  c #0C111A",
"*  c #141313",
"=  c #1B1513",
"-  c #1C1916",
";  c #15151A",
":  c #1A1719",
">  c #1C1B1B",
",  c #17181A",
"<  c #2B1B0C",
"1  c #26180A",
"2  c #211613",
"3  c #231B15",
"4  c #2A1D14",
"5  c #231D1B",
"6  c #2A1E1A",
"7  c #311E0F",
"8  c #39240A",
"9  c #2C2115",
"0  c #25201D",
"q  c #2B221C",
"w  c #332414",
"e  c #32251C",
"r  c #352A1C",
"t  c #3B2C1D",
"y  c #392818",
"u  c #2F210F",
"i  c #1D1D22",
"p  c #141C28",
"a  c #0F1620",
"s  c #221F22",
"d  c #291F22",
"f  c #1A212B",
"g  c #1B2532",
"h  c #192635",
"j  c #242223",
"k  c #2B2523",
"l  c #2D2825",
"z  c #24252A",
"x  c #2A272A",
"c  c #2C2A2B",
"v  c #26282E",
"b  c #322622",
"n  c #332A24",
"m  c #3B2C24",
"M  c #332D2B",
"N  c #3A2E2B",
"B  c #3C3124",
"V  c #36312D",
"C  c #3B322C",
"Z  c #262A32",
"A  c #2B2C32",
"S  c #232C3C",
"D  c #262A35",
"F  c #322E31",
"G  c #2D323A",
"H  c #343233",
"J  c #3C3433",
"K  c #3E3935",
"L  c #34343A",
"P  c #3C3A3B",
"I  c #3A373A",
"U  c #472C09",
"Y  c #4C320C",
"T  c #5D3904",
"R  c #563609",
"E  c #422E18",
"W  c #4C3514",
"Q  c #49351A",
"!  c #543D1C",
"~  c #563B14",
"^  c #653D03",
"/  c #422D26",
"(  c #423424",
")  c #43342C",
"_  c #44392C",
"`  c #4B3C2C",
"'  c #4C3827",
"]  c #523D26",
"[  c #423633",
"{  c #443A34",
"}  c #4A3C33",
"|  c #433D3B",
" . c #483D3A",
".. c #513E35",
"X. c #603F2F",
"o. c #5B411B",
"O. c #6C4204",
"+. c #6A440C",
"@. c #784A06",
"#. c #634313",
"$. c #67481B",
"%. c #734E18",
"&. c #785218",
"*. c #7C510C",
"=. c #594428",
"-. c #4D4135",
";. c #45413D",
":. c #4C423B",
">. c #534234",
",. c #53453B",
"<. c #56493E",
"1. c #5B4A3C",
"2. c #5A4836",
"3. c #574834",
"4. c #644B26",
"5. c #6B522C",
"6. c #765627",
"7. c #614D37",
"8. c #67543A",
"9. c #735B37",
"0. c #714F21",
"q. c #7D613A",
"w. c #2C3443",
"e. c #2C394C",
"r. c #263447",
"t. c #323945",
"y. c #3C3D42",
"u. c #343D4C",
"i. c #3B3F4A",
"p. c #2D3D54",
"a. c #323E53",
"s. c #252F41",
"d. c #433E41",
"f. c #3D4249",
"g. c #364253",
"h. c #3A4455",
"j. c #3D495C",
"k. c #394659",
"l. c #2C4058",
"z. c #3B4B62",
"x. c #454243",
"c. c #4B4443",
"v. c #44454B",
"b. c #4A464A",
"n. c #4C4A4B",
"m. c #4D4845",
"M. c #524641",
"N. c #544A44",
"B. c #5C4D42",
"V. c #534C4B",
"C. c #594F4A",
"Z. c #5D5045",
"A. c #5C524B",
"S. c #56514C",
"D. c #4C4C52",
"F. c #454A53",
"G. c #514F52",
"H. c #4E5258",
"J. c #535255",
"K. c #54545A",
"L. c #5D5A5C",
"P. c #5A5657",
"I. c #614F41",
"U. c #635345",
"Y. c #63554C",
"T. c #6C5B4C",
"R. c #695947",
"E. c #715D4B",
"W. c #655A52",
"Q. c #6B5D54",
"!. c #655C5A",
"~. c #715F51",
"^. c #73624B",
"/. c #6C615C",
"(. c #6B6154",
"). c #726254",
"_. c #73655B",
"`. c #7B6A5D",
"'. c #76685B",
"]. c #6D614F",
"[. c #414E62",
"{. c #455367",
"}. c #585B63",
"|. c #625D62",
" X c #5B6269",
".X c #5F6A74",
"XX c #696566",
"oX c #746A64",
"OX c #7B6D64",
"+X c #756D6B",
"@X c #766B66",
"#X c #7D726C",
"$X c #7D7064",
"%X c #636C75",
"&X c #7C7474",
"*X c #864E05",
"=X c #895506",
"-X c #945A05",
";X c #865A16",
":X c #996206",
">X c #976516",
",X c #8E6017",
"<X c #A66606",
"1X c #BA7406",
"2X c #B07113",
"3X c #845D26",
"4X c #956824",
"5X c #8A6733",
"6X c #A67528",
"7X c #B77B24",
"8X c #C67807",
"9X c #82746C",
"0X c #887568",
"qX c #847A74",
"wX c #847C7A",
"eX c #857A74",
"rX c #907D6F",
"tX c #836E5D",
"yX c #B7851D",
"uX c #D38B0D",
"iX c #EB9308",
"pX c #F1AF0C",
"aX c #F3A733",
"sX c #F8D811",
"dX c #FBCD3B",
"fX c #FBEE2C",
"gX c #FBE713",
"hX c #8B827D",
"jX c #87807C",
"kX c #958275",
"lX c #F8D747",
"zX c #FAEE50",
"xX c #687581",
"cX c #798BA0",
"vX c #8B8584",
"bX c #928A87",
"nX c #9B9697",
"mX c #919197",
"MX c #A19B9B",
"NX c #A4A0A1",
"BX c #A39DA0",
/* pixels */
"' 4.5.=.=.5.5XtX9.=.( t B B r K K K H H V c c c l > > , * * > l v l l A Z j > f f j z j = = - = ; 0 n 0 0 3 3 5 3 0 0 - =.3.4.8.5.5.4.! =.4.=.=.=.=.' ",
"] 4.4.4.5.6.5X5X5.=.Q B Q B r ;.{ B q 9 0 0 l V V V l l j , > c Z l c c Z j j j j z f 0 , = = * * * > n 0 9 3 - - 0 0 5 =.3.3.5.5.4.! 4.4.0.5.4.=.] ] ",
"o.o.$.%.6.4X4X5X6.=.=.=.B 8 w _ -.B q 0 r 0 9 l V V l c l > > v c c c G A j > p f z j z = O - - * * * 3 q 5 5 - - 0 9 9 =.=.4.4.4.~ ! ~ #.$.4.! ! ! ' ",
"W #.&.%.,X4X4X3X6.$.o.Q o.B -.B B _ B B V r l r l l j l j - O 0 l A c G v v > i z A j c , + = = = * * = 3 q 5 q 9 q 9 q =.=.4.o.] ~ ~ ~ ~ $.#.~ W W W ",
"~ #.*.,X>X>X;X*.&.#.o.Y Q _ -.r t B B l B B n q - 0 0 l j , * , 0 G H H G v j p z Z c H 5 O = = = = * = = 3 5 q q l 0 3 =.Q o.o.! W Y R ~ ^ ~ R R W E ",
"T +.:X:X:X=XO.O.*.#.o.o.o.=.4.u w r B B q q 9 - - > 0 > > 0 > j j H H G P G c v v G L f.s = + 2 : ; : = 5 2 5 q q q 9 u o.o.o.t R U U U R R R R R U U ",
"+.@.=X@.=XO.^ T O.#.o.Y o.4.3.u y y y w 9 r 9 9 u - + - > 0 0 j v H H H P P G t.i.f.P i.5 = = = 5 = > - - 5 5 b r 0 u + 1 1 1 1 1 7 8 7 U U U 8 U U u ",
"U U R Y =X^ T T #.8 8 Y 8 8 u w y r w 9 9 n M l 0 0 u l l l j v G P H G P t.P y.f.v.P y.= 5 5 2 3 2 = = 2 5 5 9 9 9 3 + o.o.o.8 W R ^ *.<X*X^ ^ O.O.T ",
"^ ^ O.^ <X*X*X*X@.@.@.&.Y o.t w y t w 9 9 9 9 9 6 k 3 5 5 - 2 4 - q 0 - - > 5 5 s j k k % X X % * O O     X O @ O @ @ 1 o.o.8 o.Y R O.*.8X<X*X^ O.O.O.",
"^ *X*X@.8X8X<X<X:X:X>X&.#.$.1 @ + + 1 2 + 9 3 5 3 9 q q q 6 5 O O O O   * * = s k k n I [ 5 * + O , = + o o o @ @ o   + Q t 8 8 +.+.@.=X8XiX-X^ O.T T ",
"O.=X=X<XpXpX8X8X1X<X:X&.o.0.8 u 1 9 9 e n q q 3 3 q q 3 5 b k = - - - - 5 j 0 0 k d I b.K.| L k I ;.l 0 0 w 9 - + @ @ 9 t o.#.#.+.*.:X<XiXiX;X^ O.R R ",
"^ =X-X8XsXgX8XuXuX<X2X,X+.$.u B r t r q 9 n q 9 q 5 5 5 = = d 5 O - j c 5 - - 0 5 k C J d.C M d.x.{ C C n n q < u r u u o.o.%.&.@.*.=X<XdXpX<X@.O.R O.",
"O.=X:X8XsXfXiXiXuX1X7X>X%.o.t Q / t n r b n k b M F k d j j l d l l 0 + + + + + 2 3 n { ,. .J  .| d.N F 0 B K q u @ 3 1 o.$.6.&.;X-X:XyXfXsX1X@.O.^ T ",
"*X<X1XiXsXgXpXiXuX1X2X,X%.4.w w E m t m m J [ I J H H | P J I F A V V :.P.B   + 3 b 9 m A.n [ N.V.V.c.N.K 9 K t 3 3 @ 1 o.=.3X,X;X:X<XpXfXfXyX@.O.T T ",
"=X<X8XiXfXfXpXiXuX1X6X4X&.4.w t ( ` r q N M J [ J J J M n N J ;.N.N.<.P./.;.9 r m B n 9 9 k } c.oX1.Q.Y.3.0 B -.r 3 o 3 o.o.6.&.;X=X6XuXfXlXuX*XO.^ T ",
"*X:X1XuXdXfXsXiXuX7XyX6X6.o.t ' t } B b C { d.[ N k 6 b P :.W.A.oXS.Y.XX#XS.r K ` >.2.` ( } ) _ C.N._ ) q B q B =.9 o - =.o.$.%.>X1XyXuXzXlXuX-X@.^ T ",
"O.=X<XuXlXaXiXuX7X6X7X4X5.] w ( t r m N J C N M C V M ;.!.W.$XoXjXA.(.#XjXZ.9 _ ] ..8.1.Q ' / ,.m.!.n ` B.{ m m >.( + + =.4.6.$.4X7X8XuXzXlX1X-X@.T T ",
"Y #.+.>XaXaX>X%.#.o.$.o.Q E 3 B m n N } V k k k B V K 8.Z./.#XoXjX!.oX&XjXS.w ' ` ] U.I.=.=.] / M.oXb 9 } B.) ..1.e + + =.4.0.%.;X,X>X<XlXaX:X=XO.R T ",
"&.6X6XyX7X>X;X;X%.3X4Xq.=.=.t { m n C C l k k l c P.1.R.].(.@X#XhXoX#X&XhXA.e -.>.>.7.7.7.] 4.X.E >.m b } 2.` _ >.n 2 + =.o.=.~ ~ %.>X:XyX6X=X=XO.T Y ",
"#.6.4X6X>X%.W W W 6.5X9.=.>.r ) m b J C n k k k m.oXY.T.].(.+XqXvXoX#X&XjXZ.B -.>.>.8.U.8.7.8.7.=.] m m } >.m N.-.b 1 + 9 w y w W U ~ #.%.+.R R Y 8 < ",
"~ ! 3X5X6.R U E W 6.5Xq.8.2.B C n n J N q k c V oX'.W.(.Q.!.#X9XvX$X#X&XwXW.B 3.>.2.R.R.E.8.R.U.7.7...e m R.>.U.C 9 + 3 3.=.! 6.6.#.U U Y R #.+.#.R 8 ",
"Q ] 5.5.X.W 8 8 E 9.q.8.8.2._ C N b [ n k l 0 W.oX@X(.).'._.qX9XbX&X9XjXhX(.B 1.3.2.^.^.).8.8.7.U.8.] m C Q.t n n + o 3 3.4.5.9.5X~ 8 7 8 8 #.#.#.Y #.",
"E Q 5.5.] Q y 7 y 9.^.9.8.7._ C N J  .l n l V ,.>.N.V.'.$X'.bXwXmX9XwXwXhX(.C B.2.7.'.)._.U.R.7.U.X.t t e C.n N 9 3 + 9 =.8.9.8.9.$.< 1 8 8 W o.W y o.",
"e y ] 7.' E 7 < r 8.^.R.R.Y._ K N b  .C C 5 9 t B ) b N.#X_.9XvXmXwXwXvXvX(.( <.2.8.`.`.tXR.E.7.e 2 4 6 e } b k 0 q - 0 8.8.8.9.9.o.1 1 1 1 E o.W 8 y ",
"9 t -.-.-.E 1 < w 8.W.R.R.S.C { n n J | [ 5 4 ) C.B.N { @XQ.+XwXbXvXwXjXbX/.) 1.2.U.tXOXtXT.E.2.e e 4 2 2 b | n 0 r q 0 T.^.^.9.8.t 1 @ 1 u W o.W y t ",
"q m ` -._ Q w < 9 U.R.Z.B.<.C K M V N J I 6 6 Y.<.} b N.tX/.OXwXbX!.B.U.rX!.) ,.....tX`.tXE.E.I.y n r m 3 6 L.[ 5 q r 5 ].).].).R.r < 1 8 < t ] o.t Q ",
"B B B _ -.u u u B Z.Z.1.C.m.J J n k C [ l q e W...N } Y.eX/.+XvXNXx.e N.rXQ.} ..b / T.tX`.E.E.E.2.m / 2.6 e XX}.5 q M 5 ].'.'.^.^.=.1 < 1 1 Q ] -.w t ",
"n V n n V r q 9 Q ;.-.<.,.;.C C M k M J d / / [ :.} W.!.@XY./.@XvXc.M C.9X<.) ) m / )._.'.R.U.R.E...` } e 6 y.vXG.k M = <.].'.'.].3.< 1 1 u B Q B t B ",
"H H H V V V l 3 V V V V V V k b J k J [ 5 m N N N [ J [ / F [ ..d.F N [ } m + b m /  .....) ' ) ) ) m b n 6 0 :.S.V 0 - -.(.(.(.R.<.w u u t t t =.r B ",
"D.S.D.<.;.K K n A.S.K -.:.-.C n [ M [ d.q b N / / ) / / / b / / X./ [ / ' / + b / / [ ) ..' ..../ ' b 6 e N N m.$XV 0 + ;.(.(.(.].<.t r w B ( -.r r B ",
"H. XP.;.K K K 9 ;.-.-.{ :.c.M 5 J J J d.[ e N / ) / [ ..Y...B.1.T./ / / B.[ e ) / b X.X.X...X.2.] ( / y q 9 l M :.K l O V -.<.<.<.;.r r r r B B B n l ",
"}.%X X:.;.;.K r :.-.-.{ _ S.M 0 M [ F c.N q m ..} M { U.oXT.).OXwXJ b ) _.B.m [ b b E.R.~.R.).'.U.[ ) / r q 9 K B ;.B O l l l V l q 0 q 0 r n n l 9 - ",
" X%XxXK.m.m.P q | :.{ } } N.x.k 5 V.M x.l 6 m Y.>.b N !.9X_.~.OXbX[ / [ hX/.m [ / / T.E.~.E.`.oX/ b / I.m 6 6 N 6 V.N * { { { { K ;.-.<.<.S.<.m._ r 0 ",
"K..XxX%X X X{ q m.H.:.m.P.J.;.P M b.b.y.k 6 m >.A.[ k M.9X~.tXoXbXd.T.d.MX@X) ..I.U.Y.`.OX~.tXT./ ..[ I.m 6 5 J q C.C *  .x.x.;.K J ;.n.S.N.<.;.:.V - ",
"H..X%X%X%X%X:.k v.F.v.D.H.K.H k M N D.c.5 b 6 N C n b ,.wX).OX@XnXY._.A.nX+XN ..U.T.Y.OX`./.tXY./ ' ) ' t t 5  .M |.[ 3 ;.;.n.D.x.K n.m.G.m.m.-.;.n - ",
"f.}. XK.K.P.;.l K.K.D.n.n.H.I l J | G.D.k N 3 6 b k 6 Y.wXQ._.+XbXQ.tX|.BX&XN M.U.T.E.OXOX~.oX).q / / e m >.b { { x.b.5 K f.H.v.x.J n.K.}.S.m.;.K r - ",
"f.f.H.n.;.{ C b L. X Xb.c.n.L k M d.b |.F } N t ) ) { C.eXC.).+XnXW.9X@XBX&XN c.Y.Q.0X9X9X)._.).b ) } ..2.7.n | M N x.j ;.y.F.x.i.K ;.K.K.V.n.m.;.k 9 ",
"H f.f.;.P { l 6 x.}. XD.v.b.P c C d.C I K.>.) m } } N.Z.9XY._.qXnX/.#X+XNX&Xn ,.I.E.0X9X9XQ.~.~.} ..} I.1.I.N I l | c.F ;.x.v.f.I P x.H.K.S.m.n.;.j 0 ",
"A A H A l k 0 3 H y.L G c H j H F d.J N |.>.} / ,.>.Z.W.eXY._.&XmXoXwX+XBXwXr :.1.U.9X9X#X~.R.T...1...Y.1.I.[ d.N x.l M m.P v.F.L A y.F.K.n.m.x.F - - ",
"y.f.| { { { B M n. X}.n.| ;.K L M  .C | m.1.>./ <.B.Z.Y.OXQ._.&XnX@XwX+XnXqXn -.M.U.9X@X#X~.~.R.,.U...T.1.U.[ b.M J n.0 K.D.v.f.G H f.n.D.n.v.F > = q ",
"P K P ;.;.-.B n n.}.v.n.| | H I M J [ n.d U.<.E B.B.Y.U.@X_.@XeXnX+XeX+XMX9XN ..Z.).OX@XwX).Q.U.<.Y.} Q.C.R.C x.H C x.M }.}.H.h.i.i.D.K.H.n.x.H x s d ",
"H H V K <.;.B V c.v.| P |  .V H H l [ b.2 Y.U./ I.Y.W.Q.+X`.9XeXMX+X9X+XnX+Xm  .U.9XOX_.eX).).U.<.W.:.Q.Z.R.C f.J q | d.H.XX}. XH.F.H.H.n.n.x.H x d 5 ",
"V V K _ ;.:.;.{ { P P J P :.| > [ d.b.F 5 I.B.} B.Q.B.T.9X_.`.xXnX9XeX+XbX).n  .1.9X).).+XQ.T.U.B.Y.N.Q.Y.R.C ;.J n M c.;.K.K.}.H.H.H.n.x.v.v.L l j 6 ",
"V K _ K -.S.;.K J J { J | b.x.M J F x H 5 U.I...B.Q.B.Q.9X`.tXvXMXeXeX+XhXT.m >.,._.).T.@XT.Q.C...I.N.W.Y.8.C P V n k J j c c j j j j 0 0 j j s = % O ",
"V K | K ;.m.{ K J { J [ | J.x.J M M M v.d Y.Y.>.<.[ [ } C.M.d.XXeX!.W.C.`...= b ) } [ N ) N N b x M M.Y.Y.1.C J C k q m.c ;.I c c 0 j l n M k H M k k ",
"V ;.-.;.;.;.C H K { d.P  .b.M M A F M y.5 U.B.N.) / 4 k 6 d / m m b b b b d   2 b e 6 6 5 5 5 q = 6 | B.Y.1.m J n k l { V K V j 0 0 q l n l N K k 6 k ",
"V ;.| V | I P K | |  .P v.c.F 5 d M l y.5 ,.<.<...N.) ,.I.I.7.B.d.I.B.d.d...2 [ [ N ) >.<.,.>.>.6 b V.I.U.1.N H M j k 0 V P V j 0 0 9 l k N C n k 6 5 ",
"H ;.I M V V y.P x.x.d.I x.n.I d s M M P 5 2.N.2.....,._./.`.).N.I.d...A.0XY.6 ..q 2 5 ) T.B.Z.,.) } V.Y.Z.>.e M l k V = l M j 0 j 0 0 n q C N k k k d ",
"H ;.H V H f.F.;.P ;.m.f.P v.H * f l l P > 2.Z.2.M.>.U._.9XtXtX) 2 6 5 M.qXW.q >.) / } } C.U.B.>.>.,.Y.U.1.>.e H L j z ; l k s j l 0 q l V { k 5 j q 0 ",
"V H y.H _ j.f.P K ;.;.v.;.m.H * s V l H 0 1.W.<.B.Z.Y.tXhXrX0X..b E.2._.qXW.r >.-.) [ ..B.I.1.B. .<.W.W.I.>.k F L j s % j k 0 > 0 0 l n K 0 , 5 > 0 3 ",
"V V V V P t.f.y.;.;.;.:.m.:.F * k J k G s 1./.B.B.U.).0XrX0X0XY...} B.Q.wXoXm :.U.,.N.,.N.>.>.B.>.I.!.W.<.X.k c L x s ; z k j 5 0 0 l V 3 * , - 5 3 = ",
"i i > > > j i l z j j 0 j c i * k J c I 5 1.XX2.N.U.R.rXbXrXrX@X_.`.tX/.qX+XN [ U.Y.V.A.Y.} ,.1.B.U.Y.Q.>.1.n Z G v D > l l c z l 0 q - + * , 5 = = = ",
"h.v.H r l l l K m.N.:.;.x.f.z + k V M v.5 B.XX..1.>.>.0XbXrXrX9X`.eXrX+XwX&XJ [ Y.!.C.Z.W._ } ..[ [ } M.} 2.b H H A L > k c V k 0 j - + - * - - * = O ",
"f.;.P l V l l n ;.;.;.;.;.x.F O k | H x.5 B.P.: 2 6 5 W.bXkXrX9X@XrXbX+XhX&X[  .!./.A.S.Y.:.:.{ 6 2 2 5 q >.N I H M v > k z c k j 3 - - O O O - * + = ",
"P K ;.K P K C K { V K I ;.K H * j c k H > ) 2 2 } { 6 C 9X0XrXoX+XwXrX9XwXwX|  .Q.!.!.x.B.N.[ C 2 N N.b 4 m b L H c 0 , j j j c j > * * * * O - O + O ",
"V H H H H ;._ K B l x I K K A O G cX Xv = = = 6 V.,.6 N OX0XtXW.oXqX0X/.#X#X| [ M.A.!.C.W.C.:. .2 e { ,.5 4 k L c 5 - , 5 5 5 5 > , * O O O - O @ + O ",
"l l n V V l r 0 i f z l l V z O XX}.%XG X O 2 b ) 5 6 { _.@X@X!.oXC.A.[ qX+X[ F 2 d oX|.Q.C. .,.J : N B.6 + % L k > 5 * * O O % O             X       ",
"9 n l l q r r l l q c 0 0 c j % D.mXcXL * + 4 6 [ 6 q :.!.Q._.oX+X[ 2 b |.oXN F 2 d oXoX@XW.M.B.c.6 ) N 2 + = F v 0 s > x l - l l 0 0 - 0 l l j 0 > * ",
"j l l 0 3 - 9 0 0 0 l l k V j X j I A Z 2 = 6 q b 6 k [ N.Y.!./.@X[ d d !.!.d d 2 d F I J F d d 5 5 : O 2 % 2 F A x j > l q 0 = > - - * - - 3 3 - - + ",
"% O O o       X O + - - - 0 * % 5 j A F 5 - q 6 6 6 6 5 : > 5 s d d 6 d [ [ # = 5 b b 5 2 2 : ; * 5 = % 2 = = F c A z > j k 0 - * - O O * - - - + + O ",
"A v l z v j , > > j > j c c j , s v L y.5 : M b b N b 4 6 q b d b b d 5 d d = d q F C.{ C.} n n 6 O q * * % X A Z x z > q l 0 0 - * O   - O * O * O O ",
"V c l j 0 0 O , > > > j l A c - s x y.y.= s x k  .M J N  .V.U.[ Y.[ N b [ d k N d F @XC.W.x.| M.M k N M * % X v Z x f s l 0 0 0 - - *   O * - - + O   ",
"l 0 3 , - * - * * > , j v c 0 ; s x y.i.: s k  .v.l J  .V.!.Y.V.XXb.N s !.[ N M : 5 !.P.P.c.x.A.d 5 5 m.s % X c Z x > , 0 0 5 - , O O   O * X O - *   ",
"* 3 * * * j > * * , % j > i j % i z L t.> s x G.v.l j x.G.|.P.C.XXJ 5 j oX:.n J n C L.P.!.P y.c.: M | x.: = = Z A Z f * s 0 0 * * O   O ; O # O * O o ",
"  - * * * > , * , , * ; > > > % i z A L : k s d.K.d.c I D.L.P.A.|.[ / [ @Xd.x [ [ [ K.K.|.d.d.[ : c J s % d : D D z i > > > s = ;   O ; - * # * * # o ",
"  O   O *   * ; * * # * * f >   , z v A ; J s s z x i | b.L.L.P.|.d.d.d.@XP.x F F [ H.K.K.d.d.d.d = : : 5 [ 5 D A z > : > > j = * ; * - * O % = % %   ",
"          # # # * # # * - > >   ; i s D : J L M s > s b.b.K.G.K.L.d.d.G.XXL.A M [ d.H.d.P.d.d.d.[ F [ d M  .d v v s - ; ; : > > - ; , ; * * * % O     ",
"  .         $ $ # # # # & , p # % ; i s ; M H V.P H y.n.v.G.P.D.|.d.d.d.|.L.F w.d.K.}.K.P.Y.d.d.D.d.G.I M I z s v z > ; i i i i > > > ; , * % * % % * ",
". . $   # & a a * p g f i z g & % a a s ; d F G.b.d.d.D.b.J.L.n.K.K.d.J.XX XA I d.d.}.d.d.d.[ d.P.|.!.n.F F s * * > ; ; j f f > , , * * * , * % % % % ",
"  . . . . $ & & # & * , f f Z & # ; ; ; a s z F A L d.d.d.F.K.d.L.K.|.}.%X|.i D a.w.d.k.a.d.w.s.G L S G D D D v z f > i i , - , , ; * * * # % % % % * ",
". . . . . $ $ $ # & ; # & , f ; p f h S e.e.e.r.D r.a.a.a.a.a.i.a.i.d.d.d.d.A w.k.k.[.[.[.k.d.a.a.u.a.i.t.u.u.t.w.t.w.D z j i s i , , > > , , , i > > ",
"$ # $ $ $ & & & & a a a p f f h D s.r.e.e.a.a.S D s.e.p.a.k.z.[.z.z.l.e.w.w.w.h.k.{.{.[.[.[.[.z.h.i.i.u.u.a.u.t.t.t.w.G G D z f f f s f v j f v v v v ",
"p h h h h p h h p p p p h h S S s.r.r.r.r.p.r.s.f h D S g S r.w.w.D S w.w.w.a.h.i.h.k.k.F.j.z.z.j.k.h.g.g.u.u.u.t.w.G G v Z f f j v z z f v c v v v v ",
"p p h h h h h h p h h h h h r.l.r.r.r.l.p.p.p.S h S r.r.S w.e.r.w.w.e.a.k.F.z.{.j.k.{.{.{.{.{.{.[.z.z.F.k.h.g.h.g.t.t.w.G g A z z v A v c Z v c v v g ",
"p p p p p p h p p p h h S r.r.r.p.l.l.l.z.z.e.s.s.r.r.r.r.e.e.w.a.a.a.j.j.z.{.{.[.[.{.z.{.{.z.z.{.{.{.{.[.k.k.z.k.g.u.t.t.f.L G A A G A A Z A A v v v "
};
