/* XPM */
static char *c4ef99e50e244dd9cf20ac8cb3c6ff73geqjzVvtOjj4HwXR[] = {
/* columns rows colors chars-per-pixel */
"75 75 239 2 ",
"   c #030304",
".  c #06060A",
"X  c #0C0C0C",
"o  c #07080C",
"O  c #120E0C",
"+  c #140D06",
"@  c #14110E",
"#  c #1A130D",
"$  c #191007",
"%  c #0B0D12",
"&  c #070E18",
"*  c #100F12",
"=  c #0C111A",
"-  c #141313",
";  c #1B1513",
":  c #1C1916",
">  c #15151A",
",  c #191719",
"<  c #1C1B1B",
"1  c #17181A",
"2  c #241A0E",
"3  c #2B1B0C",
"4  c #271608",
"5  c #311E0A",
"6  c #231B15",
"7  c #2A1E13",
"8  c #231D1B",
"9  c #281F19",
"0  c #201712",
"q  c #301F14",
"w  c #39240A",
"e  c #2D2115",
"r  c #25201D",
"t  c #2B231C",
"y  c #332414",
"u  c #32261C",
"i  c #352A1C",
"p  c #3B2D1C",
"a  c #392915",
"s  c #2F210F",
"d  c #141A24",
"f  c #1D1D22",
"g  c #131E2C",
"h  c #101620",
"j  c #0F1620",
"k  c #211F22",
"l  c #1B222D",
"z  c #1A2029",
"x  c #1B2432",
"c  c #192635",
"v  c #242324",
"b  c #2B2523",
"n  c #2D2825",
"m  c #24252A",
"M  c #2A272A",
"N  c #26282E",
"B  c #2C2B2B",
"V  c #272827",
"C  c #312722",
"Z  c #332A24",
"A  c #3A2D24",
"S  c #332D2B",
"D  c #392F2B",
"F  c #3C3124",
"G  c #34312D",
"H  c #3B322D",
"J  c #262931",
"K  c #2B2C32",
"L  c #232C3B",
"P  c #262A36",
"I  c #322F32",
"U  c #2C3139",
"Y  c #343333",
"T  c #3C3533",
"R  c #3D3935",
"E  c #34353A",
"W  c #3B3B3B",
"Q  c #39373A",
"!  c #442B0B",
"~  c #492D07",
"^  c #4C320C",
"/  c #4A3105",
"(  c #5D3904",
")  c #52340B",
"_  c #583708",
"`  c #422E17",
"'  c #4C3514",
"]  c #44331C",
"[  c #4D391C",
"{  c #4A3418",
"}  c #533913",
"|  c #5B3D12",
" . c #543D1C",
".. c #553A17",
"X. c #633C03",
"o. c #6A3F03",
"O. c #433424",
"+. c #41362E",
"@. c #453A2C",
"#. c #4B3C2C",
"$. c #4B3A24",
"%. c #523E22",
"&. c #413733",
"*. c #433B34",
"=. c #4A3C33",
"-. c #433D3B",
";. c #493F3B",
":. c #40363A",
">. c #5C421C",
",. c #5A401B",
"<. c #6C4204",
"1. c #6A440C",
"2. c #7E4B04",
"3. c #744908",
"4. c #634313",
"5. c #67481B",
"6. c #734E18",
"7. c #785218",
"8. c #7C510C",
"9. c #5C4524",
"0. c #5A462A",
"q. c #574428",
"w. c #4C4133",
"e. c #44413D",
"r. c #4B423C",
"t. c #564839",
"y. c #574834",
"u. c #644A24",
"i. c #654B27",
"p. c #6B522C",
"a. c #67502E",
"s. c #765627",
"d. c #685538",
"f. c #735B37",
"g. c #674F2B",
"h. c #7D613A",
"j. c #263244",
"k. c #2C3543",
"l. c #2C3A4D",
"z. c #27364A",
"x. c #323945",
"c. c #3C3D42",
"v. c #343D4B",
"b. c #2C3D54",
"n. c #353F51",
"m. c #252F41",
"M. c #433F41",
"N. c #3D4248",
"B. c #364253",
"V. c #3A4455",
"C. c #3D495B",
"Z. c #394659",
"A. c #2C4058",
"S. c #3B4B63",
"D. c #434343",
"F. c #4B4443",
"G. c #4C4845",
"H. c #44454B",
"J. c #4B474A",
"K. c #4C4B4B",
"L. c #46494E",
"P. c #524A44",
"I. c #524D4B",
"U. c #574B44",
"Y. c #52514E",
"T. c #5A5146",
"R. c #4C4D53",
"E. c #454A54",
"W. c #514F51",
"Q. c #4E5258",
"!. c #535353",
"~. c #53555A",
"^. c #5B5B5B",
"/. c #585857",
"(. c #675947",
"). c #645D59",
"_. c #705F46",
"`. c #73624A",
"'. c #676257",
"]. c #726756",
"[. c #6D614F",
"{. c #424E62",
"}. c #455367",
"|. c #575C63",
" X c #5C6369",
".X c #586168",
"XX c #5F6A74",
"oX c #636363",
"OX c #6B6B6B",
"+X c #676768",
"@X c #75716E",
"#X c #646C74",
"$X c #737373",
"%X c #7B7B7B",
"&X c #787877",
"*X c #746E6B",
"=X c #625E60",
"-X c #864E05",
";X c #895506",
":X c #945A05",
">X c #865A16",
",X c #996206",
"<X c #976516",
"1X c #8E6017",
"2X c #A66606",
"3X c #BA7406",
"4X c #AD7315",
"5X c #B17013",
"6X c #845D26",
"7X c #8A642A",
"8X c #956824",
"9X c #876638",
"0X c #976E32",
"qX c #A67528",
"wX c #B77B24",
"eX c #C47C07",
"rX c #CA6D07",
"tX c #B7851D",
"yX c #D88904",
"uX c #D08B11",
"iX c #EB9308",
"pX c #F1AF0C",
"aX c #F4B336",
"sX c #F28E2D",
"dX c #F8D811",
"fX c #FBE713",
"gX c #FBCD3B",
"hX c #FBEE2C",
"jX c #F8D747",
"kX c #FAEE50",
"lX c #687581",
"zX c #798BA0",
"xX c #848484",
"cX c #8B8B8C",
"vX c #89898A",
"bX c #959595",
"nX c #8D939E",
"mX c #A5A5A5",
"MX c #B2B2B2",
/* pixels */
"$.i.a.0.q.p.9X9X`.0.$.i F F i w.R R Y Y G V G B V r < : @ @ < V V V B K J v < v k m l k : - : ; - k Z 9 9 8 : 8 : 9 r 6 q.y.a.d.a.a.9.>.9.i.q.0.0.q.#.",
"%.i.i.u.s.s.9X9Xp.0.] ] O.F u e.w.F t e t t t G G B n V V 1 < B B V B K J v v f v m v v : ; , ; * , 8 C 9 7 6 6 : 9 r 6 q.0.a.a.a.u.>.9.>.p.p.9.0.%.%.",
" .>.5.6.s.7X7X0Xs.0.,.$.p a y @.w.F t t t r e n G G n B B < < V B B B K K V f f m m z V ; # ; ; ; - * 8 b 8 9 8 6 r t r 0.0.0.9.u.>.| ..5.5.5.,. .[ [ ",
"} 5.6.6.1X8X8X1Xs.5.q.[ ,.F w.F F R F F @.n n i i t V V r < - r B K B Y M l f f m J v B , - ; ; ; - - ; 6 9 8 9 r t e e 9.0.u.>.>. .} } >.4.5.} } } { ",
") 1.8.1X<X<X8.7.7.4.>.{ F q.w.a p F F Z F F Z n < r r B V : - < v K Y K K J z k m J B E 8 @ ; , ; - * ; 6 0 8 9 t t t r q.,.,.,...' ^ ) X.| | _ ' ' ! ",
"_ 3.;X,X,X;X3.<.8.4.,.} ,.q.y.s y u F Z u t 7 : : < < < < r < z v Y Y E Q E J m J U Q c.k # ; 0 : - , 0 8 0 9 b t e r 2 ,.,.p p ' ^ ~ ~ ) _ _ _ ) ~ ! ",
"4.<.;X2.;Xo.X.( 1.1.^ ,.>.i.9.s a i a y 3 Z t 7 r 2 ; : < r r V B Y Y Y Q x.Q E v.H.M.v.8 ; 0 , 8 : , : , 0 k C i t e 2 s 2 s 4 4 5 5 w ~ ! w w ~ w w ",
"/ / _ _ :XX.( ( / / w / w w s a a a u e e Z A C e e t t t V t B K Q Q Y Q Q c.v.c.H.W M.: 0 6 0 0 0 : , 0 8 9 9 e e 2 # ,.{ ,./ ^ } o.3.2X-Xo.X.3.o.( ",
"X.o.o.<.2X-X-X-X2.2.3.7.) >.a a a p y 7 y e 9 7 u k 6 8 8 : 0 7 9 t r : < : 8 8 k b b b @ @ O * - O O X X @ @ @ @ + # $ ,.,.a ^ / 4.<.8.eX2X-Xo.<.<.<.",
"o.2.-X2.eXuX2X:X,X,X<X7.4.5.3 + # + 2 0 # 9 6 9 6 9 u t t 9 8 O @ - - X ; * ; k k C S E :.8 @ # - < : $ + + + $ # + + 2 ,.a a ^ 1.1.<.;XrXiX:Xo.<.( ( ",
"<.-X;X2XpXpXrXrX3X,X2X7.5.6.y 2 2 u 7 u Z C 9 8 6 9 9 6 8 C b ; ; 0 : : k k v t k C T J./.:.E m T M.n t t e 3 6 2 $ $ 2 [ { ,.1.1.8.,X2XiXiX>Xo.<./ _ ",
"<.;X:X3XdXfXyXyXyX2X4X1X4.5.s ] a A u u e C 7 e t 9 8 8 ; ; 9 8 * : b M 8 ; 6 6 9 k D &.M.D S M.M.*.H H Z Z t 7 2 i s e ,.,.6.6.3.8.;X2XgXpX5Xo.<.( ( ",
"<.-X:XyXdXhXiXiXiX3X4X<X5.5.p ] O.i A u Z S b C S I k k r V n M M k 9 # ; # # ; 6 6 u =.r.=.T =.-.M.D D 9 D +.t e $ : 3 ,.5.s.>X>X:X,XtXhXdX5X2.<.X.( ",
"-X2X3XyXdXfXpXiXuX3X4X1X6.u.a y ` p A A A H &.T T T :.:.W Y R Y M F.; +X0 !.< D.M.9 H Z (.C &.P.I.I.M.I.R 9 &.A e 2 $ 2 q.>.7X>X1X,X2XpXhXfXtX-Xo.X.( ",
";X2XeXyXhXhXpXiXuX5X4X7Xs.5.s p O.#.u u A D H :.&.&.+.D n R 1 OXO %Xk OXM ).B /./.M OX- ).b =.J.+Xd.[.(.t.7 F #.y 6 + 2 9.>.p.6.8.;X4XuXkXjXeX-X3.X.( ",
";X,X3XiXgXhXdXiXuX4XwXqXs.9.] @.A =.A C D :.;.:.S b k T < $Xv K.F.W.J.W D.R.W ^.W.Q /.S bX. ).=.U.M.=.&.t H i F w.e $ ; ,.>.5.6.<X4XuXuXkXjXuX:X2.X.X.",
"<.;X2XuXjXaXpXuXwXqXwX0Xp. .q O.A u A D :.D D S G G Z Y.G.V oXv vXV OX<  Xe.^.^.Y.K.G.K.OXB cXX ).).A =.d.&.O.O.=.O.# # %.u.s.| <XwXeXuXjXjX3X;X3.( ( ",
"^ 4.1.1XsXaX<X1.4.| 5. .] ] 0 O.A C A &.D C b M G G &XX $X- &XB %XV $XX %XK &XY.Y.^.Y OXY oX+X- mXI.u q =.T.+.=.M.u 0 # 0.i.i.6X6X1X<X5XjXgX2X;X<.( ( ",
"7.qX4XtXwX8X>X>X6.6X0Xs.i.%.O.=.O.C D &.C b b b !.R W /.V %Xv OX< +XG.Y %XY vXK./.$X< %X- bXB +X=X, @XC =.y.#.#.t.` 0 $ %.%.,...| 6.<X<XqXqX-X;X<.( / ",
">.s.0XqX8Xo.) ' ' s.9Xf.%.#.A +.A C +.D Z t b I.< oXv oXW !.W !.B $XY &X!.D.bXe.oX$X@ xX. cX< mX, =X%X9 =.=.A U.=.p 0 ; p q a a ! ! | o.3.1._ _ / w 5 ",
"..>.6X9X6X..~ ! { s.9X9Xd.y.F D Z Z H D b b v Q /.1 %X1 OXv %XB cXW oXOXV ^.%XY oX&X< $XB =XD.xXk bX- K.T.(.t.T.&.0 # 6 %.%.%.6X6X>.! ~ / ) 1.5.4.^ / ",
"` %.s.p.%.' ! q ` f._.f.d.y.@.+.D Z &.S b b ^.W Y oX1 $XB &XV OXB !.OXB Y.oXW D.+X%XB  XoXB %X< vXW.k mXT ).i A C 0 + 7 t.a.a.f.h.| w 5 5 ~ >.4.4.} ,.",
"p ] a.a.%.' q q ` f.`.f.d.U.=.D D +.=.b Z M.v !.e.B /.B oXB +XD.^.^.K.OX XY.B !.OX$XY /.cXV xXv cX, bXW v @XD S q 6 # 7 =.a.f.f.f.5.5 4 5 5 } | ^ ! ' ",
"q p 0.0.#.` q 5 a d._.(.(.(.+.+.Z C ;.T D n $XM W oX- oXV %XB +XD.K.OX^.Y.!.+X^.^.^.G.!.bX=X/.cXS OX$X% bX'.C C 6 C 6 9 d.d._.d.f.>.4 4 4 5 '  .` a { ",
"u C =.=.#.] 4 4 y U._.(.(.T.H *.S C &.:.e.^.v D.!.V !.Y e.Y oXL.+X!.!.oXOX^.!.oX^.!.!.^.$X%XW xXD.xXX mX~.. ;.C 8 C u 9 (._._._.d.p 4 4 4 3 `  .' a ] ",
"u A #.=.@.$.y q q (.(.(.U.P.T *.D D A &.W B ^.D.B Y.Y W c.Y W Y.!.^.^.!.oX+X/.^.oXY.OX X!.@XoXn cXB xX/.< bXxX&.6 b C 6 ].].].`._.p 3 4 5 3 ] %.[ p ] ",
"A F O.=.#.e e s p (.U.U.T.G.T &.S b T Q Y.OXI k '.c.V Y.B D.V W W ^.oX^.^.OX+X/.^.=X$XOXG.^.@X XD.&X+Xv mX/.Q.|.9 9 D 8 (.].].`._.$.2 3 4 2 ] $.q.i p ",
"Z D Z A H t e e F w.w.t.F.;.A H D 9 D T K.k Y ^.N.V K.W Y W Y Y Y Y !.oXoXoXOXOX^.+XD.OX X$X^.%XoXoXY mXI v vXvXW.M S ; T.'.].].[.y.3 3 4 y O.O.$.i p ",
"Y G Y G H H n e D G Y Y D D b C D b H :.Q W.Y.W Y D.W Y W Y Y Y Y B B D.^.oX+XOX$XoX/.+X$X^.oXD.OXR.cXV ^.mXK.F.I.T t @ t.'.].].(.t.y e s a p p F p F ",
"K.!.K.e.e.*.T Z /.T.=.=.r.w.T C &.S T M.@XF.k k /./.Y B K.Y Y Y B B B v B K.+XoXOXvXOX/.%XK.^.vX/.%Xr mX&Xo n I.*XH r ; r.'.'.[.'.t.p a a F O.w.F p G ",
"~..X/.G.W R H t =.w.=.*.r.r.D 9 T T T M.B V W R.G.N.Y W Y Y D.B V Y v V V < v W !.+XxX&X&X%XOX'./.OXzX6 /.mX$XD t.T n # G w.r.t.P.r.u i i i F F F Z i ",
"|.#X+Xe.e.e.*.u r.e.=.=.&.I.A k D &.I F.W./.!.M.W Y D.W Y Y Y Y Y V V v v v < 1 : V Q D.!.R.oXoX*X/./.cXOXV 8 T S ;.Z @ Z Z n G n t r u r u Z G n 6 6 ",
" X#XlX~.K.G.:.t ;.F.=.;.=.I.D.b r Y.G N.oXD.B V V V W D.D.Y Y Y B G V V 1 < < - - - X X X X W oX$X%XY Y OXMXvXF r Y.G @ w.*.*.*.&.=.=.r.U.T.P.r.=.n e ",
"|.XXlX#X X X*.9 F.W.r.F./.T.e.:.G K.e.D.V V Y Y W D.D.Y Y V V V v V V V V V v 1 - - X X X X 1 '.Y.oX&X^.Y - V R V T.H ; e.D.e.e.R T D.Y.Y.P.P.r.r.A : ",
"Q..X#X#X#X#XF.b D.E.D.R.Q.~.T V G G Y.N.K.Y.Y.K.D.W W Y V B B Y Y Y V v v < < 1 - - @ X X X 1 Y.!.!.+X&X%XvX$Xe.G ^.*.6 W e.L.Y.D.R K.J.!.Y.G.w.e.S 0 ",
"V.|.|.~././.r.b ~.~.R.E.K.Q.Y M T R Y.Y.K.N.G.K.!.Y.K.N.D.D.Y B B V V V < r < : - - - X X X V OX/.oX^.L.W W Y W @.D.K.6 e.N.Q.H.D.T K.~.^.K.F.;.R Z 0 ",
"N.V.~.K.;.-.H u |.+X XJ.J.J.Q b G e.Z ^.Y V V Y W W W W Y Y W D.V V B V V < < < 1 - @ @ @ X D.D.oX^.^.!.L.K.!.e.D D F.v e.D.H.N.c.:.;.!.~.I.G.I.-.b 6 ",
"Y W H.W R &.n 9 M.|.|.R.H.K.Q S H r.I R oX/.K.D.W W W W Y Y W Y V Y V V V v v < < < - - - X W ^.D.^.oX+X$X$X'.W n :.F.I e.D.H.N.E c.D.~.~.I.I.G.N.t t ",
"U K G Y n M 8 8 Y c.E K B Y m I D r.T D B K.oXXX!.W v Y D.D.B Y Y B B V V v v < < < 1 - - - D.^.!.!.Y.%XOXB V D.S M.n S G.W L.L.k.I c.J.W.J.J.D.S : r ",
"-.c.-.R &.=.H Z I. X|.R.:.-.R T n -.T :.W V V W Y.G.D.Y W W W Y Y Y B v V V V < < < 1 1 1 - D.^.oX/./.^.K.^.$XQ.S R L.r /.R.H.N.U E c.R.W.K.J.K < ; r ",
"W Q W e.w.r.F G I.~.L.K.-.e.Y Q S R &.J./.=XR.Q Y W K.W W W W Y Y B Y V V V V v < < < < 1 < D.!.+X X^.!./.@XD.H.T H F.I |.|.Q.H.x.c.Q.~.R.R.D.Y M k k ",
"I Y G *.r.r.F G J.D.c.:.*.-.Y S T M Q J.; , J.$XY.v Y /.Y Y W Y Y Y Y B B V V V V v V < r 1 W oX^.^.$XG.%Xv R.L.T t -.M.W.+X|..XQ.E.|.R.J.K.D.Y C k q ",
"G H R H w.G.e.@.:.W *.T :.r.W 8 :.M.J.I oX!.v V ^.!.V G.N.Y W Y Y Y Y B V B V V V v v v V v Y ^.!.^.+X+XK.+XOXD.T C S G.D.~.~.|.~.Q.Q.K.D.J.H.Q M k k ",
"H R R w.e.I.r.H T R &.T ;.K.D.S T S M T v W ^.!.B c.Y.Y W W W W W Y Y Y Y Y V V V V v v B V V ^.+X'.!.^.=X/.Q W S S 9 T v n M m v v v r 8 v m < 0 ; * ",
"T R *.e.e.P.*.T R &.Q :.-.W.D.T S S S H.$XY - K.+XV D.Y.V /.B c.W Y Y W Y B Y Y V V Y V B < V /.K.^.OXD.+XY xX-.H C b P.S M.Q n M r b b S S C I I k C ",
"Z w.e.:.e.e.Y T &.*.;.Q M.G.D I K S S c.f /.+XV W ^.V K.c.W W e.Y W W Y Y Y Y V Y B v B B < V W +X^.!.$XD.%XM T S t b &.S R S M v r t n C C S &.M 9 k ",
"G e.W T -.Y Q R -.;.-.M.D.J.S 9 v S S c. XG v oXN.G ^.G K.Y L.Y W W W Y Y Y B W B Y V B B V V B !.^. Xe.+XY OXR S 8 V r D W G v 8 9 t C C S +.D C k q ",
"Y D.R D G Y -.-.M.M.M.W M.J.Q k v S n W @ Y.OX1 Y.oX1 oXV oXV G.D.Y W D.W Y W V Y Y Y Y B W Y Y !.!.K.&XQ vX1 S Z M S ; n S b k v 9 r C t +.A k C C k ",
"Y W R G Y D.E.c.W ;.D.M.c.H.E @ v M B W +XB k OXG Y +XV ^.v K.W B D.e.B Y W Y W W B D.Y Y W Y V W ^.+XY OXv $XY E V m - M b r v v t b i G *.b f b k 9 ",
"H Y W Y Q E.H.W W -.M.F.M.F.E * v Z n Y < Q =XV D.^.V ^.B ^.Y G.K.W W D.W W V W Y V D.Y B W Y W Q !.Y +XD.+Xv U E V f - M r v < 8 t b Z H v , 8 8 8 6 ",
"H G G Y R W N.c.e.-.r.F.P.F.I ; n T B K oXR.* ^.N.r &X1 oX1 ^.Y Y Y.W V W D.K.W W V W W Y Y Y K.Y Y &XK.Y.Y.^.B U B m > V V v < 8 b t D 6 - , 0 k 0 ; ",
"f f < < < v z V v M v r k M , ; v T S W B 1 '.U Y oX- +XV OXB !.D.U K.K.B W Y.W W Y Y Y D.W W B B D.G.Y =XB N.Y Y J m < n n M n M r b : ; - : < , 0 ; ",
"V.H.Y Z n Z Z R G.F.r.D.F.D.M - r R G N.V +XB v =X< +XB !.B oXB ^.D.Y /.K.W V D.D.W Y Y Y.N.Y < L.D.r &XV zX< U E K I f b n S M b r < ; - - ; : # # # ",
"D.e.W n G Z n H r.r.e.r.M.D.I O t W G D.+X- V @XX /.Y D.G.W Y Y.1 /.W V !.W < W N.G.B W ^.K.B D.Y.z ^.R '.2 &Xc.I S K < M M n b t < : : ; - @ : ; # O ",
"Q W W Y W *.H H *.H T Q W W Y - v I n Y * Y ^.X ^.e.z ^.z OXG !.K.V ^.V Y Y.Y B Y.!.V W oXW W oXB D.G.z /.Y V W I M 8 , k k v B v : - - - - # ; @ # * ",
"Y G R H G e.R H S n S Q *.R S O Y zX.Xl Y ^.1 W G.1 OX: ^.< +XV $XY K.^.v K.!.B N.^.V D.^.v G.Y.r /.- oXf xXf Y n 9 < : 9 8 8 8 < ; - - @ @ # @ O # # ",
"n n S H Y Z Z r < v M M n S v - +X|.#XK ^.X B oXX /.V D.D.B D.W Y oXV $XW D.&XV K.oX< K.K.1 /.v G.D.Y !.D.v OXQ M < < - : @ @ @ X X X X X X @ X X X X ",
"r C n C t i i u r M M v 8 S v @ K.nXzXQ X M /.X K.D.- ^.1 $XX oXX ^.V K.^.V &XW G.OX< /.B Y !.@ +X< %XX +X- Q Q B r < < M n < n Z r r : t t V r 8 r - ",
"t C b r 6 # 6 t r t b b b S v X v Q J B < ^.< k /.X ^.V W D.W G.W Y Y.< oXV OXD.D.OX1 ^.< K.W Y /.I R.Y Y oXX I K M v k b t 9 : < : : - : < 6 r ; ; @ ",
"* @ @ @ X X X @ @ ; : 6 8 r - - 8 v K Y ^.v * +X- B !.- ^.X OX1 $XX oXX oXV ^.K.W +X- +X  +Xv +XV ^.X $X- OXQ K J K v < v b t - - : @ @ - 6 : ; : @ $ ",
"I V V V V v < < f 8 v v v B V 1 z V Y c.V   K.Y - ^.X K.Y V G.1 oXv /.< K.Y D.K.Y ^.1 ^.X OX1 %XX oX1 !.F.% oXI K J V < n n b < : : @ X ; @ @ - # @ @ ",
"G M v v r r * 1 : < < v M S v 1 v B W N.X Y G.  N.W X '.@ /.1 D.V D.W Y Y D.V !.B !.v /.1 =XV !.B W Y.- +XX M K K m k f t r r r : : @ X @ - 1 : ; @ X ",
"V r r < ; - 1 - - 1 > k M n v - z B x.N.< /.@ - !.X D.Y 1 oX  /.X ^.< !.< K.1 !.B K.B K.B D.D.v !.X &XX M.R.. J K m f > r 9 8 : - @ @ X - @ O @ ; @ X ",
"; 6 ; - - b < - - 1 - < v z v - < V U x.Y.v X !.< - /.X W Y V Y.X oXX OXX !.@ !.B e.Y Y K.V =X  OX- D.W X *Xk N K J k > k r 8 ; - - X @ 1 - @ @ - @ + ",
"X # - - - 1 - - > - - > < f < * < J K k.Q   v L.  Q W o !.X D.Y - Y.X +X  !.X !.B G e.z oXX oXX K.W X +X@ G !.K P k k 1 < 8 8 : - * - - 1 @ @ - @ * X ",
"X @ @ - X - - > > - - - - < f X , k N I X X G.- * Y.X V D.  ^.< B R - oX  /.X !.Y z G.@ @X  K.< z ^.  K.c.  D.U U k f , , f v , - - - , ; - - - - * X ",
"X X X X X * % % * - % ; > < < X - f k P . Y Y   Y Y   K.v X Y.X Y.k k Y.  /.  K.B < !.X OXX Y K.  ^.< 1 ^.X X N J k 1 - > , < < < > : : - - * - * X X ",
"X . X . % % % & % % % * > > d & * > f k - -.-   G.- X K.X V Y   ^.* V N.o !.  G.Y @ ^.  !.< 1 oX  R G.  D.e.  l m m k > f < f f f , > > > - * * * * - ",
"o o o & % & h h % f x g d J P = * d > f I m   k Y   V Y   D.< * ^.  Y I X !.  c.Y   oX* Y Y   ^.< * ^.X - =X1 - - > > > v z z < > < - - - - - - * * * ",
"o o o . . & = = % % = > f k x > % = > = I o o W -   D.1 X K.X < D.  e.v - K.  W Y   ^.1 < K.  R Y   D.Y   Y N.N m v f f f < 1 1 > - - - - * = - * * * ",
"o o . . o o & & % > > = = h g > d l P m.k   , Q   - D.  < N.  V Q   D.< - J.  T W   !.V X ^.= 1 K.X 1 K.% X K.N.x.x.k.P m v z r < < < 1 < < 1 1 < < < ",
"& & & & & = = = = h d d d g l x P m.m.l.l.z.l.L l L z.U A.B.B.Z.B.l.B.L U U L V.V.C.E.S.V.E.C.B.B.B.x.B.x.U B.k.x.k.k.U U P V z m f z z m z m V N N N ",
"g g c c c g c g x g h d x P L j.L m.z.z.z.z.b.c x x c L P L k.k.k.P L U k.k.n.B.N.V.V.C.C.C.C.S.C.C.V.V.N.B.B.N.U U U U l N N f m m m m m V m V J N N ",
"g g c c c g c c g c l x c c z.z.b.z.z.b.A.Z.A.L c L z.U L z.l.k.j.k.l.B.Z.Z.S.}.C.V.}.}.}.}.}.S.E.S.S.C.V.B.B.B.A.x.N.z.U J U z m J J K N N J K J N m ",
"g g g g g g g g g x c c c z.z.j.b.b.b.b.S.S.z.L L z.z.z.z.l.l.z.l.V.V.C.E.S.}.}.S.{.}.S.}.}.S.S.}.}.}.S.}.C.C.S.C.B.B.U B.x.U U J K U U K K K K J J J "
};
