/* XPM */
static char *e1b9943bde884141bf088beb27c0308azPaKL5rh8KxAOy3s[] = {
/* columns rows colors chars-per-pixel */
"75 75 191 2 ",
"   c #1C1C1C",
".  c #0B3616",
"X  c #0C351D",
"o  c #0E3919",
"O  c #123A1E",
"+  c #10371B",
"@  c #0F3920",
"#  c #0F3620",
"$  c #113627",
"%  c #133C24",
"&  c #123728",
"*  c #153D2D",
"=  c #1B3E2E",
"-  c #173F30",
";  c #1C3D30",
":  c #232323",
">  c #2C2C2C",
",  c #213F33",
"<  c #343434",
"1  c #3A3A3A",
"2  c #144226",
"3  c #194327",
"4  c #174529",
"5  c #1D432B",
"6  c #17482A",
"7  c #1B4B2D",
"8  c #174030",
"9  c #1B4333",
"0  c #1E4936",
"q  c #1F4938",
"w  c #1E5030",
"e  c #21452C",
"r  c #234B2D",
"t  c #25502D",
"y  c #28512E",
"u  c #244435",
"i  c #244B35",
"p  c #294B36",
"a  c #24463A",
"s  c #28473E",
"d  c #244C3B",
"f  c #294B3C",
"g  c #245233",
"h  c #295434",
"j  c #275A35",
"k  c #2D5935",
"l  c #27513A",
"z  c #2A553C",
"x  c #2C593E",
"c  c #32503F",
"v  c #32613D",
"b  c #37653F",
"n  c #2C4D42",
"m  c #314F46",
"M  c #275040",
"N  c #2D5245",
"B  c #2D5C41",
"V  c #2F5548",
"C  c #2F5A49",
"Z  c #315346",
"A  c #335D45",
"S  c #315649",
"D  c #335B4C",
"F  c #3B5E4D",
"G  c #365F50",
"H  c #3A5E52",
"J  c #2F6143",
"K  c #316445",
"L  c #35614E",
"P  c #3C644D",
"I  c #356A49",
"U  c #3D694F",
"Y  c #376843",
"T  c #3A7146",
"R  c #366151",
"E  c #396554",
"W  c #3B6956",
"Q  c #3D6B58",
"!  c #434343",
"~  c #4C4C4C",
"^  c #405D4E",
"/  c #435C55",
"(  c #545454",
")  c #5C5C5C",
"_  c #416356",
"`  c #426C53",
"'  c #446559",
"]  c #4A645A",
"[  c #436B5B",
"{  c #4B6A5C",
"}  c #486853",
"|  c #53715F",
" . c #61615F",
".. c #4A6D60",
"X. c #526D64",
"o. c #5B6E64",
"O. c #517365",
"+. c #567469",
"@. c #5B756C",
"#. c #5D796D",
"$. c #567A64",
"%. c #5F7C71",
"&. c #636363",
"*. c #6C6C6C",
"=. c #696967",
"-. c #637B6D",
";. c #647D73",
":. c #6B7B75",
">. c #747474",
",. c #7C7C7C",
"<. c #6D847C",
"1. c #678475",
"2. c #77867F",
"3. c #7B8A7E",
"4. c #748C83",
"5. c #7A8C83",
"6. c #7C938A",
"7. c #749081",
"8. c #828282",
"9. c #8B8B8B",
"0. c #858E88",
"q. c #84948C",
"w. c #859B8E",
"e. c #91918F",
"r. c #8A9B94",
"t. c #889A93",
"y. c #959593",
"u. c #909C95",
"i. c #999997",
"p. c #9D9D9B",
"a. c #969F99",
"s. c #8EA099",
"d. c #94A39C",
"f. c #A2A29E",
"g. c #9DAAA4",
"h. c #95A5A0",
"j. c #A5A5A2",
"k. c #A8A7A4",
"l. c #A6A9A4",
"z. c #A9A9A6",
"x. c #ADAEAB",
"c. c #A3ABA8",
"v. c #B0AFAC",
"b. c #A5B3AC",
"n. c #AEB0AB",
"m. c #B1B2AE",
"M. c #ACB5B2",
"N. c #ACBBB4",
"B. c #B5B5B2",
"V. c #B5B9B4",
"C. c #BABAB6",
"Z. c #B5BDBA",
"A. c #BDBDBA",
"S. c #B9B7B3",
"D. c #C2BEBB",
"F. c #B5C0BA",
"G. c #BDC0BD",
"H. c #C1C2BE",
"J. c #C8C3BE",
"K. c #BEC3C0",
"L. c #C6C7C2",
"P. c #C6C8C4",
"I. c #CCCAC6",
"U. c #C6CBC8",
"Y. c #C9CDCB",
"T. c #CDCECE",
"R. c #CCCDCB",
"E. c #D0CECB",
"W. c #CBD2CD",
"Q. c #D2D1CD",
"!. c #CFD2D1",
"~. c #D2D2D2",
"^. c #D7D7D7",
"/. c gray84",
"(. c #D5D5D5",
"). c #D5D5D3",
"_. c #D7D9D6",
"`. c #DAD9D6",
"'. c #D8D8D8",
"]. c gray85",
"[. c #DBDBDB",
"{. c #DDDDDD",
"}. c #DEDEDE",
"|. c #DBDBDA",
" X c #E1DFDB",
".X c #DEE0DF",
"XX c #E2E1DE",
"oX c #E3E3E1",
"OX c #E8E7E4",
"+X c #E8E8E7",
"@X c #EAEAE9",
/* pixels */
"n n n n n N N N = = e l z l z x x l z z B x B x z z z z z g 4 D R L E R R R D R G S G D D V D D V V S V V V V n D H R G C G E L R R S n n n n n N N N ",
"n n n n n N V N f 5 5 r z z x B x z j z B B B x x B z z z z V R R D R R R R R D G V S G D V D V D V S D V V N N G G R G D G R R R R n n n n n n n m N ",
"m V Z S n n S S n e e e x B K B J x z z x J B B x z x x z d M G R R R R R D R R G D ' / [ ..O.+.+.@.%.4.4.n V M V R R E D R D E E N n n n n V n N N m ",
"S S Z N N S S S S f e e g v B J x J x W Y.!.W.W.Y.Y.U.U.U.K.P.U.Y.Y.W.T.!.!.(.(.^.^.^.^.'.'.'.'.'.^.^.~.g.V V q M G R E E E E E D n n n n n N m N V S ",
"m S V V S D V V V S p e e v v v K J B J 1.F.'.'.'.'.].].].^.].].^.^.^.^.^.'.'.'.'.'.'.T.T.~.(.'.'.'.].T.t.m M q q C R E E E W R d n n n n N N N m V S ",
"n V S S V V V N D S A i e r j g j l x j w.~.~./.^.'.].[.[.[.[.]..X.X.X.X.X}.}.}.{.}.{.[.'./.A.].^.^.^.^.4.M D D C N q q q N C M 9 n n V Z N S S N V S ",
"Z S S S D V V V C D D V i r 2 4 6 4 6 6 w K 1.V.B.P.p.&.) ) ) )  .&.) &.=.=.*.*.>.*.>.>.>.>.y.K.x.K.c.%.G S G G R R C q 9 9 9 8 a n n V Z S Z S S S D ",
"Z S V V D G C D D S Z Z z 2 2 4 6 7 6 4 7 7 6 g.T.~.v.1                                   : y.U.U.Z.' S G G G G R C C q 8 8 8 8 ; n N n V S S S D S D ",
"N N S D D L D D D D S S V 4 a n n n a a q 9 2 r.^.^.B.!                                   : p.(.^.N.G L R G R H R q a M n , - X ; s n Z Z S S D D D C ",
"Z D L L R R R L S D R S D z f n V V n n V N 9 4.^.^.A.(                                   < z.].^.d.R G G R M - a M n n n n = X ; , s n S S S S C D G ",
"S G R R R R R S D L G G G V n V V D V V C G N %.~.U.D.(                                   ! x.].[.t.G G C M n M n n n n m n f $ ; , u u f S S D S D D ",
"S R R R E R R R E E L D D M n V V V V D V G V X.T.A.U.)                   :               ! B.].[.4.C M q N N n V V n n n n f , = , , u u f F S D G L ",
"S D E E E L G D R R V N q 9 n S V V V G H H D ' ^.T.T.&.    :           :                 ( K.].'.@.a M V V V V S N V V n n n n , , f s f Z Z K V D R ",
"S E W E E E E E R d 9 - 9 9 a V n V m D G E H D ^.^.~.&.:   :   :   :     : :       :   : ) P.].(...n V V S V V S Z V S Z V n n a u D D D S Z f A G E ",
"P ` E Q W E W M 0 9 - - * 9 N N n m n m D G G S ~.'.^.&.  : : :     : : : : : : : : : :   &.R.^.T...S D S S V S S S S Z Z Z n n n A D L D D Z f i c ` ",
"p c K P W B 0 9 9 * - 9 M N V V V V V V V q s m U.'.[.*.: :   : : : :   :     : :     : : >.A.(.K.E V D G V D G S G S D S N S n n S E D B x x z z z h ",
"c h k h A 9 9 4 9 q M n S n V S N S S S S n 0 n Z.].[.>.: : : : : : : : : : : : : : : : : >.U.T.b.H V G C D D G C D D S D S V N d a B z z z x x B z B ",
"Z x c z f = - - N D S V S V V V N V S S S m s u M.].{.>.: : : : : : : : : : : : : : : : : >././.u.G V G D L C G D G C N V V Z V s 2 z d z z z z z B B ",
"x K x f 9 - 0 S G S V N V S D V V S V S S S n u g.].}.,.: : : : : : : > : : : > : : : > : 8.(.].6.C G G R R G R R D C G D V S V d i l z z B M B B B B ",
"x K K h - q S S S D D V S S S Z S S N S Z S S f s.].}.8.> : > : > : : : > : : : > : : : > 9.].].4.R R G R R D C R G G C D D D V l l p l g B x B B B B ",
"B K K 7 ; S D D V D V G D S D S S S G S S S D n q.].{.9.> > > : : : : > : : > > : : : > : p.{.^.%.R R R R E G R R D D D D V V B p l z l l z x x x j B ",
"x J J % N D S D D V V D D D D S G S V S S S S S 4.^.}.e.< : > : > > : > > : > : > > : > > x.{.].O.C R E R R R C D L R L G V N d l l l l l x x x z B J ",
"B J 0 z D D D D D D V D D G S S D D Z S N S D S %.(.}.i.< : > > : > > > > > > : > > > > > A.}.^.[ R W E R R L L R R D C D D a 0 l l l l z x x x z x B ",
"z x d R G R L R G D G G S D C V S D D S S D S Z +.T.}.f.1 > > > > > > > > > > > > > > > > P.].!.R E W E Q W W R R E L C D a 9 7 z l h z z z z h x B B ",
"z 7 D L R R D L D R D G D D S D H G S V S G S V ' U.[.x.1 > > > > > > > > > > > > > > > 1 R.R.G.c E W E Q Q Q R W R V M q 9 - 7 y k l l z z x x x x B ",
"5 0 E E R L R D D D G D G D D D G V S D S G S n G L.[.M.! > < > < > > > < > > < > < > < ! T.T.M.= z W W Q Q W L C q 9 9 9 - * * r r k x x x x x x x x ",
"% S D D D R R D D C D D D G L S D V G S S D V V D K.[.A.! > > > > > > > > > > < > > < > ! ~.].y.s , N W Q Q D a 9 - - 9 9 - % O e r y w 7 w w 7 7 w 6 ",
"N D E L R R L D G L R D R R D C D G V G G S V D D M.].K.~ < < < < < < < < < > < < > < > ~ T.(.@.m n a M B 6 - - 4 9 N S D N N u 5 i 7 3 7 7 6 6 6 6 6 ",
"S L R R R L R R D D E D R L D G G D D D C V V V D c.^.A.~ < < < < < < < < < < > < < < < ( (.(.] N n n n 0 * * - - N V D D D S V V N d i i 0 3 2 2 2 r ",
"H W E R E E E R R R R E D D R L D G D D D D D D D h.T.C.( < < < < < < < < < < < < < < < &.(.(./ n n n n n a & & M G G V D S S S V S S N n n n 0 . 7 L ",
"H E E R E E D D R E E R R R R R G D D D V V V D D r.].U.( < < < < < < < < < < < < < < < >.].T.H n n n n n s & 9 D C D D G C S S Z V n N N n M 9 i L E ",
"H R L E R W W R R E R R L R D R R D L D C D V G S q.].U.( 1 < < < < < 1 < < 1 < < 1 < < ,.}.P.D N N n s d * X z R S G D D S D S S S S n N d q d D L D ",
"G D E G W E W R C R R R R C D E R G G C C G G V G ;.].P. .< 1 < < 1 1 < 1 < < 1 1 < 1 < 9.}.Z.S m m n n * & a R W L R C C C D D C C N M q q q G D R R ",
"H E Q W W E R W E E E R R R R R R R G G G G G G V +.^.P.&.1 1 1 1 1 < 1 1 1 1 1 1 1 1 1 p.{.M.V n V M - * q E R E R R L R G D M M M q q 0 9 9 C E E R ",
"H G W R E W R E W R E R R R C E R D C R G G G C S ../.U.=.1 1 1 1 1 1 1 1 1 1 1 1 1 1 1 z.].g.N m M - & 9 R E E E E R R D M q q 0 0 0 9 q 9 9 d E E D ",
"R G E C E W W E W W E R R G R R R C R G R H G G D ..W.I.>.1 1 1 1 1 1 1 1 1 1 1 1 1 1 ! x.].t.n M - & - C E E W E E L N 0 - 9 9 9 9 0 9 9 8 8 d L E E ",
"G R E R E R E E E R E R E E R R R G R D G V n M a V U.T.>.1 1 1 1 1 1 1 1 1 1 1 1 1 1 ! B.^.2.S - & & C E R W W R d 9 - 8 8 9 8 9 8 9 8 9 9 * 5 B R E ",
"H E W W E E Q W W W W E E E E R R G N q q - - - * 9 K.T.,.1 1 1 1 1 1 1 1 1 1 1 1 1 1 ! C.).@.z & & & 9 M M M i 8 * * * - - 8 8 - 8 8 8 4 * * * f L L ",
"E R W Q E Q W W E W E R C L C N q - * 8 - - * $ & n Z.T.8.1 1 1 1 1 1 1 1 1 1 1 1 1 1 ~ L.~.S = & & & 3 9 4 * & & * & - * * - - - - - 0 - & * X p F E ",
"R L C C N B M z q d q q 0 q 0 0 0 - & 4 - - ; ; a / B.H.y. . . . .&.&.&.&.&.&.&. .) ) =.G.G.X.& - ; u i d d d d q 0 i g d i 0 9 9 9 R E R V 0 . r h P ",
"d 9 9 q 0 0 q q d q q q q 9 0 M V M N N n n V ] w.U..X.X|.)..X_.].].].].[.[.[.[.`.].^.^.[. X~.t.^ u u i l f h p l z z z p l l i i C R R E W W C f p f ",
"9 9 0 9 9 0 q q M z l g q q C D D D V V N n 5.^..X.X`.|.|.`._._.{.L.L.L.L.L.L.L.L.L.I.I.I.~.~./.G.c p i l l l z z z B M x l h 0 z S L R E R R E L z h ",
"i i p z z z x l z z l l x z z f M N B N n n 4.B.G.J.P.H.H.J.H.P.P.P.L.L.L.I.L.L.L.L.L.L.L.L.L.P.n.Z e e i z z z x x x j x z l 2 C L D R R R R E D A 5 ",
"d z z z g B z B x z z z B z B l M z d z n n :.A.J.P.I.L.J.P.P.J.L.D.D.L.L.L.L.R.L.L.L.L.L.L.L.P.a.s 5 e r r h x x x J B x g 6 4 D D R D D R R L S a r ",
"d z z x B z x g l z x z B z x z z l l l f n X.C.J.P.P.P.L.L.L.L.P.L.L.L.L.L.L.L.L.L.L.L.P.L.L.C.-.= 5 5 e e e y v K J J 0 6 2 0 D D D D D D D N u u h ",
"f B B B C z B B x B B B z x B z l z z l l u / f.l.f.j.f.l.k.j.j.j.k.z.x.x.v.v.v.B.B.B.S.C.C.C.C.q.Z e e % e e r r y v g 6 6 2 B S D S D D A f u u i l ",
"l z z x B x B B B B B B z x B x x z z x P w.G./._.`.).).L.m.H.`.[.{. X X{.{.{. X(.^. X XoXoXoXoX.XL.:.s e e e r r e y 7 4 2 0 Z V S V S N u , u u l B ",
"z z z z x x C B B B z x l z z x x z z -.].XX|._.).Q.).`.).Q.).Q.(.(.~.~./././.~.~.^.).[.oX^./.].|..XoX%.i 5 e e r r r 6 2 2 N V V S S N u u u u f B z ",
"x B x z x J J B B x B x B x x x z z x 5.n.G.H.G.A.C.F.A.A.H.H.G.H.H.H.H.A.C.C.C.C.A.A.G.A.H.G.H.G.A.V.t.D n 5 e e e e 6 2 u N N n V n u , u , u z x x ",
"B z x A J x J B B x x B B x B x B B x 3.B.L.L.L.J.I.P.J.L.L.J.L.L.L.L.L.L.L.L.L.L.L.J.L.L.L.L.L.H.L.H.2.a f f i e e 3 2 2 f n n n d u , , , , e x x x ",
"x x z x x J x J J B x x J J B x B z z -.V.L.L.L.J.Y.P.J.L.L.L.L.L.L.L.L.E.L.L.L.L.L.L.L.L.L.L.L.J.J.S.;.n n n n s e 5 % = n n s u a s a , = O 7 A z x ",
"B J x x x B J J J J J J B J x x B B j O.m.J.L.L.P.J.P.P.L.L.L.L.L.L.H.J.L.L.L.L.L.L.L.L.L.L.L.H.G.S.x.{ V V Z n n n s = , s s d D E W W S 6 o i x B x ",
"B B x x J J J J K J J K x x B x B B z ` x.V.A.C.G.G.G.A.A.C.A.B.m.n.n.n.m.m.m.C.S.m.B.m.B.V.B.B.n.x.f.O.V N n n m n n n s , a D E E E W E E B C x J x ",
"z B x J J I J J J K J J J B j J x x g { x.C.C.A.C.B.m.B.B.V.B.C.G.I.R.)._._.E.W.R.H.|..XoXXXXXoXXXXXXX^.r.S V N n n n f ; O V H E R E R W W E E K J J ",
"z x K K J J J J K K K K J J J B v U b..XXXXX|.XXXXXXXXXXXXXXoXXXoXXXoXoXoXoXoXoXOXXXoXoXXXOXoX+X+X+X+X+X+X!.N n N m f u = 0 D R R R R R E E R G l x J ",
"B K L K J I I J K I J J J J B J $.W.OXoXoXoXXXXX.X.X_._._._./.).Q.Q.W.I.I.L.L.H.H.H.H.L.A.A.H.H.G.H.H.L.L.G.5.S N f u u u C D D R R R R R E G G p h J ",
"K K K K K I K J I I I I K v g 7 } A.A.G.H.A.G.C.A.C.A.H.H.H.L.L.L.L.L.L.L.J.L.P.L.L.L.L.L.L.L.L.L.L.L.L.J.D.y.F n u u , N S S D G G G G D G G C r r k ",
"b Y T K K K I I I I K j g 6 6 2 } n.H.J.L.L.L.L.L.L.J.L.L.L.L.L.Q.L.L.L.L.L.L.L.L.L.L.L.L.L.J.L.L.L.L.L.L.D.5.s f u u f Z V D S V G D D R D D B D E D ",
"p y j b T j w t 7 0 2 2 2 2 6 2 P m.L.L.L.L.L.L.L.L.L.L.L.L.L.P.I.L.L.L.J.P.L.L.L.L.L.P.L.H.H.L.L.L.L.L.L.V.-.p u u s Z S S V D S G D D C D D i L E R ",
"y r r t w @ X % 2 4 @ @ 2 2 % 2 5 x.L.J.L.L.L.L.L.L.L.L.L.L.P.P.L.L.L.L.P.P.J.P.L.L.L.P.L.L.L.L.L.L.L.L.H.n.] u u f n N V N V V S V D D D C V z L L R ",
"r y y y 7 = d S S S n - d N A G N 3.z.x.m.C.G.A.n.k.m.B.B.B.B.B.B.B.B.V.V.x.x.n.n.n.x.x.x.z.l.l.z.z.x.x.k.y.f u , n n n N V S S V V G D G S N G D D D ",
"% p B c S D S D D D S V N N S D [ 0.p.j.z.x.x.x.f.p.z.x.B.B.C.A.L.A.C.V.V.n.x.x.x.x.m.x.x.m.x.m.m.m.x.k.j.i.o.m s n n n n N V Z n m V V V V V D D D S ",
"S E L D G G G S D D S V n n d ] Z.].}.oXoXoXoX.XoXXXoXXXoXoXoXD.R.oXoXXXoXXXoXoXoXoXoXoXoXoX.XoXoXXXXXXXoX{./.K.u.S n n n n V N V N m N n V V V S V a ",
"F E L D G H D D G D S V n V #.^.}.oXoXoX XoXXXoXoXoXoXoXoX.XoX}.oXoXoXXXoXoXoXXXoXoXoXoXoXoXoXXXoXoXoXXXoXoXoXoXoX].c.X.n N n n m N N S N n n N d 9 4 ",
"G E D D L D D D D D N V S <.'.oXoXoXoXoXXXoXoXXXoXoXoXoXoXoXOXoXXXOXOXOXOXOX@X+X@X+X@X@X@X@X@XOXOXOX+X+X+XOX+X+XOX+X@X.X' f n n n Z n n a M a 9 * 9 d ",
"G E E R R R R D S V V n V q.C.A.H.H.A.A.G.H.L.L.L.L.J.H.G.C.V.V.B.F.V.F.C.F.G.J.I.Y.I.U.E.XXU.H.H.P.P.J.G.F.G.H.I.I.G.G.E 0 9 9 a n n a - * - 0 C L E ",
"H E W R R L R S S D D V V ;.C.L.L.L.L.L.L.L.L.J.L.L.L.L.I.I.L.L.P.P.J.P.J.P.L.L.P.J.J.P.J.U.P.J.P.P.J.J.J.P.J.P.L.L.J.A.' u 9 * - - * - @ 5 D E W E E ",
"H E E E R E R G D C V N V ] C.P.L.L.L.L.L.L.L.C.G.H.L.L.P.L.L.L.J.P.P.P.L.L.L.L.P.P.P.J.W.W.P.P.J.P.P.P.P.P.J.P.L.L.L.A.H n N d a - * - o e f l N A F ",
"c W [ W E L D C M q 9 9 u O.B.J.L.L.L.L.L.L.L.L.P.J.P.J.J.P.L.L.J.P.J.J.P.P.J.J.J.P.J.J.J.P.P.P.J.J.P.P.P.P.P.J.L.L.J.m.d.E V A S d * % X u p p p p p ",
"p z z - * 9 9 9 9 9 9 9 <.H.f.m.C.A.m.v.x.m.B.H.G.m.n.H.H.P.J.P.J.J.P.P.J.J.P.J.P.J.H.F.F.J.J.J.H.G.F.H.J.K.P.P.I.J.S.k.J.m.' Z S V n O = p p u p p p ",
"p h q - 9 - 9 4 9 - = | E.I.x.e.i.p.e.e.e.e.i.f.d.e.i.f.j.l.z.z.x.n.n.n.N.n.n.n.b.l.f.f.f.l.l.l.f.d.f.f.l.l.f.l.f.f.i.S.I.Q.B.P D D S d e p u u u p p ",
"s n ; 0 9 9 - 9 - = B I. X`.E.m.B.C.D.D.D.D.J.D.D.D.A.S.B.B.n.n.n.n.n.m.m.m.m.m.m.m.m.m.n.z.z.f.f.f.j.z.z.z.l.f.f.i.f.J.`. X`.s.G D S N , u u u u p s ",
"n m m n n n - - - - d.XXXXXXXXXX`.`.E.E.I.J.I.I.I.I.I.I.I.I.I.I.W.I.I.I.I.E.I.E.I.I.I.I.I.I.E.J.E.I.E.I.I.I.I.Q.). X XXXXXXXXXXX4.D D a = a , s s s s ",
"n n n n n V n * - _ _.OXOXOXOXOXOXOXXXXXXX.X`.Q.).Q.Q.Q.Q.Q.Q.Q.Q.Q.Q.Q.Q.Q.Q.Q.Q.Q.Q.Q.Q.Q.Q.Q.Q.).Q.`.|..XXXXXXX@XOXXXOX+X+X+XZ.D L f s s n n s n s ",
"m Z Z m n n n a & -.W.W.W.W.W.W.W.W.W.W.W.W.W.W.E.Y.U.W.W.Y.I.G.K.U.U.W.W.W.W.I.J.G.H.G.F.W.W.W.E.W.Q.W.W.W.W.W.W.W.Q.Q.).W.W.W.N.Q D n n n n n n n n "
};
