/* XPM */
static char *c15ee7ad19664800e87c5aa13591519dvmqqS0tsz7XsAqN9[] = {
/* columns rows colors chars-per-pixel */
"75 75 251 2 ",
"   c #0C371A",
".  c #12391D",
"X  c #0E3424",
"o  c #0F3A20",
"O  c #123C23",
"+  c #113728",
"@  c #153D2D",
"#  c #1C3D2E",
"$  c #103626",
"%  c #1C3D30",
"&  c #173F30",
"*  c #213F33",
"=  c #772506",
"-  c #5F2F12",
";  c #144226",
":  c #174529",
">  c #1B432C",
",  c #1B4B2D",
"<  c #184529",
"1  c #174030",
"2  c #1B4333",
"3  c #1E4936",
"4  c #1F4938",
"5  c #1F4738",
"6  c #1E5030",
"7  c #21452C",
"8  c #234B2D",
"9  c #28432C",
"0  c #26512E",
"q  c #244435",
"w  c #244B35",
"e  c #284A36",
"r  c #234639",
"t  c #244C3B",
"y  c #294B3B",
"u  c #28473E",
"i  c #245233",
"p  c #295434",
"a  c #27513A",
"s  c #2A553C",
"d  c #2C593E",
"f  c #2B5935",
"g  c #34573A",
"h  c #364831",
"j  c #36633D",
"k  c #5B740C",
"l  c #7B7C19",
"z  c #6F6F0D",
"x  c #4C542F",
"c  c #695927",
"v  c #4E6A3A",
"b  c #717139",
"n  c #764E0B",
"m  c #2B4D42",
"M  c #274F40",
"N  c #2E5245",
"B  c #2D5C41",
"V  c #2F5548",
"C  c #2F5A49",
"Z  c #275041",
"A  c #315446",
"S  c #335C45",
"D  c #305649",
"F  c #315649",
"G  c #32594B",
"H  c #325B4C",
"J  c #355E4E",
"K  c #335B4C",
"L  c #395A49",
"P  c #365F50",
"I  c #385F51",
"U  c #314F46",
"Y  c #2F6143",
"T  c #316345",
"R  c #35614E",
"E  c #3A634D",
"W  c #376A4A",
"Q  c #366151",
"!  c #366151",
"~  c #396554",
"^  c #3C6956",
"/  c #3D6B59",
"(  c #3A7146",
")  c #4C5B40",
"_  c #49664D",
"`  c #566647",
"'  c #436C54",
"]  c #487456",
"[  c #6D6D45",
"{  c #B61602",
"}  c #A90F00",
"|  c #892808",
" . c #962705",
".. c #983508",
"X. c #813D0C",
"o. c #A72D05",
"O. c #A73609",
"+. c #BC3C0A",
"@. c #B53708",
"#. c #B83111",
"$. c #941202",
"%. c #D21B02",
"&. c #EB1E02",
"*. c #C83C08",
"=. c #D12E05",
"-. c #FA2406",
";. c #FA351A",
":. c #ED380A",
">. c #FB3720",
",. c #94530E",
"<. c #A84608",
"1. c #B84609",
"2. c #B95B12",
"3. c #B75609",
"4. c #8F7412",
"5. c #BE6A0C",
"6. c #BA6516",
"7. c #A86B13",
"8. c #8A6227",
"9. c #976C2B",
"0. c #896E39",
"q. c #947738",
"w. c #A46F28",
"e. c #B37528",
"r. c #A77A36",
"t. c #AB722D",
"y. c #825D2B",
"u. c #C7460C",
"i. c #D34E0E",
"p. c #E95613",
"a. c #E9450B",
"s. c #C8680B",
"d. c #D56706",
"f. c #D97A06",
"g. c #C56A15",
"h. c #C77517",
"j. c #D97718",
"k. c #D26F0F",
"l. c #E96903",
"z. c #EC750E",
"x. c #F54D2A",
"c. c #C87822",
"v. c #D37D26",
"b. c #DC6222",
"n. c #A27D45",
"m. c #798A15",
"M. c #7C9515",
"N. c #6D8B0D",
"B. c #6C8E34",
"V. c #679921",
"C. c #87981B",
"Z. c #948E13",
"A. c #B08C12",
"S. c #8DA61B",
"D. c #97A91A",
"F. c #98B412",
"G. c #A7BB1B",
"H. c #AFB213",
"J. c #938F2C",
"K. c #AF9230",
"L. c #96A627",
"P. c #91AB2B",
"I. c #A7B928",
"U. c #AFB22E",
"Y. c #DA8719",
"T. c #D39114",
"R. c #EA8603",
"E. c #F18807",
"W. c #EA9306",
"Q. c #FB9A01",
"!. c #E98618",
"~. c #E89A18",
"^. c #FCA804",
"/. c #FFB401",
"(. c #FEB70B",
"). c #FDBA15",
"_. c #EEA819",
"`. c #DE8522",
"'. c #DB872A",
"]. c #DD8C33",
"[. c #D98C39",
"{. c #DA943B",
"}. c #CB8E31",
"|. c #E18721",
" X c #E38B24",
".X c #E18C2C",
"XX c #E88F25",
"oX c #E6932B",
"OX c #E9952C",
"+X c #EA9528",
"@X c #E08E34",
"#X c #E49434",
"$X c #EB9C34",
"%X c #E2953C",
"&X c #E69A3B",
"*X c #E99D3A",
"=X c #E79733",
"-X c #F2992D",
";X c #C4AC26",
":X c #D3AA32",
">X c #F6BC2A",
",X c #EBA13C",
"<X c #F1A339",
"1X c #FCBE37",
"2X c #F0AF23",
"3X c #9BC907",
"4X c #B7CA23",
"5X c #A9CF0B",
"6X c #FFC11A",
"7X c #CDC82B",
"8X c #FBC728",
"9X c #FDCB35",
"0X c #FED333",
"qX c #FFD839",
"wX c #FAD026",
"eX c #FFE138",
"rX c #C4E10E",
"tX c #948F4B",
"yX c #AB9646",
"uX c #DC9748",
"iX c #D1984A",
"pX c #E19442",
"aX c #E49D43",
"sX c #E39C4A",
"dX c #EA9E41",
"fX c #E29D51",
"gX c #D3A452",
"hX c #EBA342",
"jX c #EBA64B",
"kX c #E8A549",
"lX c #F3AC48",
"zX c #E5A354",
"xX c #ECAC54",
"cX c #E7AB57",
"vX c #F1AE53",
"bX c #EDB359",
"nX c #F4B65B",
"mX c #F6B659",
"MX c #EFB14E",
"NX c #EDB568",
"BX c #F3BA6B",
"VX c #F6BB64",
"CX c #F0BC73",
"ZX c #B5C847",
"AX c #F6C26A",
"SX c #F5C272",
"DX c #F9C674",
"FX c #F9CB7B",
"GX c #F8C977",
"HX c #E6DA46",
"JX c #FBD082",
/* pixels */
"m m m m m N N N @ > 7 t s a s d d 6 Z s d Y d s d a s s s i : H ~ R Q Q Q Q H Q J G J J H V H G G V G D D D A m J P R Q H R ~ Q Q Q D m m m m m m m m ",
"m m m m m m N V y > 7 8 s d d d Y s d s s Y Y s B B s s s s C R ~ H Q ~ Q Q Q H Q V G J J V J G G V A G V V N m H P ~ H H H Q Q P ~ m m m m m m U V N ",
"U N A D U m F F m 7 7 7 d B T Y Y Z 6 d d Y B d B s d d s t d R Q Q R Q Q H Q Q Q G H J J J J H D N G N V V C Z H Q ~ ~ H J H ^ ~ N m m m m U U V U N ",
"F D N A N F F V D y 7 7 8 j B B Y Y Y d Y Y Y Y Y Y d s s 6 a Z ~ ~ Q Q ~ ~ ~ ~ Q J J J R H J H H G H D V G D r Z R Q ~ ~ ~ ~ ~ H m m m m U N N V V V ",
"U F V N G G V V V D e 7 7 f T T Y Y Y Y Y Y B Y Y Y B s s s s 3 s ^ ~ R Q E ~ R R J Q J H V J J H H G V V V t r t C Q Q ~ ^ ^ Q t m m m m U N N N N D ",
"U N F F V V V V G G S w 7 0 f 0 f a d f f d B Y Y d a B d d a 1 @ T E ^ ^ ^ ' ] / ! R J J J J J J H V t 3 t C H C Z 4 4 t Z C t 5 m m m V V A D V N D ",
"D D F F P C V N G H H V 8 8 ; : : : : , , , , , : : ; o ; ;     + e e e e e a e e g A S J E E N t 3 2 t H H Q P Q Q C 4 2 2 2 2 5 m V m V V D A F F G ",
"A V V V F P P V H G V V s : ; : , , : : , , , : ; ; ; ; ; o ;   @ q e u t e y y y y e u q q t & 2 a C D H Q R Q Q H C 4 2 1 1 1 2 m m U U D A D G G P ",
"N N V H H R H R G H H D N > t y m m u r w : ; : t u M u M m m m y m N A N m U N N U V m m r % & C C P R P P ! ! P 4 5 m u * @ X # u U m A F D G H H H ",
"A H Q J Q Q Q H H H R G G Z m m N D M m H V 3 N N m m N m U N D N N A A U D V N V D V m N m r 5 P C Q Q Q ~ Z 2 r M m m M m #   # * y m D F H D H H R ",
"D P Q R Q Q Q G J R Q Q Q G m N F P N N F H N N N D N N N m N A V F D V F F D A D D V V N m m 5 P P P P C M r m m m m m U m m $ * * * q y D H H C H H ",
"G Q Q Q ~ ~ Q Q Q ~ R G J t m D F F N H D P V V m N F F F F N N N H F F F N D F K F V N V m m 2 H H C M 4 N V U N N U V m m y * # * q q q y K D H P R ",
"A J ~ ~ ~ R Q H Q Q V N 4 2 N D N V V P P P P N m A F H D D D N F H F F P D F N D U F D V D Z 2 4 t 5 M N N F F V U V N m m m m q * r y y N N E F H Q ",
"G ~ ~ ~ ~ ~ ~ ~ Q a 2 & 1 1 r D V m N H ! ^ P m F K G G V N H N K K P P F F F N G G G U V U M 2 t N m N V F V V D D D A A A N m r q K H G S A y S R ~ ",
"E ' ~ / ~ ~ ~ C 2 1 & & & 2 N N U U m N H Q H H F G K D F H N N N H P F H P F F K G D D V M 5 N H F F H V F N V F F F D A N m m m C H P G H A e q g ' ",
"y g S E ^ S 3 1 2 1 @ 2 m N N V D N V A N t u F P F F P J K K H F P F H F H P P G G G V 4 M V V F F V P P V P P G P H F F N A m m G Q J B B d s s s s ",
"s g s g g 2 2 1 2 5 M m D m V F N D D D D m 5 u D G G H G H D J V F F P H G G I H H C t 5 Z D V P H V H H C H R H H H G G V D N t t C s s s s B B s B ",
"d s s g t @ @ 2 N P F D F N V F N D D F D D u r e V H G G J K E P P P P P H G P P H Z 2 2 t H D H H H P H Q H H R J H V V V D N u ; a a s s s d s B B ",
"N T d y 2 @ 3 V K F V N D F F N N F V F G G N q e e y g J J J R P H G P P P G H P C 4 2 3 4 H H H H H P Q R H P Q Q H H H G G V y e a a a d B B B B d ",
"d T T p # 5 D H H H H D F K F A F F V F U A G e y y y y d I ~ G J R ' _ _ _ _ ) S 4 3 Z Z 2 C H R Q Q Q Q Q Q C Q H H H H G G V t p t a a d s B d B Y ",
"B T T , 2 G H H D H D H H H H D G G K F A F K m d B B g y g ] [ yXgXgXiXfXpXuXiX}.t.b ) F m H J R Q ! ! ! ~ Q Q Q H H H J G C N i a a a i d d d d d B ",
"s Y Y O Z J G H H D V H H H H V K G D F D D F D B S T v q.iXzXcXfXzXzXfXxXpXpXpXpX[.@Xv.[.r.[ J Q C ! ^ ~ ! Q C H Q Q Q H V N a a a a a a d s d a d B ",
"B Y i Z D K G J P K H H H P H V K K A F N G F H B v J.uXVXsXcXzXfXfXzXfXpXsXpXpXpXpXpX%X].'..Xe.[ ~ ~ ! ! ~ P H ~ ~ H C H H 3 8 a a a a s s d d d d Y ",
"d d r ~ Q ~ J R P H H P F H D N K K H F A F D L r.zXdXxXzXzXbXsXpXpXsXpXvXpXpXpXdXpX@X@XdX.X.Xv.].t.` ~ / ~ ~ ~ R ~ R G H r 2 , s a s s s s d a d d B ",
"s , J R R Q J Q H Q J J J H D H I I G U D K ` }.cX&X&XbXkXAXuX{.cXsXpXMX[.@XsX[.pX@X&X&X.X.X|.#Xv..Xv.tX] / ^ P ^ Q V Z 4 2 & : 0 f s s s d B s d d d ",
"> 3 ~ ~ Q Q Q H H H P H P H J H G G G G G [ }.dX&XNXkX=X&XkX'.oXpX@X{.dX].aXhX@X]..X.X'.|.=X.X.X.X@Xv..Xq./ ^ J C 4 2 2 1 1 & > 7 0 f g d d d f d f d ",
"O G J K H R ~ H H G H H P J J G G V P G ' uX,XbXbX,X&X#XoX`. X`.dXxX.XjX#X]..X&X,X X|. X|.`.`.Y.$XdX.XdXv.0.G 3 : & & 2 3 & O . 7 7 0 , , 6 6 6 6 , , ",
"m P E J Q R R H R R ~ H R R J G P P V P r.&XhX,X{.,X,XhXY.Y.AX'.|..X`..X#X`.XX`.`..X#X.X`.`. X X X XXXOXOXv.c # & 2 N F F D m 3 > 8 8 , : , , < , : : ",
"D Q Q Q Q J Q R H H ~ H R H J J P P K ` ].*X,X,X,XMXhX{.!. X,XY.!. XY. X!.!.,X`.!..X=XY.|.|.XX*X.X.XOX=X*X%Xe.* & N H C F K F A V N t r 3 w > ; ; ; w ",
"I ~ Q Q ~ ~ ~ Q Q Q Q ~ H R P R P H I 0.=X,X,X*XMXxXoX X X,XAX,X X X X X'. X X X X X X XOXXXXX=XOX-XlXdXdXcXpXx M P P V P F F F V D D N N Z y 2   , R ",
"I ~ ~ ~ ~ ~ H H ~ ~ ~ Q Q Q R J P H H n.dX*X,X*X=X=XoXoXoXoX`. XoXjX.X X X X XXX-XXXoXOX$X=XOX$X<XdXdXjXcXNXuX0.C H H P P V F F D A m N N m t 3 3 R E ",
"I ~ J ~ ~ ~ ^ ~ Q ~ Q Q Q Q Q Q P H E K.kXkXjX,X,X=X+XoXoXoX=X+XoX$X+XoX+X+X+X=XOXXX$X$X<X<XhXlXlXlXvXNXNXCXfXn.Q C P V P P F G D D D m N t 3 t R ~ C ",
"P P ~ P ~ ~ / ~ P ! ! ! Q H H Q P Q P.;XaXzXbXbXjXhX*X*X$X*X,X,X,X,X<X<X$X,X,X<XhXlXlXlXlXlXmXmXmXVXBXBXBXNXuXyX_ _ Q C H C P H C C N V 2 4 3 P H Q Q ",
"P ~ / ^ ^ ~ Q ~ ~ ~ ! ! Q Q Q Q Q Q B.F.}.dXcXBXBXbXxXxXxXMXvXnXmXmXmXmXbXMXbXnXnXnXmXmXmXAXAXAXDXVXBXVXcXsXr.U.ZX! Q Q P P H Z Z Z 4 4 2 2 2 C ~ ~ Q ",
"P P ^ ! ~ ^ Q ~ ~ ~ Q Q ~ Q Q Q Q P v 3XH.K.}.cXBXSXSXSXSXSXGXDXDXDXGXFXDXSXSXDXDXDXAXVXmXAXVXAXVXNXvXsX}.K.F.F.P.~ ~ P H M 4 5 2 4 4 2 4 2 2 a ~ ~ H ",
"I P ! H ~ ^ ^ ~ / ~ ^ ~ Q C C Q Q C B.rX3X5XN.A.fXNXCXGXFXFXFXFXFXFXJXJXJXFXDXFXFXDXAXnXmXmXmXmXvXfX}.A.Z.D.F.4XP.~ P N 4 & 2 2 2 2 3 2 2 2 1 t R ~ ~ ",
"P P ^ P ~ Q ^ ~ ~ ! ~ ! ~ ~ ~ ~ Q P B.G.5.5.Z.3XN.S.L.K.gXcXNXVXAXGXDXGXFXDXAXAXCXBXnXvXjXiXK.J.4.m.D.G.Z.{ ,.Z.P.a 2 1 & 1 1 1 1 2 2 1 2 & @ : d ~ ~ ",
"P ^ ^ / ~ ~ / ~ ^ ^ ~ ~ ~ ^ Q Q Q ! K.(.E.%.a.5XM.N.Z.N.m.m.C.J.J.J.K.yXyXyXyXK.K.J.J.l l l C.C.S.I.G.4X,.{ } h @ @ @ @ & & 1 1 & & 1 1 @ & @ @ y R E ",
"Q ~ ^ / / / / / ~ / ~ Q C H C C w tX9X1X>X:.-.j.5Xu.#.,.X.4.G.N.N.M.M.k M.M.N.C.C.m.4.L.I.L.4Xg.h.7XI.I.u.{ d.Z.@ + + @ @ & & 1 & & & 3 @ @ @   e L ~ ",
"~ R C C B Z Z a 4 t 4 4 3 3 3 3 x ,.x x c g.p.x.p.-.-.;.x.x.2.Z.F.G.G.m.K.1.1.=.2. .%.i.:X'.oX-.-.:.:.3.i.W.6X6Xb 3 3 i t 4 4 2 > 2 Q ~ Q C 3   8 s E ",
"r 2 4 4 3 4 4 4 4 t 4 4 2 4 3 Z C Z N N h = O.i.>.-.-.-.-.&.%.;X4XG.H.@.=.&.%.} $.{ -.;.;.>.>.;.:.a.l.^.(.).9X9X:Xd a a a e a w w C Q R ~ ^ ~ C e e e ",
"2 2 2 3 2 2 4 4 a s a a 4 4 V H G G D D x | | | O.d.z.z.l.l.a.*.7Xh.a.=.l.d.l.R.W.z.E.E.R.R.E.z.R.h.5.5.s.k.Y._.2XB.B s d a a w a G Q ~ ~ Q ~ ~ ~ d y ",
"e w a a a B d a s s a s d a s t s C Z A 0.<.O.O...O.3.W././.^.Q.^.^./././././.(.(././.W.s.,.= = = = | o.| | J.L.v j B d B s i : C R J Q Q ~ Q ~ J A > ",
"e a a s a s B d s d s s s B B s s a a g :Xv.O.+.1.1.+.@.f././.^././.^.Q.Q.(.6X6X(.f.<...| | <.O.| o.u.*. .2.9X4XU.[ T B d i : : G J J R H R H Q V e 8 ",
"y s B s d d s s s d d s N s d d s i a tX9X1X6.#.u.u.1.u.O.d.).6X).(.)._.8X9X).f...= o.@.i.p.z.x.+.u.a.@.<.8X9X:XF.B.T Y 6 : : 6 H H H H H H R N q q s ",
"a s B B B s d B d d d B d d B s a a tX9X2X_.2XY.d.1.u.1.1.1.3.>X0XqXqXqX9X~.1. .o.O.#.*.*.p.p.p.u.+.s.s.A.A.T.A.x p j i : : ; V G H D H H S u q q w a ",
"y s a B B d B B S d B d s d d d d d q.J.H.Z.D.I.Z.D.4.7.<.o. .3.8XqXqX0Xj.@.@.+.*.*.*.u.=.u.u.k.g.5.A.I.M.F.}.x 8 8 0 , : : 3 C A G V D V q q * q s s ",
"s d d s s B B B d B d s a d s d d s s B.F.M.m.S.I.F.S.D.N.z n X.<.wXwXd.o.@.@.+.*.u.O.o.<.Y.1X_.Z.m.U.k N.K.}.h < 8 8 : ; ; N N V V A N q q % q a d d ",
"d d d d Y d Y B B d B d B d d s d s v M.m.C.K.}.S.D.M.4XD.C.L.S.z Z.7.T.~.~.~.W.T.T.~.>X9X9XT.l 4.7.3.,.S.e.e.h 8 < 7 : ; w m N N N m q q * 7 * d d d ",
"N d d B d Y Y B B B d B B d B d B d j M.P.:XjXxX}.L.M.I.Z.Y.4XS.S.M.C.m.Z.T.8X0X0X0XqXqX>XZ.Z.7.6.2.2.6.w.6.8.e 7 7 > ; ; y m m m u q % * * * q d d d ",
"d d s d d B B Y Y Y d d Y Y B d d B d a A e.=XhXvXU.U.:X-X-X;X;X7XY.H.S.C.4.4._.eXeXqX2Xz I.K.6.g.g.6.6.g.2.U m y 7 7 O # m m y q q u 2 * @ . , S d B ",
"d Y d d B B Y Y Y B Y Y B Y d d d d d a 3 y 0.'.XX$XlXvXlX<X<XOX-XOX+X;X!.Y.j.3.k.wX~.z L.ZX:X'.c.h.k.6.y.A m m m y y @ r u u u J ~ ^ / H >   0 d d d ",
"B B d B Y Y Y Y T Y Y Y B d d d d B s d X V F ) 9.c. XOX<X<X-X-X+XXXXX X!.j.v.j.g.j.2.e.:X:X'.h.k.6.8.) U A U m m m m m * * r K ~ ~ ~ ~ ~ ~ G B d B B ",
"d B j T Y Y Y Y Y T Y T Y B a Y d d a , : F F V L m x 9.c.Y.!.!.!.!.!.!.!.!.!.!.!.k.s.j.j.j.5.8.x K A D G A N U m m m y % O V I ~ Q ~ ~ ^ ^ ~ ~ T B d ",
"d d Y T Y T Y Y T T Y T Y Y Y Y d d d ; t D H C I G u q A E ` [ 0.9.w.w.w.w.w.9.8.c c c ) L K F P G G A F F U m N U y q > q J R Q Q ~ ! ~ ~ Q R d d Y ",
"A T T T T W T Y W W Y T Y Y Y Y d , : @ N D V C K K U q q A E R ~ ^ ~ ^ ~ ~ E u q r N V F H P H F G F I K F U A m m q q q D J K P Q Q Q Q ~ Q J e i T ",
"T T T T W T T Y T W W W T j 6 , : ; ; : Q / Q C r Z m * e u E ~ / ~ / / ~ C 3 3 N H C H H C C V G G D G K K D A m r q 7 m G G H P P P Q H R Q G 8 8 f ",
"j T ( W Y W W W W W Y f 6 , : : ; ; o a / / / / Q t $ + q t g ' ~ / W Z 2 1 2 C R Q P H Q V G H P K K K D D A u e q q u D A H D V H P H Q R J B J ~ H ",
"p 0 f j ( f w 6 , , ; ; ; : : ; ; o 2 ~ / / ^ ^ ~ Q V , 7 q q S ] B 2 2 2 t C H Q H Q H P H Q H K K G G D D u e r q u A F D V F F P F P H H H w R ~ Q ",
"0 8 , i ,     o : ; ;   ; ; ; ; o o C / / / / / ~ Q Q ~ A r q u Z 2 1 4 C Q Q R Q Q ~ H H Q Q P J P K K J y e q q u N N V N D D F F H P C H V t R R Q ",
"9 0 0 0 , @ t D G D m 2 4 N C Q t : ^ ^ ~ ^ ^ ^ ~ ~ Q Q P H m t 2 2 C ! ! ! ! ! Q ~ Q Q H Q J J I J K K A e r q * m m m N N F F V V P G K H V H H J H ",
"O p g A G P J S H G V N N N C H P m ! ^ ~ ^ ! ! Q Q Q P H P H N Z P Q ~ ~ ! ! ~ ~ ~ ~ Q R J H P Q J J A q e q > r m m m m N A F N N V N D D D H H H G ",
"A ~ I P I P I G K K H N m m u V V M M ! ! ~ Q ~ Q Q H H H P P V V P Q Q ~ ! ~ ~ Q ~ ~ ~ J Q ~ ~ Q Q S q q q @ X 5 m m m m m N N N m V N m A N V G D 5 ",
"I ~ J J I I G K K K F N N N N m Z & 2 M C P Q Q R Q H H P F N V N V 4 N ! ^ ~ ^ ~ / ~ ~ Q ~ Q Q R L e q q G ~ V 2 5 m U m U m U V U U A N m N N r 2 @ ",
"J ~ K G J J J K H F N N A N N N U m 5 2 5 C ! H H P K H F D N D N m & @ 5 H ~ ^ ^ ^ ^ ~ ~ ~ Q ~ S e q q D Q ~ ~ C 4 5 t M M m m U U m m M m 5 & @ 2 t ",
"I ~ ~ J ~ J J J H V V N V N V m m m M m 5 2 Z P P H P K K A N N m m 5 m M Z a C H ~ / ^ ^ ~ / S q q q D P J Q ~ Q Q N 1 & 2 2 & 5 m m r @ @ & 5 C Q ~ ",
"I ~ ^ ~ Q R J G V H H V D N m U m m M m M 2 2 2 Z D H H G F D U m y M m m N F F N 3 2 s R ' u % * r A F H J P J P H V r 2 2 2 @ & & & & $ , H ^ ^ E I ",
"I ^ ~ ~ Q ~ I J P C V Z V V M r M r % % 1 1 1 1 1 4 N D V N V U m r m N F F P H N 4 t N U A q * * y A F H J P Q V V N U U m V M 5 & @ @   > e m A S I ",
"s ^ ' / ~ R J C Z 4 3 2 4 2 2 2 & & 1 1 > 2 3 > & & & m N U N m u u N D H H C 3 & N F D D A m * r m V F H K K K N N N D D D D D D y + O   q e e e e e ",
"e g Z & @ 2 2 > 2 2 2 2 1 2 2 2 2 & 3 w t t e t 2 @ + @ 5 m m m m m N V V 5 2 m D G F A F F D D Z t m N D D F D N F D D D D N V G G Z . # q e q e y e ",
"e g 2 & 1 1 1 1 2 1 1 1 1 1 & 1 2 t t a a p s e 4 1 @ @ + & r m u m N Z 2 r D G G K K G G D N D N m Z Z V V D D N F F F H F H D D K G t 9 q q e e e y ",
"u m 2 3 5 2 1 2 1 1 1 1 1 1 : w M a a a a s s t a t + @ + + + + @ M 1 4 P H H H H D G G G D N G H V N N t m V N N F F F K K H H H J G N # q q q q e e ",
"m U U m m m & & & & @ & 3 e a a s s s a a e a a a w w + $ $ X X X + t J J H H J H F K K F D F K V V F H D m 5 2 U N F P H H H H P H H r # r r u u u u ",
"m m m m m U M & & & 2 t s a a a s s s s s s d a s a a : X X X X O N J P K H J J P P P K P H K P F F F F D V N 5 m V H P H H H G K K J y u u u u m m u ",
"U A U m m U m r + > a a a s s B d s B s B s d d s s a s w $ X X Z J D I P P P J P P P K P K H K H F F F F F A D V V H P P P V Q Q Q J m m m m m m u m "
};
