/* XPM */
static char *_9d960f0e547444ed2dd5914847f629aKiXW2tEarS3xEePE[] = {
/* columns rows colors chars-per-pixel */
"50 50 139 2 ",
"   c #C27E1D",
".  c #C6821D",
"X  c #CA851E",
"o  c #CC8A1E",
"O  c #D28D1F",
"+  c #D6931F",
"@  c #DA941F",
"#  c #DC991F",
"$  c #E09F1F",
"%  c #CA8520",
"&  c #CD8A21",
"*  c #D38D21",
"=  c #D69222",
"-  c #DA9522",
";  c #D79921",
":  c #DD9A23",
">  c #E29D23",
",  c #DEA224",
"<  c #DFA128",
"1  c #E5A224",
"2  c #E9A525",
"3  c #E6AA25",
"4  c #ECAB26",
"5  c #E6A528",
"6  c #EAA528",
"7  c #E4A928",
"8  c #EDAB28",
"9  c #F2AE27",
"0  c #F1AE26",
"q  c #F1AE26",
"w  c #F0AD28",
"e  c #F1AD28",
"r  c #F1AE29",
"t  c #F3AF28",
"y  c #F2AF2A",
"u  c #F1AE28",
"i  c #E6B126",
"p  c #EFB023",
"a  c #ECB223",
"s  c #EBB026",
"d  c #ECB125",
"f  c #EFB025",
"g  c #EDB324",
"h  c #EEB027",
"j  c #ECB326",
"k  c #EEB425",
"l  c #EFB627",
"z  c #EEB225",
"x  c #EEB029",
"c  c #EFB629",
"v  c #EDB229",
"b  c #EFB828",
"n  c #F2B024",
"m  c #F3B125",
"M  c #F0B324",
"N  c #F1B324",
"B  c #F1B225",
"V  c #F2B026",
"C  c #F3B127",
"Z  c #F2B326",
"A  c #F4B125",
"S  c #F4B027",
"D  c #F6B126",
"F  c #F4B226",
"G  c #F5B327",
"H  c #F1B425",
"J  c #F2B425",
"K  c #F3B725",
"L  c #F1B426",
"P  c #F2B526",
"I  c #F3B526",
"U  c #F3B427",
"Y  c #F2B527",
"T  c #F1B727",
"R  c #F3B627",
"E  c #F5B424",
"W  c #F5B726",
"Q  c #F4B627",
"!  c #F2B326",
"~  c #F8B526",
"^  c #F8B626",
"/  c #F5B923",
"(  c #F0B825",
")  c #F3BA25",
"_  c #F3B927",
"`  c #F5B925",
"'  c #F6BA24",
"]  c #F4B826",
"[  c #F5B927",
"{  c #F6B827",
"}  c #F4BB26",
"|  c #F6BA26",
" . c #F7BB27",
".. c #F5BC27",
"X. c #F7BE27",
"o. c #F5BA26",
"O. c #F8BC26",
"+. c #F9BD27",
"@. c #FABD27",
"#. c #FCBC27",
"$. c #F9BD27",
"%. c #F2B028",
"&. c #F3B129",
"*. c #F0B229",
"=. c #F2B328",
"-. c #F1B32A",
";. c #F2B22A",
":. c #F5B128",
">. c #F4B228",
",. c #F5B329",
"<. c #F6B02A",
"1. c #F0B529",
"2. c #F2B529",
"3. c #F0B728",
"4. c #F3B628",
"5. c #F4B728",
"6. c #F3B528",
"7. c #F8B528",
"8. c #F2B828",
"9. c #F3B929",
"0. c #F5B829",
"q. c #F7B928",
"w. c #F6B829",
"e. c #F4BA28",
"r. c #F6BA28",
"t. c #F7BB29",
"y. c #F7BA2B",
"u. c #F4BB29",
"i. c #F9BB28",
"p. c #F9BB2A",
"a. c #FCBB29",
"s. c #F9BD29",
"d. c #FABE28",
"f. c #FCBE2B",
"g. c #FABD29",
"h. c #FCC227",
"j. c #F6C029",
"k. c #FDC029",
"l. c #FBC22A",
/* pixels */
"1 1 2 1 1 1 2 > 2 > 2 > 2 > 2 2 > > 4 > 1 1 1 2 > 2 2 2 > 2 1 $ > 6 1 > 2 > 1 2 1 1 1 1 1 1 1 1 6 2 ",
"d 4 4 4 2 4 4 4 4 4 6 4 8 4 4 5 8 4 4 4 4 4 4 4 6 8 2 4 6 6 4 9 6 4 4 4 2 9 4 4 2 3 0 2 3 2 2 9 4 9 ",
"2 d a d &.9 4 e 4 9 4 4 e 4 9 J M J Q Q M 9 4 8 4 9 t 4 9 9 9 6 e 4 V 8 9 V J J J g D J Q D 9 4 2 1 ",
"- - > 2 Q ^ ~ D D &.<.J t 7.Q 8 1 1 : 2 v 2.i.~ <.t &.9 9 D 9 9 A / | ^ | d 3 2 > > 1 5 3 8 1 > @ - ",
"> > > > > 4 2.p.#./ ^ p.| d > > : > > > > > 1 M _ | | f.i.w.#.a.k.$.k 3 > > - : : : > > > > > $ > : ",
"> > > > > > > 1 4 4 4 2 1 > > 1 2 > > > > > > > 1 2 8 ~ | i.| | 8 3 1 > > 2 > 1 $ 2 > > > > 2 > 1 1 ",
"4 2 > 1 4 2 2 6 4 > 4 1 > 2 5 > > > 4 2 > 6 1 1 2 1 1 > 1 2 1 1 1 2 4 8 4 2 4 1 1 1 1 2 > > 6 6 1 2 ",
"> 4 4 2 2 4 2 8 4 4 0 8 4 4 4 4 4 4 4 6 4 6 9 6 2 2 4 4 1 2 4 2 d J d 3 3 3 k J 4 4 4 4 4 6 8 6 2 2 ",
"9 9 9 t 8 2.w.8.c j b b u._ J &.3 9 4 9 9 2 4 w 4 0 8 9 9 4 8 | 9 : . .     X : k J Q 3 9 9 8 4 9 8 ",
"D 9 w.^ 9.v < ; & o & & ; , 3 8.$.p.*.8 &.9 9 A A M 9 *.A | | , X X * * * & *   X : J ..J ~ M M V V ",
"j.X.k 5 > * * * O + = & X X X o : 3 X.$.^ i.Q 7.D Q Q X.u.8 = * - * * - = + = = = & & : a | h.^ $.$.",
"5 > - = = - - - = = : : - : = O o o o 1 J h.l.k.k.h.#.J : - = - - - - = : - : - - > : = = : 3 8 J V ",
"@ : : > : : > : : > : - - > > - : - + = * : 6 V 9 4 > > : > : > > > > > : - : > - : : - : : - - : - ",
"> > : > > $ > > > > > > 1 > > > 1 > > > > > : : > > > > 1 > > > > > > > > 1 > > > > > > > > > > > > ",
"3 2 3 4 2 2 2 1 > 2 1 1 > > 2 2 > > 2 2 > 2 2 1 1 2 > > > > > 2 $ > 1 1 1 > > > 2 1 1 2 4 2 4 4 3 4 ",
"+ - : : > 3 4 4 8 8 2 1 4 6 2 2 4 4 6 4 6 4 1 2 2 2 4 4 8 2 4 2 6 2 4 2 1 4 4 4 8 a 4 4 1 : - - - + ",
"* * * * o * = + , 4 J d 4 9 8 4 8 4 4 e 4 8 4 e 6 4 4 8 w 4 8 9 4 9 e w V M 9 2 : - = * * * % * * O ",
"- = = - = = - * * = = 3 d 5.~ A D 9 e e V V 9 9 0 q V 9 A w 9 A 2.w.*.4 3 : = * = + = = * : = = = + ",
": : - - > - : : : : - = - : 3 8.y.i.^ D 7.w.A Q A ~ 7.~ | u.u.J i 5 : - = > - - - - - : : - > - - - ",
"> > > > 1 > # > 1 > > > > : - : : 3 w.f.u.l.k.l.k.k.l.u.c 4 , : : > > 1 > > > > > > > > > - : > > > ",
"1 3 4 4 4 3 4 3 1 1 5 2 5 2 2 1 , : - > 1 3 3 8 3 3 , , : 1 2 5 2 5 1 2 1 1 5 2 2 1 1 1 1 1 1 > 6 1 ",
"8 4 1 3 , 2 3 a d d 3 8 4 4 2 3 4 4 2 2 5 1 > 2 1 2 2 4 8 d k g 2.d a 3 4 4 4 4 4 2 4 2 2 4 4 4 4 9 ",
": = = + O = = - : 2 a | J V V 8 9 w 9 9 8 5.A d d J J ..2.i i 3 7 7 i b 8.d d V 8 A 9 V 8 d &.J M V ",
": : - : : : = : - = @ , 3 X.X.5.J Q Q 5.J M w.| _ j.b 7 : - - = - - : , 8 8.j.u.| 5.5.J w.w.| u.d # ",
"> : > : > > : > > : - > @ : 4 J u.h.p.h.k.k.X.| 3 : - - # > > > > > : > - : 3 k j.u.h.h.X.| 8 1 : : ",
"1 > > > > > 1 > 2 > > > 1 > : $ 1 3 J a d 3 , - - : > > > > > > 1 1 > > 1 1 > 1 5 8 3 J 4 3 2 1 2 1 ",
"8 2 4 4 2 2 4 2 2 2 2 2 2 6 6 4 5 > : > > : > 2 2 4 2 6 4 2 9 4 2 2 4 4 2 4 2 4 v 4 3 3 3 3 8 J 4 3 ",
"d w 2 4 9 0 1 9 2 8 8 4 9 4 8 8 4 a V a 8 9 3 4 4 4 8 4 4 9 8 4 *.4 d 4 4 V M g i # - = = = = : 3 d ",
"d _ J V 9 V 5.9 A V V A J J Q _ X.u.w.| 8.2.A *.9 9 A *.9 M ' p.k J 8...u.k 3 - O - - - = : - = = > ",
": 2 $.$.| ^ | i.w.w.w.h.j...d 5 3 5 3 c j.j.w.p.Q Q Q l.$.w.4 , : : - : : = * = : - - : > - : - > $ ",
"> : 1 2 V 2.$.h.l.j.u.c 8 1 > > > > : : : 3 8.u.l.l.l.l.a : + : 1 > > @ : : > > > > 1 : > > > > > > ",
"2 4 1 5 5 2 3 4 8 8 2 > > 1 2 1 > 1 6 5 1 > 1 1 3 s 3 , # 1 5 2 5 5 2 4 2 1 2 1 1 1 1 2 2 > 2 1 1 > ",
"5 8 4 3 4 0 3 4 4 4 8 8 3 4 4 2 4 4 2 4 4 4 4 2 1 1 2 2 4 4 8 4 c v 8 9 8 4 4 8 2 2 4 4 6 4 4 6 4 2 ",
"M J M _ 3 8 M M k / / 2.Q 0 V V 8 8 4 4 9 4 4 9 9 9 8 9 J k k b 3 i i _ J J d w 9 4 9 4 9 9 4 0 M 8 ",
"3 : : - = = = = = : , 3 k _ | X.| | *.d D V 2.J Q 2.d w.u.i 1 * * O = : v u.X.V Q ' J d J ^ 0 Q | J ",
"- - - + > - = : - - - = = = 1 3 J | $.$.^ ^ | w.| w.h.8.: - - - : : : - = , 2.h.X.^ w.h.p.^ f.M 4 $ ",
"> : > > > - : > : $ : 1 > : : - @ > 2 a u.l.l.l.l.u.4 = o > > > > > - > 2 > > 2 v w.$.~ M 3 1 : > > ",
"> 2 > > 1 > 2 5 1 5 5 1 1 1 6 > > $ - : : : 3 5 1 # + + 1 1 1 1 > 1 2 > > > > > > 1 1 > 1 1 > 1 > 1 ",
"4 2 4 4 4 4 4 4 4 9 8 4 4 2 2 4 2 1 4 2 8 1 1 1 5 1 1 4 3 4 4 2 4 2 4 6 6 4 2 1 4 4 4 3 4 4 4 2 2 4 ",
"9 4 8 e 9 0 A J 3 d k | a 8 9 w 9 4 9 V 4 0 V *.k J M a M A 9 9 8 4 9 9 9 4 4 0 V Q V | Q 8 d V 8 8 ",
"A J 5.Q | p.3 - o X o : b l.2.2.5.5.&.A V Q 8.u.8.j j s k 8.u.8.| X.w.J A Q | X.J , > > 2 k p.k &.Q ",
"p.h.p.$.3 - & X % * & % & i j.p...u.i.f.l.u.i : & o X % & & = : 1 4 | X.u.| a ; X     X X + 2 | h.$.",
"J k 6 - * * = O = * * * * * : j j.l.j._ v - * O = + = * = * O O X X o O = o X . & = * = * O & = $ 8 ",
"- - = = - = = @ - : : - : - = = : - : - = : - - - - - - - - - = # : - = = = = - - - = : - - : = = = ",
": > > : > > # > > > > > > > > > : : > $ : > > > : > 1 : : 1 : : : : 1 > 1 1 : : > : : > > : > > > > ",
"5 1 2 1 5 1 2 2 > 1 > 2 2 5 6 1 2 2 2 3 4 2 1 3 1 5 1 5 2 2 4 3 8 4 3 3 4 3 4 2 5 2 1 1 5 1 2 > 3 5 ",
"d V 8 4 4 8 8 8 4 4 4 e 4 4 4 9 d J 3 4 d V d J J V 8 8 J k d a , # # + : : 1 k J 8 4 2 4 4 9 3 8 J ",
"4 a M _ J | Q J V A Q V J w.| d i : - - - : 5 3 d M J ' 3 5 : @ = = = = = = + : $ M | | 7.~ | i.| 4 ",
"- : : : 2 d M #.$.h.p.h.u.s 1 - - : - : - = > = = > : - - - - - : : : - > : : @ = : 2 8 _ a 2 1 - - ",
"> > : : - > > 2 4 4 4 3 , : > > > > : > > > > > > > > $ : > > > > > > > > # > > > > : - $ $ - > > : "
};
