/* XPM */
static char *_46c717bd88c4d1f935c3bdee41fbaefvYHiAqYFSraExNER[] = {
/* columns rows colors chars-per-pixel */
"50 50 167 2 ",
"   c #0B3817",
".  c #0B361D",
"X  c #0D3A19",
"o  c #113C1C",
"O  c #0D3424",
"+  c #0F3A23",
"@  c #0F382A",
"#  c #123624",
"$  c #133B25",
"%  c #1A3F26",
"&  c #113729",
"*  c #143D2D",
"=  c #1B3E2D",
"-  c #153F31",
";  c #1D3D32",
":  c #203C2D",
">  c #213E31",
",  c #144325",
"<  c #1F4526",
"1  c #17422C",
"2  c #1B432D",
"3  c #17492B",
"4  c #1C4B2D",
"5  c #174031",
"6  c #1B4333",
"7  c #1D4835",
"8  c #1E4639",
"9  c #1F4838",
"0  c #214625",
"q  c #214E27",
"w  c #21442C",
"e  c #244B2E",
"r  c #27532F",
"t  c #224434",
"y  c #234B35",
"u  c #294B36",
"i  c #25463A",
"p  c #29473E",
"a  c #244B3B",
"s  c #2A4C3D",
"d  c #245234",
"f  c #2A5334",
"g  c #275936",
"h  c #285A37",
"j  c #26513B",
"k  c #2A543C",
"l  c #2B593E",
"z  c #30533D",
"x  c #305B3C",
"c  c #2F6033",
"v  c #2E603D",
"b  c #32643F",
"n  c #284741",
"m  c #274C41",
"M  c #2C4D42",
"N  c #275041",
"B  c #2D5245",
"V  c #2D5C42",
"C  c #2F5548",
"Z  c #2F5949",
"A  c #315247",
"S  c #305244",
"D  c #305446",
"F  c #315547",
"G  c #335547",
"H  c #305647",
"J  c #305446",
"K  c #315F43",
"L  c #325C44",
"P  c #305148",
"I  c #315249",
"U  c #325348",
"Y  c #305448",
"T  c #315549",
"R  c #315748",
"E  c #305649",
"W  c #30544A",
"Q  c #31554B",
"!  c #33544B",
"~  c #31574A",
"^  c #30564B",
"/  c #32564A",
"(  c #33574B",
")  c #32564C",
"_  c #33574D",
"`  c #315649",
"'  c #305949",
"]  c #315A48",
"[  c #335A48",
"{  c #325B49",
"}  c #33594A",
"|  c #32584B",
" . c #315A4A",
".. c #305B4A",
"X. c #325B4B",
"o. c #345B48",
"O. c #345A4B",
"+. c #305D49",
"@. c #335C4A",
"#. c #33594C",
"$. c #32584D",
"%. c #315A4C",
"&. c #355B4C",
"*. c #345A4D",
"=. c #315D4C",
"-. c #335C4C",
";. c #325D4C",
":. c #325E4D",
">. c #335E4D",
",. c #315D4E",
"<. c #335C4E",
"1. c #345D4D",
"2. c #345F4C",
"3. c #355E4E",
"4. c #345F4E",
"5. c #335B4C",
"6. c #385E4F",
"7. c #355E50",
"8. c #355F51",
"9. c #345D50",
"0. c #395F51",
"q. c #2E6043",
"w. c #2F6043",
"e. c #2E6243",
"r. c #316244",
"t. c #316345",
"y. c #346A46",
"u. c #34604F",
"i. c #35604F",
"p. c #37604E",
"a. c #37624E",
"s. c #37624F",
"d. c #35614E",
"f. c #38634F",
"g. c #3A634E",
"h. c #34694B",
"j. c #356150",
"k. c #366150",
"l. c #376050",
"z. c #376251",
"x. c #366251",
"c. c #356152",
"v. c #366052",
"b. c #376153",
"n. c #376352",
"m. c #356450",
"M. c #366151",
"N. c #386350",
"B. c #3B6152",
"V. c #386352",
"C. c #3C6350",
"Z. c #396453",
"A. c #3B6653",
"S. c #396254",
"D. c #396554",
"F. c #396553",
"G. c #3C6851",
"H. c #3C6952",
"J. c #396856",
"K. c #3B6956",
"L. c #3B6758",
"P. c #3C6759",
"I. c #3B6A58",
"U. c #3E6C59",
"Y. c #3F705B",
"T. c #406B58",
"R. c #437359",
/* pixels */
"s M M M C i % y k f l k k l V l l k l y j Z.1.N.1.7.z.| @.@.E $.H H | H B A z.7.*.z.z.d.M M M M M B ",
"M C B M E B w 0 l l w.h k l w.l l l l d Z N.d.d.N.z.d.[ | z.:.u.C C C C B C N.z.:.:.Z.u.M M M M M B ",
"_ C B E E ( u < f r.w.w.l V w.w.V V k u d +.A.f.z.A.z.1.z.1.Z :.[ | Z C s 7 d.L.A.I.Z.s M S B B C U ",
"B C C E A C O.y 0 h g l h l l w.V h l V y * f.g.N.H.Z.Z.z.1.1.N.:.C m a N Z N l Z :.m a M B B C E E ",
"C C | | C | | H u , , , , 3 4 3 3 , $ +   + i u u s z s B S o.k 8 9 B 9.z.z.z.9 * 5 = s M U A H | $.",
"B C | :.1.@.Z | a 1 u a y y 3 1 6 6 t a i y s M s s M M s i t - j :.j.j.z.@.m a i 5 . i C C E E $.$.",
"H z.d.z.z.Z :.1.Z s C C M _ k a E B S M E U B ( G G B U C P M i z.z.z.:.a a s M B 8 # ; p A | H | :.",
"*.z.z.Z.@.d.z.z.:.M C $.E | $.C B B E U N B $.E E A E U B C B y Z Z C a M B M M M M = > > > B @.| 1.",
"| N.S.z.z.S.@.a 7 i E B | d.Z.B B E | C H C :.*.E H H E U A E 6 i a a E E C C A M B p ; s k C S 1.d.",
"f.K.K.K.Z.N 5 * * a B M M | z.| _ *.Z C H C $.$.*.*.E *.E U a a C | $.E C E E C ( N M j z.d.| s f g.",
"s L g.o.5 1 - 8 M B U U A E i k 9.E 1.:.| Z :.O.E $.1.| Z a a *.:.| | C $.| :.| U B M B z.Z k l k f ",
"x f f 6 & a H U C B C C ( ( s t M E $.E :.d.| d.@.| :.1.j 5 B $.| | 1.:.@.:.1.$.U E B 6 u j k k V V ",
"K V u * u 7.1.E C E C E H E ( p t s z 6.6.1.7.1.d.1.1.[ 7 6 a Z :.:.z.z.d.d.d.| | $.V y d j k V V V ",
"l h.4 a z.C Z | *.E E *.E B ( B f V f z f.d.z.z.1.d.s 6 a Z N c.9.z.z.z.z.1.:.7.@.| k a j d V l h l ",
"r.l 4 :.Z Z E | $.*.E E E E E C V w.V l s g.K.H.d.y & 6 H 1.:.z.9.j.z.z.:.:.1.1.O.B a y k j l l V V ",
"K d $.7.9.z.1.| :.E C :.E C *._ V V L V l k r.d.5 - i s s M z.N L.A.D.A.z.N.N.:.@.6 y k u k k k l l ",
"y N S.z.d.1.1.1.1.| :.:.| | 1.C N l V l V d u 5 5 B B M M M i = s K.P.T.K.H.Z a 7 5 4 f k l l h l l ",
"1 d.9.z.1.E :.:.:.:.| | | $.*.B | k k u j j j y C U C U M M s p = B U.U.t.8 * 1 6 @ $ 0 r d d d d d ",
"[ d.:.d.d.1.j.:.1.d.O.@.Z Z C | O.C k j y u a H _ B B B M B A M U i M 7 * * a _ $.k t y 2 3 3 , 1 , ",
"z.z.A.z.z.7.z.n.d.1.1.1.1.:.| | O.:.k y s k O.| C | $.| B B M M B M p t & 6 1._ *.| | | B m M 1 X l ",
"N.A.z.A.j.z.S.z.1.z.d.1.:.*.C $.*.9.k t B @.| @.| :.*.*.U B B M M M M a + [ $.:.| | C C B B M 8 l S.",
"1.d.S.A.A.j.z.j.z.:.z.z.1.$.:.| *.E C i N.1.| $.1.| Z C E *.B M C B p O 7 Z.u.:.Z @.$.Z E a 7 B N.1.",
"7.I.L.D.z.D.z.z.z.1.z.z.1.:.1.O.E E | i s 6.N.N.d.z.| B C $.E B B M @ 8 K.d.D.n.z.C N a a 7 1 j P.d.",
"1.z.:.L.S.L.S.A.d.:.z.:.7.N.N.d.9._ E t : i k O.z.z.1.E :.| _ C M & - A.A.K.A.Z a * 5 7 5 7 5 8 N.Z.",
"0.A.Z.N.A.K.A.A.A.n.D.D.:.Z M a 8 ; 1 # > > = > k N.Z.N.1.1.z.| 1 O C f.n.Z a * 1 5 5 6 5 - = 1 L A.",
"K.U.T.Z.U.Z.K.d.u.:.Z 9 * * & & * > i p > p i i t s k M H u y 6 # & * 8 1 + & * - * 1 * 5 7 & O u K.",
"| Z V k j j y 9 7 8 7 8 5 8 8 ; i n n p n n n s M M n n n p ; - * t a u a y y u a y 2 7 Z.f.Z 1 w L ",
"- 5 5 8 9 9 a a 9 a | *.*.B A M n n M n M P n M M U M P n n p M t y u j j k N k k j y Z z.z.U.K.[ u ",
"a a k k j l j l k k a N k S n p M S S n M B M s M M A M M M n M p = w f h l l h h 7 3 d.1.z.z.d.6.t ",
"k k l l V k k V l l l k u k p s M M A A B B C H E M A B A M s M i % w w u l r.w.d , u 1.6.@.d.| u y ",
"k l K k l h N V l V k k k j i M M C A M E _ U E E E E C C A A M * i w % w e f g , 1 Z $.E *.A > > k ",
"k k l l V K K k k l h k k k a M M B B U ( B B E H E ( E B A S - t *.B < w e e 4 , y C C A a t = k k ",
"k x V V w.V l h V l l l k l % m U C A B _ $.| :.| :.E E E | M * E | Z j w w w < 1 M B M i t t > l l ",
"l l l l V V V V V V V V l y * s A ( E | :.| @.@.@.d.$.*.| C 1 5 M 8 i M M i w $ 6 M p i i > # 2 V h ",
"V l l w.e.e.w.V l V h V l 2 a $.s ( :.z.1.Z d.| :.z.z.d.Z 5 * - m B E B B M s t i t B N.I.z.w 4 V l ",
"l l w.t.e.e.e.r.q.h V V l 1 C :.V i | z.z.n.1.:.z.d.z.C 5 5 s H E E U B M M M A = t K.N.z.P.T.C.r.w.",
"h t.r.y.V r.r.r.w.w.v l 4 i C [ z.s y @.z.N.A.N.N.K.V 5 a C 9.*.E | E U B M M t 2 Z z.f.z.n.Z.1.k V ",
"t.h.y.r.t.h.h.y.t.g d 1 + N Z.Z B M > s A.S.U.K.Z.N 8 C | @.| E | E *._ C B u : S Z :.1.d.7.z.d.e f ",
"x t.y.y.e.w.v d 4 , , $ 1 K.U.K.O.1 # t S R.Z.j 4 5 :.N.:.1.| | :.| E U B y t i C H E | :.z.:.H @.d.",
"e q c , + , , . , , , . V Y.K.K.K.N.G y t [ 1 5 B 1.1.d.d.:.d.d.1.| 1.V i t p A A E | ( *.$.E k z.A.",
"< u f 1 M _ H a a Z :.y A.A.A.J.S.d.N.1.B t a d.n.d.z.S.z.1.1.1.d.1.O.i i i M M M E E B _ ( E E :.$.",
"l 1.0.S.9.( *.E B N U B C I.c.S.N.1.1.$.*.C z.K.A.S.n.n.S.z.d.f.N.1.u t % ; M M B M C B B B C $.$.B ",
"S.7.:.z.$.*.E B A N B i 5 j z.z.1.:.@.| H E a 8 u.I.U.K.K.n.6.N.d.s t E d.a 6 M M M B M B B M m 5 * ",
"0.N.d.d.:.| C C A B S M m 8 N Z 1.:.| C B A i 6 a Z @.d.A.K.K.g.u = H n.S.A.V 8 6 8 i M M 6 5 8 j @.",
"S.H.f.z.j.$.1.Z $.M m M m a - 5 j $.*.E C M s N B B $.9 i r.d.= > M @.:.d.1.*.M i 8 = * ; O 2 N.C.Z.",
"o.U.N.d.@.Z a a a 7 9 6 5 = 6 5 * 8 M C B s p C :.| a a A H M t i A Z | 1.| M H E C E a @ X t u u s ",
"u l 5 6 6 5 5 5 1 - 1 5 7 u j u 6 & - i M M B C a 7 B $.E E Z C m a H E E B E C E C C *.y % s i u u ",
"s a 6 5 5 5 5 * - 1 7 j j j l j u - & & - > a 9 N | *.| $.*.A C | B N M B B B | | $.$.O.$.t t w u u ",
"M A M M ; - * 1 y y k k k u k k d y $ O O O 5 $.1.1.1.| | | C *.H E ( B i a C $.@.| :.:.C t i i n i ",
"M A M A M * 6 k k k k l l l N j k k y & O 5 1.1.1.1.N.1.1.:.:.*.E E E ( B M $.1.:.| O.d.@.i M M n M "
};
