/* XPM */
static char *_4f4513ef77840f9973a85746e98d8370833NbHXHqZbyS6n[] = {
/* columns rows colors chars-per-pixel */
"75 75 178 2 ",
"   c #05320B",
".  c #012D14",
"X  c #052F19",
"o  c #0A3215",
"O  c #0F3816",
"+  c #0C361B",
"@  c #0D3A1D",
"#  c #13381D",
"$  c #0A2E20",
"%  c #0E3323",
"&  c #0F3C22",
"*  c #0F3528",
"=  c #0F3829",
"-  c #113625",
";  c #123C24",
":  c #1C3E26",
">  c #113728",
",  c #1C372B",
"<  c #143C2C",
"1  c #1B3D2D",
"2  c #153F31",
"3  c #1C3E31",
"4  c #213D2E",
"5  c #213F33",
"6  c #0F4020",
"7  c #144225",
"8  c #1E4126",
"9  c #16432B",
"0  c #1C432B",
"q  c #17482A",
"w  c #1C4A2C",
"e  c #1E512E",
"r  c #174131",
"t  c #1B4433",
"y  c #1D4934",
"u  c #1E4638",
"i  c #1E4938",
"p  c #1F5032",
"a  c #214227",
"s  c #234B26",
"d  c #22442C",
"f  c #234B2C",
"g  c #24502B",
"h  c #29522E",
"j  c #234434",
"k  c #284635",
"l  c #244B35",
"z  c #294B35",
"x  c #25463A",
"c  c #29473E",
"v  c #244C3B",
"b  c #294B3C",
"n  c #255234",
"m  c #295334",
"M  c #2C5A36",
"N  c #26523A",
"B  c #2A543C",
"V  c #27593B",
"C  c #2C5A3E",
"Z  c #30533D",
"A  c #325E3C",
"S  c #34623D",
"D  c #274640",
"F  c #2A4742",
"G  c #274841",
"H  c #2B4D42",
"J  c #2E4F48",
"K  c #314F46",
"L  c #275141",
"P  c #2D5245",
"I  c #2D5C41",
"U  c #2E5548",
"Y  c #2F5949",
"T  c #305446",
"R  c #325C44",
"E  c #395F45",
"W  c #33574B",
"Q  c #32564A",
"!  c #305649",
"~  c #315649",
"^  c #305949",
"/  c #325849",
"(  c #335A48",
")  c #32584B",
"_  c #33594A",
"`  c #315A4A",
"'  c #305B4A",
"]  c #325B4B",
"[  c #345B48",
"{  c #315C4B",
"}  c #325D4A",
"|  c #355C4A",
" . c #33594C",
".. c #315A4C",
"X. c #355B4C",
"o. c #375B4F",
"O. c #335C4C",
"+. c #325D4C",
"@. c #335E4D",
"#. c #335C4E",
"$. c #335D4F",
"%. c #335F4E",
"&. c #345D4D",
"*. c #365C4D",
"=. c #345F4C",
"-. c #365F4D",
";. c #345D4F",
":. c #375D4E",
">. c #355E4E",
",. c #345F4E",
"<. c #335B4C",
"1. c #385E4E",
"2. c #355F51",
"3. c #355E50",
"4. c #395E51",
"5. c #2F6043",
"6. c #2F6142",
"7. c #2E6143",
"8. c #346643",
"9. c #306144",
"0. c #306345",
"q. c #306046",
"w. c #306646",
"e. c #316345",
"r. c #366945",
"t. c #386A45",
"y. c #37614B",
"u. c #34604F",
"i. c #35604F",
"p. c #35624E",
"a. c #35614E",
"s. c #3B664B",
"d. c #3B624D",
"f. c #3A664F",
"g. c #3B654D",
"h. c #39634D",
"j. c #356A4B",
"k. c #396C4C",
"l. c #3D7649",
"z. c #356150",
"x. c #376050",
"c. c #366150",
"v. c #346351",
"b. c #376251",
"n. c #366052",
"m. c #376352",
"M. c #376450",
"N. c #366251",
"B. c #396252",
"V. c #386352",
"C. c #386550",
"Z. c #3A6551",
"A. c #386453",
"S. c #396453",
"D. c #396652",
"F. c #3B6753",
"G. c #396554",
"H. c #3A6655",
"J. c #3B6756",
"K. c #396453",
"L. c #3C6851",
"P. c #3B6854",
"I. c #3C6857",
"U. c #3E6B57",
"Y. c #3C6956",
"T. c #3C6758",
"R. c #3E6A59",
"E. c #3D6B58",
"W. c #3C7157",
"Q. c #3F705B",
"!. c #406D4E",
"~. c #416D55",
"^. c #436F58",
"/. c #416E5B",
"(. c #437053",
"). c #467457",
"_. c #437359",
"`. c #4E825C",
/* pixels */
"H T H H b P P P 0 : d N N N N V V N B N C C C C C B B B B l 7 &.A.{ B.B.c.c.a.&.&.]  .&.X.U X.} Q P ] Y U U T b ] &.c.a.{ &.B.c.n.A.X.c H H H H H P H ",
"c H H H H H Q P b 1 a d V B C R I C B B V S C C C R B C I N Y M.a.a.c.A.c.c.{ 3.B.U Y c. .U &.Y Q U Q Q U U P P &.a.c.a.&.&.c.M.c.G.J G H H H H H P P ",
"K P P Q P H Q P J a d w M q.R 6.I V B V V 9.I C C B C C B l N c.A.A.a.c.B.c.c.c.c.Y ] c.u.&.&.] Y P Q U U P Q H Y B.a.A.{ &.2.G.Y.L b P K H H J J P P ",
"Q Y P P L Q U Q ] b : d n 6.I I I 6.C V I q.6.9.q.I C B n l N N A.A.c.a.B.c.G.G.a.2.a.{ u.} } &. .Q  .P P T X.t v G.A.A.c.A.G.G.[ c J H H P T P P T T ",
"P P P P T Q ] T P Q z 8 8 S 8.9.w.0.S I 7.7.6.7.9.C C B B B C t N ~.H.B.a.L.M.{ a.[ B.2.&.P 1.&.{ ] Q Q P U v t i Y G.G.E.E.R.G.x b H H P J P P P Y Y ",
"J P T U U Q U H Q Q ] l a s M n V V V V V V C I 6.C V C V C n 9 > R g.g.f.A._.(.L.A.a. .&.2.2.a.&.{ L v t v Y { { L i N v L Y L t b H P P P Q T P Q Q ",
"T Q Q U } ] P U  .] ] P h w @ q 7 7 7 q p w w q q q 6 7 7 7 + + > v b j z k b m z Z T X.y.y.f.^ v t 0 v } 2.c.&.z.c.Y i r r r r j P P P Y Q Q U Y Q  .",
"T Y H U ] } ] Q &. .U Q B 7 ; q y q q q w w q 7 7 7 ; ; ; ; @ + ; j k l z k b b b k k l j k x < r v  . .c.c.{ B.G.{ Y i t r r < 1 J P H J P P Q Q Q  .",
"Q P Y } &.&.&.&.] ]  .U P 7 j G b b x j y q ; w x x l x x b T G G b H P H H P P P ~ ~ F b j 3 r ] &.{ u.M. .B.c.Y v t x F x < + , H P P P ] Q ]  . .[ ",
"P  .&.{ &.c.c.{ ^ ^ 1.]  .N b P P T H J 3.T t P T T H P H J P Y P J Q U P P Y H P ~ Y J T P 3 u c.{ c.z.c.E.L r x b P H F J 0 o 3 5 c H Y Q Q Q X.&.&.",
"U c.c.2.B.B.c.] ] a.a.c.A.[ G U ]  .P U  .{ U P Y P H P T H P Y Q P Y Q Q Q Y H Q P P P P H L x { c.G.M.{ v x G P H H H K H b - 3 5 5 j x Q ] ] U ] [ ",
"X.A.a.c.G.c.c.c.a.B.c.&.2.v b U U Q Q  .Q  .U T J P Y Q X.^ P P P ] T U Q P P  .Q Q J Q P J P u { 2.P L i P Q P P H H P H H b 4 , 5 5 j j b ] ] { { A.",
"T { G.G.A.c.c.{ c.G.Y Y v r P  .T Y Q 2.2.4.c.P b P Y  .P Q W H P  .] Q W Q Q P Q P Q P Q P P r i v t x J Y P P P J P P H P H G 3 3 k b b K R R  .] a.",
"X.A.H.Z.G.c.G.I.c.L 9 < r < x Q L H H ] c.E.2.H Q  . .W P P Q P  . . .&.] Q Y P  . . .P P Q v r x P J Q P Y P Q W ~ Q Q T T T P k j 3. .Q X.T b R A.Z.",
"d.E.U.E.Y.Y.Y.L y < 9 3 < 3 H P H J H J  .c.&.W P W  .W ] ] P P Q  . .Q Q  .{  . . .Y P Q v v L ]  .Q ] W W P W W W Y P Q T G H b U &.&.[ } T b j Z !.",
"z M E d.~.[ y r t < < r G P P Y Q P P P Y v u  .3.Y  .{  .{ { ]  .] ] ] Y ]  .]  .Y Q Q i i Y  .Q Q Q ]  .Y 3.Y ..W Q Q Y P P T H  .B.2.I I B B m M z ",
"Z z z M E 9 9 r 2 t H H W H P W P P Q P Q H 0 b  .Q Y &.]  .Q { Q X.X.&.&.Q ]  .{ Y Y i t G Q P ] ] U X.{ ] { { {  . .Q Q P Q P b v Y N N N B C C C I ",
"R B Z Z z < < t P &. .Y Q P P Q J Q Q Y Q P x j k I {  .]  .] B.&.2.&.c.&.] ] a.2.z.L t y v  .Q ] ] ] [ B.{ ] ] c.&.] Y P Y Q P G ; N N N B B B V A I ",
"C w.C b t = t W { W Y P U T Q Q P Q P Q Q  .P k k k z Z { &.2.&.{ &.{ { c. .1.} c. .i y r i { &.] { ] { c.c.u.u.c.c.{  . . .Y W v l n B B I I I R 6.C ",
"I q.r.N 1 t  .W ] Q  .Q U X.P P  .Y P Q P T W l k b b z B B.A.X.{ &.M.u.c.u.1.a.P i r H L q Q &.c.c.G.c.c.M.u.Y c.a.] ] { Y W P N v n z N B V I V C I ",
"I 7.r.w <  .2.] U  .Q  . . .Q P Q  .W Y P Q  .H V 9.I I z Z d.a.n.c.A.A.Q c.a.v < t v Q &.z 3.c.c.{ c.A.a.G.z.c.a.] c.{ &.Q Q P l N N N v I C C C B C ",
"B w.I ; L 4.Y ] Q ] U ] {  . .] &. .P Q Q Q Q Q I 6.9.6.C N k d.U.B.&.a.~.| t < < v Q Y &.} { G.B.Y 2.G.c.B.z.Y { &.2.c.a.P U N N N B N N I V C M V I ",
"I r.y v  .&.Q } &.{ X.{ ] { Q P  .] P  .J ] ] Q V 6.C 9.C V B m R ~._._.I r r r 9 x B b a.G.T c.G.B.G.M.c.G.] } c.c.{ ] Y z.t d N z B N N I C C B V R ",
"I I l A.2.c.&.&.c. .{ {  .&.P J 3.W ] Q P  .Q T Y S C q.R C I I b b k.l 2 r t b H b b c b B.T c G.G.U.G.Y.G.G.G.c.G.2.{ 2.v r w C z N m B N B V B R 6.",
"B w Y c.c.n.&.a.&.&.&.&. .&.] Y  .3. .P Q W  .P U B C I I I I B B f B 1 < x P P J H H H b x 5 1 H Y.U.A.E.E.Y.u.E.A.Y L i t 2 9 f C B z N B C N C B I ",
"0 t G.B.c.c.a.c.X.] &.{ &.] 2.2.2. . .Y Y 3.W H L I v I N B N N N z N 9 t  .P H P P H P b x x 5 , z _.A.E.E.Y.B.Y i t 2 9 r < q s f M A V C C I C V 6.",
"; } B.&.{ n.c.{ Y ] &.a.c.1.&.] ] Q  . . .3.P P X.^ B B n N v N v n l x ] Q P W P Y H H H H J c j 3 P ~.Q.W.a.y < 2 < t t 3 > O 8 d f n p e e e g y w ",
"H c.B.] c.c.c.Y c.c.B.{ a.&.&.Y ] { Y } W Y  .Y ] Y P B N n z N v l b Q W T L T P P v b P P b b J J 5 N I t 2 1 r 9 P Q  .T H t w f f 7 w q w 9 q q 7 ",
"Q &.c.c.c.a.B.d.&.{ A.{ a.&.c.c.&.] ] &.] J Y W  .Q T N N z B z l H Y  .Q  . .U P W J J Q T H b P H H G 3 > 2 < < P ]  . .]  .Y W P v v y l q 7 7 6 w ",
"n.Y.B.c.G.G.B.a.a.c.G.G.a.&.{ a.&.&.c.{ ] ]  . .] 4.4.P v v l l U 3.{  .H Q W ]  .Q P P P L J P P J H b J v < * H A. .]  . .Q U Q Q P P J H H t   w Z.",
"4.G.G.c.G.G. .2.c.B.c.c.c.A.c.&.c.{  .a.Y P Q  . .]  .L z t l ] X.Y ]  .] ]  . .3.Q W H P P b H H H J H H G > 0 &. . .{  .Y W W P P P H H H H t w B.A.",
"4.G.2.B.A.G.Z.A.c.G.G.c.c.&.2.c.a.&.a.] Q Q Y {  . .Q  .t N &.2.^ T }  .}  .2.T W Y Y W Q Q H P P P H b G 9 X N n.Y a.Y  .] Y W Q Y T H T v t v c.B.{ ",
"&.{ c.c.G.G.I.G.u.G.M.B.c. .{ c.c.B.&.] &.B.&. .Y  .P 3.b x &.&.&.B.Y X.&.&.{  .P Y W  .Q Y J U P P J b < % l Y.G.c.u.Y Y ]  .{ Y Y Y P u y y &.c.c.{ ",
"B.G.R.Y.G.G.z.G.M.n.c.c.c.c.c.A.B.a.&.2.} &.&. .W 3.W Q P j b &.B.c.{ c.c.&.c.{ P P P Q W P P P H U J < = t I.n.M.c.A.B.c.a.} P L L i i t t r ] G.A.G.",
"4.n.G.z.G.Y.M.M.G.G.c.c.c.c.z.c.c.a.a.{ c.&.&.{ Q W Y U P j 4 b T a.G.A.{ &.c.2.Q P ] Y Q Y Y J Q H < = > G.G.c.G.G.c.G.a.H i t t y t r i t r v Y.c.{ ",
"c.z.Y.Y G.I.Y.G.I.G.E.G.c.{ { z.c.{ &.a.B.2.B.c.3. .Y W H 1 5 5 k k b ] a.a.c.&.{ ]  .Y W Y  .P G 9 > - Y Y.A.E.G.I.z.L u < r t t t y t t t t y } U.G.",
"2.B.A.a.D.M.G.Y.G.a.G.c.G.M.c.c.c.&.A.a.a.Y P L v y t t ; - j 5 5 5 4 d T A.A.d.2.3.] X.&.&.] Q t > - Y /.c.Q.Q.G.L t < r r r r t r t r t 9 > 0 m G.I.",
"2.E.G.Y.G.M.E.G.G.E.G.G.I.E.Y.G.A.a.L v t 2 < < * > > u ; , 5 1 5 5 3 5 4 z A.f.&.c.a.] } X.[ P > > > r H P L t < > < < r r r r 3 t r 9 2 r 2 1 z f.c.",
"G.U.Y.R.Y.R._.E.A.L.A.a.Y Y Y Y G 9 > < 2 2 < - > x c c c J G c G b x c G j z x x b P z t < 2 < * * ; ; < < - > < = * < 1 < < < < < < i < > = @ f y.L.",
"Z.p.u.7.I P P N v v v y u y t t t < > r 2 > 3 < x J G F H c G b F F c c H H F J J x b G c 5 3 < , 0 j k N N N z v y j l l l l t < t c.G.3.Y y o 4 Z s.",
"x 9 t y t t t y t v t i i y i L Y L P P H H P F c c F c F c F G b b F H Q J G K H J H c F j F j d t z x z n z N n N B B n m N z y I B.c.G.E.U.Y b z z ",
"3 r t t y t i i N N N v v y L &.{ 2.W W Y H G G c H x F J b b H J b c H b J H T K H J H F x c H j 1 N z N N N N B B V N I v N y N 1.{ B.A.c.G.I.B.B m ",
"l l n N B B I N R B N N B N N N L ^ P Y Q F b c J H J H J b G P P J J b G P J J K H b H c H H b F x 0 d z N B B B V C B I B n 7 Y &.&.{ M.G.c.n.2.Y 0 ",
"b N B N N V V P B C N N B I I B N N z N L F c G b H H H b G P J H H P H H Q b P T H H H b H G H F t 8 8 l f m C I C I 6.C n 7 q ] c.c.a. .c.{ c.] j d ",
"z B B B C V C N N B C C C B I I V n n N N G F b b H P Q P b Q P P U Q Q Q P H P Q H H P J b G K x < 8 0 a d 0 m S 0.6.w.n q 7 w &. .{ &.] ] a.T j k N ",
"N I R R Y B C I C I I I B T B N N P B N m k G b H H P Q P J P Q P P P  .Q Q P P Q Q Q Y P J T G < 2 k 8 : d d f f h S n 7 q 7 P  . .Q ] &.] b j 4 l B ",
"N B n I I C C Z I C R C B R I V V I B B V z J P P P P J H Q Q Y T P Q H P Q W Y Y Q P P Q P P t < G P x 1 8 d l s 0 h w 9 6 y W P W P ] T k 4 j k V B ",
"P B B B C C 6.q.R R V B N B B I B B B N B t b J G J P Q P Y  .Q P P Q Y  .P W W Y  .P Q P H G = t W Y 3.k 8 a d f f l q 7 q H P P P Q P j j j 3 v C V ",
"V R C V 6.6.9.C C C I C R C V B C B B B C q j Q T P Q H H Y Q  . .{ [  .] ] 2.Q Y 3.W P Y Y x % P Q &.A.] x 8 a j d s q @ y P P H U b k 0 j 3 5 C C C ",
"I B B R I 6.I C 6.C C 6.C C 6.C R I V C N ; + J Q Q Y Q Q Q P Q {  .{ &.] ] { Y P W P Y  .G > x 3.Q H t v b b l 8 d 0 7 9 H G H P c 3 5 5 5 3 k C I C ",
"C C V C C C 6.6.6.6.C C w.9.C 6.I V C N N < N v H  .J  .] { 1.&. .{ &.&.Y &.B.} { 3.Y  .v r < u u t t b H K H H x d 8 @ < F H b j x x j 5 : + 0 R N C ",
"C 6.B C V I 6.7.w.R 9.C C q.C V Z R B N 0 j 4.Q c Q 3. .{ &.&.X.Y c.a. .&.c.c.G.c.{ n.i r t > > x G  .P T T K H P b b ; j b c x } G.I.I.Y 7   f e.M C ",
"Z 6.V C 7.q.7.C 9.9.I q.C C C C C 6.B V ; G Y Q T k ] &.&.B.c. .] A.{ ] { c.c.{ c.{ N t 3 > u L W X.P P Q P P H P G J H x 5 5 3.G.A.G.Y.Y.E.a.P C R 9.",
"V 6.I 7.q.w.6.I 6.w.0.w.e.C V S C V B w ; W P Y c.k 0 U A.B.c.Y.c.{ &.] c.G.c.z.c.v r t t P W Q Q P T Q Q Q P H P H J b 3 + P T.c.c.M.A.G.L.Y.G.e.I C ",
"I C R q.9.w.9.6.q.w.6.7.w.6.I I C I C ; v W ] ] {  .x j T a.a.G.A.n.G.c.G.c.v.v.L r t G ]  . . .Q Y Q P P Y J H P J b k 1 w c.{ G.n.c.c.M.G.c.2.C C 9.",
"C q.w.r.w.w.9.S a.r.7.7.6.6.6.6.V n 7 ; J Q H U 4.A.P k d T c.c.G.U.G.A.M.D.D.N r i Y Y Y ]  . .Y T U 4.W Q P P P b j j 5 Q &.{ { c.n.G.c.G.c.&.z m 0.",
"f.q.w.q.w.w.w.q.6.j.j.w.r.A g w 7 7 & 7 3.Y.Y.} v v G 3 k z Z.G.G.G.Y.R.L.I i r L 1.X.{  .Q Q Y Y  .P Q  . .Y Q H k k 1 T  .Q }  .&.a.B.[ { B.} f n m ",
"S t.r.r.7.j.k.l.j.k.S C M q 9 7 7 7 @ i Q.Y.Y.Y.{ x - + j k Z ^.U.R.k.L y < 9 Y A.c.} { 2.Y Q ] &.X.3.Q Y Q T x k j 4 b  .P Q ] Q ] a.&.2.c.c.B ^ A.R ",
"l g M t.l.V l w w w 6 7 < q q 7 7 & 0 E.W.R.D.G.H.n.R t t k j R `.Y r r r v { { 2.{ c.a.a.] &.&.2.] ] ] Q Q b k l j x T Y Q Y Q U ] {  .&. .} v 2.A.G.",
"h s s h g . X + 7 9 # @ & & 7 7 @ + Y /.I.Y.E.E.E.{ A.A.U x k z B > 9 i ] c.B.2.c.c.A.] ] c.B.u. .3.]  .2.b l j j x T J P P T Q ] Q  . .] W L N a.B.M.",
"f h s h w ; v  .{ Y H 0 l P I &.v 9 U.H.I.G.U.U.T.G.c.z.2.&.H x t 0 U A.A.A.2.2.a.B.c.a.{ a.&.&.c.&.Q 2.P k k k j H K H J P U W P Q Q  . .3.P Y  .{ a.",
"# m T T ] 2. .Q  .Q Y P T U Q 3.A.L a.G.Y.G.&.p.n.c.n.{ &.{  .T N a.A.d.3.A.B.B.A.G.A.c.c.u.{ c.c.2.p.T t k k 1 k b H H J P P Y J P Q P Q P W  .]  . .",
"T A.a.a.n.4. .T 3. .Y P H H G H Q b v G.M.M.a.A.c.u.{ c.]  .Q Q Y ] A.A.G.B.M.A.c.G.G.G.{ c.A.A.a.a.[ l k x : + x G G H H H J P P P P P H P H Y W ] i ",
"c.G.[ &.c.A. . .3. .Q P H Q H P H 2 r v 3.2.c.2.c.2.} { X.Q U Y Q H y U A.E.G.G.U.G.G.G.M.G.B.c.c.d.k j j Y a.U t t J K H H J K P P J Q P H P P b t > ",
"4.G.] ] &.{ &.&.3.W P J P P Q T J c j r t Y G.&.} &. .] T Y Q P P H = > i a.H.~.E.U.A.G.G.B.&.U.y.k j 5 T G.G./.u.t t v b G J H J T H H G b u < = r v ",
"c.G.B.B.c.a.a.&.W P P P P Y H L H J H G x t L { c. .2. .] P P P P G 3 H G v N Y ^ y.~.U.E.T.~.R d j j P B.{ c.a.c.G.L r r t t r x b H x < 2 t v U a.G.",
"B.G.G.B.c.a.c.W Q W  .Y W Q H J J G G G G t t t L  .3. . . .J T P b c J Y L Q Y Y t t N L.(.z , 3 5 J ] &.{ c.2.{  .Y x r t 9 > < r 2 r + 0 { E.R.Y.c.",
"A.U.A.H.B.A.n.c.3.3.Y L Y J v G x l j t r < 9 r 1 i P  .P P T J P x b P Q U  .4.L t b J P K 5 3 5 H Q Q  .a.&.B.] H H Q Y J J H v > < 2 o 0 z N L R B.",
"Z k.Q.A.B.a.y.Y P y y t i t r t q r 9 3 r t t 0 2 2 2 v T P T J c b P U  .c.Y t 3 H W Y P W J 3 t P ~ W  .Y { &.P P P P Q Q P Y  .H > % # k l k k z z ",
"k Z I r r t r r r r r t r t t t t r j t z n v l r > 2 < x G K H c b P W  .i 2 v  . .T Y U Y ~ Y x x G P W U ] U J Y P Y P Q P J Y  .L + : x k k z l z ",
"k T t 2 r r r r t r 2 t r 2 2 1 r x n m N N N v z 9 > < * 3 j J c J Y v < t Y 2.]  .] Q 3.U J P Q H b v P Q Y Q H W Y Y Q Q  .Y Q Q  .N 1 k l j k z b ",
"b Z t t x r r t r < r r < < q t N N N N N B I l n v > < > - > > 2 c < v  .c.{  . .Y W  .W U J Y Q ] Y L v H P H H Q P  . . .Y  . .3. .U 8 k j j k k b ",
"K H K K J b 3 9 r 2 > 3 t x m B B N B N N z N N l n l * * - $ * - % x c.&. . .{  .]  . .] Q Q 4.Q P Q  . .v u t J P U  .{  .]  .4.{ { l 1 x j c b b c ",
"F H K b H T G < t 2 q v M N v N N B B N B B B N N N m t % $ $ + + P 4.&. .} c.&.&.{ &.{ X. . . .Q U Q Y P Q P t b  .] &. .] ] Y  .Y z.b c F G G G G c ",
"K T K H J H P j > 1 N N V N P I B R I N V I I N B B N B l - $ * L &.Y d.2.{ 4.{ c.2. .&.] ]  . .Q Q Q Y Q P Q P T  .] &.&.&.Q &.2.c.2.H J c G F b H H "
};
