/* XPM */
static char *result[] = {
/* columns rows colors chars-per-pixel */
"75 75 118 2 ",
"   c #23232D",
".  c #262630",
"X  c #2A2A34",
"o  c #2F2F39",
"O  c #2F3039",
"+  c #33333C",
"@  c #2B4E25",
"#  c #2D5326",
"$  c #2D5629",
"%  c #2F5B2B",
"&  c #305328",
"*  c #325D2B",
"=  c #34642E",
"-  c #38662E",
";  c #36692F",
":  c #386A2F",
">  c #356630",
",  c #3A6534",
"<  c #366B32",
"1  c #396D33",
"2  c #3E6D38",
"3  c #377033",
"4  c #3B7335",
"5  c #3D7936",
"6  c #3C7638",
"7  c #3D7B39",
"8  c #416B3D",
"9  c #407C37",
"0  c #41733D",
"q  c #407E39",
"w  c #373741",
"e  c #3B3B44",
"r  c #3F3F48",
"t  c #43434B",
"y  c #474750",
"u  c #474850",
"i  c #4C4C54",
"p  c #4F5058",
"a  c #54545C",
"s  c #58585F",
"d  c #446240",
"f  c #447240",
"g  c #4B7547",
"h  c #457B42",
"j  c #497E41",
"k  c #4D744B",
"l  c #4C7B48",
"z  c #527F4D",
"x  c #5A7357",
"c  c #547C52",
"v  c #587C55",
"b  c #5F755C",
"n  c #5C7D5D",
"m  c #617B5E",
"M  c #5A5A62",
"N  c #65656C",
"B  c #67686F",
"V  c #68686F",
"C  c #6C6C73",
"Z  c #74747B",
"A  c #78787E",
"S  c #3F803A",
"D  c #418237",
"F  c #41833B",
"G  c #44893C",
"H  c #4A8146",
"J  c #498842",
"K  c #4D804A",
"L  c #558252",
"P  c #5E845C",
"I  c #5D8E59",
"U  c #60825F",
"Y  c #658B62",
"T  c #698569",
"R  c #6D8C6C",
"E  c #659063",
"W  c #6F8D70",
"Q  c #728672",
"!  c #748B74",
"~  c #7B8F7C",
"^  c #739473",
"/  c #789A76",
"(  c #779879",
")  c #7D997C",
"_  c #7C7D83",
"`  c #7F8285",
"'  c #818387",
"]  c #85868B",
"[  c #868A8B",
"{  c #89898E",
"}  c #829583",
"|  c #829883",
" . c #869489",
".. c #8B958E",
"X. c #879988",
"o. c #8B9C8D",
"O. c #8C8D91",
"+. c #8E9193",
"@. c #8F9D92",
"#. c #919496",
"$. c #949D97",
"%. c #94959A",
"&. c #969B9A",
"*. c #999C9E",
"=. c #92A096",
"-. c #97A19A",
";. c #99A29C",
":. c #9D9FA3",
">. c #9EA2A3",
",. c #A5A5AA",
"<. c #ABABAE",
"1. c #ACACB0",
"2. c #B3B3B7",
"3. c #BABABE",
"4. c #C0C0C3",
"5. c #D3D3D5",
"6. c #DBDBDD",
"7. c #E8E8E9",
/* pixels */
"3 1 4 & * < * 1 2 6 5 5 1 5 4 < 5 2 1 3 D 5 3 q 5 Y ]                   X 2.r                   B ! 3 7 7 3 4 7 * > 3 5 - - < 4 < 5 % - < 5 = 5 1 7 1 ",
"7 - - * ; 4 F F 5 3 5 5 - * 7 5 = 4 < < F < * * F Y {                   . B o                   M | 1 5 4 6 5 q > 2 3 4 * 4 3 > = 4 7 1 9 3 5 < 5 - 1 ",
"1 5 < 3 5 4 7 7 < 7 4 1 7 * 4 < - < 7 < 5 3 < = 2 P { .                                         a | 2 > 3 5 9 5 5 < 2 S 1 5 < > = < 6 5 3 > 5 4 < - 4 ",
"5 < 4 S ; 7 5 7 5 3 3 7 q > 7 6 5 F 3 5 F < : 5 < I O.X                                         r o.< 3 3 2 1 = ; < 3 F 7 D < > > < 7 > > 5 4 q 3 * & ",
"- 4 5 3 9 - < 1 < 3 2 7 < > 4 = 9 5 F F - 4 < = S L +.o                   N r                   . -.3 4 4 D q 5 3 < 5 5 2 6 < = 6 1 > 4 5 = 5 - 4 > * ",
"5 4 > 5 = 5 7 3 3 2 > F 5 5 1 5 ; - 3 7 2 5 5 7 5 2 :.+                   O._                     +.8 7 7 F 3 * 1 4 > 4 ; 4 4 4 * * 2 < 4 4 ; S 5 4 < ",
"< 9 3 - 5 4 1 6 S ; 5 q F < < * 3 9 3 5 > 5 3 3 7 6 :.r                   C 1.                    A c 7 1 4 2 5 1 < < = 5 3 6 3 $ 1 S 4 3 7 : 5 5 F * ",
"= < 6 < 3 1 4 4 4 < 3 7 3 > > 1 5 7 < 5 7 > 4 5 6 < =.u                   w M                     a ( 7 5 3 3 3 1 5 > # ; 2 1 4 3 > 5 4 5 3 1 5 7 F < ",
"* q 4 7 > 3 F 5 # = 3 7 7 < > - 5 7 7 < 5 3 4 7 4 4 ~ M                                           O $.= 3 # 4 6 5 : < 3 < = 3 > F 3 # 4 7 3 < 5 2 7 4 ",
"6 3 < 1 1 * < > 3 : ; 3 < q F 5 7 4 2 ; > = 4 = 3 6 E C                                             O.L 3 < 5 > < D 5 2 5 7 7 5 > < = < ; 2 3 3 5 3 4 ",
"< = = < 6 * & 3 F > - = 1 4 7 < 5 - 5 3 3 < 7 1 5 4 g ` .                   M %.                    M o.4 1 - 4 1 7 = 7 < 2 3 > > ; 3 4 4 < 2 3 4 5 5 ",
"3 > > > > 3 1 3 > 7 = 5 5 < < $ * 5 4 3 6 7 3 < < 5 f } +                   X 6.                    X *.v > 3 2 5 3 F 6 < 4 < 5 > 4 7 5 S D 5 5 1 5 5 ",
"2 5 - - < 3 5 2 3 7 5 < 7 5 * < 6 4 7 1 2 6 9 = 3 5 5 } t                     2.w                     M ~ 4 4 < > 5 5 5 < 3 5 5 2 3 5 4 q 5 < 7 5 = 1 ",
"= 3 5 D 4 5 4 1 > 5 1 3 < 7 > - F 4 7 3 < > * , : 5 5 ^ C                     w .                     X ] k - - 2 < 3 - * 7 5 > 4 q ; - < 5 > - * = 5 ",
"; = 2 5 < 3 4 ; < 7 1 3 < % * > 3 q 4 * : 5 3 5 1 4 4 L %.                                              p #.2 < F F F < % ; > > 7 D > = < 2 4 7 4 7 4 ",
"4 4 S 7 5 4 = # 2 1 5 4 5 = 2 1 S < > < 3 5 3 4 3 = * , $.u                     e M                       V  .= < 7 5 < < = < $ < 7 > 3 * 4 = 5 < 7 < ",
"3 3 < 4 5 1 < > < 7 = G 5 3 D 6 < 2 4 1 5 3 5 4 > = 3 3 ( C                     s 6.+                       ' m 7 3 1 D 4 S 3 * 2 7 3 4 ; 1 9 5 = * 5 ",
"> 3 < 2 < 3 < 6 < F 5 4 5 < F 7 < ; 5 3 < D 5 7 < S 7 7 H #..                   . 2.A                       + +.P 2 3 q q < 5 : < 3 = 3 < 4 3 4 = 3 > ",
"* > 5 < 2 1 1 1 5 < > 5 < 1 F < 7 3 4 2 1 1 F 7 4 5 G 4 6 o.t                     r s                         r >.c 1 1 4 5 2 < * > * 1 * < 5 3 * 4 4 ",
"7 F 9 * 9 * 6 4 6 ; 4 2 < - < = = 3 G 7 1 3 < 3 3 < 5 5 7 P Z                                                   r +.n > > 3 < 7 < > 1 1 3 < - 3 2 < 6 ",
"3 6 7 1 5 4 2 3 3 7 > 3 3 - : - 5 < 4 4 3 < 1 5 4 < 5 7 7 9 ;.+                       . t                         w ..` 1 5 D 4 = 1 D 3 4 - * F 5 1 7 ",
"4 7 6 < D F 4 3 # < 1 > 3 - = 7 7 9 < 4 4 ; 1 4 7 4 D < 4 q R _ .                     s 5.X                           Z +.K 7 > F G 7 F 7 q - 3 F G q ",
"7 4 3 4 6 5 : 5 3 3 1 6 3 3 F 3 * 3 q 5 3 4 7 3 < 4 3 2 q 2 8 &.t                       &.{                           . M +.! g 0 5 - 3 4 5 < 7 F F 5 ",
"7 3 1 3 4 5 7 9 > 7 1 4 4 7 3 1 * < = 3 9 5 2 F G < : 7 3 < < R Z                       X N                               + C ;.~ 9 1 = = 5 < 5 < 7 3 ",
"4 2 1 < 1 ; 3 5 1 4 = < > > % : = 5 1 3 S ; = = 7 5 < 3 2 4 S ,  .e                                                           e C *.` I H : 3 4 3 - : ",
"6 q 5 4 5 % : 4 * = 4 3 3 3 < 3 4 4 9 3 5 4 = * < 5 5 q 3 7 1 = n %.X                         C p                                 . i C O.;.X.Q T m Y ",
"3 < 7 7 = = < 2 D 5 5 4 3 5 1 F q q 5 5 5 2 3 < 3 4 4 4 7 3 - * 0  .N                         B 7.i                                       X i N _ ] { ",
"> > < 7 4 - 3 4 5 5 7 3 4 * 2 7 = 3 q 7 > 5 5 < 7 1 > - 4 7 1 7 4 8 #.+                         C *.                                                  ",
"> * 2 7 4 5 q 7 > 3 1 3 5 3 5 < < < 3 5 < : q 7 q 2 5 5 D 7 3 5 1 1 Y _                           X                                                   ",
"9 > 3 3 < > * 5 1 3 3 % 1 = 4 5 4 5 1 3 3 q 6 1 4 < 7 7 4 S 5 3 6 4 > @.N                             r V .                                           ",
"5 4 ; 5 5 < 4 4 5 4 7 > - 5 ; < 1 9 3 4 S = 3 9 4 4 S 7 - S 7 5 2 5 < j ;.s                           + <.4.t                                         ",
"2 < = 3 S q 3 7 5 < 5 < 5 = 4 * 3 7 6 2 1 3 6 3 < 4 3 4 > 4 3 < > 3 > 4 8 ..e                           . ` p                                         ",
"4 : = - 3 < 4 3 3 1 < < 6 3 7 = - 1 1 : < < 5 < 4 2 7 7 1 > 6 F < < < 4 = x #.e                             .   w a X .                               ",
"4 ; = 2 7 7 7 < > 5 * = 1 7 3 ; < 1 5 3 6 < 5 = 5 5 1 3 2 7 3 4 < 4 7 3 3 3 R #..                               y 5.3.t                               ",
"4 < < F < 3 * < 4 ; 4 < 4 - 2 3 7 5 5 2 1 q 4 - = S < ; 1 > 1 1 3 < < 3 ; 1 F R _ X                               + ' M                               ",
"7 5 - 5 : 3 5 4 4 1 5 7 3 - = 4 5 4 q > < < 5 * 5 4 6 S * 4 6 4 4 * 7 5 5 9 : 1 Q +.w                                     + 3.<.C                     ",
"4 7 = 5 5 5 S 4 G 4 7 5 5 * 4 < 3 4 7 1 : 4 = 1 ; 5 S 5 > 7 S 9 < 1 3 9 5 7 = % 4 ! O.w                                     o Z ,.    e M t +         ",
"< 3 4 7 > > S 3 3 - = 5 4 7 5 5 7 7 3 = 3 4 5 5 < 3 < < 7 4 1 3 2 : 1 4 7 4 6 < 2 4 Y +.i                                       .     i ,.2.Z     B 1.",
"* = 7 S > < : = = * < 5 1 4 5 F 4 ; * > 5 q 2 > < * * * F 3 > < 4 5 > 1 F 7 < 4 3 > > L &.p                                                 X     + i ",
"- 3 5 > < 3 5 4 5 < 4 5 3 5 5 3 4 4 7 2 4 4 1 9 1 3 3 5 S - 3 4 - - 1 5 1 4 3 D 3 > 1 > l $.C X                                                       ",
"> 1 3 5 < 3 < 2 > < 7 3 3 7 < : < > 5 3 < 7 F 7 < S F S 4 4 1 = 3 > < 3 > - = = < 5 S 5 3 9 ( +.p                                                     ",
"7 3 6 5 < - ; 5 7 3 = 3 % 3 - 1 1 3 5 4 < 4 4 7 4 3 G 3 6 < % 7 5 < > 1 5 ; < 4 5 7 6 5 < 5 = v &.A X                                                 ",
"> 1 < 1 4 3 4 3 > < 3 < 3 < 3 2 ; 1 5 7 1 1 < 5 3 < 5 7 7 S 5 = 4 4 * < 3 1 : 5 7 9 7 3 2 S < ; 0 Q [ s +                                             ",
"4 - > % 3 7 4 3 = J 7 > 5 1 7 < 5 1 7 4 ; 3 < 3 4 2 7 3 F 7 5 1 3 > > 1 5 ; 4 5 7 J 3 > < S 5 2 1 1 k o.O.i                                           ",
", 9 4 < < 4 5 9 3 5 6 2 3 D : 1 3 9 1 4 3 - < 7 6 3 7 = 7 5 < 3 7 3 > q 5 > 4 = 3 7 - = * 3 3 4 < > 3 9 P $.{ i .                                     ",
"< 4 5 3 9 7 q q 4 < 3 < 2 7 4 5 * < F 6 > 4 F 3 - < 7 5 < < * S 1 1 < 5 2 > < S 7 > 1 2 F 7 3 < 1 5 2 > ; = g ~ *.Z t .                               ",
"5 = 5 2 3 F q - > 1 4 > = % 9 4 q 4 5 < = 7 4 > D 4 < = 7 1 F < 5 4 6 7 S 9 1 5 1 2 7 5 6 7 5 - 3 1 3 ; 3 4 5 3 J ^ $.%.M e X                         ",
"7 < q q > 3 7 5 5 6 5 > 5 S 3 * 3 2 7 < 7 5 < 4 S ; 4 7 5 q 5 2 3 - F 3 < 3 - 5 4 4 3 3 5 5 < = 5 q 3 4 F 1 5 2 5 7 0 c Q  .' Z M t + X               ",
"< > 3 q = < 7 q 4 F < < 4 9 3 * 4 5 5 4 F 3 3 3 7 < < 1 3 7 3 4 4 3 S 3 1 3 3 4 7 = = 4 3 ; < < 7 0 3 F 1 7 3 3 4 = 7 3 4 2 l P Q >.*.+.{ Z M a i r r ",
"1 5 4 9 3 > 4 3 4 6 5 5 7 5 5 = = < 4 3 5 < ; 3 2 7 * 3 4 7 q 5 5 < 3 2 2 1 7 7 < ; < 5 1 1 < 5 3 5 - 6 6 4 5 4 4 * * 7 = 5 1 > < 6 h v Y R ! |  ...X.",
"5 F 2 < S 7 q 3 4 < 5 < 1 1 < 4 < 1 F 3 6 3 < = 1 < 5 9 7 4 5 ; 1 7 < 5 S 5 ; - = - = = < 3 1 < 7 3 4 < 2 4 9 9 9 1 4 7 1 3 < > > 1 6 5 3 > 5 1 > - 4 ",
"7 * = 4 * 7 4 6 7 ; 1 ; - > 4 3 4 D 2 5 9 2 - ; 4 5 5 q 1 < - $ 3 5 4 = 7 6 3 5 F 3 = = 2 3 7 5 S 3 = 2 1 1 4 > = 1 4 q 5 G - < 6 3 7 1 6 7 5 F 6 = * ",
"4 = < : 1 9 3 5 6 3 7 1 9 = 2 3 5 5 q S < 4 < = 7 5 > < 5 5 3 2 1 > < 2 > < 5 ; 3 7 3 F 5 3 7 5 > 5 3 4 4 F 6 4 1 1 3 5 < 4 < = 4 , > 3 4 - 1 ; 4 - % ",
"5 < 3 < 3 5 5 < 3 - 3 7 6 = 5 7 : 1 4 5 1 9 7 7 4 - < 1 q 7 3 7 7 = 5 4 - = S < 5 q 1 q > % 4 - = * - 6 7 F 1 * 3 3 5 5 < 5 3 7 * % < > 4 5 ; 7 4 5 2 ",
"5 F 7 F > 2 ; 7 5 < 3 4 2 ; 1 3 9 1 < 7 > 5 5 3 7 3 7 7 q S 3 5 3 < = 4 1 q 7 5 = 7 6 6 4 = 5 < < : 3 q 3 4 3 4 2 < > > 5 5 4 < @ 1 S 6 3 5 3 7 5 3 > ",
"4 3 3 4 F 5 5 3 < > 3 3 : 1 * < 3 F 3 4 q > 3 7 3 3 q 7 = 7 9 1 3 7 3 5 * 3 3 < = > - 7 5 4 4 5 < < 5 q 5 5 3 4 2 3 1 @ - 1 1 1 7 > 7 4 7 < - 7 S F - ",
"4 < 5 3 F 3 3 3 7 2 4 4 q 7 4 > 2 7 7 < 7 > 4 5 4 2 F 5 > 7 5 < 2 7 ; 3 1 1 D 5 5 < 6 4 5 4 2 7 S = 6 > 1 # 4 3 7 5 = : > < 6 3 F < # 5 5 7 7 5 4 q q ",
"1 4 1 F 7 - 5 5 7 4 - 7 4 4 7 < < 5 2 ; < > 5 < 4 3 7 6 < < 7 F < < < 2 * = 5 3 < 3 1 2 3 < < 4 5 ; 4 5 3 < 5 1 < S 7 1 5 4 6 6 < : % : < < < 3 3 3 3 ",
"2 S 5 2 < < 2 5 7 < 3 1 - 3 7 2 & > 1 - 3 3 7 1 4 5 1 6 6 ; < 7 < % 4 3 < % 7 q 5 # = 5 q 4 > 4 7 3 > < 1 ; = 3 1 F * 5 - : 5 - > = 2 4 5 > 4 < 7 5 3 ",
"= - < > 5 5 9 1 * 4 3 3 4 < 3 < 4 5 5 5 3 7 4 > 1 5 1 - < 4 6 < 3 5 3 7 4 5 7 5 1 ; 4 2 3 - q 5 5 < - 2 3 < 2 < < 4 7 7 1 4 3 3 = 5 5 7 7 D 5 7 1 9 7 ",
"1 6 < * 3 5 q 3 3 F 6 < 3 F 5 5 7 4 F < 3 4 7 = 4 5 3 5 * 1 < 6 3 * 3 3 ; 4 9 3 3 1 4 7 = 3 3 3 3 4 = 4 3 4 7 < ; 4 4 4 4 < 7 7 3 3 5 4 q 5 > 5 7 * 1 ",
"< 4 2 3 1 3 : F 2 4 3 1 3 7 > * 3 4 6 3 - > = > 4 5 5 5 = 6 F 1 1 1 q 4 5 7 $ - - 4 3 < 5 - 2 < 3 4 * 4 4 $ = < 4 1 5 3 > 5 3 1 < 7 3 > < 4 > 5 - - 4 ",
"4 1 5 3 4 S 7 7 4 < 3 < < < 7 5 < 4 3 = 1 1 3 4 ; 4 5 4 5 5 1 7 3 1 1 5 7 5 3 ; 3 < 7 > ; 3 4 4 3 < = 4 7 - = > q F S < $ > > > 5 D > > < 4 3 5 < 5 5 ",
"7 = S S 1 5 G < 3 < 4 - 1 < 5 - 2 9 3 < 1 7 4 7 5 - = * < 6 1 1 < - 3 1 5 7 1 < 4 2 1 * > q 3 7 5 ; - - 3 7 : = = 6 7 > < * > # 4 6 = 2 & 9 < 4 < S > ",
"6 < 9 5 * 3 7 q 5 9 4 < 7 F 3 = 3 > < > 7 4 3 1 > * < 3 G = < 5 3 3 < 4 9 4 < 9 5 = = 3 < 4 < < G 5 ; - < 7 5 * 5 3 1 S 2 S 5 = < 7 1 4 = < 5 5 = % 5 ",
"3 3 3 4 - < q 6 4 5 4 3 4 4 4 - - ; 5 5 < F 5 7 < F 7 5 S 1 3 = 2 * 5 3 * < 4 < 1 < q < 3 5 % % > < 4 ; 4 < S G 5 3 5 q S = 4 ; < 1 < 3 < 6 2 1 = 5 > ",
"- 7 3 G 5 > 4 < 4 5 4 9 7 9 9 * - 5 3 < 1 1 S 7 5 5 S 5 < 3 > < 3 : * 1 6 < = 1 1 q 5 7 4 4 3 = 4 3 5 3 = 4 D 5 4 = > < 3 3 3 < * ; % > = < S 5 % < 2 ",
"7 7 1 2 5 7 7 4 4 < 4 < < < > 2 < 5 S 7 1 3 < 5 2 < 5 5 7 4 - 4 5 3 > 3 5 > > 5 q F 7 3 3 7 = = < 3 2 $ - S 4 < < 4 > - ; 6 2 7 < - 3 1 : < - 3 < 4 5 ",
"5 * ; : % F 5 7 7 < 5 3 < % 3 4 3 > 4 4 4 4 2 5 4 - 7 5 7 F q < 3 2 % 1 3 < 9 9 5 q q 4 > q 5 ; 4 1 1 1 4 7 > 5 7 ; < 4 < 5 D 5 - 1 S 2 3 = @ 5 7 > 7 ",
"3 - < < 3 9 ; 2 < q 5 < q - 6 3 3 9 < 4 5 > < 4 4 3 q 1 q 5 3 1 9 < = 3 4 - 4 ; 5 7 < * = 6 4 4 < 3 3 5 7 5 2 = 7 : 4 3 3 5 q * 5 D 5 7 F 5 - q G F 7 ",
"5 7 4 7 < < 7 3 4 = < S 7 > 4 7 4 = q 5 % < 7 3 4 3 5 1 3 < = q < 1 1 q F : 4 4 7 4 < 1 9 7 1 2 < 1 < 3 4 < = < ; 6 2 F 2 > < 4 7 3 3 5 5 q 4 q F S 3 ",
"5 5 7 5 4 5 = 7 3 < 3 2 > > - > 9 5 9 2 3 7 5 3 < > 3 < 5 1 1 5 5 > q 7 < 1 * F 6 % 3 5 7 5 7 > < 4 5 * = < 3 ; S 6 > 1 5 3 5 3 ; 2 6 7 1 S 6 4 q q 4 ",
"4 3 4 5 7 7 5 3 3 ; 4 3 3 5 = > 1 1 4 < < 5 2 5 F 1 1 3 5 q 7 3 5 : S 3 7 4 > 7 2 1 4 3 6 5 4 > 6 3 4 4 9 < 9 2 F q 4 < = ; < 4 = < = 5 3 5 5 q 7 F 9 ",
"- 3 1 9 F 3 1 5 J 2 3 : 6 3 < 1 7 7 F < F 3 < 4 5 - 3 F F F 9 1 < % F 5 * 4 3 3 5 2 < 1 5 F & 3 F 7 4 q 7 > 4 1 = - 7 4 - 5 < F < = < 3 3 5 9 1 3 9 0 ",
"5 4 3 9 5 = 9 6 5 5 < 7 6 5 D < > 1 9 5 5 < 1 5 2 4 % 3 3 3 6 q S 4 5 < 4 4 7 7 < = = 5 = - 4 1 3 4 > q < 5 9 3 7 * - 4 ; 5 4 < 1 4 5 7 q 7 7 4 < 5 4 "
};
