/* XPM */
static char *result[] = {
/* columns rows colors chars-per-pixel */
"75 75 250 2 ",
"   c #23232D",
".  c #4C4C54",
"X  c #4F4F57",
"o  c #396D33",
"O  c #3A7034",
"+  c #3B7536",
"@  c #3A7335",
"#  c #386E33",
"$  c #3A7436",
"%  c #3D7736",
"&  c #3C7636",
"*  c #3A7235",
"=  c #3D7B38",
"-  c #376931",
";  c #3C7737",
":  c #386F34",
">  c #376C33",
",  c #3C7838",
"<  c #3B7335",
"1  c #366A30",
"2  c #3E7C38",
"3  c #396E34",
"4  c #386F33",
"5  c #397235",
"6  c #3E7837",
"7  c #3B7435",
"8  c #3F7D3A",
"9  c #356832",
"0  c #3A7434",
"q  c #376F34",
"w  c #3B7736",
"e  c #366730",
"r  c #B6B6B9",
"t  c #35353E",
"y  c #3A7334",
"u  c #3D7936",
"i  c #363640",
"p  c #397136",
"a  c #3E7B38",
"s  c #3C7937",
"d  c #3E7D39",
"f  c #366D32",
"g  c #397435",
"h  c #3B7535",
"j  c #3D7B37",
"k  c #387035",
"l  c #376A31",
"z  c #3D7937",
"x  c #3C7537",
"c  c #3B7637",
"v  c #386B32",
"b  c #376C32",
"n  c #3B7236",
"m  c #397035",
"M  c #376C30",
"N  c #346730",
"B  c #36672F",
"V  c #386C32",
"C  c #3B7233",
"Z  c #3A6F33",
"A  c #376B33",
"S  c #3C7535",
"D  c #3E7736",
"F  c #397536",
"G  c #397234",
"H  c #34622D",
"J  c #3C7435",
"K  c #3F813B",
"L  c #346530",
"P  c #3B7134",
"I  c #376D34",
"U  c #3D7A38",
"Y  c #3A7234",
"T  c #397033",
"R  c #3D7537",
"E  c #366A32",
"W  c #35652F",
"Q  c #376D31",
"!  c #386D34",
"~  c #37682F",
"^  c #376F35",
"/  c #3E7937",
"(  c #397134",
")  c #3C7434",
"_  c #356430",
"`  c #34632E",
"'  c #376B31",
"]  c #407C39",
"[  c #3C7C39",
"{  c #35662F",
"}  c #3D7735",
"|  c #34622F",
" . c #3A7636",
".. c #396B31",
"X. c #3C7837",
"o. c #376E33",
"O. c #869987",
"+. c #366B32",
"@. c #397132",
"#. c #3E7C3A",
"$. c #3B7436",
"%. c #3D7838",
"&. c #3C7333",
"*. c #37652E",
"=. c #3A7437",
"-. c #3F7E39",
";. c #32622F",
":. c #396F31",
">. c #377134",
",. c #3B7938",
"<. c #33602C",
"1. c #386F32",
"2. c #3A7237",
"3. c #3E7A38",
"4. c #3F7F3B",
"5. c #41813A",
"6. c #3E7A39",
"7. c #3D7634",
"8. c #35682F",
"9. c #35662E",
"0. c #3C7939",
"q. c #376A2F",
"w. c #356631",
"e. c #3A7736",
"r. c #366933",
"t. c #3B6F33",
"y. c #376930",
"u. c #42823C",
"i. c #356931",
"p. c #859486",
"a. c #3F7B37",
"s. c #33632D",
"d. c #36622D",
"f. c #376A32",
"g. c #3C7B38",
"h. c #3F7D38",
"j. c #41803B",
"k. c #859786",
"l. c #34652F",
"z. c #366832",
"x. c #376B32",
"c. c #32602D",
"v. c #407F38",
"b. c #305D2B",
"n. c #839785",
"m. c #3A6F32",
"M. c #376730",
"N. c #386C31",
"B. c #3D7835",
"V. c #386D32",
"C. c #839585",
"Z. c #42833A",
"A. c #42863C",
"S. c #869B88",
"D. c #3D7A39",
"F. c #396F33",
"G. c #3F7A39",
"H. c #386E31",
"J. c #3C7836",
"K. c #366C34",
"L. c #3E7936",
"P. c #859A86",
"I. c #325B2A",
"U. c #376830",
"Y. c #417F39",
"T. c #3E803A",
"R. c #336430",
"E. c #34642F",
"W. c #35612D",
"Q. c #305B2B",
"!. c #3B7635",
"~. c #31592A",
"^. c #31602E",
"/. c #3B7835",
"(. c #42843B",
"). c #3D7F3A",
"_. c #25252F",
"`. c #44873D",
"'. c #2D2D37",
"]. c #34632C",
"[. c #3E7836",
"{. c #3D7335",
"}. c #407E37",
"|. c #325C2B",
" X c #36692D",
".X c #3D7E39",
"XX c #43853C",
"oX c #3D7939",
"OX c #36622F",
"+X c #282832",
"@X c #3A7134",
"#X c #41843C",
"$X c #2C2C35",
"%X c #30303A",
"&X c #829183",
"*X c #396F36",
"=X c #315E2D",
"-X c #869C87",
";X c #407E3A",
":X c #325E2B",
">X c #32612C",
",X c #2F5427",
"<X c #3F7F39",
"1X c #418238",
"2X c #818F82",
"3X c #32323C",
"4X c #345F2D",
"5X c #35632D",
"6X c #36692F",
"7X c #40823A",
"8X c #386831",
"9X c #3F7B35",
"0X c #2F582A",
"qX c #3D773A",
"wX c #272731",
"eX c #41853A",
"rX c #36662D",
"tX c #40833C",
"yX c #335E2B",
"uX c #879D88",
"iX c #305A2A",
"pX c #839385",
"aX c #355E2E",
"sX c #315F2D",
"dX c #2D5126",
"fX c #2D5627",
"gX c #808C82",
"hX c #448A3D",
"jX c #2B4E25",
"kX c #808E81",
"lX c #829484",
"zX c #44883C",
"xX c #2B5227",
"cX c #2E5729",
"vX c #41414A",
"bX c #9E9EA3",
"nX c #47474F",
"mX c #6C6C72",
"MX c #949399",
"NX c #74747A",
"BX c #2E4D27",
"VX c #55555E",
"CX c #899F8A",
"ZX c #6F6F76",
"AX c #66666D",
"SX c #95959A",
"DX c #78787E",
"FX c #8E8E94",
"GX c #818186",
"HX c #494952",
/* pixels */
"c J.x.X.] %.a./ e.R N.r.+ D B h e |.-.5 u 7.- ).z.p..                   i r t                   X P.k G :.V C 6 / # B f.eXoX .8 y.c z 6 }.].S 2 ( $ J ",
"D L.@.3 L.2 P y v c.O Z.^ 0.8.S #.e d.x.y w.d 4.g gX.                   i r t                   X n./ $.f.@.`.f A.%.6.A l * R M 4 * #X3.V. .#X2 5 C _ ",
"3.XX2 ;X/ $ >.U OXx.H G x.B 5Xi.h 1X1X* ] N.h.< y &X.                   +XnXwX                  X n.1XB.5 6 Q # $.# H.9 H 7.C 4 % ~ 5 * & ,.d $ G G S ",
"t.).K h $.T.I a %.o L C J < w # N c 7X8.Y H.c.aXL.p..                                           X gXy.: B.G.n I a.% L.N l.{ _ ^ F.i.$.d ;.0.) J.2 !.9X",
"P K K j.< a.& s Y * -.< v L > j.m  .B : 4X1 $ : ' S..                                           X 2X7 *X-.H.0X, u.E.@Xj S U.0.4.I 4X .k 2 o E 2 $ z a ",
"= zXhX-.B [.K 6.h.1X, |.] u =.m.) ../ c.t.c -.3.4 O..                   3XSX%X                  X -Xw n z.N h !.o a.y 2.+ 5Xj.i.; ;X> p M a.P ~ 1 { p ",
"6.w.s L.dXH g O 7Xl E.j eX7.v $.9 ' ] 7.9 .X% b : &X.                   i r t                   X n.7 j Z 0 F G + 9 y F k ~...& j B d U % K Q.:.9.I., ",
"s J # C M.f.M > Z 8.x.8 ^ c z.*.N *Xx.+.7 T.{ cXI O..                   i r t                   X lXm + N.* ' = 5.6 8XO +.Q l 1 &.N.7 c 3.; z o.' 6 = ",
"! i.0X/.K o.aXw.sX8XiXQ m >.Z Q 9 H y /.(.$.5XG ; pX.                   +XnXwX                  X -X=..X7X> : E C J y.:X/ / z L.S w G 1 @ z.z hX$ 6.E.",
"E.% N 3 ^ x f Y 8.4 - M.+ w.K v.7.T L.zXtXz.0 y. .O..                                           X -Xf.#.3.K E w 6 N 8.*.F J 7 T @ w R 6 d 4 l.S n >.7 ",
"% =X` J.B.v W O F.d A d.S .X! K Z >.3.yXw d f.rX{ p..                                           X kXe o @.} 3._ > i.C 4X5 #X/ y.$ ] = Y.; Y c.7.6 z.%.",
"E K 1 ; ~ ] cXq H ; h fX{ | ! { ; %.c.d.- T.( OX~ &X.                   %XGX'.                  X 2X/ d 2.6 b f 2.R m ~ & A N.M.7 : @Xw.A.D 3 tXv.c.z ",
"e.& F.; T * > L w.tX}.H ;.W fXf.tX5.;X1 ].5Xa  .sXpX.                   i r t                   X P.1 g : :.1.H @ } f.!.U G i.K.1.r.0 d a <X% G 0.Z + ",
"& *.5X6 M.h f.W 4 6 l f.* , w.T ,.H.{.y.H fX$ F sXp..                   i r t                   X S.@.OXW M.` ( qX+ @X;.B d >.f.=.p :.Z.M n N.* > F o ",
"N.:X#.z L 7.K g j 1.< [ oX^ g &.$ + 6Xo s c 4 $ ;.C..                   '.mX$X                  X P.0 W.= =.( y.;X$ D.h 6 Y.t.f  .#X: G -.S G ~.# R f.",
"h.}.O = X.5.] , , u H @ O P T ] -.h - > q f @.! _ p..                                           X -Xv l.$ a k h } ; % v k i.c 3 p n sX3 0.c % ..' N 5X",
"^ 7.X.q.Y N % $.k  Xy.].2 ~ *.< >Xj.T @XOX1 K.q L S..                                           X uX0 N.j G 3 B 1.e ,XF.6 ( 8.V t.' s z Z f y.5 $ j.*X",
"G H.* G 3 ! M M |.Q - ; x & J.# #.<XE o & ..Y ,.$ k..                   $XmX$X                  X n.7.' R 8.- U.: c +.> 2 @ + , B ; 2 a L.8./ Z.# F Z ",
"Y.8 7 S %., d } dXf j.P =.A 9 :.c.% ).* < dXq W e.C..                   i r t                   X 2Xh , g 9 [ ' 8 ] n L x 6 ;X) h 3 qX: q @ u.< U l t.",
"OXXXK 2 B K.D.y U R.oXv : A 1 xXA 7 o p g R / K J.p..                   i r t                   X n.p #.2.9 4.g : h.y E I.Z Q q T y.1.h [.j 7X!.q k * ",
"E.* = = &.; p ; 5.f.jXl < S u ` L 1 ..< * < @.8 @XO..                   '.ZX$X                  X &X= q } 7.L a.o.m.a >.H.- : 2.: 9 w 8 9 Z ` j.a Z.}.",
"I / 0 , ~ u =.R.o.b.yX;X@ ; q j , G m.Q.p Z.,.e.B p..                                           X kXw U v.a.F.w  .Q N.3.D ].c G.k 5Xq 9 L.D 2.Q k f s ",
"Q.s.g M o W $ P _ - n ^.1 & +.-.* 3 Z y B.(.$ $ T O..                                           X P.= s...=.- <X4.} B.5 O d.8 4 6.J $ =.@.h.V l 1 >Xn ",
"I.E., `.L./ $ A ,.P J.i.*.zXw Y.!.> c.M.* O 3 k l.uX.                   +XVX+X                  X -Xw M d.3 j = *XZ.) $ 0 _ OXN :.9.U , < g.b.!.H I.).",
"{.W - f & e : 0., b c.9 M &.> h.n o.a 6.U + V z.@ p..                   i r t                   X C.4 ` V.F 0.4 4.T - @XV.Q T - L.o 7 @ 8 0.T.! 4 u.s ",
">.# O c 3 c 1X/ c ; o R.H.% ].d ~.c.< J & g %.; l.k..                   i r t                   X S.3 2.B e D ( h A >Xd.$ % z a.R $ h o h - T a @ X.3 ",
"0.} E oXu.Y M.7 e.H s.% 0.4 C T #.` C 5 &.L.1 u.* pX.                   3XMX%X                  X P.#.4 F.x 4.y u %.6 <.g h.< ! K.1X$ ;X).> ;.] x 8.l ",
"[.(.w m } U g !.M.+.W j - Y c.1 O j [.O a ' 7X+ * p..                     _.                    X C.Y.h > S j b g.m @.yX* ).} { X.; s B.#.< W }.] z.6.",
"6 `.#XzXL.= I 8 8XP W l m W.N.f #.8 (.y 6 D C 8X&.2X.                                           X P.(.M.$ 6.` q R y 2 7.h.sX| 9 J A l.{ v.7X=.k ; c.L.",
"Z #.tX%.%.5.e. .& | $.&.t.z.g 2 o.o.i.: v ;.- { k S..                   wXvXwX                  X gXB 3 Y.0 R.$ XXi.=X$ $.[ b ! 1.f.} tX2 j j 7 c < 4 ",
"a.hXXXj H u $ -.* 5.d r.y s m < x.L.D H yXO ; %.@Xn..                   i r t                   X S.c D.o.B Y J.m.D * I M (.1.3 n , < a } < V 8X@ 8 f.",
"w Y .XZ.W.6XK @ zX[.f.s.zX&.! Z J B Z...e..Xv.$.r.p..                   i r t                   X O.J.C 8XO 1 Y [ 4 c 1 qXV %.w.g.`.s.@.F D.>.0Xl.l.< ",
"d ' & } |.w.} 5 h.B ( d + + | v i.: # # > tXV Q.5 p..                   3XMX%X                  X k.g & M V.H.= 2 F.U.O * +.( # I # N m J k P Z o.4 _ ",
"X.6.|.q.a L iX' Q.E iX0 5 ,.+ B > ' l f <XqXW.b.r.O..                     wX                    X C.< D. .@ 4 =.B.C y.o B m.Q.C { p s a - l.x.X.; * X.",
"f.T =Xw k = * > >Xl H 6X$ H ; 6 _ H Z.v.`.> U.e $ C..                                           X S.f..X5.6.E k % _ A N.b 3.5 N., b 8.I y.h ' /.m H.e ",
"l =Xl./.6.! ;.' T [ v d.Z .X#.tX/ G f.% g.h T N.k uX.                   wXvXwX                  X O.v 6 C 7.=.m 2  .& T S , y J.$.# X.+ w p ^ R.+ T W ",
"x & ` o &.V Q.& o U p W.S y _ 0 ! = R 0Xv ).1...~ gX.                   i r t                   X kXV E k ).X.^.=Xw.7.Y.= $.V.z 4 I.5X<.:.~ l.j.2 d.<.",
"o.j & 6 M 6 L E e -.j ` R.H |.- #XZ.U H.9.Q 2 > >Xp..                   i r t                   X n.3 s c S >.c.@ / = , & -.&.} <.l.O 5 j.8.w.8 y T N.",
"2 m I.1 b p ^ | | `.7.c.b $ =XR.G G n ^.rXv : <XN pX.                   i r t                   X -XU.T d.Z U.Q 3.7 ( ! w cX[.a #.) zX$ .Xs 2 s N qX0 ",
"{.H a ;X8X) g # h 1 n 7 a q l.C $ h ..C m s.K.E 0X&X.                   _.$X_.                  X S.J.aX& f.' M.8 h L.) ` N :.[ 0.1.0 < X.F.~ ) U.,.g.",
"T :.: X.@ XX#XX.j U H ,.p n 7 G.`.( 4 1 G # = 6.G S..                                           X -X| _ + 4.o.5 ) , -.C 5 M.) ! 7 ~ x 8.|.m.> K v r.&.",
"G.h.% h ( 1 6 x c C y._ Y N.&.s ].a ].Y 8.1.V f.=XC..                   _.%X_.                  X CX% 9.c 3 c 0 u > A l p z M :X~.u L :.a.#.[ m ].q.x ",
"k :.X.o.T I H.1.s.rXc.7 u $.T $.e.tX: o J Z 4 , I k..                   3XbX3X                  X O.} M % q.3 q.V # e ` #.p x Z 1 o @ # c x.q 8.9.M Y ",
"a.[ x.z 9 L 7 m.xX, d > c 4  .Z w ) 4 % y jX@X9 : C..                   i r t                   X n.o y x @ x.o.qX6.>.c.n s.oXe 6 # = X.5 ] 5.m | 1.^ ",
"&.;Xd a.< $ + B.b ^.8 o # 9 i.cX;.s % p o ~ j 6 e.k..                   i r t                   X C.$.D.5 ^..Xh * #.I - 6XX.9.N z 0 ,.h < Q u ,.E 0 w ",
"aXj.d g q.= ,.b v.f.:XC % $.1.b.3 o N.=.$ < Q ] B.C..                   _.'._.                  X k.F *X+ G.m Y > L.S + R ].Z b.&.I N.D :X| ^ * : M.a.",
":.J j 4.a F., , 2 r.BXx # % /.> ^.q...<.n Y.,.c * O..                                           X 2X8 g.h.q.> 2 q B I b L.@.R q # G N oXh.+ R d o |.L ",
"| F./.T q.v 5 - ` l.* N V c b z ; + o o !.XX+ oXrXpX.                   _.%X_.                  X p.2 ' < D.- = 4.C | ,.5 yX$ O [ ; s c P rX7.#.b R.w.",
"BXfXK.&.o Z 1 k G t.8.sXN.;XF 5.: v P o O /.0.>.} S..                   3XbX3X                  X uXm Q m.! B.2 ; Y.] #XE L.F.} e.[.eXo.E H ].8 U r.q ",
"7._ 5 y a.( c $ $ A M.K.W.} @ 2 ..e v 7 D.O o A E.O..                   i r t                   X S.o.|.B $ s k a 7 @.Y i.O y @.@ s.|.Z o I.% g ; <XD ",
"~ E.< + 3 o B.P G.G E.;.y x 5X= h 5 : a.h #.7 m ) O..                   i r t                   X n.;XOX<.i.5.( k c E.~ b.L ;.i.| + ^ /.Z - m.b 3 m.n ",
"* d x., b % l.d...y - @ 4 z.| G.d E | <X+ K.R G _ O..                   +X. +X                  X kX(.5.4 = 9X( W.v I...>.8 2.n +.).OX-.#., $ G r.y , ",
") #Xv.-.U.[.0 0 M.; s b 7 g > o r.O e b d.h 6.D.* k..                                           X lXo.=.oXh C w ;XZ b.@ 7X^ (  .x.( g /.M g.=.p P $ / ",
"v.hXXXm rX4.[ 4.6.hXK OX/ 0 m z y.Z D V ..5 = a * k..                                           X uXD.=.' l.+ /.M.Y.h.).W.8.5 N o q.dXC P u.A.O & , 5 ",
"= # s u.~.` /.5 eXt._ y zX7.f.l o.x.3.l I ).2 3 f.pX.                   '.NX'.                  X n.S 6 o o q Y c A w W q.{ >.p 9.%.@ O ^ n j 3 6.J.O ",
" .o O &.*.E T r.v 8.b = I ^ - M.E I ! 1 Y = H fX2.O..                   i r t                   X n.I ( 6X@ Q #.zX< yX<.V { V 3 h U.x p ; 4XB.H 3.Y.a ",
"R $.Q.4 s +.~.f c.w.iXH.^ X.@ 1.o B C J.A.2.*.z.l lX.                   i r t                   X n.S T.T.o.# q {.P 8 l u.o - D z.o.w o m...Z 6XR 9 b.",
"w.P ;.* p c > F.` ( l B w +.8 h.Y V [.Z.T.> P V F O..                   $XAX$X                  X -Xl #./ 5.E n u i.o.] (.' % 0 2 A.M & ' 0 A o b 5 E.",
"!.Q.s.J.G.V { <  ..X: I.< T.p #XV.>.%.d.#.h.c.<.8.k..                                           X 2Xe J S :.-.V.@ > l x eXp z `.>X[ ' 9 +.r.%.< # >.Y ",
"K.U E x rX& =Xo.*., > ,XM 9.e N.x ] l <.W ).@ ..~ &X.                                           X kX@X$ 5 3.>.E L > ).N.# { D x X.! t.xX>X% z Y.K F ) ",
"F 2 y 6.J m +.L 9 5.v.1 ;.U.Q.# eX(.u.V q.W.7X>.b.pX.                   '.NX'.                  X P.V.0 O D H.I.x 2 @ e Q.b.V.H.V.z f 1 } f 3 = 3 <.N ",
"% c.:Xe _ s f e 1 a.{.z.& D.b.{ p ' o { { 8.^ 8 L p..                   i r t                   X P.Q _ d.].- Z 6 @ tX9.U.D.> m t.3.;.I J % x 1X% < E.",
"T *.6.-.f.S 4.@ z q : z 0.> V.D z % - V >.5 ( 2.;.C..                   i r t                   X P.T OX8 c : Q ;X+ $.M ;.& 0.K.7 #.p F.R n 1 ~ y.< # ",
"U 9X# ,./ (.K D.g.& | ,.K.m H.x `.0 D 3 p N  .n i.k..                   '.DX'.                  X P.- N 4 G.2.q ) , <.,X1 z.z ,.H = | P t.+ R.L w.R.@ ",
"+ u & T # 9 R g *X X~ H 7 t.V.X.>X2 z.h 9.o x.+.| O..                                           X S.L.:.6.k : T h B & > v.{.: | ~ _ #X2.,X~.; q.5XH b ",
"c T s >.* !  Xl H :._ = #.3.z ! [ A.o.U.%.q.( ).+ k..                                           X -Xo 9.J 5X9 y.3 ; g., 5.a.q &  X:.: R.f.sXV.o +.* 6 ",
") 0.o L.3 ^ T.) jX: #X| p ;.f t.' M w x @ dXg OX^ C..                   +X. +X                  X lX7 U $ q w 1.qX2 g.*.9 1 z g.*XH jXw 7X@ ` [ $ ] ~.",
"..5.d a M q w 0 w R.2.P F.I 1 xX9 & o p O C /.-./.p..                   i r t                   X lX@ , =.9 8 h : a 6 o.L e @ D.g l ) 0 7 I J 9 ; V rX",
"Q.j.g.j q.8 *X7 7Xf.,Xt.R J } >X+.' m.; ^ P M #.Z k..                   i r t                   X n.8 < @.L.9 [.q L.C =X+.f 4.K R  XT.w *X@ U N n 9X1 ",
"+.J & 8 ~ S @ I @ sX~.+ n % f % r.0 ..4Xn u.g., - p..                   %XFX%X                  X gX0.g.h.D Z j @ 8.~ & m s S (.9 ! ^ q 8 S ` 6 8.7 R ",
"aXl.e.9.D ` U J ` V.; R.1 x 3 z %.A Z B.j A.=.$ m.O..                                           X n.T.b.V 2.` 7Xu./ G.rXJ _ f./ # * 3 M q.~ D ) & + e ",
",XiXk v.) 6 N 9 [ o q.L ~ 1X= Y.< o 6XH 3 O p G b O..                                           X CX! !.l Q j.!.< Z.h x 6.e -.,.T >.L.a j 8 9.v.7 - s ",
") W > 7 & 8.n ; $ +.5Xw.y.% 3 K # b R 3.6.& P r.3 k..                   +XHX+X                  X n.4 H 1 k a q U # 9.E y :X6.# & s o d g.& e.k > % 1.",
"# { % - + 7 9XV ] * H R.< < <.F >.5 9 Y.J., $ y m.S..                   i r t                   X P.u.I.>Xf Z.k l F ;.U 2 c.*.9Xu T 0.5.j.J l.iXW { d ",
"O d 1.s e R 1 rX~.6 b @ # E.N ) Y E.b.a O 5 / , n k..                   i r t                   X 2Xs ).n s }.* t.Z % K.F % T U + c ) ..Q.+.aX,X) # O "
};
