/* XPM */
static char *result[] = {
/* columns rows colors chars-per-pixel */
"75 75 104 2 ",
"   c #1F1F2A",
".  c #1F202A",
"X  c #23232D",
"o  c #262630",
"O  c #2B2B35",
"+  c #2F2F38",
"@  c #33333C",
"#  c #2E5629",
"$  c #2F5929",
"%  c #305729",
"&  c #315D2B",
"*  c #34642E",
"=  c #36692F",
"-  c #356630",
";  c #386432",
":  c #366B31",
">  c #386E32",
",  c #377033",
"<  c #3A7335",
"1  c #3D7937",
"2  c #3D7538",
"3  c #3E7C38",
"4  c #416D3D",
"5  c #41743C",
"6  c #407E39",
"7  c #373740",
"8  c #3C3C45",
"9  c #3F3F48",
"0  c #403F48",
"q  c #43434C",
"w  c #4B4B53",
"e  c #53535B",
"r  c #467642",
"t  c #4A7346",
"y  c #497B44",
"u  c #4D774A",
"i  c #4D7D49",
"p  c #51744D",
"a  c #597657",
"s  c #547D52",
"d  c #587B54",
"f  c #5A7358",
"g  c #5D7D5B",
"h  c #585760",
"j  c #5B5B63",
"k  c #606067",
"l  c #63636B",
"z  c #68686F",
"x  c #677F65",
"c  c #6B6B72",
"v  c #707177",
"b  c #73747A",
"n  c #77797D",
"m  c #797B7F",
"M  c #3F8039",
"N  c #41823A",
"B  c #42883D",
"V  c #4A8344",
"C  c #52814E",
"Z  c #568353",
"A  c #558951",
"S  c #588955",
"D  c #5D845B",
"F  c #5F885E",
"G  c #60865E",
"H  c #648463",
"J  c #658C63",
"K  c #688866",
"L  c #6B8B6A",
"P  c #70866F",
"I  c #708D6F",
"U  c #6F926F",
"Y  c #718771",
"T  c #738D73",
"R  c #798F79",
"E  c #769376",
"W  c #7A937B",
"Q  c #7D9B7C",
"!  c #7C7D82",
"~  c #7F8185",
"^  c #7F9281",
"/  c #818387",
"(  c #838689",
")  c #868B8B",
"_  c #8A8E8F",
"`  c #839584",
"'  c #839985",
"]  c #87928A",
"[  c #89938D",
"{  c #8B998D",
"}  c #8C8C91",
"|  c #8C9290",
" . c #919195",
".. c #96969A",
"X. c #9F9FA4",
"o. c #A2A2A6",
"O. c #A6A6AA",
"+. c #A9AAAD",
"@. c #ADAEB1",
"#. c #B0B0B3",
"$. c #B6B6B9",
"%. c #BCBCBF",
"&. c #BFBFC1",
"*. c #C6C6C8",
/* pixels */
"< > < 2 1 , < 1 , , , 2 < = > * < > < > 1 1 > 1 2 > > 2 < , : > - > * > * > 1 1 , 2 , , 1 1 - - > 2 < < 1 , , 1 & * < , = = , < : 2 & * > , = < < 1 < ",
"> : , < 1 * : 1 1 < > > < 2 , * < > > > 1 , * > 6 1 > > > < < : > < : : & : , 1 > , > > < * * * > 6 < > 2 2 6 6 : < < < * , < * * > 2 * < < > < > > = ",
", < , 1 < > * : < < 2 3 1 > > > < , 1 , 1 < * = > < < 1 3 2 < > > 2 > < 6 2 = = * : * * = , > : < 2 < - < > 6 6 2 : 2 1 , < = ; * : 1 2 < = < < = = < ",
"N 6 1 1 < : * > 1 < 2 6 < : & : < N 1 1 1 , = * < 1 < 1 < < * $ < 2 < > 2 1 , , 3 < : > 1 < 1 6 1 < : > , > > > > * 1 1 2 6 = * , , < , > 2 5 1 > * $ ",
"< 6 6 < > > : < 1 = * > 2 < , < > < 3 3 > < : : 1 < * - > 1 , < > : > , = = < = , 1 > 3 1 , 1 > > < , , 2 N 2 < > > 2 1 > , = = > * > > , * > , < * & ",
"= , 1 , < 1 3 1 , > = 1 3 2 1 2 > : 1 1 , < 1 3 < < : < 3 3 < 3 < * < , = * 1 , = 1 > < = * < * * & : < 1 6 < * = < , < < < > , & * = > < < > < 1 < = ",
"< , < = 2 < 2 1 , < 3 3 3 < 1 < < > < < > < < 1 2 , 1 1 1 3 < 1 < : : , , 1 1 < * < < 1 > * < < - : 2 1 > , < , = > : * 2 > < > & * 3 < < < , 1 1 2 * ",
"1 1 < 6 , > 1 < > 1 N = 3 6 < , 1 3 < < 1 : 2 3 < > 3 1 : M 1 , < < < < * , < < = , = < 1 < 1 2 , : < M 1 > 2 , > 2 * # = = < < , = < < 1 , > < 3 6 : ",
"6 6 , , > , 2 , , 1 3 , < < , * , N 1 = < > < < , < 3 1 > 2 , > : 2 : , * > 3 < < = , 2 < < = 3 1 * < < < $ 2 2 < < = = , = 2 , 1 > * < 1 , < 2 , 1 6 ",
", 2 = * = 1 > , < 2 6 , * < N < > < > = * > < : < < 3 1 > : 1 N : : : > $ * < < = > , > , > , 2 < * < 1 < = < > > N 1 , < 1 1 2 = > & * = > > > 2 > , ",
"= > < > , < < < 1 , 2 1 > > 1 < > * < > < > 1 , 1 < < < , > , 1 > : < < = * 1 1 < & = 1 1 > , 1 1 > * > = = : , < 6 > < > > < = * * > < , = , > < 1 < ",
"1 > < , 2 < < * < , = = > > > > > < < < < < 2 : = 1 > * : > > > > > , < < < 3 1 < = , > > * 1 < , , = , < > , = = < 3 1 , , , < * 1 3 1 6 6 1 1 < < < ",
"< 2 , > < 3 : : 1 , 1 > - > < < > 2 < > > < 6 * , 1 < 1 * > > 2 > * , , > < 1 = > > < < * < 2 < < , * < , < < = < < < 2 > , 1 1 > > 3 , 6 < = < 6 * = ",
"1 < , * : * * > 1 1 M , > 3 1 > < 2 < > * = * = < 2 3 3 = < N , > : 3 1 2 3 = * * > < < : = , * < * & < , * = > > > 2 : & 2 < = < < > * > < > < = * < ",
"N > = : , < < : < < , 2 1 : 1 > 1 1 : * > < < , < < < , 6 > < < > > > > 3 < < = , , 6 > : > 2 < > : * < 3 = * > < N N : # * * * 6 6 : * : < , < > 6 < ",
"> > * > 1 2 < , * : & - < : , : > > : * < 1 , , > * = & > < = > > > : > 3 1 , < < > * * = < < 2 3 , * * < < > * = 3 < > = * = & , 2 : > * 2 > > = 1 > ",
"- < : < < < : : * = > < < , < < = > < < 2 , < > > * > < < * = < : > : , < 6 < 2 2 , = , < < > : 1 < : * = < < * < > : 1 1 6 < : < 1 1 1 > : < < = = 1 ",
"> 1 > < - < > 2 > : > , 1 < 1 < - < 3 3 , = 1 N , > < , , = < , < 2 * , = 6 < < 1 = > 3 3 < : < M 1 : : > < > 2 > = , > 1 < 1 < * < 3 3 , : 1 N < = > ",
"3 1 , < 3 2 < N 2 1 , : > < < > < , 1 < , 1 6 1 < < 6 < < 6 < < 6 6 < 1 = > > 6 , < , 2 1 , , 3 1 1 , > 3 < 1 N 1 1 , : : , 2 > < > 1 < , < N 1 1 > , ",
"2 < > < 1 < < 3 > < : - * > > < > = > < < 1 6 1 < , < , < 2 < < 1 < < > - * : = < , > = < , 1 1 6 < , > 1 < , 3 > < : = * > > < > = > < < 1 3 3 , > , ",
"> N , : * < , > > : 2 < , * , < < * < 1 > < = 1 1 2 3 3 = * = < > > : > < , = : < , = : 3 < > > < 1 3 1 , , > > > : < < > * > < > * 2 3 : > = 1 1 6 6 ",
": < < < = = > = > 6 < 1 < * 1 < > > > > < < , , , : , < , , = > = > 1 1 1 1 = , 1 > > > : < < < > < > < < = > = > 3 < 1 < = < < , , = > < 6 , , , > 1 ",
": * < 1 3 = > > 3 1 , < , * 3 < 2 1 < < < 6 > = : = = = 1 3 > > : 1 3 < , 2 * 2 1 < 5 1 < < 1 < : - * : 1 = < > 3 1 , < < * 3 < 1 2 < < < 6 = = * * > ",
"< 2 3 < < < , > 1 1 , < < * * > , : < 1 < 1 = = * < < 3 2 < 2 , > < 1 < , , : * = > > > 3 < 3 > = * : 2 2 < , > 1 1 > < > - - > , = 2 1 < 6 > * * < 1 ",
", 1 6 > > 1 1 < , , = > > < , = 1 < , , 2 < 1 < , < 2 3 2 = < 1 < < > > : > > < = < 1 , , < < 1 < , 2 6 > 1 1 , , > : : > < , = 1 < , < < < 1 < > 1 < ",
", > > = > < = < 1 M * * 1 < 1 2 , 2 < > > < < 1 < < > > > = < , < < M , & < 1 < 1 < , 2 > > < < 1 < 2 , < , , < 1 M * - 2 < 1 1 < , , < 5 y C S D G G ",
"* , > < 3 < < < N 1 > = < 1 < : < 1 6 6 1 : * < < * = < > 1 < 2 < 3 3 > * > 1 1 > > 3 1 N 1 < * , < > > < 2 < < M 1 : - , 1 2 5 s L R [ { ) ) ( R ! m ",
"> 1 < : > = 3 < 1 6 > & < 3 1 : 1 2 1 1 1 > - 6 3 < < 3 = , = < 1 < M 1 * - 1 M > , 1 2 1 1 2 * < 6 < < > = 1 1 1 3 , ; s E ' { / v j w 8 + O o o   X ",
", 1 3 > , 6 3 < > 1 1 > 1 : * : , > > = 3 3 , 1 3 < < 3 1 : 1 3 1 , < 1 , 2 , * : > > : = < 6 2 < 6 , , 1 3 3 < 2 A E ] ( c w 7 o X     X X   o X X X ",
"2 1 6 > * 2 M 2 > , = , < < : > > = 2 N 3 3 1 , 2 1 < 3 < - , 3 6 > 2 = > , 2 < = < * < N 3 3 1 , 2 < < = , V J ` ) l q O X X X X X o X X X X X X X X ",
"3 1 1 , * > 3 = * > : > , N > > , 1 < 1 < < , = , 3 1 1 1 - : 3 2 & > > > > 3 < > , 1 < 1 1 < < = : 1 = r P [ ! w + X X X X X X X X o X X X X X X X X ",
"6 , < 1 1 > > , < * 2 > < < < > 1 N : > 1 3 , & : < 2 < < 3 , > = 1 * , , < < < , 2 N , = < 1 1 * * 4 L [ v q o X X X X X X X X X X X X X X X X X X X ",
"1 > < < , 1 < 1 < > > = , > < > : : : < < < < , > 6 , < < > 1 < < 1 > : > : > < > : > - > 2 > , 2 H ] b 0 X X X X X X X o X X X X X X X X X X X X X X ",
"1 , , < : : > : = = = > > = * > : : 2 2 : * - 1 < < < , > > : > > = - - > > : - = , : < 1 > : t ` / w o X X X X X X X X X X X X X X X X X X o X X X X ",
"1 1 M < : * * * = > = > > 6 , , < : > > : < > < > > 3 3 3 = = * * - > < : > 2 1 = 1 > * > > K | j O   X X X X X X X X X X X X X X X X X X X X X X X X ",
"> , 2 < < < > > > > < > < 1 , 2 < : , < < > , > < : , < 1 < 3 = > : , , > > 1 < , < , > y ' ~ 9 X X X X X X X X X X X X X X X X X X X X X X X X X X X ",
"< > 1 1 M 2 < , > - 6 1 3 < > < : & = - > * = 2 6 > > < 3 3 3 2 < , * < 1 M 1 < > , * p { c O X X X o X X X X o X X X X X X X X X X X X . . X X X O + ",
"< < , < = * = : - - < 1 < 3 , < & - : , 6 * = 1 , , < > < = = = - : * > 1 < 1 1 > > f _ e X X X X X X X X X X X X X X X o X X X . X X 8 v  .c X   c &.",
"3 , = = = < < > * < > > < : 1 3 1 < 3 , 1 2 < < : 1 < = = = > < < - : , > > : , 6 L ) q X X o X X X X X X X X X X X X X X X O e k o X e o.} e X X @ w ",
"2 , 1 3 1 = 1 < > > 3 < * * , < 1 , 1 < < > > > = 6 , 1 1 N = < < < : 3 < < & > T ( 8 X X X X X X X X X X X X X X X   X X 8 @.&./ o X X . . X X X X   ",
"> 1 > < 6 2 1 3 , > 1 < > * < < , = , = * > > 3 * = 1 < > 6 < 1 3 1 > < 2 , > P / @ X X X X X X X X X X X X X X X o e @ X O e + X X X X X X X X X o X ",
"* > < = < 1 6 6 3 : : > , > > - * , = , < 1 1 < = * = < : : 2 6 3 3 < - : < T ( @ X X X X X X X X X X X X X X X w +.&.w . X . X X X X X X X X X X X X ",
"* = < < : > 1 1 3 3 * - 1 , 2 , = , , = < > > - * = * < < > : 5 3 1 3 , * K ) @ X X X X X X X o X X X X X . X . k ! @ X X X X X X X X X X X X o X X X ",
"2 > , < : & > > 1 < > - > < < > 2 > 1 2 1 1 3 : * 2 , , > < * = , < 1 , D _ 0 X X X X X X X X X X X X X o j @ X X   X X X X X X o X X X X X X X X X X ",
"* 1 < 6 1 * : > < = > : : > * > 1 < < < : : < 2 : * , 1 1 N * = > < > u [ w X X X X X X X X X X X X X 8 o.$.8 X X X X X X X X X X X X X X X X X X X X ",
"* 3 < 3 1 < N 6 < < < < > - > : > > < < * - , < , = < 1 1 3 < 3 N < 5 { e X X X X X X X X X X X X X . c ..@ X X X X X X X X X X X X X X X X X X X X X ",
"= = > < , 2 1 : : * > , 2 , < 1 , > > 1 < < 3 1 > > * > , , < 3 , : W b o X X X X X X X X X X X X X X o o X X X o X X X X X X X X X X X X X X X X X X ",
", > * = , < - * & & : 1 < * , < 1 1 3 < , * < 3 > , > * = > < , * D ) @ X X X X X X X X X X X X c z X X X X X X X X X X X X o X X o X X X X . X . X X ",
"< 3 < < : : : * > : 3 3 > < > , 3 < 3 , = * > 1 < , 6 2 < = = = 4 [ w X X X X X X X X X X X X b *.e X X X X X X X X X X X X X X X X X X X @ 9 w e k l ",
"< N , < > > > , < : , < - - , < = = = = = & < < 1 , 6 1 < < = , R v X X X X X X X X X X X X O  .e . X X o X X X X X X X X X X X X o 9 j m ) ] ` W Q I ",
"= < > , > > : > , < > * & & * : * < < < < = , > , = , > > = > s _ @ X X X X X X X X X X X X X X X X X X X X X X X X X X X X X @ e ( [ Q G r 5 > > , < ",
"2 2 1 = < < > & - > * * 1 < < > = 1 < N 1 2 , > ; > 1 2 < < 5 ` j X X X X X X X X X X X 8 w X X X X X X X X X X X X X o . + j ) ^ G 5 N < 1 , > : : 1 ",
"> 1 6 = < 1 1 * * < : , 1 , , < > , < < > 1 2 < , < , N > > G ( O X X X X X X X X X X O #.! X X X X X X X X X X X X X X w ( ^ s > , < 1 > 1 2 < > 2 1 ",
"< , > = * , 2 6 , , 1 1 : * < : = * & < , 6 6 > , 2 , < > = ` e X X X X X X X X X X X / +.O X X X X X X X X X X X X + c [ f 2 = : = % > , 6 6 > < < < ",
"1 < 6 > & : > < N 3 1 = * : < , = 5 < < , < 2 < 6 < < 1 < d / + X X X X X X X X X X X w 9 X X X X X X X o X X X X 8 / W 4 = < , : 2 < < < < < < 1 1 < ",
", , < < > = < = 1 B * * : > : : < > 2 < , * 2 : 1 2 < > 5 ^ e X X X X X X X X X X   X X X X X X X X X X X X X X q _ x ; = = : > > > 2 < > * 6 = 1 6 1 ",
", , N 1 > 2 < > , 1 > = 1 > , > , > < > = : > > < = > 1 A _ @ X X X X X X X X X X e q X X X X X X X X X X X X q _ H > : 1 > > : , > < , = > > > 2 = & ",
"& = N < , > : > * > , 6 N > < , 3 N 2 < = < > * = * * 3 E z X X X X X X X X X X @ &.e X X X X X X X X X X X 9 _ g > < 3 N > < < 3 N < < = < > * = , * ",
"= 2 < , < > : * = , > 2 N 2 1 6 , 1 : * : , 1 1 1 = < 5 { q X X X X X X X X X X ! +.o X X X X X X X X X X @ ( H = < , < N 1 2 3 , 1 : * : > 6 < < 1 < ",
"< , = < 2 2 < * > 6 N > = = < 1 < , * # * < 1 6 1 1 , s ( o X X X X X X X X X X e q X X X X X X X X X X o b W - = 3 N > = = 2 1 , , = # * < 2 6 1 < < ",
"> = = > , < : = , 3 2 * $ * = < = < > = < < > 1 > * > P l X X X X X X X X X X X X X X X X X X X X X X X e ] 5 : > 3 < - $ * = , > < > = 2 < > < , * = ",
"< < = > , < 2 , , > 3 * * 2 , > > 2 = > < < < 3 < > 6 ] q X X X X X X X X X o @ X X X X X X X X X X X 7 } Z < < , > 1 * * < , > = 1 = > , < , 6 2 > = ",
"2 > = > > 3 N < < 2 , = * < 1 , 2 1 < < < > = * = , s ) O X X X X X X X X X w +.@ X X X X X X X X X X c E 1 M , < 2 < : - < 1 < 2 2 < > < , * = = < , ",
"< < 2 > < = 2 < = = * & * : 1 < : < > , > > = * * * J b X X X X X X X X X X / X.X X X X X X X X X X 8 | i : 1 2 * : * $ - : 1 < = < < < > < : * - * < ",
"> > * = 1 2 = , & : > , 3 < : * * = 1 < # * > , * : R j   X X X X X X X X X _ k X X X X X X X X X X z R 2 1 = , & - > < 3 2 : * * : 1 , & & > < * * = ",
"< * * = < N > = * , 1 2 3 < , 1 * > > : : & - , : 5 { q X X X X X X X o X X O X X X X X X X X X X @ [ C 1 3 < = * < 1 < 6 < > 1 * = > > * & : > = < 2 ",
"< * * < , 3 N * * : < : > > 3 3 > & * , 1 = > < 1 y [ @ X X X X X X X X X X X X X X X X X X X X X e ` = = 3 N * * - , : = > 3 3 , & * , 1 : : < 1 < & ",
"6 < 1 3 1 3 < = - > > > * : < < < : < , < > , , 2 C ( O X X X X X X X X X w q X X X X X X X X X X b H & < 3 < = - > > < : * , 1 2 = , , < : > < 5 ; * ",
"3 < < < 3 6 1 , * : * - > > 6 6 > : 1 1 2 , < , , J m X X X X X X X X X X O.z . X X X X X X X X O ) C = 3 3 3 < & : * * > > 3 3 < = < 1 2 , < , < < : ",
"1 1 < 3 1 < * = < < : < , > < 6 : : < , < < * < = L c X X X X X X X X X O &.e X X X X X X X X X 0 ` 5 < < < * = < < > 2 , , < N = > < < 2 < * < : < > ",
"1 1 1 5 > * % * 3 < 6 > < : : 1 > > < > < > : 1 , I l X X X X X X X X X O / @ X X X X X X X X X e ^ > > * * % * 6 < 6 > < : = 1 > > < > < > > < , > = ",
"< , 1 6 6 6 < < > > > : < < 1 1 > , < < 1 < , 1 2 W e X X X X X X X X X X X X X X X X X X X X X l I > < 6 6 < > > > , = < < 1 1 = , < < < < < 6 2 > < ",
"= , 3 N N B 3 > & * * = , = 6 , 2 < < 3 6 < 5 > : ^ e X X X X X X X X X X X X X X X X X X X X X b H = < M B 1 > $ * * = > = M , 1 < , 3 1 1 , > : > < ",
"1 1 N 3 1 N , < > > * 1 3 * * 2 < , 1 6 2 < * & = ` w X X X X X X X X X 8 z o X X X X X X X X X n g = 5 3 N < < < > * 1 1 = * < 1 > 1 3 2 < = * * > 1 ",
"2 6 6 , < 6 1 1 < * , > < < > 1 < < 3 = * = & & 5 ^ w X X X X X X X X X e %.O X X X X X X X X X n D > < 5 3 1 1 < = > = 1 < = 1 < , 3 > * : & & , > < "
};
