/* XPM */
static char *result[] = {
/* columns rows colors chars-per-pixel */
"75 75 86 1 ",
"  c #66921F",
". c #668C24",
"X c #668D2B",
"o c #6A8E2C",
"O c #679122",
"+ c #6B9425",
"@ c #6E9924",
"# c #6D952C",
"$ c #6F9828",
"% c #71972C",
"& c #72992D",
"* c #638436",
"= c #6A8D33",
"- c #67863A",
"; c #6D8C3C",
": c #708E3D",
"> c #6E9234",
", c #6E913A",
"< c #719534",
"1 c #739933",
"2 c #73933C",
"3 c #76993A",
"4 c #799B3D",
"5 c #6E8B42",
"6 c #6E8849",
"7 c #728E44",
"8 c #748D4C",
"9 c #759244",
"0 c #789547",
"q c #7A9944",
"w c #76924B",
"e c #79944D",
"r c #7C994C",
"t c #758D52",
"y c #788F53",
"u c #778E58",
"i c #798F59",
"p c #779152",
"a c #7B9453",
"s c #7E9953",
"d c #7E945A",
"f c #7F9959",
"g c #7F9263",
"h c #819A55",
"j c #81975C",
"k c #839A5C",
"l c #829564",
"z c #859A63",
"x c #899D65",
"c c #839668",
"v c #86996A",
"b c #8A9C6C",
"n c #8D9D73",
"m c #8E9E79",
"M c #909F76",
"N c #919E7C",
"B c #8AA067",
"V c #8CA16C",
"C c #8EA173",
"Z c #8FA07B",
"A c #91A275",
"S c #93A27C",
"D c #959F82",
"F c #96A283",
"G c #99A485",
"H c #97A289",
"J c #9BA58B",
"K c #9DA98E",
"L c #9EA692",
"P c #9FA892",
"I c #A0A88F",
"U c #A1A795",
"Y c #A1A895",
"T c #A2A799",
"R c #A5AA9C",
"E c #A8AC9F",
"W c #A6AAA1",
"Q c #A9ACA4",
"! c #AEAEAD",
"~ c #B0AFAE",
"^ c #AFB0AE",
"/ c #B0B0AF",
"( c #AFAFB0",
") c #B0AFB1",
"_ c #AFB0B1",
"` c #B1B1B1",
/* pixels */
"2;=>=X#+j^/`/`QaR`````n1jsffeeatiiiiiXh!~`!(!eC`^_`!J$3waw70:;>===X%1U/```/",
"QWRRTUUff/!!/`QwR`````Fa/~!QQ!~!))!!)x0!!)``^rC`_!``K:K~~~Q~QQQRRTUS;R/!`/`",
"/``/~~/jj//!!`QeQ````(Sf~`~~!!~`)`~!`Ap!))~(!hC`(_!`Gy!)~`~`~`//~~`L=R/!!(/",
"!!!///^wj//^(!W7R`/```np/`~~/`~`))~~)npQQ!`!/kA`_(!`Dt!(~)`~~!/````F>T`/!!!",
"`!!)`/!5h/`/!`R2R(_`(!bw!//!~`))!```(g9Q~``!!hM``!!)Gp!Q)!~~/!!(```MoT``!(`",
"!`~~``!0j```!(W,L`/`!(cp^~`/``~)``!(`z-Q~_!^!sH`(!((Da~!`!!!~``!`/`F#E``!!!",
"!`/!QQWqhQ/`!_W;H_(Q!W90/(!~^~!))!!`^jw!()`/QpAQQQQ!Dp!!!!!!!/`!!QQM%K~~`()",
"0as0777@@7pdzlwo0dp66* >hffyasfajsere$&jfafae%>;927w2X8sfha090fe777%+,tazjd",
"#AGFDNA2#bFGGGJUKJGDNn23bnnMAv+2fddlZr1VCbccbSFFGFAFlXbFNGGG2sGFSNNkOhFHJGG",
";Q`````ne~/``)`)()))))vp/``!(Q0J)!))`br```(_````````K7!``)`/eZ`/``)W:J`))`)",
"7Q``(!`Nc)```!)`!^`!(`nt/!!`)!fU)!)~_Se!(```_`````)`G8!```)!sS```!^Q8R)`))~",
"q^!(((`ml`/`!~~))``)(`m8~/(_(!fU)~`~`Sr!`_````````~`F6Q!````jG```/`!tW``!!~",
"e^!!```Fc^^^!!``~`~```Ap/!!/)!7U))/``nz~!`_``_```!``mp!`!`!^rJ!!_``QtR(()!`",
"2W!!`^`mc^```((`)`````Se!!!`(W7T))```Fx/````````((``Hp^^!^^!qN!!`!`Q6W__))!",
";Q/_```mdLRRRRRYUKKJJGkeQ!)!)WeW`))!_HaUYRRRRRRKHSJLbf!``!!!0m`!(`(Q8JLWWRT",
";Q!/`)`no-5pp79929332q1r!!`!)Q8L!()``H#w09959995777;os^(!`)Q;S`!_((W2=57p90",
"3Q_``/)bfRQQQQQWRERWW!Ch^_^`!!dD!!_`_Cd!QQQQRRWWQ~QWnaQ!```Q2A`````R9JWQQQQ",
"2R/`/``ll`/`!_```/!!)`Se!~```^dK((_`_Fx`(_`^````!~))Hp!````Q9n`````P5W_`_^_",
"7!!!^`_bz/~)`!(!``!__`FeQ!~~`^dJ!)``_Hd`_!``````````Ft(Q^!`/8H`!^^`R9R___^_",
"t!!~_/`nC``)_`!``/!!_`S0!~)~!!aU)`_(_Fg``(````!`)```He!!_!``dK`/```WaQ_```^",
"8^`````Cb))))``/`!!^^`Sr/~~`~QyE`````Dz`__!(`_!()``_Jp!``~`)gH)~```RyQ!)^`)",
"7^````/bl))~``)/````_`A3Q`~))!fY`/``)Mj`_`(```((`)()Pa~!)))`cD`````R7R)!)`)",
"=xVVCbf12bnnbnMbvvbVSCr+hkkzlk1ejjjjlq3zxbnbzkVbbbbbk4VVCbbV2hAVCVj0%jnnnnM",
"BzjfzVb34cvvvblo8jzvbCrqkxbbbbAHmnMNn3qbvkjjf1kZbbxxh3xhkjxVbxkkjBVk%kvbblb",
"//``!((bk`/```EqE``)~`Ak))`))``))))``kB```((QtL``)``Ha^/~!~~!//)(!`Y9R)~`~)",
"`/`/!``xk`!~``R4E``~``bk~~~)!(``))~)`VV``!`_!uR```)`Mp!/~!!)`^`!)!`R3R~!))`",
"``!/`/`kx~~~``T;R`)!``Vk)!~`!!!)))~)`zV````^!pJ``)!`Np//~`/!^``!```P9R/^```",
"!!`!^^/js!!```E-U``!``xf~!`~!!`_))))`hz/~~``Q9A```!~Hp^///!!`!`(!__K>L^```)",
")``!(``js!^`^`QwR)/`/`xf/``_``(!`)((`hV`~~!/Q2A!))/`H7!``(((`(`(!``P>Y`!`/`",
"RWRTRQWfs!^/)!WaW)/`_)beJJLJKJLRRRRRY3V/``!/Q2n_````J3KYRTRRRRWRWRQH>Y_^/!`",
";,,;,,<@h!^```QaW`````n+q9w75:78ttdu8Xh///`^!0n`!_`!G&37w779;;;;;>2>%U```//",
"TUYLKHHsh~!))`QwR`````FaQ!QQQQQQ!!QQQj0!!``/!eC`(!``I=HQQQRQRUPPKJFn>R~!```",
"```/~))jf/!!!`QpW``(`)Na/`//~~)`!)!!`Ad!)))`!fA``!!`Gp!))`~/```~~)`U;T//!//",
"~~`!))!ej`~!(!R9R`````Mp/`~!~~~``!!_)naQQ!!!/jS```!`Ht!~)`/~~!~`)``D>E``!/!",
"~!!```!7h``/!`R7T`(``!nw^``!)`))!````l5!!``!^hn``!!`Gp!!`)```!!~```NoT``!`!",
"!~!```Q0j```!`R2Y`((((vw!!`/``))`)!!`j-Q/_(_!rS`)!((Dp!!)~!)!)~~```NoT``!!/",
"````/!Qqh^/`))W:K`)`_!wp/~``)`))))```j0!````~pS(!!!!Dp~`!)(((``)~!!A%U````)",
"hlzkpye%&albnbdXevlut6O1bbxllzxbnxzvk%1bbvbxj>3wewff0=jlvxlhfhxzsyp2@9lvbnc",
"+zMbvcx<+jbMMNMSFNnbld<1jjkvbsO>799pzq&jjdapjBbvnxcVa.jnbACb>rMbbcxh+qbnMMM",
"2Q`/)))x0!))````))))_)vp)~~~)W9G!!^__br^`)!^`/_`````J7Q````~aM``))~Y=H````(",
";Q``!!`Ml()/!(`^!)`!!`ne~!!//!fU)!))_Se^___`/)^`````G7!```^!aA```!^QtR/`~~~",
"e^~!`!`Dc_``!^)!`/`_!`nt~`!/!!fU)~)!`Sa^_^``````````H8Q!``/^fG``_``QtW``!~~",
"r!!~_``Dc_^^!(``!`!```mp!!_`!!wL!`)!`Cj)^`^``````_``mw!``~!^sJ~(_``QtR((!!)",
"2W!~___mg^^^)!_```````Se!!)`/W9U)/)``Sb)/```````((_`Fd!!!``!0S^!```Q6W!)`)~",
";Q~^```mgQQ^QQRQWRWRRRB0Q()()W0W``)!(HfRQ^QQQ^QRLLURZa^``!((0m)(```W8LQ!!QW",
";Q!)``)mo;5paw092933>2&eQ!(((Q8T!)~)`G#0909790w;;5:;oh!_()(Q;M`!``(W,=57aww",
"3Q`_`(`baLLRRLRULKPLLRVf^^)`)!yD!!!)`npWRRUTLPLTRQRLvaQ!``(Q2A````_R9FLYRRL",
"2W``_``lc__`(_```)(__`Sr!!`))!jJ)!!)`Hb_!__(____(`))Jp!```)Q3n```(_L5W_`__`",
"5Q~!```xz_^`^!^!``~!)`Sr^!^!)!fJ````(Fl/_!`)```_()``Hw!Q((``pD`!```R9R`_`^^",
"t!/````CC_````!```!)``S0Q!_!)!dL````_Fi/_(````!`!)``Hw!!(!`)dJ`(```RrQ^_^`(",
"8^`/```bb``)```)`)!~``Se!!(_)QyT`````Fv`_`((`^!!))`)Je~)((`(lG`````RwQ__```",
"8!`````bl``)`````)`)(`Sq!```)~hE````_mk`_))```__`)`)Ye~))()`lH`````R0Q(()``",
"=MSGGSb3qNDDDDHFNMSSGHh%xMbnAn1hnbvmMs4MASGSnCSSFSNFVqSSGSSSwhGSHSCs1bDDDDH",
"hhreshk12djadjso:yhfkz33qhjhhkznxllll13ffpee91sxjjffq3hrhrhkjhsrefkr+eghdhj",
"!!^!!!_xk/~~~~TqT`~)~)Ah!~~))))))))`/kx((!~!Q8L`^^^`Ga!QQQ!!!!/^!!`UqR~~)~~",
"///!!^`xk/!~/)YqE)))))Vk~~~!))``))))`BV))!))!uP`/^``Ny!!~!!!///!!(`T2R!!))~",
"``(!```kx)/```T2T``!``bk`!!`(Q!)``!``bB`````^aL`^)``Sp/`/`~!```!```U9R~````",
"!!)!/^_jh~^```R-U``!``xk^!_^(!```)~/`fk/~/`/Q0F``)!`Sp^~``!!`!!`(!_K>Y^```/",
"(`_!^!_ks!~_/`Q7T`!^``bf____()!~`~~~^sV/~~!/Q9A)!`~`G8!)`!~!`(`!!!_P>Y_^`/`",
"!!!!^`_ks!^/^/QaQ)````brWQQQQQQ!~/~!^rV/~_!`Q,n(``~`J9W~~!!!!!(!!__L>Y_^`!)",
"wwa0esr#s!^``/QaW``)``b#09057:7tuidu8.z^/``)Q2C````(G&q0r88eweeweesq#U!``!`",
"Amnbbzz9h`!```QwR`````NeIPLPJJJLULLLLreQ!``/_rC`!!``IoxJIJGHSnnnbbjh<T`!`/_",
"````~~`jf(!!!_QeR``)`)Ga/`~))~)))`(!`Cp^~^``(sC`_(!`Jw~`)`~````/~~)R;T~!!``",
"~/_^//)sj)(!!(WwE````)Ap/`/`!))`))!(_ZfQ!!^!^kS`!`!`Dy~)))`~~!//!``G>R)!!!!",
")!!``/!9j////)R7T`/`)!nw(``!!``^~`~`(l7!!!)!!hn``!()Jp!(`/`^!!!~/``NoR``!)~",
"~!/```!7h```!`R:Y/``(!v8!(``````//`!`j5Q~~!!!fN``!()Da!Q`)!`!)~````moR``!))",
"`````_Qrj``)^)Q:L```(_fp_(```)(`~)`)`z;!``)`(aH``!()Dd))!!()```/``(F1R``)!)",
"NGGSnnb>3mDJKKmXzJFmmlo3KJJDGGJJUJHJG33JLJKJN3rbnnAMl;DGHGFMNFKSCnns@jDJKIH",
".0hew70@+2thjffjzjat6-#>790wp:.#;==;01$005;-2re9ww9w,.7eshfeo<ssy7w<@>8ajdd",
",R~!!!!h2E~~~!/~!!!_!!heQ!QQ~T<nTTTW!xqW!QQWQQ!^`!!`H;R!^/!!en~^!!!K#m~(`^!",
";Q``(()ml/!(~!``!(`!!`bp!!!(!!fU))`__nr_^`!```````)`G7!```!!pA``~!`W8R~~_)!",
"0^)()))mc``)!((!!`/!!_n8~~^)(!fU`_`__S0^`^``_``_`^))H7!/```)fG`(~!`QtW``!!_",
"e^^~```Dg_((!(``_`````mt~/`^`!wU)``~`Aj//_````````_`m7!((_!^fG~!~``Q8W!(!!(",
"9Q!^```Sg_!`)!_/``````Ap!!/`)WwU`````Mv~!/``/^``!!``Fa((!(!!qF)!//`QtR!((!(",
";W!/```nl^/`(!!```````C0Q())(R0R````)Hz)`````/``^```Fa!`!!!^en`/```Q8W/^(!!"
};
