/* XPM */
static char *_766b54181674738da64134f2d858d19hL150v3bgeivRsE6[] = {
/* columns rows colors chars-per-pixel */
"75 75 223 2 ",
"   c #0D371A",
".  c #12391D",
"X  c #0F3723",
"o  c #133D24",
"O  c #153D2D",
"+  c #1C3D2E",
"@  c #113728",
"#  c #1B3E30",
"$  c #213F33",
"%  c #144226",
"&  c #174529",
"*  c #1C432C",
"=  c #1B4B2D",
"-  c #184529",
";  c #174030",
":  c #1A4333",
">  c #1E4936",
",  c #1F4938",
"<  c #1F4738",
"1  c #1E5030",
"2  c #21452C",
"3  c #234B2D",
"4  c #26512E",
"5  c #244435",
"6  c #244B35",
"7  c #294B36",
"8  c #23463A",
"9  c #254C3B",
"0  c #294B3C",
"q  c #28473E",
"w  c #245233",
"e  c #275139",
"r  c #2A553C",
"t  c #2C593E",
"y  c #2A5634",
"u  c #33513C",
"i  c #34623E",
"p  c #744839",
"a  c #2C4D42",
"s  c #274E40",
"d  c #2D5245",
"f  c #2E5C41",
"g  c #2F5548",
"h  c #2C5746",
"j  c #305446",
"k  c #335D45",
"l  c #305649",
"z  c #335B4C",
"x  c #3B5C4C",
"c  c #365F50",
"v  c #395F51",
"b  c #314F46",
"n  c #2F6143",
"m  c #316345",
"M  c #35614E",
"N  c #38674B",
"B  c #366151",
"V  c #396554",
"C  c #3C6956",
"Z  c #3D6B59",
"A  c #3A7146",
"S  c #465849",
"D  c #466958",
"F  c #4E6F5A",
"G  c #587566",
"H  c #557A6A",
"J  c #657A70",
"K  c #9D2B19",
"L  c #962917",
"P  c #8F2915",
"I  c #A32D1A",
"U  c #AC2E1A",
"Y  c #A9321C",
"T  c #B4351D",
"R  c #B9391F",
"E  c #B9351E",
"W  c #B22F1B",
"Q  c #973524",
"!  c #AD3B24",
"~  c #B33B23",
"^  c #BB3B22",
"/  c #B23922",
"(  c #C2391F",
")  c #C43D22",
"_  c #C93F23",
"`  c #C03720",
"'  c #B54629",
"]  c #AD4B36",
"[  c #B74D30",
"{  c #A65639",
"}  c #BC5235",
"|  c #B74D28",
" . c #9D5734",
".. c #C64225",
"X. c #CB4225",
"o. c #CB4629",
"O. c #C7482C",
"+. c #CA4D31",
"@. c #C95636",
"#. c #D15B30",
"$. c #D2623D",
"%. c #D36C39",
"&. c #AD5A45",
"*. c #B06953",
"=. c #B77A65",
"-. c #937161",
";. c #D16B42",
":. c #D5744A",
">. c #D7784A",
",. c #D87D52",
"<. c #CD7248",
"1. c #6B8778",
"2. c #78897A",
"3. c #63836F",
"4. c #D39134",
"5. c #F6B536",
"6. c #B58972",
"7. c #DB8455",
"8. c #DA8642",
"9. c #E19164",
"0. c #DCA15E",
"q. c #FACB66",
"w. c #376799",
"e. c #1862A7",
"r. c #1D68AC",
"t. c #1F6CB0",
"y. c #226EB2",
"u. c #2573B5",
"i. c #2C7CBC",
"p. c #2977B9",
"a. c #3B6FA3",
"s. c #496C8D",
"d. c #446A91",
"f. c #4578A7",
"g. c #2F80BF",
"h. c #7C9084",
"j. c #5489B1",
"k. c #6A96B2",
"l. c #70A2BE",
"z. c #3284C2",
"x. c #378BC7",
"c. c #3C93CC",
"v. c #449CD2",
"b. c #4B9ED3",
"n. c #4097CF",
"m. c #4CA2D5",
"M. c #57A7D6",
"N. c #63ADD9",
"B. c #6CB0DB",
"V. c #74B4DD",
"C. c #7BB8DE",
"Z. c #7AA5C0",
"A. c #7FBAE0",
"S. c #879589",
"D. c #8B9C95",
"F. c #869990",
"G. c #8B978A",
"H. c #B89C84",
"J. c #8EA199",
"K. c #89A095",
"L. c #95A699",
"P. c #9CA18E",
"I. c #BCA68D",
"U. c #A5AA9B",
"Y. c #BCAA94",
"T. c #B5B09C",
"R. c #91A6AC",
"E. c #B8B7A8",
"W. c #AAB0A7",
"Q. c #819EAE",
"!. c #C59C87",
"~. c #C6AB97",
"^. c #C6B49C",
"/. c #D2B09B",
"(. c #CBBAA4",
"). c #C6B9A6",
"_. c #D1BCAC",
"`. c #D3C4AC",
"'. c #CBC5BD",
"]. c #C9C5B7",
"[. c #D4C6B3",
"{. c #D6C9B6",
"}. c #D9CAB5",
"|. c #D4CABA",
" X c #DACDBB",
".X c #DBC6BB",
"XX c #DDD1BF",
"oX c #CDC0AD",
"OX c #E4C9B7",
"+X c #8EB4CD",
"@X c #AABBCA",
"#X c #86BDE1",
"$X c #9CC3DD",
"%X c #B4C7D2",
"&X c #93C3E5",
"*X c #9CC8E7",
"=X c #8DC0E2",
"-X c #A5CDE8",
";X c #ADD1EB",
":X c #B7D7ED",
">X c #BEDBF0",
",X c #C9C7C5",
"<X c #D7CEC9",
"1X c #DDD2C2",
"2X c #D5D2CB",
"3X c #DFDCD8",
"4X c #DBD6D3",
"5X c #D5CED0",
"6X c #E2D5C4",
"7X c #E5DACA",
"8X c #E8DDCF",
"9X c #E3D8C7",
"0X c #E9DED1",
"qX c #E7DED0",
"wX c #EBE2D5",
"eX c #ECE6DA",
"rX c #E8E5DD",
"tX c #C3DEF1",
"yX c #CCE3F1",
"uX c #DCECF6",
"iX c #D7E9F6",
"pX c #E7E6E2",
"aX c #E5EAE9",
/* pixels */
"a a a a a a g a O * 2 e r e r t f 1 h e n t t r t r r r r e % M V z V B B B z M z z z z z z z z z g z g g g g a z z B B z z V M B B l a a a a a a b b ",
"a a a a g a g g 0 2 2 2 r r t t n 1 r r t n n r t f r r r r h M V z B B B B B z M l z z z d z z l d l l l g d d z B M M z z B V B B a a a a a a a j g ",
"b j j l a a l g a 2 2 3 t f m n t t t 1 t n f t t r t t r w t M V M M V B B B B B z z B z M z z l d l g l g g s z M V B M z z V V l a a a a g b a g g ",
"l j j d g l l l l 0 * 2 4 n f f n n n n n n n n n n t r r , e s V V B B B V V B B z z M B z z z z l z l g l l , h z V V B V C V z a a a a a a j g a g ",
"b l l g g z l g l l 7 2 2 i i t n n t i n t f n n n n t e r f : d C V v B V V M M x M z z d c z z z z d d d s , , h B C V B C B s a a a b a d d g g g ",
"b g l l g g g h z z l 6 2 4 y 4 t w t t t t n n n f e t t t e & O k N N C C D D D B M k M z B M z z h 9 < e l z z h , , 9 h h s : a a a j g j j b g g ",
"g l l l z l l h l z z d w = % & & & & = = = = = & & % X % %     O 7 6 u *. .p t 7 u j l M B z d 9 : : s z z c z B B h , : : : : : d b a g g l l l l l ",
"b g g g l c z l z l l j r % % = = = & & = = - & % % % % % X %   O 5 6 x %.| P p S 0 0 7 7 5 9 O : e z l c c B B B l h , : ; ; ; # a d g b g l l l z c ",
"g h g z z M z z z z z l d % 8 a a 8 9 0 6 - % - 9 8 0 7 8 d d d 0 0 d S ;.] P P P p S b a $ 8 # z l M M B z N N V g a b a $ O   + q b b j l l l l z z ",
"d l c M B V B M z k z z z d 0 1.S.G.S.2.S.2.2.2.2.S.G.G.G.G.G.G.D.U.U.T.;.' P K K K K -.T.E.E.E.E.].].|.].|.1XXX1X1X6XG a a $   + $ 7 a l l z l z z z ",
"l c B M B B B l z B M M B l a U.6X6X6X6X6X6X6X6X6X6X6X6X6X6X6X6X6X6X6X.X;.' K K I W W Y ] ~.1X6X1X9X6X6X9X9XXX9X1X XoXD a a a X $ $ $ 5 q l z l l z z ",
"z B B B V B B B B B c z z 0 a J eX8X6X6X6X6X6X6X6X6X6X6X6X6X6X9X6X6X6XOX;.' K K / W / W U I &.I.XXXX1X6X6X1X9X9X6X XT.x a a a $ + $ 5 5 5 0 z z z B M ",
"j z V V V M B z B B h d , : a J XX6X6X9X9X9X7X8X8X0X0X0XwXwXwXwX0XwX0X6X;.[ I K U W T T T T I P =._.^.6X1X1X9X1X6X2X).l a a a a 5 $ 8 0 0 d u x l z B ",
"l B V C V V V V B s : O : : , v 2.T.`.`.}.oX}.`.Y.^.^.).^.^.^.(.(.(.)./.;.[ I U T / ! T T T T K P  .-._.}.oX}.}.}._.S.l b b a a 8 8 z z z z h 0 f B V ",
"N D C Z C V C h : : # : O : d d d j D 2.`.Y.[.(.-.d.w.d.w.s.s.s.s.s.s.J ;.[ I U T E T ~ ~ Y E U K P L ~.`.6.oX^.P.D l l j j a a 0 h z B k z j 7 6 r D ",
"0 u k N C k > ; ; O O : a d g g l l u F }.XXXXoXH.w.e.e.e.e.e.e.e.e.r.w.;.} U / / E T T T / ~ ! K L Q ^.}.oX}.2.z z l l l d j d a z B z f h t r r t y ",
"r u r u i ; ; ; # < s a z d g g g g g F .X6X6X[.I.a.r.r.r.e.r.r.r.r.r.w.:.[ Y T R T T R R T T T K L Q `.6X6XXXJ z k z z l l l d 0 9 h r r r h r t t f ",
"t r 7 u 9 & O : g z l g g d g g b g b D |.9X6X}.I.f.t.t.t.t.t.t.t.t.t.w.:.} T ~ R R R T T R R T I I ] [.9X6X XF z c z d d l l d q % e e r r r r t t n ",
"t k t r : O 8 l z g g g g g z g g g g v {.6X6X XI.f.u.y.y.u.u.u.u.u.u.f.:.[ R ~ R T T R R R R T ! K  .|.6X6X|.F B z z z z z l g 0 9 e r r r f f f n t ",
"k m m w ; < g z c g z h g z g b g g g v ].XX(.6X~.f.u.u.u.u.u.u.p.u.u.a.:.@.R ~ R ~ R R R R R R / K &.1X7X8XE.V B B z z z z z d w 9 e 7 e t t f f t f ",
"f n m - : z z z g z g c z l z l z l l l E.}.~.1XI.j.p.p.p.p.p.p.p.p.i.f.>.} R ^ R R R R R R R R / K *.7X9X7XU.V B z z M z l g h e e e e e t t t t r n ",
"f n n o d z l z z h g z c c l l z z g z U.6X(.8XI.k.i.i.g.g.g.i.g.g.i.j.>.} ^ ~ R R R ' { R R R / I =.0X7X7XK.z z c B B z g d e e e e e e r t t r t t ",
"t n w d z z z z z c z z l B l g z l d l G.9XXX8X~.k.z.z.z.z.z.z.z.z.g.j.>.@.R ' R R R R  .R R R ~ I 6.0X9X9XS.z B B z l z z : 6 w e r e r r t t t t n ",
"t t 9 B z B M z B z z z l z g h z z z d S.9X9X8X/.k.z.z.z.x.x.x.x.z.z.j.>.#.^ ^ ^ ( ^ ^ ~ R R R ^ Y I.0X9X9X1.V B B B l k , : 3 r e e r r r r y t t f ",
"r = z M M B z z z M z c c z l z c c l b J 7X7X8X).k.x.x.x.x.x.x.x.x.x.j.7.} ^ ' ( ( ^ R ) R R R ~ ! ~.8X7X7X3.M Z B h s , : ; - 4 y r 7 r r t t r t f ",
"* > B V B c B B z z c z B l z z z z g z G 6X7X8X(.Q.n.n.c.c.c.c.c.c.c.b.8.@.^ ^ ) _ ) ) ) R R R ^ ! ^.8X7X1XH M h , ; : : ; O * 3 3 y i t t t t t t t ",
"o l B z z B B z z l z z B z M l z g c z F 9X7XqX(.Q.n.n.n.n.n.v.v.c.v.j.7.@.^ ..X.X.X.X.X.) R ^ ^ ! I.1X7X1XV 6 : ; ; : : : @ . 3 2 4 1 = 1 1 1 1 = - ",
"0 B V z B M M z M B B z B z B l z c g z C 1X7X7X`.R.n.n.v.v.v.v.m.v.m.k.7.@...o.X.X.X.X.X.X.) ^ ~ ] |.|.1X|.O : ; : h l z d d 6 * 6 = - = = - - - - - ",
"z B B B B z B B M z V z B M z M z c z z l 1X7X7X}.R.b.b.b.b.b.m.m.m.m.k.,.@.o.o.X.X.o.X.X.X.X.^ ^ ] 6X9X7XE.O O O d l l l l l g l d 0 6 6 > - % - % w ",
"v C V B C V V B B B B V z z B B z c z z M '.7X7X.XU.M.b.M.b.M.b.m.M.M.l.7.$.X.X.X.X.X.X.X.X.X.o.^ &.7X7X6XU.O @ s V B l z z g l g l g d a a a :   = M ",
"v V V V V V z z B B V B B B M z B z z M l E.qX7X XW.m.M.N.M.N.M.M.N.M.Z.7.$.X...X.X.X.X.X.X._ ) ( *.qX9X7XS.O ; z l z z c g l l g d d a d a s > 6 z M ",
"v B M B B C C V B V B B B B B B B z z z l E.7X7X1XW.N.M.N.M.N.N.N.N.N.Z.7.$.X...O.+.+.+.O.o.) ) ) *.wX8X8XG   e B z c z z z l z l g g a d 0 , , B V k ",
"z z V V V V C V z B B B M z z B B B M z c U.7X9X XW.N.N.N.N.N.B.B.B.B.l.7.%.o.X.X.X.X.X.X._ ) ( ) 6.8XXX4XS w B V B B h z z z z h z h h < , > B M B B ",
"c V Z V Z V B C V C B B B B B B B B z z z P.7X7X6XT.V.B.V.V.V.V.V.V.V.+X7.%.#.#.o.o.X.X.X.X.X.X.) 6.wX8X1XV V B V B B B B M z s s s , , : ; : l V B B ",
"c c V B V Z B V C B B B B B M B B z z B B D.7X7X6XE.V.C.V.C.V.C.C.A.A.+X9.,.5.q.%.X.o.X.X.X.X.X.) !.eX8X|.D V V V V B M z s , , , : , : , : : s V V z ",
"V B V z V C C B C C C B B z B B B z M M B h.7X7X9XT.C.C.C.C.#XC.A.A.A.+X9.,.5.q.%.+.+.o.o.o.....^ 0.wX7X].Z V V V V M h , ; : : : : , : : : ; 9 M V V ",
"c c C c B B C V V B V B V V B B B B B z z J 7X7X7XT.#X#X#X#X#X#X#X#X#X@X>.>.4.4.#.X.X.o.X.X.o.X.^ ^.wX7XE.V V C B 9 : : ; ; ; ; : : : # ; O O : f V C ",
"c C C C C B Z C Z Z V V V V B B B z h 9 ; D 1X7XqXE.+X#X=X=X=X=X&X#X&X+X7.8.4.| o.X.o.o.X.X.O.X.^ _.7X.XL.h h , O O O O ; ; ; ; O : & O : & O O 7 M B ",
"V V C Z V Z Z V V C V B M z z h 9 O O O # x  X7X8X).#X*X=X=X&X&X*X&X*X@X0.4. .%.o.o.o.X.o.X.o.X.[ _.6X[.G.+ O @ O O @ & O O ; ; : O : : O O % X 7 k V ",
"V M h h f r h h , , , , : > > : > O O O O q ].7X8X(.#X*X&X*X*X*X*X*X*X@X9.4.4.| X.+.+.+.+.X.) X.} |.6X6X2.r 7 e > > > e 9 6 , ; ; : B V B h ,   3 r N ",
"9 ; > , : > , , , , , , , : , h h h a d a g ).qXwX).$X*X*X*X*X*X-X*X*X@X7.4.5.| o.O.X.X.....) X.&.1X7X7X3.7 7 w 7 r r r 6 w e 9 6 h V V V V V h 7 7 7 ",
": : , : : , , , r e e 9 , , d z l g l g d d E.7XwX).$X-X*X-X*X-X-X-X-X@X7.@.| ~ X.X.X.X.X.o.X.X.&.6X8X9XF r r r r r t e t e e > e z B B V B B V B r u ",
"9 6 6 e e f t r t r r r t r e e h h d g a a U.7XrX).%X-X-X;X-X;X;X%X;X@X,.$.o.o.X.X.X...o...) _ *.8X7X].S y r r t t t t f r w & l B z B V V B V M h * ",
"9 r r r e r f r r r r r t t f r e e e r a a D.9XqX).%X;X;X;X;X;X;X;X:X%X,.@._ ) O.O.+.+.O...) ) =.8X7XE.r 3 y u f t f n t w & - k z B z z M z M g 7 3 ",
"9 r r r t r f e r r t r t r f r r e w r r a S.6X).I.%X:X:X;X;X:X:X:X:X@X,.$._ o...( ( X.X.( ) ) =.8X7XT.3 2 2 4 i m n n > - & 1 z z z z k z M d 5 5 r ",
"7 f f f f r t f t t t f t h t r r r r 9 7 6 2.9XwX{.%X:X:X>X:X:X:X:X>X%X,.@._ _ X.X._ X.X.X.) ) 6.0X7XP.2 + 2 3 3 4 i y - - % h l z l z c l 0 5 5 6 e ",
"r r y f f t f f f k f t r t f t r f r r 7 8 J 9XqX[.%X:X>X>X>X>X>X>X>X,X,.#._ _ X.X.X.X._ _ X.^ I.qX7XG.2 2 2 2 3 3 w - & % > h l l d z d 8 + 5 5 r r ",
"r r r r h f f f t f t r r r r t r r r r t 5 F 7X7X[.,X>XyXtXtXtXtXtXtX,X>.+._ _ X._ _ _ X._ X.E ~.3X2X6.6 * 2 3 * 3 4 - % % d l d l l a 5 5 5 5 9 t t ",
"d t f t n t n f f t f t f t t r t r r r r & S 7X7X{.,XtXyXyXyXyXyXtXtX,X,.@.) _ _ _ _ _ _ ) ) W ^.8X7X1.l e 5 * 2 2 3 % % 5 d d a d a 7 $ 5 5 $ r t t ",
"t t t f t n n n f t t f f f f t f t t t e o r 1X7X{.'.yXyXyXyXyXiXyXiX5X:.@.) o._ _ _ _ _ O.) / `.8X6XD 8 s 0 6 2 2 * % % a a a a q 5 # $ $ + 5 t t t ",
"f t r t t n f n n n t t n n f t t t f w r o z |.7X|.].iXiXiXiXiXiXiXiX5X:.+.) ) _ _ _ _ _ O.) ! {.8X6XS a a a a 0 2 * X # s s q 5 8 q : $ + . = k t t ",
"t n t t t t n n n n n f n n t t f f t e > , v ].9X|._.iXuXuXuXuXuXiXuX4X:.@.) O._ _ _ ) _ ) ) ! |.8X1Xk g b g a a a 7 + 5 q q q M V C Z l -   w t f t ",
"d t t f n n n n m n n n t t f t t t t r o d M ).9X X_.uXiXuXuXuXuXuXuX4X:.O.) .._ _ _ ) ) ) ) ]  X9X].j j d a a a a a a 8 $ $ v B V V Z V V h f t n t ",
"t n f m n m n n n m n m n f r n t t e 1 % h l E.6X X).iXuXuXuXuXuXuXuX4X:.O.) ) _ _ ) ) ) ) ^ ]  X9XE.l l j g b a a a q # . d V V B V B C C V V m f m ",
"t t m m m m n n m m n m n n n t t t r % 9 g z L.6X X).uXuXuXuXuXuXuXuX5X:.O.) _ _ ` ) _ ) E W &.1X6XU.d l j j a d d q 5 + 6 c c B B B B V V V M r t m ",
"t m m m m m m m m N n m n n n n r 1 & O g g f S.6XXX).uXuXuXuXuXuXuXaX5X;.O.` ` _ _ ) ` ` / W *.6X6XG.x z j j b d a 7 5 5 g z z B B B V B V B z 6 y t ",
"N m n m m m m n m A m m m i w = % % % & M Z C 2.6XXX^.uXuXuXuXuXuXuXuX5X;.) ` ) ) ` ) ) ^ / U =.1X6X1.c z x l j a 7 5 5 a z l z c c c B z B B z 3 6 y ",
"i m A A m m A N N A i t w = = & % %   e Z Z Z 3.XX}.T.uXuXuXuXuXuXuXuX5X;.) ` ^ ` O.) ^ ` W U 6.6X1XG l j l j 0 7 5 $ 0 l l z g g c z z M M z f k B m ",
"4 4 y i A t 6 1 1 = % % % % % % % % ; V Z C Z L.^.(.^.aXaXaXaXaXaXaXaX6X;.~ ^ ^ ` ` ` ` E W I H.(._.2.c j l 7 7 5 5 q g l l g l g z l c z z z 9 B V V ",
"7 3 = 4 1     . % & o X % % % % X X M Z Z h.2XaX6X6XeXeXeXeXeXeXeXeXeX6X;.^ W E ( ( ` ^ U I =.qX_.}.eXW.D a 7 5 $ 0 a d g d g l l g c z l l l e M B B ",
"3 4 4 4 = O 9 z l l d ; , d l B e % C C Z U.9X9X7X7X8X8X0X0XwXwXwXwXeXOX;.~ T ` ` ` E U &._.wX8X8X8X8X7XU.q 5 5 $ a a a d g j l g l z z z z g z z z z ",
". u k u l c z l z z d d h h l z c s V V C H ).6X6X6X6X6X7X6X6X6X7X6X7X_.;.! U W E / ] 6.}.6X6X6X6X6X6X[.G 7 $ $ 8 a a a a d g l a g j j l g l l z z l ",
"l B z M c c c z z z l g a a q h h s s B V 3.]. X X}. X X.X}.|..X_..X_./.;.! I Y Q *.^..X X X XXXXXXXXX'.F 5 o X < a a a a a b g g a g g a g g g l g 9 ",
"v V M z c v z z z z l d d g d a d O : d h.2X<X,X<X<X,X,X,X,X,X,X_.,X,X^.;.! I *.Y._.'.'.'.'.'.'.'.,X|.'.,Xh.V g : < a b a b a a g b a g b a a g 9 : O ",
"v V z k c c z z c l g d g g g d d s a D.3X3X3X3X3X3X3X3X3X3X3X3XqX3X3X.X,.*.~.<X4XqX3X3X3X3X3X3X3X3XqX3X3X4XD.D c > < , s s s a a b a a s s 8 # O : 9 ",
"c V V B B B c z l g g d d g g b a z ,XpXpXaXpXpXpXpXpXpXpXpXpXpXpXpXaXpX0XpXpXaXpXpXpXpXpXaXpXpXpXpXpXpXaXpXaXW.V V d ; ; # < # s a a 8 O O # , l v V ",
"v V C B B B B z g l l h g g a a b h.F.F.F.h.F.h.F.J.D.J.D.D.J.D.D.F.F.D.D.D.J.J.R.h.h.F.D.L.F.F.F.F.J.J.J.J.R.J.1.l g 8 : : # O O # O # X = z C C V v ",
"B V V V B B c z c z h d g d 9 9 8 8 < # : O : : & < g l l g j g a q a g l l z z a < a b b b $ # $ a l l B z B V z d a g g d d s < O O O   ; 9 s r k v ",
"r C D C V c z h h , : : , > : : # ; ; ; ; : : : # O O s g b g a a 8 b g z B l 5 # d l l l l a $ 8 a g g z z z z g a g g l l j j l s O @ . 5 5 7 7 0 7 ",
"7 r r : & : : : : ; : : : : : : : ; > > 7 r e 6 # O O O 8 a a a s a b g g , ; a l l l l l l l l s 9 a g g l z g g g g g l l g g g l e . + 7 5 7 7 7 7 ",
"7 u : O : O : : : ; ; ; O : O O : , e 9 r 7 r 7 9 : @ O O O 8 s s a d s ; 9 l z l l z l l l g l g a s s g g g g b g l l l l z g z z l 7 2 5 5 7 5 0 7 ",
"0 0 < : : : : : ; ; ; ; ; O * 6 s e r e e r r 9 e , O O @ @ @ @ O 9 : , c z l z c l z z l l d l z g g d 9 s g d g l l l z c z z z z z d $ 5 5 5 5 7 7 ",
"a b a a a a ; # ; O O # 6 6 w r 7 r r r r 7 r r 9 6 5 @ X @ X X @ O 9 z z z z z z c l z l j z z g g j l b d < # b b g c z z z z c l z 9 # 5 q q q q q ",
"b a a a a b s : > > , s d t r d f k t t f t t t f t t 6 O @ @ @ O g B B V B V V v v V v v v v v z c v z x z l s g c c c c c c z z z z 0 8 s a q q a q ",
"b b j b b a a < O & e r e r r h t t d t t t r d r r 9 r 5 X @ @ d z l c v z v z c c c z c c z z l l l l l l l l g g c c c c g c c B c a q a a a a a a "
};
