/* XPM */
static char *result[] = {
/* columns rows colors chars-per-pixel */
"75 75 118 2 ",
"   c #23232D",
".  c #262630",
"X  c #2A2A34",
"o  c #2F2F39",
"O  c #2F3039",
"+  c #33333C",
"@  c #2B4E25",
"#  c #2D5326",
"$  c #2D5629",
"%  c #2F5B2B",
"&  c #305328",
"*  c #325D2B",
"=  c #34642E",
"-  c #38662E",
";  c #36692F",
":  c #386A2F",
">  c #356630",
",  c #3A6534",
"<  c #366B32",
"1  c #396D33",
"2  c #3E6D38",
"3  c #377033",
"4  c #3B7335",
"5  c #3D7936",
"6  c #3C7638",
"7  c #3D7B39",
"8  c #416B3D",
"9  c #407C37",
"0  c #41733D",
"q  c #407E39",
"w  c #373741",
"e  c #3B3B44",
"r  c #3F3F48",
"t  c #43434B",
"y  c #474750",
"u  c #474850",
"i  c #4C4C54",
"p  c #4F5058",
"a  c #54545C",
"s  c #58585F",
"d  c #446240",
"f  c #447240",
"g  c #4B7547",
"h  c #457B42",
"j  c #497E41",
"k  c #4D744B",
"l  c #4C7B48",
"z  c #527F4D",
"x  c #5A7357",
"c  c #547C52",
"v  c #587C55",
"b  c #5F755C",
"n  c #5C7D5D",
"m  c #617B5E",
"M  c #5A5A62",
"N  c #65656C",
"B  c #67686F",
"V  c #68686F",
"C  c #6C6C73",
"Z  c #74747B",
"A  c #78787E",
"S  c #3F803A",
"D  c #418237",
"F  c #41833B",
"G  c #44893C",
"H  c #4A8146",
"J  c #498842",
"K  c #4D804A",
"L  c #558252",
"P  c #5E845C",
"I  c #5D8E59",
"U  c #60825F",
"Y  c #658B62",
"T  c #698569",
"R  c #6D8C6C",
"E  c #659063",
"W  c #6F8D70",
"Q  c #728672",
"!  c #748B74",
"~  c #7B8F7C",
"^  c #739473",
"/  c #789A76",
"(  c #779879",
")  c #7D997C",
"_  c #7C7D83",
"`  c #7F8285",
"'  c #818387",
"]  c #85868B",
"[  c #868A8B",
"{  c #89898E",
"}  c #829583",
"|  c #829883",
" . c #869489",
".. c #8B958E",
"X. c #879988",
"o. c #8B9C8D",
"O. c #8C8D91",
"+. c #8E9193",
"@. c #8F9D92",
"#. c #919496",
"$. c #949D97",
"%. c #94959A",
"&. c #969B9A",
"*. c #999C9E",
"=. c #92A096",
"-. c #97A19A",
";. c #99A29C",
":. c #9D9FA3",
">. c #9EA2A3",
",. c #A5A5AA",
"<. c #ABABAE",
"1. c #ACACB0",
"2. c #B3B3B7",
"3. c #BABABE",
"4. c #C0C0C3",
"5. c #D3D3D5",
"6. c #DBDBDD",
"7. c #E8E8E9",
/* pixels */
"3 1 4 & * < * 1 2 6 5 5 1 5 4 < 4 > 5 4 7 F 5 3 < Y ]                     <.i                   e o.4 * % < - > F 3 < 5 3 4 5 < 6 > 1 4 7 7 3 4 9 0 5 ",
"7 - - * ; 4 F F 5 3 5 5 - * 7 5 * 1 4 1 1 G D 7 - m ]                     V +                   r ..- = = 5 3 F q 1 5 5 = = 5 7 * 5 > 5 < F S S F 9 5 ",
"1 5 < 3 5 4 7 7 < 7 4 1 7 * 4 < = = * 4 5 F S < 3 T _                                           y X.- 5 4 4 7 S 5 4 5 2 7 = 1 ; = = * 3 5 G S 7 5 3 < ",
"5 < 4 S ; 7 5 7 5 3 3 7 q > 7 6 5 3 1 3 F 2 7 7 6 Q N                                           a | 1 F < 6 7 7 4 3 : 7 5 7 4 5 5 < 5 3 5 q F 4 S 2 4 ",
"- 4 5 3 9 - < 1 < 3 2 7 < > 4 = 9 3 7 > & - - < 2 X.i                   + Z X                   M ~ 5 5 < - 5 - 7 < 3 6 > > 4 - 5 2 S - # > 4 4 5 5 q ",
"5 4 > 5 = 5 7 3 3 2 > F 5 5 1 5 1 6 < < - q 9 5 1 &.X                   y 2.                    Z R > 7 - 5 6 < 6 2 > F 5 3 4 9 < 6 < < > 6 9 7 4 7 5 ",
"< 9 3 - 5 4 1 6 S ; 5 q F < < * - < * 3 4 7 4 = H O.                    M ,.                  . ] Y 3 4 4 4 4 7 7 < 6 q q 1 < & > < * ; 3 F 5 1 4 4 5 ",
"= < 6 < 3 1 4 4 4 < 3 7 3 > > 1 4 1 < < 3 S 4 - P C                     w i                   o #.v 7 1 3 > 6 3 5 ; 4 7 3 > > 3 4 4 > < 2 7 5 9 5 4 5 ",
"* q 4 7 > 3 F 5 # = 3 7 7 < > - 5 = = < D 7 > 1 } y                                           + *.h 6 7 > < F 7 # * 3 5 5 1 > = 3 ; = 1 S 7 4 7 > < 4 ",
"6 3 < 1 1 * < > 3 : ; 3 < q F 5 7 3 - = 3 G 5 0 *.                                            t :.6 1 3 < % < = < 1 = 5 1 5 F 5 7 1 - - 1 D 3 1 < * 5 ",
"< = = < 6 * & 3 F > - = 1 4 7 < 1 < % 3 > F 6 ~ C                     C ,..                   M Q 2 > 4 3 * @ 7 F < : = 3 < 9 3 < < $ 2 = 5 S > = 2 < ",
"3 > > > > 3 1 3 > 7 = 5 5 < < $ * < < 7 4 = g ;.e                     <.Z                     Z P = > < = q ; < 3 5 = 3 7 < - # = : < 7 5 * 4 3 3 F > ",
"2 5 - - < 3 5 2 3 7 5 < 7 5 * < 3 5 < < G 9 ! C                       3.o                   X ' H < < - < 4 3 2 3 4 5 2 7 4 > = 4 5 3 3 D 5 < 5 < 2 4 ",
"= 3 5 D 4 5 4 1 > 5 1 3 < 7 > - S 2 7 < 9 l ..+                       +                     e  .2 5 3 G 4 5 5 < 2 5 ; 4 2 4 = > 7 > 3 6 5 5 - 3 - 7 5 ",
"; = 2 5 < 3 4 ; < 7 1 3 < % * > 3 q 3 ; , +.M                                               M Q 3 = 1 4 < 3 5 < ; 4 - 1 3 > $ < 1 S 1 > < 4 < 5 = = = ",
"4 4 S 7 5 4 = # 2 1 5 4 5 = 2 1 D q 3 - } Z .                     t M                     . %.z 3 S 5 F 5 5 = # 3 < 4 q 4 3 < > S F < - 4 2 F 3 ; 5 4 ",
"3 3 < 4 5 1 < > < 7 = G 5 3 D 6 1 3 < n {                       X 3.'                     t -.0 9 $ 3 5 4 5 > 1 * 7 * 7 4 5 S 5 2 4 ; ; > 3 3 > 4 7 < ",
"> 3 < 2 < 3 < 6 1 F 5 4 4 < F 9 3 2 v +.w                       a 5.+                     Z ^ 5 - = 1 1 1 3 < 3 5 F F 4 5 < S 7 3 3 = 2 < < 4 5 F > * ",
"* > 5 < 2 1 1 1 5 < > 5 < 1 F < 5 P >.t                         e y                       *.J 5 4 4 9 * 2 1 < 2 7 < 1 < ; 4 q = 5 5 4 < 7 5 ; S F - 7 ",
"7 F 9 * 9 * 6 4 6 < 4 3 < < < = b +.t                                                 . i ~ 3 2 3 6 7 > 4 * 4 1 3 2 3 1 1 > < = = D 5 < 5 = 1 ; 3 1 3 ",
"3 6 7 1 5 4 2 3 4 7 - 3 3 - 2  .] +                         t a                         { g 5 5 4 9 7 3 5 4 4 3 4 4 > 3 5 * = < 4 F D 4 > 2 = 4 9 3 5 ",
"4 7 6 < D F 4 3 # ; < ; 4 k #.C                             4.'                       i $.= 5 < 9 4 6 3 F F 4 6 # < > < 5 # - 7 7 < 6 S 7 4 < < 1 > 5 ",
"7 4 3 4 6 5 : 5 4 3 2 c ~ ] i .                           V <..                     o O.P > 3 q > 9 1 < 4 5 3 7 3 3 < 3 3 6 7 3 < 4 - ; 5 7 4 = q 7 < ",
"7 3 1 3 4 5 7 9 = L ..*.M X                               r +                       s o.9 - < 5 q 6 > 2 4 6 7 F - 5 3 2 4 4 4 > - ; 3 % < 5 < = 4 q q ",
"4 5 3 3 1 8 c / =.O.s X                                                           O [ g 3 3 3 4 4 = 4 = 1 ; 3 5 4 4 > > = * * ; = 3 5 < 3 3 < 5 5 3 1 ",
"! ` ) o.-.#.Z s +                                   i *.X                         A R 2 < 6 < 7 7 4 4 2 5 * : < = < 3 < 4 2 3 ; 5 < 6 < 2 3 < 4 2 9 3 ",
"N N a r                                           i 7.C                         i &.f < < 1 4 5 7 3 5 q ; * < < S 5 5 7 < 2 3 5 F ; 4 ; 4 < < < 4 D 3 ",
"                                                  C V .                       X +.v < < 3 3 > > > 5 < 7 5 - < 7 7 5 5 4 3 < 3 S < % = - < 4 3 > > 3 < ",
"                                                                              C ( * 3 7 3 3 5 < 1 < 1 7 7 4 7 4 < < > 7 4 1 4 3 < * 3 < 5 3 2 5 3 * 3 ",
"                                          X { V                             i &.0 5 D S 6 4 5 5 < 1 4 3 3 % = 4 5 < 4 - 3 - 5 7 5 5 4 7 7 5 5 5 4 F > ",
"                                        t 5.%.X                           i *.l 1 1 1 1 * F 6 5 3 : < 2 5 ; 4 5 5 1 7 3 = 4 ; - < 3 4 2 < = 6 F 6 5 = ",
"                                        . s                             w O.L - 6 7 2 > * 4 5 4 4 4 = = D q 4 7 3 2 5 2 7 < > * 3 < 7 3 4 $ 2 3 3 1 9 ",
"                              . w A M                                 w { T - < 7 4 5 5 > 1 5 4 = < = ; 3 < 5 ; 6 3 = 4 4 3 7 < > 7 5 5 q 1 1 4 5 : > ",
"                              M 6.2.r                               . +.^ 4 = > 5 S F F 7 = 2 3 = - = 4 7 7 7 < 1 3 # - ; 4 < 4 * ; S D F 7 3 $ 1 1 = ",
"                        e .   + a .                               . ' Q 5 3 3 5 2 3 7 7 3 q 4 4 S > - S 2 4 = > 5 < 5 2 3 = 4 4 5 1 1 7 6 7 7 7 2 7 < ",
"                    &.6.2.+                                     e #.Q 3 * : 4 F - 3 5 5 = F 7 6 4 5 - 5 : < 4 3 5 1 q 4 4 = < < D 1 1 5 5 : 4 S 7 2 9 ",
"e O     t ` <.M     s X                                       e +.R F < = 4 < 3 ; > 3 3 4 : 2 > 4 7 > 3 7 S 5 3 D 1 S 7 5 % 3 1 > 4 = < 9 4 4 * = 3 7 ",
"2.B     N O.B e                                             a +.x 4 : 9 5 3 7 6 = ; < < ; : 5 3 3 < 7 6 < = F 3 2 = * 5 4 9 5 7 4 < > < 1 ; : 1 3 4 4 ",
"X .                                                       N ;.d = 3 ; 5 7 9 q 2 ; 4 1 5 5 < S < 1 3 S 5 < - < % 1 * 1 5 - 4 7 5 9 - 5 4 1 4 7 3 5 * 4 ",
"                                                      w ` o.h 6 3 1 3 5 7 4 1 4 2 < 1 < q 5 7 3 < 2 5 = < 6 4 5 3 3 3 5 1 5 5 3 1 4 < 3 4 3 q 7 4 7 1 ",
"                                                  X N #.Y > < < 1 7 ; 7 4 3 > 3 2 > % > < 1 6 S q 3 < 5 < 7 = 4 ; < 6 3 3 7 1 3 1 6 * - % * < 7 q q 5 ",
"                                                r #. .2 2 4 7 4 < 4 < % < ; 5 - = < 3 < 3 < 4 - 3 < 7 7 > = < q 7 < % 7 * 1 1 - 3 * < 2 < < 2 ; 1 * 4 ",
"                                            r Z ..P 2 4 > 5 < > 1 < 3 4 2 < 5 > 3 7 4 3 7 1 5 4 5 5 < 3 2 5 1 3 < < < < 3 2 3 < 3 1 3 5 4 7 < 5 4 ; q ",
"                                        + ` &.R , * * 5 5 3 5 > F 5 1 3 9 3 > 7 > 7 - 1 3 S < 4 0 4 < $ < 5 7 1 < F 7 3 5 1 5 1 6 = 1 < < < S 7 3 1 q ",
"                                  . t Z -.R f > q 1 > 4 3 7 7 3 7 3 < 4 S 1 > 3 < $ 6 5 < = D 5 3 q 5 = 3 4 4 7 4 5 < 4 < F 1 < ; 3 < = 5 1 = 3 7 F 4 ",
"                            . t Z +.o.P 7 S < < 5 5 3 q 7 7 F 3 > 7 - 4 5 4 3 = 4 1 7 7 4 < ; S 5 5 4 1 5 7 9 q 7 < ; 2 < 5 6 5 = 2 3 5 G 5 < 3 7 D 4 ",
"                    . + t C &.&.^ H 6 5 7 4 q 3 2 3 5 4 D 5 - < 2 < < = > 5 F F 6 5 7 F 5 2 7 5 2 5 7 1 4 F 7 = < < 6 < = > 5 < G F < 6 S q 4 3 5 F 3 ",
"  . . . o e e u s Z ` | ` ^ c , 3 7 5 4 5 < 2 7 3 7 6 - 5 7 7 4 5 3 < q 5 > = 4 7 3 7 4 ; 4 = 7 1 3 q q : 1 7 5 5 7 5 - 5 7 3 * 3 5 4 5 5 < 2 < 3 D 2 ",
"] { O.O.%.:.:.$.~ E g f 5 7 3 = 3 7 G 5 7 D 4 3 < 5 5 * 5 7 G < 7 < , 9 D 1 * 3 S S 4 5 9 q < 5 : $ 5 7 < < 5 S q 5 < < 4 5 4 - 1 5 D 5 7 S 5 4 < 4 * ",
"U Y P I K 8 3 1 5 3 5 5 6 5 4 = = S 5 < < 4 4 < 7 4 4 2 3 < 3 4 3 5 q 3 5 : * 4 D 3 < 2 2 > 3 < < 7 1 4 3 < 2 3 < 4 S 5 5 6 4 - * q 7 3 - 3 < > 3 - 3 ",
"5 q 3 < S 7 7 3 4 < 5 ; 1 1 1 1 ; < 4 2 4 5 < F 5 3 3 7 7 3 5 1 5 5 = 5 - 1 1 < 3 6 3 7 4 ; D q 7 2 3 5 7 6 7 3 4 5 4 < 4 3 > 7 < < 3 2 4 5 4 ; F 7 3 ",
"7 * = 5 % 7 5 7 5 ; 3 ; - > 3 5 4 7 S 3 5 6 6 S - * 3 < 7 2 6 3 ; = > = 3 5 ; 5 7 7 5 3 7 < > 4 3 3 = : = 7 3 7 5 < : ; = - 4 S 3 7 7 5 5 4 3 2 5 6 4 ",
"4 > < : 1 5 3 4 4 3 7 2 9 = 2 3 4 5 D ; 1 < 7 1 = - 3 4 9 5 3 5 5 5 3 5 = 5 2 3 S 5 < < < F 4 < 3 - < - < S 4 4 4 4 5 4 5 - 3 4 3 7 F 1 3 > q 6 3 < 1 ",
"5 < 3 < 4 5 5 < 3 - 3 q 6 = 5 5 1 F < 4 1 = 5 5 ; 4 < 7 : 9 = 4 < 1 7 , 1 5 7 4 7 4 < 2 ; 4 7 5 6 > 3 2 4 5 4 < < < 3 5 3 > 1 7 4 S 1 3 4 = 2 9 5 3 < ",
"5 F 7 F = 2 = 7 5 < 1 3 1 : < 3 q < 1 3 1 4 1 9 S 5 5 < < 2 S < 2 4 < < < 3 7 4 < 3 < ; 3 = - 5 S 9 7 5 ; 3 - F 7 > 2 3 3 - 1 1 7 < 3 < 4 4 $ 4 1 F 5 ",
"4 3 < 5 F 7 5 4 < < 3 3 1 3 * < 1 3 3 5 3 5 5 1 3 3 7 7 7 3 4 < ; 5 3 < < * = 3 3 4 S 3 5 4 3 1 3 3 1 7 F 4 5 4 < < ; 4 < 3 = < > 5 < 5 3 5 6 1 1 < 5 ",
"3 < 7 3 F 3 3 2 7 2 4 4 7 7 4 > 4 5 4 G 4 > q - 2 7 6 q < 1 3 7 < 5 4 q 0 3 * q 5 5 5 7 1 F 4 5 5 5 q 2 F 5 < 3 7 3 1 5 q 6 3 6 < 5 3 q 5 < F 9 4 G 5 ",
"4 4 1 F 5 ; 5 7 5 4 ; 5 5 4 7 1 < < 4 4 < q 1 < 4 5 q 3 < 7 9 7 3 < 7 3 4 9 > 5 - 4 1 1 5 < 4 1 5 < 3 F 4 : 3 S 7 4 < 4 3 5 5 6 < - 5 5 > 9 = 5 < 6 1 ",
"5 * - 4 9 > 4 5 7 7 3 = 6 S 3 7 < < 7 * 5 q * * = 3 7 > < 5 < 3 < < 9 9 3 5 4 5 < ; < 4 3 * 7 3 5 * < 4 5 : 5 4 6 > # 5 5 1 < 2 3 ; : 1 3 3 4 9 1 9 < ",
"1 7 < 4 - 5 % < - 5 < $ < - < 1 6 7 : = = q 3 1 : 3 F 7 < 4 ; = = < 3 4 2 7 9 3 1 1 1 < 2 4 4 = * = 3 5 3 5 3 < > 2 3 1 4 = 5 - * = = 3 4 4 7 > > 1 > ",
"4 7 3 9 4 2 < = > F 7 < = < % 2 S S G < ; = F 3 % < < 3 5 4 ; 3 7 3 3 = 5 4 7 4 < - 3 5 < 4 q 4 3 3 1 5 2 5 ; * 6 q 7 3 7 - 5 4 2 4 5 < 3 4 4 = > < F ",
"5 * * > > 5 < - < 9 4 < 4 5 % = 2 < 1 ; - < < q - 3 5 * 3 = 5 = 4 5 - - # S 4 5 9 1 < 2 F 7 * q 9 9 : > = = < 1 7 3 3 < q 7 3 < F 4 5 ; $ - < = 4 3 9 ",
"3 > q q < 5 F 3 5 1 < 7 7 1 3 5 5 5 < < 3 3 3 3 = 4 3 5 5 2 - 7 6 < 5 1 5 3 < 4 4 * 3 7 3 1 > 4 4 5 1 - 7 5 3 ; 9 5 < 4 2 3 < < 5 5 5 < 1 F 5 - 3 0 4 ",
"9 7 < 5 7 F S 7 5 4 > 5 < 3 < 4 G 3 5 2 3 > 5 3 ; 3 4 2 < % > < 3 % 1 7 5 5 5 5 1 3 < > < 2 > > 1 5 < > 1 7 6 2 4 6 < < < 1 < < < 1 5 < 4 < S 2 3 < 7 ",
"5 5 4 1 1 < 5 3 2 ; ; = 4 3 1 5 = 7 < 4 - 1 < < > 4 4 7 < 3 7 7 ; * 3 7 7 = 1 3 6 - < 7 4 < 6 5 < 6 7 ; 7 3 3 3 3 > 4 2 4 4 3 4 4 4 5 4 5 5 < 1 5 1 > ",
"6 1 7 1 3 2 - < = 1 = 5 7 7 7 < 5 S < < 5 < 3 7 4 = 9 4 4 3 3 1 3 5 : 1 3 = * 1 2 3 < G 5 > 1 6 S 4 < ; 4 ; > < 1 5 < 4 S 6 < 2 5 5 4 1 - q * < < 3 5 ",
"3 9 1 5 1 3 7 4 @ 3 F = 3 = < 3 < < 5 6 3 # 4 = < * D 7 > 1 5 7 4 = 4 4 G 4 = 5 > 5 > > 5 5 = 5 6 4 4 7 4 3 5 1 7 7 7 * 3 3 5 3 7 5 3 4 7 < 4 4 3 J 5 ",
"< F q 7 < 3 5 4 6 > 4 4 3 2 > # < 6 < 4 3 3 5 S 5 3 3 6 7 5 4 7 < 3 < 3 4 3 * 5 < 7 3 3 7 D > 5 7 2 3 7 4 > 7 5 3 7 5 3 3 F 7 - S 5 < 4 7 6 3 7 3 5 5 ",
"* S 7 7 ; 7 2 4 S 1 # 2 5 4 4 = < < 1 9 2 1 < 7 1 < < 1 5 * 3 3 5 7 * 5 7 q < 6 < < 5 3 5 7 9 7 7 4 q 3 3 5 > 5 2 5 1 7 F ; 5 S 5 5 3 7 5 < 5 = 5 < 9 ",
"< 4 4 7 ; 5 4 < 3 = * 3 3 5 ; 5 < 4 < * 4 F 7 5 < * = - 5 = 1 q < 7 2 3 7 < < 3 4 = 3 7 4 5 F 3 < < 7 7 q 5 1 5 4 > ; 4 4 4 S 5 3 2 < 5 S 7 1 5 7 6 = ",
"= = 5 = 5 = 7 4 = < 6 > < 4 1 5 5 < 1 5 5 D 4 6 : 5 = 5 6 3 5 F < 7 < : 5 ; > 3 < < 3 4 1 9 3 - = 3 q * 1 3 - F F 9 - 5 3 : 5 2 = = 5 5 * 3 < 4 q F 4 ",
"& $ 3 S 4 5 ; > 7 < ; - - F 7 q 3 2 ; = 1 2 4 3 < 5 q q 7 3 5 2 < 3 F 4 5 7 F = 5 5 1 $ > 5 2 q q 7 < 5 < < F 4 4 F 3 < * 4 3 F 5 4 G 1 1 ; 7 5 3 5 9 ",
"5 - < 4 5 < 3 6 5 < = > < 5 1 q < 2 5 7 6 5 4 < 1 6 7 2 < 3 < = - - < > > 4 9 4 3 5 < = 4 6 5 9 5 3 2 = - 3 7 1 7 < 4 < 3 < 7 q 5 3 4 < - ; 3 7 4 3 3 ",
"1 - 4 < 4 4 9 < 9 2 = > 4 3 * 5 3 3 > q 5 7 4 3 3 7 > = * - 4 < : : < 5 6 3 = < < 3 2 > q 3 * < > 5 F * = < F 3 < 4 S < 4 3 3 = > 2 7 5 * = 5 5 3 4 4 ",
"3 7 3 5 - 4 < - * 7 < 3 2 = > 3 3 > * 5 2 3 5 7 4 9 1 > > 5 5 3 3 6 3 7 4 1 = - < 5 > 3 1 2 5 q < 3 4 7 5 5 9 3 1 3 2 = 1 2 4 5 5 5 > 7 5 2 5 5 5 > 5 "
};
