/* XPM */
static char *result[] = {
/* columns rows colors chars-per-pixel */
"75 75 118 2 ",
"   c #23232D",
".  c #262630",
"X  c #2A2A34",
"o  c #2F2F39",
"O  c #2F3039",
"+  c #33333C",
"@  c #2B4E25",
"#  c #2D5326",
"$  c #2D5629",
"%  c #2F5B2B",
"&  c #305328",
"*  c #325D2B",
"=  c #34642E",
"-  c #38662E",
";  c #36692F",
":  c #386A2F",
">  c #356630",
",  c #3A6534",
"<  c #366B32",
"1  c #396D33",
"2  c #3E6D38",
"3  c #377033",
"4  c #3B7335",
"5  c #3D7936",
"6  c #3C7638",
"7  c #3D7B39",
"8  c #416B3D",
"9  c #407C37",
"0  c #41733D",
"q  c #407E39",
"w  c #373741",
"e  c #3B3B44",
"r  c #3F3F48",
"t  c #43434B",
"y  c #474750",
"u  c #474850",
"i  c #4C4C54",
"p  c #4F5058",
"a  c #54545C",
"s  c #58585F",
"d  c #446240",
"f  c #447240",
"g  c #4B7547",
"h  c #457B42",
"j  c #497E41",
"k  c #4D744B",
"l  c #4C7B48",
"z  c #527F4D",
"x  c #5A7357",
"c  c #547C52",
"v  c #587C55",
"b  c #5F755C",
"n  c #5C7D5D",
"m  c #617B5E",
"M  c #5A5A62",
"N  c #65656C",
"B  c #67686F",
"V  c #68686F",
"C  c #6C6C73",
"Z  c #74747B",
"A  c #78787E",
"S  c #3F803A",
"D  c #418237",
"F  c #41833B",
"G  c #44893C",
"H  c #4A8146",
"J  c #498842",
"K  c #4D804A",
"L  c #558252",
"P  c #5E845C",
"I  c #5D8E59",
"U  c #60825F",
"Y  c #658B62",
"T  c #698569",
"R  c #6D8C6C",
"E  c #659063",
"W  c #6F8D70",
"Q  c #728672",
"!  c #748B74",
"~  c #7B8F7C",
"^  c #739473",
"/  c #789A76",
"(  c #779879",
")  c #7D997C",
"_  c #7C7D83",
"`  c #7F8285",
"'  c #818387",
"]  c #85868B",
"[  c #868A8B",
"{  c #89898E",
"}  c #829583",
"|  c #829883",
" . c #869489",
".. c #8B958E",
"X. c #879988",
"o. c #8B9C8D",
"O. c #8C8D91",
"+. c #8E9193",
"@. c #8F9D92",
"#. c #919496",
"$. c #949D97",
"%. c #94959A",
"&. c #969B9A",
"*. c #999C9E",
"=. c #92A096",
"-. c #97A19A",
";. c #99A29C",
":. c #9D9FA3",
">. c #9EA2A3",
",. c #A5A5AA",
"<. c #ABABAE",
"1. c #ACACB0",
"2. c #B3B3B7",
"3. c #BABABE",
"4. c #C0C0C3",
"5. c #D3D3D5",
"6. c #DBDBDD",
"7. c #E8E8E9",
/* pixels */
"6 5 < 5 7 7 9 9 6 5 : < 4 5 = 5 ; * 7 4 5 4 > F > 3 4 1 3 = = 7 = = 1 7 6 4 6 1 5 4 7 F 6 6 1 1 * 6 1 3 3 1 4 5 9 < > < F 6 5 7 > 6 5 7 D = 4 7 4 6 4 ",
"5 5 3 1 5 7 1 3 < * 4 F 1 9 = 4 7 = = 1 6 = 7 q 6 7 F 4 * F 5 > : 4 7 6 4 4 % 6 F % 1 > 7 F F F 5 = 5 6 > 3 G 1 F 5 7 1 < 4 5 < 1 4 S 7 : 6 F 7 3 4 = ",
"9 G 5 q 7 4 3 7 = < = 3 1 = = > 6 S F 3 7 1 9 4 3 4 5 = 3 4 6 2 5 3 1 7 = 5 7 6 F : 5 4 5 7 7 3 1 1 F 5 4 6 1 1 4 < 1 > = 5 1 1 6 ; 3 6 6 5 7 6 4 3 4 ",
"1 S 7 5 6 S < 5 7 < , 3 5 4 5 1 > 5 S ; 4 : = * 5 6 > > 7 5 7 4 4 & 9 7 & 1 < 5 q ; 4 7 3 1 4 1 4 > ; 1 5 7 3 1 9 5 9 > = = , 1 4 > 6 7 = 5 3 5 9 5 9 ",
"2 S S F 4 9 6 5 3 4 S 6 < > < q 3 6 ; 1 * > 5 1 < 1 1 3 1 5 5 1 > 4 5 4 4 1 F 9 1 3 > 7 = ; 6 1 6 1 4 3 q 1 % 5 F = 3 7 4 ; 5 7 1 * 6 3 7 1 > q 4 5 5 ",
"7 G G q > 5 F 9 9 D 5 * 9 5 6 1 4 1 5 = 2 5 7 5 3 3 > 6 4 7 = * 3 7 7 ; 4 = 4 3 * 1 7 1 3 6 S < q 3 5 4 > ; 4 5 1 9 4 4 6 = F > 5 7 1 3 : 9 4 ; : = 4 ",
"7 > 5 5 @ = 3 3 F < = 7 F 5 < 5 > 1 7 4 > S 5 < 1 1 6 ; 6 S ; 4 q F 5 9 9 1 1 1 % 3 4 1 7 F 7 5 7 = 4 5 3 4 4 3 5 > 4 4 1 * 1 5 5 ; 7 5 5 S * : = * 5 ",
"5 4 1 4 , < : 1 1 = > 7 1 6 , = > 3 1 : 4 S - % 1 1 ; = > 7 1 4 5 D 7 6 : < 5 3 = 1 5 3 ; 4 5 6 7 3 3 4 1 4 : 7 q 5 < 3 > 1 1 > 4 : 6 6 7 7 5 1 1 5 7 ",
"1 > % 5 q 1 * > = < % : 3 3 1 1 > > 4 4 F 5 - 3 5 6 5 > 3 6 6 6 5 S 1 1 = ; 4 1 * 1 3 < > 4 > 5 S 7 6 S G < 4 > 3 5 < * 9 5 5 9 4 5 3 ; 6 > 5 G 4 7 = ",
"= 6 = 1 < 6 1 4 = 1 , - 6 ; S q 5 1 5 F F > 4 < 6 > = % % 5 3 1 9 > 4 1 6 > * 4 6 % 1 > 3 3 F 7 7 F > 7 7 S > 5 5 = > - 6 4 4 1 6 6 4 5 7 3 = 4 4 3 4 ",
"5 % = 5 7 1 > 4 3 7 < = 5 7 1 S 1 1 5 * 5 7 > = = 5 G > 1 4 > 6 = = 5 9 ; 6 9 4 < 4 4 6 > = G 1 1 * > 1 1 6 7 = 1 > 4 * 4 G 5 : 6 7 7 S 5 3 = 5 6 , 7 ",
"< S ; 6 , 7 $ 1 = 5 5 # = > 1 = 5 5 = = > S 6 = ; ; 7 7 3 7 > * > 4 6 : 1 9 9 3 4 > > 1 1 5 , * = ; 7 7 4 5 1 > 4 6 1 < 6 > 1 - 6 < 4 > F 5 1 F 7 = 5 ",
"6 5 < 6 3 4 1 > > F 7 = = > $ > S S S ; = = 7 6 * < 3 4 3 5 : = 7 < 3 = 6 6 7 4 < < 4 6 1 6 5 4 6 6 ; 4 1 1 3 = 4 5 > 4 5 3 > 3 < < 4 7 9 q 5 3 5 3 6 ",
"6 = = 7 = 4 < = 1 5 ; , 4 6 > 3 4 < 5 1 = $ 4 3 = 1 1 > 1 = 5 : 3 6 = = % 5 4 5 q : 1 1 F 5 = 7 5 5 3 = = > = 4 6 6 4 > = 7 4 1 4 4 < G ; 4 : 3 1 4 1 ",
"1 * 7 5 = 5 S 6 5 3 4 7 9 3 6 4 4 5 ; 1 5 6 3 6 = 5 1 4 5 1 = 7 6 : 4 4 5 4 = 3 3 * 1 6 > 1 = 5 4 4 4 = 7 4 3 : q 4 7 4 7 7 1 < 6 G < 4 q 5 3 * 1 5 > ",
"9 D 3 7 6 F 7 6 5 5 = 4 1 3 1 q S 4 > < 3 ; 4 < > > 5 6 q = 3 1 4 = 1 5 q 5 5 5 4 5 1 1 6 4 < > > 7 : = 4 7 4 4 5 6 6 1 3 < 6 1 3 6 % 1 5 6 6 1 1 > = ",
"3 5 5 ; 4 > 6 6 4 = > = 5 ; = 4 * S 4 4 = ; < 3 = 3 5 5 > 4 7 5 = # 5 q 7 % 1 4 4 % 1 7 1 ; 5 7 3 7 4 : 7 4 3 : 3 ; $ 1 5 4 > > 1 < 5 5 1 > - 4 6 7 4 ",
"3 1 4 1 1 < ; : * 1 1 5 6 6 5 1 7 S > 1 6 > 6 6 6 ; 5 6 1 : 3 1 1 4 < 3 3 = % 1 < < > F 7 > 1 5 9 4 5 1 6 > > > < 5 1 < 7 4 6 7 = 5 q 9 5 ; 5 F 1 6 1 ",
"q q 4 5 7 6 7 5 # > q 4 4 < > 1 = 6 7 4 3 # 3 = 6 = F 7 < 4 4 5 6 1 5 5 G 1 1 4 < 7 < 1 6 5 = 5 F 1 4 5 4 > 7 : 7 7 6 > 5 9 q 4 5 1 7 3 3 4 F 4 7 > 1 ",
"- F F 7 ; 1 6 4 7 > 9 < 1 > 1 # < 6 1 3 4 5 5 F 5 1 > 6 6 6 5 5 ; = = 3 3 3 % 5 6 7 4 1 7 S = 5 q 3 4 7 4 > S 6 4 7 6 > * 3 : 3 3 ; 1 6 5 5 F 6 4 3 4 ",
"= 3 7 6 4 5 3 6 F > # < 4 5 5 = = < < 4 1 4 3 q 4 > 1 ; 7 = 4 5 7 q = 6 7 7 1 4 = > 3 7 4 q F 9 6 3 7 3 6 4 = 7 1 1 7 1 > : 1 4 3 > 5 7 > 1 = F 7 F 9 ",
"3 5 6 5 ; 5 6 = 1 * * q 4 5 1 5 7 3 1 * 4 F 6 6 ; * = = 4 * = q < 7 5 ; 7 = = 5 7 = 6 7 1 9 7 1 1 > 5 5 S 5 1 5 6 1 1 7 5 = 6 7 1 = 3 > 5 5 6 : 4 > 5 ",
"* = 6 ; 1 > 4 4 > > 6 = = 5 ; 7 2 1 1 4 6 F 6 6 1 5 > 7 5 < 7 F 4 6 1 - 7 1 1 < < > 3 3 3 9 6 > > 4 7 = : 5 - q 7 5 5 1 1 = q 1 7 6 4 6 3 9 1 ; > = 4 ",
"* = 6 G 5 6 4 < 5 3 5 > = F 5 F 5 1 = - 3 4 1 3 > 4 7 7 7 4 < = > 4 F 9 6 6 6 = 5 9 3 $ = 3 1 F 5 6 5 ; = 3 5 7 3 F 4 4 5 > > > 3 = 5 5 4 7 * 6 = * 7 ",
"4 = > 1 5 > 1 7 7 < * , : 4 < 7 4 1 7 7 6 5 < > 4 4 5 > 1 3 1 = = = , = ; 5 F 5 1 6 1 > 6 6 5 9 7 < 1 = 1 6 6 1 F 1 - 4 < : 1 > 5 1 6 3 7 7 D 1 < F 5 ",
"o...X.| ! ! Y L h 5 < > 1 5 = q * * 4 4 5 4 0 5 = 5 4 5 ; 1 : 5 3 = > 7 7 > 1 1 4 1 5 4 7 7 6 4 % 7 1 4 = > 5 4 5 > = = 5 5 5 9 6 4 4 1 5 > 3 7 4 7 1 ",
"r r t a M Z [ #.*.>.! P K 4 3 1 9 = 3 4 4 9 < F 4 9 7 > 1 1 3 4 = = q 4 4 3 < 1 D 3 3 5 3 5 1 1 > 1 5 3 3 6 F 4 5 5 5 * 4 q 4 1 1 S 6 7 S 1 * 7 6 > : ",
"              X + t M Z '  .Q c f 5 9 1 9 < q 4 1 7 5 > > 7 6 1 3 4 4 5 , 4 3 3 F = 4 3 7 F 6 7 6 > D 4 1 4 7 < 7 3 3 * 4 q 5 = 6 5 5 5 7 6 = S q > 7 ",
"                        X e M *.&.^ J 3 5 9 1 < 3 1 6 > 7 5 6 5 5 1 4 5 1 9 S 5 5 4 5 1 G 1 5 = 1 5 F > 6 7 = < 5 4 7 4 7 = = > 6 > > ; D S 4 3 5 * 5 ",
"                                t Z :.~ g * < > 1 5 > 4 4 6 F 4 1 > 7 F : = < 5 1 , 1 S % < < 4 7 = = 4 D 4 = 4 F > * 6 6 6 < < 1 < 5 S 7 5 5 6 6 4 4 ",
"                                      i O.@.P 6 4 > 1 4 < 6 * * > 7 4 = 5 > 5 7 > 4 7 3 > 5 5 > 5 3 6 6 1 - 3 5 4 4 6 1 > G < 4 4 6 4 9 5 3 < , 4 q > ",
"                                          i O.@.g 1 < < 7 S 1 = 4 G 6 9 1 > q < = : 3 1 7 5 G 6 5 3 5 4 < 3 ; 4 7 1 6 > 7 1 6 > 5 G = 3 6 7 4 $ > = 6 ",
"                                            O s [ Q 0 , 1 F < 4 7 q 5 5 1 < 1 1 = 4 6 = 6 7 7 5 5 3 4 5 ; 1 1 7 7 3 - 3 4 < 3 1 < 1 > 6 6 3 4 3 1 1 > ",
"                                                O A &.L * 5 < 5 4 9 6 3 ; ; 5 > > > 5 7 % 1 4 1 S 3 6 7 6 4 3 4 4 4 : 1 = 4 * 4 > 3 6 7 > = > 5 6 4 5 ",
"                                                    i +.( 0 4 5 q 6 1 = > = > 4 < > 1 * 1 4 6 S S S > S F 9 > 1 5 = 1 1 1 5 1 : 6 1 = < : 6 1 5 4 1 > ",
"                                                      X C $.l , 1 > 5 F 4 4 3 6 4 ; , 5 4 = S 6 6 4 > 5 3 5 6 1 9 4 5 3 5 5 4 5 4 1 5 5 5 3 < > 6 3 = ",
"i +     X                                                 p *.L = = 4 4 1 6 F 1 > 5 5 > > 4 F = * % 1 > 4 7 5 = * > 4 D 7 5 < 5 3 * = = 3 > > F 5 = = ",
"<.V     Z 2.,.i                                             i { T 4 3 1 4 4 q 3 3 = < 4 1 3 5 > : 1 1 5 6 5 3 = 6 5 5 5 4 7 1 5 * = 1 3 F > > 7 4 1 > ",
"        o y M e     ,.Z o                                   . + { W 3 * = 7 7 7 4 1 < 9 F 5 > 6 S 5 ; 3 = 1 < 1 7 4 3 1 6 % 9 5 7 5 F 5 7 7 7 5 = 7 4 ",
"                    C <.3.+                                     + #.Q 3 ; 9 5 5 7 % 6 1 5 6 * F 5 4 5 * 5 > < - 9 6 5 4 = = 1 7 5 3 4 3 5 3 - 4 ; 5 7 ",
"                              M ' +                             . X ' R F 1 = 4 = 1 1 1 < > < > ; S = = 6 S 3 3 4 6 7 4 4 = 6 1 3 : 5 = * 1 < G 1 > 4 ",
"                              t 3.5.u                               X #.E 2 3 3 q 6 1 6 3 6 1 4 > 6 5 ; 6 1 6 3 5 1 < < 2 5 : * * 5 > 1 5 7 6 4 = - 6 ",
"                                . a e                                 e +.x = 1 < < 1 S 5 = 4 5 7 6 5 : 6 ; 1 1 1 1 > = 7 3 5 1 ; 1 4 3 6 > 3 > = 1 4 ",
"                                        a '                             r O.d 5 > 3 > ; 4 4 > 6 : 6 : 4 6 4 > 1 6 7 4 * 6 ; 6 > 5 1 7 5 4 q F 4 = 3 1 ",
"                                        t 4.1.+                           a -.q 3 7 1 6 7 G = 9 S 3 6 6 4 * 7 6 4 5 3 > ; 6 = ; 5 4 5 4 4 1 7 6 > 4 5 ",
"                                            V r                             N @.> 4 7 3 6 7 4 7 S 1 4 4 6 9 4 4 1 5 5 6 6 = 3 % 6 < 1 4 * > 3 1 3 - 9 ",
"                                                  X                           ` Y 3 < 6 3 5 F 5 5 3 7 7 9 ; 1 7 1 ; < 1 5 3 5 1 3 4 > 5 7 6 5 7 1 * = ",
"                                                  *.V X                       w +.8 4 7 4 q 6 = = 3 7 1 5 7 > 7 q 3 = 5 3 * 6 1 6 5 5 5 3 = 5 7 1 = > ",
"{ ] _ N i X                                       i 7.V                         N  .2 * > 4 6 4 6 6 3 : 1 1 5 7 6 9 9 G > 5 1 5 4 7 S : 1 = = 7 7 > 3 ",
"Y m T Q X.&.+.C y X                                 p C                         X #.P > 1 6 4 9 6 3 : = ; 3 5 4 7 4 3 4 > 4 4 3 4 * = 3 : % 5 4 5 7 5 ",
", = 4 5 3 1 q U } ;.C e                                                           r  ., q 6 1 4 1 7 7 = = ; F 3 3 5 = - % > = > > 6 1 5 3 1 3 1 1 1 4 ",
"3 7 < 5 1 0 - = : 0 ~ ;.C o                               N X                       Z R > 1 4 7 1 < F F 3 5 5 3 = < * : 3 7 4 5 1 7 = 7 7 6 4 3 > 4 7 ",
"4 F 9 q < 9 6 3 , 6 7 g ! ..M X                           { %.                      t &.8 < q 1 4 3 1 4 6 5 3 5 q 1 * 3 S < 4 6 < 4 4 5 1 7 4 4 4 5 5 ",
"F G G 1 = q 7 q 5 G S = q l ..Z                           X 5.s                       _ R F 5 > F 4 5 6 < = 5 5 = D 7 S = = 4 > 1 ; # 1 1 q G 1 5 6 4 ",
"5 1 5 F * = 4 4 G 3 = 3 F 5 8 } { +                         t X                       + -.7 7 5 7 : 6 5 1 1 3 3 7 > 6 = : > 3 3 > 6 4 1 < 6 5 1 7 5 4 ",
"5 < 3 4 = < 1 : : = 1 7 1 1 ; - P +.t                                                   Z P 7 4 5 1 1 3 ; 4 < 7 G 5 * = 1 > 1 < 5 > 6 4 7 * 5 = 6 q 5 ",
"5 4 * 3 5 1 * 1 = > * : 3 5 6 1 1 v ,.t                         a t                     t o.6 6 G 6 6 S S < 1 1 4 2 7 > G 1 > 5 > 3 6 1 3 : 4 ; 6 > * ",
", 3 = 3 3 6 > 3 = 4 ; = 5 > 7 7 4 1 n +.+                       A 2.                    . #.H 7 7 F ; 7 7 F > 4 5 ; 1 q G > 5 5 7 G 1 6 : 4 > 1 > 4 = ",
"4 % = 5 7 1 > 6 4 7 4 * 6 S 6 S < 1 6 m '                       w 6.a                     C / 1 3 = = 4 5 : 7 3 4 3 > 6 G 4 5 F = 7 > > 1 > 5 6 1 4 4 ",
"1 5 > 5 = 6 % 1 = 5 1 $ : ; > : 6 9 < *  .V                       M e                     u $., = = 3 6 6 7 4 > > > S 1 < = 5 4 6 < 4 # = 4 5 S S 6 4 ",
"4 7 6 7 4 4 > > > F S 1 = ; % < G F F < 8 #.i                                               %.L 3 4 : 4 4 5 1 * 5 7 6 > * % 1 1 1 9 1 > 5 > 3 7 1 * ; ",
"5 % * > > 7 1 > ; 9 4 > 6 5 * > 4 > 1 > = k ] X                     X +                     V ^ 9 5 : > = = > 1 5 6 S = > 7 < 1 1 6 > < 6 5 5 S 6 6 = ",
"3 = 7 F > 5 S 4 5 1 3 6 5 1 3 5 5 4 > < 3 5 ~ M                     e 2.                    t | 5 7 4 = 7 6 3 : 7 5 4 ; > 6 7 < 4 9 4 1 5 3 > ; > 4 1 ",
"5 5 1 5 5 F S 5 7 6 = 6 < 3 1 6 G 4 9 1 4 > c *.X                     6.o                   + [ 0 7 > ; 1 7 4 1 4 5 = $ > < 7 6 = 7 = 4 1 4 > > > = 6 ",
"5 5 5 1 1 > 5 4 1 ; ; = 4 1 1 6 = S > 5 = 1 4  .M                     %.M                   . ` k 5 5 : 7 3 3 3 5 > 4 1 7 4 1 = = > F 4 $ * 6 ; = = 1 ",
"6 1 5 3 4 1 = > = 3 > 7 q 7 7 < 6 S 3 > 5 ; 4 L O.                                            C Y 4 3 ; 6 = > : 1 6 7 6 F 9 3 6 : 3 3 = < * 1 1 > 2 5 ",
"4 5 1 5 4 < F 4 @ < G = 4 > > 4 : : 5 6 3 # 6 = =.+                                           M ~ 6 4 6 6 3 5 3 7 9 5 > > ; 5 7 1 = @ 5 S 4 = 7 4 9 * ",
"< F q 5 > 1 5 4 5 = 2 3 1 < > $ > 6 1 4 3 3 5 S / a                     M w                   y =.1 4 5 4 ; 7 6 1 6 5 1 > , 6 5 6 ; 3 4 6 1 6 > 5 1 = ",
"* S 7 7 : S 3 6 S 1 $ 1 5 6 4 = < < 1 5 1 4 1 7 v Z                     1.C                   e :.4 7 3 3 5 ; 5 1 5 3 * 1 1 F F 5 > S 5 < 4 7 = 4 5 > ",
"> 4 5 7 : 6 3 1 4 * % 6 1 5 : 5 > 4 1 * 4 F 6 6 8 O.                    _ O.                  w *.0 7 5 7 5 1 5 4 = : 5 3 5 4 F > 1 3 3 7 5 = 7 > 4 5 ",
"= = 6 = 5 = 7 6 = 1 6 > ; 6 1 5 6 < 4 5 9 G 4 6 3 ;.X                   r N                   o #.z 7 = 1 6 = F F 9 9 = 4 = > 7 1 4 1 : ; : 5 3 5 4 = ",
"$ % 4 7 4 5 ; = 7 1 ; > = D 7 q 5 < > = 1 1 2 3 1 o.r                                         X O.I 1 6 ; 1 9 6 4 q 5 6 7 ; 7 5 1 3 5 7 5 7 = F 5 > 5 ",
"4 = 1 6 4 > 4 6 5 1 > > ; 5 1 S 1 > 5 7 6 5 4 > 1 ` p                                         . O.P < > > 6 5 1 5 1 ; > 4 = 5 1 5 5 1 7 7 5 4 1 1 5 1 ",
"1 - 5 ; 5 4 5 < 9 1 * > 2 4 * 6 4 4 > q 5 6 5 3 5 / N                   + N .                   [ Y q * = > F 3 1 4 = 7 7 * = 5 5 1 6 F q 5 > % > > 7 ",
"3 7 1 5 = 5 ; - * 7 < 4 1 > > 4 4 > * 7 1 4 5 5 6 ^ V                   r 2.X                   ] Y 6 7 4 7 q 1 4 3 5 > 6 5 3 6 6 6 5 < * < * # 5 1 1 "
};
