/* XPM */
static char *_ceb3731ae934a409ad2a3fac5e60239C8e5rrnhE0tqIyus[] = {
/* columns rows colors chars-per-pixel */
"75 75 215 2 ",
"   c #030303",
".  c #090807",
"X  c #080708",
"o  c #070908",
"O  c #0B0B0B",
"+  c #080706",
"@  c #100F0D",
"#  c #0C100F",
"$  c #13100F",
"%  c #0E1311",
"&  c #131412",
"*  c #191614",
"=  c #131916",
"-  c #1D1A16",
";  c #161D1A",
":  c #1D1D1C",
">  c #211D19",
",  c #19211E",
"<  c #15211B",
"1  c #0C3619",
"2  c #11391D",
"3  c #25201C",
"4  c #2A241F",
"5  c #1B2622",
"6  c #1C2B24",
"7  c #1F2D28",
"8  c #162B24",
"9  c #0E3424",
"0  c #0F3A20",
"q  c #133C24",
"w  c #113728",
"e  c #1D322A",
"r  c #153D2D",
"t  c #1C3C2D",
"y  c #103626",
"u  c #1D3D30",
"i  c #2B2621",
"p  c #2D2822",
"a  c #232D29",
"s  c #2C2C2C",
"d  c #242725",
"f  c #322C26",
"g  c #342F29",
"h  c #23332D",
"j  c #223A2D",
"k  c #3B342C",
"l  c #373029",
"z  c #213E32",
"x  c #293B33",
"c  c #2B3934",
"v  c #373836",
"b  c #443B33",
"n  c #483F35",
"m  c #40382F",
"M  c #144225",
"N  c #17452A",
"B  c #1C432C",
"V  c #1B4B2D",
"C  c #194327",
"Z  c #174030",
"A  c #1A4333",
"S  c #1E4836",
"D  c #1F4939",
"F  c #1F4738",
"G  c #1E5030",
"H  c #21452C",
"J  c #234B2D",
"K  c #26512E",
"L  c #244435",
"P  c #244C35",
"I  c #294B36",
"U  c #244639",
"Y  c #2D433B",
"T  c #244C3B",
"R  c #2A4C3C",
"E  c #2C4336",
"W  c #32453D",
"Q  c #245133",
"!  c #295434",
"~  c #27513A",
"^  c #2A553C",
"/  c #2C5A3E",
"(  c #2B5935",
")  c #345A3D",
"_  c #37653F",
"`  c #4D4439",
"'  c #4A4037",
"]  c #51463C",
"[  c #53493E",
"{  c #274F40",
"}  c #2B4D42",
"|  c #334D43",
" . c #3A4E47",
".. c #2E5245",
"X. c #2D5C41",
"o. c #2F5548",
"O. c #2F5A49",
"+. c #275041",
"@. c #325346",
"#. c #335D45",
"$. c #305548",
"%. c #315649",
"&. c #315649",
"*. c #3A544B",
"=. c #32594B",
"-. c #325B4C",
";. c #335C4C",
":. c #355E4E",
">. c #345D4E",
",. c #335B4C",
"<. c #39594E",
"1. c #365F50",
"2. c #3A5E51",
"3. c #2F6143",
"4. c #316345",
"5. c #35614D",
"6. c #3A644C",
"7. c #356A49",
"8. c #3B684B",
"9. c #366150",
"0. c #376251",
"q. c #366151",
"w. c #386453",
"e. c #396554",
"r. c #3C6956",
"t. c #3D6A58",
"y. c #3A7146",
"u. c #4A4A4B",
"i. c gray25",
"p. c #564C41",
"a. c #594E42",
"s. c #5D5144",
"d. c #5F5348",
"f. c #585858",
"g. c #415850",
"h. c #615447",
"j. c #635648",
"k. c #665A4B",
"l. c #6A5D4E",
"z. c #6D5F50",
"x. c #426E54",
"c. c #416858",
"v. c #487659",
"b. c #736454",
"n. c #776958",
"m. c #7C6C5B",
"M. c #786857",
"N. c #6D604F",
"B. c #636363",
"V. c #6B6B6B",
"C. c #777777",
"Z. c #6F6F71",
"A. c #83725E",
"S. c #806F5B",
"D. c #857461",
"F. c #897663",
"G. c #8C7B66",
"H. c #8C7C68",
"J. c #917F6A",
"K. c #907C67",
"L. c #95826C",
"P. c #99856E",
"I. c #9A8671",
"U. c #9C8972",
"Y. c #958270",
"T. c #A28D75",
"R. c #A68F79",
"E. c #AA947C",
"W. c #A8937A",
"Q. c #B19A7F",
"!. c #8C8C8C",
"~. c #838383",
"^. c #979898",
"/. c #B49C83",
"(. c #AF9A80",
"). c #BAA286",
"_. c #BDA589",
"`. c #B6A084",
"'. c #9FA0A1",
"]. c #A8A8A8",
"[. c #B3B3B4",
"{. c #BBBBBC",
"}. c #B7B7B8",
"|. c #AEAFB0",
" X c #C4AA8D",
".X c #C9AE91",
"XX c #C7AD91",
"oX c #CCB294",
"OX c #CFB698",
"+X c #D1B696",
"@X c #D5BA9A",
"#X c #DABD9D",
"$X c #D3B698",
"%X c #DDC19E",
"&X c #DFC2A1",
"*X c #E3C5A4",
"=X c #E6C8A6",
"-X c #E9CAA7",
";X c #ECCDA9",
":X c #EED0AB",
">X c #F2D3AD",
",X c #F6D7B0",
"<X c #F7D8B0",
"1X c #FEDDB5",
"2X c #F8D7B0",
"3X c #C3C3C3",
"4X c #CBCBCB",
"5X c #D5D5D6",
"6X c #DBDBDC",
"7X c #D7D7D8",
"8X c #DEDEE0",
"9X c #E5E5E5",
"0X c #EBEBEB",
"qX c #F5F5F5",
"wX c #FDFDFD",
/* pixels */
"} } } } } o.} o.r C H R ^ ~ ^ / ~ G +.~ 3./ / / / ~ ~ / ^ Q N ;.w.;.0.q.0.0.,.0.-.&.,.;.;.o.-.-.$...-.o.$.$.$.} ;.1.,.0.;.5.e.1.1.0.$.} } } } } | } ..",
"} } } } } } $.$.R H B J ^ / / / 3./ X./ / 3.X./ / X./ +.^ ^ O.5.w.;.5.w.0.0.1.;.0.#.-.1.;.o.1.=.-.o.$.=.o.o.....-.0.0.0.;.;.0.q.w.1.} } } } } } } $...",
"| o.$.$.} } &.o.} H H H / 4.3.3.3.~ ~ ~ / 3.3./ / ^ / / ^ P / 5.w.0.5.0.0.1.0.5.0.=.;.0.1.,.,.;.$...$.o.o.o.o.} -.0.0.w.1.5.,.e.w.o.} } ..} | ....} $.",
"&.$.o.@.o.&.&.&.$.R H H K / X.3.3.3.3.3.X.3.3.X.3.3./ ^ ^ P ^ +.w.w.0.0.w.e.e.0.0.,.,.,.0.-.5.,.;.=.-.$.o.o.O.U +.5.q.e.0.e.e.e.-.} } } } ......$...$.",
"$.$.&.o.o.-.o.o.$.$.I H H ( 4._ 3.3.3.3.3.3.3.3.3.3./ / ~ ~ +.S ^ e.e.5.0.w.w.5.5.,.q.5.,.$.,.,.;.-.=.o...o.T D ~ O.0.e.e.e.t.e.T { } } ..} ..$.$.$.$.",
"} ..&.&.o.o.o.o.=.=.#.P H K ! K / ( ( Q ( / 3.3.3./ / X./ / ~ N t 4.8.x.t.x.v.v.x.6.0.,.5.,.6.;.,.;...U D T -.O.O.+.D D T +.O.T F } } ..$...$.$.} $.=.",
"$.&.&.&.-.O.o.o.=.-.,.$.J V M N N N N V V V V N N N M 0 M M 0 1 r ..x , ; = ; = < h | -.,.6.6...T S A { ;.;.9.1.1.9.O.D A A A A L } } ..$.$.$.$.%.=.=.",
"@.$.o.o.-.1.-.&.-.=.$.$.^ N M N N V N N V V N N M M M M 0 M 0 0 q d                 . x I I T r A ~ O.-.;.9.5.0.0.O.O.D Z Z Z Z u } @.o.} $.$.$.=.=.=.",
"....=.-.;.5.,.;.=.,.,.=...N T R } U T T P B M V T T } U T ....} ..5                   7 } L A A O.-.1.1.0.-.0.1.1.D u } } z r 9 t } } } $.=.$.>.-.-.;.",
"@.;.,.0.0.w.0.;.;.;.,.-.=.+.} } $.$.} } =...S ..@.} } ..} } <.*.Y v o               & Y Y $.U U ;.O.9.5.1.0...A U { } } } } u 1 u z R } $.&.$.$.-.;.;.",
"$.5.,.0.0.0.5.=.,.5.0.q.1.O.} @.$.1...$.-.;.......$...o.=.| 5 #                           = 7 U w.1.9.1.O.+.T } ..} } } } } } y u z z L R $.>.-.$.-.;.",
"=.0.0.0.w.0.0.0.0.w.,.,.;.R } $.$.$.o.-.$.;.o.$.} ..&.2.s +                                     | q.O.{ D ..o.} ........} } } z t z L L L R $.>.;.1.5.",
"$.,.w.e.w.0.0.;.9.0.O...D A ..&.o.o.$.1.1.1.1.o.} $.g.=                                         + 5 | T ..o.$.$.$...$.$.} } } } z z T R R } @.4.O.,.q.",
"-.q.e.e.e.w.w.e.9.{ A r A Z U o.@...} -.0.e.1.} 1.*.% +                                             5 *.o.*.o.o.$.$.$.$.$.....} U I -.-.>.#.$.R #.,.w.",
"g.x.t.t.e.e.w.O.A Z r A r A ....} ..} ..=.0.-.1.*.O                                                   ; 2.=.$.$.-.$.$.$.$...} } } ..,.5.=.>.@.I I ^ x.",
"! ^ 4.6.r.#.S Z A Z r A } ..o.o.$...o.$.o.U }  .X               . .                   .                 & <.-.-.-.>.&.=.$...@...} -.q.5.#.+.^ ) ^ ^ ^ ",
"^ ) ^ ) ) A u Z A F { } &...o.$.o.o.&.&.$.o.x O             N.`.%X%XQ.] +       $ N._.%X@XW.` o           # @.>.>.>.;.$.-.$.$...R U O.^ / ~ / / / / X.",
") ^ ! ^ R r r A ..1.o.o.&...o.$.} $.&.&.&.v o             T.1X1X<X1X1X1XA.o   = ).1X1X1X1X1X>Xk.            % @.>.>.=.$.$.$.$...T M ~ ~ ^ / ^ / / +.X.",
"^ 4./ R S r S o.-.&.o...o.&.-.o.o.&.o.&.2.o             b 1X1X1X1X1X1X1X1XL.o  X1X1X1X1X1X1X1X>X.             , 2.,.,.;.;.=.=.o.R P ~ ~ ~ / +.#.4.X./ ",
"@.4.4.! t F o.-.-.-.1.$.&.&.$.o.&.&.o.&.}               l.1X1X1X1X1X1X1X1X:XL.1X1X1X1X1X1X1X1X1X4             # >.,.;.;.;.;.-...~ T ~ ~ ~ / X./ / / 3.",
"X.4.4.V A =.;.-.$.-.$.-.-.-.-.=.&.-.-.&.|               j.1X1X1X1X1X1X1X1X1X1X1X1X1X1X1X1X1X1X1X>             % q.;.;.;.,.=.o...~ ~ ~ ~ ~ ^ / / / ^ X.",
"/ 3.3.q +.;.=.-.-.o.$.;.-.-.=.$.<.-.o.&.2.&             4 <X1X+X[ ` L.<X1X1X1X1X1X-XM.' k.>X1X%X              h 0.,.0.0.,.o...~ Q ~ ~ ~ ^ / ^ / / / X.",
"/ 3.Q +.-.,.=.,.1.-.-.-.-.>.=.$.-.-.o.o.o.c             O %X1XM.    o ` :X1X1X1X.Xf       `.1XU.            O <.0.q.;.;.-.-.S P ~ ~ ~ ~ ^ / / / / / 3.",
"/ / T q.0.q.,.0.1.-.-.1.&.>.=...-.-.1.&.o.h O $         * =X1XQ.o       [ <X1X%X4       * *X1X).          *   | 0.e.;.=.;.D B V ^ Q ^ ^ ^ ~ ^ ^ ^ / X.",
"/ V ;.5.,.0.,.,.0.,.1.,.,.,.-.-.1.1.%...1.# j.#X&   - D.%X1X1X1X%X[ O   o _.1XA.o   < m.-X1X1X1X_.k.$   b ,X4 6 t.0.O.{ D A Z A K ( ^ ! / ^ X.^ / / X.",
"t S q.q.0.0.0.5.;.-.1.;.1.-.,.,.-.-.%.-.1.  Y.:X- b &X1X1X1X<X=X<X<X XL.L.;X1X%Xm.U.%X1X:X-X<X1X1X<X+X$ p.1Xs.; =.D A A Z r r B J J ! ) / ^ X.( / / / ",
"q =.q.,.;.5.0.;.-.=.,.;.1.,.5.=.-.o.1.-.2.o H._.  U.1X1X1X1XF.* 4 E.<X1X1X1X1X1X1X1X<Xm.3 -  X1X1X1X1Xh.- :Xp.% U r B A A A q 2 J H K G V V G G V G N ",
"} 6.w.,.0.0.;.;.,.0.0.;.5.0.,.=.-.1.<...c   ; n & @X1X1X1X1X;X_.L.k L.1X1X1X1X1X1X1Xd.[ P. X<X1X1X1X1XU.o d.o O h T o.&.=.....L B J V N V V V N V C V ",
"$.q.0.0.0.,.0.0.5.;.w.;.5.,.1.,.1.$.5 # * p.p   g ;X1X1X1X1X1X1X1X:X%X1X1X1X1X1X1X1X%X<X1X1X1X1X1X1X1X.X@   n b $ % h 1.>.>.$.$.$...R T P S N M M M J ",
"q.e.w.0.e.e.w.0.0.0.0.w.,.,.<.e.c X - H.;X1X;Xp k >X1X1X1X1X1X1X1X1X1X1X1X1X1X1X1X1X1X1X1X1X1X1X1X1X1X@X& l.<X1X&Xl.O O @.<.$.$.$.$.o...+.} } A 1 V 5.",
"2.e.e.e.e.e.;.5.0.0.e.0.w.q.e.5 # b.>X1X1X1X1Xp.p *X1X1X1X1X1X1X1X1X1X1X1X1X1X1X1X1X1X1X1X1X1X1X1X1X1X_.O U.1X1X1X1X#X] X c >.&.$.$...+...} R S S 5.5.",
"2.w.0.q.w.e.e.e.0.e.w.0.5.e.a @ J.1X1X1X1X1X1XH.O  X1X1X1X1X1X1X1X1X1X1X_.m.d.L.%X1X1X1X1X1X1X1X1X1X1XA.. oX1X1X1X1X1X,Xj.O c >.$.$.$.} ..R S T 5.w.;.",
"1.O.e.w.e.e.t.e.,.q.q.e.q.H o W.1X1X1X1X1X1X1X#X+ j.:X1X1X1X1X1X1X1X1XT.] N.M.k.p.oX1X1X1X1X1X1X1X1X=Xi p :X1X1X1X1X1X1X1XN.o $.-.$.o...S S S ;.1.0.9.",
"0.e.t.e.t.w.0.e.e.e.q.q.@.O M.1X1X1X1X1X1X1X1X=Xa.X K.;X2X1X1X1X1X1X1X1X1X1X1X1X1X1X1X1X1X1X1X1X,X&Xd.X J.>X1X1X1X1X1X1X1X>Xv = ..{ U D S Z A O.e.e.0.",
"1.0.t.0.e.t.w.e.e.e.q.e.5 p >X1X1X1X1X1X1X1X2X*X.Xb O m.$X;X,X2X1X1X1X1X1X1X1X1X1X1X1X1X1X2X>X-X Xa.X z.#X=X1X1X1X1X1X1X1X1X+X. e D A S S A A ~ e.e.;.",
"w.0.e.O.e.e.e.w.t.e.e.2.+ L.1X1X1X1X1X1X1X,X=X*X*X$Xn + > D.$X*X-X:X:X:X>X>X>X<X>X;X;X=X*X*X Xl.@ X b.&X*X*X-X,X1X1X1X1X1X1X1X[ % T D A A A Z T 5.e.e.",
">.q.r.1.e.0.e.t.e.q.t.h 3 *X1X1X1X<X,X;X=X*X*X*X*X*X*XR.n     3 ` b.A.I.W.W.Q.W.R.J.S.k.b &   @ d._.*X*X=X*X*X*X*X-X:X1X1X1X1X`.O Y A r Z A r A ^ e.e.",
"2.e.e.t.e.w.t.e.t.t.c.& k.1X1X1X1X,X*X&X*X*X*X*X2X2X:X*X#X/.n.n 3 $ .   O O O # X + X * 4 p.D._.*X-X:X2X,X*X*X*X*X&X*X2X1X1X1X>Xp a A Z r r r C R 5.6.",
"w.w.t.t.e.t.t.e.w.e.c.+ R.1X1X1X1X>X*X*X*X#X%X:X1X1X1X1X2X,X;X*X%XoX XE.U.P.P.I.R./.XX$X&X=X:X,X2X1X1X1X1X-X#X*X*X*X*X2X1X1X1X1Xk.O T A r r q 9 I #.e.",
"6.5.O.O.O.+.X.^ U U z   #X1X1X1X1X-X*X*X*XW.*X1X1X1X1X1X1X1X1X1X1X<X<X>X:X;X;X;X:X>X,X2X1X1X1X1X1X1X1X1X1X2X@XE.*X*X*X:X1X1X1X1XP.  c.e.0.O.S 1 J ^ 6.",
"U A S S A S S D U D e o >X1X1X1X1X*X*X*XR.).;X1X1X1X1X1X1X1X1X1X1X1X1X1X1X1X1X1X1X1X1X1X1X1X1X1X1X1X1X1X1X1X=XP..X*X*X-X1X1X1X1X).  *.0.w.e.e.O.R I I ",
"S A S A S A D D ~ / e * 1X1X1X1X,X*X*X#Xb *X>X1X1X1X1X1X1X1X1X1X1X1X1X1X1X1X1X1X1X1X1X1X1X1X1X1X1X1X1X1X1X1X-X Xs.*X*X*X1X1X1X1X@X  | 0.e.w.e.e.2.) ! ",
"U P P ^ ~ X.X.^ ^ ^ 6 > 1X1X1X1X;X*X*XY.k.*X*X,X1X1X1X1X2X*X1X1X1X1X1X1X1X1X2X1X1X1X1X1X1X1X1X1X*X<X1X1X<X:X*X*Xf .X*X*X>X1X1X1X#XX Y 1.w.w.0.e.,.#.B ",
"P ^ ^ ^ ~ ^ / / ^ / 6 - 1X1X1X<X*X*X*X` m.OX&X*X=X;X,X1X2X;X1X1X1X1X1X1X2X:X=X>X1X1X1X1X1X1X1X1X-X<X>X;X=X*X#X.X' A.*X*X-X2X1X1X$X+ } >.;.5.;.5.o.U V ",
"R / ^ ^ X./ / ~ ~ ^ j . ,X1X1X;X*X*X.X>   $ i a.K.E.oX*X=X*X=X;X;X;X-X=X*X*X&X*X=X=X-X;X;X-X;X=X*X%X.XT.A.` - O   ` &X*X*X>X1X1X).  @.>.,.,.5...I L ^ ",
"T X.X.X.X.~ +.X./ X.I    X1X,X*X*X*XK.O C.V.u.s +   +   > k p.k.b.D.F.P.R.(.(.E.(.J.F.m.b.d.n f - +     # k f.V.B.$ _.%X*X=X<X1XD.  =.1.;...R L z U ^ ",
"I ^ ~ X.X./ X.X.X.X.#.O l.=X*X*X*XXXp.@ ].5X8X0X5X|.!.C.f.v d : & O + + X O X O X   X # = : s i.B.C.^.{.7X0X6X5XC.$ M.%X*X*X*X%Xk 5 &.&...P j L L ^ ^ ",
"/ / ^ / / / X.4.X.#.#.s X W.*X*X*X*X&Xd.s 5X6X0XqXwXwXwXwXwXwX0X9X8X5X{.[.[.[.[.}.3X7X8X9XqXwXwXwXwXwXwXqX0X7X{.$ L.*X*X*X*X*XM.+  .$.} I L L A ~ / / ",
"^ / / / 3.3.3./ X./ #.O ] @X*X*X*X(.a.> + & s f.!.4X9XwXwXwXwXwXwXwXwXwXwXwXwXwXwXwXwXwXwXwXwXwXwXqX9X{.C.u.d &   f b.XX&X*X*X_.p = | L L L z z / ^ X.",
"../ / #./ / 3.X.X.3.6 & .X*X*X#Xm.$ * k a.a.m -   d Z.4X0XwXwXwXwXwXwXwXwXwXwXwXwXwXwXwXwXwXwXwX9X[.f.- X : n a.p.f O > T.&X*X*XT.  h z z u H L / / X.",
"X./ ^ / / 3./ 3.3.4.& k.*X*X*X] X n OX*X*X*X*X#XT.k   * !.9XqXqXwXwXwXwXwXwXwXwXwXwXwXwXqXqXqX6XB.O . s./.&X*X*X&X&X/.i X A.*X*X*X4 , U z t 2 N #.^ / ",
"/ / / / / 3.3.3.3.4.% k .XR.f   b.*X*X;X2X2X2X2X>X-X/.k X v u.B.V.Z.~.!.^.^.^.^.^.!.~.Z.V.f.u.d . s..X;X>X2X2X2X,X:X*X&Xm X p././.* j t.O.V 1 Q X./ / ",
"X.X./ / 3.3.3.3.4.4.E o > O   > oX-X1X1X1X1X1X1X1X2X:X$Xz.X   % & .                 + . = O + $ L.&X,X2X1X1X1X1X1X1X2X*XR.X + $ * % >.e.e.e.=.X./ X.3.",
"/ 3./ 3.3.7.4.3.3.4.4.#.j W O h.*X2X1X1X1X;X,X<X1X1X2X*X&XF.  u.3X{.[.|.].'.^.].].|.[.{.{.: @ (.*X=X1X1X1X,X:X>X1X1X1X,X&X4 : | x q.q.w.t.e.e.w.5.3./ ",
"/ / 4.4.3.4.3.3.4.4.3.4.4.) + A.,X1X1X1X1X=X&X*X*X*X*X*X*X*Xk.X ^.9X9X6X7X5X5X5X6X8X9X0Xf.O I.*X*X*X*X*X*X*X*X;X1X1X1X1X;X` # 2.e.0.w.w.e.e.q.0.^ / 3.",
"^ 4.5.4.7.3.4.3.7.4.4.4.3.^ o P.,X1X1X1X1X:X/._.*X*X*X*X*X*XOXl : qXwXwXwXqXqXqXwXwXwX3XO l.&X*X*X*X*X*X&XR.OX,X1X1X1X1X:Xh.# 2.;.5.0.0.0.e.q.5.J Q 4.",
"4.7.4.4.4.7.4.3.4.7.7.7.7.)   P.<X1X1X1X1X<XoXk *X*X*X*X*X*X*XI.  ].wXwXwXwXwXwXwXwXwXV.o +X*X*X*X*X*X*X Xb =X1X1X1X1X1X,Xh.# 2.1.1.1.0.;.;.q.;.P J ( ",
"_ _ 7.7.3.7.7.7.7.7.3.( Q V O S.,X1X1X1X1X1X=Xg L.*X*X*X*X*X*X#X3 u.qXwXwXwXwXwXwXwX6X: a.*X*X*X*X*X*X&Xs.n.:X1X1X1X1X1X;Xn 5 &.&.>.;.1.0.;.5.+.;.w.#.",
"J K ( _ y.( J G V V M M M V < ] =X1X1X1X1X1X:Xp.s.*X*X*X*X*X%XR.- . i.~.].|.[.|.^.C.s   k _.*X*X=X&X*X#X4 J.>X1X1X1X1X1X@X: c 1.&.1.=.>.;.;.;.P 4.w.w.",
"I J V K V 0 1 q N C q 2 q q B # ).1X1X1X1X1X:Xp.i _.OX.X/.A.p . % W ; o           O s | O O b K._.OXOXT.@ J.:X1X1X1X1X2XD.% <.&.&.&.=.1.-.$.o.~ 2.q.0.",
"J K K K V r T &.-.&...u T ^ <.a ` -X1X1X1X1X=Xn   +     + o 6 c +.D 1.c.2.=.$.-.q.c.e.q.e.Y , . X         F.;X1X1X1X2X&X> c 1.-.$.&.=.=.-.&.o.;.,.,.,.",
"2 ! #.@.o.1.-.-.-.&.o.....-.| % : R.:X1X1X>X*Xg =  .| *. .2.2.&.+.;.0.e.0.0.6.q.e.e.e.0.,.2.q.<.| | | Y X b.*X,X1X2X=Xn.$ ; | $.} $.&.$.&.o.-.&.-.-.=.",
"=.5.<.5.1.1.1.&.1.&.&.$.@.h   m _.U.&X*X*X*X&X> d e.=.1.&.>.>.$.$.,.9.0.e.e.q.e.q.e.e.e.,.q.w.e.0.<.&.Y # d.*X*X*X*XOX/.R.3   } $.} o.o.} $...o.-.-.U ",
"<.w.5.<.1.1.1.-.-.1.&...@.% h.*X*X&X*X*X*X*X$X$ W c.>.>.>.>.$.$.$...S ..e.e.e.t.e.t.e.e.w.e.q.q.5.;.I | = k *X*X*X*X*X*X*X#Xi , $...} $.o.} ....U Z r ",
"0.e.,.,.0.,.,.,.&.&.o...<.% p.#X#X#X#X#X#X#XI.+ | 1.1.&.&.o.o.o.@.} r r { -.e.e.t.e.e.t.e.w.q.e.#.E L U a $  X#X#X#X%X#X#XOXi 5 ....} } U { U u r A T ",
"2.w.q.5.q.0.,.5.1.o.o.o.1.h   : : > > > - - O = 1.1.1.&.1.o.....} } u } } { +.O.5.5.t.t.e.w.t.#.L I L o.&.O O > > > > > > &   u { } } { r r r D O.0.w.",
"0.e.t.w.5.0.q.>.o.O.-.O.$.$.c e a 7 7 7 8 8 e U { -.&.1.<.$.......U { } ....o.o.O.F B / 6.x.R u u z $.$.-.>.E j h h e 8 8 7 u r r r r u q B :.e.w.w.q.",
"2.e.w.w.0.w.2.,.1.O.o.+.o...} } } U U u A r B A r F o.&.....$...} U } ..o.o.1.-.} S R ..o.$.z u z } &.-.-.1.1.1.=.} o.o.} } ..{ U r r r 1 A T +.@.#.6.",
"R x.x.t.w.0.;.O.+.D S A S S A S A A N A B A A B r r r { ....$.} } U ..$.-.;.O.S r ..&.o.o.&.} L T } o.o.&.>.>.-.o.} o.$.$.$.$.$.o.} r w 1 L I I I I I ",
"E / +.r B Z A Z A A A A Z Z A Z A Z S U P T R P u r r r F } } } } } ..$.o.D A } o.O.&.o.o.&.$.o.{ F } o.$.&.&.$.o.o.$.$.$.$.o.o.$.$.^ 2 t E I P P I R ",
"I / S r Z A A Z A Z Z A A Z r B Z D ~ T ~ ~ ~ P T Z w r r u z } { } ..{ A D $.-.-.1.&.&.1.o.o.o.o.} { { ..o.&.&.} &.&.&.-.&.-.$.=.=.$.T H L L I L U U ",
"R R F A S A Z Z Z r Z Z Z r A S ~ ~ ^ ~ ~ / / T ~ D w r r w w w r U Z U 1.>.-.-.-.o.1.&.&.o.o.&.&.o.o...T } o.o.o.&.&.&.>.>.;.;.;.,.=...u L L L I E U ",
"| } } @.} } u r u A r r S T Q ~ ^ ^ ^ T ^ P ^ ~ ~ T S 9 w 9 9 9 9 r T ,.1.-.-.;.1.&.1.&.-.$.$.>.&.o.&.-.&.} F A o.o.o.-.,.,.;.;.1.-.-.U u U U c } z } ",
"| } } } } $.{ r r r A { ^ ~ T ^ ^ ^ ^ / ^ ^ ^ ~ ^ ~ ^ B 9 9 9 9 q +.-.1.-.-.0.,.1.-.1.-.1.>.&.>.&.&.&.$.$.$...F } &.-.1.-.-.-.$.-.,.;.^ z } } } { } } ",
"| $.$.| } ..} F r Z ~ ~ ~ ^ ^ X./ / / / / / / / / ^ T ^ P w 9 9 ..;.o.1.1.1.1.;.1.1.1.>.-.>.=.-.&.-.&.&.&.&.$.&.$.&.-.1.0.,.o.1.0.1.1.} R } } } } } | "
};
