/* XPM */
static char *result[] = {
/* columns rows colors chars-per-pixel */
"75 75 54 1 ",
"  c #23232D",
". c #272731",
"X c #2A2A34",
"o c #2F2F38",
"O c #32323B",
"+ c #2C4E26",
"@ c #2D5326",
"# c #2D5629",
"$ c #2F5B2B",
"% c #305428",
"& c #325D2C",
"* c #34632E",
"= c #38662E",
"- c #36692F",
"; c #386A2F",
": c #356630",
"> c #386631",
", c #366B32",
"< c #396D33",
"1 c #377134",
"2 c #3B7335",
"3 c #3D7936",
"4 c #3C7638",
"5 c #3D7B39",
"6 c #407C37",
"7 c #407E39",
"8 c #3A3A43",
"9 c #46464E",
"0 c #4C4C54",
"q c #55555D",
"w c #66666D",
"e c #6C6C73",
"r c #707076",
"t c #727279",
"y c #3F803A",
"u c #418337",
"i c #42833B",
"p c #44893C",
"a c #7D8C7E",
"s c #7E917F",
"d c #7D7D83",
"f c #7F9280",
"g c #848F87",
"h c #819482",
"j c #829983",
"k c #869489",
"l c #88978A",
"z c #8A9C8C",
"x c #919196",
"c c #95959A",
"v c #8CA18E",
"b c #8EA191",
"n c #9D9DA1",
"m c #B6B6B9",
/* pixels */
"2>263435*4332<,:<<22632532,321,2>2***<23142243:>132432<7&:24**12,4&=,2>3,52",
"41123*&231**222>y4,<i,&&i2>>*17*<21,*143>,;12=&*,5<24547:2<4&22>*23,622-3*<",
"11264,:<44274<<,4,3,32,*1445442*<31472-,,**:-<<134<,<4364,<i22->*,442,22<*2",
"63433-<<p23i2<&,2i24i,-4<37522>&<34>i722i<,<325552,212<*,,273u*:,<3:*32i1&%",
"2p52,2$33**12,22,3ii>1<&y<**23,11,,<*>3;<51i3<43*3142i321,43<4,:4,*26*2-4*&",
"*233<3y3,<12i224,-2323533,<2y3232*41,*3115,6,*4**&,33i2*<2:4,314&&2<22,532,",
"u<2*6,43254p3;73<313>31454557y342,-4<yy3&3414&y1:,<5,2<4<;,*224<#,y4<5-33i&",
"26252<34,3y>yi2<35<45:132<y3*i3123,4*<42-1;44332<235312<12>@,<<22*4431<35i,",
"3y144<3212322<<&373<3<232445>41:>3,4*<i22>433;:3i$<*4@443;,2,:1:i<@2y<<3<32",
"42,,*7;<2362,1i4<2<,,*2>,474,,5p,1,,$*21;31,4<233*451-2*2u5<3353><*:-<21314",
",<3<,43222221141<=21<15<32,41215<*341*532&,331<532*,,<,4,5*2,21:>-124,,1234",
"5,1<5-2-61,=<,<<,261151,,6<::1<:<1<43333<&1*>&1231,23*1<22p2<1,3:433yi33<65",
"442:3i,,626<,114*37<<47*1622*,,31&22<2312;23><22<1*4221,,232<<43<23272,73*1",
"322***&,62i,157,143<>**><26i*3i<,13626#>;3<*4*1&31*5<*>*<,2-&54,23,*,3:;&*2",
"i,**44<,42224:51252&,3<2<42272,32-<2323*2<74-232,,&1i*;,iuy1$>:>5i,:,225252",
",,>,3242&*&,2:4,2,>,13221*&&24<,<<;1i4<21,**,4,3i1-<25**,74,>*,#<4:<&2=2,5<",
"*5<3222,,*12,234%,243<32;*216&<2*,,423135,>2<4<:71*&&33&7,,54y4*25332;62**2",
"<3<4*3:64:,22222>275<;3u1,224,61<2:4>6243,,753:1722<26,22,<<3444-4553*6u<42",
"3i23i,2i24<12476<<5,,472i2332i<55335&26644<41<<7261*5-3p224:23322<3112i12,<",
"3<2<2423,3:,*2,2-,<45373112,<43134<<**<=14,<416371<24315<2,,&1;11,<46374222",
"<p<1&44;<,3<1*12<,57*1,634y3**2,11-231,,<3<,51<,33i313<,<,511=<2<,45,1*i3i6",
",233<*21,i431*431::,332<2>4434><,43252<,5<,2*7,4<4,32*<2,i<36*432*1:32211,3",
"<,235*1;i312<=31544136,*,-1,45<,,4i224*243241464<-&,3-<;y322<*52522216,;,&2",
"243<2433y5<52=*-<<3313*;*214><312336,32&**;4413,;**i4431y5422>::,>3323$4*&5",
"<3i>43224,,3,12;43423333<<55y,4442,,,,>3*23<4275213p,33,4-*1<<1;3<4453y<,i3",
"zzlgkzllzzkklzzvzlklkkzzlvvzlgzvzlzzkzzzvbzzlzklzzzklvllzzkkzzvzzzlllgzvzzk",
"999999999999999999999999999999999999990999999999999999999999999999999999999",
"                           .                                               ",
"                                                                           ",
"                                                                           ",
"                                                                           ",
"                                                                           ",
"                                                                           ",
"                                                                           ",
"                                                                           ",
"                                           .                               ",
"88X  O88.  O88o  o88o  X88O. .888   888.  O88X  O88X  o88X  o88o  X88O  .88",
"mm9  xmm9  dmmr  wmmr  qmmno OmmcO Ommm8 Xcmm8 Xcmm0  tmmw  tmmd  0mmx  0mm",
"OO   oOo.  ooOX  XOOX  XOOo   oOO   OOO   oOO   OOO.  oOOX  XOOX  .OOo   OO",
"                                                                           ",
"                                                                           ",
"                                                                           ",
"                                                                           ",
"                                                                           ",
"                                                                           ",
"                                                                           ",
"                                                                           ",
"                                                                           ",
"qqqqqqqqqqqqqqqqqqqqqqqqqqqqqqqqqqqqqqqqqqqqqqqqqqqqqqqqqqqqqqqqqqqqqqqqqqq",
"faaafjajfffassssffffffjffjhfajhhhjfjaffajffffhjhjjjhfffjffjaassfffssjfjjsjf",
">226,,<,34*;$:*::4324:1*2*2<21<,2>4<**-$2$,<422*2>2*22,2,4*-$:*::4,3<,<,<<2",
"572&25,$1,*=414<<3>75341>4i4>>32$$>,,,5,5,3,36432,<135,#>,*-4512,y*73341,42",
",53*453-*2,13211,2<6132<,3,i1-3i,*>21y1,5<<23<333<42557**2*4y<13,<22,312243",
"4>;<-3352,7y*#4,,>@22ii2443,2*15y5,2y;,*<1,+>2yi4<5,42572,35**1:<;@22ip<432",
"3231*<,4ii2,**31*4<4212234433,&2,yi5;*-<1-44<4242344*,<1iy3*,>11:422<43<33<",
"2,4-,*2,2p&*-,,,2<212&2>322<2<*<<,y4%<*2,1<222&<<265,,,;3i**,:<14>414&6*375",
"3=iy,35,233*62>,2,5<,<<*6222i*6i<,i,234<<*<12<,<<,<:>33<133,i<,6,<3,1<<;4>&",
"**y44<,<*;23i<42yy24,2<<,**37,6=1;*23u2223i13<-4,,1,2<,<*<17i,215y,4<2,,<2*",
"*52><2,:,222i325&5:,*3222&325<,2:,>5<y22p*32*<:4<<45>,,,<2<2i26p:3,:,,22<22",
"22,<i<2*<6i*,1252,,+*35i531,<52<,-3y4>*26312%&,3i733<4,-16i<<=224<<@*23iy12",
"-**3,4,,<5<,#>21=3,,31,3<*1*<2<<*437>$$*2122-,4<22**,1,,452,$$<1<6,,3,13<&,",
"33-2*3232,5:*3<2;2,,244p42<2*,3243*32*412<21:443734>223,3,5*>3<2<4:,232y42*",
"2<,2,6y2242*>13<324122,*,<3,1<2p41212*,3223414<,,*2<43p,<42,:43,262<22:*,2<",
",i124&35,>*@:,51*22;<3&,>>23;2,*31*****43*2<<14:&,*2,*231*&#::33*3:222::>:2",
"<2::64>,&>,43,1:,,i3+&23*<***25,1&*<2322*=*53&+2:>*>3i>,#,<<y21:>:i1%%4,>*,",
"2&,<<i,*,,53i313*;,:<$,<,4*:2:i3-,*535p-32*3*,,><,212p1*:253i612-,1*,:<<,24",
"3,*323i<$,<*><341&@3y1:5444>-42i3&*1<>*433*@,y3*443,>3p,**2>>:351*+3y2*327&",
"3263332<>21<:*234,314:1:362454522<,,4,*,32<<3,3,,42*272,,11<:>232,124<4:2,=",
"321<254-*:>$<,i32;531442<i>2144y4#1*&><2y3,44332,43*433<$,>&,,i72:y3<23:26*",
"354y76*,<4,5242i:<3<43>3>4235i3->>5<,222p,,:231,<2<22u*,<4,4232p,<1154*3,22",
"73342;@=i<2;<>*34,3-2:<34<i463*&&6261<,,21<,4;3;<6<<,=&*316*2:,3<21;;-3422;",
"4<7277223<344335-12733,p;45<p33u2-42,6,744,332y122237<u2<2343>53113335*y2,3",
",13iyp3<$>::1*7<222i3244,1<2iip52&&:*4&3224,y533,22,7p3<&:&,2&3<23<73441,41",
"36p5ip:4:4$y2**62<7i13*=*<2ip5p4<32&432*<7<3i54<#**5ip<<22$33*>3313i72>$>*3",
"463<<353,:3,44<522i**<&&2136213353>,4,3216261&,*+2;22i324:4<1423242,&,*%2<2"
};
