/* XPM */
static char *result[] = {
/* columns rows colors chars-per-pixel */
"75 75 231 2 ",
"   c #0D0A0C",
".  c #140C0C",
"X  c #1A0C0A",
"o  c #1C110D",
"O  c #0D0D12",
"+  c #120E13",
"@  c #1B0F11",
"#  c #0D131B",
"$  c #161214",
"%  c #1C1314",
"&  c #1B1419",
"*  c #1C181A",
"=  c #22120E",
"-  c #29170F",
";  c #221412",
":  c #2D1A13",
">  c #221619",
",  c #231C1D",
"<  c #2B1D1B",
"1  c #291813",
"2  c #331C14",
"3  c #321D1B",
"4  c #391F19",
"5  c #321A0D",
"6  c #29201E",
"7  c #392116",
"8  c #34221B",
"9  c #3A231B",
"0  c #38251A",
"q  c #1D1C24",
"w  c #161B26",
"e  c #1F222C",
"r  c #2D2423",
"t  c #2A262A",
"y  c #3B2622",
"u  c #3C2924",
"i  c #372926",
"p  c #212933",
"a  c #292B35",
"s  c #37363A",
"d  c #333133",
"f  c #41251B",
"g  c #442B1D",
"h  c #4A2C1B",
"j  c #462817",
"k  c #4E301F",
"l  c #55311F",
"z  c #452C24",
"x  c #482E26",
"c  c #4C3324",
"v  c #443129",
"b  c #4B332B",
"n  c #473125",
"m  c #523424",
"M  c #533926",
"N  c #53352B",
"B  c #5B3C2B",
"V  c #5A3B27",
"C  c #483A35",
"Z  c #553B30",
"A  c #533630",
"S  c #633F2B",
"D  c #633F24",
"F  c #5A4439",
"G  c #5F4028",
"H  c #65422E",
"J  c #6A442D",
"K  c #6B472C",
"L  c #744A2E",
"P  c #7A4C2F",
"I  c #634433",
"U  c #6C4632",
"Y  c #6D4934",
"T  c #6C4C39",
"R  c #664B39",
"E  c #744B33",
"W  c #794F35",
"Q  c #724E3A",
"!  c #744B35",
"~  c #755136",
"^  c #7C5235",
"/  c #74513C",
"(  c #7B533C",
")  c #7E593B",
"_  c #6D513D",
"`  c #132B40",
"'  c #2B3745",
"]  c #363E49",
"[  c #283E55",
"{  c #333F54",
"}  c #394859",
"|  c #2B465F",
" . c #3B5367",
".. c #3E637A",
"X. c #4B4849",
"o. c #594B43",
"O. c #5A4F4E",
"+. c #494B52",
"@. c #47545E",
"#. c #555356",
"$. c #69554B",
"%. c #7C5942",
"&. c #785845",
"*. c #695B54",
"=. c #6A574C",
"-. c #736154",
";. c #78685D",
":. c #515D6A",
">. c #66747E",
",. c #6D6A6C",
"<. c #815234",
"1. c #81563C",
"2. c #85593C",
"3. c #8B5C3C",
"4. c #8A5836",
"5. c #935F3E",
"6. c #93613F",
"7. c #8C603F",
"8. c #815741",
"9. c #845B44",
"0. c #8B5E42",
"q. c #845F48",
"w. c #915F41",
"e. c #8D6145",
"r. c #876249",
"t. c #8E654B",
"y. c #936444",
"u. c #9A6643",
"i. c #9C6A45",
"p. c #94664A",
"a. c #94694B",
"s. c #9C6C4A",
"d. c #986749",
"f. c #8A6A55",
"g. c #986E53",
"h. c #997358",
"j. c #A36C46",
"k. c #A26E4A",
"l. c #A86F49",
"z. c #A4724D",
"x. c #AB744D",
"c. c #AF784D",
"v. c #A97047",
"b. c #B2774C",
"n. c #B57A4D",
"m. c #BB7B4E",
"M. c #A57352",
"N. c #AB7552",
"B. c #AD7A54",
"V. c #AC7C5A",
"C. c #A57A5A",
"Z. c #B47C53",
"A. c #BB7E53",
"S. c #B47E59",
"D. c #B97F59",
"F. c #887569",
"G. c #977865",
"H. c #927C73",
"J. c #816D61",
"K. c #A17A62",
"L. c #C27F52",
"P. c #7A817B",
"I. c #BD8255",
"U. c #B5815B",
"Y. c #BD845B",
"T. c #BB8458",
"R. c #A6805F",
"E. c #9A887C",
"W. c #8F837D",
"Q. c #A88569",
"!. c #B48462",
"~. c #BB8661",
"^. c #BD8A62",
"/. c #BB8E6C",
"(. c #B4896A",
"). c #BB916D",
"_. c #A78B76",
"`. c #B39174",
"'. c #BC9373",
"]. c #B7947B",
"[. c #B6997D",
"{. c #BA977B",
"}. c #BB8F70",
"|. c #C2814E",
" X c #C9864F",
".X c #C48455",
"XX c #C98654",
"oX c #C68956",
"OX c #CB8A56",
"+X c #C2865A",
"@X c #C98759",
"#X c #C4895C",
"$X c #CB8C5B",
"%X c #D18C56",
"&X c #D18E5B",
"*X c #CD915C",
"=X c #D2915D",
"-X c #C28760",
";X c #C48B61",
":X c #CB8E61",
">X c #D18F61",
",X c #C69064",
"<X c #CC9263",
"1X c #C5936D",
"2X c #CA9369",
"3X c #CC986C",
"4X c #D29362",
"5X c #D59869",
"6X c #C49571",
"7X c #CA9671",
"8X c #C79974",
"9X c #4D799B",
"0X c #667887",
"qX c #7B8689",
"wX c #6B879B",
"eX c #7496AA",
"rX c #7091A8",
"tX c #6CA1BE",
"yX c #77AACC",
"uX c #8A8583",
"iX c #8B9699",
"pX c #9C9795",
"aX c #999C99",
"sX c #938F8F",
"dX c #AA988A",
"fX c #B69C87",
"gX c #AB9E93",
"hX c #B6A498",
"jX c #B4A191",
"kX c #8DA6B3",
"lX c #ADAEAE",
/* pixels */
"D.Y.-X-X~.;X+X;X;XU.Y.~.+X-X-X-X~.+X-X-X-X-X@X-X-X+X;X:X<X;X<X:X<X2X<X<X:X1X:X,X:X:X2X2X2X2X>X,X:X<X:X<X:X2X:X2X>X:X:X2X:X2X<X<X<X<X3X3X*X<X3X3X*X<X3X",
"Y.Y.-XY.-X-X-X-X;XY.Y.-X-X-X-X+X-X-X-X+X-X-X-X@X-X@X;X,X;X<X;X<X<X:X:X:X:X:X:X<X,X:X:X:X2X:X>X-X-X:X2X:X:X:X:X2X:X:X:X:X:X:X<X<X,X<X<X3X<X<X4X3X3X4X<X",
"-XY.Y.Y.~.+X+X-X^.Y.Y.+X-X-X-X+X+X+X-XY.@X-X#X-X-X-X;X:X;X:X:X:X:X2X;X:X:X<X<X2X,X:X,X<X:X:X2X:X:X:X:X<X>X:X:X>X:X:X2X>X<X:X:X:X*X<X3X4X<X,X<X<X4X*X<X",
"D.Y.Y.Y.+XY.-X-X+XY.Y.Y.-X+X+X+XY.+X+X-X+X-X-X:X:X+X-X:X-X;X;X,X:X:X:X;X-X:X:X;X:X:X:X:X:X:X2X:X:X<X:X:X:X:X:X:X:X:X:X:X:X$X>X:X#X<X*X<X<X<X4X3X3X3X3X",
"-XD.~.L.~.-X~.+XY.Y.+XY.Y.+XY.+XY.+XY.+X-X-X-X$X@X+X~.:X:X:X:X:X:X:X:X,X<X:X<X:X,X:X:X:X<X<X<X-X-X:X:X@X:X:X>X$X:X$X-X@X$X$X:X$X#X4X<X<X*X<X3X<X*X*X<X",
"D.-XL.~.-XD.Y.+XY.D.+X+XY.+X+XY.+X+X+X+X@X+X@X-X@X+X;X:X:X:X:X:X:X:X;X:X:X,X,X:X<X:X2X<X3X<X3X:X#X:X:X:X:X:X-X:X:X:X:X:X-X$X$X:X#X*X<X<X<X<X*X<X<X<X<X",
"-XL.~.+X-XY.~.-XY.Y.-XY.Y.Y.-X+X+X+X-X@X-X@X@X@X;X@X;X<X:X,X,X:X<X<X<X<X<X<X,X;X2X:X<X<X<X<X<X:X@X:X$X:X$X$X-X:X:X$X:X:X:X$X*X:X#X<X*X3X<X<X4X*X<X<X<X",
"+X~.-X-X+X+X+X+XY.D.-X+X+X+X+X+X+X+X+X-X@X@X@X-X-X@X-X<X,X:X:X:X;X<X:X,X<X<X;X<X<X<X<X:X<X<X4X-X@X#X@X:X-X>X$X:X:X:X$X$X:X<X$X$X$X*X,X*X<X<X3X4X<X*X4X",
"-X+X-X-XY.+X+X+X+XD.+X+XL.+X+X-X+X+X-X@X-X@X-X-X@X+X@X:X<X<X:X;X<X:X:X<X:X:X:X:X:X:X<X<X:X:X:X:X#X$X$X:X:X:X:X:X$X:X:X:X:X$X$X$X*X*X*X3X*X4X3X*X*X,X3X",
"~.Y.Y.Y.Y.Y.~.Y.+XD.+X~.D.+XY.L.+X-X+X+X+X+X-XL.@X+X-X+X#X;X;X@X#X#X#X;X$X@X;X:X;X$X:X;X:XL.:X-X@X@X#X#X@X@X@X$X-X@X@X:X$X#X#X$XT.oX$X#X#X$X#X#XoXoX*X",
"Y.Y.D.Y.D.Z.T.Y.D.S.L.L.+X+XD.L.L.L.+XD.L.L.:XL.+XA.D.@X@X$X#XL.+X$X$X@X+X+X@X:X:X@X@X-X:X:X@X+X+X-X:X>X@X-X#X:X>X:X-X@X:X=X&X$XT.*X*X*X*X#X#X*X,X*X*X",
"-X~.-X-XY.+XY.,X-X+X~.k.k.S.#X-XN.j.k.+X;XD.N.M.S.L.$XZ.s.M.;X$X@Xk.s.B.:X:XD.s.k.#X4X;Xk.d.B.:X>XB.y.p.+X4X<Xp.0.l.>X>XZ.8.0.Y.oX*X*X*X*X*X*X4X*X*X*X",
"Y.~.+XY.Y.Y.#XY.-X-Xk.2 ; <.:X:XU ; 4 A.>XS.f ; W :X:X! o 9 U.4XS.7 = K 4X<X0.= 2 Z.5XD.9 . D 4X>X8.@ 2 N.4X:Xn X S 5X5X2.X = N.*X*X*X*X*X3X,X*X3X*X*X",
"-X+X-X-X#X-X;X;X-X-XM.3 & U >X:XY @ ; B.>XD.y + I L.>X! & > !.=XA.f + o.4X4X0.@ t ~.4XY.z w -.:X>X9.& ] /.=X<XA w ,.5X5Xw.t .._.*X*X*X3X*X*X*X*X*X3X3X",
"^.;X;X;X+X+X+X-X-XY.S.( Q d.@X;Xg.%.Q +X:XL.9.Y g.L.-Xl.8.9.+X$X+Xy.9.G.<X$XS.y.f.2X$X#XM.h.}.$X:XD.s.Q.2XOX$XN.Q.{.$X:X.XR.fX1X*X*X3X*X*X*X*X*X*X*X*X",
"+X^.+XY.^.-X+X+X-XA.+X@X:X:X@X+X@X@X$X-X+X-XL.@X@XL.+X>X:X:X$X$X@X<X>X$X:X$X$X:X>X$X$X$X:X&XOX$X+X>X>X&X$X:X$X4X4XOX$X$X4X=X%X*XT.*X*X*X*X*X*X*X*X*X*X",
";X^.^.+XY.;X+X+X-XA.+X+X@X@X+XA.L.#X@X$X#X#X@XXX@X+X@X&X4X$X$X#X@X4X>X:X$X$X:X>X<X$X:X<X<X4X>X#X@X$X:X4X$X$X:X*X<X:X$X:X:X$X<X$XoX,X*X*X*X*X*X*X,X*X*X",
";X;X#X;X+XY.Y.+X+X+Xx.H H i.#X+X5.U W D.#XY.^ L d.#X:Xp.U W Y.*X+XE S w.:X<Xy.S W +X4XY.U S u.:X>Xy.m H +X:X;XU m 2.>X=Xu.h l Z.oX*X*X*X*X*X*X*X*X*X*X",
"Y.;X^.Y.+X-X;X+X+X+Xk.: & W $X;XI @ - Z.@XS.y . U .X:XU . < T.=XI.4 O I 4X4XE X 8 I.&XU.3 + / $X&X%.. d ~.4X;Xz # =.4X5X3.& ' R.oX*X,X*X*X*X*X*X*XoX*X",
"#XY.+X+X+X+X+X;XY.+XM.f < W $X$XQ < < v.@XS.x > T #X$X<.3 d !.&XA.c , &.4X:X9.< o.1X&XY.b s E.XX>Xp.4 >.6XOX:XI +.pX$X>Xi.C eX`. X*X*X*X*X*XoX*X*X*X*X",
"Y.+X+XY.Y.+XY.;X-XY.Y.M.M.Z.@X.XZ.N.z.A..X.XM.k.B.+X@XD.N.B.#X#X.XZ.V.Y.@X$XT.Z.~.$X$X$XD.U.;X@X@X+XD.~.@XOXOXT.+X-XOXOXXX#X#XoXoX*X*X*X*X*X*X*X,X*X*X",
"-X^.Y.+XY.+XY.#X+X+X#X@X*X#X.X#X#XXX#X.X.X#X@X@X@XA..X@X$XOXOX@X@X$X&X@X@X.X$X=XOX#X$X@X$X%XOX#XXX@X&XOXOXOX@X%XOX&XOXOXOX&X%XOXoX*X*X*X*X*X*X*X*X*X,X",
"+X;X+X-X#X+X;X+X+XT..XI..X+X#X#X.XI.+X.X#X+XA.I.+X+X.X.XI..X@X@X.XA.A..X#XXXI.A.I..X@X#XZ.B.+XOX.XA.B.Z.@XOX@Xx.x.n.XXXXb.j.v.oXoX*X*X*X*X*X*X*X*X*X*X",
";XY.^.+X+X#X#X;X#X+XM.h f 3.$X:X( 9 h b.@XZ.m 9 2.@X#X^ 9 m D.&XZ.h 2 E 4X$X^ 2 j I.&XS.j 2 L $X&X8.2 f D.>X+Xn ; U =X=X<.- 8 B.*XoX*X,X*X*X*X*X*X*X*X",
"Y.#XY.#X+XT.+X:X#X.XM.: + E $X;XY @ % x.$XD.y O R @X$X! & , S.:XA.4 # o.4X$XW + s ;X$XY.8 w F.&X:X8..  .}.OXY.z ` qX%X4X4.e 9X`. X*X*X*X*X*X*X*X*X*X*X",
";XY.Y.;X+X#X#X#X^.#XN.B v 0.&X$X9.b c Z.$X+XU b r.:X$Xw.Z Z ^.>XY.! Z G.>XOXd.Z ;.7X*X#X&.*.jX@X@Xz.T uX6X%X@Xq.;.dX$X=XA.t.pX1X X*X*X*X*X*X*X*X*X*X*X",
"^.#X,XY.+X-X#X+X+XA..XY.Y.+X@XT.+X+X#X+X#X+X@X@X+XY.+X$X:X:X@X#X.X@X:X@X#X@X:X$X$X@X$X:X:X:X@X.XL.@X4XOX@X@X@X$X%XL.@X@X*X%XXXXXT.*X*X*X*X*X*X*X*X*X*X",
"T.Y.T.T.+XY.T.T.Y.Y.+X#X#X+XY..X@X@X@X.X.X+X#X@X@XA.+X@X$XOX#X#X#X$X:X$X+X+X$X>X*X#X#X$X>X>X>X+XA.$X:X$X@X#X@X$X:X$XXX@X@X$X$X.X XoX*XoXoX*XoX,X*X*X*X",
"+X-X;X;X+X+X#X#X+X+XY.k.k.S.:X:XM.p.s.+X<X#Xs.p.Z.@X@Xc.y.s.#X<X#Xy.y.B.<X<Xx.0.u.;X&X#X3.1.l.$X@Xk.1.0.#X$X#X2.E u.=X%Xj.E L I.*X*X*X*X*X*X*X*X*X*X*X",
"+XY.+XY.Y.;X#X#X+X#XB.2 % ^ <X:XU = : Z.4XS.9 o Q :X#XE o 8 S.4XB.2 o / 4X<XW X y -X4XU.4 + &.&X$X%.X s ^.&X;Xz w -.&X5X<.* } Q.oX*XoX*X*X*X*X*X*X*X*X",
"Y.+XY.+X#X#X#X#X;X;XB.3 * ~ <X*XT > % Z.&XU.v $ _ $X:XW * 6 !.4Xb.9 q F.4X4X2.; +.3X$X~.z p sXL.-X9.> 0X8XOX;XN } kXOX5X3.s yX[. X*X*X*X*X*X*X*X*X*X*X",
"+X-X+X#X#X#XY.#X+X+XT.e.r.z.<X$Xz.w.t.T.$X+Xs.t.B.+X@XN.t.p.+X$X.Xk.g.!.$X$XD.g.V.:X$X;XM.M.1X+X@XD.M.(.:X$X$XZ.V.^.$X$XI.U./.*XoX*X*X*X*X*X*X*X*X*X*X",
"Y.;X-X#X#X#X#X#X#X#X$X<X<X$X$X#X:X*X*X#X#X#X<X4X:X.X+X$X=X<X$X$X$X4X=X=X*X#X<X5X=X$X$X<X4X4X<X+X.X$X4XOX@XXX$X&X&X%X$XOX=X=X%XOXoX*X*X*X*X*X*X*X*X*X*X",
"#X#X+X+X#X+X#XT.#XT.;X$X$X$X#X#X#X+X@X.XoXoX#X$X$XY.#X<X<X:X@X*X#X:X#X@X$X*X#X$X;X$X$X*X+XT.@X#X@X#XA..X@X$X@XD.A.L.$X$X.Xn.m.oX X*X*X*X*X*X*X*X*X*X3X",
"Y.Y.T.#XT.#X#X.X+X+XB.V m e.$X#X2.c V A.$XY.V b s.#X$X3.c H T.4XT.V g ) 4X*X3.z D .X4XU.k y e.$X@X2.7 Z D.%XD.m 9 ( &X=X<.6 0 U.*X*XoX*X*X*X*X*X*X*X*X",
"#X;X#X;X#X#X#X#X+X#XB.1 $ J <X$XY @ = B.>XB.3 . %.$X$XK $ , ~.=XZ.8 O *.4X<XW . ] 3X*XU.: ' gXXX$X(   0X1XXXA.y [ iXOX4X^ w 9X`. X*X*X*XoX*X*X*X*X*X*X",
",X;X,X#X#X#X#X#X+X#XB.N u ( <X*X8.z v Z.$XS.V y t.:X$X2.v C ^.&XI.S b F.<X<Xy.b -.7X*XY.J *.fXXX$Xs.V uX1XXX+XQ ,.gX*X=Xj.$.iX). X*X*X*X X*XoX*X*X*X*X",
"Y.Y.#X#X+X+XT.#X#XI.#XY.^.+X$X$X+XY.Y.#X#X#X+X~.-X+X@X:X;X#X*X$X$X,X,X;X*X$X;X<X<X$X$X$X>X:X$X.X+X$X<X@XOX%X$X>X*X#X$X*X*X=XOXOX X*X*X*X*X*X*X*X*X*X*X",
"+X+XT.+X+X+XT.+X@XT.$X=X$X$X#X@X$X@X$X#X#XOX:X$X$X.X@X>X4X=X#X$X:X4X=X=X*X*X4X5X4X*X$XOX4X4X>X#X.X&X4X&XXXOX$X&X=X=XOXOX*X=X=X%X X*X X*X*X*X%X*X*X*X*X",
"+XT.+X+XT.+X+X+X+XT.I.k.s.T.$X#XB.d.z..X@XT.z.k.Z.+X@XZ.s.x.#X$X.Xz.s.A.*X#XB.s.k.OX$X#Xs.u.b.#XXXb.p.u.XXOX#Xd.3.v.OX%Xb.3.4.I. X*X*X*X*X*X*X*X*X*X*X",
"+X+X#X#XT.#XI.#X#X.Xz.2 o ^ *X:XY = 7 I.*XU.0 o ~ $X:XH o 0 Y.=Xc.2 o &.4X<XK X b #X$XB.< < f.XX$X~ . O.-X%X+X9 a F. X=XP > :.U.I.*X*X*X X*X%X*X*X*X*X",
"#X+X#X#X#X#X#XT.I.#XB.8 $ K =X*XY > % T.*XU.u O T $X:XU * , U.=Xx.9 q ;.*X$XU & #.7XOXS.3 ] hXXX:X( $ rX7XOX-Xu  .lX X=X<.a yX]. X*X*X%X*X*X*X*X*XoX*X",
"Y.T.#XT.#XT..XT.+X+XT.2.&.s.<X*Xs./ T I.$XT.2.T s.#X#Xk.&.%.T.$XI.0.( C.=X#Xs.8.h.<X$XT.0.f./..XXXN.0._.;XOX@Xp.G.'.oXOXn.h._.#X XoX*X*X*XoX*X*X*X%X*X",
",X#X#X#X#X#X.X#X+XT.#X<X#X<X#X#X$X$X#X#X@X@X:X*X$XI.+X*X&X&X$X@X@X4X=X$X@X.X&X4X:XOX@XOX*X*X@XoXXX%X$XOXXXOX$X&XOXoXoXOXOX%XOXOX X*X X*X*X*X X*X*X*X*X",
"^.#X#X#XT.#X#XT.#XT.<X<X<X$X#X$X*X#X*X#X#X*X<X<X$X.X@X*X=X*X*X$X$X<X*X*X$X$X4X<X4X$X@X$X=X<X$X@X#X$X$X&X$XOXOX$X$X$XOXOX=X$XOXOXT.*X%X*XoX*X*X*X*X*X*X",
"oXoXT.T.#X#XT.oX+X#XT.) ~ z.*X#Xs.^ ) I.*XI.2.~ z.#X$Xy.Y ) #X*XI.E L s.*X*X6.I ) $X=XT.H H i.OXXXy.V ( ;X%X+XK V u.%X=X6.M Y I. X*X*X X*X%X*X*X*X*XoX",
"T.oXT.#X#XT.oXoX+X+XM.1 . Y =X$XT % % c.=XU.8   _ #X$XJ . , U.=Xc.: $ J.4X<XH O X.1X$XB.1 d dX X@X&.. >.6XOXT.8 } sXOX=X~ e rX`. X*X*X%X*XoX*X*X%X*X*X",
"#XT.oXT.#X#XT.oX.X+XB.g , E *X$X( 3 < B.*XZ.z , / @X$X~ 8 i Y.=XA.g r H.*X*X^ 3 O.3X&XS.z +.hXL.@X8., iX3XOXY.b :.hX X=X4.C tX{. X*X X*X*X*X*X*X*X*X*X",
"#XoX#XT.#XT.#XoXT.#X;XB.C.T.*X#XI.B.M.#X#X.XB.M.A..X#XT.S.B.#XOXoXT.U.^.$X@XY.S.U.*XOX$XY.Y.#X.XL.+XD./.$XOX$XY.U.:X$XOXoXT.^.$X X*X*X*X*X*X*X*X*X*XoX",
"T.T.I.I.I.I.I.I.T.T.#X+XoX.XI.I.#X#X.XI.I.I..XI.I.m.I.oX@X#XXXI.I.@X@XXX+X.X.X$XOXoX.X.X#XXX+XA.L.@X$X@X#X#X.X$X$X$X#X.X#X%XOX.XT. X XoXoXoX XT.I.%XoX",
"T..X.XT.T..XT.oX#XI.I.n.I.m.|.I.I.Z.A.|..XI.I.I.I..X.X.XY.Y.$X$X#XI.T.I.XXOXY.A.I.#X@X#XD.b.I.#XXXI.B.A.OX$X#XS.N.I.$X*XI.c.x.#X*X X*X*X*XoX*X*X*X*X*X",
"oX#XT.#X#XT.oXT.I.I.x.g 8 ^ OXoX^ 7 g n.oXU.k 8 1.#X*X^ 2 n D.$Xc.j y f.$X$X) 2 F <X*XS.9 v K.@X:X( = ,.,X$XI.f ] _.$X4X<.8 0X).*X*X X*X*X*X*X*X*X*X*X",
"T.#XT.#X#XI.#X#X#X.Xz.2 $ J *XoXY % % x.OXS.0 O R @X$XE % , S.OXx.: q W.$X:XW + X.7X%XR.: { hXXX>X%.+ wX8XOXY.8  .lXXX4X^ p yX{. X*X*X*X*X*X*X*XoX*X*X",
"T..XoX#XT.oX#XT.I.I.B.H Z 7.#XoX0.N B Z.@XU.U N 0.XX$Xy.F R Y.OXI.K R Q.$XOXy.B -.2X%XI.Q -.]..X$Xz.Q E.2XOX#X9.F.fX@X=Xv.&.pX1X X*X*X*X*X*X*X*X*X*X*X",
"#X#XI.T.#XoXI.I.I.I..X.XT..X.X|.I.I.+X.X.X.X.X.X.XI.XX@X@X:X@XoX#X$X<X$X#XoXOX<X<X$XOX$X&X$X@X.X#X4X4X:X$X:X$X=X*X$X$X$X*X*XOX%XoX*X%X*X*X*X*X*X*X*XoX",
"T.#X#X#X#XT.#X XI.m..XOX$XoX|.I.XXXX.XL.|.|.XXOX.X.X.X$X&XOX#XXXXX$X>XOXOXOX:X=X*X$XoX$X=X=X=XoX@X:X=X&X$X@X$X=X4XOX$XOX*X=X%X*XoX*X X*X*X X X*X%X X X",
"T.oXoX#X#X.XT.oX.XI.n.3.3.v..X|.j.4.7.I.I.I.y.3.x..X@Xj.2.a.+XOXI.3.r.z.$XOXj.3.s.$XOXT.2.2.B.XX$Xz.^ t.$X$X+X2.%.V.OX$Xj.~ g.^.oX*XOXOX*XoXoX*X%XOX$X",
"T.T.I.#XT.#XI.#X.X.Xz.: o K OXoXI o - b. XI.0 $ Y .X$XE . +.). Xb.5 * F.oXOXK . +.,XoXB.: ' dXL.$X~   >.1XOXI.8 ' aXOX=XW , eX{. X*X*XOX X*X%X*X*X$X*X",
"oXT.oXT.#XoX#XT.I.I.j.7 * J OXoXL > : v. XU.9 $ R XX$XE % @.'.OXn.4 q H.$X$X~ & #.1X XS.9 } gX X:X9.% 0X8XOX.Xx } aXXX=X3.t eX[. X*X*XOX*X*X*X%X*X*X$X",
"#XoXT.oXT.T.T..X#XI.n.7.r.z.oX.Xj.r.e.I..XI.y.r.z.XXXXx.y.G.#XOX.Xy.a.~.$X*Xx.e.K.,XOX#Xs.K./.@X$XS.g.(.<X%X$XM.C.).$X$XI.C.(.,X XOX*X*X*X*X*X*X*X*X*X",
"T.oXoXT.T..XT.I.I.I.|.XXOX.XXX.X#XoX X.X.XoX@XOXXXA..X$X*XOX@X#XOX=X=XOXOXoXOX=X$XOXOXoX=X=X*X@X.X=X4X%X<X*X*X4X=X&X*XOX$X=X%X*XoX*X*X*X*X*X*X*X4X*X*X",
"T.T.T.oX#X#X#X#XT.A..XI..X.XI.|..XXX.X|.|..X.X.XXX.XXXOX$X*X@XOXOX$X*X*X@X$XOX*X*X$XOX$X$X*X$X@XOX:X<X$X$X*X$X#XoXOX$X$XOX$X|.$X X*X*X*X=X*X*X*X*X4X4X",
"I.T.oXT.#X.X#X.X.XI.x.D M 4.XX|.2.M G m.OXn.H N y.#X$X2.m I I.$Xn.H M 7.$X$X3.m &.#XOXU.V Z h.OX$Xe.c ;.,X%X#XV O._.%X=X3.C P.).%X*X*X*X*X=X*X*X*X4X*X",
"I.T.oXT.T.I.I.I..XI.j.4 $ J OX.XY % o v.XXB.8 O W XX@XH + , I.&Xb.2   I =X*XY . +.,X%XS.9 # &.&X$X&.O @.3XOX.Xu | iXOX=X<.p tX{.%X*X*X*X*X*X=X=X=X*X*X",
"I. XI.I.oXT.T.oX+XA.l.x u ( XX.X( y v Z.XXZ.m r r.XX@XW y C Y.%Xn.c y 9.<X$X) y *.1X%XS.A d y.&X$X0.z o.;X*X+XI +.G.$X=X5.X.qX'.$X*X*X*X=X*X*X=X=X*X*X",
"I.T.I.I.T.oXT.T..Xn.m.b.S..XXXL.A.Z.Y..X.X.XD.Y.+XL.+X+X~.~.@XOX.X+X~.$X$X$X@XT.;X$X$X@X+X;X$XXX#X:X;X:X*X*X*X#X:X$X$X$X@X$X:XOXXX$X*X*X*X*X=X=X=X*X*X",
"I.I.I.I.I.I.I.I.A.n.m.A.A..Xm.A.A.L.A.L.L.A..X.X.XA.+X.X+X.XXXL..X@XXX.X.X.X.XXXXX.XXX.XXX.XXX.XL.XXXXXXXXXX.X.XXXXX.X.X#XXX.XXX|.OXXXoXoXoX XOXOXoXOX",
"I. XI.I.I.I.I. X.XA..X.X.X.X.X.X#X.X.X.X.X.X#X.X.X.XXXXXXX.XXX.X.X@XXXXXXXXX|.XX|.|. XXX|.XXXXXXXXXX|.XXXXXXXXXX%X@XXXOXOXOXXXOXoXOXOXOXOX%XOX%X&X%XOX",
"T. X XoXI.I.I.oX+XA..X.X.X#X.X.XXX.XXX.X.XoX.X@X@X.XXX@X@XXX@XXXXXXXXXXXXXXXL.XXXXXX@XXXXX%XOX@XXXXXXXOXOX%XXXOXOXOXOXOXXXOXOX%XOXOXOXOX%XOXOX%XOXOX%X",
"oXT.I.T.|. X XI..XI..X#XXX.XXX.X.X.XOX#X.X.XXX.X@X.X+XXXXX@XXXXX@XXXXXXXXXXX%XXXXXXXXXXXXXXXXXXXXXOXOXOXOXOXOX%X%XOXOX%XOX%XOX@XOXOX%X$XOX*X*X%X&XOX$X",
"I.oX.X.X.X.XT.oX.XL..X#X.XXX.X@X.X.X.X@X@X$XoX.X@X.XXX@X@XOX@XXX@X%X@X%XXX%X%XXXXXOXOXOXXXXXOXXXOXOXOX%X%XOXOX&XOX%XOX&X%XOX@X%XXXOXOX%X$XOXOXOXOX%X&X",
".X.X.X.X.X#XI.oX+X.X@X@X.X#X@X@X@X@X@X@X@X@X#XOX@XXXXXOX@X@XOX@XXXXX@X@X@X%X&X@XOXOXOXOX%X&X&X@XOX&XOX&X$XOX%X&X$X&X%XOX&X$X$X%XOX&X$X%X&X%X=X*X$X&X&X",
".X.X.X#X@X+X@X@X+XL.+X@X@X@X@X-X>XL.:XL.>X@XL.>X$X@XL.@X&X%X@X@X@X%X@X$X$X@X%X@X$X&X&X&X>X>X>XL.XXOXOXOXOX$X&X&X$X$X&X&XOX&X%X$XOX&X&X$X&X&X&X&X&X&X=X",
"#X.X.X#X-X@X@X@X#X+X:X@X@X@X@X@XD.>XD.:X@X@X>X@X>XL.@X-X>X@X$X>X@X@X&X$X&X@X-X$X:X$X>X>X>X>X>XL.$X&X4X4X&X&X>X$X$X=X$X&X&X%X$X%XOX&X&X&X&X&X>X=X=X&X=X",
"+X+X@X+X-X;X;X-X@X-X-X@X:X:X-X:X>X>XL.>X:X:X:X-X:X-X:X:X-X>X>X:X:X>X:X$X>X:X:X>X:X>X:X@X>X:X>X>X>X5X4X:X:X4X4X>X:X&X&X&X@X>X>X&X$X4X&X&X>X>X>X>X>X$X&X"
};
