/* XPM */
static char *_faf9549ee154bfea725a8e64cc7c9267kWZmWhPsGGknE2I[] = {
/* columns rows colors chars-per-pixel */
"75 75 142 2 ",
"   c #010202",
".  c #020609",
"X  c #060A09",
"o  c #0B0C0B",
"O  c #100E0F",
"+  c #0D0E12",
"@  c #0E1115",
"#  c #0E1319",
"$  c #121315",
"%  c #161817",
"&  c #13161A",
"*  c #151A1D",
"=  c #191B1D",
"-  c #161B21",
";  c #1A1E22",
":  c #1D2226",
">  c #1F2429",
",  c #212326",
"<  c #21262A",
"1  c #24292E",
"2  c #232730",
"3  c #262C32",
"4  c #292E33",
"5  c #2C2F38",
"6  c #273035",
"7  c #2B3136",
"8  c #2D333A",
"9  c #2F383D",
"0  c #31363C",
"q  c #33393E",
"w  c #333740",
"e  c #333A40",
"r  c #333A42",
"t  c #323941",
"y  c #353841",
"u  c #353A40",
"i  c #343B41",
"p  c #363B41",
"a  c #353942",
"s  c #343B43",
"d  c #373A43",
"f  c #373C40",
"g  c #353C42",
"h  c #373C42",
"j  c #363D43",
"k  c #373B44",
"l  c #363D45",
"z  c #373E44",
"x  c #363F46",
"c  c #363B41",
"v  c #383B42",
"b  c #383D41",
"n  c #383D43",
"m  c #393E42",
"M  c #3B3E43",
"N  c #3A3F43",
"B  c #383C45",
"V  c #3A3D44",
"C  c #393E44",
"Z  c #383F45",
"A  c #3A3F45",
"S  c #393D46",
"D  c #383F47",
"F  c #393E44",
"G  c #3B3F48",
"H  c #393E48",
"J  c #374045",
"K  c #3B4044",
"L  c #394046",
"P  c #3B4046",
"I  c #3A4147",
"U  c #3C4145",
"Y  c #3C4147",
"T  c #3D4246",
"R  c #3E4347",
"E  c #3B4146",
"W  c #3A4149",
"Q  c #3B424A",
"!  c #3A434A",
"~  c #3E4148",
"^  c #3D4248",
"/  c #3C4349",
"(  c #3E4349",
")  c #3F4448",
"_  c #3D444A",
"`  c #3F444A",
"'  c #3F474A",
"]  c #3F434C",
"[  c #3C454C",
"{  c #3E454D",
"}  c #3D464D",
"|  c #3F464E",
" . c #3E4349",
".. c #3F484F",
"X. c #3F484E",
"o. c #3F4650",
"O. c #41444B",
"+. c #40454B",
"@. c #41464C",
"#. c #40474D",
"$. c #42474D",
"%. c #41464C",
"&. c #41484E",
"*. c #43484E",
"=. c #42494F",
"-. c #44494F",
";. c #43494E",
":. c #434750",
">. c #404950",
",. c #424951",
"<. c #414A51",
"1. c #434A52",
"2. c #424B52",
"3. c #454A50",
"4. c #444B51",
"5. c #464B51",
"6. c #444B53",
"7. c #414C52",
"8. c #434C53",
"9. c #474C52",
"0. c #454C54",
"q. c #454E55",
"w. c #464F56",
"e. c #444B52",
"r. c #484D53",
"t. c #494E54",
"y. c #484E55",
"u. c #455056",
"i. c #475057",
"p. c #465057",
"a. c #4A5156",
"s. c #495158",
"d. c #495259",
"f. c #4A535A",
"g. c #4E5359",
"h. c #4C535A",
"j. c #4F585F",
"k. c #51565C",
"l. c #51595D",
"z. c #4E5760",
"x. c #4F5961",
"c. c #535B63",
/* pixels */
"R  .P R K R < b $.` R  . .A A A A 0 8 0 Q h h h l h h A U N U +.: : q P K R P P h d P P h d P 3 ; ; 1 1 3 4 4 1 3 4 4 4 7 1 , = ; q m q U U U U R R  .",
"R  .A d R 3 ; 7 q R P q A b b A h 0 0 0 q d h e h b d h f M O.+.1 : J ' ` ` P ` $.b b P b 8 3 * ; # > 1 < 1 < 1 3 3 3 1 1 , , ; = 7 q m b R U q R $.` ",
"R  .` 3.8 & : 6 4 7 b R P  . .A s 0 7 7 8 h q e 9 q q h O.U 0 0 1 : : 1 0 R `  .R q b $.8 : ; ; * : 3 1 1 < < < 1 < 3 3 < : = : , 1 1 4 8 q O.O.b  .` ",
"3.3.*. .: * * 3 4 4 7 K R h e A w 2 3 5 8 q 9 q h h R h 0 1 7 7 % = : : : < h 6.$.R R 7 : : ; : 8 h h q q q q 6 < 1 < < : : = : 1 1 1 4 3 4 7 O.g.t.-.",
"+.` $.1 = = ; 3 3 4 4 4 8 $. .7 : - 2 8 7 8 8 q h q 8 3 3 4 7 4 = $ = : > < > 7 K 6.8 > : > 7 d P q q h q h P P q 8 0 7 3 : * : < 1 4 4 3 4 4 1 R t.U ",
"4 3 4 ; ; * : 1 1 4 4 1 < 7 < = ; ; 6 6 7 7 8 7 1 < 1 1 3 4 4 3 < & * > < < , > : 7 , : 8 d A A h h h d h P P h b b A P J q 6 > < < < 1 4 3 3 4 < 1 3 ",
"7 4 1 ; ; * * > < < 1 3 8 3 - - - ; 6 7 7 2 < 1 1 6 0 0 q q q q q 0 q q 0 6 4 < > 1 > ; 1 q A h b P P P P P P b P P P h h h K b 7 < 1 1 1 1 1 4 3 4 4 ",
"4 1 1 ; ; * * > 7 h Q <.s.q...l 3 3 > : < < < > 1 R R P O.U O.U R b h h q q s q 3 > > ; : < q  .P P P h P P P P P A l P h h h h q 7 < < 1 1 3 1 4 1 3 ",
"3 < > ; = & : <.i.s.i.8.<.<.8.i.q.[ 9 3 ; : : < R G A R A  .R A h q v d q 8 0 7 : > : = ; > < 0 R A A b R A A P P l b A d d b b b h 8 , : , , , < 1 1 ",
"1 > 1 : * - Q s.*.q.i.<...8.6.<.8...H 9 7 2 : G +. . .R A  .A R h s A h q q h > & : : ; ; > > < 4 A  .G A  . .R R A  .A A A A d h q q d 7 > , , , < 1 ",
"< < 2 : # 6 s.} <.} } P h d h J ! l 5 3 8 3 3 -.+.3.G +. .A  .$.A G P b h h 4 $ & ; 3 e 8 : : 1 1 3 b R  . .R A  .A A  .R P A h q h q d q 0 : = : = : ",
": : 2 ; ; 2.8.*.P h d q h d q d t d 7 0 7 * 4 3.+.3.r.3.3. .A A R  .P A P q % : 8 q d q q 0 < > 1 1 3 R +. . .R  .R  . .P P P d h P b h q K 0 1 = : = ",
": = , ; 8 ` J q l G b P P h q h w 0 0 1 * % ; < < 3 8 v +.>.O.O.[ +.P 0 3 : & 0 l e q q b b d 3 1 1 < 1 R -.$.` `  .` ` P P h h A A b d 0 d e e 4 = , ",
"= = = > l d b P P  .P b P K P ! 0 8 , = & = - 4 0 w 0 0 4 4 A G 8 1 3 < : ; > 0 d b P q d A b P 7 1 1 1 1 R *.$.+.` ` ` ` P ` P P P l e q 0 d 0 q < = ",
"< = = 8 Q A  . .+.` P P K R K 6 3 , % & = 4 R A R A R A b A 0 8 w 0 d 8 7 < 8 d h P b d A A A b R 0 < 1 4 4 R 6.6.*.` ` ` ` P P b P h d h d v q 8 8 0 ",
"8 = , `  .G M } +. .P ` *.q < > ; < < 4 A R  . .A A A A A A b 0 0 v 0 8 8 = q P h h l P P P Q l G M 8 1 1 1 1 b q R *.*.` P h A A h s R 8 7 0 0 7 8 0 ",
"1 % q  .G G R $.+.+.3.3.0 ; < : 1 d P  . .R R  .+.A A  .A b b d q q 0 q = $ h V G s A A R R R U U A b 0 < < 1 6 < 3 7 m +.O.O.K q G R 1 = 5 q 0 q q q ",
"< % 1 V O.O.-.-.q.j. .: ; : : : < h  .R $. . . . .$. .R A A A b q q G 4 o < H R R A R  .R $.R m $.R A  .h 1 1 1 1 1 4 < 4 q +.U 0 0 = O 6 h d q h q h ",
"< = % 2 5 4 q *.l.4 & - : ; : ; : > 0 $.+.-.O. .R  .} R  .A G $.O.7 < % % q Q G  . .R  .$.` #.;.A O.R G q < : < 1 1 1 1 1 1 4 q : % + 1 A d b A P P 8 ",
"1 ; = , < 1 < 1 6 2 ; = = ; ; - : < : 6 A 3.t.0.r.3.-.*. .+.A 4 , = = O , q A A R O.$.` $. .U O.+.+.0 3 > : : > < 1 < 1 1 < < , % $ = e V A Q Q  .P 1 ",
"< : % & 1 3 q 0 8 d < ; - - - * ; : > : : 0  .0 8 h h P O.4 : & = = = O % : 1 1 1 7 8 R -.-.9.9.+.7 > : : : ; : > < < < 1 < < : % $ 4 d q U N O.P < : ",
"> : = & q -.-.$.+.Q l l 8 5 3 3 3 2 2 2 < 1 < - ; ; ; : , & % = % = = , 1 0 7 1 < 1 < 1 8 0 q ;.4 ; < : ; ; * : = : > , , : : = $ = A A K U O.-.> : : ",
"> = , R 6.6.` *.} +.J ` Q Q e 8 t 9 6 8 3 7 1 ; : : : ; : = > 6 0 q M b G b b v 8 < 1 < 1 1 1 7 1 ; : : * > 3 3 7 6 1 1 < < ; % $ 4 P b ` #.r.7 ; : : ",
"> = < U g.s.6.6.3.>...! P P e 0 8 8 8 8 6 7 5 3 ; ; ; 3 0 q h l d q v d v q v q q q 8 < 1 3 1 3 < : : ; 1 h e h h b q q h q 0 > $ < 7 7 b b q , : : ; ",
": * 1 1 *.j.i.i.i.-.*.#.}  .e e J 8 q 4 6 6 6 2 > > 6 l s e w d 0 0 w 0 d e 0 e 8 0 e 8 3 < > 1 : : : 4 A A h d b b q q A d h h 0 8 7 4 6 7 7 4 ; : ; ",
"; : 3 1 6 g.g.q.r.6.6.*.*.Q [ G J s 8 7 6 8 t 2 2 6 6 t 8 w 0 8 0 0 0 0 0 q e 8 e 8 8 8 7 1 < : ; ; 8 P A A h 0 P A A h A h h q h q q 0 3 7 7 0 > & ; ",
": : 3 1 > 6 f.f.q.*.6.8.<.} ! Q l s s 8 8 8 6 2 6 t t 5 5 7 5 t 7 0 0 0 t t q 8 q t 8 9 8 4 $ : = : A P A A R b h A b h b h h h q h q 0 8 4 4 4 1 : = ",
"* : > > 3 > 7 2.s.i.i.-.8.*.` l J H s 8 8 6 6 6 6 5 t 6 8 6 6 8 8 6 0 8 t 7 8 8 8 8 4 3 8 #   $ > h A q A A A G P P P A P h q q h d h q q 7 1 1 1 : & ",
"2 6 7 8 8 8 2 3 *.g.s...q.<.<.` [ Q s l 8 3 6 3 5 2 6 t 6 t 8 t 6 8 8 8 7 8 8 6 6 6 4 7 < o   ; } } A G R G P R ` P A  .P P h h l h A h b q 1 > > > : ",
"A A q e l 8 t 7 3 ..c.z.8.` *.*.Q Q J P e 6 2 6 2 t t 6 6 2 t 6 6 7 8 7 6 8 l H d 0 7 3 ; % , O.` A A R  .A  .A ` $.P A P  .A A P b b d h q 8 1 3 q s ",
"G A h q l t 8 6 6 6 l J i.c.g.a.8.+.` b 3 > 2 3 2 t t 2 6 2 2 6 t s P P P P Q Q ` b A 4 < ; 0 G A  .R R  .+.` R `  .R P P A P P h h q d q q d 0 h b l ",
"A l e h e e 8 8 8 8 > + * 6.q 7 3 < > : ; : 2 3 6 2 2 6 6 t x o.` Q ` ` ` ` ` P P l d V V 0 8 d A  . . . . .$. . .A $. . .A A A P b h q b A q l A J h ",
"J q q h h e h 8 8 , O = : < : , : , : : : : > 1 2 2 3 8 5 $.-.-.` +.R $.$.R  .v h b A l h q 0 0 P +.R P ` $.R *.*. .R b R A R A V A l b 8 : 7 O.b G v ",
"Q l  .h d 9 8 q 3 $ $ < 1 < = > , : ; = ; : > > > 1 1 1 7 *.$.-.6.6.R ;.$.R  .R h q d h h q q q 7 R -.R +.$.*.+.3.+.$.$. . . . .O.O.0 , @ , O.O. . .R ",
"` P ` h h s q d ; $ = 3 6 3 1 7 6 3 3 7 8 q q 8 6 > , > b 3.+.-.-.-.r.-.+. . .R d q q P d q q 0 0 4 b -.$.-.-.+.+.+.+.+.O.O. .q 0 < % $ % v } +.-.+.b ",
"$.A K q h h 0 1 = % 7 q q q h b b q h s l b q q q 7 3 1 q q K $.-.-.;.;.O. . .A A b K q b b d 0 0 7 1 7 $.+.` 3.r.6.6.r.*.0 1 & % = $ $ % < 8 A 3.+.+.",
"0 q R 6 1 < < , % 1 O.v A d h h b q v d h q q 0 8 8 8 q 8 4 4 7 0 0 0 M $.6.-.$.R R R b q 8 8 < = < 0 1 1 ; ; : : : 0 3 , = $ % = < < = % : < < 3 4 q ",
"1 1 7 , , > < ; < b s b A A P A R b b b h 0 0 q 8 9 8 9 8 8 4 4 7 7 7 7 0 K K O.-.8 < > : : = : < 7 h 0 q 8 0 8 5 4 1 ; & & , 7 h l A h v 0 8 7 4 1 < ",
"8 6 7 3 < < < 1 b R G R  . .P R  .R G l J h d 0 0 q 8 8 6 8 6 4 7 7 7 0 0 7 7 7 0 > : : : ; < K b A A A K b d q s w 8 8 7 0 R R b d q h d 0 q 0 0 7 0 ",
"e 7 8 7 7 3 : 0 Q G R G A P  . .P b l P P K q 8 q h q 8 8 8 8 4 4 7 4 7 0 7 7 7 7 < : > < 8 ` ! b P P P P b h q 0 8 8 0 R A b d A A A d q d q 8 8 8 8 ",
"8 3 8 8 8 3 : - 2 l }  . . . . . . .R G b A d 0 q q e 8 8 8 6 4 4 4 4 7 0 7 7 7 0 , 4 M P h ` ` G A A b R s w e d q 0 R A G  .v b A h d q h h q e 8 8 ",
"8 t 8 7 : - - - & & 3 } +. . .$.+. .A  .A A h d q d 0 8 8 8 8 7 4 4 1 4 7 4 7 7 7 4 ) O.R P R ` v A  .A b G A A 4 4  .$. .A R G A d A h h q d q e 8 t ",
"8 8 1 ; = ; - - - - & < +.+.+. .R +. .` Q b d q l q 0 d d > # = 7 , 4 1 1 4 4 4 4 1 M U P P R *.$.A -. .A 0 3 - o q #.$.3.A R A  .A d A A A b h 0 0 8 ",
"3 ; ; ; ; - * * - ; ; ; 2 O.t.3.3.+.+.3.$.` b h h s A 8 $     & 7 4 7 4 4 4 , 4 1 : , 1 1 1 1 8 A 0 7 3 ; # # . = *.-.+.[ O. . . . .b A A h q d 0 0 t ",
": : : = = & ; 5 b A q q 6 < -.' q 0 0 0 0 7 3 1 3 1 1 $   X ; 7 7 q q q f q 0 7 4 = < < < < 1 < 1 & # # # # - + & 1 0 ` -.+.+.O.R R P A d v b q V q 1 ",
", : ; : < 4 O.O.J I ! P K 7 0 3 , < : : : : , : ; ; ; $ - 3 s e 0 q q M M f q q U m h 7 1 < < 1 < & & # # & & # & 1 1 1 v 5.3.+. .P A A A A b R 0 1 , ",
": : 4 R $. . .R P I P h q K f 7 : 1 > > : < < : ; ; - ; 4 8 8 q 0 q 0 q q M M N O.R R #.0 > < > > - & & & # * $ & < 1 < 1 8 d  .-.$.b R A P b 7 , : , ",
"7 0 d b b b G G ` P h q 8 0 0 0 1 : > : : > : : = - ; 3 8 8 8 0 7 0 q f M q O.N U R K ` R : > : 3 5 6 3 3 3 3 7 3 7 5 3 3 < 1 1 0 M 0 0 7 q 4 ; , , ; ",
"b q q b l A R h l h d 8 e 9 7 8 7 2 : : : * * : : > > 6 6 8 0 0 q q h b A b R K  .+.*. .4 ; 1 8 A s V d 7 s e 8 8 8 6 6 6 2 2 3 < 3 > > < 1 < : : < 8 ",
"q 0 q h e s h h e q t t 8 8 8 6 8 8 2 > > 3 8 J ` ....Q 0 6 8 q q d h A h K R O. .R 6 # ; q P h s d 0 e 8 e t 8 8 7 8 8 6 5 2 3 1 5 1 < < 1 , : 4 0 q ",
"0 7 8 q 9 9 t t e e 7 8 t 6 8 8 8 8 0 0 t l J ! ! ....i.<.6 0 q h A A A P *.#.q < ; ; 3 P P h h A h d 0 q e 9 8 8 8 7 8 6 6 6 3 > 2 1 : > , : , 8 6 7 ",
"0 0 8 8 8 8 9 t 8 3 6 3 6 t 6 8 7 0 0 4 s s s ! <.8.8.8.f.h 1 6 1 0 d b P 6 < < 3 b ` `  . .P P h d b h h e 9 8 9 8 8 6 6 6 > - ; 1 < : : > : < 8 6 7 ",
"7 8 3 7 8 7 8 6 2 6 6 6 6 6 t 5 q e 8 0 0 0 e e <.i.f.s.j.f.q > 1 4 < 1 1 * < q +. .+. .R K R K b A A d s d 8 t t 8 8 8 6 - # # ; : > : ; : ; 3 6 6 8 ",
"7 6 7 8 t l t 2 6 6 5 6 5 6 6 5 8 0 8 q q d b q P ` 8.f.x.z.l.d < 1 < < 1 < K $.$.R +.+.U U K P  .P b l b q q q 8 7 e 3 - 2 5 6 4 6 8 0 0 8 1 1 3 7 6 ",
"3 > 3 3 3 6 3 2 6 3 6 t t 8 8 t 0 0 0 h A h A A K ! a.g.z.j.c.c.1 < < < < < K R $.-.+.+.U O.O.N A A h h A h q 8 q e 8 2 5 t t t e q q q d q h 8 3 3 3 ",
"< : > : : ; 2 2 6 t 2 8 8 8 8 8 0 q h s P P A A ` 8.a.a.j.f.i.7 < < > , * = < < 4 q O.+.+.O.+.O.P A P P d P d h q 3 3 8 8 8 5 w q d q q h h 9 q t 2 > ",
" .A 0 < : : 1 3 w w t t 6 8 t w q h h P A R A O.$.i.a.k.$.7 = # : : : : - * ; 1 3 1 1 0 U U O.N R P l ! ` 8 1 3 1 3 8 8 9 q 0 q q q h h q h J h d q q ",
":.3.+.+.J h J 8 3 3 6 t t 5 8 t q h b P A  . .$.6.l.-.3 = & * ; : 1 6 8 6 2 ; < < 3 1 3 4 1 4 7 h d P h 1 : > > 4 0 8 8 9 8 0 q q d h h h h h l v A R ",
"$.A  .+.} +.*.` l t 2 6 8 e e e h h K K A  . .t.r.8 , ; = < 2 3 7 8 8 9 8 9 8 5 < < < 3 1 1 1 1 1 > 1 > # : 3 8 q 8 8 q q 0 q q q h b h b A P h l h A ",
"A A A  .$.+.Q P H H 6 6 8 8 e d h P ` ` *.} R  .< = ; > 3 8 8 8 8 8 8 8 q 8 t 8 q 7 3 < < 1 4 1 < 1 1 : ; 3 8 8 8 8 9 q q q q d d h A P P h A A l J b ",
"R v d P P R A P ` P h 7 e q h A q 8 3 3 7 1 < 1 , : ; 4 8 8 t 8 0 8 9 9 e 8 e 0 q d 0 6 < 1 < < 1 < > : 2 9 8 8 8 s 9 8 q d b P d b  .P A A  . .q b b ",
"A  .A P A P A P P h h 0 8 8 J 1 : > > : : : 1 , : , 6 8 7 9 7 t q q q h e e e d q q q q 0 0 8 8 7 1 ; > 8 8 8 t 9 e 9 q b b A A q h P  .`  .` A 0 v 0 ",
"A A d h A P b d P h d q q 1 1 < : : , : : : : ; = 4 8 8 8 e e 8 q h q h h h d q d d h q 0 q q h q s 3 2 8 8 7 8 0 q q 9 d d A b A A P P A  .b 8 q q d ",
"s b q q P P h h l l d 9 8 1 > 1 : : : : : ; ; ; ; : 3 8 0 0 9 q d q q h h l h b A b h b q d h h q q q 8 8 8 8 0 8 q q s h b A  . .P  .` ` ` 8 8 0 0 q ",
"e h 8 q q q q h h e q 8 1 > 3 3 3 : : : ; ; ; % & : : < 7 q q q e h b h h P b A A A A A h h d h q q e 8 6 8 t t q 8 h h h J A l  .` ` -.h 3 6 8 0 q 0 ",
"q 9 8 0 q q q e 8 8 7 > > 1 6 8 8 8 8 8 8 e 0 0 7 > : < , 1 q d d h A h A A A l P A A A A b h q h b s 7 8 8 8 t 8 0 h d h b A l ` R q 4 < > < 1 3 6 0 ",
"q q h d e 8 8 7 0 0 3 : < 7 3 7 8 8 8 s e d s s A d < : 1 < 3 q b A b K P P A b  .b A A P l h 0 b A e 7 6 7 8 8 8 0 q d h P P 0 6 , : > < < : < < < 3 ",
"3 3 7 8 0 e e J 8 > > : 8 6 7 8 0 0 8 e l h h h l P K 6 < < < 4 h P A b P A  .`  .A A P `  .h d h b 0 4 Q  .G Q R h P A q q q : : : > < : : : < > > 1 ",
"4 < < 3 1 4 6 q 2 : : 2 t 6 7 0 0 0 d q h q h P A P P 1 ; : 1 < < 0 R ` ` ` P P A  .O. . .R A h A 4 : d +.+. .+.` R P P P q e q q 1 : > : : : : : > > ",
"< < 1 < 1 1 1 1 : ; : 3 6 8 8 0 0 0 h 8 q h h A A } 7 : 6 4 6 4 < 1 4 7 h *.+.` $. . .+.+. .Q 0 < : h $. . . . .P P A h h h d q e 8 : : : : : ; : : : ",
"< 2 1 < < < < 1 > - 2 6 5 6 7 0 q e e h R P P ' s.g.g.j.g.3.-.$.P < > , < 4 l ` +.3.-.Q 8 < > = : A $.+. .A A A b P A b h h q 8 8 h > : : : : ; ; ; : ",
"3 3 3 3 : < < < > - - ; ; ; : < 1 1 3 4 4 4 ` f.j.g.g.i.*.R $.O.9 ; > 4 1 < < 4 h 0 ; ; = & - : A } ` <.+.[  .d q h d h d q q 0 9 1 ; : ; * ; * ; : > ",
"A  .R A 8 : : < ; ; 1 4 3 4 1 : > < < > > 3 a.6.<.3.+.+.3.+.+.} 4 = ; 1 > : 7 d w 8 4 3 ; & & 3 <.` } -.5.3.} V d 8 q e e 8 e H 4 - - - < 3 4 8 0 0 d ",
" .G A A R q < ; 4 -.-.-.3.+.R 0 < : : : 1 ' -.<.3. . .>.>. .l Q 5 ; = ; < 0  .A A A  .A l 6 1 h  .} 6.*.<.<.0.[ G d q Q d e A 3 : - : 8 b h l A A b d ",
" .O. .R A $.0 3 3.r.+.+.+.$.R  .A 2 : ; h <.+.*.<.A b }  .b d A 4 ; ; ; l Q A A R A A b A l l s 8 e <.*.<.<.q.8.+.<.} ..<.A : ; - 3 d h d h A h b A P "
};
