/* XPM */
static char *cfe6fe295a314739c1f4e2aedc8a0fdanQCvpLfikyrtrFg6[] = {
/* columns rows colors chars-per-pixel */
"50 50 128 2 ",
"   c #010302",
".  c #07080A",
"X  c #090C0E",
"o  c #0A0D12",
"O  c #0E1113",
"+  c #0E1319",
"@  c #111413",
"#  c #13161A",
"$  c #161A1E",
"%  c #191A1E",
"&  c #161B21",
"*  c #1A1E22",
"=  c #1D2125",
"-  c #1F2429",
";  c #212326",
":  c #21262B",
">  c #24292E",
",  c #292A2E",
"<  c #262C32",
"1  c #292E33",
"2  c #2A2F38",
"3  c #2C3136",
"4  c #2D333A",
"5  c #31363C",
"6  c #33393E",
"7  c #2F3640",
"8  c #333740",
"9  c #343841",
"0  c #353A40",
"q  c #343B41",
"w  c #363B41",
"e  c #373C40",
"r  c #353C42",
"t  c #373C42",
"y  c #363D43",
"u  c #373B44",
"i  c #363D45",
"p  c #373E44",
"a  c #373E46",
"s  c #353B41",
"d  c #383D43",
"f  c #393E42",
"g  c #3A3F43",
"h  c #383B44",
"j  c #383C45",
"k  c #393E44",
"l  c #383F45",
"z  c #3A3F45",
"x  c #393D46",
"c  c #383F47",
"v  c #3A3E47",
"b  c #3B3E47",
"n  c #3C3F46",
"m  c #393E44",
"M  c #3B3F48",
"N  c #374045",
"B  c #384043",
"V  c #394144",
"C  c #3B4044",
"Z  c #394046",
"A  c #3B4046",
"S  c #3A4147",
"D  c #3C4145",
"F  c #3C4147",
"G  c #3E4347",
"H  c #3B4046",
"J  c #384148",
"K  c #3A4149",
"L  c #394249",
"P  c #3B4248",
"I  c #3B424A",
"U  c #3C4049",
"Y  c #3E4148",
"T  c #3D4248",
"R  c #3F4249",
"E  c #3E4349",
"W  c #3D414A",
"Q  c #3E424B",
"!  c #3D4548",
"~  c #3F4448",
"^  c #3D444A",
"/  c #3C454A",
"(  c #3F444A",
")  c #3F434C",
"_  c #3F464C",
"`  c #3F464E",
"'  c #3E474E",
"]  c #3D4349",
"[  c #3F484F",
"{  c #3F4851",
"}  c #404549",
"|  c #41444B",
" . c #40454B",
".. c #41464A",
"X. c #42474B",
"o. c #41464C",
"O. c #42474D",
"+. c #40474F",
"@. c #41464C",
"#. c #43484C",
"$. c #41484E",
"%. c #43484E",
"&. c #42494F",
"*. c #44494F",
"=. c #43484E",
"-. c #414850",
";. c #404950",
":. c #414A51",
">. c #434A50",
",. c #454A50",
"<. c #444B51",
"1. c #464B51",
"2. c #434C53",
"3. c #444D54",
"4. c #454E55",
"5. c #464F56",
"6. c #444B52",
"7. c #484D53",
"8. c #484C55",
"9. c #494E54",
"0. c #484E54",
"q. c #475057",
"w. c #4B5056",
"e. c #495056",
"r. c #475059",
"t. c #4B5258",
"y. c #4C545B",
"u. c #525B63",
/* pixels */
"E A A w > D  .D j f A 5 5 y y y f w j f *.1 > } } M D h y y u < $ = > , < , 1 1 , = & 3 f j D j } E ",
"E E ! - = 3 5 A A N y 5 4 4 w 8 w w j f 6 3 = 3 e }  .h E w : & & : > : - : > > : = = : 3 5 f ! E } ",
"1.*.3 $ = 3 3 4 A A y - 1 4 4 q y y 5 3 3 * # * * 1 | O.y = * < 6 w 6 6 y 1 > < = % = : > 1 < 6 9.9.",
"4 5 = % = , , > < 3 = $ 1 4 4 4 3 , , 1 1 > # = > : : 5 : > 5 y y f f j A y y w 6 < = - , , 1 , 4 3 ",
"< > = & % - 1 5 w < = = < < < : > 5 w y 6 6 w 6 5 3 > > = : 5 A j A f A A D A A C A 6 > > > < 1 , < ",
"> - = $ - { q.q.q.q.3.J < = = ; 6 ~ A D ! j w f 8 w 3 = * & : 5 D A A A E D j A y y f w 1 = ; > > > ",
"> > & & { q.q.[ P [ { { q 4 : 5 7.D A A } j f f w 6 $ & - - = - 1 A E E E A j D C y y y w 5 : * ; : ",
"= : & 5 4.L y y w q r 7 4 < : D #.=.*.O.D E E j j : * 1 q y 1 = : 1 E ! E E E D C C 6 f y w 5 ; * * ",
"% = : A j j j j D y y 8 1 * # : 1 4 y A } D 6 3 > $ 6 f w w f 4 > : 1 }  . .~ ! D C y A h 5 q w , % ",
"= % 4 A n D } j E D 3 : # # , e C j 5 4 6 5 4 3 > < w f e j j n 6 > > 3  .7.*. .E A D j w y w 5 5 < ",
"> ; ! P D O.E >.A > = > 1 e  .! D D A A w w f 6 : , D y f A E n ! w < ; 3 5 6  .O.A f j j 1 4 5 5 6 ",
"* > D ! O.9.4.4 = = = 5 O.O.} ! ! D D j y u 6 3 @ 5 A C D  . .j E D j 1 ; > , 1 5 E n 6 ; = q w 6 e ",
"; % > 3 5 #.< # * = & - 4  .1.=.=.1.E E D 6 1 # = E ! ..)  . .! ! E 6 > ; > > > : , 1 # # y A j Y 6 ",
": % & > 3 1 1 = $ $ $ = = > j L j A  .6 ; % # @ % 1 3 4 j O. .1.E > = * * * : : > : % @ 3 j f E e ; ",
"- & < O.=._ A y 5 4 3 3 < > > = * = = $ # = ; > 4 4 1 : : 3 3 j > = = * * : : : : * @ * A D ! ~ : * ",
"* ; *.w.*.3.=.P P N 5 5 4 4 4 - * * > 3 5 y N A A 6 6 5 < : , , : = * 1 6 6 6 3 5 1 % : 5 6 } 3 & * ",
"* = 4 w.r.r.:.>./ N r r 7 < 4 < - 1 5 y q 5 4 5 6 7 6 5 5 4 - - = - 5 D y e j y A j 6 5 3 1 3 3 = & ",
"* : : 5 y.9.:.3.{ / J r 7 4 4 < 3 4 4 4 5 4 5 5 5 6 7 7 4 4 - = % 4 ! A j j D j f w y 6 6 4 1 1 - $ ",
"- : < > 3 9.y.3.3.[ J N 7 7 2 < 4 4 4 4 4 4 4 4 4 4 4 4 1 1 . X 5 j j j ! M D j j w y e w w 1 : > $ ",
"8 w w 8 1 2 q.y.r.{ { ' L 7 < 2 2 2 2 2 4 1 3 3 4 6 7 4 4 - O 3 O.D D D D E } M D j f f j w 5 > < 4 ",
"E f 8 q 5 3 4 3 [ t.E n 6 , - < < 2 2 < 4 q j ~ j E ! A q < 1 C n D E  .E E E E E j j f 6 f f 6 y J ",
"j 6 q w 5 5 : O - < = ; * $ = - < < 1 q 3.[  .! O.E f A N N 5 5 }  .D  ._ O.D E E A n n j 5 < f A y ",
"j L j 5 6 , o = < = : ; * : > < - : < ' =.*.#.=. . .j 6 w y 5 5 5  .*. .O.1.O.! E | } j , # 3 *.E E ",
" .M f w 5 * % 5 5 5 w 5 q u y 5 4 > > N ~ _ *.*. . .A j j y B 5 3 1 6  .E O.=.1.E 3 * * O @ 3 f O.! ",
"5 6 < - - % 4 A j D f w y y 5 q 5 5 4 3 1 4 5 5  .O.#.} 6 3 3 ; * 4 3 > > > , , % # * , 1 ; : > 1 1 ",
"1 1 > - : 5 A A D E L n j y w 5 4 5 4 4 3 3 3 4 4 3 6 1 * % % 3 w j 6 6 w 5 5 1 , 4 A A f j 6 5 4 1 ",
"4 4 4 1 - q _ E j D  .j f E f 4 q 5 4 3 < 1 3 3 5 3 4 , = 3 6 =.D M E j w 6 5 6 D D f j y 5 w 5 5 5 ",
"4 4 3 = & # > D *.!  .E D j f w 5 5 5 5 4 , > 3 3 3 3 1 E =.D ! j M D L j 4 5  .E E j f f y w w 5 5 ",
"3 > * % & & # & j 1._ O. . .j f A q r * X > > > , , 1 > 5 5 5 D E D w 1 = + E =.! D E j j A f w 5 4 ",
"; * % # * 4 4 2 < E O.y w j 5 1 1 4 #   $ 4 5 5 4 3 < - - : : , < & # + X # 5 D O.O.E ! j f y w y 3 ",
"= ; < 5 E E ) E q 5 > - - = : = = * # > w 5 5 y B y j j y 3 > > * + + + + # - > y O.%.| D D D 6 1 ; ",
", 4 D E L A j w 5 5 3 ; : = ; * & $ > 4 4 5 5 y 6 C A E ! A = = < > : : : ; < < : , 5 j 6 6 6 > = = ",
"f 6 6 D N r q 7 5 4 4 < = = = - < 3 4 4 5 5 w y y j E *.y : < 5 f w 5 5 5 5 4 2 < > - < - - > * < 4 ",
"5 4 6 6 q 7 5 5 4 4 4 4 2 4 N L _ 3.>.5 4 w f n E ! 6 > - 1 j j f q 4 q 5 4 4 4 2 2 < < > - : - 4 4 ",
"4 3 4 4 7 2 < 1 4 4 2 6 4 5 q N >.4.q._ < < 3 5 5 : 1 5 ! O.A A w u y q 8 4 4 4 < * + - = = * : 4 < ",
"4 1 5 6 4 < 2 2 < 4 4 4 5 5 q 7 L 3.y.u.O.: > : = 1 *.O.! ~ j A L M y w 8 8 4 4 - - < < < 1 < > < < ",
"- : > < < < 2 2 4 4 5 5 5 B A A D 7.y.u.u.4 - : = 3 6  .#. . .! j j f j y 6 5 < 4 q y w w w y 5 < < ",
"w 3 : * : 2 7 4 4 5 w 5 N A A A =.y.t.A : * - = $ * > , 5 C C ! ) D D w 3 1 1 4 4 4 4 5 5 w w f 6 4 ",
">.*.! D c 4 4 4 5 5 5 y A j A =.q.! : # % - < 4 3 < > : : 1 , 3 5 5 3 & : 1 4 4 8 8 6 f f f y j f A ",
"j A E O.` I 4 < 4 q u A P ! E O., = = 3 4 4 4 5 4 5 4 1 > : : > : : * - 5 4 5 q w 5 6 y j j j D y A ",
"j f A L A A A 4 4 J 5 3 > < > : = = 3 4 4 5 5 6 6 5 5 w 5 1 > > < - - 4 4 7 q 5 q y f w A E j E y y ",
"A f y A y A y q 4 4 - = - = = = * 4 4 5 5 6 6 6 w w w w e w 6 6 q < < 4 4 5 5 5 w j f y E A ! 5 q 5 ",
"y 6 q y q y q 5 < - > = * * % $ & > 4 5 6 q q y f f A f f e w w 5 q 4 4 4 5 6 y w f A E O.E w 5 5 5 ",
"f 5 5 q 5 5 5 < = < 4 < 1 < 3 1 : = - 1 6 q y y j j j D j j w f q q 4 4 4 5 8 w j A D E w 1 : < 3 4 ",
"4 6 w 5 5 5 3 - < 2 4 5 5 y y y C 3 > : 1 f A j M j ! j j D j 6 u u 2 5 5 w w y w y 3 : = ; - = : > ",
"> > < 3 4 3 * : 4 4 4 4 5 w w y A D : * : < w D E E E D E E ! j w : y O. ._ D j y 5 3 > - - - = = - ",
": : : : < - * < 4 2 5 y 6 f y j *.D 5 5 5 3 > 1 5 D  .O.O.E y 4 - 5 O.M D D A j f w w 5 = = = = = = ",
"> < < - - - & - - - < 1 3 4 6 4.y.y.y.7.=.j = : > > y j < = $ & w O.-._ D 6 j y w 5 5 3 = = & * * - ",
"j D n 1 - - 1 5 5 4 - - : * u 4.>.O._ O.E 4 $ : : 4 e w 1 < & < =.O.:.2.) w 5 q q u 4 & & < 3 4 6 y ",
"O.! j E < 5 9.1.1.E y < * 4 >.-.=.j _ A j 4 * * 5 ! E j E j 5 q q _ >.{ 4._ I _ _ 2 & - 5 y j A j C "
};
