/* XPM */
static char *_48c12bbd76d4650d60f790b300a9bbfLx2z7l4kDECAdctd[] = {
/* columns rows colors chars-per-pixel */
"50 50 132 2 ",
"   c #1F232F",
".  c #1E2330",
"X  c #22252D",
"o  c #24292F",
"O  c #232633",
"+  c #252A34",
"@  c #292C36",
"#  c #23263B",
"$  c #252B3B",
"%  c #2A2D3A",
"&  c #322F3F",
"*  c #2C313D",
"=  c #30373F",
"-  c #262C40",
";  c #2A2D43",
":  c #2B2F4C",
">  c #2D3343",
",  c #2E334B",
"<  c #313544",
"1  c #393745",
"2  c #323945",
"3  c #32364B",
"4  c #3B364A",
"5  c #343B4C",
"6  c #3A3C4C",
"7  c #2F3350",
"8  c #303650",
"9  c #393651",
"0  c #363B52",
"q  c #393E53",
"w  c #373B59",
"e  c #393E5A",
"r  c #413D4E",
"t  c #423F52",
"y  c #3A424E",
"u  c #3B4354",
"i  c #3E4955",
"p  c #3D445B",
"a  c #3E495A",
"s  c #3E4563",
"d  c #3F4A60",
"f  c #414456",
"g  c #484556",
"h  c #434A57",
"j  c #41465B",
"k  c #4A475C",
"l  c #434A5C",
"z  c #4B4B5D",
"x  c #46505E",
"c  c #49515C",
"v  c #434563",
"b  c #454D62",
"n  c #4A4E62",
"m  c #464D69",
"M  c #494F6C",
"N  c #504D62",
"B  c #465163",
"V  c #4A5265",
"C  c #475169",
"Z  c #4D556A",
"A  c #4E596D",
"S  c #525566",
"D  c #53556A",
"F  c #525A6D",
"G  c #595B6E",
"H  c #4D5473",
"J  c #4F5A70",
"K  c #4F5879",
"L  c #545D72",
"P  c #595E72",
"I  c #535C7C",
"U  c #585F79",
"Y  c #615E73",
"T  c #52606D",
"R  c #566174",
"E  c #5A6275",
"W  c #56617B",
"Q  c #5C657B",
"!  c #5D697D",
"~  c #616779",
"^  c #61697D",
"/  c #6A687E",
"(  c #555E80",
")  c #576282",
"_  c #5A6484",
"`  c #5E6A81",
"'  c #5E668A",
"]  c #5F6A8B",
"[  c #636D83",
"{  c #6A6D82",
"}  c #636E8A",
"|  c #686F8B",
" . c #716E84",
".. c #657186",
"X. c #697185",
"o. c #667289",
"O. c #6B758C",
"+. c #6D798E",
"@. c #73758E",
"#. c #71798E",
"$. c #646D92",
"%. c #6A7692",
"&. c #6D7A92",
"*. c #6C7999",
"=. c #707791",
"-. c #737C94",
";. c #797F97",
":. c #737E98",
">. c #787E98",
",. c #758196",
"<. c #788096",
"1. c #76829A",
"2. c #7B849C",
"3. c #7D899D",
"4. c #7686A0",
"5. c #7D86A1",
"6. c #7E89A2",
"7. c #818B9F",
"8. c #8087A2",
"9. c #838CA4",
"0. c #858EA8",
"q. c #8A8FAC",
"w. c #8691A6",
"e. c #8691AA",
"r. c #8A93AD",
"t. c #8C98AE",
"y. c #8B96B1",
"u. c #8D99B3",
"i. c #9097B1",
"p. c #919CB5",
"a. c #929EB9",
"s. c #96A1BA",
/* pixels */
"9.6.3.2.1.:.-.#.O.O.| [ ^ F F l 2 X.<.<.,.,.,.<.<.,.,.#.^ ^ ~ ~ S < B V L F F L Z Z l V e.e.e.e.9.9.",
"2.2.2.1.:.:.=.+.O.| [ ~ P U F u V X./ @.,.,.#.#.#./ ^ ^ ~ ~ ~ ~ P * 5 B x C C C B B 2 E 6.5.6.6.6.6.",
"1.:.:.-.&.+.X...[ ^ ! L P L Z u T ! F ^ / X.X./ ~ ~ ~ ~ ~ ~ T T F 2 $ q u p u y 5 > @ o.3.,.5.2.6.:.",
"&.+.O.....[ [ ! ! F F E L L b u ~ ~ ~ ! ^ ^ ^ ^ ~ ~ ~ ~ E T Y T D > . . # $ $ # # O * o.*.,.,.:.:.O.",
"o.o.[ ..[ [ ! ! Q A Z L F F q f E E E ~ E ~ E E E ~ E ~ T G T S z % + + + + + @ + + o F +.+.%.+.O.O.",
"o.o.` [ ` ` ! Q R E P L Z C * l S G ~ T G E E E E G G T G S S N 6 + @ * > 2 3 5 5 u * > ....%.O.O.O.",
"....` [ ` ! Q R E L L Z L q + z S S G E G G G G G S G S S N c z % > 5 5 5 u u u u h v @ m ..} o...} ",
"[ ` ` Q Q Q Q R L L F C p $ o 5 x V N F T G G S F D S N c z z 1 $ 5 5 u u u h l l n C h * R ` [ ..[ ",
"` ` Q Q W R R L L Z p 3 $ + % + 4 f l z D G N V S z z g f q 9 $ > y u a l b B C Z Z Z A 5 y Q ! ^ ` ",
"Q Q W R R R L C p 3 , - @ 2 q 5 * % q t k g l f f f q 4 4 < % + 5 u h v C V F F F R F R J , v W ! Q ",
"Q E R Q R Z p , , : - * u p x V Z y * > 6 5 5 3 = & % % % @ + % u h c Z Z F E E Q ! Q ! ` V > C R Q ",
"! ^ R C p 7 , , : % > u l B A E E ~ D < @ @ $ + % = 3 5 0 6 % 2 l C Z F F ^ ! ....o.o.o.o.` y 0 m R ",
"R L 8 ; , 7 , , @ > p l Z L E [ X.X.O.^ 0 + @ 2 5 u u f u j * 6 B F F Q ^ ..O.O.+.+.-.+.#.O.Q > e d ",
"C b , > , 7 ; @ > q l V L Q ^ o.:.;.-.O.Z < * 5 u j l l l l % p F R Q ^ X.+.+.,.<.,.<.,.,.*.+.x > e ",
"5 0 7 7 - O + $ j h b L Q ..O.+.:.5.9.-.H 3 < u l b C V F n % u Z R ^ O.+.-.1.2.3.6.6.6.5.1.&.` % , ",
", , - O 2 l 2 O j h b A E o.+.,.5.1.1.O.Z 3 5 l n Z L L F a @ 0 a Z E X.-.,.2.9.e.e.r.t.6.1.[ K p $ ",
"O % h [ 1.6.[ $ > u V A ! ..%.,.1.1.*...H 3 6 b B Z F A b 3 + ; q b A W ..-.5.e.r.y.6.4.*.) K H M + ",
"V ,.y.r.9.2.;.h . 0 p m A W ] %.*.%.} I H * 5 u p j a v 0 + @ $ * 0 s H E ..,.5.6.,.%.$.K I W I < O ",
"s.u.q.9.7.-.=.! * + > 5 p d H ( _ ) H d 2 o ; , 0 0 q < O % > 5 5 * > s H K _ %.4.$.' ] ) _ K > u +.",
"e.9.9.3.1.@.O.[ u + + + O + @ * * % + O O + @ + + % + O $ 3 u a i 5 $ o 5 Z K I ] ] ] $.] v 5 [ u.a.",
"2.3.3.:.=.O...Q V + @ > > > , 2 > < , > < > * $ O + + $ < u p u u - O y = + u H ) _ ) C < h 1.y.r.e.",
"6.1.-.O.| ! E E B * , y 6 0 u 5 u u q 6 5 3 , > - # O + 3 y 0 3 $ 5 ! 4.1.l X @ > 0 2 * + O.6.1.2.5.",
"&.+.O.[ [ ! E F l * y 0 p u u f p h u u u 0 5 2 > $ O O $ > + < R 1.2.1.0.5.l X * u Z Q u [ 1.:.,.&.",
"O...[ [ Q Q R A u > p h b n l h Z C B n l h p 5 5 , $ + + @ B O.1.2.2.2.e.e.O.% y C Q :.Z ! 1.[ o.&.",
"..` [ ! E L L Z 5 2 b C Z F S Z L U L F Z V b h h 3 $   2 Q *.-.1.2.6.0.e.y.9.a 5 J o.6.L L +.! [ o.",
"[ [ Q E L L A v > 5 x V P E E Q U ~ P P P F Z b u > X > [ +.O.:.1.5.9.0.e.r.u.^ 5 L %.6.Z Z O.[ ..[ ",
"Q E E L A b h u % u b b V E ^ | { [ ^ ^ Q E F l , # % E ..O.&.:.2.5.9.q.e.r.u.5.u B ` } 5 l ! [ ` ` ",
"P L J C l u u > @ u C Z Z A P ^ { @.O.O.{ E b 3 $ + Z ....O.+.>.2.5.6.0.e.e.t.y.R 3 b b * p A L E E ",
"C B l a p 0 ; O o j n Z J F D L Q [ | ^ F l 5 , O i ] [ o.o.-.,.5.5.8.9.0.q.r.i.*.5 * 3 = 3 x C C Z ",
"h p u 5 > . $ * * @ v b M L L U F L U G b q 5 - 5 Q ! [ ..O.+.1.2.8.8.9.0.q.r.i.6.B @ A [ F > l l b ",
"u , > $ $ * y a l 6 * u M m Z L U U U M , 0 > * F Q Q [ ^ ..+.:.;.>.;.7.7.9.0.r.9.[ y V ! *.n ; u u ",
"$ # + . @ h p u B F C u q m M m M Z P f w 0 @ n R L Q ^ ^ [ O.#.>.>.;.7.7.7.9.9.9.[ l p R ..O.5 - > ",
"$ 2 B x * h C Z F F R L B y p Z M v m s e + u D F L R ! [ [ } | =.=.;.<.2.7.2.9.;.^ F 5 Z F Q C % O ",
"E ,.9.2.F > B R ! ^ ! [ [ E h 5 p m v 0 O < Z Z D F L E E ! [ [ O.+.=.=.:.>.2.-.X.[ W 3 u b b p * 2 ",
"<.2.-.#.6.R 5 J ..=.,.-.=.O...L y > y B 2 u V C C b L L E ! Q [ [ X.#.=.&.O.[ ` +.! E 5 $ , , 5 Z } ",
"#.;.#.X.5.6.F 5 L +.5.,.,.3.-.[ C > Q 1.E 5 Z B B V D L L U P Q ! [ [ ! ! ! ` ` } ~ J e + * h R { O.",
"O.+.=.:.;.2.1.b w I &.+._ U Z s 3 5 P Q ! u l B b C Z D F L L L L L L L W R L Z Z J b < @ l R Q ` [ ",
"^ | +.=.:.=.=.o.3 e U ( s s w , % > 5 l Z u h l l c B Z Z Z J Z A Z p b b d v p p s p @ 5 C Z F E ^ ",
"~ [ | o.o.[ ..&.V % p s u 0 p C [ ,...B 5 < u b j p B b b v l d p s u p s s p s s 8 > @ u u l Z F E ",
"L E E Q ! [ [ } L + + 5 j Z ! +.,.3.r.r.[ * $ u 5 0 q q q e u u u p p p q 0 5 < > > + + 5 0 h C Z F ",
"A R R W ! ! ` ` Z $ y a B A L ` o.:.2.9.y.1.u + < , < < 3 < < 1 < > % @ @ > 2 u z L B O $ u l b Z Z ",
"Z F F L R R Q Q j * 8 2 l C F R ` +.,.1.5.w.3.C O + + @ & & r r 4 r 4 < * 5 u B R W ..a   - 0 i l C ",
"l b b C B m v a 5 % 3 y h x Z L R ` O.-.,.,.,.:.N + & r t g k N N z k 4 > u l L ^ O.O.&.u . $ ; 3 0 ",
"$ - , > , , 3 3 ; # $ 3 u a B Z L R ! ^ ....o.o.[ 3 r t N D G Y Y G G g % u V L ! +.,.,.` % X . O O ",
"5 5 2 > ; % % + + . O . ; 3 u a C A A E Q Q ! ! L 3 r N Y ~  . . . .Y r + ; 5 p H W ( W H % * x h y ",
"e.0.6.2.:.@...Q L Z h y * $ , , 8 u u C C C a p 0 % t k D Y / @.@./ k ; * u Z C > - a i % R 6.u.p.t.",
"p.p.u.t.r.q.9.9.7.:.:.} ! h @ + * , 3 , , - % $ % + % < r z D Y Y v , 6 =.t.u.e.O.y C A y y.s.s.a.a.",
"t.r.w.9.9.8.8.2.;.:.#.{ O.[ C @ o o @ * u x A R E Q F z u 5 1 u v 9 2 O.6.5.6.3.9.,.V + T s.u.s.0.9.",
"e.e.9.9.6.8.2.<.:.#.+.O.[ ^ ^ n + $ E ,.3.7.w.w.7.<.3.3.,.^ T c % % F ..O.+.-.-.O...^ y O.p.t.y.2.2.",
"0.9.9.9.5.2.,.;.=.#.O.{ [ Q P V + c 3.7.7.7.3.3.3.^ / <.,./ / ^ f 2 L G Q ! R R E R A i 5.r.r.r.e.w."
};
